<?xml version="1.0" encoding="utf-8" standalone="no"?>
<!DOCTYPE svg PUBLIC "-//W3C//DTD SVG 1.1//EN"
  "http://www.w3.org/Graphics/SVG/1.1/DTD/svg11.dtd">
<svg xmlns:xlink="http://www.w3.org/1999/xlink" width="568.356562pt" height="351.473125pt" viewBox="0 0 568.356562 351.473125" xmlns="http://www.w3.org/2000/svg" version="1.1">
 <metadata>
  <rdf:RDF xmlns:dc="http://purl.org/dc/elements/1.1/" xmlns:cc="http://creativecommons.org/ns#" xmlns:rdf="http://www.w3.org/1999/02/22-rdf-syntax-ns#">
   <cc:Work>
    <dc:type rdf:resource="http://purl.org/dc/dcmitype/StillImage"/>
    <dc:date>2026-03-10T13:24:07.730239</dc:date>
    <dc:format>image/svg+xml</dc:format>
    <dc:creator>
     <cc:Agent>
      <dc:title>Matplotlib v3.10.8, https://matplotlib.org/</dc:title>
     </cc:Agent>
    </dc:creator>
   </cc:Work>
  </rdf:RDF>
 </metadata>
 <defs>
  <style type="text/css">*{stroke-linejoin: round; stroke-linecap: butt}</style>
 </defs>
 <g id="figure_1">
  <g id="patch_1">
   <path d="M 0 351.473125 
L 568.356562 351.473125 
L 568.356562 0 
L 0 0 
z
" style="fill: #ffffff"/>
  </g>
  <g id="axes_1">
   <g id="patch_2">
    <path d="M 47.107813 313.916875 
L 561.156562 313.916875 
L 561.156562 22.318125 
L 47.107813 22.318125 
z
" style="fill: #ffffff"/>
   </g>
   <g id="matplotlib.axis_1">
    <g id="xtick_1">
     <g id="line2d_1">
      <path d="M 70.473665 313.916875 
L 70.473665 22.318125 
" clip-path="url(#p16797b77a3)" style="fill: none; stroke-dasharray: 2.96,1.28; stroke-dashoffset: 0; stroke: #b0b0b0; stroke-opacity: 0.6; stroke-width: 0.8"/>
     </g>
     <g id="line2d_2">
      <defs>
       <path id="md22fc45233" d="M 0 0 
L 0 3.5 
" style="stroke: #000000; stroke-width: 0.8"/>
      </defs>
      <g>
       <use xlink:href="#md22fc45233" x="70.473665" y="313.916875" style="stroke: #000000; stroke-width: 0.8"/>
      </g>
     </g>
     <g id="text_1">
      <!-- 0 -->
      <g transform="translate(67.292415 328.515312) scale(0.1 -0.1)">
       <defs>
        <path id="DejaVuSerif-30" d="M 2034 219 
Q 2513 219 2750 744 
Q 2988 1269 2988 2328 
Q 2988 3391 2750 3916 
Q 2513 4441 2034 4441 
Q 1556 4441 1318 3916 
Q 1081 3391 1081 2328 
Q 1081 1269 1318 744 
Q 1556 219 2034 219 
z
M 2034 -91 
Q 1275 -91 848 546 
Q 422 1184 422 2328 
Q 422 3475 848 4112 
Q 1275 4750 2034 4750 
Q 2797 4750 3222 4112 
Q 3647 3475 3647 2328 
Q 3647 1184 3222 546 
Q 2797 -91 2034 -91 
z
" transform="scale(0.015625)"/>
       </defs>
       <use xlink:href="#DejaVuSerif-30"/>
      </g>
     </g>
    </g>
    <g id="xtick_2">
     <g id="line2d_3">
      <path d="M 169.902823 313.916875 
L 169.902823 22.318125 
" clip-path="url(#p16797b77a3)" style="fill: none; stroke-dasharray: 2.96,1.28; stroke-dashoffset: 0; stroke: #b0b0b0; stroke-opacity: 0.6; stroke-width: 0.8"/>
     </g>
     <g id="line2d_4">
      <g>
       <use xlink:href="#md22fc45233" x="169.902823" y="313.916875" style="stroke: #000000; stroke-width: 0.8"/>
      </g>
     </g>
     <g id="text_2">
      <!-- 10 -->
      <g transform="translate(163.540323 328.515312) scale(0.1 -0.1)">
       <defs>
        <path id="DejaVuSerif-31" d="M 909 0 
L 909 331 
L 1722 331 
L 1722 4213 
L 781 3603 
L 781 4013 
L 1919 4750 
L 2350 4750 
L 2350 331 
L 3163 331 
L 3163 0 
L 909 0 
z
" transform="scale(0.015625)"/>
       </defs>
       <use xlink:href="#DejaVuSerif-31"/>
       <use xlink:href="#DejaVuSerif-30" transform="translate(63.623047 0)"/>
      </g>
     </g>
    </g>
    <g id="xtick_3">
     <g id="line2d_5">
      <path d="M 269.331982 313.916875 
L 269.331982 22.318125 
" clip-path="url(#p16797b77a3)" style="fill: none; stroke-dasharray: 2.96,1.28; stroke-dashoffset: 0; stroke: #b0b0b0; stroke-opacity: 0.6; stroke-width: 0.8"/>
     </g>
     <g id="line2d_6">
      <g>
       <use xlink:href="#md22fc45233" x="269.331982" y="313.916875" style="stroke: #000000; stroke-width: 0.8"/>
      </g>
     </g>
     <g id="text_3">
      <!-- 20 -->
      <g transform="translate(262.969482 328.515312) scale(0.1 -0.1)">
       <defs>
        <path id="DejaVuSerif-32" d="M 819 3553 
L 469 3553 
L 469 4384 
Q 803 4563 1142 4656 
Q 1481 4750 1806 4750 
Q 2534 4750 2956 4397 
Q 3378 4044 3378 3438 
Q 3378 2753 2422 1800 
Q 2347 1728 2309 1691 
L 1131 513 
L 3078 513 
L 3078 1088 
L 3444 1088 
L 3444 0 
L 434 0 
L 434 341 
L 1850 1753 
Q 2319 2222 2519 2614 
Q 2719 3006 2719 3438 
Q 2719 3909 2473 4175 
Q 2228 4441 1797 4441 
Q 1350 4441 1106 4219 
Q 863 3997 819 3553 
z
" transform="scale(0.015625)"/>
       </defs>
       <use xlink:href="#DejaVuSerif-32"/>
       <use xlink:href="#DejaVuSerif-30" transform="translate(63.623047 0)"/>
      </g>
     </g>
    </g>
    <g id="xtick_4">
     <g id="line2d_7">
      <path d="M 368.761141 313.916875 
L 368.761141 22.318125 
" clip-path="url(#p16797b77a3)" style="fill: none; stroke-dasharray: 2.96,1.28; stroke-dashoffset: 0; stroke: #b0b0b0; stroke-opacity: 0.6; stroke-width: 0.8"/>
     </g>
     <g id="line2d_8">
      <g>
       <use xlink:href="#md22fc45233" x="368.761141" y="313.916875" style="stroke: #000000; stroke-width: 0.8"/>
      </g>
     </g>
     <g id="text_4">
      <!-- 30 -->
      <g transform="translate(362.398641 328.515312) scale(0.1 -0.1)">
       <defs>
        <path id="DejaVuSerif-33" d="M 622 4469 
Q 988 4606 1323 4678 
Q 1659 4750 1953 4750 
Q 2638 4750 3022 4454 
Q 3406 4159 3406 3634 
Q 3406 3213 3140 2930 
Q 2875 2647 2388 2547 
Q 2963 2466 3280 2130 
Q 3597 1794 3597 1259 
Q 3597 606 3158 257 
Q 2719 -91 1894 -91 
Q 1528 -91 1179 -12 
Q 831 66 488 225 
L 488 1131 
L 838 1131 
Q 869 681 1141 450 
Q 1413 219 1906 219 
Q 2384 219 2661 495 
Q 2938 772 2938 1253 
Q 2938 1803 2653 2086 
Q 2369 2369 1819 2369 
L 1522 2369 
L 1522 2688 
L 1678 2688 
Q 2225 2688 2498 2914 
Q 2772 3141 2772 3597 
Q 2772 4006 2547 4223 
Q 2322 4441 1900 4441 
Q 1478 4441 1245 4241 
Q 1013 4041 972 3647 
L 622 3647 
L 622 4469 
z
" transform="scale(0.015625)"/>
       </defs>
       <use xlink:href="#DejaVuSerif-33"/>
       <use xlink:href="#DejaVuSerif-30" transform="translate(63.623047 0)"/>
      </g>
     </g>
    </g>
    <g id="xtick_5">
     <g id="line2d_9">
      <path d="M 468.190299 313.916875 
L 468.190299 22.318125 
" clip-path="url(#p16797b77a3)" style="fill: none; stroke-dasharray: 2.96,1.28; stroke-dashoffset: 0; stroke: #b0b0b0; stroke-opacity: 0.6; stroke-width: 0.8"/>
     </g>
     <g id="line2d_10">
      <g>
       <use xlink:href="#md22fc45233" x="468.190299" y="313.916875" style="stroke: #000000; stroke-width: 0.8"/>
      </g>
     </g>
     <g id="text_5">
      <!-- 40 -->
      <g transform="translate(461.827799 328.515312) scale(0.1 -0.1)">
       <defs>
        <path id="DejaVuSerif-34" d="M 2234 1581 
L 2234 4063 
L 641 1581 
L 2234 1581 
z
M 3609 0 
L 1484 0 
L 1484 331 
L 2234 331 
L 2234 1247 
L 197 1247 
L 197 1588 
L 2241 4750 
L 2859 4750 
L 2859 1581 
L 3750 1581 
L 3750 1247 
L 2859 1247 
L 2859 331 
L 3609 331 
L 3609 0 
z
" transform="scale(0.015625)"/>
       </defs>
       <use xlink:href="#DejaVuSerif-34"/>
       <use xlink:href="#DejaVuSerif-30" transform="translate(63.623047 0)"/>
      </g>
     </g>
    </g>
    <g id="text_6">
     <!-- Time step (t) -->
     <g transform="translate(271.672812 342.193437) scale(0.1 -0.1)">
      <defs>
       <path id="DejaVuSerif-54" d="M 1222 0 
L 1222 331 
L 1819 331 
L 1819 4294 
L 447 4294 
L 447 3566 
L 63 3566 
L 63 4666 
L 4206 4666 
L 4206 3566 
L 3822 3566 
L 3822 4294 
L 2450 4294 
L 2450 331 
L 3047 331 
L 3047 0 
L 1222 0 
z
" transform="scale(0.015625)"/>
       <path id="DejaVuSerif-69" d="M 622 4353 
Q 622 4497 726 4603 
Q 831 4709 978 4709 
Q 1122 4709 1226 4603 
Q 1331 4497 1331 4353 
Q 1331 4206 1228 4103 
Q 1125 4000 978 4000 
Q 831 4000 726 4103 
Q 622 4206 622 4353 
z
M 1356 331 
L 1900 331 
L 1900 0 
L 231 0 
L 231 331 
L 781 331 
L 781 2988 
L 231 2988 
L 231 3322 
L 1356 3322 
L 1356 331 
z
" transform="scale(0.015625)"/>
       <path id="DejaVuSerif-6d" d="M 3316 2675 
Q 3481 3041 3739 3227 
Q 3997 3413 4341 3413 
Q 4863 3413 5119 3089 
Q 5375 2766 5375 2113 
L 5375 331 
L 5894 331 
L 5894 0 
L 4300 0 
L 4300 331 
L 4800 331 
L 4800 2047 
Q 4800 2556 4650 2772 
Q 4500 2988 4153 2988 
Q 3769 2988 3567 2697 
Q 3366 2406 3366 1850 
L 3366 331 
L 3866 331 
L 3866 0 
L 2291 0 
L 2291 331 
L 2791 331 
L 2791 2069 
Q 2791 2566 2641 2777 
Q 2491 2988 2144 2988 
Q 1759 2988 1557 2697 
Q 1356 2406 1356 1850 
L 1356 331 
L 1856 331 
L 1856 0 
L 263 0 
L 263 331 
L 781 331 
L 781 2994 
L 231 2994 
L 231 3322 
L 1356 3322 
L 1356 2731 
Q 1516 3063 1762 3238 
Q 2009 3413 2322 3413 
Q 2709 3413 2968 3220 
Q 3228 3028 3316 2675 
z
" transform="scale(0.015625)"/>
       <path id="DejaVuSerif-65" d="M 3469 1600 
L 991 1600 
L 991 1575 
Q 991 903 1244 561 
Q 1497 219 1991 219 
Q 2369 219 2611 417 
Q 2853 616 2950 1006 
L 3413 1006 
Q 3275 459 2904 184 
Q 2534 -91 1931 -91 
Q 1203 -91 761 389 
Q 319 869 319 1663 
Q 319 2450 753 2931 
Q 1188 3413 1894 3413 
Q 2647 3413 3050 2948 
Q 3453 2484 3469 1600 
z
M 2791 1931 
Q 2772 2513 2545 2808 
Q 2319 3103 1894 3103 
Q 1497 3103 1269 2806 
Q 1041 2509 991 1931 
L 2791 1931 
z
" transform="scale(0.015625)"/>
       <path id="DejaVuSerif-20" transform="scale(0.015625)"/>
       <path id="DejaVuSerif-73" d="M 359 184 
L 359 959 
L 691 959 
Q 703 588 923 403 
Q 1144 219 1575 219 
Q 1963 219 2166 364 
Q 2369 509 2369 788 
Q 2369 1006 2220 1140 
Q 2072 1275 1594 1428 
L 1178 1569 
Q 750 1706 558 1912 
Q 366 2119 366 2438 
Q 366 2894 700 3153 
Q 1034 3413 1625 3413 
Q 1888 3413 2178 3344 
Q 2469 3275 2778 3144 
L 2778 2419 
L 2447 2419 
Q 2434 2741 2221 2922 
Q 2009 3103 1644 3103 
Q 1281 3103 1095 2975 
Q 909 2847 909 2591 
Q 909 2381 1050 2254 
Q 1191 2128 1613 1997 
L 2069 1856 
Q 2541 1709 2748 1489 
Q 2956 1269 2956 922 
Q 2956 450 2595 179 
Q 2234 -91 1600 -91 
Q 1278 -91 972 -22 
Q 666 47 359 184 
z
" transform="scale(0.015625)"/>
       <path id="DejaVuSerif-74" d="M 691 2988 
L 184 2988 
L 184 3322 
L 691 3322 
L 691 4353 
L 1269 4353 
L 1269 3322 
L 2350 3322 
L 2350 2988 
L 1269 2988 
L 1269 878 
Q 1269 456 1350 337 
Q 1431 219 1650 219 
Q 1875 219 1978 351 
Q 2081 484 2088 781 
L 2522 781 
Q 2497 328 2275 118 
Q 2053 -91 1600 -91 
Q 1103 -91 897 129 
Q 691 350 691 878 
L 691 2988 
z
" transform="scale(0.015625)"/>
       <path id="DejaVuSerif-70" d="M 1313 1825 
L 1313 1497 
Q 1313 897 1542 583 
Q 1772 269 2209 269 
Q 2650 269 2876 622 
Q 3103 975 3103 1663 
Q 3103 2353 2876 2703 
Q 2650 3053 2209 3053 
Q 1772 3053 1542 2737 
Q 1313 2422 1313 1825 
z
M 738 2988 
L 184 2988 
L 184 3322 
L 1313 3322 
L 1313 2803 
Q 1481 3116 1742 3264 
Q 2003 3413 2388 3413 
Q 3000 3413 3387 2928 
Q 3775 2444 3775 1663 
Q 3775 881 3387 395 
Q 3000 -91 2388 -91 
Q 2003 -91 1742 57 
Q 1481 206 1313 519 
L 1313 -997 
L 1856 -997 
L 1856 -1331 
L 184 -1331 
L 184 -997 
L 738 -997 
L 738 2988 
z
" transform="scale(0.015625)"/>
       <path id="DejaVuSerif-28" d="M 2041 -997 
Q 1281 -656 893 83 
Q 506 822 506 1931 
Q 506 3044 893 3783 
Q 1281 4522 2041 4863 
L 2041 4556 
Q 1559 4225 1350 3623 
Q 1141 3022 1141 1931 
Q 1141 844 1350 242 
Q 1559 -359 2041 -691 
L 2041 -997 
z
" transform="scale(0.015625)"/>
       <path id="DejaVuSerif-29" d="M 453 -997 
L 453 -691 
Q 934 -359 1145 242 
Q 1356 844 1356 1931 
Q 1356 3022 1145 3623 
Q 934 4225 453 4556 
L 453 4863 
Q 1216 4522 1603 3783 
Q 1991 3044 1991 1931 
Q 1991 822 1603 83 
Q 1216 -656 453 -997 
z
" transform="scale(0.015625)"/>
      </defs>
      <use xlink:href="#DejaVuSerif-54"/>
      <use xlink:href="#DejaVuSerif-69" transform="translate(66.699219 0)"/>
      <use xlink:href="#DejaVuSerif-6d" transform="translate(98.681641 0)"/>
      <use xlink:href="#DejaVuSerif-65" transform="translate(193.505859 0)"/>
      <use xlink:href="#DejaVuSerif-20" transform="translate(252.685547 0)"/>
      <use xlink:href="#DejaVuSerif-73" transform="translate(284.472656 0)"/>
      <use xlink:href="#DejaVuSerif-74" transform="translate(335.791016 0)"/>
      <use xlink:href="#DejaVuSerif-65" transform="translate(375.976562 0)"/>
      <use xlink:href="#DejaVuSerif-70" transform="translate(435.15625 0)"/>
      <use xlink:href="#DejaVuSerif-20" transform="translate(499.169922 0)"/>
      <use xlink:href="#DejaVuSerif-28" transform="translate(530.957031 0)"/>
      <use xlink:href="#DejaVuSerif-74" transform="translate(569.970703 0)"/>
      <use xlink:href="#DejaVuSerif-29" transform="translate(610.15625 0)"/>
     </g>
    </g>
   </g>
   <g id="matplotlib.axis_2">
    <g id="ytick_1">
     <g id="line2d_11">
      <path d="M 47.107813 305.912311 
L 561.156562 305.912311 
" clip-path="url(#p16797b77a3)" style="fill: none; stroke-dasharray: 2.96,1.28; stroke-dashoffset: 0; stroke: #b0b0b0; stroke-opacity: 0.6; stroke-width: 0.8"/>
     </g>
     <g id="line2d_12">
      <defs>
       <path id="m83e444b035" d="M 0 0 
L -3.5 0 
" style="stroke: #000000; stroke-width: 0.8"/>
      </defs>
      <g>
       <use xlink:href="#m83e444b035" x="47.107813" y="305.912311" style="stroke: #000000; stroke-width: 0.8"/>
      </g>
     </g>
     <g id="text_7">
      <!-- 100 -->
      <g transform="translate(21.020313 309.71153) scale(0.1 -0.1)">
       <use xlink:href="#DejaVuSerif-31"/>
       <use xlink:href="#DejaVuSerif-30" transform="translate(63.623047 0)"/>
       <use xlink:href="#DejaVuSerif-30" transform="translate(127.246094 0)"/>
      </g>
     </g>
    </g>
    <g id="ytick_2">
     <g id="line2d_13">
      <path d="M 47.107813 241.783058 
L 561.156562 241.783058 
" clip-path="url(#p16797b77a3)" style="fill: none; stroke-dasharray: 2.96,1.28; stroke-dashoffset: 0; stroke: #b0b0b0; stroke-opacity: 0.6; stroke-width: 0.8"/>
     </g>
     <g id="line2d_14">
      <g>
       <use xlink:href="#m83e444b035" x="47.107813" y="241.783058" style="stroke: #000000; stroke-width: 0.8"/>
      </g>
     </g>
     <g id="text_8">
      <!-- 200 -->
      <g transform="translate(21.020313 245.582276) scale(0.1 -0.1)">
       <use xlink:href="#DejaVuSerif-32"/>
       <use xlink:href="#DejaVuSerif-30" transform="translate(63.623047 0)"/>
       <use xlink:href="#DejaVuSerif-30" transform="translate(127.246094 0)"/>
      </g>
     </g>
    </g>
    <g id="ytick_3">
     <g id="line2d_15">
      <path d="M 47.107813 177.653804 
L 561.156562 177.653804 
" clip-path="url(#p16797b77a3)" style="fill: none; stroke-dasharray: 2.96,1.28; stroke-dashoffset: 0; stroke: #b0b0b0; stroke-opacity: 0.6; stroke-width: 0.8"/>
     </g>
     <g id="line2d_16">
      <g>
       <use xlink:href="#m83e444b035" x="47.107813" y="177.653804" style="stroke: #000000; stroke-width: 0.8"/>
      </g>
     </g>
     <g id="text_9">
      <!-- 300 -->
      <g transform="translate(21.020313 181.453023) scale(0.1 -0.1)">
       <use xlink:href="#DejaVuSerif-33"/>
       <use xlink:href="#DejaVuSerif-30" transform="translate(63.623047 0)"/>
       <use xlink:href="#DejaVuSerif-30" transform="translate(127.246094 0)"/>
      </g>
     </g>
    </g>
    <g id="ytick_4">
     <g id="line2d_17">
      <path d="M 47.107813 113.524551 
L 561.156562 113.524551 
" clip-path="url(#p16797b77a3)" style="fill: none; stroke-dasharray: 2.96,1.28; stroke-dashoffset: 0; stroke: #b0b0b0; stroke-opacity: 0.6; stroke-width: 0.8"/>
     </g>
     <g id="line2d_18">
      <g>
       <use xlink:href="#m83e444b035" x="47.107813" y="113.524551" style="stroke: #000000; stroke-width: 0.8"/>
      </g>
     </g>
     <g id="text_10">
      <!-- 400 -->
      <g transform="translate(21.020313 117.32377) scale(0.1 -0.1)">
       <use xlink:href="#DejaVuSerif-34"/>
       <use xlink:href="#DejaVuSerif-30" transform="translate(63.623047 0)"/>
       <use xlink:href="#DejaVuSerif-30" transform="translate(127.246094 0)"/>
      </g>
     </g>
    </g>
    <g id="ytick_5">
     <g id="line2d_19">
      <path d="M 47.107813 49.395297 
L 561.156562 49.395297 
" clip-path="url(#p16797b77a3)" style="fill: none; stroke-dasharray: 2.96,1.28; stroke-dashoffset: 0; stroke: #b0b0b0; stroke-opacity: 0.6; stroke-width: 0.8"/>
     </g>
     <g id="line2d_20">
      <g>
       <use xlink:href="#m83e444b035" x="47.107813" y="49.395297" style="stroke: #000000; stroke-width: 0.8"/>
      </g>
     </g>
     <g id="text_11">
      <!-- 500 -->
      <g transform="translate(21.020313 53.194516) scale(0.1 -0.1)">
       <defs>
        <path id="DejaVuSerif-35" d="M 3219 4666 
L 3219 4153 
L 1081 4153 
L 1081 2816 
Q 1244 2928 1461 2984 
Q 1678 3041 1947 3041 
Q 2703 3041 3140 2622 
Q 3578 2203 3578 1478 
Q 3578 738 3136 323 
Q 2694 -91 1894 -91 
Q 1572 -91 1234 -12 
Q 897 66 544 225 
L 544 1131 
L 897 1131 
Q 925 688 1179 453 
Q 1434 219 1894 219 
Q 2388 219 2653 544 
Q 2919 869 2919 1478 
Q 2919 2084 2655 2407 
Q 2391 2731 1894 2731 
Q 1613 2731 1398 2631 
Q 1184 2531 1019 2322 
L 750 2322 
L 750 4666 
L 3219 4666 
z
" transform="scale(0.015625)"/>
       </defs>
       <use xlink:href="#DejaVuSerif-35"/>
       <use xlink:href="#DejaVuSerif-30" transform="translate(63.623047 0)"/>
       <use xlink:href="#DejaVuSerif-30" transform="translate(127.246094 0)"/>
      </g>
     </g>
    </g>
    <g id="text_12">
     <!-- Key Rate Demand (kb/sec) -->
     <g transform="translate(14.798438 235.353437) rotate(-90) scale(0.1 -0.1)">
      <defs>
       <path id="DejaVuSerif-4b" d="M 353 0 
L 353 331 
L 947 331 
L 947 4331 
L 353 4331 
L 353 4666 
L 2175 4666 
L 2175 4331 
L 1581 4331 
L 1581 2566 
L 3591 4331 
L 3084 4331 
L 3084 4666 
L 4634 4666 
L 4634 4331 
L 4109 4331 
L 2106 2572 
L 4347 331 
L 4878 331 
L 4878 0 
L 3794 0 
L 1581 2216 
L 1581 331 
L 2175 331 
L 2175 0 
L 353 0 
z
" transform="scale(0.015625)"/>
       <path id="DejaVuSerif-79" d="M 1381 -609 
L 1600 -56 
L 359 2988 
L -19 2988 
L -19 3322 
L 1509 3322 
L 1509 2988 
L 978 2988 
L 1913 703 
L 2847 2988 
L 2350 2988 
L 2350 3322 
L 3597 3322 
L 3597 2988 
L 3225 2988 
L 1703 -750 
Q 1547 -1138 1356 -1280 
Q 1166 -1422 819 -1422 
Q 672 -1422 517 -1397 
Q 363 -1372 206 -1325 
L 206 -691 
L 500 -691 
Q 519 -903 608 -995 
Q 697 -1088 884 -1088 
Q 1056 -1088 1161 -992 
Q 1266 -897 1381 -609 
z
" transform="scale(0.015625)"/>
       <path id="DejaVuSerif-52" d="M 3066 2316 
Q 3284 2256 3442 2114 
Q 3600 1972 3725 1716 
L 4403 331 
L 4972 331 
L 4972 0 
L 3872 0 
L 3144 1484 
Q 2934 1916 2759 2042 
Q 2584 2169 2278 2169 
L 1581 2169 
L 1581 331 
L 2241 331 
L 2241 0 
L 353 0 
L 353 331 
L 947 331 
L 947 4331 
L 353 4331 
L 353 4666 
L 2719 4666 
Q 3400 4666 3770 4341 
Q 4141 4016 4141 3419 
Q 4141 2938 3870 2661 
Q 3600 2384 3066 2316 
z
M 1581 2503 
L 2503 2503 
Q 2975 2503 3200 2726 
Q 3425 2950 3425 3419 
Q 3425 3888 3200 4109 
Q 2975 4331 2503 4331 
L 1581 4331 
L 1581 2503 
z
" transform="scale(0.015625)"/>
       <path id="DejaVuSerif-61" d="M 2547 1044 
L 2547 1747 
L 1806 1747 
Q 1378 1747 1168 1562 
Q 959 1378 959 997 
Q 959 650 1171 447 
Q 1384 244 1747 244 
Q 2106 244 2326 466 
Q 2547 688 2547 1044 
z
M 3122 2075 
L 3122 331 
L 3634 331 
L 3634 0 
L 2547 0 
L 2547 359 
Q 2356 128 2106 18 
Q 1856 -91 1522 -91 
Q 969 -91 644 203 
Q 319 497 319 997 
Q 319 1513 691 1797 
Q 1063 2081 1741 2081 
L 2547 2081 
L 2547 2309 
Q 2547 2688 2317 2895 
Q 2088 3103 1672 3103 
Q 1328 3103 1125 2947 
Q 922 2791 872 2484 
L 575 2484 
L 575 3156 
Q 875 3284 1158 3348 
Q 1441 3413 1709 3413 
Q 2400 3413 2761 3070 
Q 3122 2728 3122 2075 
z
" transform="scale(0.015625)"/>
       <path id="DejaVuSerif-44" d="M 1581 331 
L 2163 331 
Q 3072 331 3558 850 
Q 4044 1369 4044 2338 
Q 4044 3306 3559 3818 
Q 3075 4331 2163 4331 
L 1581 4331 
L 1581 331 
z
M 353 0 
L 353 331 
L 947 331 
L 947 4331 
L 353 4331 
L 353 4666 
L 2209 4666 
Q 3416 4666 4089 4050 
Q 4763 3434 4763 2338 
Q 4763 1238 4088 619 
Q 3413 0 2209 0 
L 353 0 
z
" transform="scale(0.015625)"/>
       <path id="DejaVuSerif-6e" d="M 263 0 
L 263 331 
L 781 331 
L 781 2988 
L 231 2988 
L 231 3322 
L 1356 3322 
L 1356 2731 
Q 1516 3069 1770 3241 
Q 2025 3413 2363 3413 
Q 2913 3413 3172 3097 
Q 3431 2781 3431 2113 
L 3431 331 
L 3944 331 
L 3944 0 
L 2356 0 
L 2356 331 
L 2853 331 
L 2853 1931 
Q 2853 2541 2703 2767 
Q 2553 2994 2175 2994 
Q 1775 2994 1565 2701 
Q 1356 2409 1356 1850 
L 1356 331 
L 1856 331 
L 1856 0 
L 263 0 
z
" transform="scale(0.015625)"/>
       <path id="DejaVuSerif-64" d="M 3359 331 
L 3909 331 
L 3909 0 
L 2784 0 
L 2784 519 
Q 2616 206 2355 57 
Q 2094 -91 1709 -91 
Q 1097 -91 708 395 
Q 319 881 319 1663 
Q 319 2444 706 2928 
Q 1094 3413 1709 3413 
Q 2094 3413 2355 3264 
Q 2616 3116 2784 2803 
L 2784 4531 
L 2241 4531 
L 2241 4863 
L 3359 4863 
L 3359 331 
z
M 2784 1497 
L 2784 1825 
Q 2784 2422 2554 2737 
Q 2325 3053 1888 3053 
Q 1444 3053 1217 2703 
Q 991 2353 991 1663 
Q 991 975 1217 622 
Q 1444 269 1888 269 
Q 2325 269 2554 583 
Q 2784 897 2784 1497 
z
" transform="scale(0.015625)"/>
       <path id="DejaVuSerif-6b" d="M 1831 0 
L 219 0 
L 219 331 
L 738 331 
L 738 4531 
L 184 4531 
L 184 4863 
L 1313 4863 
L 1313 1697 
L 2713 2988 
L 2234 2988 
L 2234 3322 
L 3738 3322 
L 3738 2988 
L 3169 2988 
L 2181 2075 
L 3444 331 
L 3922 331 
L 3922 0 
L 2284 0 
L 2284 331 
L 2759 331 
L 1766 1697 
L 1313 1275 
L 1313 331 
L 1831 331 
L 1831 0 
z
" transform="scale(0.015625)"/>
       <path id="DejaVuSerif-62" d="M 738 331 
L 738 4531 
L 184 4531 
L 184 4863 
L 1313 4863 
L 1313 2803 
Q 1481 3116 1742 3264 
Q 2003 3413 2388 3413 
Q 3000 3413 3387 2928 
Q 3775 2444 3775 1663 
Q 3775 881 3387 395 
Q 3000 -91 2388 -91 
Q 2003 -91 1742 57 
Q 1481 206 1313 519 
L 1313 0 
L 184 0 
L 184 331 
L 738 331 
z
M 1313 1497 
Q 1313 897 1542 583 
Q 1772 269 2209 269 
Q 2650 269 2876 622 
Q 3103 975 3103 1663 
Q 3103 2353 2876 2703 
Q 2650 3053 2209 3053 
Q 1772 3053 1542 2737 
Q 1313 2422 1313 1825 
L 1313 1497 
z
" transform="scale(0.015625)"/>
       <path id="DejaVuSerif-2f" d="M 1656 4666 
L 2156 4666 
L 500 -594 
L 0 -594 
L 1656 4666 
z
" transform="scale(0.015625)"/>
       <path id="DejaVuSerif-63" d="M 3291 997 
Q 3169 466 2822 187 
Q 2475 -91 1925 -91 
Q 1200 -91 759 389 
Q 319 869 319 1663 
Q 319 2459 759 2936 
Q 1200 3413 1925 3413 
Q 2241 3413 2553 3339 
Q 2866 3266 3181 3116 
L 3181 2266 
L 2847 2266 
Q 2781 2703 2561 2903 
Q 2341 3103 1931 3103 
Q 1466 3103 1228 2742 
Q 991 2381 991 1663 
Q 991 944 1227 581 
Q 1463 219 1931 219 
Q 2303 219 2525 412 
Q 2747 606 2828 997 
L 3291 997 
z
" transform="scale(0.015625)"/>
      </defs>
      <use xlink:href="#DejaVuSerif-4b"/>
      <use xlink:href="#DejaVuSerif-65" transform="translate(72.082031 0)"/>
      <use xlink:href="#DejaVuSerif-79" transform="translate(131.261719 0)"/>
      <use xlink:href="#DejaVuSerif-20" transform="translate(187.755859 0)"/>
      <use xlink:href="#DejaVuSerif-52" transform="translate(219.542969 0)"/>
      <use xlink:href="#DejaVuSerif-61" transform="translate(297.085938 0)"/>
      <use xlink:href="#DejaVuSerif-74" transform="translate(356.705078 0)"/>
      <use xlink:href="#DejaVuSerif-65" transform="translate(396.890625 0)"/>
      <use xlink:href="#DejaVuSerif-20" transform="translate(456.070312 0)"/>
      <use xlink:href="#DejaVuSerif-44" transform="translate(487.857422 0)"/>
      <use xlink:href="#DejaVuSerif-65" transform="translate(568.033203 0)"/>
      <use xlink:href="#DejaVuSerif-6d" transform="translate(627.212891 0)"/>
      <use xlink:href="#DejaVuSerif-61" transform="translate(722.037109 0)"/>
      <use xlink:href="#DejaVuSerif-6e" transform="translate(781.65625 0)"/>
      <use xlink:href="#DejaVuSerif-64" transform="translate(846.060547 0)"/>
      <use xlink:href="#DejaVuSerif-20" transform="translate(910.074219 0)"/>
      <use xlink:href="#DejaVuSerif-28" transform="translate(941.861328 0)"/>
      <use xlink:href="#DejaVuSerif-6b" transform="translate(980.875 0)"/>
      <use xlink:href="#DejaVuSerif-62" transform="translate(1041.470703 0)"/>
      <use xlink:href="#DejaVuSerif-2f" transform="translate(1105.484375 0)"/>
      <use xlink:href="#DejaVuSerif-73" transform="translate(1139.175781 0)"/>
      <use xlink:href="#DejaVuSerif-65" transform="translate(1190.494141 0)"/>
      <use xlink:href="#DejaVuSerif-63" transform="translate(1249.673828 0)"/>
      <use xlink:href="#DejaVuSerif-29" transform="translate(1305.679688 0)"/>
     </g>
    </g>
   </g>
   <g id="line2d_21">
    <path d="M 70.473665 174.452716 
L 80.416581 174.450927 
L 90.359496 174.42433 
L 100.302412 174.311053 
L 110.245328 174.013883 
L 120.188244 173.408691 
L 130.13116 172.355357 
L 140.074076 170.710426 
L 150.016992 168.340565 
L 159.959908 165.135848 
L 169.902823 161.021894 
L 179.845739 155.969944 
L 189.788655 150.00411 
L 199.731571 143.20521 
L 209.674487 135.710834 
L 219.617403 127.711542 
L 229.560319 119.443353 
L 239.503234 111.176953 
L 249.44615 103.204257 
L 259.389066 95.823158 
L 269.331982 89.321428 
L 279.274898 83.960786 
L 289.217814 79.96217 
L 299.16073 77.493148 
L 309.103645 76.658292 
L 319.046561 77.493148 
L 328.989477 79.96217 
L 338.932393 83.960786 
L 348.875309 89.321428 
L 358.818225 95.823158 
L 368.761141 103.204257 
L 378.704056 111.176953 
L 388.646972 119.443353 
L 398.589888 127.711542 
L 408.532804 135.710834 
L 418.47572 143.20521 
L 428.418636 150.00411 
L 438.361552 155.969944 
L 448.304467 161.021894 
L 458.247383 165.135848 
L 468.190299 168.340565 
L 478.133215 170.710426 
L 488.076131 172.355357 
L 498.019047 173.408691 
L 507.961963 174.013883 
L 517.904879 174.311053 
L 527.847794 174.42433 
L 537.79071 174.450927 
" clip-path="url(#p16797b77a3)" style="fill: none; stroke: #1f77b4; stroke-width: 1.6; stroke-linecap: square"/>
   </g>
   <g id="line2d_22">
    <path d="M 70.473665 236.629223 
L 80.416581 236.628002 
L 90.359496 236.60986 
L 100.302412 236.532593 
L 110.245328 236.329892 
L 120.188244 235.917087 
L 130.13116 235.198601 
L 140.074076 234.076584 
L 150.016992 232.460087 
L 159.959908 230.27413 
L 169.902823 227.467977 
L 179.845739 224.022011 
L 189.788655 219.95268 
L 199.731571 215.315109 
L 209.674487 210.20315 
L 219.617403 204.746784 
L 229.560319 199.107001 
L 239.503234 193.46844 
L 249.44615 188.030216 
L 259.389066 182.995523 
L 269.331982 178.560654 
L 279.274898 174.904127 
L 289.217814 172.176647 
L 299.16073 170.492512 
L 309.103645 169.923052 
L 319.046561 170.492512 
L 328.989477 172.176647 
L 338.932393 174.904127 
L 348.875309 178.560654 
L 358.818225 182.995523 
L 368.761141 188.030216 
L 378.704056 193.46844 
L 388.646972 199.107001 
L 398.589888 204.746784 
L 408.532804 210.20315 
L 418.47572 215.315109 
L 428.418636 219.95268 
L 438.361552 224.022011 
L 448.304467 227.467977 
L 458.247383 230.27413 
L 468.190299 232.460087 
L 478.133215 234.076584 
L 488.076131 235.198601 
L 498.019047 235.917087 
L 507.961963 236.329892 
L 517.904879 236.532593 
L 527.847794 236.60986 
L 537.79071 236.628002 
" clip-path="url(#p16797b77a3)" style="fill: none; stroke: #ff7f0e; stroke-width: 1.6; stroke-linecap: square"/>
   </g>
   <g id="line2d_23">
    <path d="M 70.473665 182.374641 
L 80.416581 182.372924 
L 90.359496 182.347404 
L 100.302412 182.238715 
L 110.245328 181.953582 
L 120.188244 181.372902 
L 130.13116 180.362231 
L 140.074076 178.783924 
L 150.016992 176.510049 
L 159.959908 173.435133 
L 169.902823 169.487806 
L 179.845739 164.640475 
L 189.788655 158.916275 
L 199.731571 152.392751 
L 209.674487 145.201919 
L 219.617403 137.526621 
L 229.560319 129.593318 
L 239.503234 121.661732 
L 249.44615 114.011954 
L 259.389066 106.929811 
L 269.331982 100.69142 
L 279.274898 95.5479 
L 289.217814 91.71124 
L 299.16073 89.34222 
L 309.103645 88.541179 
L 319.046561 89.34222 
L 328.989477 91.71124 
L 338.932393 95.5479 
L 348.875309 100.69142 
L 358.818225 106.929811 
L 368.761141 114.011954 
L 378.704056 121.661732 
L 388.646972 129.593318 
L 398.589888 137.526621 
L 408.532804 145.201919 
L 418.47572 152.392751 
L 428.418636 158.916275 
L 438.361552 164.640475 
L 448.304467 169.487806 
L 458.247383 173.435133 
L 468.190299 176.510049 
L 478.133215 178.783924 
L 488.076131 180.362231 
L 498.019047 181.372902 
L 507.961963 181.953582 
L 517.904879 182.238715 
L 527.847794 182.347404 
L 537.79071 182.372924 
" clip-path="url(#p16797b77a3)" style="fill: none; stroke: #2ca02c; stroke-width: 1.6; stroke-linecap: square"/>
   </g>
   <g id="line2d_24">
    <path d="M 70.473665 221.63282 
L 80.416581 221.631463 
L 90.359496 221.611282 
L 100.302412 221.525329 
L 110.245328 221.299843 
L 120.188244 220.840636 
L 130.13116 220.041388 
L 140.074076 218.793249 
L 150.016992 216.995047 
L 159.959908 214.563374 
L 169.902823 211.441792 
L 179.845739 207.608478 
L 189.788655 203.081727 
L 199.731571 197.922864 
L 209.674487 192.236287 
L 219.617403 186.166591 
L 229.560319 179.892861 
L 239.503234 173.620489 
L 249.44615 167.570973 
L 259.389066 161.970349 
L 269.331982 157.036972 
L 279.274898 152.969429 
L 289.217814 149.935362 
L 299.16073 148.061919 
L 309.103645 147.428448 
L 319.046561 148.061919 
L 328.989477 149.935362 
L 338.932393 152.969429 
L 348.875309 157.036972 
L 358.818225 161.970349 
L 368.761141 167.570973 
L 378.704056 173.620489 
L 388.646972 179.892861 
L 398.589888 186.166591 
L 408.532804 192.236287 
L 418.47572 197.922864 
L 428.418636 203.081727 
L 438.361552 207.608478 
L 448.304467 211.441792 
L 458.247383 214.563374 
L 468.190299 216.995047 
L 478.133215 218.793249 
L 488.076131 220.041388 
L 498.019047 220.840636 
L 507.961963 221.299843 
L 517.904879 221.525329 
L 527.847794 221.611282 
L 537.79071 221.631463 
" clip-path="url(#p16797b77a3)" style="fill: none; stroke: #d62728; stroke-width: 1.6; stroke-linecap: square"/>
   </g>
   <g id="line2d_25">
    <path d="M 70.473665 288.385109 
L 80.416581 288.384362 
L 90.359496 288.373258 
L 100.302412 288.325966 
L 110.245328 288.201901 
L 120.188244 287.949239 
L 130.13116 287.509482 
L 140.074076 286.822739 
L 150.016992 285.833345 
L 159.959908 284.495407 
L 169.902823 282.777871 
L 179.845739 280.66873 
L 189.788655 278.178052 
L 199.731571 275.339577 
L 209.674487 272.210748 
L 219.617403 268.87112 
L 229.560319 265.419231 
L 239.503234 261.968089 
L 249.44615 258.639566 
L 259.389066 255.558028 
L 269.331982 252.843619 
L 279.274898 250.605603 
L 289.217814 248.936219 
L 299.16073 247.905426 
L 309.103645 247.556882 
L 319.046561 247.905426 
L 328.989477 248.936219 
L 338.932393 250.605603 
L 348.875309 252.843619 
L 358.818225 255.558028 
L 368.761141 258.639566 
L 378.704056 261.968089 
L 388.646972 265.419231 
L 398.589888 268.87112 
L 408.532804 272.210748 
L 418.47572 275.339577 
L 428.418636 278.178052 
L 438.361552 280.66873 
L 448.304467 282.777871 
L 458.247383 284.495407 
L 468.190299 285.833345 
L 478.133215 286.822739 
L 488.076131 287.509482 
L 498.019047 287.949239 
L 507.961963 288.201901 
L 517.904879 288.325966 
L 527.847794 288.373258 
L 537.79071 288.384362 
" clip-path="url(#p16797b77a3)" style="fill: none; stroke: #9467bd; stroke-width: 1.6; stroke-linecap: square"/>
   </g>
   <g id="line2d_26">
    <path d="M 70.473665 249.250146 
L 80.416581 249.249041 
L 90.359496 249.232615 
L 100.302412 249.162658 
L 110.245328 248.979132 
L 120.188244 248.605379 
L 130.13116 247.954863 
L 140.074076 246.938989 
L 150.016992 245.475414 
L 159.959908 243.496251 
L 169.902823 240.955562 
L 179.845739 237.835588 
L 189.788655 234.151219 
L 199.731571 229.952366 
L 209.674487 225.324002 
L 219.617403 220.383813 
L 229.560319 215.27756 
L 239.503234 210.172411 
L 249.44615 205.248647 
L 259.389066 200.690241 
L 269.331982 196.674914 
L 279.274898 193.364298 
L 289.217814 190.89484 
L 299.16073 189.370025 
L 309.103645 188.854437 
L 319.046561 189.370025 
L 328.989477 190.89484 
L 338.932393 193.364298 
L 348.875309 196.674914 
L 358.818225 200.690241 
L 368.761141 205.248647 
L 378.704056 210.172411 
L 388.646972 215.27756 
L 398.589888 220.383813 
L 408.532804 225.324002 
L 418.47572 229.952366 
L 428.418636 234.151219 
L 438.361552 237.835588 
L 448.304467 240.955562 
L 458.247383 243.496251 
L 468.190299 245.475414 
L 478.133215 246.938989 
L 488.076131 247.954863 
L 498.019047 248.605379 
L 507.961963 248.979132 
L 517.904879 249.162658 
L 527.847794 249.232615 
L 537.79071 249.249041 
" clip-path="url(#p16797b77a3)" style="fill: none; stroke: #8c564b; stroke-width: 1.6; stroke-linecap: square"/>
   </g>
   <g id="line2d_27">
    <path d="M 70.473665 147.062264 
L 80.416581 147.060224 
L 90.359496 147.029903 
L 100.302412 146.900762 
L 110.245328 146.561977 
L 120.188244 145.872033 
L 130.13116 144.671189 
L 140.074076 142.7959 
L 150.016992 140.094161 
L 159.959908 136.440652 
L 169.902823 131.750576 
L 179.845739 125.991146 
L 189.788655 119.189851 
L 199.731571 111.438827 
L 209.674487 102.894931 
L 219.617403 93.77541 
L 229.560319 84.349336 
L 239.503234 74.925301 
L 249.44615 65.836101 
L 259.389066 57.421346 
L 269.331982 50.009107 
L 279.274898 43.897756 
L 289.217814 39.33917 
L 299.16073 36.524383 
L 309.103645 35.572614 
L 319.046561 36.524383 
L 328.989477 39.33917 
L 338.932393 43.897756 
L 348.875309 50.009107 
L 358.818225 57.421346 
L 368.761141 65.836101 
L 378.704056 74.925301 
L 388.646972 84.349336 
L 398.589888 93.77541 
L 408.532804 102.894931 
L 418.47572 111.438827 
L 428.418636 119.189851 
L 438.361552 125.991146 
L 448.304467 131.750576 
L 458.247383 136.440652 
L 468.190299 140.094161 
L 478.133215 142.7959 
L 488.076131 144.671189 
L 498.019047 145.872033 
L 507.961963 146.561977 
L 517.904879 146.900762 
L 527.847794 147.029903 
L 537.79071 147.060224 
" clip-path="url(#p16797b77a3)" style="fill: none; stroke: #e377c2; stroke-width: 1.6; stroke-linecap: square"/>
   </g>
   <g id="line2d_28">
    <path d="M 70.473665 199.319898 
L 80.416581 199.318336 
L 90.359496 199.295121 
L 100.302412 199.196246 
L 110.245328 198.936858 
L 120.188244 198.40861 
L 130.13116 197.489197 
L 140.074076 196.053403 
L 150.016992 193.984846 
L 159.959908 191.187577 
L 169.902823 187.596671 
L 179.845739 183.187027 
L 189.788655 177.979689 
L 199.731571 172.045202 
L 209.674487 165.503662 
L 219.617403 158.5214 
L 229.560319 151.304429 
L 239.503234 144.08902 
L 249.44615 137.129973 
L 259.389066 130.687308 
L 269.331982 125.012208 
L 279.274898 120.333119 
L 289.217814 116.842887 
L 299.16073 114.687776 
L 309.103645 113.959064 
L 319.046561 114.687776 
L 328.989477 116.842887 
L 338.932393 120.333119 
L 348.875309 125.012208 
L 358.818225 130.687308 
L 368.761141 137.129973 
L 378.704056 144.08902 
L 388.646972 151.304429 
L 398.589888 158.5214 
L 408.532804 165.503662 
L 418.47572 172.045202 
L 428.418636 177.979689 
L 438.361552 183.187027 
L 448.304467 187.596671 
L 458.247383 191.187577 
L 468.190299 193.984846 
L 478.133215 196.053403 
L 488.076131 197.489197 
L 498.019047 198.40861 
L 507.961963 198.936858 
L 517.904879 199.196246 
L 527.847794 199.295121 
L 537.79071 199.318336 
" clip-path="url(#p16797b77a3)" style="fill: none; stroke: #7f7f7f; stroke-width: 1.6; stroke-linecap: square"/>
   </g>
   <g id="line2d_29">
    <path d="M 70.473665 299.055464 
L 80.416581 299.054815 
L 90.359496 299.045162 
L 100.302412 299.00405 
L 110.245328 298.896196 
L 120.188244 298.676551 
L 130.13116 298.294259 
L 140.074076 297.697255 
L 150.016992 296.837149 
L 159.959908 295.674044 
L 169.902823 294.180945 
L 179.845739 292.347414 
L 189.788655 290.182202 
L 199.731571 287.714641 
L 209.674487 284.994667 
L 219.617403 282.091441 
L 229.560319 279.090624 
L 239.503234 276.090455 
L 249.44615 273.196882 
L 259.389066 270.518021 
L 269.331982 268.158313 
L 279.274898 266.212747 
L 289.217814 264.761508 
L 299.16073 263.865413 
L 309.103645 263.562414 
L 319.046561 263.865413 
L 328.989477 264.761508 
L 338.932393 266.212747 
L 348.875309 268.158313 
L 358.818225 270.518021 
L 368.761141 273.196882 
L 378.704056 276.090455 
L 388.646972 279.090624 
L 398.589888 282.091441 
L 408.532804 284.994667 
L 418.47572 287.714641 
L 428.418636 290.182202 
L 438.361552 292.347414 
L 448.304467 294.180945 
L 458.247383 295.674044 
L 468.190299 296.837149 
L 478.133215 297.697255 
L 488.076131 298.294259 
L 498.019047 298.676551 
L 507.961963 298.896196 
L 517.904879 299.00405 
L 527.847794 299.045162 
L 537.79071 299.054815 
" clip-path="url(#p16797b77a3)" style="fill: none; stroke: #bcbd22; stroke-width: 1.6; stroke-linecap: square"/>
   </g>
   <g id="line2d_30">
    <path d="M 70.473665 228.513553 
L 80.416581 228.512258 
L 90.359496 228.493013 
L 100.302412 228.411045 
L 110.245328 228.196014 
L 120.188244 227.758097 
L 130.13116 226.995905 
L 140.074076 225.805633 
L 150.016992 224.090802 
L 159.959908 221.77187 
L 169.902823 218.795015 
L 179.845739 215.139426 
L 189.788655 210.822551 
L 199.731571 205.90287 
L 209.674487 200.479943 
L 219.617403 194.691658 
L 229.560319 188.708799 
L 239.503234 182.727236 
L 249.44615 176.958196 
L 259.389066 171.617236 
L 269.331982 166.912587 
L 279.274898 163.033629 
L 289.217814 160.140232 
L 299.16073 158.353648 
L 309.103645 157.749547 
L 319.046561 158.353648 
L 328.989477 160.140232 
L 338.932393 163.033629 
L 348.875309 166.912587 
L 358.818225 171.617236 
L 368.761141 176.958196 
L 378.704056 182.727236 
L 388.646972 188.708799 
L 398.589888 194.691658 
L 408.532804 200.479943 
L 418.47572 205.90287 
L 428.418636 210.822551 
L 438.361552 215.139426 
L 448.304467 218.795015 
L 458.247383 221.77187 
L 468.190299 224.090802 
L 478.133215 225.805633 
L 488.076131 226.995905 
L 498.019047 227.758097 
L 507.961963 228.196014 
L 517.904879 228.411045 
L 527.847794 228.493013 
L 537.79071 228.512258 
" clip-path="url(#p16797b77a3)" style="fill: none; stroke: #17becf; stroke-width: 1.6; stroke-linecap: square"/>
   </g>
   <g id="line2d_31">
    <path d="M 70.473665 277.831032 
L 80.416581 277.830188 
L 90.359496 277.817649 
L 100.302412 277.764245 
L 110.245328 277.624144 
L 120.188244 277.338825 
L 130.13116 276.84223 
L 140.074076 276.066726 
L 150.016992 274.949453 
L 159.959908 273.438586 
L 169.902823 271.499059 
L 179.845739 269.117313 
L 189.788655 266.304715 
L 199.731571 263.099368 
L 209.674487 259.566138 
L 219.617403 255.794865 
L 229.560319 251.89682 
L 239.503234 247.999618 
L 249.44615 244.240884 
L 259.389066 240.761059 
L 269.331982 237.695812 
L 279.274898 235.168533 
L 289.217814 233.283382 
L 299.16073 232.119359 
L 309.103645 231.725766 
L 319.046561 232.119359 
L 328.989477 233.283382 
L 338.932393 235.168533 
L 348.875309 237.695812 
L 358.818225 240.761059 
L 368.761141 244.240884 
L 378.704056 247.999618 
L 388.646972 251.89682 
L 398.589888 255.794865 
L 408.532804 259.566138 
L 418.47572 263.099368 
L 428.418636 266.304715 
L 438.361552 269.117313 
L 448.304467 271.499059 
L 458.247383 273.438586 
L 468.190299 274.949453 
L 478.133215 276.066726 
L 488.076131 276.84223 
L 498.019047 277.338825 
L 507.961963 277.624144 
L 517.904879 277.764245 
L 527.847794 277.817649 
L 537.79071 277.830188 
" clip-path="url(#p16797b77a3)" style="fill: none; stroke: #1f77b4; stroke-width: 1.6; stroke-linecap: square"/>
   </g>
   <g id="line2d_32">
    <path d="M 70.473665 299.199116 
L 80.416581 299.198467 
L 90.359496 299.188834 
L 100.302412 299.147805 
L 110.245328 299.04017 
L 120.188244 298.820969 
L 130.13116 298.43945 
L 140.074076 297.843655 
L 150.016992 296.985289 
L 159.959908 295.824538 
L 169.902823 294.33446 
L 179.845739 292.50464 
L 189.788655 290.343809 
L 199.731571 287.881242 
L 209.674487 285.166773 
L 219.617403 282.269422 
L 229.560319 279.274677 
L 239.503234 276.28058 
L 249.44615 273.392862 
L 259.389066 270.719422 
L 269.331982 268.36449 
L 279.274898 266.422861 
L 289.217814 264.974559 
L 299.16073 264.080277 
L 309.103645 263.777891 
L 319.046561 264.080277 
L 328.989477 264.974559 
L 338.932393 266.422861 
L 348.875309 268.36449 
L 358.818225 270.719422 
L 368.761141 273.392862 
L 378.704056 276.28058 
L 388.646972 279.274677 
L 398.589888 282.269422 
L 408.532804 285.166773 
L 418.47572 287.881242 
L 428.418636 290.343809 
L 438.361552 292.50464 
L 448.304467 294.33446 
L 458.247383 295.824538 
L 468.190299 296.985289 
L 478.133215 297.843655 
L 488.076131 298.43945 
L 498.019047 298.820969 
L 507.961963 299.04017 
L 517.904879 299.147805 
L 527.847794 299.188834 
L 537.79071 299.198467 
" clip-path="url(#p16797b77a3)" style="fill: none; stroke: #ff7f0e; stroke-width: 1.6; stroke-linecap: square"/>
   </g>
   <g id="line2d_33">
    <path d="M 70.473665 231.597932 
L 80.416581 231.596665 
L 90.359496 231.577839 
L 100.302412 231.497658 
L 110.245328 231.287313 
L 120.188244 230.85894 
L 130.13116 230.113359 
L 140.074076 228.949027 
L 150.016992 227.271568 
L 159.959908 225.003174 
L 169.902823 222.091194 
L 179.845739 218.515273 
L 189.788655 214.292478 
L 199.731571 209.480013 
L 209.674487 204.17527 
L 219.617403 198.513132 
L 229.560319 192.66066 
L 239.503234 186.809455 
L 249.44615 181.166143 
L 259.389066 175.941581 
L 269.331982 171.339462 
L 279.274898 167.545039 
L 289.217814 164.714699 
L 299.16073 162.967051 
L 309.103645 162.376116 
L 319.046561 162.967051 
L 328.989477 164.714699 
L 338.932393 167.545039 
L 348.875309 171.339462 
L 358.818225 175.941581 
L 368.761141 181.166143 
L 378.704056 186.809455 
L 388.646972 192.66066 
L 398.589888 198.513132 
L 408.532804 204.17527 
L 418.47572 209.480013 
L 428.418636 214.292478 
L 438.361552 218.515273 
L 448.304467 222.091194 
L 458.247383 225.003174 
L 468.190299 227.271568 
L 478.133215 228.949027 
L 488.076131 230.113359 
L 498.019047 230.85894 
L 507.961963 231.287313 
L 517.904879 231.497658 
L 527.847794 231.577839 
L 537.79071 231.596665 
" clip-path="url(#p16797b77a3)" style="fill: none; stroke: #2ca02c; stroke-width: 1.6; stroke-linecap: square"/>
   </g>
   <g id="line2d_34">
    <path d="M 70.473665 300.662386 
L 80.416581 300.661752 
L 90.359496 300.652317 
L 100.302412 300.612136 
L 110.245328 300.506724 
L 120.188244 300.29205 
L 130.13116 299.918412 
L 140.074076 299.334923 
L 150.016992 298.494287 
L 159.959908 297.357511 
L 169.902823 295.898212 
L 179.845739 294.106187 
L 189.788655 291.989989 
L 199.731571 289.578287 
L 209.674487 286.919886 
L 219.617403 284.08238 
L 229.560319 281.149493 
L 239.503234 278.217239 
L 249.44615 275.389169 
L 259.389066 272.770949 
L 269.331982 270.464659 
L 279.274898 268.563134 
L 289.217814 267.144747 
L 299.16073 266.268937 
L 309.103645 265.972797 
L 319.046561 266.268937 
L 328.989477 267.144747 
L 338.932393 268.563134 
L 348.875309 270.464659 
L 358.818225 272.770949 
L 368.761141 275.389169 
L 378.704056 278.217239 
L 388.646972 281.149493 
L 398.589888 284.08238 
L 408.532804 286.919886 
L 418.47572 289.578287 
L 428.418636 291.989989 
L 438.361552 294.106187 
L 448.304467 295.898212 
L 458.247383 297.357511 
L 468.190299 298.494287 
L 478.133215 299.334923 
L 488.076131 299.918412 
L 498.019047 300.29205 
L 507.961963 300.506724 
L 517.904879 300.612136 
L 527.847794 300.652317 
L 537.79071 300.661752 
" clip-path="url(#p16797b77a3)" style="fill: none; stroke: #d62728; stroke-width: 1.6; stroke-linecap: square"/>
   </g>
   <g id="line2d_35">
    <path d="M 70.473665 297.885877 
L 80.416581 297.885217 
L 90.359496 297.875405 
L 100.302412 297.833615 
L 110.245328 297.723985 
L 120.188244 297.50072 
L 130.13116 297.112129 
L 140.074076 296.505289 
L 150.016992 295.631012 
L 159.959908 294.448743 
L 169.902823 292.931043 
L 179.845739 291.067302 
L 189.788655 288.866416 
L 199.731571 286.358199 
L 209.674487 283.59341 
L 219.617403 280.64235 
L 229.560319 277.59209 
L 239.503234 274.54249 
L 249.44615 271.601241 
L 259.389066 268.878242 
L 269.331982 266.479655 
L 279.274898 264.502034 
L 289.217814 263.026884 
L 299.16073 262.116024 
L 309.103645 261.808033 
L 319.046561 262.116024 
L 328.989477 263.026884 
L 338.932393 264.502034 
L 348.875309 266.479655 
L 358.818225 268.878242 
L 368.761141 271.601241 
L 378.704056 274.54249 
L 388.646972 277.59209 
L 398.589888 280.64235 
L 408.532804 283.59341 
L 418.47572 286.358199 
L 428.418636 288.866416 
L 438.361552 291.067302 
L 448.304467 292.931043 
L 458.247383 294.448743 
L 468.190299 295.631012 
L 478.133215 296.505289 
L 488.076131 297.112129 
L 498.019047 297.50072 
L 507.961963 297.723985 
L 517.904879 297.833615 
L 527.847794 297.875405 
L 537.79071 297.885217 
" clip-path="url(#p16797b77a3)" style="fill: none; stroke: #9467bd; stroke-width: 1.6; stroke-linecap: square"/>
   </g>
   <g id="patch_3">
    <path d="M 47.107813 313.916875 
L 47.107813 22.318125 
" style="fill: none; stroke: #000000; stroke-width: 0.8; stroke-linejoin: miter; stroke-linecap: square"/>
   </g>
   <g id="patch_4">
    <path d="M 561.156562 313.916875 
L 561.156562 22.318125 
" style="fill: none; stroke: #000000; stroke-width: 0.8; stroke-linejoin: miter; stroke-linecap: square"/>
   </g>
   <g id="patch_5">
    <path d="M 47.107813 313.916875 
L 561.156562 313.916875 
" style="fill: none; stroke: #000000; stroke-width: 0.8; stroke-linejoin: miter; stroke-linecap: square"/>
   </g>
   <g id="patch_6">
    <path d="M 47.107813 22.318125 
L 561.156562 22.318125 
" style="fill: none; stroke: #000000; stroke-width: 0.8; stroke-linejoin: miter; stroke-linecap: square"/>
   </g>
   <g id="text_13">
    <!-- Generated GS–GS Demands over Time -->
    <g transform="translate(186.6925 16.318125) scale(0.12 -0.12)">
     <defs>
      <path id="DejaVuSerif-47" d="M 4097 3272 
Q 3988 3856 3641 4136 
Q 3294 4416 2675 4416 
Q 1869 4416 1472 3897 
Q 1075 3378 1075 2328 
Q 1075 1300 1484 772 
Q 1894 244 2688 244 
Q 3041 244 3362 331 
Q 3684 419 3975 594 
L 3975 1797 
L 3097 1797 
L 3097 2131 
L 4609 2131 
L 4609 391 
Q 4194 150 3714 29 
Q 3234 -91 2688 -91 
Q 1631 -91 995 570 
Q 359 1231 359 2328 
Q 359 3434 996 4092 
Q 1634 4750 2713 4750 
Q 3113 4750 3539 4658 
Q 3966 4566 4447 4378 
L 4447 3272 
L 4097 3272 
z
" transform="scale(0.015625)"/>
      <path id="DejaVuSerif-72" d="M 3059 3328 
L 3059 2497 
L 2728 2497 
Q 2713 2744 2591 2866 
Q 2469 2988 2234 2988 
Q 1809 2988 1582 2694 
Q 1356 2400 1356 1850 
L 1356 331 
L 2022 331 
L 2022 0 
L 263 0 
L 263 331 
L 781 331 
L 781 2994 
L 231 2994 
L 231 3322 
L 1356 3322 
L 1356 2731 
Q 1525 3078 1790 3245 
Q 2056 3413 2438 3413 
Q 2578 3413 2733 3391 
Q 2888 3369 3059 3328 
z
" transform="scale(0.015625)"/>
      <path id="DejaVuSerif-53" d="M 594 225 
L 594 1288 
L 953 1284 
Q 969 753 1261 498 
Q 1553 244 2150 244 
Q 2706 244 2998 464 
Q 3291 684 3291 1106 
Q 3291 1444 3114 1625 
Q 2938 1806 2369 1978 
L 1753 2163 
Q 1084 2366 811 2669 
Q 538 2972 538 3500 
Q 538 4094 959 4422 
Q 1381 4750 2144 4750 
Q 2469 4750 2856 4679 
Q 3244 4609 3681 4475 
L 3681 3481 
L 3328 3481 
Q 3275 3975 2998 4195 
Q 2722 4416 2156 4416 
Q 1663 4416 1405 4214 
Q 1147 4013 1147 3628 
Q 1147 3294 1340 3103 
Q 1534 2913 2163 2725 
L 2741 2553 
Q 3375 2363 3645 2067 
Q 3916 1772 3916 1275 
Q 3916 597 3481 253 
Q 3047 -91 2188 -91 
Q 1803 -91 1404 -12 
Q 1006 66 594 225 
z
" transform="scale(0.015625)"/>
      <path id="DejaVuSerif-2013" d="M 281 1906 
L 2919 1906 
L 2919 1491 
L 281 1491 
L 281 1906 
z
" transform="scale(0.015625)"/>
      <path id="DejaVuSerif-6f" d="M 1925 219 
Q 2388 219 2623 584 
Q 2859 950 2859 1663 
Q 2859 2375 2623 2739 
Q 2388 3103 1925 3103 
Q 1463 3103 1227 2739 
Q 991 2375 991 1663 
Q 991 950 1228 584 
Q 1466 219 1925 219 
z
M 1925 -91 
Q 1200 -91 759 389 
Q 319 869 319 1663 
Q 319 2456 758 2934 
Q 1197 3413 1925 3413 
Q 2653 3413 3092 2934 
Q 3531 2456 3531 1663 
Q 3531 869 3092 389 
Q 2653 -91 1925 -91 
z
" transform="scale(0.015625)"/>
      <path id="DejaVuSerif-76" d="M 1581 0 
L 359 2988 
L -19 2988 
L -19 3322 
L 1509 3322 
L 1509 2988 
L 978 2988 
L 1913 703 
L 2847 2988 
L 2350 2988 
L 2350 3322 
L 3597 3322 
L 3597 2988 
L 3225 2988 
L 2003 0 
L 1581 0 
z
" transform="scale(0.015625)"/>
     </defs>
     <use xlink:href="#DejaVuSerif-47"/>
     <use xlink:href="#DejaVuSerif-65" transform="translate(79.882812 0)"/>
     <use xlink:href="#DejaVuSerif-6e" transform="translate(139.0625 0)"/>
     <use xlink:href="#DejaVuSerif-65" transform="translate(203.466797 0)"/>
     <use xlink:href="#DejaVuSerif-72" transform="translate(262.646484 0)"/>
     <use xlink:href="#DejaVuSerif-61" transform="translate(310.449219 0)"/>
     <use xlink:href="#DejaVuSerif-74" transform="translate(370.068359 0)"/>
     <use xlink:href="#DejaVuSerif-65" transform="translate(410.253906 0)"/>
     <use xlink:href="#DejaVuSerif-64" transform="translate(469.433594 0)"/>
     <use xlink:href="#DejaVuSerif-20" transform="translate(533.447266 0)"/>
     <use xlink:href="#DejaVuSerif-47" transform="translate(565.234375 0)"/>
     <use xlink:href="#DejaVuSerif-53" transform="translate(645.117188 0)"/>
     <use xlink:href="#DejaVuSerif-2013" transform="translate(713.623047 0)"/>
     <use xlink:href="#DejaVuSerif-47" transform="translate(763.623047 0)"/>
     <use xlink:href="#DejaVuSerif-53" transform="translate(843.505859 0)"/>
     <use xlink:href="#DejaVuSerif-20" transform="translate(912.011719 0)"/>
     <use xlink:href="#DejaVuSerif-44" transform="translate(943.798828 0)"/>
     <use xlink:href="#DejaVuSerif-65" transform="translate(1023.974609 0)"/>
     <use xlink:href="#DejaVuSerif-6d" transform="translate(1083.154297 0)"/>
     <use xlink:href="#DejaVuSerif-61" transform="translate(1177.978516 0)"/>
     <use xlink:href="#DejaVuSerif-6e" transform="translate(1237.597656 0)"/>
     <use xlink:href="#DejaVuSerif-64" transform="translate(1302.001953 0)"/>
     <use xlink:href="#DejaVuSerif-73" transform="translate(1366.015625 0)"/>
     <use xlink:href="#DejaVuSerif-20" transform="translate(1417.333984 0)"/>
     <use xlink:href="#DejaVuSerif-6f" transform="translate(1449.121094 0)"/>
     <use xlink:href="#DejaVuSerif-76" transform="translate(1509.326172 0)"/>
     <use xlink:href="#DejaVuSerif-65" transform="translate(1565.820312 0)"/>
     <use xlink:href="#DejaVuSerif-72" transform="translate(1625 0)"/>
     <use xlink:href="#DejaVuSerif-20" transform="translate(1672.802734 0)"/>
     <use xlink:href="#DejaVuSerif-54" transform="translate(1704.589844 0)"/>
     <use xlink:href="#DejaVuSerif-69" transform="translate(1771.289062 0)"/>
     <use xlink:href="#DejaVuSerif-6d" transform="translate(1803.271484 0)"/>
     <use xlink:href="#DejaVuSerif-65" transform="translate(1898.095703 0)"/>
    </g>
   </g>
   <g id="legend_1">
    <g id="patch_7">
     <path d="M 484.245312 204.855625 
L 555.556562 204.855625 
Q 557.156562 204.855625 557.156562 203.255625 
L 557.156562 27.918125 
Q 557.156562 26.318125 555.556562 26.318125 
L 484.245312 26.318125 
Q 482.645312 26.318125 482.645312 27.918125 
L 482.645312 203.255625 
Q 482.645312 204.855625 484.245312 204.855625 
z
" style="fill: #ffffff; opacity: 0.8; stroke: #cccccc; stroke-linejoin: miter"/>
    </g>
    <g id="line2d_36">
     <path d="M 485.845312 32.796875 
L 493.845312 32.796875 
L 501.845312 32.796875 
" style="fill: none; stroke: #1f77b4; stroke-width: 1.6; stroke-linecap: square"/>
    </g>
    <g id="text_14">
     <!-- GS0 ↔ GS1 -->
     <g transform="translate(508.245312 35.596875) scale(0.08 -0.08)">
      <defs>
       <path id="DejaVuSerif-2194" d="M 4391 2322 
L 3788 3375 
L 3822 3375 
L 5125 2084 
L 5125 2053 
L 3822 763 
L 3788 763 
L 4391 1816 
L 972 1816 
L 1575 763 
L 1541 763 
L 238 2053 
L 238 2084 
L 1541 3375 
L 1575 3375 
L 972 2322 
L 4391 2322 
z
" transform="scale(0.015625)"/>
      </defs>
      <use xlink:href="#DejaVuSerif-47"/>
      <use xlink:href="#DejaVuSerif-53" transform="translate(79.882812 0)"/>
      <use xlink:href="#DejaVuSerif-30" transform="translate(148.388672 0)"/>
      <use xlink:href="#DejaVuSerif-20" transform="translate(212.011719 0)"/>
      <use xlink:href="#DejaVuSerif-2194" transform="translate(243.798828 0)"/>
      <use xlink:href="#DejaVuSerif-20" transform="translate(327.587891 0)"/>
      <use xlink:href="#DejaVuSerif-47" transform="translate(359.375 0)"/>
      <use xlink:href="#DejaVuSerif-53" transform="translate(439.257812 0)"/>
      <use xlink:href="#DejaVuSerif-31" transform="translate(507.763672 0)"/>
     </g>
    </g>
    <g id="line2d_37">
     <path d="M 485.845312 44.539375 
L 493.845312 44.539375 
L 501.845312 44.539375 
" style="fill: none; stroke: #ff7f0e; stroke-width: 1.6; stroke-linecap: square"/>
    </g>
    <g id="text_15">
     <!-- GS0 ↔ GS2 -->
     <g transform="translate(508.245312 47.339375) scale(0.08 -0.08)">
      <use xlink:href="#DejaVuSerif-47"/>
      <use xlink:href="#DejaVuSerif-53" transform="translate(79.882812 0)"/>
      <use xlink:href="#DejaVuSerif-30" transform="translate(148.388672 0)"/>
      <use xlink:href="#DejaVuSerif-20" transform="translate(212.011719 0)"/>
      <use xlink:href="#DejaVuSerif-2194" transform="translate(243.798828 0)"/>
      <use xlink:href="#DejaVuSerif-20" transform="translate(327.587891 0)"/>
      <use xlink:href="#DejaVuSerif-47" transform="translate(359.375 0)"/>
      <use xlink:href="#DejaVuSerif-53" transform="translate(439.257812 0)"/>
      <use xlink:href="#DejaVuSerif-32" transform="translate(507.763672 0)"/>
     </g>
    </g>
    <g id="line2d_38">
     <path d="M 485.845312 56.281875 
L 493.845312 56.281875 
L 501.845312 56.281875 
" style="fill: none; stroke: #2ca02c; stroke-width: 1.6; stroke-linecap: square"/>
    </g>
    <g id="text_16">
     <!-- GS0 ↔ GS3 -->
     <g transform="translate(508.245312 59.081875) scale(0.08 -0.08)">
      <use xlink:href="#DejaVuSerif-47"/>
      <use xlink:href="#DejaVuSerif-53" transform="translate(79.882812 0)"/>
      <use xlink:href="#DejaVuSerif-30" transform="translate(148.388672 0)"/>
      <use xlink:href="#DejaVuSerif-20" transform="translate(212.011719 0)"/>
      <use xlink:href="#DejaVuSerif-2194" transform="translate(243.798828 0)"/>
      <use xlink:href="#DejaVuSerif-20" transform="translate(327.587891 0)"/>
      <use xlink:href="#DejaVuSerif-47" transform="translate(359.375 0)"/>
      <use xlink:href="#DejaVuSerif-53" transform="translate(439.257812 0)"/>
      <use xlink:href="#DejaVuSerif-33" transform="translate(507.763672 0)"/>
     </g>
    </g>
    <g id="line2d_39">
     <path d="M 485.845312 68.024375 
L 493.845312 68.024375 
L 501.845312 68.024375 
" style="fill: none; stroke: #d62728; stroke-width: 1.6; stroke-linecap: square"/>
    </g>
    <g id="text_17">
     <!-- GS0 ↔ GS4 -->
     <g transform="translate(508.245312 70.824375) scale(0.08 -0.08)">
      <use xlink:href="#DejaVuSerif-47"/>
      <use xlink:href="#DejaVuSerif-53" transform="translate(79.882812 0)"/>
      <use xlink:href="#DejaVuSerif-30" transform="translate(148.388672 0)"/>
      <use xlink:href="#DejaVuSerif-20" transform="translate(212.011719 0)"/>
      <use xlink:href="#DejaVuSerif-2194" transform="translate(243.798828 0)"/>
      <use xlink:href="#DejaVuSerif-20" transform="translate(327.587891 0)"/>
      <use xlink:href="#DejaVuSerif-47" transform="translate(359.375 0)"/>
      <use xlink:href="#DejaVuSerif-53" transform="translate(439.257812 0)"/>
      <use xlink:href="#DejaVuSerif-34" transform="translate(507.763672 0)"/>
     </g>
    </g>
    <g id="line2d_40">
     <path d="M 485.845312 79.766875 
L 493.845312 79.766875 
L 501.845312 79.766875 
" style="fill: none; stroke: #9467bd; stroke-width: 1.6; stroke-linecap: square"/>
    </g>
    <g id="text_18">
     <!-- GS0 ↔ GS5 -->
     <g transform="translate(508.245312 82.566875) scale(0.08 -0.08)">
      <use xlink:href="#DejaVuSerif-47"/>
      <use xlink:href="#DejaVuSerif-53" transform="translate(79.882812 0)"/>
      <use xlink:href="#DejaVuSerif-30" transform="translate(148.388672 0)"/>
      <use xlink:href="#DejaVuSerif-20" transform="translate(212.011719 0)"/>
      <use xlink:href="#DejaVuSerif-2194" transform="translate(243.798828 0)"/>
      <use xlink:href="#DejaVuSerif-20" transform="translate(327.587891 0)"/>
      <use xlink:href="#DejaVuSerif-47" transform="translate(359.375 0)"/>
      <use xlink:href="#DejaVuSerif-53" transform="translate(439.257812 0)"/>
      <use xlink:href="#DejaVuSerif-35" transform="translate(507.763672 0)"/>
     </g>
    </g>
    <g id="line2d_41">
     <path d="M 485.845312 91.509375 
L 493.845312 91.509375 
L 501.845312 91.509375 
" style="fill: none; stroke: #8c564b; stroke-width: 1.6; stroke-linecap: square"/>
    </g>
    <g id="text_19">
     <!-- GS1 ↔ GS2 -->
     <g transform="translate(508.245312 94.309375) scale(0.08 -0.08)">
      <use xlink:href="#DejaVuSerif-47"/>
      <use xlink:href="#DejaVuSerif-53" transform="translate(79.882812 0)"/>
      <use xlink:href="#DejaVuSerif-31" transform="translate(148.388672 0)"/>
      <use xlink:href="#DejaVuSerif-20" transform="translate(212.011719 0)"/>
      <use xlink:href="#DejaVuSerif-2194" transform="translate(243.798828 0)"/>
      <use xlink:href="#DejaVuSerif-20" transform="translate(327.587891 0)"/>
      <use xlink:href="#DejaVuSerif-47" transform="translate(359.375 0)"/>
      <use xlink:href="#DejaVuSerif-53" transform="translate(439.257812 0)"/>
      <use xlink:href="#DejaVuSerif-32" transform="translate(507.763672 0)"/>
     </g>
    </g>
    <g id="line2d_42">
     <path d="M 485.845312 103.251875 
L 493.845312 103.251875 
L 501.845312 103.251875 
" style="fill: none; stroke: #e377c2; stroke-width: 1.6; stroke-linecap: square"/>
    </g>
    <g id="text_20">
     <!-- GS1 ↔ GS3 -->
     <g transform="translate(508.245312 106.051875) scale(0.08 -0.08)">
      <use xlink:href="#DejaVuSerif-47"/>
      <use xlink:href="#DejaVuSerif-53" transform="translate(79.882812 0)"/>
      <use xlink:href="#DejaVuSerif-31" transform="translate(148.388672 0)"/>
      <use xlink:href="#DejaVuSerif-20" transform="translate(212.011719 0)"/>
      <use xlink:href="#DejaVuSerif-2194" transform="translate(243.798828 0)"/>
      <use xlink:href="#DejaVuSerif-20" transform="translate(327.587891 0)"/>
      <use xlink:href="#DejaVuSerif-47" transform="translate(359.375 0)"/>
      <use xlink:href="#DejaVuSerif-53" transform="translate(439.257812 0)"/>
      <use xlink:href="#DejaVuSerif-33" transform="translate(507.763672 0)"/>
     </g>
    </g>
    <g id="line2d_43">
     <path d="M 485.845312 114.994375 
L 493.845312 114.994375 
L 501.845312 114.994375 
" style="fill: none; stroke: #7f7f7f; stroke-width: 1.6; stroke-linecap: square"/>
    </g>
    <g id="text_21">
     <!-- GS1 ↔ GS4 -->
     <g transform="translate(508.245312 117.794375) scale(0.08 -0.08)">
      <use xlink:href="#DejaVuSerif-47"/>
      <use xlink:href="#DejaVuSerif-53" transform="translate(79.882812 0)"/>
      <use xlink:href="#DejaVuSerif-31" transform="translate(148.388672 0)"/>
      <use xlink:href="#DejaVuSerif-20" transform="translate(212.011719 0)"/>
      <use xlink:href="#DejaVuSerif-2194" transform="translate(243.798828 0)"/>
      <use xlink:href="#DejaVuSerif-20" transform="translate(327.587891 0)"/>
      <use xlink:href="#DejaVuSerif-47" transform="translate(359.375 0)"/>
      <use xlink:href="#DejaVuSerif-53" transform="translate(439.257812 0)"/>
      <use xlink:href="#DejaVuSerif-34" transform="translate(507.763672 0)"/>
     </g>
    </g>
    <g id="line2d_44">
     <path d="M 485.845312 126.736875 
L 493.845312 126.736875 
L 501.845312 126.736875 
" style="fill: none; stroke: #bcbd22; stroke-width: 1.6; stroke-linecap: square"/>
    </g>
    <g id="text_22">
     <!-- GS1 ↔ GS5 -->
     <g transform="translate(508.245312 129.536875) scale(0.08 -0.08)">
      <use xlink:href="#DejaVuSerif-47"/>
      <use xlink:href="#DejaVuSerif-53" transform="translate(79.882812 0)"/>
      <use xlink:href="#DejaVuSerif-31" transform="translate(148.388672 0)"/>
      <use xlink:href="#DejaVuSerif-20" transform="translate(212.011719 0)"/>
      <use xlink:href="#DejaVuSerif-2194" transform="translate(243.798828 0)"/>
      <use xlink:href="#DejaVuSerif-20" transform="translate(327.587891 0)"/>
      <use xlink:href="#DejaVuSerif-47" transform="translate(359.375 0)"/>
      <use xlink:href="#DejaVuSerif-53" transform="translate(439.257812 0)"/>
      <use xlink:href="#DejaVuSerif-35" transform="translate(507.763672 0)"/>
     </g>
    </g>
    <g id="line2d_45">
     <path d="M 485.845312 138.479375 
L 493.845312 138.479375 
L 501.845312 138.479375 
" style="fill: none; stroke: #17becf; stroke-width: 1.6; stroke-linecap: square"/>
    </g>
    <g id="text_23">
     <!-- GS2 ↔ GS3 -->
     <g transform="translate(508.245312 141.279375) scale(0.08 -0.08)">
      <use xlink:href="#DejaVuSerif-47"/>
      <use xlink:href="#DejaVuSerif-53" transform="translate(79.882812 0)"/>
      <use xlink:href="#DejaVuSerif-32" transform="translate(148.388672 0)"/>
      <use xlink:href="#DejaVuSerif-20" transform="translate(212.011719 0)"/>
      <use xlink:href="#DejaVuSerif-2194" transform="translate(243.798828 0)"/>
      <use xlink:href="#DejaVuSerif-20" transform="translate(327.587891 0)"/>
      <use xlink:href="#DejaVuSerif-47" transform="translate(359.375 0)"/>
      <use xlink:href="#DejaVuSerif-53" transform="translate(439.257812 0)"/>
      <use xlink:href="#DejaVuSerif-33" transform="translate(507.763672 0)"/>
     </g>
    </g>
    <g id="line2d_46">
     <path d="M 485.845312 150.221875 
L 493.845312 150.221875 
L 501.845312 150.221875 
" style="fill: none; stroke: #1f77b4; stroke-width: 1.6; stroke-linecap: square"/>
    </g>
    <g id="text_24">
     <!-- GS2 ↔ GS4 -->
     <g transform="translate(508.245312 153.021875) scale(0.08 -0.08)">
      <use xlink:href="#DejaVuSerif-47"/>
      <use xlink:href="#DejaVuSerif-53" transform="translate(79.882812 0)"/>
      <use xlink:href="#DejaVuSerif-32" transform="translate(148.388672 0)"/>
      <use xlink:href="#DejaVuSerif-20" transform="translate(212.011719 0)"/>
      <use xlink:href="#DejaVuSerif-2194" transform="translate(243.798828 0)"/>
      <use xlink:href="#DejaVuSerif-20" transform="translate(327.587891 0)"/>
      <use xlink:href="#DejaVuSerif-47" transform="translate(359.375 0)"/>
      <use xlink:href="#DejaVuSerif-53" transform="translate(439.257812 0)"/>
      <use xlink:href="#DejaVuSerif-34" transform="translate(507.763672 0)"/>
     </g>
    </g>
    <g id="line2d_47">
     <path d="M 485.845312 161.964375 
L 493.845312 161.964375 
L 501.845312 161.964375 
" style="fill: none; stroke: #ff7f0e; stroke-width: 1.6; stroke-linecap: square"/>
    </g>
    <g id="text_25">
     <!-- GS2 ↔ GS5 -->
     <g transform="translate(508.245312 164.764375) scale(0.08 -0.08)">
      <use xlink:href="#DejaVuSerif-47"/>
      <use xlink:href="#DejaVuSerif-53" transform="translate(79.882812 0)"/>
      <use xlink:href="#DejaVuSerif-32" transform="translate(148.388672 0)"/>
      <use xlink:href="#DejaVuSerif-20" transform="translate(212.011719 0)"/>
      <use xlink:href="#DejaVuSerif-2194" transform="translate(243.798828 0)"/>
      <use xlink:href="#DejaVuSerif-20" transform="translate(327.587891 0)"/>
      <use xlink:href="#DejaVuSerif-47" transform="translate(359.375 0)"/>
      <use xlink:href="#DejaVuSerif-53" transform="translate(439.257812 0)"/>
      <use xlink:href="#DejaVuSerif-35" transform="translate(507.763672 0)"/>
     </g>
    </g>
    <g id="line2d_48">
     <path d="M 485.845312 173.706875 
L 493.845312 173.706875 
L 501.845312 173.706875 
" style="fill: none; stroke: #2ca02c; stroke-width: 1.6; stroke-linecap: square"/>
    </g>
    <g id="text_26">
     <!-- GS3 ↔ GS4 -->
     <g transform="translate(508.245312 176.506875) scale(0.08 -0.08)">
      <use xlink:href="#DejaVuSerif-47"/>
      <use xlink:href="#DejaVuSerif-53" transform="translate(79.882812 0)"/>
      <use xlink:href="#DejaVuSerif-33" transform="translate(148.388672 0)"/>
      <use xlink:href="#DejaVuSerif-20" transform="translate(212.011719 0)"/>
      <use xlink:href="#DejaVuSerif-2194" transform="translate(243.798828 0)"/>
      <use xlink:href="#DejaVuSerif-20" transform="translate(327.587891 0)"/>
      <use xlink:href="#DejaVuSerif-47" transform="translate(359.375 0)"/>
      <use xlink:href="#DejaVuSerif-53" transform="translate(439.257812 0)"/>
      <use xlink:href="#DejaVuSerif-34" transform="translate(507.763672 0)"/>
     </g>
    </g>
    <g id="line2d_49">
     <path d="M 485.845312 185.449375 
L 493.845312 185.449375 
L 501.845312 185.449375 
" style="fill: none; stroke: #d62728; stroke-width: 1.6; stroke-linecap: square"/>
    </g>
    <g id="text_27">
     <!-- GS3 ↔ GS5 -->
     <g transform="translate(508.245312 188.249375) scale(0.08 -0.08)">
      <use xlink:href="#DejaVuSerif-47"/>
      <use xlink:href="#DejaVuSerif-53" transform="translate(79.882812 0)"/>
      <use xlink:href="#DejaVuSerif-33" transform="translate(148.388672 0)"/>
      <use xlink:href="#DejaVuSerif-20" transform="translate(212.011719 0)"/>
      <use xlink:href="#DejaVuSerif-2194" transform="translate(243.798828 0)"/>
      <use xlink:href="#DejaVuSerif-20" transform="translate(327.587891 0)"/>
      <use xlink:href="#DejaVuSerif-47" transform="translate(359.375 0)"/>
      <use xlink:href="#DejaVuSerif-53" transform="translate(439.257812 0)"/>
      <use xlink:href="#DejaVuSerif-35" transform="translate(507.763672 0)"/>
     </g>
    </g>
    <g id="line2d_50">
     <path d="M 485.845312 197.191875 
L 493.845312 197.191875 
L 501.845312 197.191875 
" style="fill: none; stroke: #9467bd; stroke-width: 1.6; stroke-linecap: square"/>
    </g>
    <g id="text_28">
     <!-- GS4 ↔ GS5 -->
     <g transform="translate(508.245312 199.991875) scale(0.08 -0.08)">
      <use xlink:href="#DejaVuSerif-47"/>
      <use xlink:href="#DejaVuSerif-53" transform="translate(79.882812 0)"/>
      <use xlink:href="#DejaVuSerif-34" transform="translate(148.388672 0)"/>
      <use xlink:href="#DejaVuSerif-20" transform="translate(212.011719 0)"/>
      <use xlink:href="#DejaVuSerif-2194" transform="translate(243.798828 0)"/>
      <use xlink:href="#DejaVuSerif-20" transform="translate(327.587891 0)"/>
      <use xlink:href="#DejaVuSerif-47" transform="translate(359.375 0)"/>
      <use xlink:href="#DejaVuSerif-53" transform="translate(439.257812 0)"/>
      <use xlink:href="#DejaVuSerif-35" transform="translate(507.763672 0)"/>
     </g>
    </g>
   </g>
  </g>
 </g>
 <defs>
  <clipPath id="p16797b77a3">
   <rect x="47.107813" y="22.318125" width="514.04875" height="291.59875"/>
  </clipPath>
 </defs>
</svg>
