<?xml version="1.0" encoding="utf-8" standalone="no"?>
<!DOCTYPE svg PUBLIC "-//W3C//DTD SVG 1.1//EN"
  "http://www.w3.org/Graphics/SVG/1.1/DTD/svg11.dtd">
<svg xmlns:xlink="http://www.w3.org/1999/xlink" width="683.601875pt" height="207.754375pt" viewBox="0 0 683.601875 207.754375" xmlns="http://www.w3.org/2000/svg" version="1.1">
 <metadata>
  <rdf:RDF xmlns:dc="http://purl.org/dc/elements/1.1/" xmlns:cc="http://creativecommons.org/ns#" xmlns:rdf="http://www.w3.org/1999/02/22-rdf-syntax-ns#">
   <cc:Work>
    <dc:type rdf:resource="http://purl.org/dc/dcmitype/StillImage"/>
    <dc:date>2026-02-22T15:00:44.676412</dc:date>
    <dc:format>image/svg+xml</dc:format>
    <dc:creator>
     <cc:Agent>
      <dc:title>Matplotlib v3.10.8, https://matplotlib.org/</dc:title>
     </cc:Agent>
    </dc:creator>
   </cc:Work>
  </rdf:RDF>
 </metadata>
 <defs>
  <style type="text/css">*{stroke-linejoin: round; stroke-linecap: butt}</style>
 </defs>
 <g id="figure_1">
  <g id="patch_1">
   <path d="M 0 207.754375 
L 683.601875 207.754375 
L 683.601875 0 
L 0 0 
z
" style="fill: #ffffff"/>
  </g>
  <g id="axes_1">
   <g id="patch_2">
    <path d="M 66.053125 170.198125 
L 259.969375 170.198125 
L 259.969375 22.318125 
L 66.053125 22.318125 
z
" style="fill: #ffffff"/>
   </g>
   <g id="FillBetweenPolyCollection_1">
    <path d="M 74.8675 96.272154 
L 74.8675 163.476307 
L 76.723158 163.476307 
L 78.578816 163.476307 
L 80.434474 163.476307 
L 82.290132 163.476307 
L 84.145789 163.476307 
L 86.001447 163.476307 
L 87.857105 163.476307 
L 89.712763 163.476307 
L 91.568421 163.476307 
L 93.424079 163.476307 
L 95.279737 163.476307 
L 97.135395 163.476307 
L 98.991053 163.476307 
L 100.846711 163.476307 
L 102.702368 163.476307 
L 104.558026 163.476307 
L 106.413684 163.476307 
L 108.269342 163.476307 
L 110.125 163.476307 
L 111.980658 163.476307 
L 113.836316 163.476307 
L 115.691974 163.476307 
L 117.547632 163.476307 
L 119.403289 163.476307 
L 121.258947 163.476307 
L 123.114605 163.476307 
L 124.970263 163.476307 
L 126.825921 163.476307 
L 128.681579 163.476307 
L 130.537237 163.476307 
L 132.392895 163.476307 
L 134.248553 163.476307 
L 136.104211 163.476307 
L 137.959868 163.476307 
L 139.815526 163.476307 
L 141.671184 163.476307 
L 143.526842 163.476307 
L 145.3825 163.476307 
L 147.238158 163.476307 
L 149.093816 163.476307 
L 150.949474 163.476307 
L 152.805132 163.476307 
L 154.660789 163.476307 
L 156.516447 163.476307 
L 158.372105 163.476307 
L 160.227763 163.476307 
L 162.083421 163.476307 
L 163.939079 163.476307 
L 165.794737 163.476307 
L 167.650395 163.476307 
L 169.506053 163.476307 
L 171.361711 163.476307 
L 173.217368 163.476307 
L 175.073026 163.476307 
L 176.928684 163.476307 
L 178.784342 163.476307 
L 180.64 163.476307 
L 182.495658 163.476307 
L 184.351316 163.476307 
L 186.206974 163.476307 
L 188.062632 163.476307 
L 189.918289 163.476307 
L 191.773947 163.476307 
L 193.629605 163.476307 
L 195.485263 163.476307 
L 197.340921 163.476307 
L 199.196579 163.476307 
L 201.052237 163.476307 
L 202.907895 163.476307 
L 204.763553 163.476307 
L 206.619211 163.476307 
L 208.474868 163.476307 
L 210.330526 163.476307 
L 212.186184 163.476307 
L 214.041842 163.476307 
L 215.8975 163.476307 
L 217.753158 163.476307 
L 219.608816 163.476307 
L 221.464474 163.476307 
L 223.320132 163.476307 
L 225.175789 163.476307 
L 227.031447 163.476307 
L 228.887105 163.476307 
L 230.742763 163.476307 
L 232.598421 163.476307 
L 234.454079 163.476307 
L 236.309737 163.476307 
L 238.165395 163.476307 
L 240.021053 163.476307 
L 241.876711 163.476307 
L 243.732368 163.476307 
L 245.588026 163.476307 
L 247.443684 163.476307 
L 249.299342 163.476307 
L 251.155 163.476307 
L 251.155 96.272154 
L 251.155 96.272154 
L 249.299342 96.272154 
L 247.443684 96.272154 
L 245.588026 96.272154 
L 243.732368 96.272154 
L 241.876711 96.272154 
L 240.021053 96.272154 
L 238.165395 96.272154 
L 236.309737 96.272154 
L 234.454079 96.272154 
L 232.598421 96.272154 
L 230.742763 96.272154 
L 228.887105 96.272154 
L 227.031447 96.272154 
L 225.175789 96.272154 
L 223.320132 96.272154 
L 221.464474 96.272154 
L 219.608816 96.272154 
L 217.753158 96.272154 
L 215.8975 96.272154 
L 214.041842 96.272154 
L 212.186184 96.272154 
L 210.330526 96.272154 
L 208.474868 96.272154 
L 206.619211 96.272154 
L 204.763553 96.272154 
L 202.907895 96.272154 
L 201.052237 96.272154 
L 199.196579 96.272154 
L 197.340921 96.272154 
L 195.485263 96.272154 
L 193.629605 96.272154 
L 191.773947 96.272154 
L 189.918289 96.272154 
L 188.062632 96.272154 
L 186.206974 96.272154 
L 184.351316 96.272154 
L 182.495658 96.272154 
L 180.64 96.272154 
L 178.784342 96.272154 
L 176.928684 96.272154 
L 175.073026 96.272154 
L 173.217368 96.272154 
L 171.361711 96.272154 
L 169.506053 96.272154 
L 167.650395 96.272154 
L 165.794737 96.272154 
L 163.939079 96.272154 
L 162.083421 96.272154 
L 160.227763 96.272154 
L 158.372105 96.272154 
L 156.516447 96.272154 
L 154.660789 96.272154 
L 152.805132 96.272154 
L 150.949474 96.272154 
L 149.093816 96.272154 
L 147.238158 96.272154 
L 145.3825 96.272154 
L 143.526842 96.272154 
L 141.671184 96.272154 
L 139.815526 96.272154 
L 137.959868 96.272154 
L 136.104211 96.272154 
L 134.248553 96.272154 
L 132.392895 96.272154 
L 130.537237 96.272154 
L 128.681579 96.272154 
L 126.825921 96.272154 
L 124.970263 96.272154 
L 123.114605 96.272154 
L 121.258947 96.272154 
L 119.403289 96.272154 
L 117.547632 96.272154 
L 115.691974 96.272154 
L 113.836316 96.272154 
L 111.980658 96.272154 
L 110.125 96.272154 
L 108.269342 96.272154 
L 106.413684 96.272154 
L 104.558026 96.272154 
L 102.702368 96.272154 
L 100.846711 96.272154 
L 98.991053 96.272154 
L 97.135395 96.272154 
L 95.279737 96.272154 
L 93.424079 96.272154 
L 91.568421 96.272154 
L 89.712763 96.272154 
L 87.857105 96.272154 
L 86.001447 96.272154 
L 84.145789 96.272154 
L 82.290132 96.272154 
L 80.434474 96.272154 
L 78.578816 96.272154 
L 76.723158 96.272154 
L 74.8675 96.272154 
z
" clip-path="url(#pb6e3cf0f26)" style="fill: #1f77b4; fill-opacity: 0.25"/>
   </g>
   <g id="matplotlib.axis_1">
    <g id="xtick_1">
     <g id="line2d_1">
      <path d="M 74.8675 170.198125 
L 74.8675 22.318125 
" clip-path="url(#pb6e3cf0f26)" style="fill: none; stroke-dasharray: 2.96,1.28; stroke-dashoffset: 0; stroke: #b0b0b0; stroke-opacity: 0.6; stroke-width: 0.8"/>
     </g>
     <g id="line2d_2">
      <defs>
       <path id="mf5519c3056" d="M 0 0 
L 0 3.5 
" style="stroke: #000000; stroke-width: 0.8"/>
      </defs>
      <g>
       <use xlink:href="#mf5519c3056" x="74.8675" y="170.198125" style="stroke: #000000; stroke-width: 0.8"/>
      </g>
     </g>
     <g id="text_1">
      <!-- 0 -->
      <g transform="translate(71.68625 184.796562) scale(0.1 -0.1)">
       <defs>
        <path id="DejaVuSerif-30" d="M 2034 219 
Q 2513 219 2750 744 
Q 2988 1269 2988 2328 
Q 2988 3391 2750 3916 
Q 2513 4441 2034 4441 
Q 1556 4441 1318 3916 
Q 1081 3391 1081 2328 
Q 1081 1269 1318 744 
Q 1556 219 2034 219 
z
M 2034 -91 
Q 1275 -91 848 546 
Q 422 1184 422 2328 
Q 422 3475 848 4112 
Q 1275 4750 2034 4750 
Q 2797 4750 3222 4112 
Q 3647 3475 3647 2328 
Q 3647 1184 3222 546 
Q 2797 -91 2034 -91 
z
" transform="scale(0.015625)"/>
       </defs>
       <use xlink:href="#DejaVuSerif-30"/>
      </g>
     </g>
    </g>
    <g id="xtick_2">
     <g id="line2d_3">
      <path d="M 111.980658 170.198125 
L 111.980658 22.318125 
" clip-path="url(#pb6e3cf0f26)" style="fill: none; stroke-dasharray: 2.96,1.28; stroke-dashoffset: 0; stroke: #b0b0b0; stroke-opacity: 0.6; stroke-width: 0.8"/>
     </g>
     <g id="line2d_4">
      <g>
       <use xlink:href="#mf5519c3056" x="111.980658" y="170.198125" style="stroke: #000000; stroke-width: 0.8"/>
      </g>
     </g>
     <g id="text_2">
      <!-- 20 -->
      <g transform="translate(105.618158 184.796562) scale(0.1 -0.1)">
       <defs>
        <path id="DejaVuSerif-32" d="M 819 3553 
L 469 3553 
L 469 4384 
Q 803 4563 1142 4656 
Q 1481 4750 1806 4750 
Q 2534 4750 2956 4397 
Q 3378 4044 3378 3438 
Q 3378 2753 2422 1800 
Q 2347 1728 2309 1691 
L 1131 513 
L 3078 513 
L 3078 1088 
L 3444 1088 
L 3444 0 
L 434 0 
L 434 341 
L 1850 1753 
Q 2319 2222 2519 2614 
Q 2719 3006 2719 3438 
Q 2719 3909 2473 4175 
Q 2228 4441 1797 4441 
Q 1350 4441 1106 4219 
Q 863 3997 819 3553 
z
" transform="scale(0.015625)"/>
       </defs>
       <use xlink:href="#DejaVuSerif-32"/>
       <use xlink:href="#DejaVuSerif-30" transform="translate(63.623047 0)"/>
      </g>
     </g>
    </g>
    <g id="xtick_3">
     <g id="line2d_5">
      <path d="M 149.093816 170.198125 
L 149.093816 22.318125 
" clip-path="url(#pb6e3cf0f26)" style="fill: none; stroke-dasharray: 2.96,1.28; stroke-dashoffset: 0; stroke: #b0b0b0; stroke-opacity: 0.6; stroke-width: 0.8"/>
     </g>
     <g id="line2d_6">
      <g>
       <use xlink:href="#mf5519c3056" x="149.093816" y="170.198125" style="stroke: #000000; stroke-width: 0.8"/>
      </g>
     </g>
     <g id="text_3">
      <!-- 40 -->
      <g transform="translate(142.731316 184.796562) scale(0.1 -0.1)">
       <defs>
        <path id="DejaVuSerif-34" d="M 2234 1581 
L 2234 4063 
L 641 1581 
L 2234 1581 
z
M 3609 0 
L 1484 0 
L 1484 331 
L 2234 331 
L 2234 1247 
L 197 1247 
L 197 1588 
L 2241 4750 
L 2859 4750 
L 2859 1581 
L 3750 1581 
L 3750 1247 
L 2859 1247 
L 2859 331 
L 3609 331 
L 3609 0 
z
" transform="scale(0.015625)"/>
       </defs>
       <use xlink:href="#DejaVuSerif-34"/>
       <use xlink:href="#DejaVuSerif-30" transform="translate(63.623047 0)"/>
      </g>
     </g>
    </g>
    <g id="xtick_4">
     <g id="line2d_7">
      <path d="M 186.206974 170.198125 
L 186.206974 22.318125 
" clip-path="url(#pb6e3cf0f26)" style="fill: none; stroke-dasharray: 2.96,1.28; stroke-dashoffset: 0; stroke: #b0b0b0; stroke-opacity: 0.6; stroke-width: 0.8"/>
     </g>
     <g id="line2d_8">
      <g>
       <use xlink:href="#mf5519c3056" x="186.206974" y="170.198125" style="stroke: #000000; stroke-width: 0.8"/>
      </g>
     </g>
     <g id="text_4">
      <!-- 60 -->
      <g transform="translate(179.844474 184.796562) scale(0.1 -0.1)">
       <defs>
        <path id="DejaVuSerif-36" d="M 2094 219 
Q 2534 219 2771 542 
Q 3009 866 3009 1472 
Q 3009 2078 2771 2401 
Q 2534 2725 2094 2725 
Q 1647 2725 1412 2412 
Q 1178 2100 1178 1509 
Q 1178 888 1415 553 
Q 1653 219 2094 219 
z
M 1075 2569 
Q 1288 2803 1556 2918 
Q 1825 3034 2163 3034 
Q 2859 3034 3264 2615 
Q 3669 2197 3669 1472 
Q 3669 763 3233 336 
Q 2797 -91 2069 -91 
Q 1278 -91 853 498 
Q 428 1088 428 2181 
Q 428 3406 931 4078 
Q 1434 4750 2350 4750 
Q 2597 4750 2869 4703 
Q 3141 4656 3425 4563 
L 3425 3794 
L 3072 3794 
Q 3034 4109 2831 4275 
Q 2628 4441 2284 4441 
Q 1678 4441 1381 3981 
Q 1084 3522 1075 2569 
z
" transform="scale(0.015625)"/>
       </defs>
       <use xlink:href="#DejaVuSerif-36"/>
       <use xlink:href="#DejaVuSerif-30" transform="translate(63.623047 0)"/>
      </g>
     </g>
    </g>
    <g id="xtick_5">
     <g id="line2d_9">
      <path d="M 223.320132 170.198125 
L 223.320132 22.318125 
" clip-path="url(#pb6e3cf0f26)" style="fill: none; stroke-dasharray: 2.96,1.28; stroke-dashoffset: 0; stroke: #b0b0b0; stroke-opacity: 0.6; stroke-width: 0.8"/>
     </g>
     <g id="line2d_10">
      <g>
       <use xlink:href="#mf5519c3056" x="223.320132" y="170.198125" style="stroke: #000000; stroke-width: 0.8"/>
      </g>
     </g>
     <g id="text_5">
      <!-- 80 -->
      <g transform="translate(216.957632 184.796562) scale(0.1 -0.1)">
       <defs>
        <path id="DejaVuSerif-38" d="M 2981 1275 
Q 2981 1775 2732 2051 
Q 2484 2328 2034 2328 
Q 1584 2328 1336 2051 
Q 1088 1775 1088 1275 
Q 1088 772 1336 495 
Q 1584 219 2034 219 
Q 2484 219 2732 495 
Q 2981 772 2981 1275 
z
M 2853 3541 
Q 2853 3966 2637 4203 
Q 2422 4441 2034 4441 
Q 1650 4441 1433 4203 
Q 1216 3966 1216 3541 
Q 1216 3113 1433 2875 
Q 1650 2638 2034 2638 
Q 2422 2638 2637 2875 
Q 2853 3113 2853 3541 
z
M 2516 2484 
Q 3047 2413 3344 2092 
Q 3641 1772 3641 1275 
Q 3641 619 3225 264 
Q 2809 -91 2034 -91 
Q 1263 -91 845 264 
Q 428 619 428 1275 
Q 428 1772 725 2092 
Q 1022 2413 1556 2484 
Q 1084 2569 832 2842 
Q 581 3116 581 3541 
Q 581 4103 968 4426 
Q 1356 4750 2034 4750 
Q 2713 4750 3100 4426 
Q 3488 4103 3488 3541 
Q 3488 3116 3236 2842 
Q 2984 2569 2516 2484 
z
" transform="scale(0.015625)"/>
       </defs>
       <use xlink:href="#DejaVuSerif-38"/>
       <use xlink:href="#DejaVuSerif-30" transform="translate(63.623047 0)"/>
      </g>
     </g>
    </g>
    <g id="text_6">
     <!-- $\it{t}$ -->
     <g transform="translate(161.01125 198.474687) scale(0.1 -0.1)">
      <defs>
       <path id="DejaVuSans-Oblique-74" d="M 2706 3500 
L 2619 3053 
L 1472 3053 
L 1100 1153 
Q 1081 1047 1072 975 
Q 1063 903 1063 863 
Q 1063 663 1183 572 
Q 1303 481 1569 481 
L 2150 481 
L 2053 0 
L 1503 0 
Q 991 0 739 200 
Q 488 400 488 806 
Q 488 878 497 964 
Q 506 1050 525 1153 
L 897 3053 
L 409 3053 
L 500 3500 
L 978 3500 
L 1172 4494 
L 1747 4494 
L 1556 3500 
L 2706 3500 
z
" transform="scale(0.015625)"/>
      </defs>
      <use xlink:href="#DejaVuSans-Oblique-74" transform="translate(0 0.78125)"/>
     </g>
    </g>
   </g>
   <g id="matplotlib.axis_2">
    <g id="ytick_1">
     <g id="line2d_11">
      <path d="M 66.053125 163.504365 
L 259.969375 163.504365 
" clip-path="url(#pb6e3cf0f26)" style="fill: none; stroke-dasharray: 2.96,1.28; stroke-dashoffset: 0; stroke: #b0b0b0; stroke-opacity: 0.6; stroke-width: 0.8"/>
     </g>
     <g id="line2d_12">
      <defs>
       <path id="me7aca6508b" d="M 0 0 
L -3.5 0 
" style="stroke: #000000; stroke-width: 0.8"/>
      </defs>
      <g>
       <use xlink:href="#me7aca6508b" x="66.053125" y="163.504365" style="stroke: #000000; stroke-width: 0.8"/>
      </g>
     </g>
     <g id="text_7">
      <!-- 0 -->
      <g transform="translate(52.690625 167.303583) scale(0.1 -0.1)">
       <use xlink:href="#DejaVuSerif-30"/>
      </g>
     </g>
    </g>
    <g id="ytick_2">
     <g id="line2d_13">
      <path d="M 66.053125 140.505498 
L 259.969375 140.505498 
" clip-path="url(#pb6e3cf0f26)" style="fill: none; stroke-dasharray: 2.96,1.28; stroke-dashoffset: 0; stroke: #b0b0b0; stroke-opacity: 0.6; stroke-width: 0.8"/>
     </g>
     <g id="line2d_14">
      <g>
       <use xlink:href="#me7aca6508b" x="66.053125" y="140.505498" style="stroke: #000000; stroke-width: 0.8"/>
      </g>
     </g>
     <g id="text_8">
      <!-- 25000 -->
      <g transform="translate(27.240625 144.304717) scale(0.1 -0.1)">
       <defs>
        <path id="DejaVuSerif-35" d="M 3219 4666 
L 3219 4153 
L 1081 4153 
L 1081 2816 
Q 1244 2928 1461 2984 
Q 1678 3041 1947 3041 
Q 2703 3041 3140 2622 
Q 3578 2203 3578 1478 
Q 3578 738 3136 323 
Q 2694 -91 1894 -91 
Q 1572 -91 1234 -12 
Q 897 66 544 225 
L 544 1131 
L 897 1131 
Q 925 688 1179 453 
Q 1434 219 1894 219 
Q 2388 219 2653 544 
Q 2919 869 2919 1478 
Q 2919 2084 2655 2407 
Q 2391 2731 1894 2731 
Q 1613 2731 1398 2631 
Q 1184 2531 1019 2322 
L 750 2322 
L 750 4666 
L 3219 4666 
z
" transform="scale(0.015625)"/>
       </defs>
       <use xlink:href="#DejaVuSerif-32"/>
       <use xlink:href="#DejaVuSerif-35" transform="translate(63.623047 0)"/>
       <use xlink:href="#DejaVuSerif-30" transform="translate(127.246094 0)"/>
       <use xlink:href="#DejaVuSerif-30" transform="translate(190.869141 0)"/>
       <use xlink:href="#DejaVuSerif-30" transform="translate(254.492188 0)"/>
      </g>
     </g>
    </g>
    <g id="ytick_3">
     <g id="line2d_15">
      <path d="M 66.053125 117.506632 
L 259.969375 117.506632 
" clip-path="url(#pb6e3cf0f26)" style="fill: none; stroke-dasharray: 2.96,1.28; stroke-dashoffset: 0; stroke: #b0b0b0; stroke-opacity: 0.6; stroke-width: 0.8"/>
     </g>
     <g id="line2d_16">
      <g>
       <use xlink:href="#me7aca6508b" x="66.053125" y="117.506632" style="stroke: #000000; stroke-width: 0.8"/>
      </g>
     </g>
     <g id="text_9">
      <!-- 50000 -->
      <g transform="translate(27.240625 121.30585) scale(0.1 -0.1)">
       <use xlink:href="#DejaVuSerif-35"/>
       <use xlink:href="#DejaVuSerif-30" transform="translate(63.623047 0)"/>
       <use xlink:href="#DejaVuSerif-30" transform="translate(127.246094 0)"/>
       <use xlink:href="#DejaVuSerif-30" transform="translate(190.869141 0)"/>
       <use xlink:href="#DejaVuSerif-30" transform="translate(254.492188 0)"/>
      </g>
     </g>
    </g>
    <g id="ytick_4">
     <g id="line2d_17">
      <path d="M 66.053125 94.507765 
L 259.969375 94.507765 
" clip-path="url(#pb6e3cf0f26)" style="fill: none; stroke-dasharray: 2.96,1.28; stroke-dashoffset: 0; stroke: #b0b0b0; stroke-opacity: 0.6; stroke-width: 0.8"/>
     </g>
     <g id="line2d_18">
      <g>
       <use xlink:href="#me7aca6508b" x="66.053125" y="94.507765" style="stroke: #000000; stroke-width: 0.8"/>
      </g>
     </g>
     <g id="text_10">
      <!-- 75000 -->
      <g transform="translate(27.240625 98.306984) scale(0.1 -0.1)">
       <defs>
        <path id="DejaVuSerif-37" d="M 3609 4347 
L 1784 0 
L 1319 0 
L 3059 4153 
L 903 4153 
L 903 3578 
L 538 3578 
L 538 4666 
L 3609 4666 
L 3609 4347 
z
" transform="scale(0.015625)"/>
       </defs>
       <use xlink:href="#DejaVuSerif-37"/>
       <use xlink:href="#DejaVuSerif-35" transform="translate(63.623047 0)"/>
       <use xlink:href="#DejaVuSerif-30" transform="translate(127.246094 0)"/>
       <use xlink:href="#DejaVuSerif-30" transform="translate(190.869141 0)"/>
       <use xlink:href="#DejaVuSerif-30" transform="translate(254.492188 0)"/>
      </g>
     </g>
    </g>
    <g id="ytick_5">
     <g id="line2d_19">
      <path d="M 66.053125 71.508899 
L 259.969375 71.508899 
" clip-path="url(#pb6e3cf0f26)" style="fill: none; stroke-dasharray: 2.96,1.28; stroke-dashoffset: 0; stroke: #b0b0b0; stroke-opacity: 0.6; stroke-width: 0.8"/>
     </g>
     <g id="line2d_20">
      <g>
       <use xlink:href="#me7aca6508b" x="66.053125" y="71.508899" style="stroke: #000000; stroke-width: 0.8"/>
      </g>
     </g>
     <g id="text_11">
      <!-- 100000 -->
      <g transform="translate(20.878125 75.308118) scale(0.1 -0.1)">
       <defs>
        <path id="DejaVuSerif-31" d="M 909 0 
L 909 331 
L 1722 331 
L 1722 4213 
L 781 3603 
L 781 4013 
L 1919 4750 
L 2350 4750 
L 2350 331 
L 3163 331 
L 3163 0 
L 909 0 
z
" transform="scale(0.015625)"/>
       </defs>
       <use xlink:href="#DejaVuSerif-31"/>
       <use xlink:href="#DejaVuSerif-30" transform="translate(63.623047 0)"/>
       <use xlink:href="#DejaVuSerif-30" transform="translate(127.246094 0)"/>
       <use xlink:href="#DejaVuSerif-30" transform="translate(190.869141 0)"/>
       <use xlink:href="#DejaVuSerif-30" transform="translate(254.492188 0)"/>
       <use xlink:href="#DejaVuSerif-30" transform="translate(318.115234 0)"/>
      </g>
     </g>
    </g>
    <g id="ytick_6">
     <g id="line2d_21">
      <path d="M 66.053125 48.510032 
L 259.969375 48.510032 
" clip-path="url(#pb6e3cf0f26)" style="fill: none; stroke-dasharray: 2.96,1.28; stroke-dashoffset: 0; stroke: #b0b0b0; stroke-opacity: 0.6; stroke-width: 0.8"/>
     </g>
     <g id="line2d_22">
      <g>
       <use xlink:href="#me7aca6508b" x="66.053125" y="48.510032" style="stroke: #000000; stroke-width: 0.8"/>
      </g>
     </g>
     <g id="text_12">
      <!-- 125000 -->
      <g transform="translate(20.878125 52.309251) scale(0.1 -0.1)">
       <use xlink:href="#DejaVuSerif-31"/>
       <use xlink:href="#DejaVuSerif-32" transform="translate(63.623047 0)"/>
       <use xlink:href="#DejaVuSerif-35" transform="translate(127.246094 0)"/>
       <use xlink:href="#DejaVuSerif-30" transform="translate(190.869141 0)"/>
       <use xlink:href="#DejaVuSerif-30" transform="translate(254.492188 0)"/>
       <use xlink:href="#DejaVuSerif-30" transform="translate(318.115234 0)"/>
      </g>
     </g>
    </g>
    <g id="ytick_7">
     <g id="line2d_23">
      <path d="M 66.053125 25.511166 
L 259.969375 25.511166 
" clip-path="url(#pb6e3cf0f26)" style="fill: none; stroke-dasharray: 2.96,1.28; stroke-dashoffset: 0; stroke: #b0b0b0; stroke-opacity: 0.6; stroke-width: 0.8"/>
     </g>
     <g id="line2d_24">
      <g>
       <use xlink:href="#me7aca6508b" x="66.053125" y="25.511166" style="stroke: #000000; stroke-width: 0.8"/>
      </g>
     </g>
     <g id="text_13">
      <!-- 150000 -->
      <g transform="translate(20.878125 29.310385) scale(0.1 -0.1)">
       <use xlink:href="#DejaVuSerif-31"/>
       <use xlink:href="#DejaVuSerif-35" transform="translate(63.623047 0)"/>
       <use xlink:href="#DejaVuSerif-30" transform="translate(127.246094 0)"/>
       <use xlink:href="#DejaVuSerif-30" transform="translate(190.869141 0)"/>
       <use xlink:href="#DejaVuSerif-30" transform="translate(254.492188 0)"/>
       <use xlink:href="#DejaVuSerif-30" transform="translate(318.115234 0)"/>
      </g>
     </g>
    </g>
    <g id="text_14">
     <!-- SKR Demand (kbps) -->
     <g transform="translate(14.798438 147.371406) rotate(-90) scale(0.1 -0.1)">
      <defs>
       <path id="DejaVuSerif-53" d="M 594 225 
L 594 1288 
L 953 1284 
Q 969 753 1261 498 
Q 1553 244 2150 244 
Q 2706 244 2998 464 
Q 3291 684 3291 1106 
Q 3291 1444 3114 1625 
Q 2938 1806 2369 1978 
L 1753 2163 
Q 1084 2366 811 2669 
Q 538 2972 538 3500 
Q 538 4094 959 4422 
Q 1381 4750 2144 4750 
Q 2469 4750 2856 4679 
Q 3244 4609 3681 4475 
L 3681 3481 
L 3328 3481 
Q 3275 3975 2998 4195 
Q 2722 4416 2156 4416 
Q 1663 4416 1405 4214 
Q 1147 4013 1147 3628 
Q 1147 3294 1340 3103 
Q 1534 2913 2163 2725 
L 2741 2553 
Q 3375 2363 3645 2067 
Q 3916 1772 3916 1275 
Q 3916 597 3481 253 
Q 3047 -91 2188 -91 
Q 1803 -91 1404 -12 
Q 1006 66 594 225 
z
" transform="scale(0.015625)"/>
       <path id="DejaVuSerif-4b" d="M 353 0 
L 353 331 
L 947 331 
L 947 4331 
L 353 4331 
L 353 4666 
L 2175 4666 
L 2175 4331 
L 1581 4331 
L 1581 2566 
L 3591 4331 
L 3084 4331 
L 3084 4666 
L 4634 4666 
L 4634 4331 
L 4109 4331 
L 2106 2572 
L 4347 331 
L 4878 331 
L 4878 0 
L 3794 0 
L 1581 2216 
L 1581 331 
L 2175 331 
L 2175 0 
L 353 0 
z
" transform="scale(0.015625)"/>
       <path id="DejaVuSerif-52" d="M 3066 2316 
Q 3284 2256 3442 2114 
Q 3600 1972 3725 1716 
L 4403 331 
L 4972 331 
L 4972 0 
L 3872 0 
L 3144 1484 
Q 2934 1916 2759 2042 
Q 2584 2169 2278 2169 
L 1581 2169 
L 1581 331 
L 2241 331 
L 2241 0 
L 353 0 
L 353 331 
L 947 331 
L 947 4331 
L 353 4331 
L 353 4666 
L 2719 4666 
Q 3400 4666 3770 4341 
Q 4141 4016 4141 3419 
Q 4141 2938 3870 2661 
Q 3600 2384 3066 2316 
z
M 1581 2503 
L 2503 2503 
Q 2975 2503 3200 2726 
Q 3425 2950 3425 3419 
Q 3425 3888 3200 4109 
Q 2975 4331 2503 4331 
L 1581 4331 
L 1581 2503 
z
" transform="scale(0.015625)"/>
       <path id="DejaVuSerif-20" transform="scale(0.015625)"/>
       <path id="DejaVuSerif-44" d="M 1581 331 
L 2163 331 
Q 3072 331 3558 850 
Q 4044 1369 4044 2338 
Q 4044 3306 3559 3818 
Q 3075 4331 2163 4331 
L 1581 4331 
L 1581 331 
z
M 353 0 
L 353 331 
L 947 331 
L 947 4331 
L 353 4331 
L 353 4666 
L 2209 4666 
Q 3416 4666 4089 4050 
Q 4763 3434 4763 2338 
Q 4763 1238 4088 619 
Q 3413 0 2209 0 
L 353 0 
z
" transform="scale(0.015625)"/>
       <path id="DejaVuSerif-65" d="M 3469 1600 
L 991 1600 
L 991 1575 
Q 991 903 1244 561 
Q 1497 219 1991 219 
Q 2369 219 2611 417 
Q 2853 616 2950 1006 
L 3413 1006 
Q 3275 459 2904 184 
Q 2534 -91 1931 -91 
Q 1203 -91 761 389 
Q 319 869 319 1663 
Q 319 2450 753 2931 
Q 1188 3413 1894 3413 
Q 2647 3413 3050 2948 
Q 3453 2484 3469 1600 
z
M 2791 1931 
Q 2772 2513 2545 2808 
Q 2319 3103 1894 3103 
Q 1497 3103 1269 2806 
Q 1041 2509 991 1931 
L 2791 1931 
z
" transform="scale(0.015625)"/>
       <path id="DejaVuSerif-6d" d="M 3316 2675 
Q 3481 3041 3739 3227 
Q 3997 3413 4341 3413 
Q 4863 3413 5119 3089 
Q 5375 2766 5375 2113 
L 5375 331 
L 5894 331 
L 5894 0 
L 4300 0 
L 4300 331 
L 4800 331 
L 4800 2047 
Q 4800 2556 4650 2772 
Q 4500 2988 4153 2988 
Q 3769 2988 3567 2697 
Q 3366 2406 3366 1850 
L 3366 331 
L 3866 331 
L 3866 0 
L 2291 0 
L 2291 331 
L 2791 331 
L 2791 2069 
Q 2791 2566 2641 2777 
Q 2491 2988 2144 2988 
Q 1759 2988 1557 2697 
Q 1356 2406 1356 1850 
L 1356 331 
L 1856 331 
L 1856 0 
L 263 0 
L 263 331 
L 781 331 
L 781 2994 
L 231 2994 
L 231 3322 
L 1356 3322 
L 1356 2731 
Q 1516 3063 1762 3238 
Q 2009 3413 2322 3413 
Q 2709 3413 2968 3220 
Q 3228 3028 3316 2675 
z
" transform="scale(0.015625)"/>
       <path id="DejaVuSerif-61" d="M 2547 1044 
L 2547 1747 
L 1806 1747 
Q 1378 1747 1168 1562 
Q 959 1378 959 997 
Q 959 650 1171 447 
Q 1384 244 1747 244 
Q 2106 244 2326 466 
Q 2547 688 2547 1044 
z
M 3122 2075 
L 3122 331 
L 3634 331 
L 3634 0 
L 2547 0 
L 2547 359 
Q 2356 128 2106 18 
Q 1856 -91 1522 -91 
Q 969 -91 644 203 
Q 319 497 319 997 
Q 319 1513 691 1797 
Q 1063 2081 1741 2081 
L 2547 2081 
L 2547 2309 
Q 2547 2688 2317 2895 
Q 2088 3103 1672 3103 
Q 1328 3103 1125 2947 
Q 922 2791 872 2484 
L 575 2484 
L 575 3156 
Q 875 3284 1158 3348 
Q 1441 3413 1709 3413 
Q 2400 3413 2761 3070 
Q 3122 2728 3122 2075 
z
" transform="scale(0.015625)"/>
       <path id="DejaVuSerif-6e" d="M 263 0 
L 263 331 
L 781 331 
L 781 2988 
L 231 2988 
L 231 3322 
L 1356 3322 
L 1356 2731 
Q 1516 3069 1770 3241 
Q 2025 3413 2363 3413 
Q 2913 3413 3172 3097 
Q 3431 2781 3431 2113 
L 3431 331 
L 3944 331 
L 3944 0 
L 2356 0 
L 2356 331 
L 2853 331 
L 2853 1931 
Q 2853 2541 2703 2767 
Q 2553 2994 2175 2994 
Q 1775 2994 1565 2701 
Q 1356 2409 1356 1850 
L 1356 331 
L 1856 331 
L 1856 0 
L 263 0 
z
" transform="scale(0.015625)"/>
       <path id="DejaVuSerif-64" d="M 3359 331 
L 3909 331 
L 3909 0 
L 2784 0 
L 2784 519 
Q 2616 206 2355 57 
Q 2094 -91 1709 -91 
Q 1097 -91 708 395 
Q 319 881 319 1663 
Q 319 2444 706 2928 
Q 1094 3413 1709 3413 
Q 2094 3413 2355 3264 
Q 2616 3116 2784 2803 
L 2784 4531 
L 2241 4531 
L 2241 4863 
L 3359 4863 
L 3359 331 
z
M 2784 1497 
L 2784 1825 
Q 2784 2422 2554 2737 
Q 2325 3053 1888 3053 
Q 1444 3053 1217 2703 
Q 991 2353 991 1663 
Q 991 975 1217 622 
Q 1444 269 1888 269 
Q 2325 269 2554 583 
Q 2784 897 2784 1497 
z
" transform="scale(0.015625)"/>
       <path id="DejaVuSerif-28" d="M 2041 -997 
Q 1281 -656 893 83 
Q 506 822 506 1931 
Q 506 3044 893 3783 
Q 1281 4522 2041 4863 
L 2041 4556 
Q 1559 4225 1350 3623 
Q 1141 3022 1141 1931 
Q 1141 844 1350 242 
Q 1559 -359 2041 -691 
L 2041 -997 
z
" transform="scale(0.015625)"/>
       <path id="DejaVuSerif-6b" d="M 1831 0 
L 219 0 
L 219 331 
L 738 331 
L 738 4531 
L 184 4531 
L 184 4863 
L 1313 4863 
L 1313 1697 
L 2713 2988 
L 2234 2988 
L 2234 3322 
L 3738 3322 
L 3738 2988 
L 3169 2988 
L 2181 2075 
L 3444 331 
L 3922 331 
L 3922 0 
L 2284 0 
L 2284 331 
L 2759 331 
L 1766 1697 
L 1313 1275 
L 1313 331 
L 1831 331 
L 1831 0 
z
" transform="scale(0.015625)"/>
       <path id="DejaVuSerif-62" d="M 738 331 
L 738 4531 
L 184 4531 
L 184 4863 
L 1313 4863 
L 1313 2803 
Q 1481 3116 1742 3264 
Q 2003 3413 2388 3413 
Q 3000 3413 3387 2928 
Q 3775 2444 3775 1663 
Q 3775 881 3387 395 
Q 3000 -91 2388 -91 
Q 2003 -91 1742 57 
Q 1481 206 1313 519 
L 1313 0 
L 184 0 
L 184 331 
L 738 331 
z
M 1313 1497 
Q 1313 897 1542 583 
Q 1772 269 2209 269 
Q 2650 269 2876 622 
Q 3103 975 3103 1663 
Q 3103 2353 2876 2703 
Q 2650 3053 2209 3053 
Q 1772 3053 1542 2737 
Q 1313 2422 1313 1825 
L 1313 1497 
z
" transform="scale(0.015625)"/>
       <path id="DejaVuSerif-70" d="M 1313 1825 
L 1313 1497 
Q 1313 897 1542 583 
Q 1772 269 2209 269 
Q 2650 269 2876 622 
Q 3103 975 3103 1663 
Q 3103 2353 2876 2703 
Q 2650 3053 2209 3053 
Q 1772 3053 1542 2737 
Q 1313 2422 1313 1825 
z
M 738 2988 
L 184 2988 
L 184 3322 
L 1313 3322 
L 1313 2803 
Q 1481 3116 1742 3264 
Q 2003 3413 2388 3413 
Q 3000 3413 3387 2928 
Q 3775 2444 3775 1663 
Q 3775 881 3387 395 
Q 3000 -91 2388 -91 
Q 2003 -91 1742 57 
Q 1481 206 1313 519 
L 1313 -997 
L 1856 -997 
L 1856 -1331 
L 184 -1331 
L 184 -997 
L 738 -997 
L 738 2988 
z
" transform="scale(0.015625)"/>
       <path id="DejaVuSerif-73" d="M 359 184 
L 359 959 
L 691 959 
Q 703 588 923 403 
Q 1144 219 1575 219 
Q 1963 219 2166 364 
Q 2369 509 2369 788 
Q 2369 1006 2220 1140 
Q 2072 1275 1594 1428 
L 1178 1569 
Q 750 1706 558 1912 
Q 366 2119 366 2438 
Q 366 2894 700 3153 
Q 1034 3413 1625 3413 
Q 1888 3413 2178 3344 
Q 2469 3275 2778 3144 
L 2778 2419 
L 2447 2419 
Q 2434 2741 2221 2922 
Q 2009 3103 1644 3103 
Q 1281 3103 1095 2975 
Q 909 2847 909 2591 
Q 909 2381 1050 2254 
Q 1191 2128 1613 1997 
L 2069 1856 
Q 2541 1709 2748 1489 
Q 2956 1269 2956 922 
Q 2956 450 2595 179 
Q 2234 -91 1600 -91 
Q 1278 -91 972 -22 
Q 666 47 359 184 
z
" transform="scale(0.015625)"/>
       <path id="DejaVuSerif-29" d="M 453 -997 
L 453 -691 
Q 934 -359 1145 242 
Q 1356 844 1356 1931 
Q 1356 3022 1145 3623 
Q 934 4225 453 4556 
L 453 4863 
Q 1216 4522 1603 3783 
Q 1991 3044 1991 1931 
Q 1991 822 1603 83 
Q 1216 -656 453 -997 
z
" transform="scale(0.015625)"/>
      </defs>
      <use xlink:href="#DejaVuSerif-53"/>
      <use xlink:href="#DejaVuSerif-4b" transform="translate(68.505859 0)"/>
      <use xlink:href="#DejaVuSerif-52" transform="translate(143.212891 0)"/>
      <use xlink:href="#DejaVuSerif-20" transform="translate(218.505859 0)"/>
      <use xlink:href="#DejaVuSerif-44" transform="translate(250.292969 0)"/>
      <use xlink:href="#DejaVuSerif-65" transform="translate(330.46875 0)"/>
      <use xlink:href="#DejaVuSerif-6d" transform="translate(389.648438 0)"/>
      <use xlink:href="#DejaVuSerif-61" transform="translate(484.472656 0)"/>
      <use xlink:href="#DejaVuSerif-6e" transform="translate(544.091797 0)"/>
      <use xlink:href="#DejaVuSerif-64" transform="translate(608.496094 0)"/>
      <use xlink:href="#DejaVuSerif-20" transform="translate(672.509766 0)"/>
      <use xlink:href="#DejaVuSerif-28" transform="translate(704.296875 0)"/>
      <use xlink:href="#DejaVuSerif-6b" transform="translate(743.310547 0)"/>
      <use xlink:href="#DejaVuSerif-62" transform="translate(803.90625 0)"/>
      <use xlink:href="#DejaVuSerif-70" transform="translate(867.919922 0)"/>
      <use xlink:href="#DejaVuSerif-73" transform="translate(931.933594 0)"/>
      <use xlink:href="#DejaVuSerif-29" transform="translate(983.251953 0)"/>
     </g>
    </g>
   </g>
   <g id="line2d_25">
    <path d="M 74.8675 129.87423 
L 76.723158 129.87423 
L 78.578816 129.87423 
L 80.434474 129.87423 
L 82.290132 129.87423 
L 84.145789 129.87423 
L 86.001447 129.87423 
L 87.857105 129.87423 
L 89.712763 129.87423 
L 91.568421 129.87423 
L 93.424079 129.87423 
L 95.279737 129.87423 
L 97.135395 129.87423 
L 98.991053 129.87423 
L 100.846711 129.87423 
L 102.702368 129.87423 
L 104.558026 129.87423 
L 106.413684 129.87423 
L 108.269342 129.87423 
L 110.125 129.87423 
L 111.980658 129.87423 
L 113.836316 129.87423 
L 115.691974 129.87423 
L 117.547632 129.87423 
L 119.403289 129.87423 
L 121.258947 129.87423 
L 123.114605 129.87423 
L 124.970263 129.87423 
L 126.825921 129.87423 
L 128.681579 129.87423 
L 130.537237 129.87423 
L 132.392895 129.87423 
L 134.248553 129.87423 
L 136.104211 129.87423 
L 137.959868 129.87423 
L 139.815526 129.87423 
L 141.671184 129.87423 
L 143.526842 129.87423 
L 145.3825 129.87423 
L 147.238158 129.87423 
L 149.093816 129.87423 
L 150.949474 129.87423 
L 152.805132 129.87423 
L 154.660789 129.87423 
L 156.516447 129.87423 
L 158.372105 129.87423 
L 160.227763 129.87423 
L 162.083421 129.87423 
L 163.939079 129.87423 
L 165.794737 129.87423 
L 167.650395 129.87423 
L 169.506053 129.87423 
L 171.361711 129.87423 
L 173.217368 129.87423 
L 175.073026 129.87423 
L 176.928684 129.87423 
L 178.784342 129.87423 
L 180.64 129.87423 
L 182.495658 129.87423 
L 184.351316 129.87423 
L 186.206974 129.87423 
L 188.062632 129.87423 
L 189.918289 129.87423 
L 191.773947 129.87423 
L 193.629605 129.87423 
L 195.485263 129.87423 
L 197.340921 129.87423 
L 199.196579 129.87423 
L 201.052237 129.87423 
L 202.907895 129.87423 
L 204.763553 129.87423 
L 206.619211 129.87423 
L 208.474868 129.87423 
L 210.330526 129.87423 
L 212.186184 129.87423 
L 214.041842 129.87423 
L 215.8975 129.87423 
L 217.753158 129.87423 
L 219.608816 129.87423 
L 221.464474 129.87423 
L 223.320132 129.87423 
L 225.175789 129.87423 
L 227.031447 129.87423 
L 228.887105 129.87423 
L 230.742763 129.87423 
L 232.598421 129.87423 
L 234.454079 129.87423 
L 236.309737 129.87423 
L 238.165395 129.87423 
L 240.021053 129.87423 
L 241.876711 129.87423 
L 243.732368 129.87423 
L 245.588026 129.87423 
L 247.443684 129.87423 
L 249.299342 129.87423 
L 251.155 129.87423 
" clip-path="url(#pb6e3cf0f26)" style="fill: none; stroke: #1f77b4; stroke-width: 2; stroke-linecap: square"/>
   </g>
   <g id="patch_3">
    <path d="M 66.053125 170.198125 
L 66.053125 22.318125 
" style="fill: none; stroke: #000000; stroke-width: 0.8; stroke-linejoin: miter; stroke-linecap: square"/>
   </g>
   <g id="patch_4">
    <path d="M 259.969375 170.198125 
L 259.969375 22.318125 
" style="fill: none; stroke: #000000; stroke-width: 0.8; stroke-linejoin: miter; stroke-linecap: square"/>
   </g>
   <g id="patch_5">
    <path d="M 66.053125 170.198125 
L 259.969375 170.198125 
" style="fill: none; stroke: #000000; stroke-width: 0.8; stroke-linejoin: miter; stroke-linecap: square"/>
   </g>
   <g id="patch_6">
    <path d="M 66.053125 22.318125 
L 259.969375 22.318125 
" style="fill: none; stroke: #000000; stroke-width: 0.8; stroke-linejoin: miter; stroke-linecap: square"/>
   </g>
   <g id="text_15">
    <!-- amp = 0.0 -->
    <g transform="translate(131.519688 16.318125) scale(0.12 -0.12)">
     <defs>
      <path id="DejaVuSerif-3d" d="M 678 2894 
L 4684 2894 
L 4684 2394 
L 678 2394 
L 678 2894 
z
M 678 1619 
L 4684 1619 
L 4684 1119 
L 678 1119 
L 678 1619 
z
" transform="scale(0.015625)"/>
      <path id="DejaVuSerif-2e" d="M 603 325 
Q 603 500 722 622 
Q 841 744 1019 744 
Q 1191 744 1312 622 
Q 1434 500 1434 325 
Q 1434 153 1312 31 
Q 1191 -91 1019 -91 
Q 841 -91 722 29 
Q 603 150 603 325 
z
" transform="scale(0.015625)"/>
     </defs>
     <use xlink:href="#DejaVuSerif-61"/>
     <use xlink:href="#DejaVuSerif-6d" transform="translate(59.619141 0)"/>
     <use xlink:href="#DejaVuSerif-70" transform="translate(154.443359 0)"/>
     <use xlink:href="#DejaVuSerif-20" transform="translate(218.457031 0)"/>
     <use xlink:href="#DejaVuSerif-3d" transform="translate(250.244141 0)"/>
     <use xlink:href="#DejaVuSerif-20" transform="translate(334.033203 0)"/>
     <use xlink:href="#DejaVuSerif-30" transform="translate(365.820312 0)"/>
     <use xlink:href="#DejaVuSerif-2e" transform="translate(429.443359 0)"/>
     <use xlink:href="#DejaVuSerif-30" transform="translate(461.230469 0)"/>
    </g>
   </g>
   <g id="legend_1">
    <g id="patch_7">
     <path d="M 174.250625 59.674375 
L 252.969375 59.674375 
Q 254.969375 59.674375 254.969375 57.674375 
L 254.969375 29.318125 
Q 254.969375 27.318125 252.969375 27.318125 
L 174.250625 27.318125 
Q 172.250625 27.318125 172.250625 29.318125 
L 172.250625 57.674375 
Q 172.250625 59.674375 174.250625 59.674375 
z
" style="fill: #ffffff; opacity: 0.8; stroke: #cccccc; stroke-linejoin: miter"/>
    </g>
    <g id="patch_8">
     <path d="M 176.250625 38.916562 
L 196.250625 38.916562 
L 196.250625 31.916562 
L 176.250625 31.916562 
z
" style="fill: #1f77b4; fill-opacity: 0.25"/>
    </g>
    <g id="text_16">
     <!-- Min–Max -->
     <g transform="translate(204.250625 38.916562) scale(0.1 -0.1)">
      <defs>
       <path id="DejaVuSerif-4d" d="M 353 0 
L 353 331 
L 947 331 
L 947 4331 
L 319 4331 
L 319 4666 
L 1678 4666 
L 3316 1344 
L 4953 4666 
L 6228 4666 
L 6228 4331 
L 5606 4331 
L 5606 331 
L 6203 331 
L 6203 0 
L 4378 0 
L 4378 331 
L 4972 331 
L 4972 3938 
L 3372 684 
L 2931 684 
L 1331 3938 
L 1331 331 
L 1925 331 
L 1925 0 
L 353 0 
z
" transform="scale(0.015625)"/>
       <path id="DejaVuSerif-69" d="M 622 4353 
Q 622 4497 726 4603 
Q 831 4709 978 4709 
Q 1122 4709 1226 4603 
Q 1331 4497 1331 4353 
Q 1331 4206 1228 4103 
Q 1125 4000 978 4000 
Q 831 4000 726 4103 
Q 622 4206 622 4353 
z
M 1356 331 
L 1900 331 
L 1900 0 
L 231 0 
L 231 331 
L 781 331 
L 781 2988 
L 231 2988 
L 231 3322 
L 1356 3322 
L 1356 331 
z
" transform="scale(0.015625)"/>
       <path id="DejaVuSerif-2013" d="M 281 1906 
L 2919 1906 
L 2919 1491 
L 281 1491 
L 281 1906 
z
" transform="scale(0.015625)"/>
       <path id="DejaVuSerif-78" d="M 1863 2028 
L 2559 2988 
L 2113 2988 
L 2113 3322 
L 3391 3322 
L 3391 2988 
L 2950 2988 
L 2059 1759 
L 3097 331 
L 3531 331 
L 3531 0 
L 1997 0 
L 1997 331 
L 2419 331 
L 1697 1325 
L 972 331 
L 1403 331 
L 1403 0 
L 141 0 
L 141 331 
L 581 331 
L 1497 1594 
L 488 2988 
L 78 2988 
L 78 3322 
L 1563 3322 
L 1563 2988 
L 1166 2988 
L 1863 2028 
z
" transform="scale(0.015625)"/>
      </defs>
      <use xlink:href="#DejaVuSerif-4d"/>
      <use xlink:href="#DejaVuSerif-69" transform="translate(102.392578 0)"/>
      <use xlink:href="#DejaVuSerif-6e" transform="translate(134.375 0)"/>
      <use xlink:href="#DejaVuSerif-2013" transform="translate(198.779297 0)"/>
      <use xlink:href="#DejaVuSerif-4d" transform="translate(248.779297 0)"/>
      <use xlink:href="#DejaVuSerif-61" transform="translate(351.171875 0)"/>
      <use xlink:href="#DejaVuSerif-78" transform="translate(410.791016 0)"/>
     </g>
    </g>
    <g id="line2d_26">
     <path d="M 176.250625 50.094687 
L 186.250625 50.094687 
L 196.250625 50.094687 
" style="fill: none; stroke: #1f77b4; stroke-width: 2; stroke-linecap: square"/>
    </g>
    <g id="text_17">
     <!-- Median -->
     <g transform="translate(204.250625 53.594687) scale(0.1 -0.1)">
      <use xlink:href="#DejaVuSerif-4d"/>
      <use xlink:href="#DejaVuSerif-65" transform="translate(102.392578 0)"/>
      <use xlink:href="#DejaVuSerif-64" transform="translate(161.572266 0)"/>
      <use xlink:href="#DejaVuSerif-69" transform="translate(225.585938 0)"/>
      <use xlink:href="#DejaVuSerif-61" transform="translate(257.568359 0)"/>
      <use xlink:href="#DejaVuSerif-6e" transform="translate(317.1875 0)"/>
     </g>
    </g>
   </g>
  </g>
  <g id="axes_2">
   <g id="patch_9">
    <path d="M 274.269375 170.198125 
L 468.185625 170.198125 
L 468.185625 22.318125 
L 274.269375 22.318125 
z
" style="fill: #ffffff"/>
   </g>
   <g id="FillBetweenPolyCollection_2">
    <path d="M 283.08375 96.272154 
L 283.08375 163.476307 
L 284.939408 163.476307 
L 286.795066 163.476307 
L 288.650724 163.476306 
L 290.506382 163.476303 
L 292.362039 163.476297 
L 294.217697 163.476286 
L 296.073355 163.47627 
L 297.929013 163.476244 
L 299.784671 163.476207 
L 301.640329 163.476157 
L 303.495987 163.476091 
L 305.351645 163.476006 
L 307.207303 163.4759 
L 309.062961 163.47577 
L 310.918618 163.475614 
L 312.774276 163.47543 
L 314.629934 163.475216 
L 316.485592 163.47497 
L 318.34125 163.474692 
L 320.196908 163.47438 
L 322.052566 163.474035 
L 323.908224 163.473655 
L 325.763882 163.473243 
L 327.619539 163.4728 
L 329.475197 163.472326 
L 331.330855 163.471824 
L 333.186513 163.471298 
L 335.042171 163.470749 
L 336.897829 163.470182 
L 338.753487 163.469602 
L 340.609145 163.469011 
L 342.464803 163.468416 
L 344.320461 163.46782 
L 346.176118 163.46723 
L 348.031776 163.46665 
L 349.887434 163.466086 
L 351.743092 163.465543 
L 353.59875 163.465027 
L 355.454408 163.464543 
L 357.310066 163.464094 
L 359.165724 163.463687 
L 361.021382 163.463325 
L 362.877039 163.463013 
L 364.732697 163.462752 
L 366.588355 163.462546 
L 368.444013 163.462398 
L 370.299671 163.462308 
L 372.155329 163.462278 
L 374.010987 163.462308 
L 375.866645 163.462398 
L 377.722303 163.462546 
L 379.577961 163.462752 
L 381.433618 163.463013 
L 383.289276 163.463325 
L 385.144934 163.463687 
L 387.000592 163.464094 
L 388.85625 163.464543 
L 390.711908 163.465027 
L 392.567566 163.465543 
L 394.423224 163.466086 
L 396.278882 163.46665 
L 398.134539 163.46723 
L 399.990197 163.46782 
L 401.845855 163.468416 
L 403.701513 163.469011 
L 405.557171 163.469602 
L 407.412829 163.470182 
L 409.268487 163.470749 
L 411.124145 163.471298 
L 412.979803 163.471824 
L 414.835461 163.472326 
L 416.691118 163.4728 
L 418.546776 163.473243 
L 420.402434 163.473655 
L 422.258092 163.474035 
L 424.11375 163.47438 
L 425.969408 163.474692 
L 427.825066 163.47497 
L 429.680724 163.475216 
L 431.536382 163.47543 
L 433.392039 163.475614 
L 435.247697 163.47577 
L 437.103355 163.4759 
L 438.959013 163.476006 
L 440.814671 163.476091 
L 442.670329 163.476157 
L 444.525987 163.476207 
L 446.381645 163.476244 
L 448.237303 163.47627 
L 450.092961 163.476286 
L 451.948618 163.476297 
L 453.804276 163.476303 
L 455.659934 163.476306 
L 457.515592 163.476307 
L 459.37125 163.476307 
L 459.37125 96.272115 
L 459.37125 96.272115 
L 457.515592 96.271539 
L 455.659934 96.269051 
L 453.804276 96.262396 
L 451.948618 96.248485 
L 450.092961 96.223458 
L 448.237303 96.182775 
L 446.381645 96.121308 
L 444.525987 96.033459 
L 442.670329 95.913278 
L 440.814671 95.754605 
L 438.959013 95.551202 
L 437.103355 95.296906 
L 435.247697 94.98577 
L 433.392039 94.612209 
L 431.536382 94.171147 
L 429.680724 93.65815 
L 427.825066 93.06955 
L 425.969408 92.402567 
L 424.11375 91.655409 
L 422.258092 90.827357 
L 420.402434 89.918839 
L 418.546776 88.931478 
L 416.691118 87.868128 
L 414.835461 86.73288 
L 412.979803 85.531056 
L 411.124145 84.26918 
L 409.268487 82.95492 
L 407.412829 81.597024 
L 405.557171 80.205223 
L 403.701513 78.790126 
L 401.845855 77.363095 
L 399.990197 75.936101 
L 398.134539 74.521581 
L 396.278882 73.132268 
L 394.423224 71.781026 
L 392.567566 70.480679 
L 390.711908 69.243829 
L 388.85625 68.082689 
L 387.000592 67.008907 
L 385.144934 66.033407 
L 383.289276 65.166227 
L 381.433618 64.416382 
L 379.577961 63.791732 
L 377.722303 63.29887 
L 375.866645 62.943024 
L 374.010987 62.727985 
L 372.155329 62.656049 
L 370.299671 62.727985 
L 368.444013 62.943024 
L 366.588355 63.29887 
L 364.732697 63.791732 
L 362.877039 64.416382 
L 361.021382 65.166227 
L 359.165724 66.033407 
L 357.310066 67.008907 
L 355.454408 68.082689 
L 353.59875 69.243829 
L 351.743092 70.480679 
L 349.887434 71.781026 
L 348.031776 73.132268 
L 346.176118 74.521581 
L 344.320461 75.936101 
L 342.464803 77.363095 
L 340.609145 78.790126 
L 338.753487 80.205223 
L 336.897829 81.597024 
L 335.042171 82.95492 
L 333.186513 84.26918 
L 331.330855 85.531056 
L 329.475197 86.73288 
L 327.619539 87.868128 
L 325.763882 88.931478 
L 323.908224 89.918839 
L 322.052566 90.827357 
L 320.196908 91.655409 
L 318.34125 92.402567 
L 316.485592 93.06955 
L 314.629934 93.65815 
L 312.774276 94.171147 
L 310.918618 94.612209 
L 309.062961 94.98577 
L 307.207303 95.296906 
L 305.351645 95.551202 
L 303.495987 95.754605 
L 301.640329 95.913278 
L 299.784671 96.033459 
L 297.929013 96.121308 
L 296.073355 96.182775 
L 294.217697 96.223458 
L 292.362039 96.248485 
L 290.506382 96.262396 
L 288.650724 96.269051 
L 286.795066 96.271539 
L 284.939408 96.272115 
L 283.08375 96.272154 
z
" clip-path="url(#pf2bc5a55a8)" style="fill: #1f77b4; fill-opacity: 0.25"/>
   </g>
   <g id="matplotlib.axis_3">
    <g id="xtick_6">
     <g id="line2d_27">
      <path d="M 283.08375 170.198125 
L 283.08375 22.318125 
" clip-path="url(#pf2bc5a55a8)" style="fill: none; stroke-dasharray: 2.96,1.28; stroke-dashoffset: 0; stroke: #b0b0b0; stroke-opacity: 0.6; stroke-width: 0.8"/>
     </g>
     <g id="line2d_28">
      <g>
       <use xlink:href="#mf5519c3056" x="283.08375" y="170.198125" style="stroke: #000000; stroke-width: 0.8"/>
      </g>
     </g>
     <g id="text_18">
      <!-- 0 -->
      <g transform="translate(279.9025 184.796562) scale(0.1 -0.1)">
       <use xlink:href="#DejaVuSerif-30"/>
      </g>
     </g>
    </g>
    <g id="xtick_7">
     <g id="line2d_29">
      <path d="M 320.196908 170.198125 
L 320.196908 22.318125 
" clip-path="url(#pf2bc5a55a8)" style="fill: none; stroke-dasharray: 2.96,1.28; stroke-dashoffset: 0; stroke: #b0b0b0; stroke-opacity: 0.6; stroke-width: 0.8"/>
     </g>
     <g id="line2d_30">
      <g>
       <use xlink:href="#mf5519c3056" x="320.196908" y="170.198125" style="stroke: #000000; stroke-width: 0.8"/>
      </g>
     </g>
     <g id="text_19">
      <!-- 20 -->
      <g transform="translate(313.834408 184.796562) scale(0.1 -0.1)">
       <use xlink:href="#DejaVuSerif-32"/>
       <use xlink:href="#DejaVuSerif-30" transform="translate(63.623047 0)"/>
      </g>
     </g>
    </g>
    <g id="xtick_8">
     <g id="line2d_31">
      <path d="M 357.310066 170.198125 
L 357.310066 22.318125 
" clip-path="url(#pf2bc5a55a8)" style="fill: none; stroke-dasharray: 2.96,1.28; stroke-dashoffset: 0; stroke: #b0b0b0; stroke-opacity: 0.6; stroke-width: 0.8"/>
     </g>
     <g id="line2d_32">
      <g>
       <use xlink:href="#mf5519c3056" x="357.310066" y="170.198125" style="stroke: #000000; stroke-width: 0.8"/>
      </g>
     </g>
     <g id="text_20">
      <!-- 40 -->
      <g transform="translate(350.947566 184.796562) scale(0.1 -0.1)">
       <use xlink:href="#DejaVuSerif-34"/>
       <use xlink:href="#DejaVuSerif-30" transform="translate(63.623047 0)"/>
      </g>
     </g>
    </g>
    <g id="xtick_9">
     <g id="line2d_33">
      <path d="M 394.423224 170.198125 
L 394.423224 22.318125 
" clip-path="url(#pf2bc5a55a8)" style="fill: none; stroke-dasharray: 2.96,1.28; stroke-dashoffset: 0; stroke: #b0b0b0; stroke-opacity: 0.6; stroke-width: 0.8"/>
     </g>
     <g id="line2d_34">
      <g>
       <use xlink:href="#mf5519c3056" x="394.423224" y="170.198125" style="stroke: #000000; stroke-width: 0.8"/>
      </g>
     </g>
     <g id="text_21">
      <!-- 60 -->
      <g transform="translate(388.060724 184.796562) scale(0.1 -0.1)">
       <use xlink:href="#DejaVuSerif-36"/>
       <use xlink:href="#DejaVuSerif-30" transform="translate(63.623047 0)"/>
      </g>
     </g>
    </g>
    <g id="xtick_10">
     <g id="line2d_35">
      <path d="M 431.536382 170.198125 
L 431.536382 22.318125 
" clip-path="url(#pf2bc5a55a8)" style="fill: none; stroke-dasharray: 2.96,1.28; stroke-dashoffset: 0; stroke: #b0b0b0; stroke-opacity: 0.6; stroke-width: 0.8"/>
     </g>
     <g id="line2d_36">
      <g>
       <use xlink:href="#mf5519c3056" x="431.536382" y="170.198125" style="stroke: #000000; stroke-width: 0.8"/>
      </g>
     </g>
     <g id="text_22">
      <!-- 80 -->
      <g transform="translate(425.173882 184.796562) scale(0.1 -0.1)">
       <use xlink:href="#DejaVuSerif-38"/>
       <use xlink:href="#DejaVuSerif-30" transform="translate(63.623047 0)"/>
      </g>
     </g>
    </g>
    <g id="text_23">
     <!-- $\it{t}$ -->
     <g transform="translate(369.2275 198.474687) scale(0.1 -0.1)">
      <use xlink:href="#DejaVuSans-Oblique-74" transform="translate(0 0.78125)"/>
     </g>
    </g>
   </g>
   <g id="matplotlib.axis_4">
    <g id="ytick_8">
     <g id="line2d_37">
      <path d="M 274.269375 163.504365 
L 468.185625 163.504365 
" clip-path="url(#pf2bc5a55a8)" style="fill: none; stroke-dasharray: 2.96,1.28; stroke-dashoffset: 0; stroke: #b0b0b0; stroke-opacity: 0.6; stroke-width: 0.8"/>
     </g>
     <g id="line2d_38">
      <g>
       <use xlink:href="#me7aca6508b" x="274.269375" y="163.504365" style="stroke: #000000; stroke-width: 0.8"/>
      </g>
     </g>
    </g>
    <g id="ytick_9">
     <g id="line2d_39">
      <path d="M 274.269375 140.505498 
L 468.185625 140.505498 
" clip-path="url(#pf2bc5a55a8)" style="fill: none; stroke-dasharray: 2.96,1.28; stroke-dashoffset: 0; stroke: #b0b0b0; stroke-opacity: 0.6; stroke-width: 0.8"/>
     </g>
     <g id="line2d_40">
      <g>
       <use xlink:href="#me7aca6508b" x="274.269375" y="140.505498" style="stroke: #000000; stroke-width: 0.8"/>
      </g>
     </g>
    </g>
    <g id="ytick_10">
     <g id="line2d_41">
      <path d="M 274.269375 117.506632 
L 468.185625 117.506632 
" clip-path="url(#pf2bc5a55a8)" style="fill: none; stroke-dasharray: 2.96,1.28; stroke-dashoffset: 0; stroke: #b0b0b0; stroke-opacity: 0.6; stroke-width: 0.8"/>
     </g>
     <g id="line2d_42">
      <g>
       <use xlink:href="#me7aca6508b" x="274.269375" y="117.506632" style="stroke: #000000; stroke-width: 0.8"/>
      </g>
     </g>
    </g>
    <g id="ytick_11">
     <g id="line2d_43">
      <path d="M 274.269375 94.507765 
L 468.185625 94.507765 
" clip-path="url(#pf2bc5a55a8)" style="fill: none; stroke-dasharray: 2.96,1.28; stroke-dashoffset: 0; stroke: #b0b0b0; stroke-opacity: 0.6; stroke-width: 0.8"/>
     </g>
     <g id="line2d_44">
      <g>
       <use xlink:href="#me7aca6508b" x="274.269375" y="94.507765" style="stroke: #000000; stroke-width: 0.8"/>
      </g>
     </g>
    </g>
    <g id="ytick_12">
     <g id="line2d_45">
      <path d="M 274.269375 71.508899 
L 468.185625 71.508899 
" clip-path="url(#pf2bc5a55a8)" style="fill: none; stroke-dasharray: 2.96,1.28; stroke-dashoffset: 0; stroke: #b0b0b0; stroke-opacity: 0.6; stroke-width: 0.8"/>
     </g>
     <g id="line2d_46">
      <g>
       <use xlink:href="#me7aca6508b" x="274.269375" y="71.508899" style="stroke: #000000; stroke-width: 0.8"/>
      </g>
     </g>
    </g>
    <g id="ytick_13">
     <g id="line2d_47">
      <path d="M 274.269375 48.510032 
L 468.185625 48.510032 
" clip-path="url(#pf2bc5a55a8)" style="fill: none; stroke-dasharray: 2.96,1.28; stroke-dashoffset: 0; stroke: #b0b0b0; stroke-opacity: 0.6; stroke-width: 0.8"/>
     </g>
     <g id="line2d_48">
      <g>
       <use xlink:href="#me7aca6508b" x="274.269375" y="48.510032" style="stroke: #000000; stroke-width: 0.8"/>
      </g>
     </g>
    </g>
    <g id="ytick_14">
     <g id="line2d_49">
      <path d="M 274.269375 25.511166 
L 468.185625 25.511166 
" clip-path="url(#pf2bc5a55a8)" style="fill: none; stroke-dasharray: 2.96,1.28; stroke-dashoffset: 0; stroke: #b0b0b0; stroke-opacity: 0.6; stroke-width: 0.8"/>
     </g>
     <g id="line2d_50">
      <g>
       <use xlink:href="#me7aca6508b" x="274.269375" y="25.511166" style="stroke: #000000; stroke-width: 0.8"/>
      </g>
     </g>
    </g>
   </g>
   <g id="line2d_51">
    <path d="M 283.08375 129.87423 
L 284.939408 129.874211 
L 286.795066 129.873923 
L 288.650724 129.872678 
L 290.506382 129.86935 
L 292.362039 129.862391 
L 294.217697 129.849872 
L 296.073355 129.829522 
L 297.929013 129.798776 
L 299.784671 129.754833 
L 301.640329 129.694718 
L 303.495987 129.615348 
L 305.351645 129.513604 
L 307.207303 129.386403 
L 309.062961 129.23077 
L 310.918618 129.043912 
L 312.774276 128.823289 
L 314.629934 128.566683 
L 316.485592 128.27226 
L 318.34125 127.938629 
L 320.196908 127.564894 
L 322.052566 127.150696 
L 323.908224 126.696247 
L 325.763882 126.202361 
L 327.619539 125.670464 
L 329.475197 125.102603 
L 331.330855 124.50144 
L 333.186513 123.870239 
L 335.042171 123.212835 
L 336.897829 122.533603 
L 338.753487 121.837412 
L 340.609145 121.129569 
L 342.464803 120.415755 
L 344.320461 119.701961 
L 346.176118 118.994405 
L 348.031776 118.299459 
L 349.887434 117.623556 
L 351.743092 116.973111 
L 353.59875 116.354428 
L 355.454408 115.773616 
L 357.310066 115.236501 
L 359.165724 114.748547 
L 361.021382 114.314776 
L 362.877039 113.939697 
L 364.732697 113.627242 
L 366.588355 113.380708 
L 368.444013 113.202711 
L 370.299671 113.095146 
L 372.155329 113.059163 
L 374.010987 113.095146 
L 375.866645 113.202711 
L 377.722303 113.380708 
L 379.577961 113.627242 
L 381.433618 113.939697 
L 383.289276 114.314776 
L 385.144934 114.748547 
L 387.000592 115.236501 
L 388.85625 115.773616 
L 390.711908 116.354428 
L 392.567566 116.973111 
L 394.423224 117.623556 
L 396.278882 118.299459 
L 398.134539 118.994405 
L 399.990197 119.701961 
L 401.845855 120.415755 
L 403.701513 121.129569 
L 405.557171 121.837412 
L 407.412829 122.533603 
L 409.268487 123.212835 
L 411.124145 123.870239 
L 412.979803 124.50144 
L 414.835461 125.102603 
L 416.691118 125.670464 
L 418.546776 126.202361 
L 420.402434 126.696247 
L 422.258092 127.150696 
L 424.11375 127.564894 
L 425.969408 127.938629 
L 427.825066 128.27226 
L 429.680724 128.566683 
L 431.536382 128.823289 
L 433.392039 129.043912 
L 435.247697 129.23077 
L 437.103355 129.386403 
L 438.959013 129.513604 
L 440.814671 129.615348 
L 442.670329 129.694718 
L 444.525987 129.754833 
L 446.381645 129.798776 
L 448.237303 129.829522 
L 450.092961 129.849872 
L 451.948618 129.862391 
L 453.804276 129.86935 
L 455.659934 129.872678 
L 457.515592 129.873923 
L 459.37125 129.874211 
" clip-path="url(#pf2bc5a55a8)" style="fill: none; stroke: #1f77b4; stroke-width: 2; stroke-linecap: square"/>
   </g>
   <g id="patch_10">
    <path d="M 274.269375 170.198125 
L 274.269375 22.318125 
" style="fill: none; stroke: #000000; stroke-width: 0.8; stroke-linejoin: miter; stroke-linecap: square"/>
   </g>
   <g id="patch_11">
    <path d="M 468.185625 170.198125 
L 468.185625 22.318125 
" style="fill: none; stroke: #000000; stroke-width: 0.8; stroke-linejoin: miter; stroke-linecap: square"/>
   </g>
   <g id="patch_12">
    <path d="M 274.269375 170.198125 
L 468.185625 170.198125 
" style="fill: none; stroke: #000000; stroke-width: 0.8; stroke-linejoin: miter; stroke-linecap: square"/>
   </g>
   <g id="patch_13">
    <path d="M 274.269375 22.318125 
L 468.185625 22.318125 
" style="fill: none; stroke: #000000; stroke-width: 0.8; stroke-linejoin: miter; stroke-linecap: square"/>
   </g>
   <g id="text_24">
    <!-- amp = 0.5 -->
    <g transform="translate(339.735938 16.318125) scale(0.12 -0.12)">
     <use xlink:href="#DejaVuSerif-61"/>
     <use xlink:href="#DejaVuSerif-6d" transform="translate(59.619141 0)"/>
     <use xlink:href="#DejaVuSerif-70" transform="translate(154.443359 0)"/>
     <use xlink:href="#DejaVuSerif-20" transform="translate(218.457031 0)"/>
     <use xlink:href="#DejaVuSerif-3d" transform="translate(250.244141 0)"/>
     <use xlink:href="#DejaVuSerif-20" transform="translate(334.033203 0)"/>
     <use xlink:href="#DejaVuSerif-30" transform="translate(365.820312 0)"/>
     <use xlink:href="#DejaVuSerif-2e" transform="translate(429.443359 0)"/>
     <use xlink:href="#DejaVuSerif-35" transform="translate(461.230469 0)"/>
    </g>
   </g>
  </g>
  <g id="axes_3">
   <g id="patch_14">
    <path d="M 482.485625 170.198125 
L 676.401875 170.198125 
L 676.401875 22.318125 
L 482.485625 22.318125 
z
" style="fill: #ffffff"/>
   </g>
   <g id="FillBetweenPolyCollection_3">
    <path d="M 491.3 96.272154 
L 491.3 163.476307 
L 493.155658 163.476307 
L 495.011316 163.476306 
L 496.866974 163.476304 
L 498.722632 163.476299 
L 500.578289 163.476287 
L 502.433947 163.476266 
L 504.289605 163.476232 
L 506.145263 163.476181 
L 508.000921 163.476108 
L 509.856579 163.476007 
L 511.712237 163.475875 
L 513.567895 163.475705 
L 515.423553 163.475493 
L 517.279211 163.475233 
L 519.134868 163.474921 
L 520.990526 163.474553 
L 522.846184 163.474125 
L 524.701842 163.473634 
L 526.5575 163.473077 
L 528.413158 163.472453 
L 530.268816 163.471762 
L 532.124474 163.471004 
L 533.980132 163.47018 
L 535.835789 163.469292 
L 537.691447 163.468345 
L 539.547105 163.467342 
L 541.402763 163.466288 
L 543.258421 163.465192 
L 545.114079 163.464058 
L 546.969737 163.462896 
L 548.825395 163.461715 
L 550.681053 163.460524 
L 552.536711 163.459333 
L 554.392368 163.458153 
L 556.248026 163.456993 
L 558.103684 163.455865 
L 559.959342 163.45478 
L 561.815 163.453747 
L 563.670658 163.452778 
L 565.526316 163.451882 
L 567.381974 163.451068 
L 569.237632 163.450344 
L 571.093289 163.449718 
L 572.948947 163.449197 
L 574.804605 163.448786 
L 576.660263 163.448488 
L 578.515921 163.448309 
L 580.371579 163.448249 
L 582.227237 163.448309 
L 584.082895 163.448488 
L 585.938553 163.448786 
L 587.794211 163.449197 
L 589.649868 163.449718 
L 591.505526 163.450344 
L 593.361184 163.451068 
L 595.216842 163.451882 
L 597.0725 163.452778 
L 598.928158 163.453747 
L 600.783816 163.45478 
L 602.639474 163.455865 
L 604.495132 163.456993 
L 606.350789 163.458153 
L 608.206447 163.459333 
L 610.062105 163.460524 
L 611.917763 163.461715 
L 613.773421 163.462896 
L 615.629079 163.464058 
L 617.484737 163.465192 
L 619.340395 163.466288 
L 621.196053 163.467342 
L 623.051711 163.468345 
L 624.907368 163.469292 
L 626.763026 163.47018 
L 628.618684 163.471004 
L 630.474342 163.471762 
L 632.33 163.472453 
L 634.185658 163.473077 
L 636.041316 163.473634 
L 637.896974 163.474125 
L 639.752632 163.474553 
L 641.608289 163.474921 
L 643.463947 163.475233 
L 645.319605 163.475493 
L 647.175263 163.475705 
L 649.030921 163.475875 
L 650.886579 163.476007 
L 652.742237 163.476108 
L 654.597895 163.476181 
L 656.453553 163.476232 
L 658.309211 163.476266 
L 660.164868 163.476287 
L 662.020526 163.476299 
L 663.876184 163.476304 
L 665.731842 163.476306 
L 667.5875 163.476307 
L 667.5875 96.272077 
L 667.5875 96.272077 
L 665.731842 96.270924 
L 663.876184 96.265948 
L 662.020526 96.252639 
L 660.164868 96.224816 
L 658.309211 96.174763 
L 656.453553 96.093396 
L 654.597895 95.970463 
L 652.742237 95.794763 
L 650.886579 95.554402 
L 649.030921 95.237056 
L 647.175263 94.830251 
L 645.319605 94.321659 
L 643.463947 93.699385 
L 641.608289 92.952264 
L 639.752632 92.070141 
L 637.896974 91.044145 
L 636.041316 89.866945 
L 634.185658 88.53298 
L 632.33 87.038663 
L 630.474342 85.38256 
L 628.618684 83.565523 
L 626.763026 81.590802 
L 624.907368 79.464101 
L 623.051711 77.193605 
L 621.196053 74.789959 
L 619.340395 72.266206 
L 617.484737 69.637687 
L 615.629079 66.921894 
L 613.773421 64.138292 
L 611.917763 61.308099 
L 610.062105 58.454035 
L 608.206447 55.600049 
L 606.350789 52.771009 
L 604.495132 49.992382 
L 602.639474 47.289899 
L 600.783816 44.689203 
L 598.928158 42.215503 
L 597.0725 39.893223 
L 595.216842 37.74566 
L 593.361184 35.794659 
L 591.505526 34.060299 
L 589.649868 32.56061 
L 587.794211 31.31131 
L 585.938553 30.325586 
L 584.082895 29.613894 
L 582.227237 29.183815 
L 580.371579 29.039943 
L 578.515921 29.183815 
L 576.660263 29.613894 
L 574.804605 30.325586 
L 572.948947 31.31131 
L 571.093289 32.56061 
L 569.237632 34.060299 
L 567.381974 35.794659 
L 565.526316 37.74566 
L 563.670658 39.893223 
L 561.815 42.215503 
L 559.959342 44.689203 
L 558.103684 47.289899 
L 556.248026 49.992382 
L 554.392368 52.771009 
L 552.536711 55.600049 
L 550.681053 58.454035 
L 548.825395 61.308099 
L 546.969737 64.138292 
L 545.114079 66.921894 
L 543.258421 69.637687 
L 541.402763 72.266206 
L 539.547105 74.789959 
L 537.691447 77.193605 
L 535.835789 79.464101 
L 533.980132 81.590802 
L 532.124474 83.565523 
L 530.268816 85.38256 
L 528.413158 87.038663 
L 526.5575 88.53298 
L 524.701842 89.866945 
L 522.846184 91.044145 
L 520.990526 92.070141 
L 519.134868 92.952264 
L 517.279211 93.699385 
L 515.423553 94.321659 
L 513.567895 94.830251 
L 511.712237 95.237056 
L 509.856579 95.554402 
L 508.000921 95.794763 
L 506.145263 95.970463 
L 504.289605 96.093396 
L 502.433947 96.174763 
L 500.578289 96.224816 
L 498.722632 96.252639 
L 496.866974 96.265948 
L 495.011316 96.270924 
L 493.155658 96.272077 
L 491.3 96.272154 
z
" clip-path="url(#pf1b3e628e4)" style="fill: #1f77b4; fill-opacity: 0.25"/>
   </g>
   <g id="matplotlib.axis_5">
    <g id="xtick_11">
     <g id="line2d_52">
      <path d="M 491.3 170.198125 
L 491.3 22.318125 
" clip-path="url(#pf1b3e628e4)" style="fill: none; stroke-dasharray: 2.96,1.28; stroke-dashoffset: 0; stroke: #b0b0b0; stroke-opacity: 0.6; stroke-width: 0.8"/>
     </g>
     <g id="line2d_53">
      <g>
       <use xlink:href="#mf5519c3056" x="491.3" y="170.198125" style="stroke: #000000; stroke-width: 0.8"/>
      </g>
     </g>
     <g id="text_25">
      <!-- 0 -->
      <g transform="translate(488.11875 184.796562) scale(0.1 -0.1)">
       <use xlink:href="#DejaVuSerif-30"/>
      </g>
     </g>
    </g>
    <g id="xtick_12">
     <g id="line2d_54">
      <path d="M 528.413158 170.198125 
L 528.413158 22.318125 
" clip-path="url(#pf1b3e628e4)" style="fill: none; stroke-dasharray: 2.96,1.28; stroke-dashoffset: 0; stroke: #b0b0b0; stroke-opacity: 0.6; stroke-width: 0.8"/>
     </g>
     <g id="line2d_55">
      <g>
       <use xlink:href="#mf5519c3056" x="528.413158" y="170.198125" style="stroke: #000000; stroke-width: 0.8"/>
      </g>
     </g>
     <g id="text_26">
      <!-- 20 -->
      <g transform="translate(522.050658 184.796562) scale(0.1 -0.1)">
       <use xlink:href="#DejaVuSerif-32"/>
       <use xlink:href="#DejaVuSerif-30" transform="translate(63.623047 0)"/>
      </g>
     </g>
    </g>
    <g id="xtick_13">
     <g id="line2d_56">
      <path d="M 565.526316 170.198125 
L 565.526316 22.318125 
" clip-path="url(#pf1b3e628e4)" style="fill: none; stroke-dasharray: 2.96,1.28; stroke-dashoffset: 0; stroke: #b0b0b0; stroke-opacity: 0.6; stroke-width: 0.8"/>
     </g>
     <g id="line2d_57">
      <g>
       <use xlink:href="#mf5519c3056" x="565.526316" y="170.198125" style="stroke: #000000; stroke-width: 0.8"/>
      </g>
     </g>
     <g id="text_27">
      <!-- 40 -->
      <g transform="translate(559.163816 184.796562) scale(0.1 -0.1)">
       <use xlink:href="#DejaVuSerif-34"/>
       <use xlink:href="#DejaVuSerif-30" transform="translate(63.623047 0)"/>
      </g>
     </g>
    </g>
    <g id="xtick_14">
     <g id="line2d_58">
      <path d="M 602.639474 170.198125 
L 602.639474 22.318125 
" clip-path="url(#pf1b3e628e4)" style="fill: none; stroke-dasharray: 2.96,1.28; stroke-dashoffset: 0; stroke: #b0b0b0; stroke-opacity: 0.6; stroke-width: 0.8"/>
     </g>
     <g id="line2d_59">
      <g>
       <use xlink:href="#mf5519c3056" x="602.639474" y="170.198125" style="stroke: #000000; stroke-width: 0.8"/>
      </g>
     </g>
     <g id="text_28">
      <!-- 60 -->
      <g transform="translate(596.276974 184.796562) scale(0.1 -0.1)">
       <use xlink:href="#DejaVuSerif-36"/>
       <use xlink:href="#DejaVuSerif-30" transform="translate(63.623047 0)"/>
      </g>
     </g>
    </g>
    <g id="xtick_15">
     <g id="line2d_60">
      <path d="M 639.752632 170.198125 
L 639.752632 22.318125 
" clip-path="url(#pf1b3e628e4)" style="fill: none; stroke-dasharray: 2.96,1.28; stroke-dashoffset: 0; stroke: #b0b0b0; stroke-opacity: 0.6; stroke-width: 0.8"/>
     </g>
     <g id="line2d_61">
      <g>
       <use xlink:href="#mf5519c3056" x="639.752632" y="170.198125" style="stroke: #000000; stroke-width: 0.8"/>
      </g>
     </g>
     <g id="text_29">
      <!-- 80 -->
      <g transform="translate(633.390132 184.796562) scale(0.1 -0.1)">
       <use xlink:href="#DejaVuSerif-38"/>
       <use xlink:href="#DejaVuSerif-30" transform="translate(63.623047 0)"/>
      </g>
     </g>
    </g>
    <g id="text_30">
     <!-- $\it{t}$ -->
     <g transform="translate(577.44375 198.474687) scale(0.1 -0.1)">
      <use xlink:href="#DejaVuSans-Oblique-74" transform="translate(0 0.78125)"/>
     </g>
    </g>
   </g>
   <g id="matplotlib.axis_6">
    <g id="ytick_15">
     <g id="line2d_62">
      <path d="M 482.485625 163.504365 
L 676.401875 163.504365 
" clip-path="url(#pf1b3e628e4)" style="fill: none; stroke-dasharray: 2.96,1.28; stroke-dashoffset: 0; stroke: #b0b0b0; stroke-opacity: 0.6; stroke-width: 0.8"/>
     </g>
     <g id="line2d_63">
      <g>
       <use xlink:href="#me7aca6508b" x="482.485625" y="163.504365" style="stroke: #000000; stroke-width: 0.8"/>
      </g>
     </g>
    </g>
    <g id="ytick_16">
     <g id="line2d_64">
      <path d="M 482.485625 140.505498 
L 676.401875 140.505498 
" clip-path="url(#pf1b3e628e4)" style="fill: none; stroke-dasharray: 2.96,1.28; stroke-dashoffset: 0; stroke: #b0b0b0; stroke-opacity: 0.6; stroke-width: 0.8"/>
     </g>
     <g id="line2d_65">
      <g>
       <use xlink:href="#me7aca6508b" x="482.485625" y="140.505498" style="stroke: #000000; stroke-width: 0.8"/>
      </g>
     </g>
    </g>
    <g id="ytick_17">
     <g id="line2d_66">
      <path d="M 482.485625 117.506632 
L 676.401875 117.506632 
" clip-path="url(#pf1b3e628e4)" style="fill: none; stroke-dasharray: 2.96,1.28; stroke-dashoffset: 0; stroke: #b0b0b0; stroke-opacity: 0.6; stroke-width: 0.8"/>
     </g>
     <g id="line2d_67">
      <g>
       <use xlink:href="#me7aca6508b" x="482.485625" y="117.506632" style="stroke: #000000; stroke-width: 0.8"/>
      </g>
     </g>
    </g>
    <g id="ytick_18">
     <g id="line2d_68">
      <path d="M 482.485625 94.507765 
L 676.401875 94.507765 
" clip-path="url(#pf1b3e628e4)" style="fill: none; stroke-dasharray: 2.96,1.28; stroke-dashoffset: 0; stroke: #b0b0b0; stroke-opacity: 0.6; stroke-width: 0.8"/>
     </g>
     <g id="line2d_69">
      <g>
       <use xlink:href="#me7aca6508b" x="482.485625" y="94.507765" style="stroke: #000000; stroke-width: 0.8"/>
      </g>
     </g>
    </g>
    <g id="ytick_19">
     <g id="line2d_70">
      <path d="M 482.485625 71.508899 
L 676.401875 71.508899 
" clip-path="url(#pf1b3e628e4)" style="fill: none; stroke-dasharray: 2.96,1.28; stroke-dashoffset: 0; stroke: #b0b0b0; stroke-opacity: 0.6; stroke-width: 0.8"/>
     </g>
     <g id="line2d_71">
      <g>
       <use xlink:href="#me7aca6508b" x="482.485625" y="71.508899" style="stroke: #000000; stroke-width: 0.8"/>
      </g>
     </g>
    </g>
    <g id="ytick_20">
     <g id="line2d_72">
      <path d="M 482.485625 48.510032 
L 676.401875 48.510032 
" clip-path="url(#pf1b3e628e4)" style="fill: none; stroke-dasharray: 2.96,1.28; stroke-dashoffset: 0; stroke: #b0b0b0; stroke-opacity: 0.6; stroke-width: 0.8"/>
     </g>
     <g id="line2d_73">
      <g>
       <use xlink:href="#me7aca6508b" x="482.485625" y="48.510032" style="stroke: #000000; stroke-width: 0.8"/>
      </g>
     </g>
    </g>
    <g id="ytick_21">
     <g id="line2d_74">
      <path d="M 482.485625 25.511166 
L 676.401875 25.511166 
" clip-path="url(#pf1b3e628e4)" style="fill: none; stroke-dasharray: 2.96,1.28; stroke-dashoffset: 0; stroke: #b0b0b0; stroke-opacity: 0.6; stroke-width: 0.8"/>
     </g>
     <g id="line2d_75">
      <g>
       <use xlink:href="#me7aca6508b" x="482.485625" y="25.511166" style="stroke: #000000; stroke-width: 0.8"/>
      </g>
     </g>
    </g>
   </g>
   <g id="line2d_76">
    <path d="M 491.3 129.87423 
L 493.155658 129.874192 
L 495.011316 129.873615 
L 496.866974 129.871126 
L 498.722632 129.864469 
L 500.578289 129.850551 
L 502.433947 129.825514 
L 504.289605 129.784814 
L 506.145263 129.723322 
L 508.000921 129.635435 
L 509.856579 129.515205 
L 511.712237 129.356465 
L 513.567895 129.152978 
L 515.423553 128.898576 
L 517.279211 128.587309 
L 519.134868 128.213593 
L 520.990526 127.772347 
L 522.846184 127.259135 
L 524.701842 126.67029 
L 526.5575 126.003029 
L 528.413158 125.255558 
L 530.268816 124.427161 
L 532.124474 123.518264 
L 533.980132 122.530491 
L 535.835789 121.466697 
L 537.691447 120.330975 
L 539.547105 119.12865 
L 541.402763 117.866247 
L 543.258421 116.551439 
L 545.114079 115.192976 
L 546.969737 113.800594 
L 548.825395 112.384907 
L 550.681053 110.95728 
L 552.536711 109.529691 
L 554.392368 108.114581 
L 556.248026 106.724688 
L 558.103684 105.372882 
L 559.959342 104.071991 
L 561.815 102.834625 
L 563.670658 101.673001 
L 565.526316 100.598771 
L 567.381974 99.622864 
L 569.237632 98.755322 
L 571.093289 98.005164 
L 572.948947 97.380254 
L 574.804605 96.887186 
L 576.660263 96.531191 
L 578.515921 96.316062 
L 580.371579 96.244096 
L 582.227237 96.316062 
L 584.082895 96.531191 
L 585.938553 96.887186 
L 587.794211 97.380254 
L 589.649868 98.005164 
L 591.505526 98.755322 
L 593.361184 99.622864 
L 595.216842 100.598771 
L 597.0725 101.673001 
L 598.928158 102.834625 
L 600.783816 104.071991 
L 602.639474 105.372882 
L 604.495132 106.724688 
L 606.350789 108.114581 
L 608.206447 109.529691 
L 610.062105 110.95728 
L 611.917763 112.384907 
L 613.773421 113.800594 
L 615.629079 115.192976 
L 617.484737 116.551439 
L 619.340395 117.866247 
L 621.196053 119.12865 
L 623.051711 120.330975 
L 624.907368 121.466697 
L 626.763026 122.530491 
L 628.618684 123.518264 
L 630.474342 124.427161 
L 632.33 125.255558 
L 634.185658 126.003029 
L 636.041316 126.67029 
L 637.896974 127.259135 
L 639.752632 127.772347 
L 641.608289 128.213593 
L 643.463947 128.587309 
L 645.319605 128.898576 
L 647.175263 129.152978 
L 649.030921 129.356465 
L 650.886579 129.515205 
L 652.742237 129.635435 
L 654.597895 129.723322 
L 656.453553 129.784814 
L 658.309211 129.825514 
L 660.164868 129.850551 
L 662.020526 129.864469 
L 663.876184 129.871126 
L 665.731842 129.873615 
L 667.5875 129.874192 
" clip-path="url(#pf1b3e628e4)" style="fill: none; stroke: #1f77b4; stroke-width: 2; stroke-linecap: square"/>
   </g>
   <g id="patch_15">
    <path d="M 482.485625 170.198125 
L 482.485625 22.318125 
" style="fill: none; stroke: #000000; stroke-width: 0.8; stroke-linejoin: miter; stroke-linecap: square"/>
   </g>
   <g id="patch_16">
    <path d="M 676.401875 170.198125 
L 676.401875 22.318125 
" style="fill: none; stroke: #000000; stroke-width: 0.8; stroke-linejoin: miter; stroke-linecap: square"/>
   </g>
   <g id="patch_17">
    <path d="M 482.485625 170.198125 
L 676.401875 170.198125 
" style="fill: none; stroke: #000000; stroke-width: 0.8; stroke-linejoin: miter; stroke-linecap: square"/>
   </g>
   <g id="patch_18">
    <path d="M 482.485625 22.318125 
L 676.401875 22.318125 
" style="fill: none; stroke: #000000; stroke-width: 0.8; stroke-linejoin: miter; stroke-linecap: square"/>
   </g>
   <g id="text_31">
    <!-- amp = 1.0 -->
    <g transform="translate(547.952188 16.318125) scale(0.12 -0.12)">
     <use xlink:href="#DejaVuSerif-61"/>
     <use xlink:href="#DejaVuSerif-6d" transform="translate(59.619141 0)"/>
     <use xlink:href="#DejaVuSerif-70" transform="translate(154.443359 0)"/>
     <use xlink:href="#DejaVuSerif-20" transform="translate(218.457031 0)"/>
     <use xlink:href="#DejaVuSerif-3d" transform="translate(250.244141 0)"/>
     <use xlink:href="#DejaVuSerif-20" transform="translate(334.033203 0)"/>
     <use xlink:href="#DejaVuSerif-31" transform="translate(365.820312 0)"/>
     <use xlink:href="#DejaVuSerif-2e" transform="translate(429.443359 0)"/>
     <use xlink:href="#DejaVuSerif-30" transform="translate(461.230469 0)"/>
    </g>
   </g>
  </g>
 </g>
 <defs>
  <clipPath id="pb6e3cf0f26">
   <rect x="66.053125" y="22.318125" width="193.91625" height="147.88"/>
  </clipPath>
  <clipPath id="pf2bc5a55a8">
   <rect x="274.269375" y="22.318125" width="193.91625" height="147.88"/>
  </clipPath>
  <clipPath id="pf1b3e628e4">
   <rect x="482.485625" y="22.318125" width="193.91625" height="147.88"/>
  </clipPath>
 </defs>
</svg>
