<?xml version="1.0" encoding="utf-8" standalone="no"?>
<!DOCTYPE svg PUBLIC "-//W3C//DTD SVG 1.1//EN"
  "http://www.w3.org/Graphics/SVG/1.1/DTD/svg11.dtd">
<svg xmlns:xlink="http://www.w3.org/1999/xlink" width="293.302647pt" height="280.8pt" viewBox="0 0 293.302647 280.8" xmlns="http://www.w3.org/2000/svg" version="1.1">
 <metadata>
  <rdf:RDF xmlns:dc="http://purl.org/dc/elements/1.1/" xmlns:cc="http://creativecommons.org/ns#" xmlns:rdf="http://www.w3.org/1999/02/22-rdf-syntax-ns#">
   <cc:Work>
    <dc:type rdf:resource="http://purl.org/dc/dcmitype/StillImage"/>
    <dc:date>2026-02-04T21:03:35.472885</dc:date>
    <dc:format>image/svg+xml</dc:format>
    <dc:creator>
     <cc:Agent>
      <dc:title>Matplotlib v3.10.8, https://matplotlib.org/</dc:title>
     </cc:Agent>
    </dc:creator>
   </cc:Work>
  </rdf:RDF>
 </metadata>
 <defs>
  <style type="text/css">*{stroke-linejoin: round; stroke-linecap: butt}</style>
 </defs>
 <g id="figure_1">
  <g id="patch_1">
   <path d="M 0 280.8 
L 293.302647 280.8 
L 293.302647 0 
L 0 0 
z
" style="fill: #ffffff"/>
  </g>
  <g id="patch_2">
   <path d="M 7.2 273.6 
L 273.6 273.6 
L 273.6 7.2 
L 7.2 7.2 
z
" style="fill: #ffffff"/>
  </g>
  <g id="pane3d_1">
   <g id="patch_3">
    <path d="M 26.809092 208.384629 
L 115.28431 144.835407 
L 114.257078 34.654119 
L 22.209431 89.988907 
" style="fill: #f2f2f2; opacity: 0.5; stroke: #f2f2f2; stroke-linejoin: miter"/>
   </g>
  </g>
  <g id="pane3d_2">
   <g id="patch_4">
    <path d="M 115.28431 144.835407 
L 256.73488 180.130473 
L 260.985057 65.341113 
L 114.257078 34.654119 
" style="fill: #e6e6e6; opacity: 0.5; stroke: #e6e6e6; stroke-linejoin: miter"/>
   </g>
  </g>
  <g id="pane3d_3">
   <g id="patch_5">
    <path d="M 26.809092 208.384629 
L 177.193469 250.796066 
L 256.73488 180.130473 
L 115.28431 144.835407 
" style="fill: #ececec; opacity: 0.5; stroke: #ececec; stroke-linejoin: miter"/>
   </g>
  </g>
  <g id="grid3d_1">
   <g id="Line3DCollection_1">
    <path d="M 40.202374 212.161805 
L 127.937937 147.992769 
L 127.360591 37.394615 
" style="fill: none; stroke: #b0b0b0; stroke-width: 0.8"/>
    <path d="M 67.808815 219.94738 
L 153.985124 154.492122 
L 154.347577 43.038729 
" style="fill: none; stroke: #b0b0b0; stroke-width: 0.8"/>
    <path d="M 95.996892 227.896989 
L 180.533038 161.116417 
L 181.872376 48.795323 
" style="fill: none; stroke: #b0b0b0; stroke-width: 0.8"/>
    <path d="M 124.785184 236.015869 
L 207.596257 167.869293 
L 209.951227 54.667792 
" style="fill: none; stroke: #b0b0b0; stroke-width: 0.8"/>
    <path d="M 154.193066 244.309487 
L 235.189933 174.754529 
L 238.601029 60.659671 
" style="fill: none; stroke: #b0b0b0; stroke-width: 0.8"/>
   </g>
  </g>
  <g id="grid3d_2">
   <g id="Line3DCollection_2">
    <path d="M 33.343337 83.295718 
L 37.479399 200.720452 
L 186.827494 242.237077 
" style="fill: none; stroke: #b0b0b0; stroke-width: 0.8"/>
    <path d="M 47.241639 74.940701 
L 50.811127 191.144653 
L 198.848547 231.557422 
" style="fill: none; stroke: #b0b0b0; stroke-width: 0.8"/>
    <path d="M 60.769147 66.808589 
L 63.800128 181.815024 
L 210.543596 221.167393 
" style="fill: none; stroke: #b0b0b0; stroke-width: 0.8"/>
    <path d="M 73.940504 58.890578 
L 76.459451 172.722194 
L 221.925724 211.055367 
" style="fill: none; stroke: #b0b0b0; stroke-width: 0.8"/>
    <path d="M 86.769592 51.178324 
L 88.801491 163.857259 
L 233.007324 201.210333 
" style="fill: none; stroke: #b0b0b0; stroke-width: 0.8"/>
    <path d="M 99.269581 43.663908 
L 100.838028 155.211759 
L 243.800144 191.621856 
" style="fill: none; stroke: #b0b0b0; stroke-width: 0.8"/>
    <path d="M 111.452975 36.339815 
L 112.580266 146.777645 
L 254.315327 182.280034 
" style="fill: none; stroke: #b0b0b0; stroke-width: 0.8"/>
   </g>
  </g>
  <g id="grid3d_3">
   <g id="Line3DCollection_3">
    <path d="M 256.812212 178.041891 
L 115.265585 142.827005 
L 26.725524 206.233581 
" style="fill: none; stroke: #b0b0b0; stroke-width: 0.8"/>
    <path d="M 257.591403 156.99739 
L 115.076988 122.59798 
L 25.883242 184.553167 
" style="fill: none; stroke: #b0b0b0; stroke-width: 0.8"/>
    <path d="M 258.381433 135.660158 
L 114.885898 102.101655 
L 25.028774 162.559076 
" style="fill: none; stroke: #b0b0b0; stroke-width: 0.8"/>
    <path d="M 259.182529 114.024047 
L 114.692267 81.332698 
L 24.161853 140.244452 
" style="fill: none; stroke: #b0b0b0; stroke-width: 0.8"/>
    <path d="M 259.994925 92.082732 
L 114.496043 60.285631 
L 23.282206 117.602235 
" style="fill: none; stroke: #b0b0b0; stroke-width: 0.8"/>
    <path d="M 260.818863 69.829708 
L 114.297174 38.954832 
L 22.389549 94.62516 
" style="fill: none; stroke: #b0b0b0; stroke-width: 0.8"/>
   </g>
  </g>
  <g id="axis3d_1">
   <g id="line2d_1">
    <path d="M 26.809092 208.384629 
L 177.193469 250.796066 
" style="fill: none; stroke: #000000; stroke-width: 0.8; stroke-linecap: square"/>
   </g>
   <g id="xtick_1">
    <g id="line2d_2">
     <path d="M 40.969656 211.600622 
L 38.664343 213.286708 
" style="fill: none; stroke: #000000; stroke-width: 0.8; stroke-linecap: square"/>
    </g>
    <g id="text_1">
     <!-- 277 -->
     <g transform="translate(22.994293 235.128544) scale(0.1 -0.1)">
      <defs>
       <path id="DejaVuSerif-32" d="M 819 3553 
L 469 3553 
L 469 4384 
Q 803 4563 1142 4656 
Q 1481 4750 1806 4750 
Q 2534 4750 2956 4397 
Q 3378 4044 3378 3438 
Q 3378 2753 2422 1800 
Q 2347 1728 2309 1691 
L 1131 513 
L 3078 513 
L 3078 1088 
L 3444 1088 
L 3444 0 
L 434 0 
L 434 341 
L 1850 1753 
Q 2319 2222 2519 2614 
Q 2719 3006 2719 3438 
Q 2719 3909 2473 4175 
Q 2228 4441 1797 4441 
Q 1350 4441 1106 4219 
Q 863 3997 819 3553 
z
" transform="scale(0.015625)"/>
       <path id="DejaVuSerif-37" d="M 3609 4347 
L 1784 0 
L 1319 0 
L 3059 4153 
L 903 4153 
L 903 3578 
L 538 3578 
L 538 4666 
L 3609 4666 
L 3609 4347 
z
" transform="scale(0.015625)"/>
      </defs>
      <use xlink:href="#DejaVuSerif-32"/>
      <use xlink:href="#DejaVuSerif-37" transform="translate(63.623047 0)"/>
      <use xlink:href="#DejaVuSerif-37" transform="translate(127.246094 0)"/>
     </g>
    </g>
   </g>
   <g id="xtick_2">
    <g id="line2d_3">
     <path d="M 68.56313 219.37444 
L 66.296741 221.095877 
" style="fill: none; stroke: #000000; stroke-width: 0.8; stroke-linecap: square"/>
    </g>
    <g id="text_2">
     <!-- 278 -->
     <g transform="translate(50.650626 243.111792) scale(0.1 -0.1)">
      <defs>
       <path id="DejaVuSerif-38" d="M 2981 1275 
Q 2981 1775 2732 2051 
Q 2484 2328 2034 2328 
Q 1584 2328 1336 2051 
Q 1088 1775 1088 1275 
Q 1088 772 1336 495 
Q 1584 219 2034 219 
Q 2484 219 2732 495 
Q 2981 772 2981 1275 
z
M 2853 3541 
Q 2853 3966 2637 4203 
Q 2422 4441 2034 4441 
Q 1650 4441 1433 4203 
Q 1216 3966 1216 3541 
Q 1216 3113 1433 2875 
Q 1650 2638 2034 2638 
Q 2422 2638 2637 2875 
Q 2853 3113 2853 3541 
z
M 2516 2484 
Q 3047 2413 3344 2092 
Q 3641 1772 3641 1275 
Q 3641 619 3225 264 
Q 2809 -91 2034 -91 
Q 1263 -91 845 264 
Q 428 619 428 1275 
Q 428 1772 725 2092 
Q 1022 2413 1556 2484 
Q 1084 2569 832 2842 
Q 581 3116 581 3541 
Q 581 4103 968 4426 
Q 1356 4750 2034 4750 
Q 2713 4750 3100 4426 
Q 3488 4103 3488 3541 
Q 3488 3116 3236 2842 
Q 2984 2569 2516 2484 
z
" transform="scale(0.015625)"/>
      </defs>
      <use xlink:href="#DejaVuSerif-32"/>
      <use xlink:href="#DejaVuSerif-37" transform="translate(63.623047 0)"/>
      <use xlink:href="#DejaVuSerif-38" transform="translate(127.246094 0)"/>
     </g>
    </g>
   </g>
   <g id="xtick_3">
    <g id="line2d_4">
     <path d="M 96.737521 227.311918 
L 94.512218 229.069829 
" style="fill: none; stroke: #000000; stroke-width: 0.8; stroke-linecap: square"/>
    </g>
    <g id="text_3">
     <!-- 279 -->
     <g transform="translate(78.892423 251.264041) scale(0.1 -0.1)">
      <defs>
       <path id="DejaVuSerif-39" d="M 2994 2091 
Q 2784 1856 2512 1740 
Q 2241 1625 1900 1625 
Q 1206 1625 804 2044 
Q 403 2463 403 3188 
Q 403 3897 839 4323 
Q 1275 4750 2003 4750 
Q 2794 4750 3217 4161 
Q 3641 3572 3641 2478 
Q 3641 1253 3137 581 
Q 2634 -91 1722 -91 
Q 1475 -91 1203 -44 
Q 931 3 647 97 
L 647 872 
L 997 872 
Q 1038 556 1241 387 
Q 1444 219 1784 219 
Q 2391 219 2687 676 
Q 2984 1134 2994 2091 
z
M 1978 4441 
Q 1534 4441 1298 4117 
Q 1063 3794 1063 3188 
Q 1063 2581 1298 2256 
Q 1534 1931 1978 1931 
Q 2422 1931 2658 2245 
Q 2894 2559 2894 3150 
Q 2894 3772 2656 4106 
Q 2419 4441 1978 4441 
z
" transform="scale(0.015625)"/>
      </defs>
      <use xlink:href="#DejaVuSerif-32"/>
      <use xlink:href="#DejaVuSerif-37" transform="translate(63.623047 0)"/>
      <use xlink:href="#DejaVuSerif-39" transform="translate(127.246094 0)"/>
     </g>
    </g>
   </g>
   <g id="xtick_4">
    <g id="line2d_5">
     <path d="M 125.511369 235.418279 
L 123.329426 237.213836 
" style="fill: none; stroke: #000000; stroke-width: 0.8; stroke-linecap: square"/>
    </g>
    <g id="text_4">
     <!-- 280 -->
     <g transform="translate(107.738474 259.590712) scale(0.1 -0.1)">
      <defs>
       <path id="DejaVuSerif-30" d="M 2034 219 
Q 2513 219 2750 744 
Q 2988 1269 2988 2328 
Q 2988 3391 2750 3916 
Q 2513 4441 2034 4441 
Q 1556 4441 1318 3916 
Q 1081 3391 1081 2328 
Q 1081 1269 1318 744 
Q 1556 219 2034 219 
z
M 2034 -91 
Q 1275 -91 848 546 
Q 422 1184 422 2328 
Q 422 3475 848 4112 
Q 1275 4750 2034 4750 
Q 2797 4750 3222 4112 
Q 3647 3475 3647 2328 
Q 3647 1184 3222 546 
Q 2797 -91 2034 -91 
z
" transform="scale(0.015625)"/>
      </defs>
      <use xlink:href="#DejaVuSerif-32"/>
      <use xlink:href="#DejaVuSerif-38" transform="translate(63.623047 0)"/>
      <use xlink:href="#DejaVuSerif-30" transform="translate(127.246094 0)"/>
     </g>
    </g>
   </g>
   <g id="xtick_5">
    <g id="line2d_6">
     <path d="M 154.904013 243.698972 
L 152.767823 245.533396 
" style="fill: none; stroke: #000000; stroke-width: 0.8; stroke-linecap: square"/>
    </g>
    <g id="text_5">
     <!-- 281 -->
     <g transform="translate(137.208382 268.097466) scale(0.1 -0.1)">
      <defs>
       <path id="DejaVuSerif-31" d="M 909 0 
L 909 331 
L 1722 331 
L 1722 4213 
L 781 3603 
L 781 4013 
L 1919 4750 
L 2350 4750 
L 2350 331 
L 3163 331 
L 3163 0 
L 909 0 
z
" transform="scale(0.015625)"/>
      </defs>
      <use xlink:href="#DejaVuSerif-32"/>
      <use xlink:href="#DejaVuSerif-38" transform="translate(63.623047 0)"/>
      <use xlink:href="#DejaVuSerif-31" transform="translate(127.246094 0)"/>
     </g>
    </g>
   </g>
   <g id="text_6">
    <!-- Longitude -->
    <g transform="translate(46.23342 266.212809) rotate(-344.250474) scale(0.13 -0.13)">
     <defs>
      <path id="DejaVuSerif-4c" d="M 353 0 
L 353 331 
L 947 331 
L 947 4331 
L 353 4331 
L 353 4666 
L 2175 4666 
L 2175 4331 
L 1581 4331 
L 1581 384 
L 3713 384 
L 3713 1166 
L 4097 1166 
L 4097 0 
L 353 0 
z
" transform="scale(0.015625)"/>
      <path id="DejaVuSerif-6f" d="M 1925 219 
Q 2388 219 2623 584 
Q 2859 950 2859 1663 
Q 2859 2375 2623 2739 
Q 2388 3103 1925 3103 
Q 1463 3103 1227 2739 
Q 991 2375 991 1663 
Q 991 950 1228 584 
Q 1466 219 1925 219 
z
M 1925 -91 
Q 1200 -91 759 389 
Q 319 869 319 1663 
Q 319 2456 758 2934 
Q 1197 3413 1925 3413 
Q 2653 3413 3092 2934 
Q 3531 2456 3531 1663 
Q 3531 869 3092 389 
Q 2653 -91 1925 -91 
z
" transform="scale(0.015625)"/>
      <path id="DejaVuSerif-6e" d="M 263 0 
L 263 331 
L 781 331 
L 781 2988 
L 231 2988 
L 231 3322 
L 1356 3322 
L 1356 2731 
Q 1516 3069 1770 3241 
Q 2025 3413 2363 3413 
Q 2913 3413 3172 3097 
Q 3431 2781 3431 2113 
L 3431 331 
L 3944 331 
L 3944 0 
L 2356 0 
L 2356 331 
L 2853 331 
L 2853 1931 
Q 2853 2541 2703 2767 
Q 2553 2994 2175 2994 
Q 1775 2994 1565 2701 
Q 1356 2409 1356 1850 
L 1356 331 
L 1856 331 
L 1856 0 
L 263 0 
z
" transform="scale(0.015625)"/>
      <path id="DejaVuSerif-67" d="M 3359 2988 
L 3359 72 
Q 3359 -644 2965 -1033 
Q 2572 -1422 1844 -1422 
Q 1516 -1422 1216 -1362 
Q 916 -1303 641 -1184 
L 641 -488 
L 941 -488 
Q 997 -813 1206 -963 
Q 1416 -1113 1806 -1113 
Q 2313 -1113 2548 -827 
Q 2784 -541 2784 72 
L 2784 519 
Q 2616 206 2355 57 
Q 2094 -91 1709 -91 
Q 1097 -91 708 395 
Q 319 881 319 1663 
Q 319 2444 706 2928 
Q 1094 3413 1709 3413 
Q 2094 3413 2355 3264 
Q 2616 3116 2784 2803 
L 2784 3322 
L 3909 3322 
L 3909 2988 
L 3359 2988 
z
M 2784 1825 
Q 2784 2422 2554 2737 
Q 2325 3053 1888 3053 
Q 1444 3053 1217 2703 
Q 991 2353 991 1663 
Q 991 975 1217 622 
Q 1444 269 1888 269 
Q 2325 269 2554 583 
Q 2784 897 2784 1497 
L 2784 1825 
z
" transform="scale(0.015625)"/>
      <path id="DejaVuSerif-69" d="M 622 4353 
Q 622 4497 726 4603 
Q 831 4709 978 4709 
Q 1122 4709 1226 4603 
Q 1331 4497 1331 4353 
Q 1331 4206 1228 4103 
Q 1125 4000 978 4000 
Q 831 4000 726 4103 
Q 622 4206 622 4353 
z
M 1356 331 
L 1900 331 
L 1900 0 
L 231 0 
L 231 331 
L 781 331 
L 781 2988 
L 231 2988 
L 231 3322 
L 1356 3322 
L 1356 331 
z
" transform="scale(0.015625)"/>
      <path id="DejaVuSerif-74" d="M 691 2988 
L 184 2988 
L 184 3322 
L 691 3322 
L 691 4353 
L 1269 4353 
L 1269 3322 
L 2350 3322 
L 2350 2988 
L 1269 2988 
L 1269 878 
Q 1269 456 1350 337 
Q 1431 219 1650 219 
Q 1875 219 1978 351 
Q 2081 484 2088 781 
L 2522 781 
Q 2497 328 2275 118 
Q 2053 -91 1600 -91 
Q 1103 -91 897 129 
Q 691 350 691 878 
L 691 2988 
z
" transform="scale(0.015625)"/>
      <path id="DejaVuSerif-75" d="M 2266 3322 
L 3341 3322 
L 3341 331 
L 3884 331 
L 3884 0 
L 2766 0 
L 2766 588 
Q 2606 256 2353 82 
Q 2100 -91 1766 -91 
Q 1213 -91 952 223 
Q 691 538 691 1209 
L 691 2988 
L 172 2988 
L 172 3322 
L 1269 3322 
L 1269 1388 
Q 1269 781 1417 556 
Q 1566 331 1947 331 
Q 2347 331 2556 625 
Q 2766 919 2766 1478 
L 2766 2988 
L 2266 2988 
L 2266 3322 
z
" transform="scale(0.015625)"/>
      <path id="DejaVuSerif-64" d="M 3359 331 
L 3909 331 
L 3909 0 
L 2784 0 
L 2784 519 
Q 2616 206 2355 57 
Q 2094 -91 1709 -91 
Q 1097 -91 708 395 
Q 319 881 319 1663 
Q 319 2444 706 2928 
Q 1094 3413 1709 3413 
Q 2094 3413 2355 3264 
Q 2616 3116 2784 2803 
L 2784 4531 
L 2241 4531 
L 2241 4863 
L 3359 4863 
L 3359 331 
z
M 2784 1497 
L 2784 1825 
Q 2784 2422 2554 2737 
Q 2325 3053 1888 3053 
Q 1444 3053 1217 2703 
Q 991 2353 991 1663 
Q 991 975 1217 622 
Q 1444 269 1888 269 
Q 2325 269 2554 583 
Q 2784 897 2784 1497 
z
" transform="scale(0.015625)"/>
      <path id="DejaVuSerif-65" d="M 3469 1600 
L 991 1600 
L 991 1575 
Q 991 903 1244 561 
Q 1497 219 1991 219 
Q 2369 219 2611 417 
Q 2853 616 2950 1006 
L 3413 1006 
Q 3275 459 2904 184 
Q 2534 -91 1931 -91 
Q 1203 -91 761 389 
Q 319 869 319 1663 
Q 319 2450 753 2931 
Q 1188 3413 1894 3413 
Q 2647 3413 3050 2948 
Q 3453 2484 3469 1600 
z
M 2791 1931 
Q 2772 2513 2545 2808 
Q 2319 3103 1894 3103 
Q 1497 3103 1269 2806 
Q 1041 2509 991 1931 
L 2791 1931 
z
" transform="scale(0.015625)"/>
     </defs>
     <use xlink:href="#DejaVuSerif-4c"/>
     <use xlink:href="#DejaVuSerif-6f" transform="translate(66.40625 0)"/>
     <use xlink:href="#DejaVuSerif-6e" transform="translate(126.611328 0)"/>
     <use xlink:href="#DejaVuSerif-67" transform="translate(191.015625 0)"/>
     <use xlink:href="#DejaVuSerif-69" transform="translate(255.029297 0)"/>
     <use xlink:href="#DejaVuSerif-74" transform="translate(287.011719 0)"/>
     <use xlink:href="#DejaVuSerif-75" transform="translate(327.197266 0)"/>
     <use xlink:href="#DejaVuSerif-64" transform="translate(391.601562 0)"/>
     <use xlink:href="#DejaVuSerif-65" transform="translate(455.615234 0)"/>
    </g>
   </g>
  </g>
  <g id="axis3d_2">
   <g id="line2d_7">
    <path d="M 256.73488 180.130473 
L 177.193469 250.796066 
" style="fill: none; stroke: #000000; stroke-width: 0.8; stroke-linecap: square"/>
   </g>
   <g id="xtick_6">
    <g id="line2d_8">
     <path d="M 185.565828 241.886352 
L 189.354247 242.939478 
" style="fill: none; stroke: #000000; stroke-width: 0.8; stroke-linecap: square"/>
    </g>
    <g id="text_7">
     <!-- 46.5 -->
     <g transform="translate(188.649946 263.25141) scale(0.1 -0.1)">
      <defs>
       <path id="DejaVuSerif-34" d="M 2234 1581 
L 2234 4063 
L 641 1581 
L 2234 1581 
z
M 3609 0 
L 1484 0 
L 1484 331 
L 2234 331 
L 2234 1247 
L 197 1247 
L 197 1588 
L 2241 4750 
L 2859 4750 
L 2859 1581 
L 3750 1581 
L 3750 1247 
L 2859 1247 
L 2859 331 
L 3609 331 
L 3609 0 
z
" transform="scale(0.015625)"/>
       <path id="DejaVuSerif-36" d="M 2094 219 
Q 2534 219 2771 542 
Q 3009 866 3009 1472 
Q 3009 2078 2771 2401 
Q 2534 2725 2094 2725 
Q 1647 2725 1412 2412 
Q 1178 2100 1178 1509 
Q 1178 888 1415 553 
Q 1653 219 2094 219 
z
M 1075 2569 
Q 1288 2803 1556 2918 
Q 1825 3034 2163 3034 
Q 2859 3034 3264 2615 
Q 3669 2197 3669 1472 
Q 3669 763 3233 336 
Q 2797 -91 2069 -91 
Q 1278 -91 853 498 
Q 428 1088 428 2181 
Q 428 3406 931 4078 
Q 1434 4750 2350 4750 
Q 2597 4750 2869 4703 
Q 3141 4656 3425 4563 
L 3425 3794 
L 3072 3794 
Q 3034 4109 2831 4275 
Q 2628 4441 2284 4441 
Q 1678 4441 1381 3981 
Q 1084 3522 1075 2569 
z
" transform="scale(0.015625)"/>
       <path id="DejaVuSerif-2e" d="M 603 325 
Q 603 500 722 622 
Q 841 744 1019 744 
Q 1191 744 1312 622 
Q 1434 500 1434 325 
Q 1434 153 1312 31 
Q 1191 -91 1019 -91 
Q 841 -91 722 29 
Q 603 150 603 325 
z
" transform="scale(0.015625)"/>
       <path id="DejaVuSerif-35" d="M 3219 4666 
L 3219 4153 
L 1081 4153 
L 1081 2816 
Q 1244 2928 1461 2984 
Q 1678 3041 1947 3041 
Q 2703 3041 3140 2622 
Q 3578 2203 3578 1478 
Q 3578 738 3136 323 
Q 2694 -91 1894 -91 
Q 1572 -91 1234 -12 
Q 897 66 544 225 
L 544 1131 
L 897 1131 
Q 925 688 1179 453 
Q 1434 219 1894 219 
Q 2388 219 2653 544 
Q 2919 869 2919 1478 
Q 2919 2084 2655 2407 
Q 2391 2731 1894 2731 
Q 1613 2731 1398 2631 
Q 1184 2531 1019 2322 
L 750 2322 
L 750 4666 
L 3219 4666 
z
" transform="scale(0.015625)"/>
      </defs>
      <use xlink:href="#DejaVuSerif-34"/>
      <use xlink:href="#DejaVuSerif-36" transform="translate(63.623047 0)"/>
      <use xlink:href="#DejaVuSerif-2e" transform="translate(127.246094 0)"/>
      <use xlink:href="#DejaVuSerif-35" transform="translate(159.033203 0)"/>
     </g>
    </g>
   </g>
   <g id="xtick_7">
    <g id="line2d_9">
     <path d="M 197.598865 231.216271 
L 201.351255 232.240636 
" style="fill: none; stroke: #000000; stroke-width: 0.8; stroke-linecap: square"/>
    </g>
    <g id="text_8">
     <!-- 47.0 -->
     <g transform="translate(200.509362 252.372249) scale(0.1 -0.1)">
      <use xlink:href="#DejaVuSerif-34"/>
      <use xlink:href="#DejaVuSerif-37" transform="translate(63.623047 0)"/>
      <use xlink:href="#DejaVuSerif-2e" transform="translate(127.246094 0)"/>
      <use xlink:href="#DejaVuSerif-30" transform="translate(159.033203 0)"/>
     </g>
    </g>
   </g>
   <g id="xtick_8">
    <g id="line2d_10">
     <path d="M 209.305715 220.835429 
L 213.022624 221.832197 
" style="fill: none; stroke: #000000; stroke-width: 0.8; stroke-linecap: square"/>
    </g>
    <g id="text_9">
     <!-- 47.5 -->
     <g transform="translate(212.046717 241.788529) scale(0.1 -0.1)">
      <use xlink:href="#DejaVuSerif-34"/>
      <use xlink:href="#DejaVuSerif-37" transform="translate(63.623047 0)"/>
      <use xlink:href="#DejaVuSerif-2e" transform="translate(127.246094 0)"/>
      <use xlink:href="#DejaVuSerif-35" transform="translate(159.033203 0)"/>
     </g>
    </g>
   </g>
   <g id="xtick_9">
    <g id="line2d_11">
     <path d="M 220.699464 210.732224 
L 224.381435 211.702494 
" style="fill: none; stroke: #000000; stroke-width: 0.8; stroke-linecap: square"/>
    </g>
    <g id="text_10">
     <!-- 48.0 -->
     <g transform="translate(223.274953 231.488378) scale(0.1 -0.1)">
      <use xlink:href="#DejaVuSerif-34"/>
      <use xlink:href="#DejaVuSerif-38" transform="translate(63.623047 0)"/>
      <use xlink:href="#DejaVuSerif-2e" transform="translate(127.246094 0)"/>
      <use xlink:href="#DejaVuSerif-30" transform="translate(159.033203 0)"/>
     </g>
    </g>
   </g>
   <g id="xtick_10">
    <g id="line2d_12">
     <path d="M 231.792508 200.895664 
L 235.440077 201.84048 
" style="fill: none; stroke: #000000; stroke-width: 0.8; stroke-linecap: square"/>
    </g>
    <g id="text_11">
     <!-- 48.5 -->
     <g transform="translate(234.206329 221.460549) scale(0.1 -0.1)">
      <use xlink:href="#DejaVuSerif-34"/>
      <use xlink:href="#DejaVuSerif-38" transform="translate(63.623047 0)"/>
      <use xlink:href="#DejaVuSerif-2e" transform="translate(127.246094 0)"/>
      <use xlink:href="#DejaVuSerif-35" transform="translate(159.033203 0)"/>
     </g>
    </g>
   </g>
   <g id="xtick_11">
    <g id="line2d_13">
     <path d="M 242.596595 191.315332 
L 246.210294 192.235681 
" style="fill: none; stroke: #000000; stroke-width: 0.8; stroke-linecap: square"/>
    </g>
    <g id="text_12">
     <!-- 49.0 -->
     <g transform="translate(244.852465 211.694383) scale(0.1 -0.1)">
      <use xlink:href="#DejaVuSerif-34"/>
      <use xlink:href="#DejaVuSerif-39" transform="translate(63.623047 0)"/>
      <use xlink:href="#DejaVuSerif-2e" transform="translate(127.246094 0)"/>
      <use xlink:href="#DejaVuSerif-30" transform="translate(159.033203 0)"/>
     </g>
    </g>
   </g>
   <g id="xtick_12">
    <g id="line2d_14">
     <path d="M 253.122872 181.981343 
L 256.703224 182.878165 
" style="fill: none; stroke: #000000; stroke-width: 0.8; stroke-linecap: square"/>
    </g>
    <g id="text_13">
     <!-- 49.5 -->
     <g transform="translate(255.224381 202.179771) scale(0.1 -0.1)">
      <use xlink:href="#DejaVuSerif-34"/>
      <use xlink:href="#DejaVuSerif-39" transform="translate(63.623047 0)"/>
      <use xlink:href="#DejaVuSerif-2e" transform="translate(127.246094 0)"/>
      <use xlink:href="#DejaVuSerif-35" transform="translate(159.033203 0)"/>
     </g>
    </g>
   </g>
   <g id="text_14">
    <!-- Latitude -->
    <g transform="translate(234.356996 269.686639) rotate(-41.618292) scale(0.13 -0.13)">
     <defs>
      <path id="DejaVuSerif-61" d="M 2547 1044 
L 2547 1747 
L 1806 1747 
Q 1378 1747 1168 1562 
Q 959 1378 959 997 
Q 959 650 1171 447 
Q 1384 244 1747 244 
Q 2106 244 2326 466 
Q 2547 688 2547 1044 
z
M 3122 2075 
L 3122 331 
L 3634 331 
L 3634 0 
L 2547 0 
L 2547 359 
Q 2356 128 2106 18 
Q 1856 -91 1522 -91 
Q 969 -91 644 203 
Q 319 497 319 997 
Q 319 1513 691 1797 
Q 1063 2081 1741 2081 
L 2547 2081 
L 2547 2309 
Q 2547 2688 2317 2895 
Q 2088 3103 1672 3103 
Q 1328 3103 1125 2947 
Q 922 2791 872 2484 
L 575 2484 
L 575 3156 
Q 875 3284 1158 3348 
Q 1441 3413 1709 3413 
Q 2400 3413 2761 3070 
Q 3122 2728 3122 2075 
z
" transform="scale(0.015625)"/>
     </defs>
     <use xlink:href="#DejaVuSerif-4c"/>
     <use xlink:href="#DejaVuSerif-61" transform="translate(66.40625 0)"/>
     <use xlink:href="#DejaVuSerif-74" transform="translate(126.025391 0)"/>
     <use xlink:href="#DejaVuSerif-69" transform="translate(166.210938 0)"/>
     <use xlink:href="#DejaVuSerif-74" transform="translate(198.193359 0)"/>
     <use xlink:href="#DejaVuSerif-75" transform="translate(238.378906 0)"/>
     <use xlink:href="#DejaVuSerif-64" transform="translate(302.783203 0)"/>
     <use xlink:href="#DejaVuSerif-65" transform="translate(366.796875 0)"/>
    </g>
   </g>
  </g>
  <g id="axis3d_3">
   <g id="line2d_15">
    <path d="M 256.73488 180.130473 
L 260.985057 65.341113 
" style="fill: none; stroke: #000000; stroke-width: 0.8; stroke-linecap: square"/>
   </g>
   <g id="xtick_13">
    <g id="line2d_16">
     <path d="M 255.621477 177.745652 
L 259.196656 178.635108 
" style="fill: none; stroke: #000000; stroke-width: 0.8; stroke-linecap: square"/>
    </g>
    <g id="text_15">
     <!-- 0 -->
     <g transform="translate(271.917921 183.399694) scale(0.1 -0.1)">
      <use xlink:href="#DejaVuSerif-30"/>
     </g>
    </g>
   </g>
   <g id="xtick_14">
    <g id="line2d_17">
     <path d="M 256.392121 156.707913 
L 259.992983 157.577071 
" style="fill: none; stroke: #000000; stroke-width: 0.8; stroke-linecap: square"/>
    </g>
    <g id="text_16">
     <!-- 5 -->
     <g transform="translate(272.820553 162.406379) scale(0.1 -0.1)">
      <use xlink:href="#DejaVuSerif-35"/>
     </g>
    </g>
   </g>
   <g id="xtick_15">
    <g id="line2d_18">
     <path d="M 257.17348 135.377661 
L 260.800396 136.225868 
" style="fill: none; stroke: #000000; stroke-width: 0.8; stroke-linecap: square"/>
    </g>
    <g id="text_17">
     <!-- 10 -->
     <g transform="translate(270.554451 141.121978) scale(0.1 -0.1)">
      <use xlink:href="#DejaVuSerif-31"/>
      <use xlink:href="#DejaVuSerif-30" transform="translate(63.623047 0)"/>
     </g>
    </g>
   </g>
   <g id="xtick_16">
    <g id="line2d_19">
     <path d="M 257.965779 113.748754 
L 261.619129 114.575335 
" style="fill: none; stroke: #000000; stroke-width: 0.8; stroke-linecap: square"/>
    </g>
    <g id="text_18">
     <!-- 15 -->
     <g transform="translate(271.482377 119.540394) scale(0.1 -0.1)">
      <use xlink:href="#DejaVuSerif-31"/>
      <use xlink:href="#DejaVuSerif-35" transform="translate(63.623047 0)"/>
     </g>
    </g>
   </g>
   <g id="xtick_17">
    <g id="line2d_20">
     <path d="M 258.76925 91.814875 
L 262.449421 92.619134 
" style="fill: none; stroke: #000000; stroke-width: 0.8; stroke-linecap: square"/>
    </g>
    <g id="text_19">
     <!-- 20 -->
     <g transform="translate(272.42335 97.655359) scale(0.1 -0.1)">
      <use xlink:href="#DejaVuSerif-32"/>
      <use xlink:href="#DejaVuSerif-30" transform="translate(63.623047 0)"/>
     </g>
    </g>
   </g>
   <g id="xtick_18">
    <g id="line2d_21">
     <path d="M 259.584131 69.569527 
L 263.291519 70.350743 
" style="fill: none; stroke: #000000; stroke-width: 0.8; stroke-linecap: square"/>
    </g>
    <g id="text_20">
     <!-- 25 -->
     <g transform="translate(273.377647 75.460427) scale(0.1 -0.1)">
      <use xlink:href="#DejaVuSerif-32"/>
      <use xlink:href="#DejaVuSerif-35" transform="translate(63.623047 0)"/>
     </g>
    </g>
   </g>
   <g id="text_21">
    <!-- Altitude (km) -->
    <g transform="translate(310.677584 161.763358) rotate(-87.879542) scale(0.13 -0.13)">
     <defs>
      <path id="DejaVuSerif-41" d="M 1281 1691 
L 2994 1691 
L 2138 3909 
L 1281 1691 
z
M -38 0 
L -38 331 
L 372 331 
L 2034 4666 
L 2559 4666 
L 4225 331 
L 4684 331 
L 4684 0 
L 2988 0 
L 2988 331 
L 3506 331 
L 3116 1356 
L 1153 1356 
L 763 331 
L 1275 331 
L 1275 0 
L -38 0 
z
" transform="scale(0.015625)"/>
      <path id="DejaVuSerif-6c" d="M 1313 331 
L 1856 331 
L 1856 0 
L 184 0 
L 184 331 
L 738 331 
L 738 4531 
L 184 4531 
L 184 4863 
L 1313 4863 
L 1313 331 
z
" transform="scale(0.015625)"/>
      <path id="DejaVuSerif-20" transform="scale(0.015625)"/>
      <path id="DejaVuSerif-28" d="M 2041 -997 
Q 1281 -656 893 83 
Q 506 822 506 1931 
Q 506 3044 893 3783 
Q 1281 4522 2041 4863 
L 2041 4556 
Q 1559 4225 1350 3623 
Q 1141 3022 1141 1931 
Q 1141 844 1350 242 
Q 1559 -359 2041 -691 
L 2041 -997 
z
" transform="scale(0.015625)"/>
      <path id="DejaVuSerif-6b" d="M 1831 0 
L 219 0 
L 219 331 
L 738 331 
L 738 4531 
L 184 4531 
L 184 4863 
L 1313 4863 
L 1313 1697 
L 2713 2988 
L 2234 2988 
L 2234 3322 
L 3738 3322 
L 3738 2988 
L 3169 2988 
L 2181 2075 
L 3444 331 
L 3922 331 
L 3922 0 
L 2284 0 
L 2284 331 
L 2759 331 
L 1766 1697 
L 1313 1275 
L 1313 331 
L 1831 331 
L 1831 0 
z
" transform="scale(0.015625)"/>
      <path id="DejaVuSerif-6d" d="M 3316 2675 
Q 3481 3041 3739 3227 
Q 3997 3413 4341 3413 
Q 4863 3413 5119 3089 
Q 5375 2766 5375 2113 
L 5375 331 
L 5894 331 
L 5894 0 
L 4300 0 
L 4300 331 
L 4800 331 
L 4800 2047 
Q 4800 2556 4650 2772 
Q 4500 2988 4153 2988 
Q 3769 2988 3567 2697 
Q 3366 2406 3366 1850 
L 3366 331 
L 3866 331 
L 3866 0 
L 2291 0 
L 2291 331 
L 2791 331 
L 2791 2069 
Q 2791 2566 2641 2777 
Q 2491 2988 2144 2988 
Q 1759 2988 1557 2697 
Q 1356 2406 1356 1850 
L 1356 331 
L 1856 331 
L 1856 0 
L 263 0 
L 263 331 
L 781 331 
L 781 2994 
L 231 2994 
L 231 3322 
L 1356 3322 
L 1356 2731 
Q 1516 3063 1762 3238 
Q 2009 3413 2322 3413 
Q 2709 3413 2968 3220 
Q 3228 3028 3316 2675 
z
" transform="scale(0.015625)"/>
      <path id="DejaVuSerif-29" d="M 453 -997 
L 453 -691 
Q 934 -359 1145 242 
Q 1356 844 1356 1931 
Q 1356 3022 1145 3623 
Q 934 4225 453 4556 
L 453 4863 
Q 1216 4522 1603 3783 
Q 1991 3044 1991 1931 
Q 1991 822 1603 83 
Q 1216 -656 453 -997 
z
" transform="scale(0.015625)"/>
     </defs>
     <use xlink:href="#DejaVuSerif-41"/>
     <use xlink:href="#DejaVuSerif-6c" transform="translate(72.216797 0)"/>
     <use xlink:href="#DejaVuSerif-74" transform="translate(104.199219 0)"/>
     <use xlink:href="#DejaVuSerif-69" transform="translate(144.384766 0)"/>
     <use xlink:href="#DejaVuSerif-74" transform="translate(176.367188 0)"/>
     <use xlink:href="#DejaVuSerif-75" transform="translate(216.552734 0)"/>
     <use xlink:href="#DejaVuSerif-64" transform="translate(280.957031 0)"/>
     <use xlink:href="#DejaVuSerif-65" transform="translate(344.970703 0)"/>
     <use xlink:href="#DejaVuSerif-20" transform="translate(404.150391 0)"/>
     <use xlink:href="#DejaVuSerif-28" transform="translate(435.9375 0)"/>
     <use xlink:href="#DejaVuSerif-6b" transform="translate(474.951172 0)"/>
     <use xlink:href="#DejaVuSerif-6d" transform="translate(535.546875 0)"/>
     <use xlink:href="#DejaVuSerif-29" transform="translate(630.371094 0)"/>
    </g>
   </g>
  </g>
  <g id="axes_1">
   <g id="line2d_22">
    <path d="M 85.063532 69.13275 
L 85.553182 73.508164 
L 85.652757 74.511567 
L 85.586948 74.365423 
L 85.515278 74.222385 
L 85.459611 75.738841 
L 85.236904 75.59511 
L 85.002701 75.487324 
L 84.768154 76.82722 
L 83.955371 81.287874 
L 83.265901 85.882969 
L 83.114401 90.212999 
L 83.311462 93.202436 
L 83.695854 93.564763 
L 84.113427 93.869074 
L 84.506631 92.895334 
L 84.690694 89.919981 
L 84.933345 86.986862 
L 85.102022 85.605847 
L 85.239927 85.53058 
L 85.371624 85.423961 
L 85.644498 83.884913 
L 85.963335 83.864871 
L 86.281614 83.852066 
L 86.598124 83.827078 
L 87.026354 80.802462 
L 87.269438 77.126785 
L 87.393422 76.609645 
L 87.512976 77.717383 
L 87.619019 78.053465 
L 87.719632 78.048461 
L 87.82067 78.018411 
L 87.922228 77.982987 
L 87.924803 78.072689 
L 87.907861 78.197165 
L 87.841897 77.328433 
L 87.754127 77.377143 
L 87.630404 77.446014 
L 87.488173 77.521218 
L 87.340182 77.58635 
L 87.189027 77.646734 
L 87.05808 77.611541 
L 86.934452 77.57817 
L 86.81231 77.532551 
L 86.691263 77.480756 
L 86.56026 79.024612 
L 86.29946 78.496359 
L 86.123658 78.559348 
L 85.988602 76.803732 
L 86.284415 76.497398 
L 86.59216 77.532365 
L 86.767999 77.467142 
L 86.771129 79.515687 
L 86.316784 84.071831 
L 85.581361 87.06336 
L 84.721886 87.245197 
L 83.837181 87.412751 
L 83.323852 87.3308 
L 82.846488 87.169634 
L 82.43099 89.300342 
L 82.109646 89.572729 
L 82.37877 90.738933 
L 82.672475 90.734265 
L 82.967936 90.692178 
L 83.291552 91.989923 
L 83.612781 92.458049 
L 83.942157 93.323941 
L 84.228933 93.585888 
L 84.508123 93.796924 
L 84.84794 93.879915 
L 85.221612 92.983973 
L 85.681508 92.534136 
L 86.197566 92.909862 
L 86.707319 97.531431 
L 86.761371 98.371968 
L 86.845386 98.65202 
L 86.878455 97.181989 
L 87.545783 95.538333 
L 88.398145 95.422986 
L 89.269734 95.275737 
L 90.152427 95.14769 
L 91.373922 94.941905 
L 92.668076 94.800714 
L 93.984419 94.656201 
L 95.324379 94.016554 
L 96.915564 90.90929 
L 98.452653 88.097138 
L 99.890697 86.488097 
L 101.226468 83.379033 
L 102.230447 81.000158 
L 103.166172 78.874835 
L 103.934143 75.673662 
L 104.579912 74.806369 
L 105.010361 74.765861 
L 105.407642 74.714509 
L 105.794362 74.651682 
" clip-path="url(#p07948769fe)" style="fill: none; stroke: #ff0000; stroke-width: 1.1; stroke-linecap: square"/>
   </g>
   <g id="line2d_23">
    <path d="M 100.212072 76.395967 
L 100.676954 80.809212 
L 100.766453 81.819211 
L 100.695764 81.669336 
L 100.619246 81.522655 
L 100.551173 83.051604 
L 100.323328 82.904955 
L 100.083799 82.794656 
L 99.837165 84.146093 
L 98.988738 88.647446 
L 98.269212 93.286677 
L 98.101095 97.661006 
L 98.295888 100.683768 
L 98.692676 101.054316 
L 99.122895 101.366085 
L 99.53441 100.387522 
L 99.7416 97.387032 
L 100.003173 94.426758 
L 100.179503 93.03199 
L 100.317543 92.955075 
L 100.44933 92.846448 
L 100.732621 91.292488 
L 101.054897 91.272021 
L 101.376458 91.258803 
L 101.696233 91.233258 
L 102.145183 88.180034 
L 102.40718 84.468057 
L 102.533675 83.945206 
L 102.647911 85.06296 
L 102.752452 85.401727 
L 102.853377 85.396229 
L 102.954917 85.365473 
L 103.057039 85.329307 
L 103.062271 85.42136 
L 103.048314 85.548877 
L 102.989042 84.673352 
L 102.902281 84.723648 
L 102.778759 84.794163 
L 102.636368 84.871021 
L 102.48817 84.937697 
L 102.33678 84.999572 
L 102.203717 84.963693 
L 102.077424 84.929348 
L 101.952592 84.882588 
L 101.828848 84.829567 
L 101.690536 86.389165 
L 101.433069 85.857715 
L 101.257411 85.922557 
L 101.130537 84.150619 
L 101.426676 83.839039 
L 101.728746 84.881888 
L 101.904518 84.814825 
L 101.898585 86.883526 
L 101.416017 91.483148 
L 100.660154 94.504767 
L 99.794042 94.690584 
L 98.902487 94.861994 
L 98.379796 94.777471 
L 97.892995 94.612534 
L 97.45842 96.761742 
L 97.132517 97.03703 
L 97.395247 98.212395 
L 97.690548 98.20672 
L 97.988165 98.163446 
L 98.308104 99.472936 
L 98.633053 99.946594 
L 98.965266 100.822278 
L 99.259346 101.089289 
L 99.546317 101.305067 
L 99.892717 101.390308 
L 100.276431 100.486441 
L 100.743017 100.03182 
L 101.261389 100.410119 
L 101.75348 105.07501 
L 101.810892 105.926939 
L 101.902176 106.21348 
L 101.950071 104.733129 
L 102.630971 103.072625 
L 103.490358 102.95432 
L 104.369263 102.803764 
L 105.25929 102.672586 
L 106.492093 102.462708 
L 107.798032 102.318006 
L 109.126434 102.16995 
L 110.48122 101.522086 
L 112.107605 98.385702 
L 113.68014 95.548297 
L 115.148041 93.926174 
L 116.519827 90.789581 
L 117.553189 88.390549 
L 118.515802 86.247235 
L 119.313781 83.017519 
L 119.97606 82.143956 
L 120.410921 82.102594 
L 120.81141 82.049874 
L 121.201038 81.98546 
" clip-path="url(#p07948769fe)" style="fill: none; stroke: #ff0000; stroke-width: 1.1; stroke-linecap: square"/>
   </g>
   <g id="line2d_24">
    <path d="M 101.028871 79.937124 
L 101.494779 84.368685 
L 101.584182 85.381853 
L 101.512863 85.230143 
L 101.435686 85.081669 
L 101.366581 86.616659 
L 101.137288 86.468577 
L 100.896239 86.357043 
L 100.647681 87.714067 
L 99.792968 92.235153 
L 99.068132 96.895807 
L 98.898256 101.291668 
L 99.093921 104.330656 
L 99.493406 104.705244 
L 99.926508 105.020681 
L 100.341123 104.039825 
L 100.550637 101.027171 
L 100.814584 98.053726 
L 100.992236 96.652278 
L 101.130989 96.574553 
L 101.263456 96.464941 
L 101.548769 94.903742 
L 101.872884 94.883066 
L 102.196271 94.869644 
L 102.517862 94.843825 
L 102.970258 91.776719 
L 103.234647 88.047112 
L 103.361929 87.521482 
L 103.476454 88.644091 
L 103.581446 88.984156 
L 103.682905 88.978412 
L 103.784992 88.94731 
L 103.887668 88.910779 
L 103.893076 89.003989 
L 103.879214 89.133002 
L 103.820012 88.254197 
L 103.732863 88.305274 
L 103.60872 88.376598 
L 103.465591 88.454268 
L 103.316622 88.521703 
L 103.164443 88.584313 
L 103.030581 88.548096 
L 102.903492 88.513271 
L 102.777871 88.46595 
L 102.653344 88.412327 
L 102.513917 89.979574 
L 102.255315 89.446594 
L 102.078764 89.512348 
L 101.951691 87.732494 
L 102.249367 87.418343 
L 102.552673 88.464996 
L 102.729342 88.397026 
L 102.722876 90.475516 
L 102.236275 95.096238 
L 101.475418 98.132478 
L 100.604509 98.32025 
L 99.708014 98.493556 
L 99.182135 98.407766 
L 98.692328 98.240974 
L 98.254496 100.399141 
L 97.926677 100.67584 
L 98.190409 101.85563 
L 98.487308 101.849455 
L 98.786564 101.805597 
L 99.107941 103.120781 
L 99.434752 103.597135 
L 99.768818 104.477588 
L 100.064798 104.747085 
L 100.353661 104.965193 
L 100.70219 105.051542 
L 101.088415 104.143834 
L 101.557753 103.686887 
L 102.0789 104.066423 
L 102.572523 108.752332 
L 102.630414 109.609826 
L 102.722566 109.899558 
L 102.771528 108.414237 
L 103.456655 106.745544 
L 104.320817 106.625784 
L 105.20461 106.473602 
L 106.099581 106.340884 
L 107.339294 106.128996 
L 108.652539 105.982567 
L 109.988374 105.832769 
L 111.350884 105.180894 
L 112.987566 102.030382 
L 114.570158 99.18074 
L 116.04727 97.552291 
L 117.428165 94.402361 
L 118.468538 91.993575 
L 119.437663 89.841554 
L 120.241521 86.598008 
L 120.908172 85.721424 
L 121.345508 85.679643 
L 121.748224 85.626249 
L 122.140004 85.561053 
" clip-path="url(#p07948769fe)" style="fill: none; stroke: #ff0000; stroke-width: 1.1; stroke-linecap: square"/>
   </g>
   <g id="line2d_25">
    <path d="M 102.197031 87.208995 
L 102.666035 91.67791 
L 102.755605 92.697488 
L 102.683122 92.541974 
L 102.604721 92.389785 
L 102.533878 93.937081 
L 102.301688 93.786035 
L 102.057603 93.671942 
L 101.805392 95.04036 
L 100.938607 99.601741 
L 100.203575 104.306195 
L 100.030567 108.746137 
L 100.228169 111.818399 
L 100.632939 112.201351 
L 101.071715 112.524387 
L 101.492255 111.538941 
L 101.705863 108.501493 
L 101.974168 105.501145 
L 102.154353 104.086028 
L 102.29462 104.006627 
L 102.42853 103.89498 
L 102.717765 102.318978 
L 103.045668 102.297869 
L 103.372822 102.284024 
L 103.698159 102.257639 
L 104.157128 99.162163 
L 104.425916 95.396492 
L 104.554781 94.865163 
L 104.670117 95.997684 
L 104.776125 96.340388 
L 104.878708 96.334133 
L 104.981942 96.302313 
L 105.085776 96.265028 
L 105.091459 96.360637 
L 105.077691 96.492749 
L 105.018393 95.607272 
L 104.930381 95.659971 
L 104.804908 95.732971 
L 104.660213 95.812323 
L 104.509611 95.88133 
L 104.355761 95.94546 
L 104.220275 95.908548 
L 104.09159 95.872727 
L 103.964389 95.824242 
L 103.838292 95.76937 
L 103.696763 97.352278 
L 103.435621 96.816209 
L 103.257164 96.883858 
L 103.129366 95.08783 
L 103.430304 94.768372 
L 103.736447 95.822755 
L 103.915029 95.752906 
L 103.907761 97.851418 
L 103.413612 102.515271 
L 102.642875 105.581431 
L 101.762 105.773251 
L 100.85524 105.950481 
L 100.32292 105.862061 
L 99.827059 105.69143 
L 99.382996 107.867869 
L 99.051267 108.147459 
L 99.317366 109.33625 
L 99.617608 109.329033 
L 99.920275 109.283964 
L 100.244847 110.610772 
L 100.575487 111.092661 
L 100.91339 111.982896 
L 101.213148 112.25753 
L 101.50575 112.480461 
L 101.858572 112.569108 
L 102.249773 111.653565 
L 102.724722 111.191851 
L 103.251691 111.573894 
L 103.749225 116.302748 
L 103.808012 117.171693 
L 103.901744 117.46803 
L 103.952432 115.972633 
L 104.646061 114.287176 
L 105.520127 114.164398 
L 106.414056 114.008853 
L 107.319281 113.872945 
L 108.573288 113.656902 
L 109.901652 113.506893 
L 111.252864 113.353486 
L 112.631272 112.693366 
L 114.288582 109.513987 
L 115.891283 106.639362 
L 117.386906 104.998035 
L 118.785872 101.820891 
L 119.840093 99.392222 
L 120.822098 97.222455 
L 121.637375 93.950685 
L 122.312728 93.067972 
L 122.75517 93.025322 
L 123.162507 92.970533 
L 123.558763 92.903717 
" clip-path="url(#p07948769fe)" style="fill: none; stroke: #ff0000; stroke-width: 1.1; stroke-linecap: square"/>
   </g>
   <g id="line2d_26">
    <path d="M 88.098161 80.279304 
L 88.590653 84.712631 
L 88.689783 85.726103 
L 88.621936 85.574215 
L 88.548141 85.425568 
L 88.489079 86.96114 
L 88.261779 86.812919 
L 88.022763 86.701265 
L 87.782038 88.058828 
L 86.949133 92.581817 
L 86.242665 97.244538 
L 86.085437 101.642478 
L 86.28518 104.683032 
L 86.678165 105.058012 
L 87.104915 105.373805 
L 87.508054 104.392729 
L 87.699699 101.378902 
L 87.950029 98.404187 
L 88.12294 97.002094 
L 88.263073 96.924291 
L 88.396889 96.814584 
L 88.676222 95.252686 
L 89.000841 95.23199 
L 89.324861 95.218548 
L 89.647082 95.192702 
L 90.086356 92.124258 
L 90.337174 88.39295 
L 90.463651 87.867051 
L 90.584027 88.990128 
L 90.691455 89.330318 
L 90.793738 89.32455 
L 90.896489 89.293414 
L 90.999783 89.256848 
L 91.002942 89.350171 
L 90.986341 89.479328 
L 90.920693 88.600208 
L 90.831728 88.65136 
L 90.706071 88.722763 
L 90.561536 88.800512 
L 90.411139 88.86802 
L 90.25752 88.930701 
L 90.124049 88.894452 
L 89.997903 88.85958 
L 89.873261 88.812205 
L 89.749731 88.758523 
L 89.615149 90.326509 
L 89.350858 89.793381 
L 89.172274 89.859225 
L 89.036716 88.078606 
L 89.337328 87.764206 
L 89.648841 88.811225 
L 89.827477 88.743168 
L 89.828814 90.822602 
L 89.361483 95.44536 
L 88.610191 98.483011 
L 87.735664 98.670973 
L 86.835456 98.844462 
L 86.312051 98.758549 
L 85.825176 98.591578 
L 85.399242 100.750608 
L 85.071859 101.027444 
L 85.344011 102.207659 
L 85.642721 102.201436 
L 85.943325 102.157522 
L 86.271368 103.473254 
L 86.598461 103.949869 
L 86.933653 104.830782 
L 87.226462 105.10052 
L 87.511662 105.318854 
L 87.858217 105.405311 
L 88.239866 104.497233 
L 88.708439 104.040061 
L 89.233183 104.419716 
L 89.747454 109.107652 
L 89.803048 109.965684 
L 89.889877 110.255725 
L 89.926488 108.769926 
L 90.607198 107.100443 
L 91.474548 106.980541 
L 92.361485 106.828203 
L 93.2597 106.695335 
L 94.502906 106.483253 
L 95.820012 106.336656 
L 97.159706 106.186689 
L 98.523968 105.534426 
L 100.147772 102.382552 
L 101.716735 99.531729 
L 103.183931 97.902671 
L 104.548624 94.751456 
L 105.574886 92.341729 
L 106.531303 90.188869 
L 107.318036 86.94399 
L 107.977671 86.067115 
L 108.4159 86.025293 
L 108.82017 85.971834 
L 109.213644 85.906563 
" clip-path="url(#p07948769fe)" style="fill: none; stroke: #ff0000; stroke-width: 1.1; stroke-linecap: square"/>
   </g>
   <g id="line2d_27">
    <path d="M 153.267944 64.465461 
L 153.618524 68.81638 
L 153.667595 69.815476 
L 153.584245 69.671705 
L 153.495525 69.530984 
L 153.388477 71.039341 
L 153.156582 70.89747 
L 152.913048 70.791284 
L 152.639334 72.123707 
L 151.718253 76.558046 
L 150.937578 81.124643 
L 150.721722 85.42611 
L 150.896855 88.3941 
L 151.312859 88.751192 
L 151.761125 89.050758 
L 152.211493 88.080202 
L 152.486598 85.121133 
L 152.798133 82.205565 
L 152.990389 80.833423 
L 153.120536 80.759206 
L 153.244662 80.653868 
L 153.546988 79.124447 
L 153.861704 79.104676 
L 154.175198 79.092133 
L 154.486956 79.0675 
L 154.980612 76.061365 
L 155.29232 72.409112 
L 155.41985 71.895648 
L 155.508741 72.996908 
L 155.601747 73.331249 
L 155.697644 73.326557 
L 155.794776 73.296955 
L 155.892671 73.262004 
L 155.906796 73.350212 
L 155.904023 73.472753 
L 155.87152 72.608431 
L 155.793511 72.656136 
L 155.67817 72.72396 
L 155.543851 72.798111 
L 155.403916 72.862261 
L 155.260891 72.921695 
L 155.128559 72.88694 
L 155.000678 72.854188 
L 154.87409 72.809295 
L 154.748495 72.75828 
L 154.593209 74.291986 
L 154.362918 73.765825 
L 154.198415 73.827637 
L 154.107647 72.08257 
L 154.386939 71.779588 
L 154.650996 72.809432 
L 154.815877 72.745379 
L 154.778867 74.780915 
L 154.227596 79.30898 
L 153.446499 82.281099 
L 152.609757 82.460401 
L 151.748395 82.625501 
L 151.224797 82.545183 
L 150.734637 82.386416 
L 150.259915 84.505148 
L 149.937867 84.775666 
L 150.162377 85.935923 
L 150.44536 85.931892 
L 150.732472 85.890558 
L 151.020243 87.180708 
L 151.338492 87.645279 
L 151.660496 88.50487 
L 151.962215 88.763586 
L 152.258912 88.971603 
L 152.607261 89.053164 
L 153.002688 88.16235 
L 153.464313 87.715594 
L 153.959404 88.089643 
L 154.360507 92.683222 
L 154.426118 93.516454 
L 154.537112 93.792375 
L 154.633548 92.329066 
L 155.320407 90.696273 
L 156.152289 90.582808 
L 157.003537 90.437664 
L 157.865325 90.311609 
L 159.063013 90.108434 
L 160.331123 89.969478 
L 161.621329 89.827218 
L 162.945882 89.192845 
L 164.595646 86.104396 
L 166.195423 83.308577 
L 167.677531 81.708022 
L 169.090132 78.61677 
L 170.161777 76.250953 
L 171.158283 74.137286 
L 172.010508 70.954579 
L 172.689198 70.091367 
L 173.112977 70.051404 
L 173.500363 70.000921 
L 173.87652 69.939105 
" clip-path="url(#p07948769fe)" style="fill: none; stroke: #ff0000; stroke-width: 1.1; stroke-linecap: square"/>
   </g>
   <g id="line2d_28">
    <path d="M 151.566437 57.712863 
L 151.916411 62.028085 
L 151.966161 63.020856 
L 151.884194 62.880483 
L 151.796905 62.743081 
L 151.692339 64.239621 
L 151.463316 64.100422 
L 151.222789 63.996529 
L 150.953154 65.318061 
L 150.045199 69.714107 
L 149.275609 74.239281 
L 149.063755 78.499291 
L 149.237428 81.436205 
L 149.647945 81.785791 
L 150.090375 82.078555 
L 150.534235 81.112725 
L 150.803992 78.177399 
L 151.110297 75.287363 
L 151.299785 73.928106 
L 151.428636 73.855396 
L 151.551532 73.751899 
L 151.849687 72.236468 
L 152.160913 72.217086 
L 152.470947 72.204918 
L 152.779265 72.180793 
L 153.265666 69.20153 
L 153.572111 65.583304 
L 153.698094 65.075167 
L 153.78673 66.166998 
L 153.878998 66.498796 
L 153.973915 66.494548 
L 154.070034 66.46559 
L 154.166902 66.431318 
L 154.180577 66.517384 
L 154.177484 66.637153 
L 154.144519 65.779275 
L 154.067159 65.825541 
L 153.952929 65.891866 
L 153.81995 65.964506 
L 153.681416 66.027248 
L 153.539826 66.085322 
L 153.409043 66.051196 
L 153.282731 66.019329 
L 153.157701 65.975476 
L 153.033655 65.925579 
L 152.880746 67.44455 
L 152.652336 66.921472 
L 152.489436 66.9816 
L 152.398617 65.251879 
L 152.675119 64.953718 
L 152.937233 65.976073 
L 153.100498 65.913693 
L 153.064904 67.930331 
L 152.522322 72.417576 
L 151.751261 75.361512 
L 150.923507 75.537177 
L 150.071404 75.698757 
L 149.554027 75.620773 
L 149.069766 75.465448 
L 148.601877 77.56673 
L 148.283514 77.834538 
L 148.506536 78.986108 
L 148.786555 78.98298 
L 149.0706 78.942726 
L 149.35596 80.22182 
L 149.67066 80.681244 
L 149.989178 81.53171 
L 150.287102 81.785785 
L 150.579997 81.989472 
L 150.924172 82.068983 
L 151.314565 81.185638 
L 151.77089 80.743351 
L 152.260856 81.114941 
L 152.66007 85.667813 
L 152.724649 86.490498 
L 152.833715 86.760496 
L 152.927487 85.30704 
L 153.606038 83.690012 
L 154.42895 83.579242 
L 155.271009 83.437118 
L 156.123505 83.313919 
L 157.308153 83.114493 
L 158.562484 82.978738 
L 159.838669 82.839708 
L 161.148536 82.212956 
L 162.777963 79.15187 
L 164.357826 76.379829 
L 165.821825 74.791657 
L 167.216197 71.726346 
L 168.27373 69.379568 
L 169.257148 67.282897 
L 170.097272 64.127079 
L 170.767252 63.269843 
L 171.186345 63.230662 
L 171.569553 63.181424 
L 171.941681 63.121055 
" clip-path="url(#p07948769fe)" style="fill: none; stroke: #ff0000; stroke-width: 1.1; stroke-linecap: square"/>
   </g>
   <g id="line2d_29">
    <path d="M 139.130662 58.030738 
L 139.505227 62.347647 
L 139.563975 63.340719 
L 139.48522 63.200186 
L 139.40106 63.06263 
L 139.305784 64.559728 
L 139.078606 64.420404 
L 138.839959 64.316404 
L 138.57757 65.638451 
L 137.689794 70.036305 
L 136.9372 74.563434 
L 136.737052 78.825399 
L 136.9145 81.763778 
L 137.319002 82.113715 
L 137.755553 82.406797 
L 138.188793 81.440742 
L 138.442016 78.504293 
L 138.735721 75.613051 
L 138.920822 74.253187 
L 139.050951 74.180406 
L 139.175095 74.076823 
L 139.467718 72.560731 
L 139.779411 72.541331 
L 140.090032 72.529146 
L 140.398932 72.504997 
L 140.873195 69.524466 
L 141.167085 65.904634 
L 141.292324 65.396246 
L 141.386373 66.488523 
L 141.480894 66.82044 
L 141.576574 66.816172 
L 141.673308 66.787184 
L 141.770747 66.75288 
L 141.782343 66.839047 
L 141.776715 66.958945 
L 141.737787 66.100762 
L 141.658747 66.147096 
L 141.543115 66.21349 
L 141.408836 66.286201 
L 141.26898 66.349009 
L 141.126058 66.407147 
L 140.995637 66.372991 
L 140.870197 66.341083 
L 140.746072 66.297182 
L 140.622948 66.247232 
L 140.47452 67.766898 
L 140.240847 67.243674 
L 140.076067 67.303881 
L 139.977398 65.573435 
L 140.256616 65.275048 
L 140.526323 66.297757 
L 140.691408 66.235299 
L 140.663032 68.252829 
L 140.138278 72.742001 
L 139.376065 75.687265 
L 138.544961 75.863101 
L 137.68942 76.024846 
L 137.174332 75.946753 
L 136.692782 75.791267 
L 136.235901 77.893373 
L 135.917941 78.161309 
L 136.148756 79.31329 
L 136.430451 79.31012 
L 136.715744 79.269815 
L 137.007274 80.549432 
L 137.322234 81.009098 
L 137.641797 81.859994 
L 137.936787 82.114287 
L 138.226293 82.318176 
L 138.568642 82.397783 
L 138.9548 81.514085 
L 139.410419 81.071588 
L 139.903714 81.443294 
L 140.322038 85.998088 
L 140.384491 86.821269 
L 140.48863 87.091544 
L 140.570974 85.637621 
L 141.245437 84.01985 
L 142.071302 83.908954 
L 142.916273 83.766689 
L 143.771773 83.643355 
L 144.959656 83.443754 
L 146.217564 83.307849 
L 147.497323 83.168668 
L 148.808813 82.541557 
L 150.426327 79.47918 
L 151.993581 76.706015 
L 153.448407 75.117258 
L 154.827792 72.050721 
L 155.872273 69.703042 
L 156.843937 67.605568 
L 157.668222 64.44848 
L 158.331715 63.590961 
L 158.751636 63.551743 
L 159.136282 63.502446 
L 159.509977 63.442009 
" clip-path="url(#p07948769fe)" style="fill: none; stroke: #ff0000; stroke-width: 1.1; stroke-linecap: square"/>
   </g>
   <g id="line2d_30">
    <path d="M 169.111997 71.616163 
L 169.43495 76.004551 
L 169.472911 77.010224 
L 169.384325 76.86281 
L 169.29041 76.718532 
L 169.169909 78.239274 
L 168.932695 78.094549 
L 168.68365 77.985907 
L 168.397059 79.329761 
L 167.43815 83.804364 
L 166.625584 88.41458 
L 166.391807 92.759777 
L 166.564222 95.760615 
L 166.993253 96.125743 
L 167.454778 96.432594 
L 167.924607 95.457187 
L 168.224687 92.473211 
L 168.55654 89.530786 
L 168.756925 88.14506 
L 168.887044 88.069232 
L 169.011103 87.961929 
L 169.324437 86.417772 
L 169.642501 86.397586 
L 169.959171 86.38464 
L 170.274088 86.359462 
L 170.789786 83.325044 
L 171.121802 79.636934 
L 171.251911 79.11784 
L 171.334855 80.229012 
L 171.42609 80.566016 
L 171.522199 80.560844 
L 171.61975 80.530553 
L 171.718131 80.494876 
L 171.73515 80.585379 
L 171.735653 80.710891 
L 171.710526 79.839826 
L 171.633728 79.889076 
L 171.518763 79.958507 
L 171.384449 80.034274 
L 171.244475 80.099932 
L 171.101387 80.160824 
L 170.966914 80.125397 
L 170.836284 80.091695 
L 170.706919 80.045687 
L 170.578537 79.993475 
L 170.41545 81.542721 
L 170.189122 81.013366 
L 170.024998 81.076985 
L 169.943322 79.315776 
L 170.222594 79.007653 
L 170.480076 80.045327 
L 170.64466 79.979477 
L 170.597766 82.034926 
L 170.016308 86.605966 
L 169.213859 89.607799 
L 168.370969 89.790992 
L 167.503256 89.95986 
L 166.970101 89.877034 
L 166.470257 89.714583 
L 165.975262 91.851635 
L 165.64865 92.125015 
L 165.86585 93.294364 
L 166.150203 93.289354 
L 166.439292 93.246863 
L 166.722649 94.548634 
L 167.044547 95.018652 
L 167.369229 95.887893 
L 167.678548 96.151567 
L 167.983376 96.364219 
L 168.338471 96.447976 
L 168.744373 95.549316 
L 169.21271 95.097842 
L 169.709674 95.474453 
L 170.090893 100.110867 
L 170.160097 100.955296 
L 170.278906 101.237558 
L 170.391455 99.763979 
L 171.092265 98.114555 
L 171.930732 97.998201 
L 172.788857 97.849825 
L 173.657531 97.720711 
L 174.866008 97.513531 
L 176.145338 97.371145 
L 177.447037 97.225425 
L 178.786065 96.582969 
L 180.472174 93.465727 
L 182.108628 90.644918 
L 183.62145 89.031388 
L 185.071591 85.912885 
L 186.173969 83.527095 
L 187.198577 81.395601 
L 188.082506 78.184642 
L 188.778361 77.315194 
L 189.206404 77.274395 
L 189.596785 77.222577 
L 189.975623 77.15921 
" clip-path="url(#p07948769fe)" style="fill: none; stroke: #ff0000; stroke-width: 1.1; stroke-linecap: square"/>
   </g>
   <g id="line2d_31">
    <path d="M 150.498305 54.422483 
L 150.848422 58.720201 
L 150.898664 59.70985 
L 150.81743 59.571117 
L 150.730896 59.435319 
L 150.627707 60.926058 
L 150.400119 60.788152 
L 150.161094 60.685367 
L 149.893579 62.001559 
L 148.992393 66.37885 
L 148.228518 70.883758 
L 148.018827 75.12351 
L 148.191854 78.045263 
L 148.599585 78.391218 
L 149.039061 78.680696 
L 149.479553 77.717219 
L 149.746405 74.793541 
L 150.049932 71.916006 
L 150.23799 70.563049 
L 150.366232 70.491067 
L 150.488549 70.388462 
L 150.784569 68.879875 
L 151.0941 68.860681 
L 151.402456 68.848694 
L 151.709104 68.824816 
L 152.191748 65.858704 
L 152.495399 62.257117 
L 152.620614 61.751579 
L 152.709222 62.838791 
L 152.801169 63.169339 
L 152.895622 63.165305 
L 152.991258 63.136658 
L 153.087634 63.102714 
L 153.101053 63.187747 
L 153.097757 63.306176 
L 153.064461 62.451465 
L 152.987388 62.497038 
L 152.873675 62.562637 
L 152.741327 62.634547 
L 152.603453 62.696609 
L 152.46254 62.754025 
L 152.332519 62.720204 
L 152.206989 62.688764 
L 152.082736 62.645414 
L 151.959463 62.596057 
L 151.807793 64.107828 
L 151.580208 63.586275 
L 151.418057 63.645591 
L 151.327073 61.923383 
L 151.602261 61.62756 
L 151.863562 62.64623 
L 152.026071 62.584658 
L 151.991297 64.592055 
L 151.453276 69.059326 
L 150.687271 71.989484 
L 149.863845 72.16339 
L 149.0162 72.323269 
L 148.501902 72.246412 
L 148.020568 72.09275 
L 147.556211 74.185476 
L 147.239655 74.451961 
L 147.46209 75.599261 
L 147.740692 75.596567 
L 148.023261 75.556833 
L 148.307555 76.830513 
L 148.620527 77.287429 
L 148.937363 78.133442 
L 149.233382 78.38527 
L 149.52436 78.586863 
L 149.866465 78.665385 
L 150.254325 77.7857 
L 150.708049 77.345596 
L 151.195573 77.715973 
L 151.594206 82.248919 
L 151.658244 83.066475 
L 151.76628 83.333609 
L 151.858548 81.885008 
L 152.532969 80.275684 
L 153.351556 80.166216 
L 154.18918 80.025552 
L 155.037194 79.903732 
L 156.215534 79.706122 
L 157.463203 79.571913 
L 158.732606 79.434444 
L 160.035333 78.811401 
L 161.65462 75.76371 
L 163.224537 73.003318 
L 164.679533 71.421227 
L 166.064741 68.368629 
L 167.115154 66.031191 
L 168.091975 63.942857 
L 168.925912 60.800216 
L 169.591526 59.945924 
L 170.008346 59.907121 
L 170.389541 59.858483 
L 170.759729 59.798813 
" clip-path="url(#p07948769fe)" style="fill: none; stroke: #ff0000; stroke-width: 1.1; stroke-linecap: square"/>
   </g>
   <g id="line2d_32">
    <path d="M 157.527842 75.438797 
L 157.876225 79.847076 
L 157.923025 80.856214 
L 157.837004 80.706833 
L 157.745543 80.560635 
L 157.633244 82.087945 
L 157.396426 81.941682 
L 157.147744 81.831716 
L 156.866441 83.181638 
L 155.92134 87.677645 
L 155.12039 92.311075 
L 154.896493 96.679577 
L 155.07352 99.697951 
L 155.499249 100.06741 
L 155.957793 100.378191 
L 156.420149 99.400254 
L 156.706113 96.403063 
L 157.027808 93.446356 
L 157.225147 92.053396 
L 157.357241 91.9767 
L 157.483212 91.868339 
L 157.793057 90.316339 
L 158.113406 90.295928 
L 158.432467 90.282765 
L 158.749761 90.257293 
L 159.25682 87.207829 
L 159.578741 83.500625 
L 159.70889 82.978526 
L 159.797494 84.094965 
L 159.891414 84.43338 
L 159.988808 84.427947 
L 160.087513 84.397285 
L 160.18701 84.361217 
L 160.202137 84.452959 
L 160.200217 84.580073 
L 160.16924 83.705438 
L 160.09039 83.755523 
L 159.973418 83.825821 
L 159.837082 83.90246 
L 159.695032 83.968931 
L 159.54984 84.030609 
L 159.414935 83.99482 
L 159.284382 83.960604 
L 159.155135 83.913996 
L 159.026893 83.861137 
L 158.867151 85.418664 
L 158.634473 84.887631 
L 158.467598 84.952228 
L 158.377932 83.182434 
L 158.661423 82.871548 
L 158.927666 83.913364 
L 159.094945 83.846545 
L 159.054691 85.912596 
L 158.486937 90.506503 
L 157.688328 93.524165 
L 156.837361 93.709455 
L 155.961342 93.880355 
L 155.427302 93.796173 
L 154.927172 93.631735 
L 154.439881 95.778515 
L 154.111771 96.053421 
L 154.337701 97.227585 
L 154.6253 97.222044 
L 154.917253 97.178927 
L 155.208159 98.486875 
L 155.532161 98.959804 
L 155.859713 99.834198 
L 156.168001 100.10054 
L 156.471338 100.31569 
L 156.826729 100.400633 
L 157.230914 99.497806 
L 157.701276 99.043815 
L 158.204293 99.421777 
L 158.606003 104.080976 
L 158.673571 104.931402 
L 158.788348 105.217084 
L 158.890607 103.738082 
L 159.591546 102.079795 
L 160.437673 101.961882 
L 161.303531 101.811764 
L 162.180083 101.681 
L 163.398617 101.471664 
L 164.688734 101.327427 
L 166.001343 101.17984 
L 167.349634 100.53306 
L 169.034113 97.400502 
L 170.668008 94.566414 
L 172.180844 92.946006 
L 173.625126 89.813028 
L 174.721489 87.416641 
L 175.740874 85.275687 
L 176.614902 82.049719 
L 177.308643 81.176977 
L 177.739959 81.135728 
L 178.133973 81.083189 
L 178.516499 81.018985 
" clip-path="url(#p07948769fe)" style="fill: none; stroke: #ff0000; stroke-width: 1.1; stroke-linecap: square"/>
   </g>
   <g id="line2d_33">
    <path d="M 170.318499 75.101981 
L 170.640869 79.508511 
L 170.678151 80.517345 
L 170.588732 80.368138 
L 170.493962 80.222109 
L 170.371837 81.748843 
L 170.133069 81.602715 
L 169.882398 81.492866 
L 169.593432 82.842255 
L 168.626992 87.336379 
L 167.80807 91.967766 
L 167.571796 96.334217 
L 167.74483 99.351046 
L 168.17692 99.720123 
L 168.641679 100.030557 
L 169.115264 99.052841 
L 169.418713 96.056811 
L 169.753733 93.101361 
L 169.955711 91.709038 
L 170.086454 91.632418 
L 170.211105 91.52415 
L 170.526801 89.972841 
L 170.846655 89.95245 
L 171.165095 89.939305 
L 171.481772 89.91386 
L 172.001669 86.865719 
L 172.336869 83.160196 
L 172.467806 82.638362 
L 172.550684 83.754337 
L 172.64222 84.092628 
L 172.738808 84.087218 
L 172.836861 84.056589 
L 172.935754 84.020555 
L 172.953081 84.112188 
L 172.953843 84.23916 
L 172.929173 83.364839 
L 172.8521 83.414851 
L 172.73661 83.485072 
L 172.60165 83.561633 
L 172.460998 83.628033 
L 172.317216 83.689641 
L 172.181927 83.653885 
L 172.050453 83.619714 
L 171.920248 83.573159 
L 171.79103 83.520357 
L 171.626549 85.077155 
L 171.399438 84.546269 
L 171.234553 84.610779 
L 171.15319 82.841741 
L 171.433807 82.531099 
L 171.692019 83.572551 
L 171.857373 83.505817 
L 171.809484 85.570935 
L 171.222875 90.162831 
L 170.414908 93.1791 
L 169.567485 93.364204 
L 168.695103 93.534925 
L 168.158643 93.450863 
L 167.655645 93.2866 
L 167.156713 95.432525 
L 166.828178 95.707296 
L 167.045866 96.881038 
L 167.331692 96.875544 
L 167.622325 96.832482 
L 167.906706 98.139887 
L 168.230432 98.612559 
L 168.556881 99.4865 
L 168.868271 99.752606 
L 169.175191 99.967535 
L 169.532513 100.052373 
L 169.941176 99.149913 
L 170.412284 98.696143 
L 170.91178 99.073987 
L 171.293282 103.731181 
L 171.363097 104.581079 
L 171.483084 104.866458 
L 171.597428 103.387933 
L 172.302689 101.730426 
L 173.145692 101.61265 
L 174.008471 101.462686 
L 174.881845 101.332069 
L 176.096957 101.122922 
L 177.383291 100.978849 
L 178.692119 100.831427 
L 180.038692 100.185028 
L 181.735767 97.053817 
L 183.382995 94.220897 
L 184.90553 92.601094 
L 186.365662 89.469388 
L 187.475828 87.073933 
L 188.507646 84.933811 
L 189.398427 81.709163 
L 190.099031 80.836709 
L 190.529471 80.795501 
L 190.921964 80.743025 
L 191.30283 80.678895 
" clip-path="url(#p07948769fe)" style="fill: none; stroke: #ff0000; stroke-width: 1.1; stroke-linecap: square"/>
   </g>
   <g id="line2d_34">
    <path d="M 154.635654 65.027774 
L 154.983846 69.381651 
L 155.031965 70.38127 
L 154.948175 70.237213 
L 154.859018 70.096214 
L 154.75083 71.60555 
L 154.518499 71.463456 
L 154.274514 71.357077 
L 153.999723 72.690403 
L 153.075485 77.127919 
L 152.292149 81.697955 
L 152.074779 86.002868 
L 152.249666 88.973442 
L 152.666749 89.331164 
L 153.116112 89.631299 
L 153.568106 88.660357 
L 153.845322 85.69932 
L 154.158567 82.781633 
L 154.351502 81.40842 
L 154.481636 81.334077 
L 154.605746 81.228585 
L 154.908988 79.698003 
L 155.223965 79.678199 
L 155.537705 79.665625 
L 155.849708 79.640949 
L 156.345206 76.632583 
L 156.658623 72.977504 
L 156.786363 72.463597 
L 156.874739 73.565639 
L 156.967587 73.900191 
L 157.063494 73.895461 
L 157.160654 73.865806 
L 157.258582 73.830798 
L 157.272953 73.919185 
L 157.270461 74.041958 
L 157.23859 73.177103 
L 157.160691 73.224928 
L 157.045391 73.292878 
L 156.911083 73.367156 
L 156.771155 73.431424 
L 156.628137 73.490972 
L 156.495633 73.456164 
L 156.367527 73.423338 
L 156.240712 73.378358 
L 156.114889 73.327249 
L 155.95895 74.862179 
L 155.729016 74.335765 
L 155.564558 74.397718 
L 155.474574 72.651378 
L 155.753842 72.347993 
L 156.017317 73.378456 
L 156.182158 73.314262 
L 156.144307 75.351369 
L 155.590503 79.882823 
L 154.807646 82.857283 
L 153.970446 83.036889 
L 153.10861 83.202284 
L 152.584238 83.12177 
L 152.093291 82.962715 
L 151.616875 85.082894 
L 151.294463 85.353637 
L 151.518331 86.514613 
L 151.801408 86.510505 
L 152.088666 86.469082 
L 152.376037 87.760148 
L 152.694572 88.225147 
L 153.016779 89.085498 
L 153.319123 89.344603 
L 153.616491 89.552982 
L 153.965388 89.634714 
L 154.361678 88.743281 
L 154.823839 88.296154 
L 155.31905 88.670406 
L 155.718423 93.267363 
L 155.784336 94.101475 
L 155.895988 94.377892 
L 155.993792 92.91377 
L 156.681788 91.279666 
L 157.514165 91.165975 
L 158.365933 91.020578 
L 159.22824 90.894284 
L 160.426753 90.690796 
L 161.69572 90.551571 
L 162.986805 90.409041 
L 164.312487 89.774032 
L 165.965222 86.683313 
L 167.568002 83.885522 
L 169.052613 82.28394 
L 170.468305 79.190537 
L 171.542486 76.823143 
L 172.54131 74.708068 
L 173.396171 71.523131 
L 174.076271 70.659424 
L 174.50038 70.619396 
L 174.887991 70.568809 
L 175.264347 70.506871 
" clip-path="url(#p07948769fe)" style="fill: none; stroke: #ff0000; stroke-width: 1.1; stroke-linecap: square"/>
   </g>
   <g id="line2d_35">
    <path d="M 155.746651 68.438032 
L 156.094601 72.809809 
L 156.142176 73.812575 
L 156.057614 73.666785 
L 155.967663 73.524093 
L 155.858011 75.039347 
L 155.624186 74.895894 
L 155.378637 74.788347 
L 155.101621 76.127134 
L 154.17029 80.583878 
L 153.380966 85.174738 
L 153.16131 89.500521 
L 153.336852 92.486767 
L 153.756846 92.848313 
L 154.209293 93.151915 
L 154.664817 92.178645 
L 154.945107 89.205709 
L 155.26128 86.275198 
L 155.455713 84.895501 
L 155.586474 84.820392 
L 155.711179 84.713964 
L 156.016655 83.176346 
L 156.333388 83.156345 
L 156.648866 83.143579 
L 156.962597 83.118644 
L 157.462037 80.096774 
L 157.778398 76.424579 
L 157.906938 75.907985 
L 157.995321 77.014761 
L 158.088493 77.350586 
L 158.184878 77.345628 
L 158.282537 77.315644 
L 158.380973 77.280291 
L 158.395618 77.36977 
L 158.393344 77.493957 
L 158.361841 76.625879 
L 158.28365 76.674439 
L 158.167819 76.743154 
L 158.032863 76.818201 
L 157.892255 76.883186 
L 157.74854 76.943428 
L 157.615244 76.9083 
L 157.486326 76.875022 
L 157.358702 76.829512 
L 157.232074 76.777833 
L 157.074832 78.32018 
L 156.844063 77.792236 
L 156.678836 77.855049 
L 156.589053 76.101001 
L 156.869672 75.795167 
L 157.133961 76.829374 
L 157.29958 76.764326 
L 157.260851 78.810937 
L 156.702251 83.362909 
L 155.914118 86.351552 
L 155.072445 86.53301 
L 154.206001 86.700199 
L 153.678429 86.618491 
L 153.184437 86.457683 
L 152.704318 88.586613 
L 152.380032 88.858722 
L 152.604479 90.024044 
L 152.889019 90.019472 
L 153.177801 89.977497 
L 153.466255 91.274114 
L 153.786579 91.741711 
L 154.110526 92.606665 
L 154.414856 92.86813 
L 154.714224 93.078716 
L 155.065273 93.161493 
L 155.464205 92.266312 
L 155.929065 91.816933 
L 156.426795 92.192411 
L 156.826697 96.809822 
L 156.893179 97.64927 
L 157.005917 97.928706 
L 157.105324 96.459671 
L 157.797615 94.81763 
L 158.634465 94.702564 
L 159.490818 94.555629 
L 160.35776 94.427879 
L 161.562799 94.222484 
L 162.838659 94.081627 
L 164.136758 93.93745 
L 165.469836 93.298588 
L 167.133128 90.19412 
L 168.746269 87.384394 
L 170.240249 85.776612 
L 171.665502 82.670193 
L 172.747118 80.293257 
L 173.75283 78.169664 
L 174.614171 74.971234 
L 175.298824 74.104545 
L 175.725287 74.064119 
L 176.114979 74.012896 
L 176.493339 73.950221 
" clip-path="url(#p07948769fe)" style="fill: none; stroke: #ff0000; stroke-width: 1.1; stroke-linecap: square"/>
   </g>
   <g id="line2d_36">
    <path d="M 167.209741 64.702351 
L 167.532793 69.054516 
L 167.571713 70.053833 
L 167.484639 69.909941 
L 167.392283 69.769103 
L 167.274598 71.277872 
L 167.040382 71.135908 
L 166.794475 71.029641 
L 166.512276 72.362444 
L 165.567412 76.798122 
L 164.766703 81.366168 
L 164.537367 85.669087 
L 164.708395 88.638165 
L 165.131627 88.995523 
L 165.586999 89.295328 
L 166.049848 88.324609 
L 166.343965 85.364711 
L 166.67009 82.448251 
L 166.867508 81.075657 
L 166.996337 81.001387 
L 167.119171 80.895984 
L 167.428068 79.366074 
L 167.742567 79.346289 
L 168.055708 79.333733 
L 168.367114 79.309082 
L 168.875021 76.302007 
L 169.201273 72.648563 
L 169.329774 72.134912 
L 169.412616 73.236502 
L 169.503159 73.570932 
L 169.598287 73.566224 
L 169.694818 73.5366 
L 169.792162 73.501625 
L 169.80866 73.589908 
L 169.808758 73.712547 
L 169.782983 72.848 
L 169.706802 72.895756 
L 169.592935 72.963633 
L 169.459957 73.037837 
L 169.32138 73.102037 
L 169.179724 73.161519 
L 169.046849 73.126742 
L 168.917853 73.093958 
L 168.790113 73.049029 
L 168.663346 72.997974 
L 168.502827 74.532196 
L 168.278273 74.005928 
L 168.115738 74.067799 
L 168.033779 72.322197 
L 168.31027 72.019044 
L 168.565982 73.04915 
L 168.728963 72.985037 
L 168.683733 75.021235 
L 168.111705 79.550728 
L 167.319802 82.523833 
L 166.486028 82.703263 
L 165.627707 82.868488 
L 165.100996 82.788087 
L 164.607277 82.629199 
L 164.119608 84.74854 
L 163.796785 85.019153 
L 164.012687 86.179713 
L 164.29405 86.17565 
L 164.580032 86.134278 
L 164.861096 87.424814 
L 165.179364 87.889565 
L 165.500504 88.749476 
L 165.805847 89.008357 
L 166.106679 89.216526 
L 166.457442 89.298159 
L 166.85806 88.407084 
L 167.320943 87.960172 
L 167.812751 88.334307 
L 168.19259 92.929309 
L 168.260675 93.762911 
L 168.377363 94.039041 
L 168.48685 92.57539 
L 169.179023 90.942044 
L 170.008381 90.828484 
L 170.857172 90.683233 
L 171.716408 90.557078 
L 172.911613 90.353771 
L 174.176923 90.214702 
L 175.464353 90.072328 
L 176.788375 89.437687 
L 178.453287 86.348282 
L 180.068955 83.551632 
L 181.562941 81.950644 
L 182.993952 78.858486 
L 184.081476 76.492004 
L 185.092316 74.377744 
L 185.963369 71.194097 
L 186.650101 70.330677 
L 187.073363 70.290686 
L 187.459504 70.240159 
L 187.834256 70.178292 
" clip-path="url(#p07948769fe)" style="fill: none; stroke: #ff0000; stroke-width: 1.1; stroke-linecap: square"/>
   </g>
   <g id="Path3DCollection_1">
    <defs>
     <path id="m5b4f10808b" d="M 0 -4.472136 
L -4.472136 4.472136 
L 4.472136 4.472136 
z
" style="stroke: #87ceeb"/>
    </defs>
    <g clip-path="url(#p07948769fe)">
     <use xlink:href="#m5b4f10808b" x="138.092486" y="153.027325" style="fill: #87ceeb; stroke: #87ceeb"/>
    </g>
   </g>
   <g id="text_22">
    <!-- Timmins -->
    <g transform="translate(125.084429 170.59822) scale(0.09 -0.09)">
     <defs>
      <path id="DejaVuSerif-54" d="M 1222 0 
L 1222 331 
L 1819 331 
L 1819 4294 
L 447 4294 
L 447 3566 
L 63 3566 
L 63 4666 
L 4206 4666 
L 4206 3566 
L 3822 3566 
L 3822 4294 
L 2450 4294 
L 2450 331 
L 3047 331 
L 3047 0 
L 1222 0 
z
" transform="scale(0.015625)"/>
      <path id="DejaVuSerif-73" d="M 359 184 
L 359 959 
L 691 959 
Q 703 588 923 403 
Q 1144 219 1575 219 
Q 1963 219 2166 364 
Q 2369 509 2369 788 
Q 2369 1006 2220 1140 
Q 2072 1275 1594 1428 
L 1178 1569 
Q 750 1706 558 1912 
Q 366 2119 366 2438 
Q 366 2894 700 3153 
Q 1034 3413 1625 3413 
Q 1888 3413 2178 3344 
Q 2469 3275 2778 3144 
L 2778 2419 
L 2447 2419 
Q 2434 2741 2221 2922 
Q 2009 3103 1644 3103 
Q 1281 3103 1095 2975 
Q 909 2847 909 2591 
Q 909 2381 1050 2254 
Q 1191 2128 1613 1997 
L 2069 1856 
Q 2541 1709 2748 1489 
Q 2956 1269 2956 922 
Q 2956 450 2595 179 
Q 2234 -91 1600 -91 
Q 1278 -91 972 -22 
Q 666 47 359 184 
z
" transform="scale(0.015625)"/>
     </defs>
     <use xlink:href="#DejaVuSerif-54"/>
     <use xlink:href="#DejaVuSerif-69" transform="translate(66.699219 0)"/>
     <use xlink:href="#DejaVuSerif-6d" transform="translate(98.681641 0)"/>
     <use xlink:href="#DejaVuSerif-6d" transform="translate(193.505859 0)"/>
     <use xlink:href="#DejaVuSerif-69" transform="translate(288.330078 0)"/>
     <use xlink:href="#DejaVuSerif-6e" transform="translate(320.3125 0)"/>
     <use xlink:href="#DejaVuSerif-73" transform="translate(384.716797 0)"/>
    </g>
   </g>
   <g id="text_23">
    <!-- Iroquois Falls -->
    <g transform="translate(172.155895 175.691804) scale(0.09 -0.09)">
     <defs>
      <path id="DejaVuSerif-49" d="M 1581 331 
L 2175 331 
L 2175 0 
L 353 0 
L 353 331 
L 947 331 
L 947 4331 
L 353 4331 
L 353 4666 
L 2175 4666 
L 2175 4331 
L 1581 4331 
L 1581 331 
z
" transform="scale(0.015625)"/>
      <path id="DejaVuSerif-72" d="M 3059 3328 
L 3059 2497 
L 2728 2497 
Q 2713 2744 2591 2866 
Q 2469 2988 2234 2988 
Q 1809 2988 1582 2694 
Q 1356 2400 1356 1850 
L 1356 331 
L 2022 331 
L 2022 0 
L 263 0 
L 263 331 
L 781 331 
L 781 2994 
L 231 2994 
L 231 3322 
L 1356 3322 
L 1356 2731 
Q 1525 3078 1790 3245 
Q 2056 3413 2438 3413 
Q 2578 3413 2733 3391 
Q 2888 3369 3059 3328 
z
" transform="scale(0.015625)"/>
      <path id="DejaVuSerif-71" d="M 3359 2988 
L 3359 -997 
L 3909 -997 
L 3909 -1331 
L 2241 -1331 
L 2241 -997 
L 2784 -997 
L 2784 519 
Q 2616 206 2355 57 
Q 2094 -91 1709 -91 
Q 1097 -91 708 395 
Q 319 881 319 1663 
Q 319 2444 706 2928 
Q 1094 3413 1709 3413 
Q 2094 3413 2355 3264 
Q 2616 3116 2784 2803 
L 2784 3322 
L 3909 3322 
L 3909 2988 
L 3359 2988 
z
M 2784 1825 
Q 2784 2422 2554 2737 
Q 2325 3053 1888 3053 
Q 1444 3053 1217 2703 
Q 991 2353 991 1663 
Q 991 975 1217 622 
Q 1444 269 1888 269 
Q 2325 269 2554 583 
Q 2784 897 2784 1497 
L 2784 1825 
z
" transform="scale(0.015625)"/>
      <path id="DejaVuSerif-46" d="M 353 0 
L 353 331 
L 947 331 
L 947 4331 
L 353 4331 
L 353 4666 
L 4172 4666 
L 4172 3628 
L 3788 3628 
L 3788 4281 
L 1581 4281 
L 1581 2719 
L 3175 2719 
L 3175 3303 
L 3559 3303 
L 3559 1753 
L 3175 1753 
L 3175 2338 
L 1581 2338 
L 1581 331 
L 2328 331 
L 2328 0 
L 353 0 
z
" transform="scale(0.015625)"/>
     </defs>
     <use xlink:href="#DejaVuSerif-49"/>
     <use xlink:href="#DejaVuSerif-72" transform="translate(39.501953 0)"/>
     <use xlink:href="#DejaVuSerif-6f" transform="translate(87.304688 0)"/>
     <use xlink:href="#DejaVuSerif-71" transform="translate(147.509766 0)"/>
     <use xlink:href="#DejaVuSerif-75" transform="translate(211.523438 0)"/>
     <use xlink:href="#DejaVuSerif-6f" transform="translate(275.927734 0)"/>
     <use xlink:href="#DejaVuSerif-69" transform="translate(336.132812 0)"/>
     <use xlink:href="#DejaVuSerif-73" transform="translate(368.115234 0)"/>
     <use xlink:href="#DejaVuSerif-20" transform="translate(419.433594 0)"/>
     <use xlink:href="#DejaVuSerif-46" transform="translate(451.220703 0)"/>
     <use xlink:href="#DejaVuSerif-61" transform="translate(513.855469 0)"/>
     <use xlink:href="#DejaVuSerif-6c" transform="translate(573.474609 0)"/>
     <use xlink:href="#DejaVuSerif-6c" transform="translate(605.457031 0)"/>
     <use xlink:href="#DejaVuSerif-73" transform="translate(637.439453 0)"/>
    </g>
   </g>
   <g id="text_24">
    <!-- Kapuskasing -->
    <g transform="translate(140.05286 152.405404) scale(0.09 -0.09)">
     <defs>
      <path id="DejaVuSerif-4b" d="M 353 0 
L 353 331 
L 947 331 
L 947 4331 
L 353 4331 
L 353 4666 
L 2175 4666 
L 2175 4331 
L 1581 4331 
L 1581 2566 
L 3591 4331 
L 3084 4331 
L 3084 4666 
L 4634 4666 
L 4634 4331 
L 4109 4331 
L 2106 2572 
L 4347 331 
L 4878 331 
L 4878 0 
L 3794 0 
L 1581 2216 
L 1581 331 
L 2175 331 
L 2175 0 
L 353 0 
z
" transform="scale(0.015625)"/>
      <path id="DejaVuSerif-70" d="M 1313 1825 
L 1313 1497 
Q 1313 897 1542 583 
Q 1772 269 2209 269 
Q 2650 269 2876 622 
Q 3103 975 3103 1663 
Q 3103 2353 2876 2703 
Q 2650 3053 2209 3053 
Q 1772 3053 1542 2737 
Q 1313 2422 1313 1825 
z
M 738 2988 
L 184 2988 
L 184 3322 
L 1313 3322 
L 1313 2803 
Q 1481 3116 1742 3264 
Q 2003 3413 2388 3413 
Q 3000 3413 3387 2928 
Q 3775 2444 3775 1663 
Q 3775 881 3387 395 
Q 3000 -91 2388 -91 
Q 2003 -91 1742 57 
Q 1481 206 1313 519 
L 1313 -997 
L 1856 -997 
L 1856 -1331 
L 184 -1331 
L 184 -997 
L 738 -997 
L 738 2988 
z
" transform="scale(0.015625)"/>
     </defs>
     <use xlink:href="#DejaVuSerif-4b"/>
     <use xlink:href="#DejaVuSerif-61" transform="translate(74.707031 0)"/>
     <use xlink:href="#DejaVuSerif-70" transform="translate(134.326172 0)"/>
     <use xlink:href="#DejaVuSerif-75" transform="translate(198.339844 0)"/>
     <use xlink:href="#DejaVuSerif-73" transform="translate(262.744141 0)"/>
     <use xlink:href="#DejaVuSerif-6b" transform="translate(314.0625 0)"/>
     <use xlink:href="#DejaVuSerif-61" transform="translate(374.658203 0)"/>
     <use xlink:href="#DejaVuSerif-73" transform="translate(434.277344 0)"/>
     <use xlink:href="#DejaVuSerif-69" transform="translate(485.595703 0)"/>
     <use xlink:href="#DejaVuSerif-6e" transform="translate(517.578125 0)"/>
     <use xlink:href="#DejaVuSerif-67" transform="translate(581.982422 0)"/>
    </g>
   </g>
   <g id="text_25">
    <!-- Cochrane -->
    <g transform="translate(169.844544 167.979413) scale(0.09 -0.09)">
     <defs>
      <path id="DejaVuSerif-43" d="M 4513 1234 
Q 4306 581 3820 245 
Q 3334 -91 2591 -91 
Q 2134 -91 1743 65 
Q 1353 222 1050 525 
Q 700 875 529 1320 
Q 359 1766 359 2328 
Q 359 3416 987 4083 
Q 1616 4750 2644 4750 
Q 3025 4750 3456 4650 
Q 3888 4550 4384 4347 
L 4384 3272 
L 4031 3272 
Q 3916 3859 3567 4137 
Q 3219 4416 2591 4416 
Q 1844 4416 1459 3886 
Q 1075 3356 1075 2328 
Q 1075 1303 1459 773 
Q 1844 244 2591 244 
Q 3113 244 3450 492 
Q 3788 741 3938 1234 
L 4513 1234 
z
" transform="scale(0.015625)"/>
      <path id="DejaVuSerif-63" d="M 3291 997 
Q 3169 466 2822 187 
Q 2475 -91 1925 -91 
Q 1200 -91 759 389 
Q 319 869 319 1663 
Q 319 2459 759 2936 
Q 1200 3413 1925 3413 
Q 2241 3413 2553 3339 
Q 2866 3266 3181 3116 
L 3181 2266 
L 2847 2266 
Q 2781 2703 2561 2903 
Q 2341 3103 1931 3103 
Q 1466 3103 1228 2742 
Q 991 2381 991 1663 
Q 991 944 1227 581 
Q 1463 219 1931 219 
Q 2303 219 2525 412 
Q 2747 606 2828 997 
L 3291 997 
z
" transform="scale(0.015625)"/>
      <path id="DejaVuSerif-68" d="M 263 0 
L 263 331 
L 781 331 
L 781 4531 
L 231 4531 
L 231 4863 
L 1356 4863 
L 1356 2731 
Q 1516 3069 1770 3241 
Q 2025 3413 2363 3413 
Q 2913 3413 3172 3097 
Q 3431 2781 3431 2113 
L 3431 331 
L 3944 331 
L 3944 0 
L 2356 0 
L 2356 331 
L 2853 331 
L 2853 1931 
Q 2853 2541 2704 2764 
Q 2556 2988 2175 2988 
Q 1775 2988 1565 2697 
Q 1356 2406 1356 1850 
L 1356 331 
L 1856 331 
L 1856 0 
L 263 0 
z
" transform="scale(0.015625)"/>
     </defs>
     <use xlink:href="#DejaVuSerif-43"/>
     <use xlink:href="#DejaVuSerif-6f" transform="translate(76.513672 0)"/>
     <use xlink:href="#DejaVuSerif-63" transform="translate(136.71875 0)"/>
     <use xlink:href="#DejaVuSerif-68" transform="translate(192.724609 0)"/>
     <use xlink:href="#DejaVuSerif-72" transform="translate(257.128906 0)"/>
     <use xlink:href="#DejaVuSerif-61" transform="translate(304.931641 0)"/>
     <use xlink:href="#DejaVuSerif-6e" transform="translate(364.550781 0)"/>
     <use xlink:href="#DejaVuSerif-65" transform="translate(428.955078 0)"/>
    </g>
   </g>
   <g id="text_26">
    <!-- Kirkland Lake -->
    <g transform="translate(176.00309 191.781212) scale(0.09 -0.09)">
     <use xlink:href="#DejaVuSerif-4b"/>
     <use xlink:href="#DejaVuSerif-69" transform="translate(74.707031 0)"/>
     <use xlink:href="#DejaVuSerif-72" transform="translate(106.689453 0)"/>
     <use xlink:href="#DejaVuSerif-6b" transform="translate(154.492188 0)"/>
     <use xlink:href="#DejaVuSerif-6c" transform="translate(215.087891 0)"/>
     <use xlink:href="#DejaVuSerif-61" transform="translate(247.070312 0)"/>
     <use xlink:href="#DejaVuSerif-6e" transform="translate(306.689453 0)"/>
     <use xlink:href="#DejaVuSerif-64" transform="translate(371.09375 0)"/>
     <use xlink:href="#DejaVuSerif-20" transform="translate(435.107422 0)"/>
     <use xlink:href="#DejaVuSerif-4c" transform="translate(466.894531 0)"/>
     <use xlink:href="#DejaVuSerif-61" transform="translate(533.300781 0)"/>
     <use xlink:href="#DejaVuSerif-6b" transform="translate(592.919922 0)"/>
     <use xlink:href="#DejaVuSerif-65" transform="translate(653.515625 0)"/>
    </g>
   </g>
   <g id="text_27">
    <!-- NorthBay -->
    <g transform="translate(39.786868 203.11278) scale(0.09 -0.09)">
     <defs>
      <path id="DejaVuSerif-4e" d="M 313 0 
L 313 331 
L 941 331 
L 941 4331 
L 313 4331 
L 313 4666 
L 1509 4666 
L 4306 984 
L 4306 4331 
L 3681 4331 
L 3681 4666 
L 5319 4666 
L 5319 4331 
L 4691 4331 
L 4691 -91 
L 4313 -91 
L 1325 3841 
L 1325 331 
L 1953 331 
L 1953 0 
L 313 0 
z
" transform="scale(0.015625)"/>
      <path id="DejaVuSerif-42" d="M 1581 331 
L 2516 331 
Q 3078 331 3337 575 
Q 3597 819 3597 1350 
Q 3597 1878 3339 2120 
Q 3081 2363 2516 2363 
L 1581 2363 
L 1581 331 
z
M 1581 2694 
L 2375 2694 
Q 2888 2694 3123 2891 
Q 3359 3088 3359 3513 
Q 3359 3941 3123 4136 
Q 2888 4331 2375 4331 
L 1581 4331 
L 1581 2694 
z
M 353 0 
L 353 331 
L 947 331 
L 947 4331 
L 353 4331 
L 353 4666 
L 2656 4666 
Q 3363 4666 3720 4377 
Q 4078 4088 4078 3513 
Q 4078 3097 3829 2850 
Q 3581 2603 3103 2547 
Q 3697 2472 4005 2167 
Q 4313 1863 4313 1350 
Q 4313 656 3875 328 
Q 3438 0 2509 0 
L 353 0 
z
" transform="scale(0.015625)"/>
      <path id="DejaVuSerif-79" d="M 1381 -609 
L 1600 -56 
L 359 2988 
L -19 2988 
L -19 3322 
L 1509 3322 
L 1509 2988 
L 978 2988 
L 1913 703 
L 2847 2988 
L 2350 2988 
L 2350 3322 
L 3597 3322 
L 3597 2988 
L 3225 2988 
L 1703 -750 
Q 1547 -1138 1356 -1280 
Q 1166 -1422 819 -1422 
Q 672 -1422 517 -1397 
Q 363 -1372 206 -1325 
L 206 -691 
L 500 -691 
Q 519 -903 608 -995 
Q 697 -1088 884 -1088 
Q 1056 -1088 1161 -992 
Q 1266 -897 1381 -609 
z
" transform="scale(0.015625)"/>
     </defs>
     <use xlink:href="#DejaVuSerif-4e"/>
     <use xlink:href="#DejaVuSerif-6f" transform="translate(87.5 0)"/>
     <use xlink:href="#DejaVuSerif-72" transform="translate(147.705078 0)"/>
     <use xlink:href="#DejaVuSerif-74" transform="translate(195.507812 0)"/>
     <use xlink:href="#DejaVuSerif-68" transform="translate(235.693359 0)"/>
     <use xlink:href="#DejaVuSerif-42" transform="translate(300.097656 0)"/>
     <use xlink:href="#DejaVuSerif-61" transform="translate(373.583984 0)"/>
     <use xlink:href="#DejaVuSerif-79" transform="translate(433.203125 0)"/>
    </g>
   </g>
   <g id="text_28">
    <!-- 0 -->
    <g style="fill: #ff0000" transform="translate(89.582438 74.501275) scale(0.09 -0.09)">
     <defs>
      <path id="DejaVuSerif-Italic-30" d="M 1011 744 
Q 1147 219 1625 219 
Q 2103 219 2442 744 
Q 2781 1269 2988 2328 
Q 3194 3391 3058 3916 
Q 2922 4441 2444 4441 
Q 1966 4441 1627 3916 
Q 1288 3391 1081 2328 
Q 875 1269 1011 744 
z
M 1563 -91 
Q 803 -91 501 546 
Q 200 1184 422 2328 
Q 644 3475 1195 4112 
Q 1747 4750 2506 4750 
Q 3269 4750 3569 4112 
Q 3869 3475 3647 2328 
Q 3425 1184 2875 546 
Q 2325 -91 1563 -91 
z
" transform="scale(0.015625)"/>
     </defs>
     <use xlink:href="#DejaVuSerif-Italic-30"/>
    </g>
   </g>
   <g id="text_29">
    <!-- 1 -->
    <g style="fill: #ff0000" transform="translate(104.817205 81.84443) scale(0.09 -0.09)">
     <defs>
      <path id="DejaVuSerif-Italic-31" d="M 447 0 
L 513 331 
L 1325 331 
L 2078 4213 
L 1019 3603 
L 1100 4013 
L 2381 4750 
L 2813 4750 
L 1953 331 
L 2766 331 
L 2700 0 
L 447 0 
z
" transform="scale(0.015625)"/>
     </defs>
     <use xlink:href="#DejaVuSerif-Italic-31"/>
    </g>
   </g>
   <g id="text_30">
    <!-- 2 -->
    <g style="fill: #ff0000" transform="translate(105.662469 85.424693) scale(0.09 -0.09)">
     <defs>
      <path id="DejaVuSerif-Italic-32" d="M 1050 3553 
L 700 3553 
L 863 4384 
Q 1231 4563 1589 4656 
Q 1947 4750 2272 4750 
Q 3000 4750 3353 4397 
Q 3706 4044 3588 3438 
Q 3456 2753 2313 1800 
Q 2225 1728 2178 1691 
L 772 513 
L 2719 513 
L 2831 1088 
L 3197 1088 
L 2984 0 
L -25 0 
L 41 341 
L 1731 1753 
Q 2291 2222 2567 2614 
Q 2844 3006 2928 3438 
Q 3019 3909 2825 4175 
Q 2631 4441 2200 4441 
Q 1753 4441 1467 4219 
Q 1181 3997 1050 3553 
z
" transform="scale(0.015625)"/>
     </defs>
     <use xlink:href="#DejaVuSerif-Italic-32"/>
    </g>
   </g>
   <g id="text_31">
    <!-- 3 -->
    <g style="fill: #ff0000" transform="translate(106.888061 92.777144) scale(0.09 -0.09)">
     <defs>
      <path id="DejaVuSerif-Italic-33" d="M 1038 4469 
Q 1431 4606 1781 4678 
Q 2131 4750 2425 4750 
Q 3109 4750 3436 4454 
Q 3763 4159 3659 3634 
Q 3578 3213 3258 2930 
Q 2938 2647 2431 2547 
Q 2988 2466 3241 2130 
Q 3494 1794 3388 1259 
Q 3263 606 2755 257 
Q 2247 -91 1422 -91 
Q 1056 -91 723 -12 
Q 391 66 78 225 
L 253 1131 
L 603 1131 
Q 547 681 775 450 
Q 1003 219 1497 219 
Q 1975 219 2304 495 
Q 2634 772 2728 1253 
Q 2834 1803 2604 2086 
Q 2375 2369 1825 2369 
L 1528 2369 
L 1591 2688 
L 1747 2688 
Q 2294 2688 2611 2914 
Q 2928 3141 3019 3597 
Q 3097 4006 2914 4223 
Q 2731 4441 2309 4441 
Q 1888 4441 1616 4241 
Q 1344 4041 1228 3647 
L 878 3647 
L 1038 4469 
z
" transform="scale(0.015625)"/>
     </defs>
     <use xlink:href="#DejaVuSerif-Italic-33"/>
    </g>
   </g>
   <g id="text_32">
    <!-- 4 -->
    <g style="fill: #ff0000" transform="translate(92.707065 85.770657) scale(0.09 -0.09)">
     <defs>
      <path id="DejaVuSerif-Italic-34" d="M 2084 1581 
L 2566 4063 
L 491 1581 
L 2084 1581 
z
M 3150 0 
L 1025 0 
L 1091 331 
L 1841 331 
L 2019 1247 
L -19 1247 
L 47 1588 
L 2706 4750 
L 3325 4750 
L 2709 1581 
L 3600 1581 
L 3534 1247 
L 2644 1247 
L 2466 331 
L 3216 331 
L 3150 0 
z
" transform="scale(0.015625)"/>
     </defs>
     <use xlink:href="#DejaVuSerif-Italic-34"/>
    </g>
   </g>
   <g id="text_33">
    <!-- 5 -->
    <g style="fill: #ff0000" transform="translate(157.892027 69.782811) scale(0.09 -0.09)">
     <defs>
      <path id="DejaVuSerif-Italic-35" d="M 3681 4666 
L 3581 4153 
L 1444 4153 
L 1184 2816 
Q 1369 2928 1597 2984 
Q 1825 3041 2094 3041 
Q 2850 3041 3206 2622 
Q 3563 2203 3422 1478 
Q 3278 738 2754 323 
Q 2231 -91 1431 -91 
Q 1109 -91 787 -12 
Q 466 66 144 225 
L 319 1131 
L 672 1131 
Q 613 688 822 453 
Q 1031 219 1491 219 
Q 1984 219 2314 544 
Q 2644 869 2763 1478 
Q 2878 2084 2678 2407 
Q 2478 2731 1981 2731 
Q 1700 2731 1465 2631 
Q 1231 2531 1025 2322 
L 756 2322 
L 1213 4666 
L 3681 4666 
z
" transform="scale(0.015625)"/>
     </defs>
     <use xlink:href="#DejaVuSerif-Italic-35"/>
    </g>
   </g>
   <g id="text_34">
    <!-- 6 -->
    <g style="fill: #ff0000" transform="translate(156.134843 62.956441) scale(0.09 -0.09)">
     <defs>
      <path id="DejaVuSerif-Italic-36" d="M 1070 553 
Q 1244 219 1684 219 
Q 2125 219 2425 542 
Q 2725 866 2842 1472 
Q 2959 2078 2786 2401 
Q 2613 2725 2172 2725 
Q 1725 2725 1429 2412 
Q 1134 2100 1019 1509 
Q 897 888 1070 553 
z
M 1122 2569 
Q 1378 2803 1670 2918 
Q 1963 3034 2300 3034 
Q 2997 3034 3320 2615 
Q 3644 2197 3503 1472 
Q 3366 763 2845 336 
Q 2325 -91 1597 -91 
Q 806 -91 497 498 
Q 188 1088 400 2181 
Q 638 3406 1272 4078 
Q 1906 4750 2822 4750 
Q 3069 4750 3331 4703 
Q 3594 4656 3859 4563 
L 3709 3794 
L 3356 3794 
Q 3381 4109 3209 4275 
Q 3038 4441 2694 4441 
Q 2088 4441 1702 3981 
Q 1316 3522 1122 2569 
z
" transform="scale(0.015625)"/>
     </defs>
     <use xlink:href="#DejaVuSerif-Italic-36"/>
    </g>
   </g>
   <g id="text_35">
    <!-- 7 -->
    <g style="fill: #ff0000" transform="translate(143.67624 63.277782) scale(0.09 -0.09)">
     <defs>
      <path id="DejaVuSerif-Italic-37" d="M 4000 4347 
L 1331 0 
L 866 0 
L 3413 4153 
L 1256 4153 
L 1144 3578 
L 778 3578 
L 991 4666 
L 4063 4666 
L 4000 4347 
z
" transform="scale(0.015625)"/>
     </defs>
     <use xlink:href="#DejaVuSerif-Italic-37"/>
    </g>
   </g>
   <g id="text_36">
    <!-- 8 -->
    <g style="fill: #ff0000" transform="translate(173.824337 77.011979) scale(0.09 -0.09)">
     <defs>
      <path id="DejaVuSerif-Italic-38" d="M 2775 1275 
Q 2872 1775 2678 2051 
Q 2484 2328 2034 2328 
Q 1584 2328 1281 2051 
Q 978 1775 881 1275 
Q 784 772 979 495 
Q 1175 219 1625 219 
Q 2075 219 2376 495 
Q 2678 772 2775 1275 
z
M 3088 3541 
Q 3172 3966 3001 4203 
Q 2831 4441 2444 4441 
Q 2059 4441 1796 4203 
Q 1534 3966 1450 3541 
Q 1369 3113 1539 2875 
Q 1709 2638 2094 2638 
Q 2481 2638 2743 2875 
Q 3006 3113 3088 3541 
z
M 2547 2484 
Q 3063 2413 3297 2092 
Q 3531 1772 3434 1275 
Q 3309 619 2823 264 
Q 2338 -91 1563 -91 
Q 791 -91 444 264 
Q 97 619 222 1275 
Q 319 1772 678 2092 
Q 1038 2413 1588 2484 
Q 1131 2569 932 2842 
Q 734 3116 816 3541 
Q 925 4103 1376 4426 
Q 1828 4750 2506 4750 
Q 3184 4750 3507 4426 
Q 3831 4103 3722 3541 
Q 3641 3116 3336 2842 
Q 3031 2569 2547 2484 
z
" transform="scale(0.015625)"/>
     </defs>
     <use xlink:href="#DejaVuSerif-Italic-38"/>
    </g>
   </g>
   <g id="text_37">
    <!-- 9 -->
    <g style="fill: #ff0000" transform="translate(155.039126 59.630228) scale(0.09 -0.09)">
     <defs>
      <path id="DejaVuSerif-Italic-39" d="M 2947 2091 
Q 2694 1856 2398 1740 
Q 2103 1625 1763 1625 
Q 1069 1625 748 2044 
Q 428 2463 569 3188 
Q 706 3897 1226 4323 
Q 1747 4750 2475 4750 
Q 3266 4750 3573 4161 
Q 3881 3572 3669 2478 
Q 3431 1253 2797 581 
Q 2163 -91 1250 -91 
Q 1003 -91 740 -44 
Q 478 3 213 97 
L 363 872 
L 713 872 
Q 694 556 864 387 
Q 1034 219 1375 219 
Q 1981 219 2367 676 
Q 2753 1134 2947 2091 
z
M 2388 4441 
Q 1944 4441 1645 4117 
Q 1347 3794 1230 3187 
Q 1113 2581 1284 2256 
Q 1456 1931 1900 1931 
Q 2344 1931 2641 2245 
Q 2938 2559 3053 3150 
Q 3175 3772 3001 4106 
Q 2828 4441 2388 4441 
z
" transform="scale(0.015625)"/>
     </defs>
     <use xlink:href="#DejaVuSerif-Italic-39"/>
    </g>
   </g>
   <g id="text_38">
    <!-- 10 -->
    <g style="fill: #ff0000" transform="translate(162.245709 80.876705) scale(0.09 -0.09)">
     <use xlink:href="#DejaVuSerif-Italic-31"/>
     <use xlink:href="#DejaVuSerif-Italic-30" transform="translate(63.623047 0)"/>
    </g>
   </g>
   <g id="text_39">
    <!-- 11 -->
    <g style="fill: #ff0000" transform="translate(175.060512 80.536176) scale(0.09 -0.09)">
     <use xlink:href="#DejaVuSerif-Italic-31"/>
     <use xlink:href="#DejaVuSerif-Italic-31" transform="translate(63.623047 0)"/>
    </g>
   </g>
   <g id="text_40">
    <!-- 12 -->
    <g style="fill: #ff0000" transform="translate(159.2669 70.351281) scale(0.09 -0.09)">
     <use xlink:href="#DejaVuSerif-Italic-31"/>
     <use xlink:href="#DejaVuSerif-Italic-32" transform="translate(63.623047 0)"/>
    </g>
   </g>
   <g id="text_41">
    <!-- 13 -->
    <g style="fill: #ff0000" transform="translate(160.406585 73.79893) scale(0.09 -0.09)">
     <use xlink:href="#DejaVuSerif-Italic-31"/>
     <use xlink:href="#DejaVuSerif-Italic-33" transform="translate(63.623047 0)"/>
    </g>
   </g>
   <g id="text_42">
    <!-- 14 -->
    <g style="fill: #ff0000" transform="translate(171.864322 70.022295) scale(0.09 -0.09)">
     <use xlink:href="#DejaVuSerif-Italic-31"/>
     <use xlink:href="#DejaVuSerif-Italic-34" transform="translate(63.623047 0)"/>
    </g>
   </g>
   <g id="Path3DCollection_2">
    <g clip-path="url(#p07948769fe)">
     <use xlink:href="#m5b4f10808b" x="167.856253" y="168.624086" style="fill: #87ceeb; stroke: #87ceeb"/>
    </g>
   </g>
   <g id="Path3DCollection_3">
    <g clip-path="url(#p07948769fe)">
     <use xlink:href="#m5b4f10808b" x="170.147067" y="176.347887" style="fill: #87ceeb; stroke: #87ceeb"/>
    </g>
   </g>
   <g id="legend_1">
    <g id="patch_6">
     <path d="M 14.2 44.55625 
L 68.870312 44.55625 
Q 70.870312 44.55625 70.870312 42.55625 
L 70.870312 14.2 
Q 70.870312 12.2 68.870312 12.2 
L 14.2 12.2 
Q 12.2 12.2 12.2 14.2 
L 12.2 42.55625 
Q 12.2 44.55625 14.2 44.55625 
z
" style="fill: #ffffff; opacity: 0.8; stroke: #cccccc; stroke-linejoin: miter"/>
    </g>
    <g id="line2d_37">
     <defs>
      <path id="m913190a984" d="M 0 3 
C 0.795609 3 1.55874 2.683901 2.12132 2.12132 
C 2.683901 1.55874 3 0.795609 3 0 
C 3 -0.795609 2.683901 -1.55874 2.12132 -2.12132 
C 1.55874 -2.683901 0.795609 -3 0 -3 
C -0.795609 -3 -1.55874 -2.683901 -2.12132 -2.12132 
C -2.683901 -1.55874 -3 -0.795609 -3 0 
C -3 0.795609 -2.683901 1.55874 -2.12132 2.12132 
C -1.55874 2.683901 -0.795609 3 0 3 
z
" style="stroke: #87ceeb"/>
     </defs>
     <g>
      <use xlink:href="#m913190a984" x="26.2" y="20.298437" style="fill: #87ceeb; stroke: #87ceeb"/>
     </g>
    </g>
    <g id="text_43">
     <!-- GS -->
     <g transform="translate(44.2 23.798437) scale(0.1 -0.1)">
      <defs>
       <path id="DejaVuSerif-47" d="M 4097 3272 
Q 3988 3856 3641 4136 
Q 3294 4416 2675 4416 
Q 1869 4416 1472 3897 
Q 1075 3378 1075 2328 
Q 1075 1300 1484 772 
Q 1894 244 2688 244 
Q 3041 244 3362 331 
Q 3684 419 3975 594 
L 3975 1797 
L 3097 1797 
L 3097 2131 
L 4609 2131 
L 4609 391 
Q 4194 150 3714 29 
Q 3234 -91 2688 -91 
Q 1631 -91 995 570 
Q 359 1231 359 2328 
Q 359 3434 996 4092 
Q 1634 4750 2713 4750 
Q 3113 4750 3539 4658 
Q 3966 4566 4447 4378 
L 4447 3272 
L 4097 3272 
z
" transform="scale(0.015625)"/>
       <path id="DejaVuSerif-53" d="M 594 225 
L 594 1288 
L 953 1284 
Q 969 753 1261 498 
Q 1553 244 2150 244 
Q 2706 244 2998 464 
Q 3291 684 3291 1106 
Q 3291 1444 3114 1625 
Q 2938 1806 2369 1978 
L 1753 2163 
Q 1084 2366 811 2669 
Q 538 2972 538 3500 
Q 538 4094 959 4422 
Q 1381 4750 2144 4750 
Q 2469 4750 2856 4679 
Q 3244 4609 3681 4475 
L 3681 3481 
L 3328 3481 
Q 3275 3975 2998 4195 
Q 2722 4416 2156 4416 
Q 1663 4416 1405 4214 
Q 1147 4013 1147 3628 
Q 1147 3294 1340 3103 
Q 1534 2913 2163 2725 
L 2741 2553 
Q 3375 2363 3645 2067 
Q 3916 1772 3916 1275 
Q 3916 597 3481 253 
Q 3047 -91 2188 -91 
Q 1803 -91 1404 -12 
Q 1006 66 594 225 
z
" transform="scale(0.015625)"/>
      </defs>
      <use xlink:href="#DejaVuSerif-47"/>
      <use xlink:href="#DejaVuSerif-53" transform="translate(79.882812 0)"/>
     </g>
    </g>
    <g id="line2d_38">
     <defs>
      <path id="m9251db7908" d="M 0 3 
C 0.795609 3 1.55874 2.683901 2.12132 2.12132 
C 2.683901 1.55874 3 0.795609 3 0 
C 3 -0.795609 2.683901 -1.55874 2.12132 -2.12132 
C 1.55874 -2.683901 0.795609 -3 0 -3 
C -0.795609 -3 -1.55874 -2.683901 -2.12132 -2.12132 
C -2.683901 -1.55874 -3 -0.795609 -3 0 
C -3 0.795609 -2.683901 1.55874 -2.12132 2.12132 
C -1.55874 2.683901 -0.795609 3 0 3 
z
" style="stroke: #ff0000"/>
     </defs>
     <g>
      <use xlink:href="#m9251db7908" x="26.2" y="34.976562" style="fill: #ff0000; stroke: #ff0000"/>
     </g>
    </g>
    <g id="text_44">
     <!-- HAP -->
     <g transform="translate(44.2 38.476562) scale(0.1 -0.1)">
      <defs>
       <path id="DejaVuSerif-48" d="M 353 0 
L 353 331 
L 947 331 
L 947 4331 
L 353 4331 
L 353 4666 
L 2175 4666 
L 2175 4331 
L 1581 4331 
L 1581 2719 
L 4000 2719 
L 4000 4331 
L 3406 4331 
L 3406 4666 
L 5228 4666 
L 5228 4331 
L 4634 4331 
L 4634 331 
L 5228 331 
L 5228 0 
L 3406 0 
L 3406 331 
L 4000 331 
L 4000 2338 
L 1581 2338 
L 1581 331 
L 2175 331 
L 2175 0 
L 353 0 
z
" transform="scale(0.015625)"/>
       <path id="DejaVuSerif-50" d="M 1581 2375 
L 2406 2375 
Q 2872 2375 3115 2626 
Q 3359 2878 3359 3353 
Q 3359 3831 3115 4081 
Q 2872 4331 2406 4331 
L 1581 4331 
L 1581 2375 
z
M 353 0 
L 353 331 
L 947 331 
L 947 4331 
L 353 4331 
L 353 4666 
L 2559 4666 
Q 3259 4666 3668 4311 
Q 4078 3956 4078 3353 
Q 4078 2753 3668 2397 
Q 3259 2041 2559 2041 
L 1581 2041 
L 1581 331 
L 2303 331 
L 2303 0 
L 353 0 
z
" transform="scale(0.015625)"/>
      </defs>
      <use xlink:href="#DejaVuSerif-48"/>
      <use xlink:href="#DejaVuSerif-41" transform="translate(87.207031 0)"/>
      <use xlink:href="#DejaVuSerif-50" transform="translate(159.423828 0)"/>
     </g>
    </g>
   </g>
   <g id="Path3DCollection_4">
    <g clip-path="url(#p07948769fe)">
     <use xlink:href="#m5b4f10808b" x="145.702472" y="177.098458" style="fill: #87ceeb; stroke: #87ceeb"/>
    </g>
   </g>
   <g id="Path3DCollection_5">
    <defs>
     <path id="m45fe37a825" d="M 0 1.118034 
C 0.296506 1.118034 0.580908 1.000231 0.790569 0.790569 
C 1.000231 0.580908 1.118034 0.296506 1.118034 0 
C 1.118034 -0.296506 1.000231 -0.580908 0.790569 -0.790569 
C 0.580908 -1.000231 0.296506 -1.118034 0 -1.118034 
C -0.296506 -1.118034 -0.580908 -1.000231 -0.790569 -0.790569 
C -1.000231 -0.580908 -1.118034 -0.296506 -1.118034 0 
C -1.118034 0.296506 -1.000231 0.580908 -0.790569 0.790569 
C -0.580908 1.000231 -0.296506 1.118034 0 1.118034 
z
" style="stroke: #ff0000"/>
    </defs>
    <g clip-path="url(#p07948769fe)">
     <use xlink:href="#m45fe37a825" x="150.498305" y="54.422483" style="fill: #ff0000; stroke: #ff0000"/>
    </g>
   </g>
   <g id="Path3DCollection_6">
    <g clip-path="url(#p07948769fe)">
     <use xlink:href="#m45fe37a825" x="151.566437" y="57.712863" style="fill: #ff0000; stroke: #ff0000"/>
    </g>
   </g>
   <g id="Path3DCollection_7">
    <g clip-path="url(#p07948769fe)">
     <use xlink:href="#m45fe37a825" x="139.130662" y="58.030738" style="fill: #ff0000; stroke: #ff0000"/>
    </g>
   </g>
   <g id="Path3DCollection_8">
    <g clip-path="url(#p07948769fe)">
     <use xlink:href="#m5b4f10808b" x="173.950946" y="192.461401" style="fill: #87ceeb; stroke: #87ceeb"/>
    </g>
   </g>
   <g id="Path3DCollection_9">
    <g clip-path="url(#p07948769fe)">
     <use xlink:href="#m45fe37a825" x="153.267944" y="64.465461" style="fill: #ff0000; stroke: #ff0000"/>
    </g>
   </g>
   <g id="Path3DCollection_10">
    <g clip-path="url(#p07948769fe)">
     <use xlink:href="#m45fe37a825" x="167.209741" y="64.702351" style="fill: #ff0000; stroke: #ff0000"/>
    </g>
   </g>
   <g id="Path3DCollection_11">
    <g clip-path="url(#p07948769fe)">
     <use xlink:href="#m45fe37a825" x="154.635654" y="65.027774" style="fill: #ff0000; stroke: #ff0000"/>
    </g>
   </g>
   <g id="Path3DCollection_12">
    <g clip-path="url(#p07948769fe)">
     <use xlink:href="#m45fe37a825" x="155.746651" y="68.438032" style="fill: #ff0000; stroke: #ff0000"/>
    </g>
   </g>
   <g id="Path3DCollection_13">
    <g clip-path="url(#p07948769fe)">
     <use xlink:href="#m45fe37a825" x="85.063532" y="69.13275" style="fill: #ff0000; stroke: #ff0000"/>
    </g>
   </g>
   <g id="Path3DCollection_14">
    <g clip-path="url(#p07948769fe)">
     <use xlink:href="#m5b4f10808b" x="37.62327" y="203.810192" style="fill: #87ceeb; stroke: #87ceeb"/>
    </g>
   </g>
   <g id="Path3DCollection_15">
    <g clip-path="url(#p07948769fe)">
     <use xlink:href="#m45fe37a825" x="169.111997" y="71.616163" style="fill: #ff0000; stroke: #ff0000"/>
    </g>
   </g>
   <g id="Path3DCollection_16">
    <g clip-path="url(#p07948769fe)">
     <use xlink:href="#m45fe37a825" x="170.318499" y="75.101981" style="fill: #ff0000; stroke: #ff0000"/>
    </g>
   </g>
   <g id="Path3DCollection_17">
    <g clip-path="url(#p07948769fe)">
     <use xlink:href="#m45fe37a825" x="157.527842" y="75.438797" style="fill: #ff0000; stroke: #ff0000"/>
    </g>
   </g>
   <g id="Path3DCollection_18">
    <g clip-path="url(#p07948769fe)">
     <use xlink:href="#m45fe37a825" x="100.212072" y="76.395967" style="fill: #ff0000; stroke: #ff0000"/>
    </g>
   </g>
   <g id="Path3DCollection_19">
    <g clip-path="url(#p07948769fe)">
     <use xlink:href="#m45fe37a825" x="101.028871" y="79.937124" style="fill: #ff0000; stroke: #ff0000"/>
    </g>
   </g>
   <g id="Path3DCollection_20">
    <g clip-path="url(#p07948769fe)">
     <use xlink:href="#m45fe37a825" x="88.098161" y="80.279304" style="fill: #ff0000; stroke: #ff0000"/>
    </g>
   </g>
   <g id="Path3DCollection_21">
    <g clip-path="url(#p07948769fe)">
     <use xlink:href="#m45fe37a825" x="102.197031" y="87.208995" style="fill: #ff0000; stroke: #ff0000"/>
    </g>
   </g>
  </g>
 </g>
 <defs>
  <clipPath id="p07948769fe">
   <rect x="7.2" y="7.2" width="266.4" height="266.4"/>
  </clipPath>
 </defs>
</svg>
