<?xml version="1.0" encoding="utf-8" standalone="no"?>
<!DOCTYPE svg PUBLIC "-//W3C//DTD SVG 1.1//EN"
  "http://www.w3.org/Graphics/SVG/1.1/DTD/svg11.dtd">
<svg xmlns:xlink="http://www.w3.org/1999/xlink" width="293.302647pt" height="280.8pt" viewBox="0 0 293.302647 280.8" xmlns="http://www.w3.org/2000/svg" version="1.1">
 <metadata>
  <rdf:RDF xmlns:dc="http://purl.org/dc/elements/1.1/" xmlns:cc="http://creativecommons.org/ns#" xmlns:rdf="http://www.w3.org/1999/02/22-rdf-syntax-ns#">
   <cc:Work>
    <dc:type rdf:resource="http://purl.org/dc/dcmitype/StillImage"/>
    <dc:date>2026-02-04T21:03:28.675881</dc:date>
    <dc:format>image/svg+xml</dc:format>
    <dc:creator>
     <cc:Agent>
      <dc:title>Matplotlib v3.10.8, https://matplotlib.org/</dc:title>
     </cc:Agent>
    </dc:creator>
   </cc:Work>
  </rdf:RDF>
 </metadata>
 <defs>
  <style type="text/css">*{stroke-linejoin: round; stroke-linecap: butt}</style>
 </defs>
 <g id="figure_1">
  <g id="patch_1">
   <path d="M 0 280.8 
L 293.302647 280.8 
L 293.302647 0 
L 0 0 
z
" style="fill: #ffffff"/>
  </g>
  <g id="patch_2">
   <path d="M 7.2 273.6 
L 273.6 273.6 
L 273.6 7.2 
L 7.2 7.2 
z
" style="fill: #ffffff"/>
  </g>
  <g id="pane3d_1">
   <g id="patch_3">
    <path d="M 26.809092 208.384629 
L 115.28431 144.835407 
L 114.257078 34.654119 
L 22.209431 89.988907 
" style="fill: #f2f2f2; opacity: 0.5; stroke: #f2f2f2; stroke-linejoin: miter"/>
   </g>
  </g>
  <g id="pane3d_2">
   <g id="patch_4">
    <path d="M 115.28431 144.835407 
L 256.73488 180.130473 
L 260.985057 65.341113 
L 114.257078 34.654119 
" style="fill: #e6e6e6; opacity: 0.5; stroke: #e6e6e6; stroke-linejoin: miter"/>
   </g>
  </g>
  <g id="pane3d_3">
   <g id="patch_5">
    <path d="M 26.809092 208.384629 
L 177.193469 250.796066 
L 256.73488 180.130473 
L 115.28431 144.835407 
" style="fill: #ececec; opacity: 0.5; stroke: #ececec; stroke-linejoin: miter"/>
   </g>
  </g>
  <g id="grid3d_1">
   <g id="Line3DCollection_1">
    <path d="M 40.202374 212.161805 
L 127.937937 147.992769 
L 127.360591 37.394615 
" style="fill: none; stroke: #b0b0b0; stroke-width: 0.8"/>
    <path d="M 67.808815 219.94738 
L 153.985124 154.492122 
L 154.347577 43.038729 
" style="fill: none; stroke: #b0b0b0; stroke-width: 0.8"/>
    <path d="M 95.996892 227.896989 
L 180.533038 161.116417 
L 181.872376 48.795323 
" style="fill: none; stroke: #b0b0b0; stroke-width: 0.8"/>
    <path d="M 124.785184 236.015869 
L 207.596257 167.869293 
L 209.951227 54.667792 
" style="fill: none; stroke: #b0b0b0; stroke-width: 0.8"/>
    <path d="M 154.193066 244.309487 
L 235.189933 174.754529 
L 238.601029 60.659671 
" style="fill: none; stroke: #b0b0b0; stroke-width: 0.8"/>
   </g>
  </g>
  <g id="grid3d_2">
   <g id="Line3DCollection_2">
    <path d="M 33.343337 83.295718 
L 37.479399 200.720452 
L 186.827494 242.237077 
" style="fill: none; stroke: #b0b0b0; stroke-width: 0.8"/>
    <path d="M 47.241639 74.940701 
L 50.811127 191.144653 
L 198.848547 231.557422 
" style="fill: none; stroke: #b0b0b0; stroke-width: 0.8"/>
    <path d="M 60.769147 66.808589 
L 63.800128 181.815024 
L 210.543596 221.167393 
" style="fill: none; stroke: #b0b0b0; stroke-width: 0.8"/>
    <path d="M 73.940504 58.890578 
L 76.459451 172.722194 
L 221.925724 211.055367 
" style="fill: none; stroke: #b0b0b0; stroke-width: 0.8"/>
    <path d="M 86.769592 51.178324 
L 88.801491 163.857259 
L 233.007324 201.210333 
" style="fill: none; stroke: #b0b0b0; stroke-width: 0.8"/>
    <path d="M 99.269581 43.663908 
L 100.838028 155.211759 
L 243.800144 191.621856 
" style="fill: none; stroke: #b0b0b0; stroke-width: 0.8"/>
    <path d="M 111.452975 36.339815 
L 112.580266 146.777645 
L 254.315327 182.280034 
" style="fill: none; stroke: #b0b0b0; stroke-width: 0.8"/>
   </g>
  </g>
  <g id="grid3d_3">
   <g id="Line3DCollection_3">
    <path d="M 256.812212 178.041891 
L 115.265585 142.827005 
L 26.725524 206.233581 
" style="fill: none; stroke: #b0b0b0; stroke-width: 0.8"/>
    <path d="M 257.591403 156.99739 
L 115.076988 122.59798 
L 25.883242 184.553167 
" style="fill: none; stroke: #b0b0b0; stroke-width: 0.8"/>
    <path d="M 258.381433 135.660158 
L 114.885898 102.101655 
L 25.028774 162.559076 
" style="fill: none; stroke: #b0b0b0; stroke-width: 0.8"/>
    <path d="M 259.182529 114.024047 
L 114.692267 81.332698 
L 24.161853 140.244452 
" style="fill: none; stroke: #b0b0b0; stroke-width: 0.8"/>
    <path d="M 259.994925 92.082732 
L 114.496043 60.285631 
L 23.282206 117.602235 
" style="fill: none; stroke: #b0b0b0; stroke-width: 0.8"/>
    <path d="M 260.818863 69.829708 
L 114.297174 38.954832 
L 22.389549 94.62516 
" style="fill: none; stroke: #b0b0b0; stroke-width: 0.8"/>
   </g>
  </g>
  <g id="axis3d_1">
   <g id="line2d_1">
    <path d="M 26.809092 208.384629 
L 177.193469 250.796066 
" style="fill: none; stroke: #000000; stroke-width: 0.8; stroke-linecap: square"/>
   </g>
   <g id="xtick_1">
    <g id="line2d_2">
     <path d="M 40.969656 211.600622 
L 38.664343 213.286708 
" style="fill: none; stroke: #000000; stroke-width: 0.8; stroke-linecap: square"/>
    </g>
    <g id="text_1">
     <!-- 277 -->
     <g transform="translate(22.994293 235.128544) scale(0.1 -0.1)">
      <defs>
       <path id="DejaVuSerif-32" d="M 819 3553 
L 469 3553 
L 469 4384 
Q 803 4563 1142 4656 
Q 1481 4750 1806 4750 
Q 2534 4750 2956 4397 
Q 3378 4044 3378 3438 
Q 3378 2753 2422 1800 
Q 2347 1728 2309 1691 
L 1131 513 
L 3078 513 
L 3078 1088 
L 3444 1088 
L 3444 0 
L 434 0 
L 434 341 
L 1850 1753 
Q 2319 2222 2519 2614 
Q 2719 3006 2719 3438 
Q 2719 3909 2473 4175 
Q 2228 4441 1797 4441 
Q 1350 4441 1106 4219 
Q 863 3997 819 3553 
z
" transform="scale(0.015625)"/>
       <path id="DejaVuSerif-37" d="M 3609 4347 
L 1784 0 
L 1319 0 
L 3059 4153 
L 903 4153 
L 903 3578 
L 538 3578 
L 538 4666 
L 3609 4666 
L 3609 4347 
z
" transform="scale(0.015625)"/>
      </defs>
      <use xlink:href="#DejaVuSerif-32"/>
      <use xlink:href="#DejaVuSerif-37" transform="translate(63.623047 0)"/>
      <use xlink:href="#DejaVuSerif-37" transform="translate(127.246094 0)"/>
     </g>
    </g>
   </g>
   <g id="xtick_2">
    <g id="line2d_3">
     <path d="M 68.56313 219.37444 
L 66.296741 221.095877 
" style="fill: none; stroke: #000000; stroke-width: 0.8; stroke-linecap: square"/>
    </g>
    <g id="text_2">
     <!-- 278 -->
     <g transform="translate(50.650626 243.111792) scale(0.1 -0.1)">
      <defs>
       <path id="DejaVuSerif-38" d="M 2981 1275 
Q 2981 1775 2732 2051 
Q 2484 2328 2034 2328 
Q 1584 2328 1336 2051 
Q 1088 1775 1088 1275 
Q 1088 772 1336 495 
Q 1584 219 2034 219 
Q 2484 219 2732 495 
Q 2981 772 2981 1275 
z
M 2853 3541 
Q 2853 3966 2637 4203 
Q 2422 4441 2034 4441 
Q 1650 4441 1433 4203 
Q 1216 3966 1216 3541 
Q 1216 3113 1433 2875 
Q 1650 2638 2034 2638 
Q 2422 2638 2637 2875 
Q 2853 3113 2853 3541 
z
M 2516 2484 
Q 3047 2413 3344 2092 
Q 3641 1772 3641 1275 
Q 3641 619 3225 264 
Q 2809 -91 2034 -91 
Q 1263 -91 845 264 
Q 428 619 428 1275 
Q 428 1772 725 2092 
Q 1022 2413 1556 2484 
Q 1084 2569 832 2842 
Q 581 3116 581 3541 
Q 581 4103 968 4426 
Q 1356 4750 2034 4750 
Q 2713 4750 3100 4426 
Q 3488 4103 3488 3541 
Q 3488 3116 3236 2842 
Q 2984 2569 2516 2484 
z
" transform="scale(0.015625)"/>
      </defs>
      <use xlink:href="#DejaVuSerif-32"/>
      <use xlink:href="#DejaVuSerif-37" transform="translate(63.623047 0)"/>
      <use xlink:href="#DejaVuSerif-38" transform="translate(127.246094 0)"/>
     </g>
    </g>
   </g>
   <g id="xtick_3">
    <g id="line2d_4">
     <path d="M 96.737521 227.311918 
L 94.512218 229.069829 
" style="fill: none; stroke: #000000; stroke-width: 0.8; stroke-linecap: square"/>
    </g>
    <g id="text_3">
     <!-- 279 -->
     <g transform="translate(78.892423 251.264041) scale(0.1 -0.1)">
      <defs>
       <path id="DejaVuSerif-39" d="M 2994 2091 
Q 2784 1856 2512 1740 
Q 2241 1625 1900 1625 
Q 1206 1625 804 2044 
Q 403 2463 403 3188 
Q 403 3897 839 4323 
Q 1275 4750 2003 4750 
Q 2794 4750 3217 4161 
Q 3641 3572 3641 2478 
Q 3641 1253 3137 581 
Q 2634 -91 1722 -91 
Q 1475 -91 1203 -44 
Q 931 3 647 97 
L 647 872 
L 997 872 
Q 1038 556 1241 387 
Q 1444 219 1784 219 
Q 2391 219 2687 676 
Q 2984 1134 2994 2091 
z
M 1978 4441 
Q 1534 4441 1298 4117 
Q 1063 3794 1063 3188 
Q 1063 2581 1298 2256 
Q 1534 1931 1978 1931 
Q 2422 1931 2658 2245 
Q 2894 2559 2894 3150 
Q 2894 3772 2656 4106 
Q 2419 4441 1978 4441 
z
" transform="scale(0.015625)"/>
      </defs>
      <use xlink:href="#DejaVuSerif-32"/>
      <use xlink:href="#DejaVuSerif-37" transform="translate(63.623047 0)"/>
      <use xlink:href="#DejaVuSerif-39" transform="translate(127.246094 0)"/>
     </g>
    </g>
   </g>
   <g id="xtick_4">
    <g id="line2d_5">
     <path d="M 125.511369 235.418279 
L 123.329426 237.213836 
" style="fill: none; stroke: #000000; stroke-width: 0.8; stroke-linecap: square"/>
    </g>
    <g id="text_4">
     <!-- 280 -->
     <g transform="translate(107.738474 259.590712) scale(0.1 -0.1)">
      <defs>
       <path id="DejaVuSerif-30" d="M 2034 219 
Q 2513 219 2750 744 
Q 2988 1269 2988 2328 
Q 2988 3391 2750 3916 
Q 2513 4441 2034 4441 
Q 1556 4441 1318 3916 
Q 1081 3391 1081 2328 
Q 1081 1269 1318 744 
Q 1556 219 2034 219 
z
M 2034 -91 
Q 1275 -91 848 546 
Q 422 1184 422 2328 
Q 422 3475 848 4112 
Q 1275 4750 2034 4750 
Q 2797 4750 3222 4112 
Q 3647 3475 3647 2328 
Q 3647 1184 3222 546 
Q 2797 -91 2034 -91 
z
" transform="scale(0.015625)"/>
      </defs>
      <use xlink:href="#DejaVuSerif-32"/>
      <use xlink:href="#DejaVuSerif-38" transform="translate(63.623047 0)"/>
      <use xlink:href="#DejaVuSerif-30" transform="translate(127.246094 0)"/>
     </g>
    </g>
   </g>
   <g id="xtick_5">
    <g id="line2d_6">
     <path d="M 154.904013 243.698972 
L 152.767823 245.533396 
" style="fill: none; stroke: #000000; stroke-width: 0.8; stroke-linecap: square"/>
    </g>
    <g id="text_5">
     <!-- 281 -->
     <g transform="translate(137.208382 268.097466) scale(0.1 -0.1)">
      <defs>
       <path id="DejaVuSerif-31" d="M 909 0 
L 909 331 
L 1722 331 
L 1722 4213 
L 781 3603 
L 781 4013 
L 1919 4750 
L 2350 4750 
L 2350 331 
L 3163 331 
L 3163 0 
L 909 0 
z
" transform="scale(0.015625)"/>
      </defs>
      <use xlink:href="#DejaVuSerif-32"/>
      <use xlink:href="#DejaVuSerif-38" transform="translate(63.623047 0)"/>
      <use xlink:href="#DejaVuSerif-31" transform="translate(127.246094 0)"/>
     </g>
    </g>
   </g>
   <g id="text_6">
    <!-- Longitude -->
    <g transform="translate(46.23342 266.212809) rotate(-344.250474) scale(0.13 -0.13)">
     <defs>
      <path id="DejaVuSerif-4c" d="M 353 0 
L 353 331 
L 947 331 
L 947 4331 
L 353 4331 
L 353 4666 
L 2175 4666 
L 2175 4331 
L 1581 4331 
L 1581 384 
L 3713 384 
L 3713 1166 
L 4097 1166 
L 4097 0 
L 353 0 
z
" transform="scale(0.015625)"/>
      <path id="DejaVuSerif-6f" d="M 1925 219 
Q 2388 219 2623 584 
Q 2859 950 2859 1663 
Q 2859 2375 2623 2739 
Q 2388 3103 1925 3103 
Q 1463 3103 1227 2739 
Q 991 2375 991 1663 
Q 991 950 1228 584 
Q 1466 219 1925 219 
z
M 1925 -91 
Q 1200 -91 759 389 
Q 319 869 319 1663 
Q 319 2456 758 2934 
Q 1197 3413 1925 3413 
Q 2653 3413 3092 2934 
Q 3531 2456 3531 1663 
Q 3531 869 3092 389 
Q 2653 -91 1925 -91 
z
" transform="scale(0.015625)"/>
      <path id="DejaVuSerif-6e" d="M 263 0 
L 263 331 
L 781 331 
L 781 2988 
L 231 2988 
L 231 3322 
L 1356 3322 
L 1356 2731 
Q 1516 3069 1770 3241 
Q 2025 3413 2363 3413 
Q 2913 3413 3172 3097 
Q 3431 2781 3431 2113 
L 3431 331 
L 3944 331 
L 3944 0 
L 2356 0 
L 2356 331 
L 2853 331 
L 2853 1931 
Q 2853 2541 2703 2767 
Q 2553 2994 2175 2994 
Q 1775 2994 1565 2701 
Q 1356 2409 1356 1850 
L 1356 331 
L 1856 331 
L 1856 0 
L 263 0 
z
" transform="scale(0.015625)"/>
      <path id="DejaVuSerif-67" d="M 3359 2988 
L 3359 72 
Q 3359 -644 2965 -1033 
Q 2572 -1422 1844 -1422 
Q 1516 -1422 1216 -1362 
Q 916 -1303 641 -1184 
L 641 -488 
L 941 -488 
Q 997 -813 1206 -963 
Q 1416 -1113 1806 -1113 
Q 2313 -1113 2548 -827 
Q 2784 -541 2784 72 
L 2784 519 
Q 2616 206 2355 57 
Q 2094 -91 1709 -91 
Q 1097 -91 708 395 
Q 319 881 319 1663 
Q 319 2444 706 2928 
Q 1094 3413 1709 3413 
Q 2094 3413 2355 3264 
Q 2616 3116 2784 2803 
L 2784 3322 
L 3909 3322 
L 3909 2988 
L 3359 2988 
z
M 2784 1825 
Q 2784 2422 2554 2737 
Q 2325 3053 1888 3053 
Q 1444 3053 1217 2703 
Q 991 2353 991 1663 
Q 991 975 1217 622 
Q 1444 269 1888 269 
Q 2325 269 2554 583 
Q 2784 897 2784 1497 
L 2784 1825 
z
" transform="scale(0.015625)"/>
      <path id="DejaVuSerif-69" d="M 622 4353 
Q 622 4497 726 4603 
Q 831 4709 978 4709 
Q 1122 4709 1226 4603 
Q 1331 4497 1331 4353 
Q 1331 4206 1228 4103 
Q 1125 4000 978 4000 
Q 831 4000 726 4103 
Q 622 4206 622 4353 
z
M 1356 331 
L 1900 331 
L 1900 0 
L 231 0 
L 231 331 
L 781 331 
L 781 2988 
L 231 2988 
L 231 3322 
L 1356 3322 
L 1356 331 
z
" transform="scale(0.015625)"/>
      <path id="DejaVuSerif-74" d="M 691 2988 
L 184 2988 
L 184 3322 
L 691 3322 
L 691 4353 
L 1269 4353 
L 1269 3322 
L 2350 3322 
L 2350 2988 
L 1269 2988 
L 1269 878 
Q 1269 456 1350 337 
Q 1431 219 1650 219 
Q 1875 219 1978 351 
Q 2081 484 2088 781 
L 2522 781 
Q 2497 328 2275 118 
Q 2053 -91 1600 -91 
Q 1103 -91 897 129 
Q 691 350 691 878 
L 691 2988 
z
" transform="scale(0.015625)"/>
      <path id="DejaVuSerif-75" d="M 2266 3322 
L 3341 3322 
L 3341 331 
L 3884 331 
L 3884 0 
L 2766 0 
L 2766 588 
Q 2606 256 2353 82 
Q 2100 -91 1766 -91 
Q 1213 -91 952 223 
Q 691 538 691 1209 
L 691 2988 
L 172 2988 
L 172 3322 
L 1269 3322 
L 1269 1388 
Q 1269 781 1417 556 
Q 1566 331 1947 331 
Q 2347 331 2556 625 
Q 2766 919 2766 1478 
L 2766 2988 
L 2266 2988 
L 2266 3322 
z
" transform="scale(0.015625)"/>
      <path id="DejaVuSerif-64" d="M 3359 331 
L 3909 331 
L 3909 0 
L 2784 0 
L 2784 519 
Q 2616 206 2355 57 
Q 2094 -91 1709 -91 
Q 1097 -91 708 395 
Q 319 881 319 1663 
Q 319 2444 706 2928 
Q 1094 3413 1709 3413 
Q 2094 3413 2355 3264 
Q 2616 3116 2784 2803 
L 2784 4531 
L 2241 4531 
L 2241 4863 
L 3359 4863 
L 3359 331 
z
M 2784 1497 
L 2784 1825 
Q 2784 2422 2554 2737 
Q 2325 3053 1888 3053 
Q 1444 3053 1217 2703 
Q 991 2353 991 1663 
Q 991 975 1217 622 
Q 1444 269 1888 269 
Q 2325 269 2554 583 
Q 2784 897 2784 1497 
z
" transform="scale(0.015625)"/>
      <path id="DejaVuSerif-65" d="M 3469 1600 
L 991 1600 
L 991 1575 
Q 991 903 1244 561 
Q 1497 219 1991 219 
Q 2369 219 2611 417 
Q 2853 616 2950 1006 
L 3413 1006 
Q 3275 459 2904 184 
Q 2534 -91 1931 -91 
Q 1203 -91 761 389 
Q 319 869 319 1663 
Q 319 2450 753 2931 
Q 1188 3413 1894 3413 
Q 2647 3413 3050 2948 
Q 3453 2484 3469 1600 
z
M 2791 1931 
Q 2772 2513 2545 2808 
Q 2319 3103 1894 3103 
Q 1497 3103 1269 2806 
Q 1041 2509 991 1931 
L 2791 1931 
z
" transform="scale(0.015625)"/>
     </defs>
     <use xlink:href="#DejaVuSerif-4c"/>
     <use xlink:href="#DejaVuSerif-6f" transform="translate(66.40625 0)"/>
     <use xlink:href="#DejaVuSerif-6e" transform="translate(126.611328 0)"/>
     <use xlink:href="#DejaVuSerif-67" transform="translate(191.015625 0)"/>
     <use xlink:href="#DejaVuSerif-69" transform="translate(255.029297 0)"/>
     <use xlink:href="#DejaVuSerif-74" transform="translate(287.011719 0)"/>
     <use xlink:href="#DejaVuSerif-75" transform="translate(327.197266 0)"/>
     <use xlink:href="#DejaVuSerif-64" transform="translate(391.601562 0)"/>
     <use xlink:href="#DejaVuSerif-65" transform="translate(455.615234 0)"/>
    </g>
   </g>
  </g>
  <g id="axis3d_2">
   <g id="line2d_7">
    <path d="M 256.73488 180.130473 
L 177.193469 250.796066 
" style="fill: none; stroke: #000000; stroke-width: 0.8; stroke-linecap: square"/>
   </g>
   <g id="xtick_6">
    <g id="line2d_8">
     <path d="M 185.565828 241.886352 
L 189.354247 242.939478 
" style="fill: none; stroke: #000000; stroke-width: 0.8; stroke-linecap: square"/>
    </g>
    <g id="text_7">
     <!-- 46.5 -->
     <g transform="translate(188.649946 263.25141) scale(0.1 -0.1)">
      <defs>
       <path id="DejaVuSerif-34" d="M 2234 1581 
L 2234 4063 
L 641 1581 
L 2234 1581 
z
M 3609 0 
L 1484 0 
L 1484 331 
L 2234 331 
L 2234 1247 
L 197 1247 
L 197 1588 
L 2241 4750 
L 2859 4750 
L 2859 1581 
L 3750 1581 
L 3750 1247 
L 2859 1247 
L 2859 331 
L 3609 331 
L 3609 0 
z
" transform="scale(0.015625)"/>
       <path id="DejaVuSerif-36" d="M 2094 219 
Q 2534 219 2771 542 
Q 3009 866 3009 1472 
Q 3009 2078 2771 2401 
Q 2534 2725 2094 2725 
Q 1647 2725 1412 2412 
Q 1178 2100 1178 1509 
Q 1178 888 1415 553 
Q 1653 219 2094 219 
z
M 1075 2569 
Q 1288 2803 1556 2918 
Q 1825 3034 2163 3034 
Q 2859 3034 3264 2615 
Q 3669 2197 3669 1472 
Q 3669 763 3233 336 
Q 2797 -91 2069 -91 
Q 1278 -91 853 498 
Q 428 1088 428 2181 
Q 428 3406 931 4078 
Q 1434 4750 2350 4750 
Q 2597 4750 2869 4703 
Q 3141 4656 3425 4563 
L 3425 3794 
L 3072 3794 
Q 3034 4109 2831 4275 
Q 2628 4441 2284 4441 
Q 1678 4441 1381 3981 
Q 1084 3522 1075 2569 
z
" transform="scale(0.015625)"/>
       <path id="DejaVuSerif-2e" d="M 603 325 
Q 603 500 722 622 
Q 841 744 1019 744 
Q 1191 744 1312 622 
Q 1434 500 1434 325 
Q 1434 153 1312 31 
Q 1191 -91 1019 -91 
Q 841 -91 722 29 
Q 603 150 603 325 
z
" transform="scale(0.015625)"/>
       <path id="DejaVuSerif-35" d="M 3219 4666 
L 3219 4153 
L 1081 4153 
L 1081 2816 
Q 1244 2928 1461 2984 
Q 1678 3041 1947 3041 
Q 2703 3041 3140 2622 
Q 3578 2203 3578 1478 
Q 3578 738 3136 323 
Q 2694 -91 1894 -91 
Q 1572 -91 1234 -12 
Q 897 66 544 225 
L 544 1131 
L 897 1131 
Q 925 688 1179 453 
Q 1434 219 1894 219 
Q 2388 219 2653 544 
Q 2919 869 2919 1478 
Q 2919 2084 2655 2407 
Q 2391 2731 1894 2731 
Q 1613 2731 1398 2631 
Q 1184 2531 1019 2322 
L 750 2322 
L 750 4666 
L 3219 4666 
z
" transform="scale(0.015625)"/>
      </defs>
      <use xlink:href="#DejaVuSerif-34"/>
      <use xlink:href="#DejaVuSerif-36" transform="translate(63.623047 0)"/>
      <use xlink:href="#DejaVuSerif-2e" transform="translate(127.246094 0)"/>
      <use xlink:href="#DejaVuSerif-35" transform="translate(159.033203 0)"/>
     </g>
    </g>
   </g>
   <g id="xtick_7">
    <g id="line2d_9">
     <path d="M 197.598865 231.216271 
L 201.351255 232.240636 
" style="fill: none; stroke: #000000; stroke-width: 0.8; stroke-linecap: square"/>
    </g>
    <g id="text_8">
     <!-- 47.0 -->
     <g transform="translate(200.509362 252.372249) scale(0.1 -0.1)">
      <use xlink:href="#DejaVuSerif-34"/>
      <use xlink:href="#DejaVuSerif-37" transform="translate(63.623047 0)"/>
      <use xlink:href="#DejaVuSerif-2e" transform="translate(127.246094 0)"/>
      <use xlink:href="#DejaVuSerif-30" transform="translate(159.033203 0)"/>
     </g>
    </g>
   </g>
   <g id="xtick_8">
    <g id="line2d_10">
     <path d="M 209.305715 220.835429 
L 213.022624 221.832197 
" style="fill: none; stroke: #000000; stroke-width: 0.8; stroke-linecap: square"/>
    </g>
    <g id="text_9">
     <!-- 47.5 -->
     <g transform="translate(212.046717 241.788529) scale(0.1 -0.1)">
      <use xlink:href="#DejaVuSerif-34"/>
      <use xlink:href="#DejaVuSerif-37" transform="translate(63.623047 0)"/>
      <use xlink:href="#DejaVuSerif-2e" transform="translate(127.246094 0)"/>
      <use xlink:href="#DejaVuSerif-35" transform="translate(159.033203 0)"/>
     </g>
    </g>
   </g>
   <g id="xtick_9">
    <g id="line2d_11">
     <path d="M 220.699464 210.732224 
L 224.381435 211.702494 
" style="fill: none; stroke: #000000; stroke-width: 0.8; stroke-linecap: square"/>
    </g>
    <g id="text_10">
     <!-- 48.0 -->
     <g transform="translate(223.274953 231.488378) scale(0.1 -0.1)">
      <use xlink:href="#DejaVuSerif-34"/>
      <use xlink:href="#DejaVuSerif-38" transform="translate(63.623047 0)"/>
      <use xlink:href="#DejaVuSerif-2e" transform="translate(127.246094 0)"/>
      <use xlink:href="#DejaVuSerif-30" transform="translate(159.033203 0)"/>
     </g>
    </g>
   </g>
   <g id="xtick_10">
    <g id="line2d_12">
     <path d="M 231.792508 200.895664 
L 235.440077 201.84048 
" style="fill: none; stroke: #000000; stroke-width: 0.8; stroke-linecap: square"/>
    </g>
    <g id="text_11">
     <!-- 48.5 -->
     <g transform="translate(234.206329 221.460549) scale(0.1 -0.1)">
      <use xlink:href="#DejaVuSerif-34"/>
      <use xlink:href="#DejaVuSerif-38" transform="translate(63.623047 0)"/>
      <use xlink:href="#DejaVuSerif-2e" transform="translate(127.246094 0)"/>
      <use xlink:href="#DejaVuSerif-35" transform="translate(159.033203 0)"/>
     </g>
    </g>
   </g>
   <g id="xtick_11">
    <g id="line2d_13">
     <path d="M 242.596595 191.315332 
L 246.210294 192.235681 
" style="fill: none; stroke: #000000; stroke-width: 0.8; stroke-linecap: square"/>
    </g>
    <g id="text_12">
     <!-- 49.0 -->
     <g transform="translate(244.852465 211.694383) scale(0.1 -0.1)">
      <use xlink:href="#DejaVuSerif-34"/>
      <use xlink:href="#DejaVuSerif-39" transform="translate(63.623047 0)"/>
      <use xlink:href="#DejaVuSerif-2e" transform="translate(127.246094 0)"/>
      <use xlink:href="#DejaVuSerif-30" transform="translate(159.033203 0)"/>
     </g>
    </g>
   </g>
   <g id="xtick_12">
    <g id="line2d_14">
     <path d="M 253.122872 181.981343 
L 256.703224 182.878165 
" style="fill: none; stroke: #000000; stroke-width: 0.8; stroke-linecap: square"/>
    </g>
    <g id="text_13">
     <!-- 49.5 -->
     <g transform="translate(255.224381 202.179771) scale(0.1 -0.1)">
      <use xlink:href="#DejaVuSerif-34"/>
      <use xlink:href="#DejaVuSerif-39" transform="translate(63.623047 0)"/>
      <use xlink:href="#DejaVuSerif-2e" transform="translate(127.246094 0)"/>
      <use xlink:href="#DejaVuSerif-35" transform="translate(159.033203 0)"/>
     </g>
    </g>
   </g>
   <g id="text_14">
    <!-- Latitude -->
    <g transform="translate(234.356996 269.686639) rotate(-41.618292) scale(0.13 -0.13)">
     <defs>
      <path id="DejaVuSerif-61" d="M 2547 1044 
L 2547 1747 
L 1806 1747 
Q 1378 1747 1168 1562 
Q 959 1378 959 997 
Q 959 650 1171 447 
Q 1384 244 1747 244 
Q 2106 244 2326 466 
Q 2547 688 2547 1044 
z
M 3122 2075 
L 3122 331 
L 3634 331 
L 3634 0 
L 2547 0 
L 2547 359 
Q 2356 128 2106 18 
Q 1856 -91 1522 -91 
Q 969 -91 644 203 
Q 319 497 319 997 
Q 319 1513 691 1797 
Q 1063 2081 1741 2081 
L 2547 2081 
L 2547 2309 
Q 2547 2688 2317 2895 
Q 2088 3103 1672 3103 
Q 1328 3103 1125 2947 
Q 922 2791 872 2484 
L 575 2484 
L 575 3156 
Q 875 3284 1158 3348 
Q 1441 3413 1709 3413 
Q 2400 3413 2761 3070 
Q 3122 2728 3122 2075 
z
" transform="scale(0.015625)"/>
     </defs>
     <use xlink:href="#DejaVuSerif-4c"/>
     <use xlink:href="#DejaVuSerif-61" transform="translate(66.40625 0)"/>
     <use xlink:href="#DejaVuSerif-74" transform="translate(126.025391 0)"/>
     <use xlink:href="#DejaVuSerif-69" transform="translate(166.210938 0)"/>
     <use xlink:href="#DejaVuSerif-74" transform="translate(198.193359 0)"/>
     <use xlink:href="#DejaVuSerif-75" transform="translate(238.378906 0)"/>
     <use xlink:href="#DejaVuSerif-64" transform="translate(302.783203 0)"/>
     <use xlink:href="#DejaVuSerif-65" transform="translate(366.796875 0)"/>
    </g>
   </g>
  </g>
  <g id="axis3d_3">
   <g id="line2d_15">
    <path d="M 256.73488 180.130473 
L 260.985057 65.341113 
" style="fill: none; stroke: #000000; stroke-width: 0.8; stroke-linecap: square"/>
   </g>
   <g id="xtick_13">
    <g id="line2d_16">
     <path d="M 255.621477 177.745652 
L 259.196656 178.635108 
" style="fill: none; stroke: #000000; stroke-width: 0.8; stroke-linecap: square"/>
    </g>
    <g id="text_15">
     <!-- 0 -->
     <g transform="translate(271.917921 183.399694) scale(0.1 -0.1)">
      <use xlink:href="#DejaVuSerif-30"/>
     </g>
    </g>
   </g>
   <g id="xtick_14">
    <g id="line2d_17">
     <path d="M 256.392121 156.707913 
L 259.992983 157.577071 
" style="fill: none; stroke: #000000; stroke-width: 0.8; stroke-linecap: square"/>
    </g>
    <g id="text_16">
     <!-- 5 -->
     <g transform="translate(272.820553 162.406379) scale(0.1 -0.1)">
      <use xlink:href="#DejaVuSerif-35"/>
     </g>
    </g>
   </g>
   <g id="xtick_15">
    <g id="line2d_18">
     <path d="M 257.17348 135.377661 
L 260.800396 136.225868 
" style="fill: none; stroke: #000000; stroke-width: 0.8; stroke-linecap: square"/>
    </g>
    <g id="text_17">
     <!-- 10 -->
     <g transform="translate(270.554451 141.121978) scale(0.1 -0.1)">
      <use xlink:href="#DejaVuSerif-31"/>
      <use xlink:href="#DejaVuSerif-30" transform="translate(63.623047 0)"/>
     </g>
    </g>
   </g>
   <g id="xtick_16">
    <g id="line2d_19">
     <path d="M 257.965779 113.748754 
L 261.619129 114.575335 
" style="fill: none; stroke: #000000; stroke-width: 0.8; stroke-linecap: square"/>
    </g>
    <g id="text_18">
     <!-- 15 -->
     <g transform="translate(271.482377 119.540394) scale(0.1 -0.1)">
      <use xlink:href="#DejaVuSerif-31"/>
      <use xlink:href="#DejaVuSerif-35" transform="translate(63.623047 0)"/>
     </g>
    </g>
   </g>
   <g id="xtick_17">
    <g id="line2d_20">
     <path d="M 258.76925 91.814875 
L 262.449421 92.619134 
" style="fill: none; stroke: #000000; stroke-width: 0.8; stroke-linecap: square"/>
    </g>
    <g id="text_19">
     <!-- 20 -->
     <g transform="translate(272.42335 97.655359) scale(0.1 -0.1)">
      <use xlink:href="#DejaVuSerif-32"/>
      <use xlink:href="#DejaVuSerif-30" transform="translate(63.623047 0)"/>
     </g>
    </g>
   </g>
   <g id="xtick_18">
    <g id="line2d_21">
     <path d="M 259.584131 69.569527 
L 263.291519 70.350743 
" style="fill: none; stroke: #000000; stroke-width: 0.8; stroke-linecap: square"/>
    </g>
    <g id="text_20">
     <!-- 25 -->
     <g transform="translate(273.377647 75.460427) scale(0.1 -0.1)">
      <use xlink:href="#DejaVuSerif-32"/>
      <use xlink:href="#DejaVuSerif-35" transform="translate(63.623047 0)"/>
     </g>
    </g>
   </g>
   <g id="text_21">
    <!-- Altitude (km) -->
    <g transform="translate(310.677584 161.763358) rotate(-87.879542) scale(0.13 -0.13)">
     <defs>
      <path id="DejaVuSerif-41" d="M 1281 1691 
L 2994 1691 
L 2138 3909 
L 1281 1691 
z
M -38 0 
L -38 331 
L 372 331 
L 2034 4666 
L 2559 4666 
L 4225 331 
L 4684 331 
L 4684 0 
L 2988 0 
L 2988 331 
L 3506 331 
L 3116 1356 
L 1153 1356 
L 763 331 
L 1275 331 
L 1275 0 
L -38 0 
z
" transform="scale(0.015625)"/>
      <path id="DejaVuSerif-6c" d="M 1313 331 
L 1856 331 
L 1856 0 
L 184 0 
L 184 331 
L 738 331 
L 738 4531 
L 184 4531 
L 184 4863 
L 1313 4863 
L 1313 331 
z
" transform="scale(0.015625)"/>
      <path id="DejaVuSerif-20" transform="scale(0.015625)"/>
      <path id="DejaVuSerif-28" d="M 2041 -997 
Q 1281 -656 893 83 
Q 506 822 506 1931 
Q 506 3044 893 3783 
Q 1281 4522 2041 4863 
L 2041 4556 
Q 1559 4225 1350 3623 
Q 1141 3022 1141 1931 
Q 1141 844 1350 242 
Q 1559 -359 2041 -691 
L 2041 -997 
z
" transform="scale(0.015625)"/>
      <path id="DejaVuSerif-6b" d="M 1831 0 
L 219 0 
L 219 331 
L 738 331 
L 738 4531 
L 184 4531 
L 184 4863 
L 1313 4863 
L 1313 1697 
L 2713 2988 
L 2234 2988 
L 2234 3322 
L 3738 3322 
L 3738 2988 
L 3169 2988 
L 2181 2075 
L 3444 331 
L 3922 331 
L 3922 0 
L 2284 0 
L 2284 331 
L 2759 331 
L 1766 1697 
L 1313 1275 
L 1313 331 
L 1831 331 
L 1831 0 
z
" transform="scale(0.015625)"/>
      <path id="DejaVuSerif-6d" d="M 3316 2675 
Q 3481 3041 3739 3227 
Q 3997 3413 4341 3413 
Q 4863 3413 5119 3089 
Q 5375 2766 5375 2113 
L 5375 331 
L 5894 331 
L 5894 0 
L 4300 0 
L 4300 331 
L 4800 331 
L 4800 2047 
Q 4800 2556 4650 2772 
Q 4500 2988 4153 2988 
Q 3769 2988 3567 2697 
Q 3366 2406 3366 1850 
L 3366 331 
L 3866 331 
L 3866 0 
L 2291 0 
L 2291 331 
L 2791 331 
L 2791 2069 
Q 2791 2566 2641 2777 
Q 2491 2988 2144 2988 
Q 1759 2988 1557 2697 
Q 1356 2406 1356 1850 
L 1356 331 
L 1856 331 
L 1856 0 
L 263 0 
L 263 331 
L 781 331 
L 781 2994 
L 231 2994 
L 231 3322 
L 1356 3322 
L 1356 2731 
Q 1516 3063 1762 3238 
Q 2009 3413 2322 3413 
Q 2709 3413 2968 3220 
Q 3228 3028 3316 2675 
z
" transform="scale(0.015625)"/>
      <path id="DejaVuSerif-29" d="M 453 -997 
L 453 -691 
Q 934 -359 1145 242 
Q 1356 844 1356 1931 
Q 1356 3022 1145 3623 
Q 934 4225 453 4556 
L 453 4863 
Q 1216 4522 1603 3783 
Q 1991 3044 1991 1931 
Q 1991 822 1603 83 
Q 1216 -656 453 -997 
z
" transform="scale(0.015625)"/>
     </defs>
     <use xlink:href="#DejaVuSerif-41"/>
     <use xlink:href="#DejaVuSerif-6c" transform="translate(72.216797 0)"/>
     <use xlink:href="#DejaVuSerif-74" transform="translate(104.199219 0)"/>
     <use xlink:href="#DejaVuSerif-69" transform="translate(144.384766 0)"/>
     <use xlink:href="#DejaVuSerif-74" transform="translate(176.367188 0)"/>
     <use xlink:href="#DejaVuSerif-75" transform="translate(216.552734 0)"/>
     <use xlink:href="#DejaVuSerif-64" transform="translate(280.957031 0)"/>
     <use xlink:href="#DejaVuSerif-65" transform="translate(344.970703 0)"/>
     <use xlink:href="#DejaVuSerif-20" transform="translate(404.150391 0)"/>
     <use xlink:href="#DejaVuSerif-28" transform="translate(435.9375 0)"/>
     <use xlink:href="#DejaVuSerif-6b" transform="translate(474.951172 0)"/>
     <use xlink:href="#DejaVuSerif-6d" transform="translate(535.546875 0)"/>
     <use xlink:href="#DejaVuSerif-29" transform="translate(630.371094 0)"/>
    </g>
   </g>
  </g>
  <g id="axes_1">
   <g id="line2d_22">
    <path d="M 85.063532 69.13275 
L 85.553182 73.508164 
L 85.652757 74.511567 
L 85.586948 74.365423 
L 85.515278 74.222385 
L 85.459611 75.738841 
L 85.236904 75.59511 
L 85.002701 75.487324 
L 84.768154 76.82722 
L 83.955371 81.287874 
L 83.265901 85.882969 
L 83.114401 90.212999 
L 83.311462 93.202436 
L 83.695854 93.564763 
L 84.113427 93.869074 
L 84.506631 92.895334 
L 84.690694 89.919981 
L 84.933345 86.986862 
L 85.102022 85.605847 
L 85.239927 85.53058 
L 85.371624 85.423961 
L 85.644498 83.884913 
L 85.963335 83.864871 
L 86.281614 83.852066 
L 86.598124 83.827078 
L 87.026354 80.802462 
L 87.269438 77.126785 
L 87.393422 76.609645 
L 87.512976 77.717383 
L 87.619019 78.053465 
L 87.719632 78.048461 
L 87.82067 78.018411 
L 87.922228 77.982987 
L 87.924803 78.072689 
L 87.907861 78.197165 
L 87.841897 77.328433 
L 87.754127 77.377143 
L 87.630404 77.446014 
L 87.488173 77.521218 
L 87.340182 77.58635 
L 87.189027 77.646734 
L 87.05808 77.611541 
L 86.934452 77.57817 
L 86.81231 77.532551 
L 86.691263 77.480756 
L 86.56026 79.024612 
L 86.29946 78.496359 
L 86.123658 78.559348 
L 85.988602 76.803732 
L 86.284415 76.497398 
L 86.59216 77.532365 
L 86.767999 77.467142 
L 86.771129 79.515687 
L 86.316784 84.071831 
L 85.581361 87.06336 
L 84.721886 87.245197 
L 83.837181 87.412751 
L 83.323852 87.3308 
L 82.846488 87.169634 
L 82.43099 89.300342 
L 82.109646 89.572729 
L 82.37877 90.738933 
L 82.672475 90.734265 
L 82.967936 90.692178 
L 83.291552 91.989923 
L 83.612781 92.458049 
L 83.942157 93.323941 
L 84.228933 93.585888 
L 84.508123 93.796924 
L 84.84794 93.879915 
L 85.221612 92.983973 
L 85.681508 92.534136 
L 86.197566 92.909862 
L 86.707319 97.531431 
L 86.761371 98.371968 
L 86.845386 98.65202 
L 86.878455 97.181989 
L 87.545783 95.538333 
L 88.398145 95.422986 
L 89.269734 95.275737 
L 90.152427 95.14769 
L 91.373922 94.941905 
L 92.668076 94.800714 
L 93.984419 94.656201 
L 95.324379 94.016554 
L 96.915564 90.90929 
L 98.452653 88.097138 
L 99.890697 86.488097 
L 101.226468 83.379033 
L 102.230447 81.000158 
L 103.166172 78.874835 
L 103.934143 75.673662 
L 104.579912 74.806369 
L 105.010361 74.765861 
L 105.407642 74.714509 
L 105.794362 74.651682 
" clip-path="url(#p9a46ec9d50)" style="fill: none; stroke: #ff0000; stroke-width: 1.1; stroke-linecap: square"/>
   </g>
   <g id="line2d_23">
    <path d="M 100.619292 78.16143 
L 101.084687 82.583817 
L 101.174139 83.5954 
L 101.103137 83.444611 
L 101.026291 83.297038 
L 100.957704 84.829003 
L 100.729137 84.68164 
L 100.488851 84.570726 
L 100.241258 85.924952 
L 99.389699 90.436152 
L 98.667528 95.086071 
L 98.498534 99.471141 
L 98.693762 102.501994 
L 99.091894 102.874553 
L 99.523551 103.188149 
L 99.93661 102.208437 
L 100.144957 99.201876 
L 100.407713 96.235029 
L 100.584701 94.836929 
L 100.723096 94.759611 
L 100.855223 94.650494 
L 101.139521 93.092922 
L 101.462714 93.072351 
L 101.785186 93.059031 
L 102.105866 93.033349 
L 102.556533 89.973199 
L 102.819721 86.252427 
L 102.946608 85.72819 
L 103.060989 86.848367 
L 103.165755 87.187782 
L 103.266947 87.182162 
L 103.368759 87.151233 
L 103.471157 87.114885 
L 103.476477 87.207515 
L 103.462567 87.335776 
L 103.403329 86.458614 
L 103.316375 86.509298 
L 103.192543 86.580216 
L 103.049784 86.657478 
L 102.901201 86.724532 
L 102.749418 86.786773 
L 102.615957 86.750726 
L 102.489267 86.716142 
L 102.364042 86.669103 
L 102.239907 86.615782 
L 102.10104 88.179195 
L 101.843006 87.64698 
L 101.666903 87.712276 
L 101.539929 85.936388 
L 101.836835 85.623528 
L 102.139522 86.668276 
L 102.315741 86.600762 
L 102.309543 88.674346 
L 101.824966 93.284496 
L 101.066614 96.313409 
L 100.19811 96.500199 
L 99.304092 96.672553 
L 98.779812 96.587399 
L 98.291512 96.421539 
L 97.855315 98.575218 
L 97.528457 98.85121 
L 97.791687 100.028784 
L 98.087785 100.022861 
L 98.386219 99.979296 
L 98.706876 101.291628 
L 99.032753 101.76663 
L 99.36589 102.644692 
L 99.660916 102.912941 
L 99.948831 103.129879 
L 100.296292 103.215672 
L 100.681258 102.309888 
L 101.149215 101.854107 
L 101.668971 102.233024 
L 102.161828 106.908402 
L 102.219479 107.763105 
L 102.311194 108.051234 
L 102.35962 106.5684 
L 103.042628 104.903812 
L 103.904395 104.784782 
L 104.785737 104.633417 
L 105.67823 104.501472 
L 106.914478 104.290593 
L 108.22406 104.145031 
L 109.556168 103.996108 
L 110.914806 103.346245 
L 112.546322 100.202811 
L 114.12387 97.359299 
L 115.596363 95.734018 
L 116.972688 92.590769 
L 118.009544 90.186868 
L 118.975402 88.039208 
L 119.77631 84.80259 
L 120.440769 83.927518 
L 120.876863 83.885947 
L 121.278463 83.832892 
L 121.669164 83.768088 
" clip-path="url(#p9a46ec9d50)" style="fill: none; stroke: #ff0000; stroke-width: 1.1; stroke-linecap: square"/>
   </g>
   <g id="line2d_24">
    <path d="M 102.197031 87.208995 
L 102.666035 91.67791 
L 102.755605 92.697488 
L 102.683122 92.541974 
L 102.604721 92.389785 
L 102.533878 93.937081 
L 102.301688 93.786035 
L 102.057603 93.671942 
L 101.805392 95.04036 
L 100.938607 99.601741 
L 100.203575 104.306195 
L 100.030567 108.746137 
L 100.228169 111.818399 
L 100.632939 112.201351 
L 101.071715 112.524387 
L 101.492255 111.538941 
L 101.705863 108.501493 
L 101.974168 105.501145 
L 102.154353 104.086028 
L 102.29462 104.006627 
L 102.42853 103.89498 
L 102.717765 102.318978 
L 103.045668 102.297869 
L 103.372822 102.284024 
L 103.698159 102.257639 
L 104.157128 99.162163 
L 104.425916 95.396492 
L 104.554781 94.865163 
L 104.670117 95.997684 
L 104.776125 96.340388 
L 104.878708 96.334133 
L 104.981942 96.302313 
L 105.085776 96.265028 
L 105.091459 96.360637 
L 105.077691 96.492749 
L 105.018393 95.607272 
L 104.930381 95.659971 
L 104.804908 95.732971 
L 104.660213 95.812323 
L 104.509611 95.88133 
L 104.355761 95.94546 
L 104.220275 95.908548 
L 104.09159 95.872727 
L 103.964389 95.824242 
L 103.838292 95.76937 
L 103.696763 97.352278 
L 103.435621 96.816209 
L 103.257164 96.883858 
L 103.129366 95.08783 
L 103.430304 94.768372 
L 103.736447 95.822755 
L 103.915029 95.752906 
L 103.907761 97.851418 
L 103.413612 102.515271 
L 102.642875 105.581431 
L 101.762 105.773251 
L 100.85524 105.950481 
L 100.32292 105.862061 
L 99.827059 105.69143 
L 99.382996 107.867869 
L 99.051267 108.147459 
L 99.317366 109.33625 
L 99.617608 109.329033 
L 99.920275 109.283964 
L 100.244847 110.610772 
L 100.575487 111.092661 
L 100.91339 111.982896 
L 101.213148 112.25753 
L 101.50575 112.480461 
L 101.858572 112.569108 
L 102.249773 111.653565 
L 102.724722 111.191851 
L 103.251691 111.573894 
L 103.749225 116.302748 
L 103.808012 117.171693 
L 103.901744 117.46803 
L 103.952432 115.972633 
L 104.646061 114.287176 
L 105.520127 114.164398 
L 106.414056 114.008853 
L 107.319281 113.872945 
L 108.573288 113.656902 
L 109.901652 113.506893 
L 111.252864 113.353486 
L 112.631272 112.693366 
L 114.288582 109.513987 
L 115.891283 106.639362 
L 117.386906 104.998035 
L 118.785872 101.820891 
L 119.840093 99.392222 
L 120.822098 97.222455 
L 121.637375 93.950685 
L 122.312728 93.067972 
L 122.75517 93.025322 
L 123.162507 92.970533 
L 123.558763 92.903717 
" clip-path="url(#p9a46ec9d50)" style="fill: none; stroke: #ff0000; stroke-width: 1.1; stroke-linecap: square"/>
   </g>
   <g id="line2d_25">
    <path d="M 88.098161 80.279304 
L 88.590653 84.712631 
L 88.689783 85.726103 
L 88.621936 85.574215 
L 88.548141 85.425568 
L 88.489079 86.96114 
L 88.261779 86.812919 
L 88.022763 86.701265 
L 87.782038 88.058828 
L 86.949133 92.581817 
L 86.242665 97.244538 
L 86.085437 101.642478 
L 86.28518 104.683032 
L 86.678165 105.058012 
L 87.104915 105.373805 
L 87.508054 104.392729 
L 87.699699 101.378902 
L 87.950029 98.404187 
L 88.12294 97.002094 
L 88.263073 96.924291 
L 88.396889 96.814584 
L 88.676222 95.252686 
L 89.000841 95.23199 
L 89.324861 95.218548 
L 89.647082 95.192702 
L 90.086356 92.124258 
L 90.337174 88.39295 
L 90.463651 87.867051 
L 90.584027 88.990128 
L 90.691455 89.330318 
L 90.793738 89.32455 
L 90.896489 89.293414 
L 90.999783 89.256848 
L 91.002942 89.350171 
L 90.986341 89.479328 
L 90.920693 88.600208 
L 90.831728 88.65136 
L 90.706071 88.722763 
L 90.561536 88.800512 
L 90.411139 88.86802 
L 90.25752 88.930701 
L 90.124049 88.894452 
L 89.997903 88.85958 
L 89.873261 88.812205 
L 89.749731 88.758523 
L 89.615149 90.326509 
L 89.350858 89.793381 
L 89.172274 89.859225 
L 89.036716 88.078606 
L 89.337328 87.764206 
L 89.648841 88.811225 
L 89.827477 88.743168 
L 89.828814 90.822602 
L 89.361483 95.44536 
L 88.610191 98.483011 
L 87.735664 98.670973 
L 86.835456 98.844462 
L 86.312051 98.758549 
L 85.825176 98.591578 
L 85.399242 100.750608 
L 85.071859 101.027444 
L 85.344011 102.207659 
L 85.642721 102.201436 
L 85.943325 102.157522 
L 86.271368 103.473254 
L 86.598461 103.949869 
L 86.933653 104.830782 
L 87.226462 105.10052 
L 87.511662 105.318854 
L 87.858217 105.405311 
L 88.239866 104.497233 
L 88.708439 104.040061 
L 89.233183 104.419716 
L 89.747454 109.107652 
L 89.803048 109.965684 
L 89.889877 110.255725 
L 89.926488 108.769926 
L 90.607198 107.100443 
L 91.474548 106.980541 
L 92.361485 106.828203 
L 93.2597 106.695335 
L 94.502906 106.483253 
L 95.820012 106.336656 
L 97.159706 106.186689 
L 98.523968 105.534426 
L 100.147772 102.382552 
L 101.716735 99.531729 
L 103.183931 97.902671 
L 104.548624 94.751456 
L 105.574886 92.341729 
L 106.531303 90.188869 
L 107.318036 86.94399 
L 107.977671 86.067115 
L 108.4159 86.025293 
L 108.82017 85.971834 
L 109.213644 85.906563 
" clip-path="url(#p9a46ec9d50)" style="fill: none; stroke: #ff0000; stroke-width: 1.1; stroke-linecap: square"/>
   </g>
   <g id="line2d_26">
    <path d="M 153.267944 64.465461 
L 153.618524 68.81638 
L 153.667595 69.815476 
L 153.584245 69.671705 
L 153.495525 69.530984 
L 153.388477 71.039341 
L 153.156582 70.89747 
L 152.913048 70.791284 
L 152.639334 72.123707 
L 151.718253 76.558046 
L 150.937578 81.124643 
L 150.721722 85.42611 
L 150.896855 88.3941 
L 151.312859 88.751192 
L 151.761125 89.050758 
L 152.211493 88.080202 
L 152.486598 85.121133 
L 152.798133 82.205565 
L 152.990389 80.833423 
L 153.120536 80.759206 
L 153.244662 80.653868 
L 153.546988 79.124447 
L 153.861704 79.104676 
L 154.175198 79.092133 
L 154.486956 79.0675 
L 154.980612 76.061365 
L 155.29232 72.409112 
L 155.41985 71.895648 
L 155.508741 72.996908 
L 155.601747 73.331249 
L 155.697644 73.326557 
L 155.794776 73.296955 
L 155.892671 73.262004 
L 155.906796 73.350212 
L 155.904023 73.472753 
L 155.87152 72.608431 
L 155.793511 72.656136 
L 155.67817 72.72396 
L 155.543851 72.798111 
L 155.403916 72.862261 
L 155.260891 72.921695 
L 155.128559 72.88694 
L 155.000678 72.854188 
L 154.87409 72.809295 
L 154.748495 72.75828 
L 154.593209 74.291986 
L 154.362918 73.765825 
L 154.198415 73.827637 
L 154.107647 72.08257 
L 154.386939 71.779588 
L 154.650996 72.809432 
L 154.815877 72.745379 
L 154.778867 74.780915 
L 154.227596 79.30898 
L 153.446499 82.281099 
L 152.609757 82.460401 
L 151.748395 82.625501 
L 151.224797 82.545183 
L 150.734637 82.386416 
L 150.259915 84.505148 
L 149.937867 84.775666 
L 150.162377 85.935923 
L 150.44536 85.931892 
L 150.732472 85.890558 
L 151.020243 87.180708 
L 151.338492 87.645279 
L 151.660496 88.50487 
L 151.962215 88.763586 
L 152.258912 88.971603 
L 152.607261 89.053164 
L 153.002688 88.16235 
L 153.464313 87.715594 
L 153.959404 88.089643 
L 154.360507 92.683222 
L 154.426118 93.516454 
L 154.537112 93.792375 
L 154.633548 92.329066 
L 155.320407 90.696273 
L 156.152289 90.582808 
L 157.003537 90.437664 
L 157.865325 90.311609 
L 159.063013 90.108434 
L 160.331123 89.969478 
L 161.621329 89.827218 
L 162.945882 89.192845 
L 164.595646 86.104396 
L 166.195423 83.308577 
L 167.677531 81.708022 
L 169.090132 78.61677 
L 170.161777 76.250953 
L 171.158283 74.137286 
L 172.010508 70.954579 
L 172.689198 70.091367 
L 173.112977 70.051404 
L 173.500363 70.000921 
L 173.87652 69.939105 
" clip-path="url(#p9a46ec9d50)" style="fill: none; stroke: #ff0000; stroke-width: 1.1; stroke-linecap: square"/>
   </g>
   <g id="line2d_27">
    <path d="M 139.130662 58.030738 
L 139.505227 62.347647 
L 139.563975 63.340719 
L 139.48522 63.200186 
L 139.40106 63.06263 
L 139.305784 64.559728 
L 139.078606 64.420404 
L 138.839959 64.316404 
L 138.57757 65.638451 
L 137.689794 70.036305 
L 136.9372 74.563434 
L 136.737052 78.825399 
L 136.9145 81.763778 
L 137.319002 82.113715 
L 137.755553 82.406797 
L 138.188793 81.440742 
L 138.442016 78.504293 
L 138.735721 75.613051 
L 138.920822 74.253187 
L 139.050951 74.180406 
L 139.175095 74.076823 
L 139.467718 72.560731 
L 139.779411 72.541331 
L 140.090032 72.529146 
L 140.398932 72.504997 
L 140.873195 69.524466 
L 141.167085 65.904634 
L 141.292324 65.396246 
L 141.386373 66.488523 
L 141.480894 66.82044 
L 141.576574 66.816172 
L 141.673308 66.787184 
L 141.770747 66.75288 
L 141.782343 66.839047 
L 141.776715 66.958945 
L 141.737787 66.100762 
L 141.658747 66.147096 
L 141.543115 66.21349 
L 141.408836 66.286201 
L 141.26898 66.349009 
L 141.126058 66.407147 
L 140.995637 66.372991 
L 140.870197 66.341083 
L 140.746072 66.297182 
L 140.622948 66.247232 
L 140.47452 67.766898 
L 140.240847 67.243674 
L 140.076067 67.303881 
L 139.977398 65.573435 
L 140.256616 65.275048 
L 140.526323 66.297757 
L 140.691408 66.235299 
L 140.663032 68.252829 
L 140.138278 72.742001 
L 139.376065 75.687265 
L 138.544961 75.863101 
L 137.68942 76.024846 
L 137.174332 75.946753 
L 136.692782 75.791267 
L 136.235901 77.893373 
L 135.917941 78.161309 
L 136.148756 79.31329 
L 136.430451 79.31012 
L 136.715744 79.269815 
L 137.007274 80.549432 
L 137.322234 81.009098 
L 137.641797 81.859994 
L 137.936787 82.114287 
L 138.226293 82.318176 
L 138.568642 82.397783 
L 138.9548 81.514085 
L 139.410419 81.071588 
L 139.903714 81.443294 
L 140.322038 85.998088 
L 140.384491 86.821269 
L 140.48863 87.091544 
L 140.570974 85.637621 
L 141.245437 84.01985 
L 142.071302 83.908954 
L 142.916273 83.766689 
L 143.771773 83.643355 
L 144.959656 83.443754 
L 146.217564 83.307849 
L 147.497323 83.168668 
L 148.808813 82.541557 
L 150.426327 79.47918 
L 151.993581 76.706015 
L 153.448407 75.117258 
L 154.827792 72.050721 
L 155.872273 69.703042 
L 156.843937 67.605568 
L 157.668222 64.44848 
L 158.331715 63.590961 
L 158.751636 63.551743 
L 159.136282 63.502446 
L 159.509977 63.442009 
" clip-path="url(#p9a46ec9d50)" style="fill: none; stroke: #ff0000; stroke-width: 1.1; stroke-linecap: square"/>
   </g>
   <g id="line2d_28">
    <path d="M 151.030884 56.063091 
L 151.380932 60.369546 
L 151.43093 61.360755 
L 151.349331 61.221205 
L 151.262421 61.084609 
L 151.158546 62.578243 
L 150.930243 62.439693 
L 150.690469 62.336357 
L 150.421898 63.655215 
L 149.51734 68.041864 
L 148.750617 72.556884 
L 148.539849 76.806741 
L 148.713198 79.736056 
L 149.122318 80.083818 
L 149.563266 80.374932 
L 150.005436 79.410278 
L 150.273735 76.480786 
L 150.578645 73.597013 
L 150.767415 72.240914 
L 150.895962 72.168569 
L 151.018567 72.065519 
L 151.315652 70.553517 
L 151.626027 70.53423 
L 151.93522 70.522153 
L 152.242701 70.498152 
L 152.727217 67.525478 
L 153.032259 63.91559 
L 153.157857 63.408756 
L 153.24648 64.498273 
L 153.338587 64.829445 
L 153.433272 64.825305 
L 153.529148 64.796502 
L 153.62577 64.762395 
L 153.639316 64.847943 
L 153.636121 64.967039 
L 153.602989 64.110747 
L 153.525773 64.156665 
L 153.411802 64.222625 
L 153.27914 64.294899 
L 153.140936 64.357299 
L 152.999686 64.415043 
L 152.869285 64.381069 
L 152.743364 64.349417 
L 152.618724 64.305817 
L 152.495066 64.256191 
L 152.342779 65.771554 
L 152.114782 65.249239 
L 151.952258 65.308959 
L 151.861355 63.583001 
L 152.137198 63.286014 
L 152.398905 64.306524 
L 152.561791 64.24455 
L 152.526609 66.256557 
L 151.986317 70.733794 
L 151.217791 73.670825 
L 150.392208 73.845607 
L 149.542339 74.006333 
L 149.026506 73.928915 
L 148.543713 73.774426 
L 148.077596 75.871422 
L 147.760139 76.138566 
L 147.982868 77.287999 
L 148.262176 77.285088 
L 148.545482 77.245096 
L 148.830308 78.521478 
L 149.144141 78.979644 
L 149.461817 79.827878 
L 149.758785 80.080825 
L 150.050718 80.283461 
L 150.393855 80.362476 
L 150.782978 79.480964 
L 151.237999 79.039771 
L 151.72674 79.410753 
L 152.125665 83.953642 
L 152.189973 84.773755 
L 152.298521 85.042315 
L 152.391539 83.591289 
L 153.068018 81.978122 
L 153.888762 81.868005 
L 154.728598 81.726615 
L 155.578847 81.604108 
L 156.760332 81.405593 
L 158.011323 81.270615 
L 159.284109 81.132369 
L 160.590396 80.507477 
L 162.214737 77.453102 
L 163.789611 74.686896 
L 165.249095 73.10177 
L 166.63887 70.042827 
L 167.692832 67.700726 
L 168.672941 65.608231 
L 169.50996 62.459014 
L 170.177751 61.603252 
L 170.595704 61.56426 
L 170.977903 61.515323 
L 171.349058 61.455305 
" clip-path="url(#p9a46ec9d50)" style="fill: none; stroke: #ff0000; stroke-width: 1.1; stroke-linecap: square"/>
   </g>
   <g id="line2d_29">
    <path d="M 169.713519 73.354076 
L 170.036185 77.751519 
L 170.073808 78.758772 
L 169.984808 78.610465 
L 169.890467 78.465316 
L 169.769157 79.989049 
L 169.531169 79.843625 
L 169.281314 79.734382 
L 168.99354 81.080999 
L 168.030879 85.565344 
L 167.215146 90.186122 
L 166.980125 94.541921 
L 167.15285 97.550733 
L 167.583405 97.917827 
L 168.046542 98.226462 
L 168.518242 97.249899 
L 168.819999 94.259906 
L 169.153429 91.310982 
L 169.354608 89.921965 
L 169.485038 89.845743 
L 169.609392 89.737959 
L 169.923903 88.190234 
L 170.24286 88.169945 
L 170.560412 88.156901 
L 170.876207 88.13159 
L 171.393997 85.090325 
L 171.727598 81.393528 
L 171.85812 80.873067 
L 171.941032 81.986636 
L 172.032417 82.324283 
L 172.128765 82.318992 
L 172.226567 82.288533 
L 172.325203 82.252679 
L 172.342375 82.343744 
L 172.343007 82.469983 
L 172.318107 81.597292 
L 172.241172 81.646921 
L 172.125945 81.716745 
L 171.991309 81.792908 
L 171.850996 81.858935 
L 171.707562 81.920184 
L 171.572682 81.884593 
L 171.441631 81.850657 
L 171.311848 81.804377 
L 171.183049 81.751871 
L 171.019268 83.304884 
L 170.792549 82.774764 
L 170.628045 82.838827 
L 170.546524 81.073711 
L 170.826467 80.764333 
L 171.084314 81.803894 
L 171.249282 81.737604 
L 171.201893 83.797877 
L 170.617869 88.379322 
L 169.812671 91.388356 
L 168.96752 91.572501 
L 168.097479 91.742292 
L 167.562676 91.65885 
L 167.06126 91.495497 
L 166.564304 93.636978 
L 166.236733 93.911052 
L 166.454178 95.082594 
L 166.739265 95.077344 
L 167.029124 95.034569 
L 167.312993 96.339151 
L 167.635802 96.810493 
L 167.961365 97.682077 
L 168.271717 97.946962 
L 168.577587 98.160748 
L 168.933792 98.245043 
L 169.34107 97.344487 
L 169.810788 96.891868 
L 170.309015 97.269094 
L 170.690378 101.915877 
L 170.759887 102.763031 
L 170.879282 103.046846 
L 170.992724 101.570795 
L 171.695753 99.917339 
L 172.536482 99.800278 
L 173.396927 99.651111 
L 174.267945 99.521249 
L 175.47973 99.313089 
L 176.762553 99.169863 
L 178.067807 99.023296 
L 179.410597 98.378875 
L 181.102171 95.254663 
L 182.743995 92.42781 
L 184.261658 90.811148 
L 185.716778 87.686056 
L 186.823037 85.295441 
L 187.851237 83.15964 
L 188.73858 79.94185 
L 189.436802 79.0709 
L 189.86604 79.029897 
L 190.257474 78.977752 
L 190.637323 78.914005 
" clip-path="url(#p9a46ec9d50)" style="fill: none; stroke: #ff0000; stroke-width: 1.1; stroke-linecap: square"/>
   </g>
   <g id="line2d_30">
    <path d="M 157.527842 75.438797 
L 157.876225 79.847076 
L 157.923025 80.856214 
L 157.837004 80.706833 
L 157.745543 80.560635 
L 157.633244 82.087945 
L 157.396426 81.941682 
L 157.147744 81.831716 
L 156.866441 83.181638 
L 155.92134 87.677645 
L 155.12039 92.311075 
L 154.896493 96.679577 
L 155.07352 99.697951 
L 155.499249 100.06741 
L 155.957793 100.378191 
L 156.420149 99.400254 
L 156.706113 96.403063 
L 157.027808 93.446356 
L 157.225147 92.053396 
L 157.357241 91.9767 
L 157.483212 91.868339 
L 157.793057 90.316339 
L 158.113406 90.295928 
L 158.432467 90.282765 
L 158.749761 90.257293 
L 159.25682 87.207829 
L 159.578741 83.500625 
L 159.70889 82.978526 
L 159.797494 84.094965 
L 159.891414 84.43338 
L 159.988808 84.427947 
L 160.087513 84.397285 
L 160.18701 84.361217 
L 160.202137 84.452959 
L 160.200217 84.580073 
L 160.16924 83.705438 
L 160.09039 83.755523 
L 159.973418 83.825821 
L 159.837082 83.90246 
L 159.695032 83.968931 
L 159.54984 84.030609 
L 159.414935 83.99482 
L 159.284382 83.960604 
L 159.155135 83.913996 
L 159.026893 83.861137 
L 158.867151 85.418664 
L 158.634473 84.887631 
L 158.467598 84.952228 
L 158.377932 83.182434 
L 158.661423 82.871548 
L 158.927666 83.913364 
L 159.094945 83.846545 
L 159.054691 85.912596 
L 158.486937 90.506503 
L 157.688328 93.524165 
L 156.837361 93.709455 
L 155.961342 93.880355 
L 155.427302 93.796173 
L 154.927172 93.631735 
L 154.439881 95.778515 
L 154.111771 96.053421 
L 154.337701 97.227585 
L 154.6253 97.222044 
L 154.917253 97.178927 
L 155.208159 98.486875 
L 155.532161 98.959804 
L 155.859713 99.834198 
L 156.168001 100.10054 
L 156.471338 100.31569 
L 156.826729 100.400633 
L 157.230914 99.497806 
L 157.701276 99.043815 
L 158.204293 99.421777 
L 158.606003 104.080976 
L 158.673571 104.931402 
L 158.788348 105.217084 
L 158.890607 103.738082 
L 159.591546 102.079795 
L 160.437673 101.961882 
L 161.303531 101.811764 
L 162.180083 101.681 
L 163.398617 101.471664 
L 164.688734 101.327427 
L 166.001343 101.17984 
L 167.349634 100.53306 
L 169.034113 97.400502 
L 170.668008 94.566414 
L 172.180844 92.946006 
L 173.625126 89.813028 
L 174.721489 87.416641 
L 175.740874 85.275687 
L 176.614902 82.049719 
L 177.308643 81.176977 
L 177.739959 81.135728 
L 178.133973 81.083189 
L 178.516499 81.018985 
" clip-path="url(#p9a46ec9d50)" style="fill: none; stroke: #ff0000; stroke-width: 1.1; stroke-linecap: square"/>
   </g>
   <g id="Path3DCollection_1">
    <defs>
     <path id="m681b6b1432" d="M 0 -4.472136 
L -4.472136 4.472136 
L 4.472136 4.472136 
z
" style="stroke: #87ceeb"/>
    </defs>
    <g clip-path="url(#p9a46ec9d50)">
     <use xlink:href="#m681b6b1432" x="138.092486" y="153.027325" style="fill: #87ceeb; stroke: #87ceeb"/>
    </g>
   </g>
   <g id="text_22">
    <!-- Timmins -->
    <g transform="translate(125.084429 170.59822) scale(0.09 -0.09)">
     <defs>
      <path id="DejaVuSerif-54" d="M 1222 0 
L 1222 331 
L 1819 331 
L 1819 4294 
L 447 4294 
L 447 3566 
L 63 3566 
L 63 4666 
L 4206 4666 
L 4206 3566 
L 3822 3566 
L 3822 4294 
L 2450 4294 
L 2450 331 
L 3047 331 
L 3047 0 
L 1222 0 
z
" transform="scale(0.015625)"/>
      <path id="DejaVuSerif-73" d="M 359 184 
L 359 959 
L 691 959 
Q 703 588 923 403 
Q 1144 219 1575 219 
Q 1963 219 2166 364 
Q 2369 509 2369 788 
Q 2369 1006 2220 1140 
Q 2072 1275 1594 1428 
L 1178 1569 
Q 750 1706 558 1912 
Q 366 2119 366 2438 
Q 366 2894 700 3153 
Q 1034 3413 1625 3413 
Q 1888 3413 2178 3344 
Q 2469 3275 2778 3144 
L 2778 2419 
L 2447 2419 
Q 2434 2741 2221 2922 
Q 2009 3103 1644 3103 
Q 1281 3103 1095 2975 
Q 909 2847 909 2591 
Q 909 2381 1050 2254 
Q 1191 2128 1613 1997 
L 2069 1856 
Q 2541 1709 2748 1489 
Q 2956 1269 2956 922 
Q 2956 450 2595 179 
Q 2234 -91 1600 -91 
Q 1278 -91 972 -22 
Q 666 47 359 184 
z
" transform="scale(0.015625)"/>
     </defs>
     <use xlink:href="#DejaVuSerif-54"/>
     <use xlink:href="#DejaVuSerif-69" transform="translate(66.699219 0)"/>
     <use xlink:href="#DejaVuSerif-6d" transform="translate(98.681641 0)"/>
     <use xlink:href="#DejaVuSerif-6d" transform="translate(193.505859 0)"/>
     <use xlink:href="#DejaVuSerif-69" transform="translate(288.330078 0)"/>
     <use xlink:href="#DejaVuSerif-6e" transform="translate(320.3125 0)"/>
     <use xlink:href="#DejaVuSerif-73" transform="translate(384.716797 0)"/>
    </g>
   </g>
   <g id="text_23">
    <!-- Iroquois Falls -->
    <g transform="translate(172.155895 175.691804) scale(0.09 -0.09)">
     <defs>
      <path id="DejaVuSerif-49" d="M 1581 331 
L 2175 331 
L 2175 0 
L 353 0 
L 353 331 
L 947 331 
L 947 4331 
L 353 4331 
L 353 4666 
L 2175 4666 
L 2175 4331 
L 1581 4331 
L 1581 331 
z
" transform="scale(0.015625)"/>
      <path id="DejaVuSerif-72" d="M 3059 3328 
L 3059 2497 
L 2728 2497 
Q 2713 2744 2591 2866 
Q 2469 2988 2234 2988 
Q 1809 2988 1582 2694 
Q 1356 2400 1356 1850 
L 1356 331 
L 2022 331 
L 2022 0 
L 263 0 
L 263 331 
L 781 331 
L 781 2994 
L 231 2994 
L 231 3322 
L 1356 3322 
L 1356 2731 
Q 1525 3078 1790 3245 
Q 2056 3413 2438 3413 
Q 2578 3413 2733 3391 
Q 2888 3369 3059 3328 
z
" transform="scale(0.015625)"/>
      <path id="DejaVuSerif-71" d="M 3359 2988 
L 3359 -997 
L 3909 -997 
L 3909 -1331 
L 2241 -1331 
L 2241 -997 
L 2784 -997 
L 2784 519 
Q 2616 206 2355 57 
Q 2094 -91 1709 -91 
Q 1097 -91 708 395 
Q 319 881 319 1663 
Q 319 2444 706 2928 
Q 1094 3413 1709 3413 
Q 2094 3413 2355 3264 
Q 2616 3116 2784 2803 
L 2784 3322 
L 3909 3322 
L 3909 2988 
L 3359 2988 
z
M 2784 1825 
Q 2784 2422 2554 2737 
Q 2325 3053 1888 3053 
Q 1444 3053 1217 2703 
Q 991 2353 991 1663 
Q 991 975 1217 622 
Q 1444 269 1888 269 
Q 2325 269 2554 583 
Q 2784 897 2784 1497 
L 2784 1825 
z
" transform="scale(0.015625)"/>
      <path id="DejaVuSerif-46" d="M 353 0 
L 353 331 
L 947 331 
L 947 4331 
L 353 4331 
L 353 4666 
L 4172 4666 
L 4172 3628 
L 3788 3628 
L 3788 4281 
L 1581 4281 
L 1581 2719 
L 3175 2719 
L 3175 3303 
L 3559 3303 
L 3559 1753 
L 3175 1753 
L 3175 2338 
L 1581 2338 
L 1581 331 
L 2328 331 
L 2328 0 
L 353 0 
z
" transform="scale(0.015625)"/>
     </defs>
     <use xlink:href="#DejaVuSerif-49"/>
     <use xlink:href="#DejaVuSerif-72" transform="translate(39.501953 0)"/>
     <use xlink:href="#DejaVuSerif-6f" transform="translate(87.304688 0)"/>
     <use xlink:href="#DejaVuSerif-71" transform="translate(147.509766 0)"/>
     <use xlink:href="#DejaVuSerif-75" transform="translate(211.523438 0)"/>
     <use xlink:href="#DejaVuSerif-6f" transform="translate(275.927734 0)"/>
     <use xlink:href="#DejaVuSerif-69" transform="translate(336.132812 0)"/>
     <use xlink:href="#DejaVuSerif-73" transform="translate(368.115234 0)"/>
     <use xlink:href="#DejaVuSerif-20" transform="translate(419.433594 0)"/>
     <use xlink:href="#DejaVuSerif-46" transform="translate(451.220703 0)"/>
     <use xlink:href="#DejaVuSerif-61" transform="translate(513.855469 0)"/>
     <use xlink:href="#DejaVuSerif-6c" transform="translate(573.474609 0)"/>
     <use xlink:href="#DejaVuSerif-6c" transform="translate(605.457031 0)"/>
     <use xlink:href="#DejaVuSerif-73" transform="translate(637.439453 0)"/>
    </g>
   </g>
   <g id="text_24">
    <!-- Kapuskasing -->
    <g transform="translate(140.05286 152.405404) scale(0.09 -0.09)">
     <defs>
      <path id="DejaVuSerif-4b" d="M 353 0 
L 353 331 
L 947 331 
L 947 4331 
L 353 4331 
L 353 4666 
L 2175 4666 
L 2175 4331 
L 1581 4331 
L 1581 2566 
L 3591 4331 
L 3084 4331 
L 3084 4666 
L 4634 4666 
L 4634 4331 
L 4109 4331 
L 2106 2572 
L 4347 331 
L 4878 331 
L 4878 0 
L 3794 0 
L 1581 2216 
L 1581 331 
L 2175 331 
L 2175 0 
L 353 0 
z
" transform="scale(0.015625)"/>
      <path id="DejaVuSerif-70" d="M 1313 1825 
L 1313 1497 
Q 1313 897 1542 583 
Q 1772 269 2209 269 
Q 2650 269 2876 622 
Q 3103 975 3103 1663 
Q 3103 2353 2876 2703 
Q 2650 3053 2209 3053 
Q 1772 3053 1542 2737 
Q 1313 2422 1313 1825 
z
M 738 2988 
L 184 2988 
L 184 3322 
L 1313 3322 
L 1313 2803 
Q 1481 3116 1742 3264 
Q 2003 3413 2388 3413 
Q 3000 3413 3387 2928 
Q 3775 2444 3775 1663 
Q 3775 881 3387 395 
Q 3000 -91 2388 -91 
Q 2003 -91 1742 57 
Q 1481 206 1313 519 
L 1313 -997 
L 1856 -997 
L 1856 -1331 
L 184 -1331 
L 184 -997 
L 738 -997 
L 738 2988 
z
" transform="scale(0.015625)"/>
     </defs>
     <use xlink:href="#DejaVuSerif-4b"/>
     <use xlink:href="#DejaVuSerif-61" transform="translate(74.707031 0)"/>
     <use xlink:href="#DejaVuSerif-70" transform="translate(134.326172 0)"/>
     <use xlink:href="#DejaVuSerif-75" transform="translate(198.339844 0)"/>
     <use xlink:href="#DejaVuSerif-73" transform="translate(262.744141 0)"/>
     <use xlink:href="#DejaVuSerif-6b" transform="translate(314.0625 0)"/>
     <use xlink:href="#DejaVuSerif-61" transform="translate(374.658203 0)"/>
     <use xlink:href="#DejaVuSerif-73" transform="translate(434.277344 0)"/>
     <use xlink:href="#DejaVuSerif-69" transform="translate(485.595703 0)"/>
     <use xlink:href="#DejaVuSerif-6e" transform="translate(517.578125 0)"/>
     <use xlink:href="#DejaVuSerif-67" transform="translate(581.982422 0)"/>
    </g>
   </g>
   <g id="text_25">
    <!-- Cochrane -->
    <g transform="translate(169.844544 167.979413) scale(0.09 -0.09)">
     <defs>
      <path id="DejaVuSerif-43" d="M 4513 1234 
Q 4306 581 3820 245 
Q 3334 -91 2591 -91 
Q 2134 -91 1743 65 
Q 1353 222 1050 525 
Q 700 875 529 1320 
Q 359 1766 359 2328 
Q 359 3416 987 4083 
Q 1616 4750 2644 4750 
Q 3025 4750 3456 4650 
Q 3888 4550 4384 4347 
L 4384 3272 
L 4031 3272 
Q 3916 3859 3567 4137 
Q 3219 4416 2591 4416 
Q 1844 4416 1459 3886 
Q 1075 3356 1075 2328 
Q 1075 1303 1459 773 
Q 1844 244 2591 244 
Q 3113 244 3450 492 
Q 3788 741 3938 1234 
L 4513 1234 
z
" transform="scale(0.015625)"/>
      <path id="DejaVuSerif-63" d="M 3291 997 
Q 3169 466 2822 187 
Q 2475 -91 1925 -91 
Q 1200 -91 759 389 
Q 319 869 319 1663 
Q 319 2459 759 2936 
Q 1200 3413 1925 3413 
Q 2241 3413 2553 3339 
Q 2866 3266 3181 3116 
L 3181 2266 
L 2847 2266 
Q 2781 2703 2561 2903 
Q 2341 3103 1931 3103 
Q 1466 3103 1228 2742 
Q 991 2381 991 1663 
Q 991 944 1227 581 
Q 1463 219 1931 219 
Q 2303 219 2525 412 
Q 2747 606 2828 997 
L 3291 997 
z
" transform="scale(0.015625)"/>
      <path id="DejaVuSerif-68" d="M 263 0 
L 263 331 
L 781 331 
L 781 4531 
L 231 4531 
L 231 4863 
L 1356 4863 
L 1356 2731 
Q 1516 3069 1770 3241 
Q 2025 3413 2363 3413 
Q 2913 3413 3172 3097 
Q 3431 2781 3431 2113 
L 3431 331 
L 3944 331 
L 3944 0 
L 2356 0 
L 2356 331 
L 2853 331 
L 2853 1931 
Q 2853 2541 2704 2764 
Q 2556 2988 2175 2988 
Q 1775 2988 1565 2697 
Q 1356 2406 1356 1850 
L 1356 331 
L 1856 331 
L 1856 0 
L 263 0 
z
" transform="scale(0.015625)"/>
     </defs>
     <use xlink:href="#DejaVuSerif-43"/>
     <use xlink:href="#DejaVuSerif-6f" transform="translate(76.513672 0)"/>
     <use xlink:href="#DejaVuSerif-63" transform="translate(136.71875 0)"/>
     <use xlink:href="#DejaVuSerif-68" transform="translate(192.724609 0)"/>
     <use xlink:href="#DejaVuSerif-72" transform="translate(257.128906 0)"/>
     <use xlink:href="#DejaVuSerif-61" transform="translate(304.931641 0)"/>
     <use xlink:href="#DejaVuSerif-6e" transform="translate(364.550781 0)"/>
     <use xlink:href="#DejaVuSerif-65" transform="translate(428.955078 0)"/>
    </g>
   </g>
   <g id="text_26">
    <!-- Kirkland Lake -->
    <g transform="translate(176.00309 191.781212) scale(0.09 -0.09)">
     <use xlink:href="#DejaVuSerif-4b"/>
     <use xlink:href="#DejaVuSerif-69" transform="translate(74.707031 0)"/>
     <use xlink:href="#DejaVuSerif-72" transform="translate(106.689453 0)"/>
     <use xlink:href="#DejaVuSerif-6b" transform="translate(154.492188 0)"/>
     <use xlink:href="#DejaVuSerif-6c" transform="translate(215.087891 0)"/>
     <use xlink:href="#DejaVuSerif-61" transform="translate(247.070312 0)"/>
     <use xlink:href="#DejaVuSerif-6e" transform="translate(306.689453 0)"/>
     <use xlink:href="#DejaVuSerif-64" transform="translate(371.09375 0)"/>
     <use xlink:href="#DejaVuSerif-20" transform="translate(435.107422 0)"/>
     <use xlink:href="#DejaVuSerif-4c" transform="translate(466.894531 0)"/>
     <use xlink:href="#DejaVuSerif-61" transform="translate(533.300781 0)"/>
     <use xlink:href="#DejaVuSerif-6b" transform="translate(592.919922 0)"/>
     <use xlink:href="#DejaVuSerif-65" transform="translate(653.515625 0)"/>
    </g>
   </g>
   <g id="text_27">
    <!-- NorthBay -->
    <g transform="translate(39.786868 203.11278) scale(0.09 -0.09)">
     <defs>
      <path id="DejaVuSerif-4e" d="M 313 0 
L 313 331 
L 941 331 
L 941 4331 
L 313 4331 
L 313 4666 
L 1509 4666 
L 4306 984 
L 4306 4331 
L 3681 4331 
L 3681 4666 
L 5319 4666 
L 5319 4331 
L 4691 4331 
L 4691 -91 
L 4313 -91 
L 1325 3841 
L 1325 331 
L 1953 331 
L 1953 0 
L 313 0 
z
" transform="scale(0.015625)"/>
      <path id="DejaVuSerif-42" d="M 1581 331 
L 2516 331 
Q 3078 331 3337 575 
Q 3597 819 3597 1350 
Q 3597 1878 3339 2120 
Q 3081 2363 2516 2363 
L 1581 2363 
L 1581 331 
z
M 1581 2694 
L 2375 2694 
Q 2888 2694 3123 2891 
Q 3359 3088 3359 3513 
Q 3359 3941 3123 4136 
Q 2888 4331 2375 4331 
L 1581 4331 
L 1581 2694 
z
M 353 0 
L 353 331 
L 947 331 
L 947 4331 
L 353 4331 
L 353 4666 
L 2656 4666 
Q 3363 4666 3720 4377 
Q 4078 4088 4078 3513 
Q 4078 3097 3829 2850 
Q 3581 2603 3103 2547 
Q 3697 2472 4005 2167 
Q 4313 1863 4313 1350 
Q 4313 656 3875 328 
Q 3438 0 2509 0 
L 353 0 
z
" transform="scale(0.015625)"/>
      <path id="DejaVuSerif-79" d="M 1381 -609 
L 1600 -56 
L 359 2988 
L -19 2988 
L -19 3322 
L 1509 3322 
L 1509 2988 
L 978 2988 
L 1913 703 
L 2847 2988 
L 2350 2988 
L 2350 3322 
L 3597 3322 
L 3597 2988 
L 3225 2988 
L 1703 -750 
Q 1547 -1138 1356 -1280 
Q 1166 -1422 819 -1422 
Q 672 -1422 517 -1397 
Q 363 -1372 206 -1325 
L 206 -691 
L 500 -691 
Q 519 -903 608 -995 
Q 697 -1088 884 -1088 
Q 1056 -1088 1161 -992 
Q 1266 -897 1381 -609 
z
" transform="scale(0.015625)"/>
     </defs>
     <use xlink:href="#DejaVuSerif-4e"/>
     <use xlink:href="#DejaVuSerif-6f" transform="translate(87.5 0)"/>
     <use xlink:href="#DejaVuSerif-72" transform="translate(147.705078 0)"/>
     <use xlink:href="#DejaVuSerif-74" transform="translate(195.507812 0)"/>
     <use xlink:href="#DejaVuSerif-68" transform="translate(235.693359 0)"/>
     <use xlink:href="#DejaVuSerif-42" transform="translate(300.097656 0)"/>
     <use xlink:href="#DejaVuSerif-61" transform="translate(373.583984 0)"/>
     <use xlink:href="#DejaVuSerif-79" transform="translate(433.203125 0)"/>
    </g>
   </g>
   <g id="text_28">
    <!-- 0 -->
    <g style="fill: #ff0000" transform="translate(89.582438 74.501275) scale(0.09 -0.09)">
     <defs>
      <path id="DejaVuSerif-Italic-30" d="M 1011 744 
Q 1147 219 1625 219 
Q 2103 219 2442 744 
Q 2781 1269 2988 2328 
Q 3194 3391 3058 3916 
Q 2922 4441 2444 4441 
Q 1966 4441 1627 3916 
Q 1288 3391 1081 2328 
Q 875 1269 1011 744 
z
M 1563 -91 
Q 803 -91 501 546 
Q 200 1184 422 2328 
Q 644 3475 1195 4112 
Q 1747 4750 2506 4750 
Q 3269 4750 3569 4112 
Q 3869 3475 3647 2328 
Q 3425 1184 2875 546 
Q 2325 -91 1563 -91 
z
" transform="scale(0.015625)"/>
     </defs>
     <use xlink:href="#DejaVuSerif-Italic-30"/>
    </g>
   </g>
   <g id="text_29">
    <!-- 1 -->
    <g style="fill: #ff0000" transform="translate(105.238613 83.629379) scale(0.09 -0.09)">
     <defs>
      <path id="DejaVuSerif-Italic-31" d="M 447 0 
L 513 331 
L 1325 331 
L 2078 4213 
L 1019 3603 
L 1100 4013 
L 2381 4750 
L 2813 4750 
L 1953 331 
L 2766 331 
L 2700 0 
L 447 0 
z
" transform="scale(0.015625)"/>
     </defs>
     <use xlink:href="#DejaVuSerif-Italic-31"/>
    </g>
   </g>
   <g id="text_30">
    <!-- 2 -->
    <g style="fill: #ff0000" transform="translate(106.888061 92.777144) scale(0.09 -0.09)">
     <defs>
      <path id="DejaVuSerif-Italic-32" d="M 1050 3553 
L 700 3553 
L 863 4384 
Q 1231 4563 1589 4656 
Q 1947 4750 2272 4750 
Q 3000 4750 3353 4397 
Q 3706 4044 3588 3438 
Q 3456 2753 2313 1800 
Q 2225 1728 2178 1691 
L 772 513 
L 2719 513 
L 2831 1088 
L 3197 1088 
L 2984 0 
L -25 0 
L 41 341 
L 1731 1753 
Q 2291 2222 2567 2614 
Q 2844 3006 2928 3438 
Q 3019 3909 2825 4175 
Q 2631 4441 2200 4441 
Q 1753 4441 1467 4219 
Q 1181 3997 1050 3553 
z
" transform="scale(0.015625)"/>
     </defs>
     <use xlink:href="#DejaVuSerif-Italic-32"/>
    </g>
   </g>
   <g id="text_31">
    <!-- 3 -->
    <g style="fill: #ff0000" transform="translate(92.707065 85.770657) scale(0.09 -0.09)">
     <defs>
      <path id="DejaVuSerif-Italic-33" d="M 1038 4469 
Q 1431 4606 1781 4678 
Q 2131 4750 2425 4750 
Q 3109 4750 3436 4454 
Q 3763 4159 3659 3634 
Q 3578 3213 3258 2930 
Q 2938 2647 2431 2547 
Q 2988 2466 3241 2130 
Q 3494 1794 3388 1259 
Q 3263 606 2755 257 
Q 2247 -91 1422 -91 
Q 1056 -91 723 -12 
Q 391 66 78 225 
L 253 1131 
L 603 1131 
Q 547 681 775 450 
Q 1003 219 1497 219 
Q 1975 219 2304 495 
Q 2634 772 2728 1253 
Q 2834 1803 2604 2086 
Q 2375 2369 1825 2369 
L 1528 2369 
L 1591 2688 
L 1747 2688 
Q 2294 2688 2611 2914 
Q 2928 3141 3019 3597 
Q 3097 4006 2914 4223 
Q 2731 4441 2309 4441 
Q 1888 4441 1616 4241 
Q 1344 4041 1228 3647 
L 878 3647 
L 1038 4469 
z
" transform="scale(0.015625)"/>
     </defs>
     <use xlink:href="#DejaVuSerif-Italic-33"/>
    </g>
   </g>
   <g id="text_32">
    <!-- 4 -->
    <g style="fill: #ff0000" transform="translate(157.892027 69.782811) scale(0.09 -0.09)">
     <defs>
      <path id="DejaVuSerif-Italic-34" d="M 2084 1581 
L 2566 4063 
L 491 1581 
L 2084 1581 
z
M 3150 0 
L 1025 0 
L 1091 331 
L 1841 331 
L 2019 1247 
L -19 1247 
L 47 1588 
L 2706 4750 
L 3325 4750 
L 2709 1581 
L 3600 1581 
L 3534 1247 
L 2644 1247 
L 2466 331 
L 3216 331 
L 3150 0 
z
" transform="scale(0.015625)"/>
     </defs>
     <use xlink:href="#DejaVuSerif-Italic-34"/>
    </g>
   </g>
   <g id="text_33">
    <!-- 5 -->
    <g style="fill: #ff0000" transform="translate(143.67624 63.277782) scale(0.09 -0.09)">
     <defs>
      <path id="DejaVuSerif-Italic-35" d="M 3681 4666 
L 3581 4153 
L 1444 4153 
L 1184 2816 
Q 1369 2928 1597 2984 
Q 1825 3041 2094 3041 
Q 2850 3041 3206 2622 
Q 3563 2203 3422 1478 
Q 3278 738 2754 323 
Q 2231 -91 1431 -91 
Q 1109 -91 787 -12 
Q 466 66 144 225 
L 319 1131 
L 672 1131 
Q 613 688 822 453 
Q 1031 219 1491 219 
Q 1984 219 2314 544 
Q 2644 869 2763 1478 
Q 2878 2084 2678 2407 
Q 2478 2731 1981 2731 
Q 1700 2731 1465 2631 
Q 1231 2531 1025 2322 
L 756 2322 
L 1213 4666 
L 3681 4666 
z
" transform="scale(0.015625)"/>
     </defs>
     <use xlink:href="#DejaVuSerif-Italic-35"/>
    </g>
   </g>
   <g id="text_34">
    <!-- 6 -->
    <g style="fill: #ff0000" transform="translate(155.585456 61.288693) scale(0.09 -0.09)">
     <defs>
      <path id="DejaVuSerif-Italic-36" d="M 1070 553 
Q 1244 219 1684 219 
Q 2125 219 2425 542 
Q 2725 866 2842 1472 
Q 2959 2078 2786 2401 
Q 2613 2725 2172 2725 
Q 1725 2725 1429 2412 
Q 1134 2100 1019 1509 
Q 897 888 1070 553 
z
M 1122 2569 
Q 1378 2803 1670 2918 
Q 1963 3034 2300 3034 
Q 2997 3034 3320 2615 
Q 3644 2197 3503 1472 
Q 3366 763 2845 336 
Q 2325 -91 1597 -91 
Q 806 -91 497 498 
Q 188 1088 400 2181 
Q 638 3406 1272 4078 
Q 1906 4750 2822 4750 
Q 3069 4750 3331 4703 
Q 3594 4656 3859 4563 
L 3709 3794 
L 3356 3794 
Q 3381 4109 3209 4275 
Q 3038 4441 2694 4441 
Q 2088 4441 1702 3981 
Q 1316 3522 1122 2569 
z
" transform="scale(0.015625)"/>
     </defs>
     <use xlink:href="#DejaVuSerif-Italic-36"/>
    </g>
   </g>
   <g id="text_35">
    <!-- 7 -->
    <g style="fill: #ff0000" transform="translate(174.440649 78.769016) scale(0.09 -0.09)">
     <defs>
      <path id="DejaVuSerif-Italic-37" d="M 4000 4347 
L 1331 0 
L 866 0 
L 3413 4153 
L 1256 4153 
L 1144 3578 
L 778 3578 
L 991 4666 
L 4063 4666 
L 4000 4347 
z
" transform="scale(0.015625)"/>
     </defs>
     <use xlink:href="#DejaVuSerif-Italic-37"/>
    </g>
   </g>
   <g id="text_36">
    <!-- 8 -->
    <g style="fill: #ff0000" transform="translate(162.245709 80.876705) scale(0.09 -0.09)">
     <defs>
      <path id="DejaVuSerif-Italic-38" d="M 2775 1275 
Q 2872 1775 2678 2051 
Q 2484 2328 2034 2328 
Q 1584 2328 1281 2051 
Q 978 1775 881 1275 
Q 784 772 979 495 
Q 1175 219 1625 219 
Q 2075 219 2376 495 
Q 2678 772 2775 1275 
z
M 3088 3541 
Q 3172 3966 3001 4203 
Q 2831 4441 2444 4441 
Q 2059 4441 1796 4203 
Q 1534 3966 1450 3541 
Q 1369 3113 1539 2875 
Q 1709 2638 2094 2638 
Q 2481 2638 2743 2875 
Q 3006 3113 3088 3541 
z
M 2547 2484 
Q 3063 2413 3297 2092 
Q 3531 1772 3434 1275 
Q 3309 619 2823 264 
Q 2338 -91 1563 -91 
Q 791 -91 444 264 
Q 97 619 222 1275 
Q 319 1772 678 2092 
Q 1038 2413 1588 2484 
Q 1131 2569 932 2842 
Q 734 3116 816 3541 
Q 925 4103 1376 4426 
Q 1828 4750 2506 4750 
Q 3184 4750 3507 4426 
Q 3831 4103 3722 3541 
Q 3641 3116 3336 2842 
Q 3031 2569 2547 2484 
z
" transform="scale(0.015625)"/>
     </defs>
     <use xlink:href="#DejaVuSerif-Italic-38"/>
    </g>
   </g>
   <g id="Path3DCollection_2">
    <g clip-path="url(#p9a46ec9d50)">
     <use xlink:href="#m681b6b1432" x="167.856253" y="168.624086" style="fill: #87ceeb; stroke: #87ceeb"/>
    </g>
   </g>
   <g id="Path3DCollection_3">
    <g clip-path="url(#p9a46ec9d50)">
     <use xlink:href="#m681b6b1432" x="170.147067" y="176.347887" style="fill: #87ceeb; stroke: #87ceeb"/>
    </g>
   </g>
   <g id="legend_1">
    <g id="patch_6">
     <path d="M 14.2 44.55625 
L 68.870312 44.55625 
Q 70.870312 44.55625 70.870312 42.55625 
L 70.870312 14.2 
Q 70.870312 12.2 68.870312 12.2 
L 14.2 12.2 
Q 12.2 12.2 12.2 14.2 
L 12.2 42.55625 
Q 12.2 44.55625 14.2 44.55625 
z
" style="fill: #ffffff; opacity: 0.8; stroke: #cccccc; stroke-linejoin: miter"/>
    </g>
    <g id="line2d_31">
     <defs>
      <path id="m4eb49a2dff" d="M 0 3 
C 0.795609 3 1.55874 2.683901 2.12132 2.12132 
C 2.683901 1.55874 3 0.795609 3 0 
C 3 -0.795609 2.683901 -1.55874 2.12132 -2.12132 
C 1.55874 -2.683901 0.795609 -3 0 -3 
C -0.795609 -3 -1.55874 -2.683901 -2.12132 -2.12132 
C -2.683901 -1.55874 -3 -0.795609 -3 0 
C -3 0.795609 -2.683901 1.55874 -2.12132 2.12132 
C -1.55874 2.683901 -0.795609 3 0 3 
z
" style="stroke: #87ceeb"/>
     </defs>
     <g>
      <use xlink:href="#m4eb49a2dff" x="26.2" y="20.298437" style="fill: #87ceeb; stroke: #87ceeb"/>
     </g>
    </g>
    <g id="text_37">
     <!-- GS -->
     <g transform="translate(44.2 23.798437) scale(0.1 -0.1)">
      <defs>
       <path id="DejaVuSerif-47" d="M 4097 3272 
Q 3988 3856 3641 4136 
Q 3294 4416 2675 4416 
Q 1869 4416 1472 3897 
Q 1075 3378 1075 2328 
Q 1075 1300 1484 772 
Q 1894 244 2688 244 
Q 3041 244 3362 331 
Q 3684 419 3975 594 
L 3975 1797 
L 3097 1797 
L 3097 2131 
L 4609 2131 
L 4609 391 
Q 4194 150 3714 29 
Q 3234 -91 2688 -91 
Q 1631 -91 995 570 
Q 359 1231 359 2328 
Q 359 3434 996 4092 
Q 1634 4750 2713 4750 
Q 3113 4750 3539 4658 
Q 3966 4566 4447 4378 
L 4447 3272 
L 4097 3272 
z
" transform="scale(0.015625)"/>
       <path id="DejaVuSerif-53" d="M 594 225 
L 594 1288 
L 953 1284 
Q 969 753 1261 498 
Q 1553 244 2150 244 
Q 2706 244 2998 464 
Q 3291 684 3291 1106 
Q 3291 1444 3114 1625 
Q 2938 1806 2369 1978 
L 1753 2163 
Q 1084 2366 811 2669 
Q 538 2972 538 3500 
Q 538 4094 959 4422 
Q 1381 4750 2144 4750 
Q 2469 4750 2856 4679 
Q 3244 4609 3681 4475 
L 3681 3481 
L 3328 3481 
Q 3275 3975 2998 4195 
Q 2722 4416 2156 4416 
Q 1663 4416 1405 4214 
Q 1147 4013 1147 3628 
Q 1147 3294 1340 3103 
Q 1534 2913 2163 2725 
L 2741 2553 
Q 3375 2363 3645 2067 
Q 3916 1772 3916 1275 
Q 3916 597 3481 253 
Q 3047 -91 2188 -91 
Q 1803 -91 1404 -12 
Q 1006 66 594 225 
z
" transform="scale(0.015625)"/>
      </defs>
      <use xlink:href="#DejaVuSerif-47"/>
      <use xlink:href="#DejaVuSerif-53" transform="translate(79.882812 0)"/>
     </g>
    </g>
    <g id="line2d_32">
     <defs>
      <path id="m6399c0cf8f" d="M 0 3 
C 0.795609 3 1.55874 2.683901 2.12132 2.12132 
C 2.683901 1.55874 3 0.795609 3 0 
C 3 -0.795609 2.683901 -1.55874 2.12132 -2.12132 
C 1.55874 -2.683901 0.795609 -3 0 -3 
C -0.795609 -3 -1.55874 -2.683901 -2.12132 -2.12132 
C -2.683901 -1.55874 -3 -0.795609 -3 0 
C -3 0.795609 -2.683901 1.55874 -2.12132 2.12132 
C -1.55874 2.683901 -0.795609 3 0 3 
z
" style="stroke: #ff0000"/>
     </defs>
     <g>
      <use xlink:href="#m6399c0cf8f" x="26.2" y="34.976562" style="fill: #ff0000; stroke: #ff0000"/>
     </g>
    </g>
    <g id="text_38">
     <!-- HAP -->
     <g transform="translate(44.2 38.476562) scale(0.1 -0.1)">
      <defs>
       <path id="DejaVuSerif-48" d="M 353 0 
L 353 331 
L 947 331 
L 947 4331 
L 353 4331 
L 353 4666 
L 2175 4666 
L 2175 4331 
L 1581 4331 
L 1581 2719 
L 4000 2719 
L 4000 4331 
L 3406 4331 
L 3406 4666 
L 5228 4666 
L 5228 4331 
L 4634 4331 
L 4634 331 
L 5228 331 
L 5228 0 
L 3406 0 
L 3406 331 
L 4000 331 
L 4000 2338 
L 1581 2338 
L 1581 331 
L 2175 331 
L 2175 0 
L 353 0 
z
" transform="scale(0.015625)"/>
       <path id="DejaVuSerif-50" d="M 1581 2375 
L 2406 2375 
Q 2872 2375 3115 2626 
Q 3359 2878 3359 3353 
Q 3359 3831 3115 4081 
Q 2872 4331 2406 4331 
L 1581 4331 
L 1581 2375 
z
M 353 0 
L 353 331 
L 947 331 
L 947 4331 
L 353 4331 
L 353 4666 
L 2559 4666 
Q 3259 4666 3668 4311 
Q 4078 3956 4078 3353 
Q 4078 2753 3668 2397 
Q 3259 2041 2559 2041 
L 1581 2041 
L 1581 331 
L 2303 331 
L 2303 0 
L 353 0 
z
" transform="scale(0.015625)"/>
      </defs>
      <use xlink:href="#DejaVuSerif-48"/>
      <use xlink:href="#DejaVuSerif-41" transform="translate(87.207031 0)"/>
      <use xlink:href="#DejaVuSerif-50" transform="translate(159.423828 0)"/>
     </g>
    </g>
   </g>
   <g id="Path3DCollection_4">
    <g clip-path="url(#p9a46ec9d50)">
     <use xlink:href="#m681b6b1432" x="145.702472" y="177.098458" style="fill: #87ceeb; stroke: #87ceeb"/>
    </g>
   </g>
   <g id="Path3DCollection_5">
    <defs>
     <path id="mbfeaf6f3b8" d="M 0 1.118034 
C 0.296506 1.118034 0.580908 1.000231 0.790569 0.790569 
C 1.000231 0.580908 1.118034 0.296506 1.118034 0 
C 1.118034 -0.296506 1.000231 -0.580908 0.790569 -0.790569 
C 0.580908 -1.000231 0.296506 -1.118034 0 -1.118034 
C -0.296506 -1.118034 -0.580908 -1.000231 -0.790569 -0.790569 
C -1.000231 -0.580908 -1.118034 -0.296506 -1.118034 0 
C -1.118034 0.296506 -1.000231 0.580908 -0.790569 0.790569 
C -0.580908 1.000231 -0.296506 1.118034 0 1.118034 
z
" style="stroke: #ff0000"/>
    </defs>
    <g clip-path="url(#p9a46ec9d50)">
     <use xlink:href="#mbfeaf6f3b8" x="151.030884" y="56.063091" style="fill: #ff0000; stroke: #ff0000"/>
    </g>
   </g>
   <g id="Path3DCollection_6">
    <g clip-path="url(#p9a46ec9d50)">
     <use xlink:href="#mbfeaf6f3b8" x="139.130662" y="58.030738" style="fill: #ff0000; stroke: #ff0000"/>
    </g>
   </g>
   <g id="Path3DCollection_7">
    <g clip-path="url(#p9a46ec9d50)">
     <use xlink:href="#m681b6b1432" x="173.950946" y="192.461401" style="fill: #87ceeb; stroke: #87ceeb"/>
    </g>
   </g>
   <g id="Path3DCollection_8">
    <g clip-path="url(#p9a46ec9d50)">
     <use xlink:href="#mbfeaf6f3b8" x="153.267944" y="64.465461" style="fill: #ff0000; stroke: #ff0000"/>
    </g>
   </g>
   <g id="Path3DCollection_9">
    <g clip-path="url(#p9a46ec9d50)">
     <use xlink:href="#mbfeaf6f3b8" x="85.063532" y="69.13275" style="fill: #ff0000; stroke: #ff0000"/>
    </g>
   </g>
   <g id="Path3DCollection_10">
    <g clip-path="url(#p9a46ec9d50)">
     <use xlink:href="#m681b6b1432" x="37.62327" y="203.810192" style="fill: #87ceeb; stroke: #87ceeb"/>
    </g>
   </g>
   <g id="Path3DCollection_11">
    <g clip-path="url(#p9a46ec9d50)">
     <use xlink:href="#mbfeaf6f3b8" x="169.713519" y="73.354076" style="fill: #ff0000; stroke: #ff0000"/>
    </g>
   </g>
   <g id="Path3DCollection_12">
    <g clip-path="url(#p9a46ec9d50)">
     <use xlink:href="#mbfeaf6f3b8" x="157.527842" y="75.438797" style="fill: #ff0000; stroke: #ff0000"/>
    </g>
   </g>
   <g id="Path3DCollection_13">
    <g clip-path="url(#p9a46ec9d50)">
     <use xlink:href="#mbfeaf6f3b8" x="100.619292" y="78.16143" style="fill: #ff0000; stroke: #ff0000"/>
    </g>
   </g>
   <g id="Path3DCollection_14">
    <g clip-path="url(#p9a46ec9d50)">
     <use xlink:href="#mbfeaf6f3b8" x="88.098161" y="80.279304" style="fill: #ff0000; stroke: #ff0000"/>
    </g>
   </g>
   <g id="Path3DCollection_15">
    <g clip-path="url(#p9a46ec9d50)">
     <use xlink:href="#mbfeaf6f3b8" x="102.197031" y="87.208995" style="fill: #ff0000; stroke: #ff0000"/>
    </g>
   </g>
  </g>
 </g>
 <defs>
  <clipPath id="p9a46ec9d50">
   <rect x="7.2" y="7.2" width="266.4" height="266.4"/>
  </clipPath>
 </defs>
</svg>
