<?xml version="1.0" encoding="utf-8" standalone="no"?>
<!DOCTYPE svg PUBLIC "-//W3C//DTD SVG 1.1//EN"
  "http://www.w3.org/Graphics/SVG/1.1/DTD/svg11.dtd">
<svg xmlns:xlink="http://www.w3.org/1999/xlink" width="293.302647pt" height="280.8pt" viewBox="0 0 293.302647 280.8" xmlns="http://www.w3.org/2000/svg" version="1.1">
 <metadata>
  <rdf:RDF xmlns:dc="http://purl.org/dc/elements/1.1/" xmlns:cc="http://creativecommons.org/ns#" xmlns:rdf="http://www.w3.org/1999/02/22-rdf-syntax-ns#">
   <cc:Work>
    <dc:type rdf:resource="http://purl.org/dc/dcmitype/StillImage"/>
    <dc:date>2026-01-28T17:15:48.074338</dc:date>
    <dc:format>image/svg+xml</dc:format>
    <dc:creator>
     <cc:Agent>
      <dc:title>Matplotlib v3.10.8, https://matplotlib.org/</dc:title>
     </cc:Agent>
    </dc:creator>
   </cc:Work>
  </rdf:RDF>
 </metadata>
 <defs>
  <style type="text/css">*{stroke-linejoin: round; stroke-linecap: butt}</style>
 </defs>
 <g id="figure_1">
  <g id="patch_1">
   <path d="M 0 280.8 
L 293.302647 280.8 
L 293.302647 0 
L 0 0 
z
" style="fill: #ffffff"/>
  </g>
  <g id="patch_2">
   <path d="M 7.2 273.6 
L 273.6 273.6 
L 273.6 7.2 
L 7.2 7.2 
z
" style="fill: #ffffff"/>
  </g>
  <g id="pane3d_1">
   <g id="patch_3">
    <path d="M 26.809092 208.384629 
L 115.28431 144.835407 
L 114.257078 34.654119 
L 22.209431 89.988907 
" style="fill: #f2f2f2; opacity: 0.5; stroke: #f2f2f2; stroke-linejoin: miter"/>
   </g>
  </g>
  <g id="pane3d_2">
   <g id="patch_4">
    <path d="M 115.28431 144.835407 
L 256.73488 180.130473 
L 260.985057 65.341113 
L 114.257078 34.654119 
" style="fill: #e6e6e6; opacity: 0.5; stroke: #e6e6e6; stroke-linejoin: miter"/>
   </g>
  </g>
  <g id="pane3d_3">
   <g id="patch_5">
    <path d="M 26.809092 208.384629 
L 177.193469 250.796066 
L 256.73488 180.130473 
L 115.28431 144.835407 
" style="fill: #ececec; opacity: 0.5; stroke: #ececec; stroke-linejoin: miter"/>
   </g>
  </g>
  <g id="grid3d_1">
   <g id="Line3DCollection_1">
    <path d="M 40.202374 212.161805 
L 127.937937 147.992769 
L 127.360591 37.394615 
" style="fill: none; stroke: #b0b0b0; stroke-width: 0.8"/>
    <path d="M 67.808815 219.94738 
L 153.985124 154.492122 
L 154.347577 43.038729 
" style="fill: none; stroke: #b0b0b0; stroke-width: 0.8"/>
    <path d="M 95.996892 227.896989 
L 180.533038 161.116417 
L 181.872376 48.795323 
" style="fill: none; stroke: #b0b0b0; stroke-width: 0.8"/>
    <path d="M 124.785184 236.015869 
L 207.596257 167.869293 
L 209.951227 54.667792 
" style="fill: none; stroke: #b0b0b0; stroke-width: 0.8"/>
    <path d="M 154.193066 244.309487 
L 235.189933 174.754529 
L 238.601029 60.659671 
" style="fill: none; stroke: #b0b0b0; stroke-width: 0.8"/>
   </g>
  </g>
  <g id="grid3d_2">
   <g id="Line3DCollection_2">
    <path d="M 33.343337 83.295718 
L 37.479399 200.720452 
L 186.827494 242.237077 
" style="fill: none; stroke: #b0b0b0; stroke-width: 0.8"/>
    <path d="M 47.241639 74.940701 
L 50.811127 191.144653 
L 198.848547 231.557422 
" style="fill: none; stroke: #b0b0b0; stroke-width: 0.8"/>
    <path d="M 60.769147 66.808589 
L 63.800128 181.815024 
L 210.543596 221.167393 
" style="fill: none; stroke: #b0b0b0; stroke-width: 0.8"/>
    <path d="M 73.940504 58.890578 
L 76.459451 172.722194 
L 221.925724 211.055367 
" style="fill: none; stroke: #b0b0b0; stroke-width: 0.8"/>
    <path d="M 86.769592 51.178324 
L 88.801491 163.857259 
L 233.007324 201.210333 
" style="fill: none; stroke: #b0b0b0; stroke-width: 0.8"/>
    <path d="M 99.269581 43.663908 
L 100.838028 155.211759 
L 243.800144 191.621856 
" style="fill: none; stroke: #b0b0b0; stroke-width: 0.8"/>
    <path d="M 111.452975 36.339815 
L 112.580266 146.777645 
L 254.315327 182.280034 
" style="fill: none; stroke: #b0b0b0; stroke-width: 0.8"/>
   </g>
  </g>
  <g id="grid3d_3">
   <g id="Line3DCollection_3">
    <path d="M 256.812212 178.041891 
L 115.265585 142.827005 
L 26.725524 206.233581 
" style="fill: none; stroke: #b0b0b0; stroke-width: 0.8"/>
    <path d="M 257.591403 156.99739 
L 115.076988 122.59798 
L 25.883242 184.553167 
" style="fill: none; stroke: #b0b0b0; stroke-width: 0.8"/>
    <path d="M 258.381433 135.660158 
L 114.885898 102.101655 
L 25.028774 162.559076 
" style="fill: none; stroke: #b0b0b0; stroke-width: 0.8"/>
    <path d="M 259.182529 114.024047 
L 114.692267 81.332698 
L 24.161853 140.244452 
" style="fill: none; stroke: #b0b0b0; stroke-width: 0.8"/>
    <path d="M 259.994925 92.082732 
L 114.496043 60.285631 
L 23.282206 117.602235 
" style="fill: none; stroke: #b0b0b0; stroke-width: 0.8"/>
    <path d="M 260.818863 69.829708 
L 114.297174 38.954832 
L 22.389549 94.62516 
" style="fill: none; stroke: #b0b0b0; stroke-width: 0.8"/>
   </g>
  </g>
  <g id="axis3d_1">
   <g id="line2d_1">
    <path d="M 26.809092 208.384629 
L 177.193469 250.796066 
" style="fill: none; stroke: #000000; stroke-width: 0.8; stroke-linecap: square"/>
   </g>
   <g id="xtick_1">
    <g id="line2d_2">
     <path d="M 40.969656 211.600622 
L 38.664343 213.286708 
" style="fill: none; stroke: #000000; stroke-width: 0.8; stroke-linecap: square"/>
    </g>
    <g id="text_1">
     <!-- 277 -->
     <g transform="translate(22.994293 235.128544) scale(0.1 -0.1)">
      <defs>
       <path id="DejaVuSerif-32" d="M 819 3553 
L 469 3553 
L 469 4384 
Q 803 4563 1142 4656 
Q 1481 4750 1806 4750 
Q 2534 4750 2956 4397 
Q 3378 4044 3378 3438 
Q 3378 2753 2422 1800 
Q 2347 1728 2309 1691 
L 1131 513 
L 3078 513 
L 3078 1088 
L 3444 1088 
L 3444 0 
L 434 0 
L 434 341 
L 1850 1753 
Q 2319 2222 2519 2614 
Q 2719 3006 2719 3438 
Q 2719 3909 2473 4175 
Q 2228 4441 1797 4441 
Q 1350 4441 1106 4219 
Q 863 3997 819 3553 
z
" transform="scale(0.015625)"/>
       <path id="DejaVuSerif-37" d="M 3609 4347 
L 1784 0 
L 1319 0 
L 3059 4153 
L 903 4153 
L 903 3578 
L 538 3578 
L 538 4666 
L 3609 4666 
L 3609 4347 
z
" transform="scale(0.015625)"/>
      </defs>
      <use xlink:href="#DejaVuSerif-32"/>
      <use xlink:href="#DejaVuSerif-37" transform="translate(63.623047 0)"/>
      <use xlink:href="#DejaVuSerif-37" transform="translate(127.246094 0)"/>
     </g>
    </g>
   </g>
   <g id="xtick_2">
    <g id="line2d_3">
     <path d="M 68.56313 219.37444 
L 66.296741 221.095877 
" style="fill: none; stroke: #000000; stroke-width: 0.8; stroke-linecap: square"/>
    </g>
    <g id="text_2">
     <!-- 278 -->
     <g transform="translate(50.650626 243.111792) scale(0.1 -0.1)">
      <defs>
       <path id="DejaVuSerif-38" d="M 2981 1275 
Q 2981 1775 2732 2051 
Q 2484 2328 2034 2328 
Q 1584 2328 1336 2051 
Q 1088 1775 1088 1275 
Q 1088 772 1336 495 
Q 1584 219 2034 219 
Q 2484 219 2732 495 
Q 2981 772 2981 1275 
z
M 2853 3541 
Q 2853 3966 2637 4203 
Q 2422 4441 2034 4441 
Q 1650 4441 1433 4203 
Q 1216 3966 1216 3541 
Q 1216 3113 1433 2875 
Q 1650 2638 2034 2638 
Q 2422 2638 2637 2875 
Q 2853 3113 2853 3541 
z
M 2516 2484 
Q 3047 2413 3344 2092 
Q 3641 1772 3641 1275 
Q 3641 619 3225 264 
Q 2809 -91 2034 -91 
Q 1263 -91 845 264 
Q 428 619 428 1275 
Q 428 1772 725 2092 
Q 1022 2413 1556 2484 
Q 1084 2569 832 2842 
Q 581 3116 581 3541 
Q 581 4103 968 4426 
Q 1356 4750 2034 4750 
Q 2713 4750 3100 4426 
Q 3488 4103 3488 3541 
Q 3488 3116 3236 2842 
Q 2984 2569 2516 2484 
z
" transform="scale(0.015625)"/>
      </defs>
      <use xlink:href="#DejaVuSerif-32"/>
      <use xlink:href="#DejaVuSerif-37" transform="translate(63.623047 0)"/>
      <use xlink:href="#DejaVuSerif-38" transform="translate(127.246094 0)"/>
     </g>
    </g>
   </g>
   <g id="xtick_3">
    <g id="line2d_4">
     <path d="M 96.737521 227.311918 
L 94.512218 229.069829 
" style="fill: none; stroke: #000000; stroke-width: 0.8; stroke-linecap: square"/>
    </g>
    <g id="text_3">
     <!-- 279 -->
     <g transform="translate(78.892423 251.264041) scale(0.1 -0.1)">
      <defs>
       <path id="DejaVuSerif-39" d="M 2994 2091 
Q 2784 1856 2512 1740 
Q 2241 1625 1900 1625 
Q 1206 1625 804 2044 
Q 403 2463 403 3188 
Q 403 3897 839 4323 
Q 1275 4750 2003 4750 
Q 2794 4750 3217 4161 
Q 3641 3572 3641 2478 
Q 3641 1253 3137 581 
Q 2634 -91 1722 -91 
Q 1475 -91 1203 -44 
Q 931 3 647 97 
L 647 872 
L 997 872 
Q 1038 556 1241 387 
Q 1444 219 1784 219 
Q 2391 219 2687 676 
Q 2984 1134 2994 2091 
z
M 1978 4441 
Q 1534 4441 1298 4117 
Q 1063 3794 1063 3188 
Q 1063 2581 1298 2256 
Q 1534 1931 1978 1931 
Q 2422 1931 2658 2245 
Q 2894 2559 2894 3150 
Q 2894 3772 2656 4106 
Q 2419 4441 1978 4441 
z
" transform="scale(0.015625)"/>
      </defs>
      <use xlink:href="#DejaVuSerif-32"/>
      <use xlink:href="#DejaVuSerif-37" transform="translate(63.623047 0)"/>
      <use xlink:href="#DejaVuSerif-39" transform="translate(127.246094 0)"/>
     </g>
    </g>
   </g>
   <g id="xtick_4">
    <g id="line2d_5">
     <path d="M 125.511369 235.418279 
L 123.329426 237.213836 
" style="fill: none; stroke: #000000; stroke-width: 0.8; stroke-linecap: square"/>
    </g>
    <g id="text_4">
     <!-- 280 -->
     <g transform="translate(107.738474 259.590712) scale(0.1 -0.1)">
      <defs>
       <path id="DejaVuSerif-30" d="M 2034 219 
Q 2513 219 2750 744 
Q 2988 1269 2988 2328 
Q 2988 3391 2750 3916 
Q 2513 4441 2034 4441 
Q 1556 4441 1318 3916 
Q 1081 3391 1081 2328 
Q 1081 1269 1318 744 
Q 1556 219 2034 219 
z
M 2034 -91 
Q 1275 -91 848 546 
Q 422 1184 422 2328 
Q 422 3475 848 4112 
Q 1275 4750 2034 4750 
Q 2797 4750 3222 4112 
Q 3647 3475 3647 2328 
Q 3647 1184 3222 546 
Q 2797 -91 2034 -91 
z
" transform="scale(0.015625)"/>
      </defs>
      <use xlink:href="#DejaVuSerif-32"/>
      <use xlink:href="#DejaVuSerif-38" transform="translate(63.623047 0)"/>
      <use xlink:href="#DejaVuSerif-30" transform="translate(127.246094 0)"/>
     </g>
    </g>
   </g>
   <g id="xtick_5">
    <g id="line2d_6">
     <path d="M 154.904013 243.698972 
L 152.767823 245.533396 
" style="fill: none; stroke: #000000; stroke-width: 0.8; stroke-linecap: square"/>
    </g>
    <g id="text_5">
     <!-- 281 -->
     <g transform="translate(137.208382 268.097466) scale(0.1 -0.1)">
      <defs>
       <path id="DejaVuSerif-31" d="M 909 0 
L 909 331 
L 1722 331 
L 1722 4213 
L 781 3603 
L 781 4013 
L 1919 4750 
L 2350 4750 
L 2350 331 
L 3163 331 
L 3163 0 
L 909 0 
z
" transform="scale(0.015625)"/>
      </defs>
      <use xlink:href="#DejaVuSerif-32"/>
      <use xlink:href="#DejaVuSerif-38" transform="translate(63.623047 0)"/>
      <use xlink:href="#DejaVuSerif-31" transform="translate(127.246094 0)"/>
     </g>
    </g>
   </g>
   <g id="text_6">
    <!-- Longitude -->
    <g transform="translate(46.23342 266.212809) rotate(-344.250474) scale(0.13 -0.13)">
     <defs>
      <path id="DejaVuSerif-4c" d="M 353 0 
L 353 331 
L 947 331 
L 947 4331 
L 353 4331 
L 353 4666 
L 2175 4666 
L 2175 4331 
L 1581 4331 
L 1581 384 
L 3713 384 
L 3713 1166 
L 4097 1166 
L 4097 0 
L 353 0 
z
" transform="scale(0.015625)"/>
      <path id="DejaVuSerif-6f" d="M 1925 219 
Q 2388 219 2623 584 
Q 2859 950 2859 1663 
Q 2859 2375 2623 2739 
Q 2388 3103 1925 3103 
Q 1463 3103 1227 2739 
Q 991 2375 991 1663 
Q 991 950 1228 584 
Q 1466 219 1925 219 
z
M 1925 -91 
Q 1200 -91 759 389 
Q 319 869 319 1663 
Q 319 2456 758 2934 
Q 1197 3413 1925 3413 
Q 2653 3413 3092 2934 
Q 3531 2456 3531 1663 
Q 3531 869 3092 389 
Q 2653 -91 1925 -91 
z
" transform="scale(0.015625)"/>
      <path id="DejaVuSerif-6e" d="M 263 0 
L 263 331 
L 781 331 
L 781 2988 
L 231 2988 
L 231 3322 
L 1356 3322 
L 1356 2731 
Q 1516 3069 1770 3241 
Q 2025 3413 2363 3413 
Q 2913 3413 3172 3097 
Q 3431 2781 3431 2113 
L 3431 331 
L 3944 331 
L 3944 0 
L 2356 0 
L 2356 331 
L 2853 331 
L 2853 1931 
Q 2853 2541 2703 2767 
Q 2553 2994 2175 2994 
Q 1775 2994 1565 2701 
Q 1356 2409 1356 1850 
L 1356 331 
L 1856 331 
L 1856 0 
L 263 0 
z
" transform="scale(0.015625)"/>
      <path id="DejaVuSerif-67" d="M 3359 2988 
L 3359 72 
Q 3359 -644 2965 -1033 
Q 2572 -1422 1844 -1422 
Q 1516 -1422 1216 -1362 
Q 916 -1303 641 -1184 
L 641 -488 
L 941 -488 
Q 997 -813 1206 -963 
Q 1416 -1113 1806 -1113 
Q 2313 -1113 2548 -827 
Q 2784 -541 2784 72 
L 2784 519 
Q 2616 206 2355 57 
Q 2094 -91 1709 -91 
Q 1097 -91 708 395 
Q 319 881 319 1663 
Q 319 2444 706 2928 
Q 1094 3413 1709 3413 
Q 2094 3413 2355 3264 
Q 2616 3116 2784 2803 
L 2784 3322 
L 3909 3322 
L 3909 2988 
L 3359 2988 
z
M 2784 1825 
Q 2784 2422 2554 2737 
Q 2325 3053 1888 3053 
Q 1444 3053 1217 2703 
Q 991 2353 991 1663 
Q 991 975 1217 622 
Q 1444 269 1888 269 
Q 2325 269 2554 583 
Q 2784 897 2784 1497 
L 2784 1825 
z
" transform="scale(0.015625)"/>
      <path id="DejaVuSerif-69" d="M 622 4353 
Q 622 4497 726 4603 
Q 831 4709 978 4709 
Q 1122 4709 1226 4603 
Q 1331 4497 1331 4353 
Q 1331 4206 1228 4103 
Q 1125 4000 978 4000 
Q 831 4000 726 4103 
Q 622 4206 622 4353 
z
M 1356 331 
L 1900 331 
L 1900 0 
L 231 0 
L 231 331 
L 781 331 
L 781 2988 
L 231 2988 
L 231 3322 
L 1356 3322 
L 1356 331 
z
" transform="scale(0.015625)"/>
      <path id="DejaVuSerif-74" d="M 691 2988 
L 184 2988 
L 184 3322 
L 691 3322 
L 691 4353 
L 1269 4353 
L 1269 3322 
L 2350 3322 
L 2350 2988 
L 1269 2988 
L 1269 878 
Q 1269 456 1350 337 
Q 1431 219 1650 219 
Q 1875 219 1978 351 
Q 2081 484 2088 781 
L 2522 781 
Q 2497 328 2275 118 
Q 2053 -91 1600 -91 
Q 1103 -91 897 129 
Q 691 350 691 878 
L 691 2988 
z
" transform="scale(0.015625)"/>
      <path id="DejaVuSerif-75" d="M 2266 3322 
L 3341 3322 
L 3341 331 
L 3884 331 
L 3884 0 
L 2766 0 
L 2766 588 
Q 2606 256 2353 82 
Q 2100 -91 1766 -91 
Q 1213 -91 952 223 
Q 691 538 691 1209 
L 691 2988 
L 172 2988 
L 172 3322 
L 1269 3322 
L 1269 1388 
Q 1269 781 1417 556 
Q 1566 331 1947 331 
Q 2347 331 2556 625 
Q 2766 919 2766 1478 
L 2766 2988 
L 2266 2988 
L 2266 3322 
z
" transform="scale(0.015625)"/>
      <path id="DejaVuSerif-64" d="M 3359 331 
L 3909 331 
L 3909 0 
L 2784 0 
L 2784 519 
Q 2616 206 2355 57 
Q 2094 -91 1709 -91 
Q 1097 -91 708 395 
Q 319 881 319 1663 
Q 319 2444 706 2928 
Q 1094 3413 1709 3413 
Q 2094 3413 2355 3264 
Q 2616 3116 2784 2803 
L 2784 4531 
L 2241 4531 
L 2241 4863 
L 3359 4863 
L 3359 331 
z
M 2784 1497 
L 2784 1825 
Q 2784 2422 2554 2737 
Q 2325 3053 1888 3053 
Q 1444 3053 1217 2703 
Q 991 2353 991 1663 
Q 991 975 1217 622 
Q 1444 269 1888 269 
Q 2325 269 2554 583 
Q 2784 897 2784 1497 
z
" transform="scale(0.015625)"/>
      <path id="DejaVuSerif-65" d="M 3469 1600 
L 991 1600 
L 991 1575 
Q 991 903 1244 561 
Q 1497 219 1991 219 
Q 2369 219 2611 417 
Q 2853 616 2950 1006 
L 3413 1006 
Q 3275 459 2904 184 
Q 2534 -91 1931 -91 
Q 1203 -91 761 389 
Q 319 869 319 1663 
Q 319 2450 753 2931 
Q 1188 3413 1894 3413 
Q 2647 3413 3050 2948 
Q 3453 2484 3469 1600 
z
M 2791 1931 
Q 2772 2513 2545 2808 
Q 2319 3103 1894 3103 
Q 1497 3103 1269 2806 
Q 1041 2509 991 1931 
L 2791 1931 
z
" transform="scale(0.015625)"/>
     </defs>
     <use xlink:href="#DejaVuSerif-4c"/>
     <use xlink:href="#DejaVuSerif-6f" transform="translate(66.40625 0)"/>
     <use xlink:href="#DejaVuSerif-6e" transform="translate(126.611328 0)"/>
     <use xlink:href="#DejaVuSerif-67" transform="translate(191.015625 0)"/>
     <use xlink:href="#DejaVuSerif-69" transform="translate(255.029297 0)"/>
     <use xlink:href="#DejaVuSerif-74" transform="translate(287.011719 0)"/>
     <use xlink:href="#DejaVuSerif-75" transform="translate(327.197266 0)"/>
     <use xlink:href="#DejaVuSerif-64" transform="translate(391.601562 0)"/>
     <use xlink:href="#DejaVuSerif-65" transform="translate(455.615234 0)"/>
    </g>
   </g>
  </g>
  <g id="axis3d_2">
   <g id="line2d_7">
    <path d="M 256.73488 180.130473 
L 177.193469 250.796066 
" style="fill: none; stroke: #000000; stroke-width: 0.8; stroke-linecap: square"/>
   </g>
   <g id="xtick_6">
    <g id="line2d_8">
     <path d="M 185.565828 241.886352 
L 189.354247 242.939478 
" style="fill: none; stroke: #000000; stroke-width: 0.8; stroke-linecap: square"/>
    </g>
    <g id="text_7">
     <!-- 46.5 -->
     <g transform="translate(188.649946 263.25141) scale(0.1 -0.1)">
      <defs>
       <path id="DejaVuSerif-34" d="M 2234 1581 
L 2234 4063 
L 641 1581 
L 2234 1581 
z
M 3609 0 
L 1484 0 
L 1484 331 
L 2234 331 
L 2234 1247 
L 197 1247 
L 197 1588 
L 2241 4750 
L 2859 4750 
L 2859 1581 
L 3750 1581 
L 3750 1247 
L 2859 1247 
L 2859 331 
L 3609 331 
L 3609 0 
z
" transform="scale(0.015625)"/>
       <path id="DejaVuSerif-36" d="M 2094 219 
Q 2534 219 2771 542 
Q 3009 866 3009 1472 
Q 3009 2078 2771 2401 
Q 2534 2725 2094 2725 
Q 1647 2725 1412 2412 
Q 1178 2100 1178 1509 
Q 1178 888 1415 553 
Q 1653 219 2094 219 
z
M 1075 2569 
Q 1288 2803 1556 2918 
Q 1825 3034 2163 3034 
Q 2859 3034 3264 2615 
Q 3669 2197 3669 1472 
Q 3669 763 3233 336 
Q 2797 -91 2069 -91 
Q 1278 -91 853 498 
Q 428 1088 428 2181 
Q 428 3406 931 4078 
Q 1434 4750 2350 4750 
Q 2597 4750 2869 4703 
Q 3141 4656 3425 4563 
L 3425 3794 
L 3072 3794 
Q 3034 4109 2831 4275 
Q 2628 4441 2284 4441 
Q 1678 4441 1381 3981 
Q 1084 3522 1075 2569 
z
" transform="scale(0.015625)"/>
       <path id="DejaVuSerif-2e" d="M 603 325 
Q 603 500 722 622 
Q 841 744 1019 744 
Q 1191 744 1312 622 
Q 1434 500 1434 325 
Q 1434 153 1312 31 
Q 1191 -91 1019 -91 
Q 841 -91 722 29 
Q 603 150 603 325 
z
" transform="scale(0.015625)"/>
       <path id="DejaVuSerif-35" d="M 3219 4666 
L 3219 4153 
L 1081 4153 
L 1081 2816 
Q 1244 2928 1461 2984 
Q 1678 3041 1947 3041 
Q 2703 3041 3140 2622 
Q 3578 2203 3578 1478 
Q 3578 738 3136 323 
Q 2694 -91 1894 -91 
Q 1572 -91 1234 -12 
Q 897 66 544 225 
L 544 1131 
L 897 1131 
Q 925 688 1179 453 
Q 1434 219 1894 219 
Q 2388 219 2653 544 
Q 2919 869 2919 1478 
Q 2919 2084 2655 2407 
Q 2391 2731 1894 2731 
Q 1613 2731 1398 2631 
Q 1184 2531 1019 2322 
L 750 2322 
L 750 4666 
L 3219 4666 
z
" transform="scale(0.015625)"/>
      </defs>
      <use xlink:href="#DejaVuSerif-34"/>
      <use xlink:href="#DejaVuSerif-36" transform="translate(63.623047 0)"/>
      <use xlink:href="#DejaVuSerif-2e" transform="translate(127.246094 0)"/>
      <use xlink:href="#DejaVuSerif-35" transform="translate(159.033203 0)"/>
     </g>
    </g>
   </g>
   <g id="xtick_7">
    <g id="line2d_9">
     <path d="M 197.598865 231.216271 
L 201.351255 232.240636 
" style="fill: none; stroke: #000000; stroke-width: 0.8; stroke-linecap: square"/>
    </g>
    <g id="text_8">
     <!-- 47.0 -->
     <g transform="translate(200.509362 252.372249) scale(0.1 -0.1)">
      <use xlink:href="#DejaVuSerif-34"/>
      <use xlink:href="#DejaVuSerif-37" transform="translate(63.623047 0)"/>
      <use xlink:href="#DejaVuSerif-2e" transform="translate(127.246094 0)"/>
      <use xlink:href="#DejaVuSerif-30" transform="translate(159.033203 0)"/>
     </g>
    </g>
   </g>
   <g id="xtick_8">
    <g id="line2d_10">
     <path d="M 209.305715 220.835429 
L 213.022624 221.832197 
" style="fill: none; stroke: #000000; stroke-width: 0.8; stroke-linecap: square"/>
    </g>
    <g id="text_9">
     <!-- 47.5 -->
     <g transform="translate(212.046717 241.788529) scale(0.1 -0.1)">
      <use xlink:href="#DejaVuSerif-34"/>
      <use xlink:href="#DejaVuSerif-37" transform="translate(63.623047 0)"/>
      <use xlink:href="#DejaVuSerif-2e" transform="translate(127.246094 0)"/>
      <use xlink:href="#DejaVuSerif-35" transform="translate(159.033203 0)"/>
     </g>
    </g>
   </g>
   <g id="xtick_9">
    <g id="line2d_11">
     <path d="M 220.699464 210.732224 
L 224.381435 211.702494 
" style="fill: none; stroke: #000000; stroke-width: 0.8; stroke-linecap: square"/>
    </g>
    <g id="text_10">
     <!-- 48.0 -->
     <g transform="translate(223.274953 231.488378) scale(0.1 -0.1)">
      <use xlink:href="#DejaVuSerif-34"/>
      <use xlink:href="#DejaVuSerif-38" transform="translate(63.623047 0)"/>
      <use xlink:href="#DejaVuSerif-2e" transform="translate(127.246094 0)"/>
      <use xlink:href="#DejaVuSerif-30" transform="translate(159.033203 0)"/>
     </g>
    </g>
   </g>
   <g id="xtick_10">
    <g id="line2d_12">
     <path d="M 231.792508 200.895664 
L 235.440077 201.84048 
" style="fill: none; stroke: #000000; stroke-width: 0.8; stroke-linecap: square"/>
    </g>
    <g id="text_11">
     <!-- 48.5 -->
     <g transform="translate(234.206329 221.460549) scale(0.1 -0.1)">
      <use xlink:href="#DejaVuSerif-34"/>
      <use xlink:href="#DejaVuSerif-38" transform="translate(63.623047 0)"/>
      <use xlink:href="#DejaVuSerif-2e" transform="translate(127.246094 0)"/>
      <use xlink:href="#DejaVuSerif-35" transform="translate(159.033203 0)"/>
     </g>
    </g>
   </g>
   <g id="xtick_11">
    <g id="line2d_13">
     <path d="M 242.596595 191.315332 
L 246.210294 192.235681 
" style="fill: none; stroke: #000000; stroke-width: 0.8; stroke-linecap: square"/>
    </g>
    <g id="text_12">
     <!-- 49.0 -->
     <g transform="translate(244.852465 211.694383) scale(0.1 -0.1)">
      <use xlink:href="#DejaVuSerif-34"/>
      <use xlink:href="#DejaVuSerif-39" transform="translate(63.623047 0)"/>
      <use xlink:href="#DejaVuSerif-2e" transform="translate(127.246094 0)"/>
      <use xlink:href="#DejaVuSerif-30" transform="translate(159.033203 0)"/>
     </g>
    </g>
   </g>
   <g id="xtick_12">
    <g id="line2d_14">
     <path d="M 253.122872 181.981343 
L 256.703224 182.878165 
" style="fill: none; stroke: #000000; stroke-width: 0.8; stroke-linecap: square"/>
    </g>
    <g id="text_13">
     <!-- 49.5 -->
     <g transform="translate(255.224381 202.179771) scale(0.1 -0.1)">
      <use xlink:href="#DejaVuSerif-34"/>
      <use xlink:href="#DejaVuSerif-39" transform="translate(63.623047 0)"/>
      <use xlink:href="#DejaVuSerif-2e" transform="translate(127.246094 0)"/>
      <use xlink:href="#DejaVuSerif-35" transform="translate(159.033203 0)"/>
     </g>
    </g>
   </g>
   <g id="text_14">
    <!-- Latitude -->
    <g transform="translate(234.356996 269.686639) rotate(-41.618292) scale(0.13 -0.13)">
     <defs>
      <path id="DejaVuSerif-61" d="M 2547 1044 
L 2547 1747 
L 1806 1747 
Q 1378 1747 1168 1562 
Q 959 1378 959 997 
Q 959 650 1171 447 
Q 1384 244 1747 244 
Q 2106 244 2326 466 
Q 2547 688 2547 1044 
z
M 3122 2075 
L 3122 331 
L 3634 331 
L 3634 0 
L 2547 0 
L 2547 359 
Q 2356 128 2106 18 
Q 1856 -91 1522 -91 
Q 969 -91 644 203 
Q 319 497 319 997 
Q 319 1513 691 1797 
Q 1063 2081 1741 2081 
L 2547 2081 
L 2547 2309 
Q 2547 2688 2317 2895 
Q 2088 3103 1672 3103 
Q 1328 3103 1125 2947 
Q 922 2791 872 2484 
L 575 2484 
L 575 3156 
Q 875 3284 1158 3348 
Q 1441 3413 1709 3413 
Q 2400 3413 2761 3070 
Q 3122 2728 3122 2075 
z
" transform="scale(0.015625)"/>
     </defs>
     <use xlink:href="#DejaVuSerif-4c"/>
     <use xlink:href="#DejaVuSerif-61" transform="translate(66.40625 0)"/>
     <use xlink:href="#DejaVuSerif-74" transform="translate(126.025391 0)"/>
     <use xlink:href="#DejaVuSerif-69" transform="translate(166.210938 0)"/>
     <use xlink:href="#DejaVuSerif-74" transform="translate(198.193359 0)"/>
     <use xlink:href="#DejaVuSerif-75" transform="translate(238.378906 0)"/>
     <use xlink:href="#DejaVuSerif-64" transform="translate(302.783203 0)"/>
     <use xlink:href="#DejaVuSerif-65" transform="translate(366.796875 0)"/>
    </g>
   </g>
  </g>
  <g id="axis3d_3">
   <g id="line2d_15">
    <path d="M 256.73488 180.130473 
L 260.985057 65.341113 
" style="fill: none; stroke: #000000; stroke-width: 0.8; stroke-linecap: square"/>
   </g>
   <g id="xtick_13">
    <g id="line2d_16">
     <path d="M 255.621477 177.745652 
L 259.196656 178.635108 
" style="fill: none; stroke: #000000; stroke-width: 0.8; stroke-linecap: square"/>
    </g>
    <g id="text_15">
     <!-- 0 -->
     <g transform="translate(271.917921 183.399694) scale(0.1 -0.1)">
      <use xlink:href="#DejaVuSerif-30"/>
     </g>
    </g>
   </g>
   <g id="xtick_14">
    <g id="line2d_17">
     <path d="M 256.392121 156.707913 
L 259.992983 157.577071 
" style="fill: none; stroke: #000000; stroke-width: 0.8; stroke-linecap: square"/>
    </g>
    <g id="text_16">
     <!-- 5 -->
     <g transform="translate(272.820553 162.406379) scale(0.1 -0.1)">
      <use xlink:href="#DejaVuSerif-35"/>
     </g>
    </g>
   </g>
   <g id="xtick_15">
    <g id="line2d_18">
     <path d="M 257.17348 135.377661 
L 260.800396 136.225868 
" style="fill: none; stroke: #000000; stroke-width: 0.8; stroke-linecap: square"/>
    </g>
    <g id="text_17">
     <!-- 10 -->
     <g transform="translate(270.554451 141.121978) scale(0.1 -0.1)">
      <use xlink:href="#DejaVuSerif-31"/>
      <use xlink:href="#DejaVuSerif-30" transform="translate(63.623047 0)"/>
     </g>
    </g>
   </g>
   <g id="xtick_16">
    <g id="line2d_19">
     <path d="M 257.965779 113.748754 
L 261.619129 114.575335 
" style="fill: none; stroke: #000000; stroke-width: 0.8; stroke-linecap: square"/>
    </g>
    <g id="text_18">
     <!-- 15 -->
     <g transform="translate(271.482377 119.540394) scale(0.1 -0.1)">
      <use xlink:href="#DejaVuSerif-31"/>
      <use xlink:href="#DejaVuSerif-35" transform="translate(63.623047 0)"/>
     </g>
    </g>
   </g>
   <g id="xtick_17">
    <g id="line2d_20">
     <path d="M 258.76925 91.814875 
L 262.449421 92.619134 
" style="fill: none; stroke: #000000; stroke-width: 0.8; stroke-linecap: square"/>
    </g>
    <g id="text_19">
     <!-- 20 -->
     <g transform="translate(272.42335 97.655359) scale(0.1 -0.1)">
      <use xlink:href="#DejaVuSerif-32"/>
      <use xlink:href="#DejaVuSerif-30" transform="translate(63.623047 0)"/>
     </g>
    </g>
   </g>
   <g id="xtick_18">
    <g id="line2d_21">
     <path d="M 259.584131 69.569527 
L 263.291519 70.350743 
" style="fill: none; stroke: #000000; stroke-width: 0.8; stroke-linecap: square"/>
    </g>
    <g id="text_20">
     <!-- 25 -->
     <g transform="translate(273.377647 75.460427) scale(0.1 -0.1)">
      <use xlink:href="#DejaVuSerif-32"/>
      <use xlink:href="#DejaVuSerif-35" transform="translate(63.623047 0)"/>
     </g>
    </g>
   </g>
   <g id="text_21">
    <!-- Altitude (km) -->
    <g transform="translate(310.677584 161.763358) rotate(-87.879542) scale(0.13 -0.13)">
     <defs>
      <path id="DejaVuSerif-41" d="M 1281 1691 
L 2994 1691 
L 2138 3909 
L 1281 1691 
z
M -38 0 
L -38 331 
L 372 331 
L 2034 4666 
L 2559 4666 
L 4225 331 
L 4684 331 
L 4684 0 
L 2988 0 
L 2988 331 
L 3506 331 
L 3116 1356 
L 1153 1356 
L 763 331 
L 1275 331 
L 1275 0 
L -38 0 
z
" transform="scale(0.015625)"/>
      <path id="DejaVuSerif-6c" d="M 1313 331 
L 1856 331 
L 1856 0 
L 184 0 
L 184 331 
L 738 331 
L 738 4531 
L 184 4531 
L 184 4863 
L 1313 4863 
L 1313 331 
z
" transform="scale(0.015625)"/>
      <path id="DejaVuSerif-20" transform="scale(0.015625)"/>
      <path id="DejaVuSerif-28" d="M 2041 -997 
Q 1281 -656 893 83 
Q 506 822 506 1931 
Q 506 3044 893 3783 
Q 1281 4522 2041 4863 
L 2041 4556 
Q 1559 4225 1350 3623 
Q 1141 3022 1141 1931 
Q 1141 844 1350 242 
Q 1559 -359 2041 -691 
L 2041 -997 
z
" transform="scale(0.015625)"/>
      <path id="DejaVuSerif-6b" d="M 1831 0 
L 219 0 
L 219 331 
L 738 331 
L 738 4531 
L 184 4531 
L 184 4863 
L 1313 4863 
L 1313 1697 
L 2713 2988 
L 2234 2988 
L 2234 3322 
L 3738 3322 
L 3738 2988 
L 3169 2988 
L 2181 2075 
L 3444 331 
L 3922 331 
L 3922 0 
L 2284 0 
L 2284 331 
L 2759 331 
L 1766 1697 
L 1313 1275 
L 1313 331 
L 1831 331 
L 1831 0 
z
" transform="scale(0.015625)"/>
      <path id="DejaVuSerif-6d" d="M 3316 2675 
Q 3481 3041 3739 3227 
Q 3997 3413 4341 3413 
Q 4863 3413 5119 3089 
Q 5375 2766 5375 2113 
L 5375 331 
L 5894 331 
L 5894 0 
L 4300 0 
L 4300 331 
L 4800 331 
L 4800 2047 
Q 4800 2556 4650 2772 
Q 4500 2988 4153 2988 
Q 3769 2988 3567 2697 
Q 3366 2406 3366 1850 
L 3366 331 
L 3866 331 
L 3866 0 
L 2291 0 
L 2291 331 
L 2791 331 
L 2791 2069 
Q 2791 2566 2641 2777 
Q 2491 2988 2144 2988 
Q 1759 2988 1557 2697 
Q 1356 2406 1356 1850 
L 1356 331 
L 1856 331 
L 1856 0 
L 263 0 
L 263 331 
L 781 331 
L 781 2994 
L 231 2994 
L 231 3322 
L 1356 3322 
L 1356 2731 
Q 1516 3063 1762 3238 
Q 2009 3413 2322 3413 
Q 2709 3413 2968 3220 
Q 3228 3028 3316 2675 
z
" transform="scale(0.015625)"/>
      <path id="DejaVuSerif-29" d="M 453 -997 
L 453 -691 
Q 934 -359 1145 242 
Q 1356 844 1356 1931 
Q 1356 3022 1145 3623 
Q 934 4225 453 4556 
L 453 4863 
Q 1216 4522 1603 3783 
Q 1991 3044 1991 1931 
Q 1991 822 1603 83 
Q 1216 -656 453 -997 
z
" transform="scale(0.015625)"/>
     </defs>
     <use xlink:href="#DejaVuSerif-41"/>
     <use xlink:href="#DejaVuSerif-6c" transform="translate(72.216797 0)"/>
     <use xlink:href="#DejaVuSerif-74" transform="translate(104.199219 0)"/>
     <use xlink:href="#DejaVuSerif-69" transform="translate(144.384766 0)"/>
     <use xlink:href="#DejaVuSerif-74" transform="translate(176.367188 0)"/>
     <use xlink:href="#DejaVuSerif-75" transform="translate(216.552734 0)"/>
     <use xlink:href="#DejaVuSerif-64" transform="translate(280.957031 0)"/>
     <use xlink:href="#DejaVuSerif-65" transform="translate(344.970703 0)"/>
     <use xlink:href="#DejaVuSerif-20" transform="translate(404.150391 0)"/>
     <use xlink:href="#DejaVuSerif-28" transform="translate(435.9375 0)"/>
     <use xlink:href="#DejaVuSerif-6b" transform="translate(474.951172 0)"/>
     <use xlink:href="#DejaVuSerif-6d" transform="translate(535.546875 0)"/>
     <use xlink:href="#DejaVuSerif-29" transform="translate(630.371094 0)"/>
    </g>
   </g>
  </g>
  <g id="axes_1">
   <g id="line2d_22">
    <path d="M 138.687479 70.01179 
" clip-path="url(#pf04a0d45ac)" style="fill: none; stroke: #ff0000; stroke-width: 1.1; stroke-linecap: square"/>
   </g>
   <g id="line2d_23">
    <path d="M 138.687479 70.01179 
" clip-path="url(#pf04a0d45ac)" style="fill: none; stroke: #ff0000; stroke-width: 1.1; stroke-linecap: square"/>
   </g>
   <g id="line2d_24">
    <path d="M 138.687479 70.01179 
" clip-path="url(#pf04a0d45ac)" style="fill: none; stroke: #ff0000; stroke-width: 1.1; stroke-linecap: square"/>
   </g>
   <g id="line2d_25">
    <path d="M 138.687479 70.01179 
" clip-path="url(#pf04a0d45ac)" style="fill: none; stroke: #ff0000; stroke-width: 1.1; stroke-linecap: square"/>
   </g>
   <g id="line2d_26">
    <path d="M 138.687479 70.01179 
" clip-path="url(#pf04a0d45ac)" style="fill: none; stroke: #ff0000; stroke-width: 1.1; stroke-linecap: square"/>
   </g>
   <g id="line2d_27">
    <path d="M 138.687479 70.01179 
" clip-path="url(#pf04a0d45ac)" style="fill: none; stroke: #ff0000; stroke-width: 1.1; stroke-linecap: square"/>
   </g>
   <g id="line2d_28">
    <path d="M 138.687479 70.01179 
" clip-path="url(#pf04a0d45ac)" style="fill: none; stroke: #ff0000; stroke-width: 1.1; stroke-linecap: square"/>
   </g>
   <g id="line2d_29">
    <path d="M 138.687479 70.01179 
" clip-path="url(#pf04a0d45ac)" style="fill: none; stroke: #ff0000; stroke-width: 1.1; stroke-linecap: square"/>
   </g>
   <g id="line2d_30">
    <path d="M 138.687479 70.01179 
" clip-path="url(#pf04a0d45ac)" style="fill: none; stroke: #ff0000; stroke-width: 1.1; stroke-linecap: square"/>
   </g>
   <g id="line2d_31">
    <path d="M 138.687479 70.01179 
" clip-path="url(#pf04a0d45ac)" style="fill: none; stroke: #ff0000; stroke-width: 1.1; stroke-linecap: square"/>
   </g>
   <g id="line2d_32">
    <path d="M 138.687479 70.01179 
" clip-path="url(#pf04a0d45ac)" style="fill: none; stroke: #ff0000; stroke-width: 1.1; stroke-linecap: square"/>
   </g>
   <g id="line2d_33">
    <path d="M 138.687479 70.01179 
" clip-path="url(#pf04a0d45ac)" style="fill: none; stroke: #ff0000; stroke-width: 1.1; stroke-linecap: square"/>
   </g>
   <g id="line2d_34">
    <path d="M 138.687479 70.01179 
" clip-path="url(#pf04a0d45ac)" style="fill: none; stroke: #ff0000; stroke-width: 1.1; stroke-linecap: square"/>
   </g>
   <g id="line2d_35">
    <path d="M 138.687479 70.01179 
" clip-path="url(#pf04a0d45ac)" style="fill: none; stroke: #ff0000; stroke-width: 1.1; stroke-linecap: square"/>
   </g>
   <g id="Path3DCollection_1">
    <defs>
     <path id="mf4b76be5d5" d="M 0 -4.472136 
L -4.472136 4.472136 
L 4.472136 4.472136 
z
" style="stroke: #87ceeb"/>
    </defs>
    <g clip-path="url(#pf04a0d45ac)">
     <use xlink:href="#mf4b76be5d5" x="138.092486" y="153.027325" style="fill: #87ceeb; stroke: #87ceeb"/>
    </g>
   </g>
   <g id="text_22">
    <!-- Timmins -->
    <g transform="translate(125.084429 170.59822) scale(0.09 -0.09)">
     <defs>
      <path id="DejaVuSerif-54" d="M 1222 0 
L 1222 331 
L 1819 331 
L 1819 4294 
L 447 4294 
L 447 3566 
L 63 3566 
L 63 4666 
L 4206 4666 
L 4206 3566 
L 3822 3566 
L 3822 4294 
L 2450 4294 
L 2450 331 
L 3047 331 
L 3047 0 
L 1222 0 
z
" transform="scale(0.015625)"/>
      <path id="DejaVuSerif-73" d="M 359 184 
L 359 959 
L 691 959 
Q 703 588 923 403 
Q 1144 219 1575 219 
Q 1963 219 2166 364 
Q 2369 509 2369 788 
Q 2369 1006 2220 1140 
Q 2072 1275 1594 1428 
L 1178 1569 
Q 750 1706 558 1912 
Q 366 2119 366 2438 
Q 366 2894 700 3153 
Q 1034 3413 1625 3413 
Q 1888 3413 2178 3344 
Q 2469 3275 2778 3144 
L 2778 2419 
L 2447 2419 
Q 2434 2741 2221 2922 
Q 2009 3103 1644 3103 
Q 1281 3103 1095 2975 
Q 909 2847 909 2591 
Q 909 2381 1050 2254 
Q 1191 2128 1613 1997 
L 2069 1856 
Q 2541 1709 2748 1489 
Q 2956 1269 2956 922 
Q 2956 450 2595 179 
Q 2234 -91 1600 -91 
Q 1278 -91 972 -22 
Q 666 47 359 184 
z
" transform="scale(0.015625)"/>
     </defs>
     <use xlink:href="#DejaVuSerif-54"/>
     <use xlink:href="#DejaVuSerif-69" transform="translate(66.699219 0)"/>
     <use xlink:href="#DejaVuSerif-6d" transform="translate(98.681641 0)"/>
     <use xlink:href="#DejaVuSerif-6d" transform="translate(193.505859 0)"/>
     <use xlink:href="#DejaVuSerif-69" transform="translate(288.330078 0)"/>
     <use xlink:href="#DejaVuSerif-6e" transform="translate(320.3125 0)"/>
     <use xlink:href="#DejaVuSerif-73" transform="translate(384.716797 0)"/>
    </g>
   </g>
   <g id="text_23">
    <!-- Iroquois Falls -->
    <g transform="translate(172.155895 175.691804) scale(0.09 -0.09)">
     <defs>
      <path id="DejaVuSerif-49" d="M 1581 331 
L 2175 331 
L 2175 0 
L 353 0 
L 353 331 
L 947 331 
L 947 4331 
L 353 4331 
L 353 4666 
L 2175 4666 
L 2175 4331 
L 1581 4331 
L 1581 331 
z
" transform="scale(0.015625)"/>
      <path id="DejaVuSerif-72" d="M 3059 3328 
L 3059 2497 
L 2728 2497 
Q 2713 2744 2591 2866 
Q 2469 2988 2234 2988 
Q 1809 2988 1582 2694 
Q 1356 2400 1356 1850 
L 1356 331 
L 2022 331 
L 2022 0 
L 263 0 
L 263 331 
L 781 331 
L 781 2994 
L 231 2994 
L 231 3322 
L 1356 3322 
L 1356 2731 
Q 1525 3078 1790 3245 
Q 2056 3413 2438 3413 
Q 2578 3413 2733 3391 
Q 2888 3369 3059 3328 
z
" transform="scale(0.015625)"/>
      <path id="DejaVuSerif-71" d="M 3359 2988 
L 3359 -997 
L 3909 -997 
L 3909 -1331 
L 2241 -1331 
L 2241 -997 
L 2784 -997 
L 2784 519 
Q 2616 206 2355 57 
Q 2094 -91 1709 -91 
Q 1097 -91 708 395 
Q 319 881 319 1663 
Q 319 2444 706 2928 
Q 1094 3413 1709 3413 
Q 2094 3413 2355 3264 
Q 2616 3116 2784 2803 
L 2784 3322 
L 3909 3322 
L 3909 2988 
L 3359 2988 
z
M 2784 1825 
Q 2784 2422 2554 2737 
Q 2325 3053 1888 3053 
Q 1444 3053 1217 2703 
Q 991 2353 991 1663 
Q 991 975 1217 622 
Q 1444 269 1888 269 
Q 2325 269 2554 583 
Q 2784 897 2784 1497 
L 2784 1825 
z
" transform="scale(0.015625)"/>
      <path id="DejaVuSerif-46" d="M 353 0 
L 353 331 
L 947 331 
L 947 4331 
L 353 4331 
L 353 4666 
L 4172 4666 
L 4172 3628 
L 3788 3628 
L 3788 4281 
L 1581 4281 
L 1581 2719 
L 3175 2719 
L 3175 3303 
L 3559 3303 
L 3559 1753 
L 3175 1753 
L 3175 2338 
L 1581 2338 
L 1581 331 
L 2328 331 
L 2328 0 
L 353 0 
z
" transform="scale(0.015625)"/>
     </defs>
     <use xlink:href="#DejaVuSerif-49"/>
     <use xlink:href="#DejaVuSerif-72" transform="translate(39.501953 0)"/>
     <use xlink:href="#DejaVuSerif-6f" transform="translate(87.304688 0)"/>
     <use xlink:href="#DejaVuSerif-71" transform="translate(147.509766 0)"/>
     <use xlink:href="#DejaVuSerif-75" transform="translate(211.523438 0)"/>
     <use xlink:href="#DejaVuSerif-6f" transform="translate(275.927734 0)"/>
     <use xlink:href="#DejaVuSerif-69" transform="translate(336.132812 0)"/>
     <use xlink:href="#DejaVuSerif-73" transform="translate(368.115234 0)"/>
     <use xlink:href="#DejaVuSerif-20" transform="translate(419.433594 0)"/>
     <use xlink:href="#DejaVuSerif-46" transform="translate(451.220703 0)"/>
     <use xlink:href="#DejaVuSerif-61" transform="translate(513.855469 0)"/>
     <use xlink:href="#DejaVuSerif-6c" transform="translate(573.474609 0)"/>
     <use xlink:href="#DejaVuSerif-6c" transform="translate(605.457031 0)"/>
     <use xlink:href="#DejaVuSerif-73" transform="translate(637.439453 0)"/>
    </g>
   </g>
   <g id="text_24">
    <!-- Kapuskasing -->
    <g transform="translate(140.05286 152.405404) scale(0.09 -0.09)">
     <defs>
      <path id="DejaVuSerif-4b" d="M 353 0 
L 353 331 
L 947 331 
L 947 4331 
L 353 4331 
L 353 4666 
L 2175 4666 
L 2175 4331 
L 1581 4331 
L 1581 2566 
L 3591 4331 
L 3084 4331 
L 3084 4666 
L 4634 4666 
L 4634 4331 
L 4109 4331 
L 2106 2572 
L 4347 331 
L 4878 331 
L 4878 0 
L 3794 0 
L 1581 2216 
L 1581 331 
L 2175 331 
L 2175 0 
L 353 0 
z
" transform="scale(0.015625)"/>
      <path id="DejaVuSerif-70" d="M 1313 1825 
L 1313 1497 
Q 1313 897 1542 583 
Q 1772 269 2209 269 
Q 2650 269 2876 622 
Q 3103 975 3103 1663 
Q 3103 2353 2876 2703 
Q 2650 3053 2209 3053 
Q 1772 3053 1542 2737 
Q 1313 2422 1313 1825 
z
M 738 2988 
L 184 2988 
L 184 3322 
L 1313 3322 
L 1313 2803 
Q 1481 3116 1742 3264 
Q 2003 3413 2388 3413 
Q 3000 3413 3387 2928 
Q 3775 2444 3775 1663 
Q 3775 881 3387 395 
Q 3000 -91 2388 -91 
Q 2003 -91 1742 57 
Q 1481 206 1313 519 
L 1313 -997 
L 1856 -997 
L 1856 -1331 
L 184 -1331 
L 184 -997 
L 738 -997 
L 738 2988 
z
" transform="scale(0.015625)"/>
     </defs>
     <use xlink:href="#DejaVuSerif-4b"/>
     <use xlink:href="#DejaVuSerif-61" transform="translate(74.707031 0)"/>
     <use xlink:href="#DejaVuSerif-70" transform="translate(134.326172 0)"/>
     <use xlink:href="#DejaVuSerif-75" transform="translate(198.339844 0)"/>
     <use xlink:href="#DejaVuSerif-73" transform="translate(262.744141 0)"/>
     <use xlink:href="#DejaVuSerif-6b" transform="translate(314.0625 0)"/>
     <use xlink:href="#DejaVuSerif-61" transform="translate(374.658203 0)"/>
     <use xlink:href="#DejaVuSerif-73" transform="translate(434.277344 0)"/>
     <use xlink:href="#DejaVuSerif-69" transform="translate(485.595703 0)"/>
     <use xlink:href="#DejaVuSerif-6e" transform="translate(517.578125 0)"/>
     <use xlink:href="#DejaVuSerif-67" transform="translate(581.982422 0)"/>
    </g>
   </g>
   <g id="text_25">
    <!-- Cochrane -->
    <g transform="translate(169.844544 167.979413) scale(0.09 -0.09)">
     <defs>
      <path id="DejaVuSerif-43" d="M 4513 1234 
Q 4306 581 3820 245 
Q 3334 -91 2591 -91 
Q 2134 -91 1743 65 
Q 1353 222 1050 525 
Q 700 875 529 1320 
Q 359 1766 359 2328 
Q 359 3416 987 4083 
Q 1616 4750 2644 4750 
Q 3025 4750 3456 4650 
Q 3888 4550 4384 4347 
L 4384 3272 
L 4031 3272 
Q 3916 3859 3567 4137 
Q 3219 4416 2591 4416 
Q 1844 4416 1459 3886 
Q 1075 3356 1075 2328 
Q 1075 1303 1459 773 
Q 1844 244 2591 244 
Q 3113 244 3450 492 
Q 3788 741 3938 1234 
L 4513 1234 
z
" transform="scale(0.015625)"/>
      <path id="DejaVuSerif-63" d="M 3291 997 
Q 3169 466 2822 187 
Q 2475 -91 1925 -91 
Q 1200 -91 759 389 
Q 319 869 319 1663 
Q 319 2459 759 2936 
Q 1200 3413 1925 3413 
Q 2241 3413 2553 3339 
Q 2866 3266 3181 3116 
L 3181 2266 
L 2847 2266 
Q 2781 2703 2561 2903 
Q 2341 3103 1931 3103 
Q 1466 3103 1228 2742 
Q 991 2381 991 1663 
Q 991 944 1227 581 
Q 1463 219 1931 219 
Q 2303 219 2525 412 
Q 2747 606 2828 997 
L 3291 997 
z
" transform="scale(0.015625)"/>
      <path id="DejaVuSerif-68" d="M 263 0 
L 263 331 
L 781 331 
L 781 4531 
L 231 4531 
L 231 4863 
L 1356 4863 
L 1356 2731 
Q 1516 3069 1770 3241 
Q 2025 3413 2363 3413 
Q 2913 3413 3172 3097 
Q 3431 2781 3431 2113 
L 3431 331 
L 3944 331 
L 3944 0 
L 2356 0 
L 2356 331 
L 2853 331 
L 2853 1931 
Q 2853 2541 2704 2764 
Q 2556 2988 2175 2988 
Q 1775 2988 1565 2697 
Q 1356 2406 1356 1850 
L 1356 331 
L 1856 331 
L 1856 0 
L 263 0 
z
" transform="scale(0.015625)"/>
     </defs>
     <use xlink:href="#DejaVuSerif-43"/>
     <use xlink:href="#DejaVuSerif-6f" transform="translate(76.513672 0)"/>
     <use xlink:href="#DejaVuSerif-63" transform="translate(136.71875 0)"/>
     <use xlink:href="#DejaVuSerif-68" transform="translate(192.724609 0)"/>
     <use xlink:href="#DejaVuSerif-72" transform="translate(257.128906 0)"/>
     <use xlink:href="#DejaVuSerif-61" transform="translate(304.931641 0)"/>
     <use xlink:href="#DejaVuSerif-6e" transform="translate(364.550781 0)"/>
     <use xlink:href="#DejaVuSerif-65" transform="translate(428.955078 0)"/>
    </g>
   </g>
   <g id="text_26">
    <!-- Kirkland Lake -->
    <g transform="translate(176.00309 191.781212) scale(0.09 -0.09)">
     <use xlink:href="#DejaVuSerif-4b"/>
     <use xlink:href="#DejaVuSerif-69" transform="translate(74.707031 0)"/>
     <use xlink:href="#DejaVuSerif-72" transform="translate(106.689453 0)"/>
     <use xlink:href="#DejaVuSerif-6b" transform="translate(154.492188 0)"/>
     <use xlink:href="#DejaVuSerif-6c" transform="translate(215.087891 0)"/>
     <use xlink:href="#DejaVuSerif-61" transform="translate(247.070312 0)"/>
     <use xlink:href="#DejaVuSerif-6e" transform="translate(306.689453 0)"/>
     <use xlink:href="#DejaVuSerif-64" transform="translate(371.09375 0)"/>
     <use xlink:href="#DejaVuSerif-20" transform="translate(435.107422 0)"/>
     <use xlink:href="#DejaVuSerif-4c" transform="translate(466.894531 0)"/>
     <use xlink:href="#DejaVuSerif-61" transform="translate(533.300781 0)"/>
     <use xlink:href="#DejaVuSerif-6b" transform="translate(592.919922 0)"/>
     <use xlink:href="#DejaVuSerif-65" transform="translate(653.515625 0)"/>
    </g>
   </g>
   <g id="text_27">
    <!-- NorthBay -->
    <g transform="translate(39.786868 203.11278) scale(0.09 -0.09)">
     <defs>
      <path id="DejaVuSerif-4e" d="M 313 0 
L 313 331 
L 941 331 
L 941 4331 
L 313 4331 
L 313 4666 
L 1509 4666 
L 4306 984 
L 4306 4331 
L 3681 4331 
L 3681 4666 
L 5319 4666 
L 5319 4331 
L 4691 4331 
L 4691 -91 
L 4313 -91 
L 1325 3841 
L 1325 331 
L 1953 331 
L 1953 0 
L 313 0 
z
" transform="scale(0.015625)"/>
      <path id="DejaVuSerif-42" d="M 1581 331 
L 2516 331 
Q 3078 331 3337 575 
Q 3597 819 3597 1350 
Q 3597 1878 3339 2120 
Q 3081 2363 2516 2363 
L 1581 2363 
L 1581 331 
z
M 1581 2694 
L 2375 2694 
Q 2888 2694 3123 2891 
Q 3359 3088 3359 3513 
Q 3359 3941 3123 4136 
Q 2888 4331 2375 4331 
L 1581 4331 
L 1581 2694 
z
M 353 0 
L 353 331 
L 947 331 
L 947 4331 
L 353 4331 
L 353 4666 
L 2656 4666 
Q 3363 4666 3720 4377 
Q 4078 4088 4078 3513 
Q 4078 3097 3829 2850 
Q 3581 2603 3103 2547 
Q 3697 2472 4005 2167 
Q 4313 1863 4313 1350 
Q 4313 656 3875 328 
Q 3438 0 2509 0 
L 353 0 
z
" transform="scale(0.015625)"/>
      <path id="DejaVuSerif-79" d="M 1381 -609 
L 1600 -56 
L 359 2988 
L -19 2988 
L -19 3322 
L 1509 3322 
L 1509 2988 
L 978 2988 
L 1913 703 
L 2847 2988 
L 2350 2988 
L 2350 3322 
L 3597 3322 
L 3597 2988 
L 3225 2988 
L 1703 -750 
Q 1547 -1138 1356 -1280 
Q 1166 -1422 819 -1422 
Q 672 -1422 517 -1397 
Q 363 -1372 206 -1325 
L 206 -691 
L 500 -691 
Q 519 -903 608 -995 
Q 697 -1088 884 -1088 
Q 1056 -1088 1161 -992 
Q 1266 -897 1381 -609 
z
" transform="scale(0.015625)"/>
     </defs>
     <use xlink:href="#DejaVuSerif-4e"/>
     <use xlink:href="#DejaVuSerif-6f" transform="translate(87.5 0)"/>
     <use xlink:href="#DejaVuSerif-72" transform="translate(147.705078 0)"/>
     <use xlink:href="#DejaVuSerif-74" transform="translate(195.507812 0)"/>
     <use xlink:href="#DejaVuSerif-68" transform="translate(235.693359 0)"/>
     <use xlink:href="#DejaVuSerif-42" transform="translate(300.097656 0)"/>
     <use xlink:href="#DejaVuSerif-61" transform="translate(373.583984 0)"/>
     <use xlink:href="#DejaVuSerif-79" transform="translate(433.203125 0)"/>
    </g>
   </g>
   <g id="text_28">
    <!-- 0 -->
    <g style="fill: #ff0000" transform="translate(122.510703 69.854245) scale(0.09 -0.09)">
     <defs>
      <path id="DejaVuSerif-Italic-30" d="M 1011 744 
Q 1147 219 1625 219 
Q 2103 219 2442 744 
Q 2781 1269 2988 2328 
Q 3194 3391 3058 3916 
Q 2922 4441 2444 4441 
Q 1966 4441 1627 3916 
Q 1288 3391 1081 2328 
Q 875 1269 1011 744 
z
M 1563 -91 
Q 803 -91 501 546 
Q 200 1184 422 2328 
Q 644 3475 1195 4112 
Q 1747 4750 2506 4750 
Q 3269 4750 3569 4112 
Q 3869 3475 3647 2328 
Q 3425 1184 2875 546 
Q 2325 -91 1563 -91 
z
" transform="scale(0.015625)"/>
     </defs>
     <use xlink:href="#DejaVuSerif-Italic-30"/>
    </g>
   </g>
   <g id="text_29">
    <!-- 1 -->
    <g style="fill: #ff0000" transform="translate(122.510703 69.854245) scale(0.09 -0.09)">
     <defs>
      <path id="DejaVuSerif-Italic-31" d="M 447 0 
L 513 331 
L 1325 331 
L 2078 4213 
L 1019 3603 
L 1100 4013 
L 2381 4750 
L 2813 4750 
L 1953 331 
L 2766 331 
L 2700 0 
L 447 0 
z
" transform="scale(0.015625)"/>
     </defs>
     <use xlink:href="#DejaVuSerif-Italic-31"/>
    </g>
   </g>
   <g id="text_30">
    <!-- 2 -->
    <g style="fill: #ff0000" transform="translate(122.510703 69.854245) scale(0.09 -0.09)">
     <defs>
      <path id="DejaVuSerif-Italic-32" d="M 1050 3553 
L 700 3553 
L 863 4384 
Q 1231 4563 1589 4656 
Q 1947 4750 2272 4750 
Q 3000 4750 3353 4397 
Q 3706 4044 3588 3438 
Q 3456 2753 2313 1800 
Q 2225 1728 2178 1691 
L 772 513 
L 2719 513 
L 2831 1088 
L 3197 1088 
L 2984 0 
L -25 0 
L 41 341 
L 1731 1753 
Q 2291 2222 2567 2614 
Q 2844 3006 2928 3438 
Q 3019 3909 2825 4175 
Q 2631 4441 2200 4441 
Q 1753 4441 1467 4219 
Q 1181 3997 1050 3553 
z
" transform="scale(0.015625)"/>
     </defs>
     <use xlink:href="#DejaVuSerif-Italic-32"/>
    </g>
   </g>
   <g id="text_31">
    <!-- 3 -->
    <g style="fill: #ff0000" transform="translate(122.510703 69.854245) scale(0.09 -0.09)">
     <defs>
      <path id="DejaVuSerif-Italic-33" d="M 1038 4469 
Q 1431 4606 1781 4678 
Q 2131 4750 2425 4750 
Q 3109 4750 3436 4454 
Q 3763 4159 3659 3634 
Q 3578 3213 3258 2930 
Q 2938 2647 2431 2547 
Q 2988 2466 3241 2130 
Q 3494 1794 3388 1259 
Q 3263 606 2755 257 
Q 2247 -91 1422 -91 
Q 1056 -91 723 -12 
Q 391 66 78 225 
L 253 1131 
L 603 1131 
Q 547 681 775 450 
Q 1003 219 1497 219 
Q 1975 219 2304 495 
Q 2634 772 2728 1253 
Q 2834 1803 2604 2086 
Q 2375 2369 1825 2369 
L 1528 2369 
L 1591 2688 
L 1747 2688 
Q 2294 2688 2611 2914 
Q 2928 3141 3019 3597 
Q 3097 4006 2914 4223 
Q 2731 4441 2309 4441 
Q 1888 4441 1616 4241 
Q 1344 4041 1228 3647 
L 878 3647 
L 1038 4469 
z
" transform="scale(0.015625)"/>
     </defs>
     <use xlink:href="#DejaVuSerif-Italic-33"/>
    </g>
   </g>
   <g id="text_32">
    <!-- 4 -->
    <g style="fill: #ff0000" transform="translate(122.510703 69.854245) scale(0.09 -0.09)">
     <defs>
      <path id="DejaVuSerif-Italic-34" d="M 2084 1581 
L 2566 4063 
L 491 1581 
L 2084 1581 
z
M 3150 0 
L 1025 0 
L 1091 331 
L 1841 331 
L 2019 1247 
L -19 1247 
L 47 1588 
L 2706 4750 
L 3325 4750 
L 2709 1581 
L 3600 1581 
L 3534 1247 
L 2644 1247 
L 2466 331 
L 3216 331 
L 3150 0 
z
" transform="scale(0.015625)"/>
     </defs>
     <use xlink:href="#DejaVuSerif-Italic-34"/>
    </g>
   </g>
   <g id="text_33">
    <!-- 5 -->
    <g style="fill: #ff0000" transform="translate(122.510703 69.854245) scale(0.09 -0.09)">
     <defs>
      <path id="DejaVuSerif-Italic-35" d="M 3681 4666 
L 3581 4153 
L 1444 4153 
L 1184 2816 
Q 1369 2928 1597 2984 
Q 1825 3041 2094 3041 
Q 2850 3041 3206 2622 
Q 3563 2203 3422 1478 
Q 3278 738 2754 323 
Q 2231 -91 1431 -91 
Q 1109 -91 787 -12 
Q 466 66 144 225 
L 319 1131 
L 672 1131 
Q 613 688 822 453 
Q 1031 219 1491 219 
Q 1984 219 2314 544 
Q 2644 869 2763 1478 
Q 2878 2084 2678 2407 
Q 2478 2731 1981 2731 
Q 1700 2731 1465 2631 
Q 1231 2531 1025 2322 
L 756 2322 
L 1213 4666 
L 3681 4666 
z
" transform="scale(0.015625)"/>
     </defs>
     <use xlink:href="#DejaVuSerif-Italic-35"/>
    </g>
   </g>
   <g id="text_34">
    <!-- 6 -->
    <g style="fill: #ff0000" transform="translate(122.510703 69.854245) scale(0.09 -0.09)">
     <defs>
      <path id="DejaVuSerif-Italic-36" d="M 1070 553 
Q 1244 219 1684 219 
Q 2125 219 2425 542 
Q 2725 866 2842 1472 
Q 2959 2078 2786 2401 
Q 2613 2725 2172 2725 
Q 1725 2725 1429 2412 
Q 1134 2100 1019 1509 
Q 897 888 1070 553 
z
M 1122 2569 
Q 1378 2803 1670 2918 
Q 1963 3034 2300 3034 
Q 2997 3034 3320 2615 
Q 3644 2197 3503 1472 
Q 3366 763 2845 336 
Q 2325 -91 1597 -91 
Q 806 -91 497 498 
Q 188 1088 400 2181 
Q 638 3406 1272 4078 
Q 1906 4750 2822 4750 
Q 3069 4750 3331 4703 
Q 3594 4656 3859 4563 
L 3709 3794 
L 3356 3794 
Q 3381 4109 3209 4275 
Q 3038 4441 2694 4441 
Q 2088 4441 1702 3981 
Q 1316 3522 1122 2569 
z
" transform="scale(0.015625)"/>
     </defs>
     <use xlink:href="#DejaVuSerif-Italic-36"/>
    </g>
   </g>
   <g id="text_35">
    <!-- 7 -->
    <g style="fill: #ff0000" transform="translate(122.510703 69.854245) scale(0.09 -0.09)">
     <defs>
      <path id="DejaVuSerif-Italic-37" d="M 4000 4347 
L 1331 0 
L 866 0 
L 3413 4153 
L 1256 4153 
L 1144 3578 
L 778 3578 
L 991 4666 
L 4063 4666 
L 4000 4347 
z
" transform="scale(0.015625)"/>
     </defs>
     <use xlink:href="#DejaVuSerif-Italic-37"/>
    </g>
   </g>
   <g id="text_36">
    <!-- 8 -->
    <g style="fill: #ff0000" transform="translate(122.510703 69.854245) scale(0.09 -0.09)">
     <defs>
      <path id="DejaVuSerif-Italic-38" d="M 2775 1275 
Q 2872 1775 2678 2051 
Q 2484 2328 2034 2328 
Q 1584 2328 1281 2051 
Q 978 1775 881 1275 
Q 784 772 979 495 
Q 1175 219 1625 219 
Q 2075 219 2376 495 
Q 2678 772 2775 1275 
z
M 3088 3541 
Q 3172 3966 3001 4203 
Q 2831 4441 2444 4441 
Q 2059 4441 1796 4203 
Q 1534 3966 1450 3541 
Q 1369 3113 1539 2875 
Q 1709 2638 2094 2638 
Q 2481 2638 2743 2875 
Q 3006 3113 3088 3541 
z
M 2547 2484 
Q 3063 2413 3297 2092 
Q 3531 1772 3434 1275 
Q 3309 619 2823 264 
Q 2338 -91 1563 -91 
Q 791 -91 444 264 
Q 97 619 222 1275 
Q 319 1772 678 2092 
Q 1038 2413 1588 2484 
Q 1131 2569 932 2842 
Q 734 3116 816 3541 
Q 925 4103 1376 4426 
Q 1828 4750 2506 4750 
Q 3184 4750 3507 4426 
Q 3831 4103 3722 3541 
Q 3641 3116 3336 2842 
Q 3031 2569 2547 2484 
z
" transform="scale(0.015625)"/>
     </defs>
     <use xlink:href="#DejaVuSerif-Italic-38"/>
    </g>
   </g>
   <g id="text_37">
    <!-- 9 -->
    <g style="fill: #ff0000" transform="translate(122.510703 69.854245) scale(0.09 -0.09)">
     <defs>
      <path id="DejaVuSerif-Italic-39" d="M 2947 2091 
Q 2694 1856 2398 1740 
Q 2103 1625 1763 1625 
Q 1069 1625 748 2044 
Q 428 2463 569 3188 
Q 706 3897 1226 4323 
Q 1747 4750 2475 4750 
Q 3266 4750 3573 4161 
Q 3881 3572 3669 2478 
Q 3431 1253 2797 581 
Q 2163 -91 1250 -91 
Q 1003 -91 740 -44 
Q 478 3 213 97 
L 363 872 
L 713 872 
Q 694 556 864 387 
Q 1034 219 1375 219 
Q 1981 219 2367 676 
Q 2753 1134 2947 2091 
z
M 2388 4441 
Q 1944 4441 1645 4117 
Q 1347 3794 1230 3187 
Q 1113 2581 1284 2256 
Q 1456 1931 1900 1931 
Q 2344 1931 2641 2245 
Q 2938 2559 3053 3150 
Q 3175 3772 3001 4106 
Q 2828 4441 2388 4441 
z
" transform="scale(0.015625)"/>
     </defs>
     <use xlink:href="#DejaVuSerif-Italic-39"/>
    </g>
   </g>
   <g id="text_38">
    <!-- 10 -->
    <g style="fill: #ff0000" transform="translate(122.510703 69.854245) scale(0.09 -0.09)">
     <use xlink:href="#DejaVuSerif-Italic-31"/>
     <use xlink:href="#DejaVuSerif-Italic-30" transform="translate(63.623047 0)"/>
    </g>
   </g>
   <g id="text_39">
    <!-- 11 -->
    <g style="fill: #ff0000" transform="translate(122.510703 69.854245) scale(0.09 -0.09)">
     <use xlink:href="#DejaVuSerif-Italic-31"/>
     <use xlink:href="#DejaVuSerif-Italic-31" transform="translate(63.623047 0)"/>
    </g>
   </g>
   <g id="text_40">
    <!-- 12 -->
    <g style="fill: #ff0000" transform="translate(122.510703 69.854245) scale(0.09 -0.09)">
     <use xlink:href="#DejaVuSerif-Italic-31"/>
     <use xlink:href="#DejaVuSerif-Italic-32" transform="translate(63.623047 0)"/>
    </g>
   </g>
   <g id="text_41">
    <!-- 13 -->
    <g style="fill: #ff0000" transform="translate(122.510703 69.854245) scale(0.09 -0.09)">
     <use xlink:href="#DejaVuSerif-Italic-31"/>
     <use xlink:href="#DejaVuSerif-Italic-33" transform="translate(63.623047 0)"/>
    </g>
   </g>
   <g id="Path3DCollection_2">
    <g clip-path="url(#pf04a0d45ac)">
     <use xlink:href="#mf4b76be5d5" x="167.856253" y="168.624086" style="fill: #87ceeb; stroke: #87ceeb"/>
    </g>
   </g>
   <g id="Path3DCollection_3">
    <g clip-path="url(#pf04a0d45ac)">
     <use xlink:href="#mf4b76be5d5" x="170.147067" y="176.347887" style="fill: #87ceeb; stroke: #87ceeb"/>
    </g>
   </g>
   <g id="legend_1">
    <g id="patch_6">
     <path d="M 14.2 44.55625 
L 68.870312 44.55625 
Q 70.870312 44.55625 70.870312 42.55625 
L 70.870312 14.2 
Q 70.870312 12.2 68.870312 12.2 
L 14.2 12.2 
Q 12.2 12.2 12.2 14.2 
L 12.2 42.55625 
Q 12.2 44.55625 14.2 44.55625 
z
" style="fill: #ffffff; opacity: 0.8; stroke: #cccccc; stroke-linejoin: miter"/>
    </g>
    <g id="line2d_36">
     <defs>
      <path id="m63cea82f35" d="M 0 3 
C 0.795609 3 1.55874 2.683901 2.12132 2.12132 
C 2.683901 1.55874 3 0.795609 3 0 
C 3 -0.795609 2.683901 -1.55874 2.12132 -2.12132 
C 1.55874 -2.683901 0.795609 -3 0 -3 
C -0.795609 -3 -1.55874 -2.683901 -2.12132 -2.12132 
C -2.683901 -1.55874 -3 -0.795609 -3 0 
C -3 0.795609 -2.683901 1.55874 -2.12132 2.12132 
C -1.55874 2.683901 -0.795609 3 0 3 
z
" style="stroke: #87ceeb"/>
     </defs>
     <g>
      <use xlink:href="#m63cea82f35" x="26.2" y="20.298437" style="fill: #87ceeb; stroke: #87ceeb"/>
     </g>
    </g>
    <g id="text_42">
     <!-- GS -->
     <g transform="translate(44.2 23.798437) scale(0.1 -0.1)">
      <defs>
       <path id="DejaVuSerif-47" d="M 4097 3272 
Q 3988 3856 3641 4136 
Q 3294 4416 2675 4416 
Q 1869 4416 1472 3897 
Q 1075 3378 1075 2328 
Q 1075 1300 1484 772 
Q 1894 244 2688 244 
Q 3041 244 3362 331 
Q 3684 419 3975 594 
L 3975 1797 
L 3097 1797 
L 3097 2131 
L 4609 2131 
L 4609 391 
Q 4194 150 3714 29 
Q 3234 -91 2688 -91 
Q 1631 -91 995 570 
Q 359 1231 359 2328 
Q 359 3434 996 4092 
Q 1634 4750 2713 4750 
Q 3113 4750 3539 4658 
Q 3966 4566 4447 4378 
L 4447 3272 
L 4097 3272 
z
" transform="scale(0.015625)"/>
       <path id="DejaVuSerif-53" d="M 594 225 
L 594 1288 
L 953 1284 
Q 969 753 1261 498 
Q 1553 244 2150 244 
Q 2706 244 2998 464 
Q 3291 684 3291 1106 
Q 3291 1444 3114 1625 
Q 2938 1806 2369 1978 
L 1753 2163 
Q 1084 2366 811 2669 
Q 538 2972 538 3500 
Q 538 4094 959 4422 
Q 1381 4750 2144 4750 
Q 2469 4750 2856 4679 
Q 3244 4609 3681 4475 
L 3681 3481 
L 3328 3481 
Q 3275 3975 2998 4195 
Q 2722 4416 2156 4416 
Q 1663 4416 1405 4214 
Q 1147 4013 1147 3628 
Q 1147 3294 1340 3103 
Q 1534 2913 2163 2725 
L 2741 2553 
Q 3375 2363 3645 2067 
Q 3916 1772 3916 1275 
Q 3916 597 3481 253 
Q 3047 -91 2188 -91 
Q 1803 -91 1404 -12 
Q 1006 66 594 225 
z
" transform="scale(0.015625)"/>
      </defs>
      <use xlink:href="#DejaVuSerif-47"/>
      <use xlink:href="#DejaVuSerif-53" transform="translate(79.882812 0)"/>
     </g>
    </g>
    <g id="line2d_37">
     <defs>
      <path id="me87a01ad8d" d="M 0 3 
C 0.795609 3 1.55874 2.683901 2.12132 2.12132 
C 2.683901 1.55874 3 0.795609 3 0 
C 3 -0.795609 2.683901 -1.55874 2.12132 -2.12132 
C 1.55874 -2.683901 0.795609 -3 0 -3 
C -0.795609 -3 -1.55874 -2.683901 -2.12132 -2.12132 
C -2.683901 -1.55874 -3 -0.795609 -3 0 
C -3 0.795609 -2.683901 1.55874 -2.12132 2.12132 
C -1.55874 2.683901 -0.795609 3 0 3 
z
" style="stroke: #ff0000"/>
     </defs>
     <g>
      <use xlink:href="#me87a01ad8d" x="26.2" y="34.976562" style="fill: #ff0000; stroke: #ff0000"/>
     </g>
    </g>
    <g id="text_43">
     <!-- HAP -->
     <g transform="translate(44.2 38.476562) scale(0.1 -0.1)">
      <defs>
       <path id="DejaVuSerif-48" d="M 353 0 
L 353 331 
L 947 331 
L 947 4331 
L 353 4331 
L 353 4666 
L 2175 4666 
L 2175 4331 
L 1581 4331 
L 1581 2719 
L 4000 2719 
L 4000 4331 
L 3406 4331 
L 3406 4666 
L 5228 4666 
L 5228 4331 
L 4634 4331 
L 4634 331 
L 5228 331 
L 5228 0 
L 3406 0 
L 3406 331 
L 4000 331 
L 4000 2338 
L 1581 2338 
L 1581 331 
L 2175 331 
L 2175 0 
L 353 0 
z
" transform="scale(0.015625)"/>
       <path id="DejaVuSerif-50" d="M 1581 2375 
L 2406 2375 
Q 2872 2375 3115 2626 
Q 3359 2878 3359 3353 
Q 3359 3831 3115 4081 
Q 2872 4331 2406 4331 
L 1581 4331 
L 1581 2375 
z
M 353 0 
L 353 331 
L 947 331 
L 947 4331 
L 353 4331 
L 353 4666 
L 2559 4666 
Q 3259 4666 3668 4311 
Q 4078 3956 4078 3353 
Q 4078 2753 3668 2397 
Q 3259 2041 2559 2041 
L 1581 2041 
L 1581 331 
L 2303 331 
L 2303 0 
L 353 0 
z
" transform="scale(0.015625)"/>
      </defs>
      <use xlink:href="#DejaVuSerif-48"/>
      <use xlink:href="#DejaVuSerif-41" transform="translate(87.207031 0)"/>
      <use xlink:href="#DejaVuSerif-50" transform="translate(159.423828 0)"/>
     </g>
    </g>
   </g>
   <g id="Path3DCollection_4">
    <g clip-path="url(#pf04a0d45ac)">
     <use xlink:href="#mf4b76be5d5" x="145.702472" y="177.098458" style="fill: #87ceeb; stroke: #87ceeb"/>
    </g>
   </g>
   <g id="Path3DCollection_5">
    <g clip-path="url(#pf04a0d45ac)">
     <use xlink:href="#mf4b76be5d5" x="173.950946" y="192.461401" style="fill: #87ceeb; stroke: #87ceeb"/>
    </g>
   </g>
   <g id="Path3DCollection_6">
    <defs>
     <path id="md2793de22e" d="M 0 1.118034 
C 0.296506 1.118034 0.580908 1.000231 0.790569 0.790569 
C 1.000231 0.580908 1.118034 0.296506 1.118034 0 
C 1.118034 -0.296506 1.000231 -0.580908 0.790569 -0.790569 
C 0.580908 -1.000231 0.296506 -1.118034 0 -1.118034 
C -0.296506 -1.118034 -0.580908 -1.000231 -0.790569 -0.790569 
C -1.000231 -0.580908 -1.118034 -0.296506 -1.118034 0 
C -1.118034 0.296506 -1.000231 0.580908 -0.790569 0.790569 
C -0.580908 1.000231 -0.296506 1.118034 0 1.118034 
z
" style="stroke: #ff0000"/>
    </defs>
    <g clip-path="url(#pf04a0d45ac)">
     <use xlink:href="#md2793de22e" x="138.687479" y="70.01179" style="fill: #ff0000; stroke: #ff0000"/>
    </g>
   </g>
   <g id="Path3DCollection_7">
    <g clip-path="url(#pf04a0d45ac)">
     <use xlink:href="#md2793de22e" x="138.687479" y="70.01179" style="fill: #ff0000; stroke: #ff0000"/>
    </g>
   </g>
   <g id="Path3DCollection_8">
    <g clip-path="url(#pf04a0d45ac)">
     <use xlink:href="#md2793de22e" x="138.687479" y="70.01179" style="fill: #ff0000; stroke: #ff0000"/>
    </g>
   </g>
   <g id="Path3DCollection_9">
    <g clip-path="url(#pf04a0d45ac)">
     <use xlink:href="#md2793de22e" x="138.687479" y="70.01179" style="fill: #ff0000; stroke: #ff0000"/>
    </g>
   </g>
   <g id="Path3DCollection_10">
    <g clip-path="url(#pf04a0d45ac)">
     <use xlink:href="#md2793de22e" x="138.687479" y="70.01179" style="fill: #ff0000; stroke: #ff0000"/>
    </g>
   </g>
   <g id="Path3DCollection_11">
    <g clip-path="url(#pf04a0d45ac)">
     <use xlink:href="#md2793de22e" x="138.687479" y="70.01179" style="fill: #ff0000; stroke: #ff0000"/>
    </g>
   </g>
   <g id="Path3DCollection_12">
    <g clip-path="url(#pf04a0d45ac)">
     <use xlink:href="#md2793de22e" x="138.687479" y="70.01179" style="fill: #ff0000; stroke: #ff0000"/>
    </g>
   </g>
   <g id="Path3DCollection_13">
    <g clip-path="url(#pf04a0d45ac)">
     <use xlink:href="#md2793de22e" x="138.687479" y="70.01179" style="fill: #ff0000; stroke: #ff0000"/>
    </g>
   </g>
   <g id="Path3DCollection_14">
    <g clip-path="url(#pf04a0d45ac)">
     <use xlink:href="#md2793de22e" x="138.687479" y="70.01179" style="fill: #ff0000; stroke: #ff0000"/>
    </g>
   </g>
   <g id="Path3DCollection_15">
    <g clip-path="url(#pf04a0d45ac)">
     <use xlink:href="#md2793de22e" x="138.687479" y="70.01179" style="fill: #ff0000; stroke: #ff0000"/>
    </g>
   </g>
   <g id="Path3DCollection_16">
    <g clip-path="url(#pf04a0d45ac)">
     <use xlink:href="#md2793de22e" x="138.687479" y="70.01179" style="fill: #ff0000; stroke: #ff0000"/>
    </g>
   </g>
   <g id="Path3DCollection_17">
    <g clip-path="url(#pf04a0d45ac)">
     <use xlink:href="#md2793de22e" x="138.687479" y="70.01179" style="fill: #ff0000; stroke: #ff0000"/>
    </g>
   </g>
   <g id="Path3DCollection_18">
    <g clip-path="url(#pf04a0d45ac)">
     <use xlink:href="#md2793de22e" x="138.687479" y="70.01179" style="fill: #ff0000; stroke: #ff0000"/>
    </g>
   </g>
   <g id="Path3DCollection_19">
    <g clip-path="url(#pf04a0d45ac)">
     <use xlink:href="#md2793de22e" x="138.687479" y="70.01179" style="fill: #ff0000; stroke: #ff0000"/>
    </g>
   </g>
   <g id="Path3DCollection_20">
    <g clip-path="url(#pf04a0d45ac)">
     <use xlink:href="#mf4b76be5d5" x="37.62327" y="203.810192" style="fill: #87ceeb; stroke: #87ceeb"/>
    </g>
   </g>
  </g>
 </g>
 <defs>
  <clipPath id="pf04a0d45ac">
   <rect x="7.2" y="7.2" width="266.4" height="266.4"/>
  </clipPath>
 </defs>
</svg>
