<?xml version="1.0" encoding="utf-8" standalone="no"?>
<!DOCTYPE svg PUBLIC "-//W3C//DTD SVG 1.1//EN"
  "http://www.w3.org/Graphics/SVG/1.1/DTD/svg11.dtd">
<svg xmlns:xlink="http://www.w3.org/1999/xlink" width="345.926875pt" height="272.507969pt" viewBox="0 0 345.926875 272.507969" xmlns="http://www.w3.org/2000/svg" version="1.1">
 <metadata>
  <rdf:RDF xmlns:dc="http://purl.org/dc/elements/1.1/" xmlns:cc="http://creativecommons.org/ns#" xmlns:rdf="http://www.w3.org/1999/02/22-rdf-syntax-ns#">
   <cc:Work>
    <dc:type rdf:resource="http://purl.org/dc/dcmitype/StillImage"/>
    <dc:date>2026-02-04T21:03:28.285523</dc:date>
    <dc:format>image/svg+xml</dc:format>
    <dc:creator>
     <cc:Agent>
      <dc:title>Matplotlib v3.10.8, https://matplotlib.org/</dc:title>
     </cc:Agent>
    </dc:creator>
   </cc:Work>
  </rdf:RDF>
 </metadata>
 <defs>
  <style type="text/css">*{stroke-linejoin: round; stroke-linecap: butt}</style>
 </defs>
 <g id="figure_1">
  <g id="patch_1">
   <path d="M 0 272.507969 
L 345.926875 272.507969 
L 345.926875 0 
L 0 0 
z
" style="fill: #ffffff"/>
  </g>
  <g id="axes_1">
   <g id="patch_2">
    <path d="M 59.726875 228.96 
L 338.726875 228.96 
L 338.726875 7.2 
L 59.726875 7.2 
z
" style="fill: #ffffff"/>
   </g>
   <g id="patch_3">
    <path d="M 82.259225 124.0568 
L 126.087542 124.0568 
L 126.087542 107.223156 
L 82.259225 107.223156 
L 82.259225 124.0568 
z
" clip-path="url(#pef33100306)" style="fill: none; stroke: #808080; stroke-linejoin: miter"/>
   </g>
   <g id="matplotlib.axis_1">
    <g id="xtick_1">
     <g id="line2d_1">
      <path d="M 87.440691 228.96 
L 87.440691 7.2 
" clip-path="url(#pef33100306)" style="fill: none; stroke: #b0b0b0; stroke-opacity: 0.3; stroke-width: 0.8; stroke-linecap: square"/>
     </g>
     <g id="line2d_2">
      <defs>
       <path id="m62f848a86d" d="M 0 0 
L 0 3.5 
" style="stroke: #000000; stroke-width: 0.8"/>
      </defs>
      <g>
       <use xlink:href="#m62f848a86d" x="87.440691" y="228.96" style="stroke: #000000; stroke-width: 0.8"/>
      </g>
     </g>
     <g id="text_1">
      <!-- 277 -->
      <g transform="translate(75.033816 245.837969) scale(0.13 -0.13)">
       <defs>
        <path id="DejaVuSerif-32" d="M 819 3553 
L 469 3553 
L 469 4384 
Q 803 4563 1142 4656 
Q 1481 4750 1806 4750 
Q 2534 4750 2956 4397 
Q 3378 4044 3378 3438 
Q 3378 2753 2422 1800 
Q 2347 1728 2309 1691 
L 1131 513 
L 3078 513 
L 3078 1088 
L 3444 1088 
L 3444 0 
L 434 0 
L 434 341 
L 1850 1753 
Q 2319 2222 2519 2614 
Q 2719 3006 2719 3438 
Q 2719 3909 2473 4175 
Q 2228 4441 1797 4441 
Q 1350 4441 1106 4219 
Q 863 3997 819 3553 
z
" transform="scale(0.015625)"/>
        <path id="DejaVuSerif-37" d="M 3609 4347 
L 1784 0 
L 1319 0 
L 3059 4153 
L 903 4153 
L 903 3578 
L 538 3578 
L 538 4666 
L 3609 4666 
L 3609 4347 
z
" transform="scale(0.015625)"/>
       </defs>
       <use xlink:href="#DejaVuSerif-32"/>
       <use xlink:href="#DejaVuSerif-37" transform="translate(63.623047 0)"/>
       <use xlink:href="#DejaVuSerif-37" transform="translate(127.246094 0)"/>
      </g>
     </g>
    </g>
    <g id="xtick_2">
     <g id="line2d_3">
      <path d="M 143.689557 228.96 
L 143.689557 7.2 
" clip-path="url(#pef33100306)" style="fill: none; stroke: #b0b0b0; stroke-opacity: 0.3; stroke-width: 0.8; stroke-linecap: square"/>
     </g>
     <g id="line2d_4">
      <g>
       <use xlink:href="#m62f848a86d" x="143.689557" y="228.96" style="stroke: #000000; stroke-width: 0.8"/>
      </g>
     </g>
     <g id="text_2">
      <!-- 278 -->
      <g transform="translate(131.282682 245.837969) scale(0.13 -0.13)">
       <defs>
        <path id="DejaVuSerif-38" d="M 2981 1275 
Q 2981 1775 2732 2051 
Q 2484 2328 2034 2328 
Q 1584 2328 1336 2051 
Q 1088 1775 1088 1275 
Q 1088 772 1336 495 
Q 1584 219 2034 219 
Q 2484 219 2732 495 
Q 2981 772 2981 1275 
z
M 2853 3541 
Q 2853 3966 2637 4203 
Q 2422 4441 2034 4441 
Q 1650 4441 1433 4203 
Q 1216 3966 1216 3541 
Q 1216 3113 1433 2875 
Q 1650 2638 2034 2638 
Q 2422 2638 2637 2875 
Q 2853 3113 2853 3541 
z
M 2516 2484 
Q 3047 2413 3344 2092 
Q 3641 1772 3641 1275 
Q 3641 619 3225 264 
Q 2809 -91 2034 -91 
Q 1263 -91 845 264 
Q 428 619 428 1275 
Q 428 1772 725 2092 
Q 1022 2413 1556 2484 
Q 1084 2569 832 2842 
Q 581 3116 581 3541 
Q 581 4103 968 4426 
Q 1356 4750 2034 4750 
Q 2713 4750 3100 4426 
Q 3488 4103 3488 3541 
Q 3488 3116 3236 2842 
Q 2984 2569 2516 2484 
z
" transform="scale(0.015625)"/>
       </defs>
       <use xlink:href="#DejaVuSerif-32"/>
       <use xlink:href="#DejaVuSerif-37" transform="translate(63.623047 0)"/>
       <use xlink:href="#DejaVuSerif-38" transform="translate(127.246094 0)"/>
      </g>
     </g>
    </g>
    <g id="xtick_3">
     <g id="line2d_5">
      <path d="M 199.938423 228.96 
L 199.938423 7.2 
" clip-path="url(#pef33100306)" style="fill: none; stroke: #b0b0b0; stroke-opacity: 0.3; stroke-width: 0.8; stroke-linecap: square"/>
     </g>
     <g id="line2d_6">
      <g>
       <use xlink:href="#m62f848a86d" x="199.938423" y="228.96" style="stroke: #000000; stroke-width: 0.8"/>
      </g>
     </g>
     <g id="text_3">
      <!-- 279 -->
      <g transform="translate(187.531548 245.837969) scale(0.13 -0.13)">
       <defs>
        <path id="DejaVuSerif-39" d="M 2994 2091 
Q 2784 1856 2512 1740 
Q 2241 1625 1900 1625 
Q 1206 1625 804 2044 
Q 403 2463 403 3188 
Q 403 3897 839 4323 
Q 1275 4750 2003 4750 
Q 2794 4750 3217 4161 
Q 3641 3572 3641 2478 
Q 3641 1253 3137 581 
Q 2634 -91 1722 -91 
Q 1475 -91 1203 -44 
Q 931 3 647 97 
L 647 872 
L 997 872 
Q 1038 556 1241 387 
Q 1444 219 1784 219 
Q 2391 219 2687 676 
Q 2984 1134 2994 2091 
z
M 1978 4441 
Q 1534 4441 1298 4117 
Q 1063 3794 1063 3188 
Q 1063 2581 1298 2256 
Q 1534 1931 1978 1931 
Q 2422 1931 2658 2245 
Q 2894 2559 2894 3150 
Q 2894 3772 2656 4106 
Q 2419 4441 1978 4441 
z
" transform="scale(0.015625)"/>
       </defs>
       <use xlink:href="#DejaVuSerif-32"/>
       <use xlink:href="#DejaVuSerif-37" transform="translate(63.623047 0)"/>
       <use xlink:href="#DejaVuSerif-39" transform="translate(127.246094 0)"/>
      </g>
     </g>
    </g>
    <g id="xtick_4">
     <g id="line2d_7">
      <path d="M 256.187289 228.96 
L 256.187289 7.2 
" clip-path="url(#pef33100306)" style="fill: none; stroke: #b0b0b0; stroke-opacity: 0.3; stroke-width: 0.8; stroke-linecap: square"/>
     </g>
     <g id="line2d_8">
      <g>
       <use xlink:href="#m62f848a86d" x="256.187289" y="228.96" style="stroke: #000000; stroke-width: 0.8"/>
      </g>
     </g>
     <g id="text_4">
      <!-- 280 -->
      <g transform="translate(243.780414 245.837969) scale(0.13 -0.13)">
       <defs>
        <path id="DejaVuSerif-30" d="M 2034 219 
Q 2513 219 2750 744 
Q 2988 1269 2988 2328 
Q 2988 3391 2750 3916 
Q 2513 4441 2034 4441 
Q 1556 4441 1318 3916 
Q 1081 3391 1081 2328 
Q 1081 1269 1318 744 
Q 1556 219 2034 219 
z
M 2034 -91 
Q 1275 -91 848 546 
Q 422 1184 422 2328 
Q 422 3475 848 4112 
Q 1275 4750 2034 4750 
Q 2797 4750 3222 4112 
Q 3647 3475 3647 2328 
Q 3647 1184 3222 546 
Q 2797 -91 2034 -91 
z
" transform="scale(0.015625)"/>
       </defs>
       <use xlink:href="#DejaVuSerif-32"/>
       <use xlink:href="#DejaVuSerif-38" transform="translate(63.623047 0)"/>
       <use xlink:href="#DejaVuSerif-30" transform="translate(127.246094 0)"/>
      </g>
     </g>
    </g>
    <g id="xtick_5">
     <g id="line2d_9">
      <path d="M 312.436155 228.96 
L 312.436155 7.2 
" clip-path="url(#pef33100306)" style="fill: none; stroke: #b0b0b0; stroke-opacity: 0.3; stroke-width: 0.8; stroke-linecap: square"/>
     </g>
     <g id="line2d_10">
      <g>
       <use xlink:href="#m62f848a86d" x="312.436155" y="228.96" style="stroke: #000000; stroke-width: 0.8"/>
      </g>
     </g>
     <g id="text_5">
      <!-- 281 -->
      <g transform="translate(300.02928 245.837969) scale(0.13 -0.13)">
       <defs>
        <path id="DejaVuSerif-31" d="M 909 0 
L 909 331 
L 1722 331 
L 1722 4213 
L 781 3603 
L 781 4013 
L 1919 4750 
L 2350 4750 
L 2350 331 
L 3163 331 
L 3163 0 
L 909 0 
z
" transform="scale(0.015625)"/>
       </defs>
       <use xlink:href="#DejaVuSerif-32"/>
       <use xlink:href="#DejaVuSerif-38" transform="translate(63.623047 0)"/>
       <use xlink:href="#DejaVuSerif-31" transform="translate(127.246094 0)"/>
      </g>
     </g>
    </g>
    <g id="text_6">
     <!-- Longitude -->
     <g transform="translate(165.764063 262.419531) scale(0.13 -0.13)">
      <defs>
       <path id="DejaVuSerif-4c" d="M 353 0 
L 353 331 
L 947 331 
L 947 4331 
L 353 4331 
L 353 4666 
L 2175 4666 
L 2175 4331 
L 1581 4331 
L 1581 384 
L 3713 384 
L 3713 1166 
L 4097 1166 
L 4097 0 
L 353 0 
z
" transform="scale(0.015625)"/>
       <path id="DejaVuSerif-6f" d="M 1925 219 
Q 2388 219 2623 584 
Q 2859 950 2859 1663 
Q 2859 2375 2623 2739 
Q 2388 3103 1925 3103 
Q 1463 3103 1227 2739 
Q 991 2375 991 1663 
Q 991 950 1228 584 
Q 1466 219 1925 219 
z
M 1925 -91 
Q 1200 -91 759 389 
Q 319 869 319 1663 
Q 319 2456 758 2934 
Q 1197 3413 1925 3413 
Q 2653 3413 3092 2934 
Q 3531 2456 3531 1663 
Q 3531 869 3092 389 
Q 2653 -91 1925 -91 
z
" transform="scale(0.015625)"/>
       <path id="DejaVuSerif-6e" d="M 263 0 
L 263 331 
L 781 331 
L 781 2988 
L 231 2988 
L 231 3322 
L 1356 3322 
L 1356 2731 
Q 1516 3069 1770 3241 
Q 2025 3413 2363 3413 
Q 2913 3413 3172 3097 
Q 3431 2781 3431 2113 
L 3431 331 
L 3944 331 
L 3944 0 
L 2356 0 
L 2356 331 
L 2853 331 
L 2853 1931 
Q 2853 2541 2703 2767 
Q 2553 2994 2175 2994 
Q 1775 2994 1565 2701 
Q 1356 2409 1356 1850 
L 1356 331 
L 1856 331 
L 1856 0 
L 263 0 
z
" transform="scale(0.015625)"/>
       <path id="DejaVuSerif-67" d="M 3359 2988 
L 3359 72 
Q 3359 -644 2965 -1033 
Q 2572 -1422 1844 -1422 
Q 1516 -1422 1216 -1362 
Q 916 -1303 641 -1184 
L 641 -488 
L 941 -488 
Q 997 -813 1206 -963 
Q 1416 -1113 1806 -1113 
Q 2313 -1113 2548 -827 
Q 2784 -541 2784 72 
L 2784 519 
Q 2616 206 2355 57 
Q 2094 -91 1709 -91 
Q 1097 -91 708 395 
Q 319 881 319 1663 
Q 319 2444 706 2928 
Q 1094 3413 1709 3413 
Q 2094 3413 2355 3264 
Q 2616 3116 2784 2803 
L 2784 3322 
L 3909 3322 
L 3909 2988 
L 3359 2988 
z
M 2784 1825 
Q 2784 2422 2554 2737 
Q 2325 3053 1888 3053 
Q 1444 3053 1217 2703 
Q 991 2353 991 1663 
Q 991 975 1217 622 
Q 1444 269 1888 269 
Q 2325 269 2554 583 
Q 2784 897 2784 1497 
L 2784 1825 
z
" transform="scale(0.015625)"/>
       <path id="DejaVuSerif-69" d="M 622 4353 
Q 622 4497 726 4603 
Q 831 4709 978 4709 
Q 1122 4709 1226 4603 
Q 1331 4497 1331 4353 
Q 1331 4206 1228 4103 
Q 1125 4000 978 4000 
Q 831 4000 726 4103 
Q 622 4206 622 4353 
z
M 1356 331 
L 1900 331 
L 1900 0 
L 231 0 
L 231 331 
L 781 331 
L 781 2988 
L 231 2988 
L 231 3322 
L 1356 3322 
L 1356 331 
z
" transform="scale(0.015625)"/>
       <path id="DejaVuSerif-74" d="M 691 2988 
L 184 2988 
L 184 3322 
L 691 3322 
L 691 4353 
L 1269 4353 
L 1269 3322 
L 2350 3322 
L 2350 2988 
L 1269 2988 
L 1269 878 
Q 1269 456 1350 337 
Q 1431 219 1650 219 
Q 1875 219 1978 351 
Q 2081 484 2088 781 
L 2522 781 
Q 2497 328 2275 118 
Q 2053 -91 1600 -91 
Q 1103 -91 897 129 
Q 691 350 691 878 
L 691 2988 
z
" transform="scale(0.015625)"/>
       <path id="DejaVuSerif-75" d="M 2266 3322 
L 3341 3322 
L 3341 331 
L 3884 331 
L 3884 0 
L 2766 0 
L 2766 588 
Q 2606 256 2353 82 
Q 2100 -91 1766 -91 
Q 1213 -91 952 223 
Q 691 538 691 1209 
L 691 2988 
L 172 2988 
L 172 3322 
L 1269 3322 
L 1269 1388 
Q 1269 781 1417 556 
Q 1566 331 1947 331 
Q 2347 331 2556 625 
Q 2766 919 2766 1478 
L 2766 2988 
L 2266 2988 
L 2266 3322 
z
" transform="scale(0.015625)"/>
       <path id="DejaVuSerif-64" d="M 3359 331 
L 3909 331 
L 3909 0 
L 2784 0 
L 2784 519 
Q 2616 206 2355 57 
Q 2094 -91 1709 -91 
Q 1097 -91 708 395 
Q 319 881 319 1663 
Q 319 2444 706 2928 
Q 1094 3413 1709 3413 
Q 2094 3413 2355 3264 
Q 2616 3116 2784 2803 
L 2784 4531 
L 2241 4531 
L 2241 4863 
L 3359 4863 
L 3359 331 
z
M 2784 1497 
L 2784 1825 
Q 2784 2422 2554 2737 
Q 2325 3053 1888 3053 
Q 1444 3053 1217 2703 
Q 991 2353 991 1663 
Q 991 975 1217 622 
Q 1444 269 1888 269 
Q 2325 269 2554 583 
Q 2784 897 2784 1497 
z
" transform="scale(0.015625)"/>
       <path id="DejaVuSerif-65" d="M 3469 1600 
L 991 1600 
L 991 1575 
Q 991 903 1244 561 
Q 1497 219 1991 219 
Q 2369 219 2611 417 
Q 2853 616 2950 1006 
L 3413 1006 
Q 3275 459 2904 184 
Q 2534 -91 1931 -91 
Q 1203 -91 761 389 
Q 319 869 319 1663 
Q 319 2450 753 2931 
Q 1188 3413 1894 3413 
Q 2647 3413 3050 2948 
Q 3453 2484 3469 1600 
z
M 2791 1931 
Q 2772 2513 2545 2808 
Q 2319 3103 1894 3103 
Q 1497 3103 1269 2806 
Q 1041 2509 991 1931 
L 2791 1931 
z
" transform="scale(0.015625)"/>
      </defs>
      <use xlink:href="#DejaVuSerif-4c"/>
      <use xlink:href="#DejaVuSerif-6f" transform="translate(66.40625 0)"/>
      <use xlink:href="#DejaVuSerif-6e" transform="translate(126.611328 0)"/>
      <use xlink:href="#DejaVuSerif-67" transform="translate(191.015625 0)"/>
      <use xlink:href="#DejaVuSerif-69" transform="translate(255.029297 0)"/>
      <use xlink:href="#DejaVuSerif-74" transform="translate(287.011719 0)"/>
      <use xlink:href="#DejaVuSerif-75" transform="translate(327.197266 0)"/>
      <use xlink:href="#DejaVuSerif-64" transform="translate(391.601562 0)"/>
      <use xlink:href="#DejaVuSerif-65" transform="translate(455.615234 0)"/>
     </g>
    </g>
   </g>
   <g id="matplotlib.axis_2">
    <g id="ytick_1">
     <g id="line2d_11">
      <path d="M 59.726875 204.247649 
L 338.726875 204.247649 
" clip-path="url(#pef33100306)" style="fill: none; stroke: #b0b0b0; stroke-opacity: 0.3; stroke-width: 0.8; stroke-linecap: square"/>
     </g>
     <g id="line2d_12">
      <defs>
       <path id="m0c7a0c3326" d="M 0 0 
L -3.5 0 
" style="stroke: #000000; stroke-width: 0.8"/>
      </defs>
      <g>
       <use xlink:href="#m0c7a0c3326" x="59.726875" y="204.247649" style="stroke: #000000; stroke-width: 0.8"/>
      </g>
     </g>
     <g id="text_7">
      <!-- 46.5 -->
      <g transform="translate(23.781562 209.186634) scale(0.13 -0.13)">
       <defs>
        <path id="DejaVuSerif-34" d="M 2234 1581 
L 2234 4063 
L 641 1581 
L 2234 1581 
z
M 3609 0 
L 1484 0 
L 1484 331 
L 2234 331 
L 2234 1247 
L 197 1247 
L 197 1588 
L 2241 4750 
L 2859 4750 
L 2859 1581 
L 3750 1581 
L 3750 1247 
L 2859 1247 
L 2859 331 
L 3609 331 
L 3609 0 
z
" transform="scale(0.015625)"/>
        <path id="DejaVuSerif-36" d="M 2094 219 
Q 2534 219 2771 542 
Q 3009 866 3009 1472 
Q 3009 2078 2771 2401 
Q 2534 2725 2094 2725 
Q 1647 2725 1412 2412 
Q 1178 2100 1178 1509 
Q 1178 888 1415 553 
Q 1653 219 2094 219 
z
M 1075 2569 
Q 1288 2803 1556 2918 
Q 1825 3034 2163 3034 
Q 2859 3034 3264 2615 
Q 3669 2197 3669 1472 
Q 3669 763 3233 336 
Q 2797 -91 2069 -91 
Q 1278 -91 853 498 
Q 428 1088 428 2181 
Q 428 3406 931 4078 
Q 1434 4750 2350 4750 
Q 2597 4750 2869 4703 
Q 3141 4656 3425 4563 
L 3425 3794 
L 3072 3794 
Q 3034 4109 2831 4275 
Q 2628 4441 2284 4441 
Q 1678 4441 1381 3981 
Q 1084 3522 1075 2569 
z
" transform="scale(0.015625)"/>
        <path id="DejaVuSerif-2e" d="M 603 325 
Q 603 500 722 622 
Q 841 744 1019 744 
Q 1191 744 1312 622 
Q 1434 500 1434 325 
Q 1434 153 1312 31 
Q 1191 -91 1019 -91 
Q 841 -91 722 29 
Q 603 150 603 325 
z
" transform="scale(0.015625)"/>
        <path id="DejaVuSerif-35" d="M 3219 4666 
L 3219 4153 
L 1081 4153 
L 1081 2816 
Q 1244 2928 1461 2984 
Q 1678 3041 1947 3041 
Q 2703 3041 3140 2622 
Q 3578 2203 3578 1478 
Q 3578 738 3136 323 
Q 2694 -91 1894 -91 
Q 1572 -91 1234 -12 
Q 897 66 544 225 
L 544 1131 
L 897 1131 
Q 925 688 1179 453 
Q 1434 219 1894 219 
Q 2388 219 2653 544 
Q 2919 869 2919 1478 
Q 2919 2084 2655 2407 
Q 2391 2731 1894 2731 
Q 1613 2731 1398 2631 
Q 1184 2531 1019 2322 
L 750 2322 
L 750 4666 
L 3219 4666 
z
" transform="scale(0.015625)"/>
       </defs>
       <use xlink:href="#DejaVuSerif-34"/>
       <use xlink:href="#DejaVuSerif-36" transform="translate(63.623047 0)"/>
       <use xlink:href="#DejaVuSerif-2e" transform="translate(127.246094 0)"/>
       <use xlink:href="#DejaVuSerif-35" transform="translate(159.033203 0)"/>
      </g>
     </g>
    </g>
    <g id="ytick_2">
     <g id="line2d_13">
      <path d="M 59.726875 172.638093 
L 338.726875 172.638093 
" clip-path="url(#pef33100306)" style="fill: none; stroke: #b0b0b0; stroke-opacity: 0.3; stroke-width: 0.8; stroke-linecap: square"/>
     </g>
     <g id="line2d_14">
      <g>
       <use xlink:href="#m0c7a0c3326" x="59.726875" y="172.638093" style="stroke: #000000; stroke-width: 0.8"/>
      </g>
     </g>
     <g id="text_8">
      <!-- 47.0 -->
      <g transform="translate(23.781562 177.577078) scale(0.13 -0.13)">
       <use xlink:href="#DejaVuSerif-34"/>
       <use xlink:href="#DejaVuSerif-37" transform="translate(63.623047 0)"/>
       <use xlink:href="#DejaVuSerif-2e" transform="translate(127.246094 0)"/>
       <use xlink:href="#DejaVuSerif-30" transform="translate(159.033203 0)"/>
      </g>
     </g>
    </g>
    <g id="ytick_3">
     <g id="line2d_15">
      <path d="M 59.726875 141.028538 
L 338.726875 141.028538 
" clip-path="url(#pef33100306)" style="fill: none; stroke: #b0b0b0; stroke-opacity: 0.3; stroke-width: 0.8; stroke-linecap: square"/>
     </g>
     <g id="line2d_16">
      <g>
       <use xlink:href="#m0c7a0c3326" x="59.726875" y="141.028538" style="stroke: #000000; stroke-width: 0.8"/>
      </g>
     </g>
     <g id="text_9">
      <!-- 47.5 -->
      <g transform="translate(23.781562 145.967522) scale(0.13 -0.13)">
       <use xlink:href="#DejaVuSerif-34"/>
       <use xlink:href="#DejaVuSerif-37" transform="translate(63.623047 0)"/>
       <use xlink:href="#DejaVuSerif-2e" transform="translate(127.246094 0)"/>
       <use xlink:href="#DejaVuSerif-35" transform="translate(159.033203 0)"/>
      </g>
     </g>
    </g>
    <g id="ytick_4">
     <g id="line2d_17">
      <path d="M 59.726875 109.418982 
L 338.726875 109.418982 
" clip-path="url(#pef33100306)" style="fill: none; stroke: #b0b0b0; stroke-opacity: 0.3; stroke-width: 0.8; stroke-linecap: square"/>
     </g>
     <g id="line2d_18">
      <g>
       <use xlink:href="#m0c7a0c3326" x="59.726875" y="109.418982" style="stroke: #000000; stroke-width: 0.8"/>
      </g>
     </g>
     <g id="text_10">
      <!-- 48.0 -->
      <g transform="translate(23.781562 114.357966) scale(0.13 -0.13)">
       <use xlink:href="#DejaVuSerif-34"/>
       <use xlink:href="#DejaVuSerif-38" transform="translate(63.623047 0)"/>
       <use xlink:href="#DejaVuSerif-2e" transform="translate(127.246094 0)"/>
       <use xlink:href="#DejaVuSerif-30" transform="translate(159.033203 0)"/>
      </g>
     </g>
    </g>
    <g id="ytick_5">
     <g id="line2d_19">
      <path d="M 59.726875 77.809426 
L 338.726875 77.809426 
" clip-path="url(#pef33100306)" style="fill: none; stroke: #b0b0b0; stroke-opacity: 0.3; stroke-width: 0.8; stroke-linecap: square"/>
     </g>
     <g id="line2d_20">
      <g>
       <use xlink:href="#m0c7a0c3326" x="59.726875" y="77.809426" style="stroke: #000000; stroke-width: 0.8"/>
      </g>
     </g>
     <g id="text_11">
      <!-- 48.5 -->
      <g transform="translate(23.781562 82.74841) scale(0.13 -0.13)">
       <use xlink:href="#DejaVuSerif-34"/>
       <use xlink:href="#DejaVuSerif-38" transform="translate(63.623047 0)"/>
       <use xlink:href="#DejaVuSerif-2e" transform="translate(127.246094 0)"/>
       <use xlink:href="#DejaVuSerif-35" transform="translate(159.033203 0)"/>
      </g>
     </g>
    </g>
    <g id="ytick_6">
     <g id="line2d_21">
      <path d="M 59.726875 46.19987 
L 338.726875 46.19987 
" clip-path="url(#pef33100306)" style="fill: none; stroke: #b0b0b0; stroke-opacity: 0.3; stroke-width: 0.8; stroke-linecap: square"/>
     </g>
     <g id="line2d_22">
      <g>
       <use xlink:href="#m0c7a0c3326" x="59.726875" y="46.19987" style="stroke: #000000; stroke-width: 0.8"/>
      </g>
     </g>
     <g id="text_12">
      <!-- 49.0 -->
      <g transform="translate(23.781562 51.138854) scale(0.13 -0.13)">
       <use xlink:href="#DejaVuSerif-34"/>
       <use xlink:href="#DejaVuSerif-39" transform="translate(63.623047 0)"/>
       <use xlink:href="#DejaVuSerif-2e" transform="translate(127.246094 0)"/>
       <use xlink:href="#DejaVuSerif-30" transform="translate(159.033203 0)"/>
      </g>
     </g>
    </g>
    <g id="ytick_7">
     <g id="line2d_23">
      <path d="M 59.726875 14.590314 
L 338.726875 14.590314 
" clip-path="url(#pef33100306)" style="fill: none; stroke: #b0b0b0; stroke-opacity: 0.3; stroke-width: 0.8; stroke-linecap: square"/>
     </g>
     <g id="line2d_24">
      <g>
       <use xlink:href="#m0c7a0c3326" x="59.726875" y="14.590314" style="stroke: #000000; stroke-width: 0.8"/>
      </g>
     </g>
     <g id="text_13">
      <!-- 49.5 -->
      <g transform="translate(23.781562 19.529299) scale(0.13 -0.13)">
       <use xlink:href="#DejaVuSerif-34"/>
       <use xlink:href="#DejaVuSerif-39" transform="translate(63.623047 0)"/>
       <use xlink:href="#DejaVuSerif-2e" transform="translate(127.246094 0)"/>
       <use xlink:href="#DejaVuSerif-35" transform="translate(159.033203 0)"/>
      </g>
     </g>
    </g>
    <g id="text_14">
     <!-- Latitude -->
     <g transform="translate(17.077969 145.77) rotate(-90) scale(0.13 -0.13)">
      <defs>
       <path id="DejaVuSerif-61" d="M 2547 1044 
L 2547 1747 
L 1806 1747 
Q 1378 1747 1168 1562 
Q 959 1378 959 997 
Q 959 650 1171 447 
Q 1384 244 1747 244 
Q 2106 244 2326 466 
Q 2547 688 2547 1044 
z
M 3122 2075 
L 3122 331 
L 3634 331 
L 3634 0 
L 2547 0 
L 2547 359 
Q 2356 128 2106 18 
Q 1856 -91 1522 -91 
Q 969 -91 644 203 
Q 319 497 319 997 
Q 319 1513 691 1797 
Q 1063 2081 1741 2081 
L 2547 2081 
L 2547 2309 
Q 2547 2688 2317 2895 
Q 2088 3103 1672 3103 
Q 1328 3103 1125 2947 
Q 922 2791 872 2484 
L 575 2484 
L 575 3156 
Q 875 3284 1158 3348 
Q 1441 3413 1709 3413 
Q 2400 3413 2761 3070 
Q 3122 2728 3122 2075 
z
" transform="scale(0.015625)"/>
      </defs>
      <use xlink:href="#DejaVuSerif-4c"/>
      <use xlink:href="#DejaVuSerif-61" transform="translate(66.40625 0)"/>
      <use xlink:href="#DejaVuSerif-74" transform="translate(126.025391 0)"/>
      <use xlink:href="#DejaVuSerif-69" transform="translate(166.210938 0)"/>
      <use xlink:href="#DejaVuSerif-74" transform="translate(198.193359 0)"/>
      <use xlink:href="#DejaVuSerif-75" transform="translate(238.378906 0)"/>
      <use xlink:href="#DejaVuSerif-64" transform="translate(302.783203 0)"/>
      <use xlink:href="#DejaVuSerif-65" transform="translate(366.796875 0)"/>
     </g>
    </g>
   </g>
   <g id="line2d_25">
    <path d="M 90.606141 119.125151 
L 90.456085 117.963083 
L 90.057734 117.298773 
L 89.572375 116.880682 
L 89.087289 116.477319 
L 88.603863 116.111934 
L 88.014166 115.951696 
L 87.415878 115.811005 
L 86.796844 115.712923 
L 85.088465 115.882636 
L 83.946691 116.430454 
L 84.095796 117.176162 
L 85.118015 118.035326 
L 86.47659 118.710265 
L 87.850285 119.320631 
L 89.201515 119.905875 
L 90.094289 120.370232 
L 90.687915 120.344972 
L 90.893404 120.114858 
L 90.949967 119.843824 
L 90.988228 119.564844 
L 91.415585 119.336461 
L 91.857825 119.082912 
L 92.289581 118.818658 
L 92.714555 118.550116 
L 93.513252 118.318787 
L 93.825773 117.936857 
L 93.905167 117.707433 
L 93.944934 117.512739 
L 94.003227 117.338923 
L 94.080304 117.185558 
L 94.163808 117.037634 
L 94.25066 116.892143 
L 94.500079 117.184182 
L 94.778164 117.558912 
L 94.965226 117.902112 
L 95.017868 118.179141 
L 94.993457 118.453209 
L 94.932311 118.728996 
L 94.860643 119.005817 
L 94.783439 119.283495 
L 94.529836 119.300066 
L 94.236288 119.251948 
L 93.93711 119.193108 
L 93.635536 119.128568 
L 93.540234 119.401612 
L 93.477966 119.9361 
L 93.419478 120.295309 
L 93.367101 120.482039 
L 93.437768 119.836519 
L 93.52096 119.235768 
L 93.584933 118.882579 
L 93.604061 118.987776 
L 92.745716 119.280031 
L 91.791299 120.074434 
L 90.860236 121.071166 
L 89.893933 122.085929 
L 88.827723 122.073852 
L 87.744543 121.951817 
L 86.746357 121.888996 
L 86.303005 122.160226 
L 86.34975 121.619873 
L 86.634439 121.242119 
L 86.952313 120.897006 
L 87.300681 120.582159 
L 87.949 120.584974 
L 88.676054 120.678802 
L 89.523401 120.988947 
L 90.386477 121.333944 
L 91.136153 121.393318 
L 91.825179 121.255007 
L 92.450768 120.853764 
L 93.054255 120.327313 
L 93.594023 119.929643 
L 94.206921 120.557135 
L 94.946929 121.236477 
L 95.627735 121.892433 
L 96.483532 121.205631 
L 97.471149 120.291461 
L 98.481684 119.355285 
L 99.507632 118.410193 
L 101.01145 117.199442 
L 102.618645 115.934913 
L 104.260234 114.655251 
L 105.955308 113.360913 
L 108.507054 112.381779 
L 111.148088 111.662214 
L 113.725184 111.160146 
L 116.171985 110.708769 
L 118.170713 110.566961 
L 120.022367 110.429335 
L 121.623299 110.372714 
L 122.954018 110.366762 
L 123.524491 109.995751 
L 123.978974 109.56526 
L 124.400076 109.119729 
" clip-path="url(#pef33100306)" style="fill: none; stroke: #ff0000; stroke-width: 1.1; stroke-linecap: square"/>
   </g>
   <g id="line2d_26">
    <path d="M 135.166493 134.928349 
L 135.016436 133.766281 
L 134.618086 133.101971 
L 134.132727 132.68388 
L 133.647641 132.280516 
L 133.164214 131.915131 
L 132.574517 131.754893 
L 131.97623 131.614202 
L 131.357195 131.51612 
L 129.648816 131.685834 
L 128.507043 132.233652 
L 128.656147 132.979359 
L 129.678366 133.838523 
L 131.036942 134.513463 
L 132.410636 135.123829 
L 133.761866 135.709072 
L 134.654641 136.173429 
L 135.248267 136.14817 
L 135.453756 135.918055 
L 135.510318 135.647022 
L 135.54858 135.368042 
L 135.975936 135.139658 
L 136.418176 134.886109 
L 136.849932 134.621856 
L 137.274907 134.353314 
L 138.073603 134.121985 
L 138.386125 133.740054 
L 138.465518 133.51063 
L 138.505286 133.315937 
L 138.563578 133.142121 
L 138.640656 132.988755 
L 138.724159 132.840831 
L 138.811012 132.695341 
L 139.06043 132.987379 
L 139.338515 133.362109 
L 139.525578 133.70531 
L 139.57822 133.982338 
L 139.553808 134.256406 
L 139.492663 134.532193 
L 139.420994 134.809014 
L 139.343791 135.086692 
L 139.090188 135.103264 
L 138.79664 135.055145 
L 138.497462 134.996306 
L 138.195888 134.931766 
L 138.100585 135.20481 
L 138.038318 135.739297 
L 137.979829 136.098506 
L 137.927452 136.285237 
L 137.99812 135.639717 
L 138.081311 135.038965 
L 138.145285 134.685777 
L 138.164413 134.790974 
L 137.306068 135.083229 
L 136.35165 135.877632 
L 135.420587 136.874363 
L 134.454284 137.889127 
L 133.388075 137.87705 
L 132.304894 137.755015 
L 131.306709 137.692193 
L 130.863356 137.963424 
L 130.910102 137.42307 
L 131.19479 137.045316 
L 131.512664 136.700203 
L 131.861033 136.385356 
L 132.509352 136.388171 
L 133.236406 136.481999 
L 134.083753 136.792145 
L 134.946828 137.137142 
L 135.696504 137.196516 
L 136.385531 137.058205 
L 137.01112 136.656962 
L 137.614606 136.130511 
L 138.154374 135.73284 
L 138.767273 136.360332 
L 139.507281 137.039674 
L 140.188087 137.69563 
L 141.043883 137.008828 
L 142.0315 136.094659 
L 143.042035 135.158483 
L 144.067984 134.213391 
L 145.571802 133.00264 
L 147.178996 131.73811 
L 148.820586 130.458448 
L 150.51566 129.16411 
L 153.067405 128.184977 
L 155.70844 127.465412 
L 158.285535 126.963343 
L 160.732337 126.511967 
L 162.731065 126.370158 
L 164.582719 126.232533 
L 166.18365 126.175911 
L 167.514369 126.16996 
L 168.084843 125.798949 
L 168.539326 125.368457 
L 168.960428 124.922927 
" clip-path="url(#pef33100306)" style="fill: none; stroke: #ff0000; stroke-width: 1.1; stroke-linecap: square"/>
   </g>
   <g id="line2d_27">
    <path d="M 158.118843 159.133366 
L 157.968786 157.971298 
L 157.570435 157.306988 
L 157.085077 156.888897 
L 156.599991 156.485534 
L 156.116564 156.120149 
L 155.526867 155.959911 
L 154.92858 155.819219 
L 154.309545 155.721138 
L 152.601166 155.890851 
L 151.459393 156.438669 
L 151.608497 157.184377 
L 152.630716 158.04354 
L 153.989292 158.71848 
L 155.362986 159.328846 
L 156.714216 159.91409 
L 157.606991 160.378447 
L 158.200617 160.353187 
L 158.406105 160.123073 
L 158.462668 159.852039 
L 158.50093 159.573059 
L 158.928286 159.344676 
L 159.370526 159.091126 
L 159.802282 158.826873 
L 160.227257 158.558331 
L 161.025953 158.327002 
L 161.338474 157.945072 
L 161.417868 157.715648 
L 161.457636 157.520954 
L 161.515928 157.347138 
L 161.593006 157.193773 
L 161.676509 157.045849 
L 161.763361 156.900358 
L 162.01278 157.192397 
L 162.290865 157.567127 
L 162.477928 157.910327 
L 162.530569 158.187356 
L 162.506158 158.461424 
L 162.445013 158.737211 
L 162.373344 159.014032 
L 162.29614 159.29171 
L 162.042537 159.308281 
L 161.748989 159.260163 
L 161.449812 159.201323 
L 161.148238 159.136783 
L 161.052935 159.409827 
L 160.990667 159.944315 
L 160.932179 160.303524 
L 160.879802 160.490254 
L 160.950469 159.844734 
L 161.033661 159.243983 
L 161.097635 158.890794 
L 161.116762 158.995991 
L 160.258418 159.288246 
L 159.304 160.082649 
L 158.372937 161.07938 
L 157.406634 162.094144 
L 156.340425 162.082067 
L 155.257244 161.960032 
L 154.259059 161.89721 
L 153.815706 162.168441 
L 153.862452 161.628088 
L 154.14714 161.250334 
L 154.465014 160.905221 
L 154.813382 160.590373 
L 155.461701 160.593188 
L 156.188756 160.687017 
L 157.036103 160.997162 
L 157.899178 161.342159 
L 158.648854 161.401533 
L 159.33788 161.263222 
L 159.96347 160.861979 
L 160.566956 160.335528 
L 161.106724 159.937858 
L 161.719622 160.565349 
L 162.459631 161.244692 
L 163.140437 161.900647 
L 163.996233 161.213846 
L 164.98385 160.299676 
L 165.994385 159.3635 
L 167.020333 158.418408 
L 168.524152 157.207657 
L 170.131346 155.943128 
L 171.772935 154.663465 
L 173.46801 153.369128 
L 176.019755 152.389994 
L 178.66079 151.670429 
L 181.237885 151.168361 
L 183.684687 150.716984 
L 185.683415 150.575176 
L 187.535068 150.43755 
L 189.136 150.380928 
L 190.466719 150.374977 
L 191.037192 150.003966 
L 191.491676 149.573475 
L 191.912777 149.127944 
" clip-path="url(#pef33100306)" style="fill: none; stroke: #ff0000; stroke-width: 1.1; stroke-linecap: square"/>
   </g>
   <g id="line2d_28">
    <path d="M 121.616141 148.872904 
L 121.466084 147.710836 
L 121.067734 147.046526 
L 120.582375 146.628435 
L 120.097289 146.225072 
L 119.613862 145.859687 
L 119.024165 145.699449 
L 118.425878 145.558758 
L 117.806844 145.460676 
L 116.098465 145.630389 
L 114.956691 146.178207 
L 115.105796 146.923915 
L 116.128015 147.783079 
L 117.48659 148.458018 
L 118.860284 149.068384 
L 120.211515 149.653628 
L 121.104289 150.117985 
L 121.697915 150.092725 
L 121.903404 149.862611 
L 121.959966 149.591577 
L 121.998228 149.312597 
L 122.425584 149.084214 
L 122.867825 148.830665 
L 123.299581 148.566411 
L 123.724555 148.297869 
L 124.523251 148.06654 
L 124.835773 147.68461 
L 124.915167 147.455186 
L 124.954934 147.260492 
L 125.013226 147.086676 
L 125.090304 146.933311 
L 125.173808 146.785387 
L 125.26066 146.639896 
L 125.510078 146.931935 
L 125.788164 147.306665 
L 125.975226 147.649865 
L 126.027868 147.926894 
L 126.003457 148.200962 
L 125.942311 148.476749 
L 125.870642 148.75357 
L 125.793439 149.031248 
L 125.539836 149.047819 
L 125.246288 148.999701 
L 124.94711 148.940861 
L 124.645536 148.876321 
L 124.550234 149.149365 
L 124.487966 149.683853 
L 124.429477 150.043062 
L 124.377101 150.229792 
L 124.447768 149.584272 
L 124.53096 148.983521 
L 124.594933 148.630332 
L 124.614061 148.735529 
L 123.755716 149.027784 
L 122.801299 149.822187 
L 121.870235 150.818919 
L 120.903932 151.833682 
L 119.837723 151.821605 
L 118.754542 151.69957 
L 117.756357 151.636749 
L 117.313004 151.907979 
L 117.35975 151.367626 
L 117.644439 150.989872 
L 117.962313 150.644759 
L 118.310681 150.329912 
L 118.959 150.332727 
L 119.686054 150.426555 
L 120.533401 150.7367 
L 121.396476 151.081697 
L 122.146153 151.141071 
L 122.835179 151.002761 
L 123.460768 150.601517 
L 124.064254 150.075066 
L 124.604022 149.677396 
L 125.216921 150.304888 
L 125.956929 150.98423 
L 126.637735 151.640186 
L 127.493531 150.953384 
L 128.481148 150.039214 
L 129.491683 149.103038 
L 130.517632 148.157946 
L 132.02145 146.947195 
L 133.628644 145.682666 
L 135.270234 144.403004 
L 136.965308 143.108666 
L 139.517054 142.129532 
L 142.158088 141.409967 
L 144.735183 140.907899 
L 147.181985 140.456522 
L 149.180713 140.314714 
L 151.032367 140.177088 
L 152.633298 140.120467 
L 153.964017 140.114515 
L 154.534491 139.743504 
L 154.988974 139.313013 
L 155.410076 138.867482 
" clip-path="url(#pef33100306)" style="fill: none; stroke: #ff0000; stroke-width: 1.1; stroke-linecap: square"/>
   </g>
   <g id="line2d_29">
    <path d="M 182.294605 60.897189 
L 182.144549 59.735121 
L 181.746198 59.07081 
L 181.260839 58.65272 
L 180.775753 58.249356 
L 180.292327 57.883971 
L 179.70263 57.723733 
L 179.104342 57.583042 
L 178.485308 57.48496 
L 176.776929 57.654673 
L 175.635155 58.202491 
L 175.78426 58.948199 
L 176.806479 59.807363 
L 178.165054 60.482302 
L 179.538749 61.092668 
L 180.889979 61.677912 
L 181.782753 62.142269 
L 182.376379 62.117009 
L 182.581868 61.886895 
L 182.63843 61.615862 
L 182.676692 61.336881 
L 183.104048 61.108498 
L 183.546289 60.854949 
L 183.978045 60.590696 
L 184.403019 60.322153 
L 185.201716 60.090824 
L 185.514237 59.708894 
L 185.593631 59.47947 
L 185.633398 59.284777 
L 185.69169 59.11096 
L 185.768768 58.957595 
L 185.852272 58.809671 
L 185.939124 58.66418 
L 186.188542 58.956219 
L 186.466628 59.330949 
L 186.65369 59.67415 
L 186.706332 59.951178 
L 186.681921 60.225246 
L 186.620775 60.501033 
L 186.549107 60.777854 
L 186.471903 61.055532 
L 186.2183 61.072103 
L 185.924752 61.023985 
L 185.625574 60.965146 
L 185.324 60.900605 
L 185.228698 61.173649 
L 185.16643 61.708137 
L 185.107942 62.067346 
L 185.055565 62.254076 
L 185.126232 61.608556 
L 185.209424 61.007805 
L 185.273397 60.654616 
L 185.292525 60.759814 
L 184.43418 61.052068 
L 183.479763 61.846471 
L 182.5487 62.843203 
L 181.582397 63.857967 
L 180.516187 63.84589 
L 179.433007 63.723854 
L 178.434821 63.661033 
L 177.991469 63.932264 
L 178.038214 63.39191 
L 178.322903 63.014156 
L 178.640777 62.669043 
L 178.989145 62.354196 
L 179.637464 62.357011 
L 180.364518 62.450839 
L 181.211865 62.760984 
L 182.074941 63.105981 
L 182.824617 63.165356 
L 183.513643 63.027045 
L 184.139232 62.625801 
L 184.742718 62.09935 
L 185.282487 61.70168 
L 185.895385 62.329172 
L 186.635393 63.008514 
L 187.316199 63.66447 
L 188.171996 62.977668 
L 189.159613 62.063498 
L 190.170148 61.127322 
L 191.196096 60.18223 
L 192.699914 58.971479 
L 194.307109 57.70695 
L 195.948698 56.427288 
L 197.643772 55.13295 
L 200.195518 54.153816 
L 202.836552 53.434252 
L 205.413648 52.932183 
L 207.860449 52.480806 
L 209.859177 52.338998 
L 211.710831 52.201373 
L 213.311762 52.144751 
L 214.642481 52.138799 
L 215.212955 51.767788 
L 215.667438 51.337297 
L 216.08854 50.891766 
" clip-path="url(#pef33100306)" style="fill: none; stroke: #ff0000; stroke-width: 1.1; stroke-linecap: square"/>
   </g>
   <g id="line2d_30">
    <path d="M 145.791904 50.636727 
L 145.641847 49.474659 
L 145.243496 48.810349 
L 144.758138 48.392258 
L 144.273052 47.988894 
L 143.789625 47.623509 
L 143.199928 47.463271 
L 142.601641 47.32258 
L 141.982606 47.224498 
L 140.274227 47.394211 
L 139.132454 47.94203 
L 139.281558 48.687737 
L 140.303777 49.546901 
L 141.662353 50.22184 
L 143.036047 50.832207 
L 144.387277 51.41745 
L 145.280052 51.881807 
L 145.873678 51.856548 
L 146.079166 51.626433 
L 146.135729 51.3554 
L 146.173991 51.07642 
L 146.601347 50.848036 
L 147.043587 50.594487 
L 147.475343 50.330234 
L 147.900318 50.061692 
L 148.699014 49.830363 
L 149.011535 49.448432 
L 149.090929 49.219008 
L 149.130697 49.024315 
L 149.188989 48.850499 
L 149.266067 48.697133 
L 149.34957 48.549209 
L 149.436422 48.403719 
L 149.685841 48.695757 
L 149.963926 49.070487 
L 150.150989 49.413688 
L 150.203631 49.690716 
L 150.179219 49.964784 
L 150.118074 50.240571 
L 150.046405 50.517392 
L 149.969201 50.79507 
L 149.715598 50.811641 
L 149.42205 50.763523 
L 149.122873 50.704684 
L 148.821299 50.640144 
L 148.725996 50.913188 
L 148.663728 51.447675 
L 148.60524 51.806884 
L 148.552863 51.993615 
L 148.62353 51.348094 
L 148.706722 50.747343 
L 148.770696 50.394155 
L 148.789824 50.499352 
L 147.931479 50.791607 
L 146.977061 51.58601 
L 146.045998 52.582741 
L 145.079695 53.597505 
L 144.013486 53.585428 
L 142.930305 53.463393 
L 141.93212 53.400571 
L 141.488767 53.671802 
L 141.535513 53.131448 
L 141.820201 52.753694 
L 142.138075 52.408581 
L 142.486443 52.093734 
L 143.134762 52.096549 
L 143.861817 52.190377 
L 144.709164 52.500523 
L 145.572239 52.84552 
L 146.321915 52.904894 
L 147.010941 52.766583 
L 147.636531 52.36534 
L 148.240017 51.838888 
L 148.779785 51.441218 
L 149.392683 52.06871 
L 150.132692 52.748052 
L 150.813498 53.404008 
L 151.669294 52.717206 
L 152.656911 51.803036 
L 153.667446 50.86686 
L 154.693394 49.921769 
L 156.197213 48.711018 
L 157.804407 47.446488 
L 159.445996 46.166826 
L 161.141071 44.872488 
L 163.692816 43.893354 
L 166.333851 43.17379 
L 168.910946 42.671721 
L 171.357748 42.220344 
L 173.356476 42.078536 
L 175.208129 41.940911 
L 176.809061 41.884289 
L 178.13978 41.878337 
L 178.710253 41.507326 
L 179.164737 41.076835 
L 179.585838 40.631305 
" clip-path="url(#pef33100306)" style="fill: none; stroke: #ff0000; stroke-width: 1.1; stroke-linecap: square"/>
   </g>
   <g id="line2d_31">
    <path d="M 159.342255 36.692171 
L 159.192199 35.530103 
L 158.793848 34.865793 
L 158.30849 34.447702 
L 157.823403 34.044339 
L 157.339977 33.678954 
L 156.75028 33.518716 
L 156.151992 33.378024 
L 155.532958 33.279943 
L 153.824579 33.449656 
L 152.682806 33.997474 
L 152.83191 34.743182 
L 153.854129 35.602345 
L 155.212704 36.277285 
L 156.586399 36.887651 
L 157.937629 37.472895 
L 158.830404 37.937252 
L 159.42403 37.911992 
L 159.629518 37.681878 
L 159.686081 37.410844 
L 159.724343 37.131864 
L 160.151699 36.90348 
L 160.593939 36.649931 
L 161.025695 36.385678 
L 161.45067 36.117136 
L 162.249366 35.885807 
L 162.561887 35.503877 
L 162.641281 35.274453 
L 162.681049 35.079759 
L 162.739341 34.905943 
L 162.816418 34.752578 
L 162.899922 34.604654 
L 162.986774 34.459163 
L 163.236193 34.751202 
L 163.514278 35.125931 
L 163.70134 35.469132 
L 163.753982 35.746161 
L 163.729571 36.020229 
L 163.668426 36.296016 
L 163.596757 36.572837 
L 163.519553 36.850515 
L 163.26595 36.867086 
L 162.972402 36.818968 
L 162.673225 36.760128 
L 162.37165 36.695588 
L 162.276348 36.968632 
L 162.21408 37.503119 
L 162.155592 37.862328 
L 162.103215 38.049059 
L 162.173882 37.403539 
L 162.257074 36.802788 
L 162.321047 36.449599 
L 162.340175 36.554796 
L 161.48183 36.847051 
L 160.527413 37.641454 
L 159.59635 38.638185 
L 158.630047 39.652949 
L 157.563838 39.640872 
L 156.480657 39.518837 
L 155.482472 39.456015 
L 155.039119 39.727246 
L 155.085865 39.186893 
L 155.370553 38.809139 
L 155.688427 38.464026 
L 156.036795 38.149178 
L 156.685114 38.151993 
L 157.412168 38.245822 
L 158.259516 38.555967 
L 159.122591 38.900964 
L 159.872267 38.960338 
L 160.561293 38.822027 
L 161.186882 38.420784 
L 161.790369 37.894333 
L 162.330137 37.496663 
L 162.943035 38.124154 
L 163.683043 38.803497 
L 164.36385 39.459452 
L 165.219646 38.77265 
L 166.207263 37.858481 
L 167.217798 36.922305 
L 168.243746 35.977213 
L 169.747564 34.766462 
L 171.354759 33.501933 
L 172.996348 32.22227 
L 174.691423 30.927933 
L 177.243168 29.948799 
L 179.884202 29.229234 
L 182.461298 28.727166 
L 184.9081 28.275789 
L 186.906827 28.133981 
L 188.758481 27.996355 
L 190.359413 27.939733 
L 191.690132 27.933782 
L 192.260605 27.562771 
L 192.715088 27.13228 
L 193.13619 26.686749 
" clip-path="url(#pef33100306)" style="fill: none; stroke: #ff0000; stroke-width: 1.1; stroke-linecap: square"/>
   </g>
   <g id="line2d_32">
    <path d="M 226.854957 76.700386 
L 226.7049 75.538318 
L 226.30655 74.874008 
L 225.821191 74.455917 
L 225.336105 74.052553 
L 224.852678 73.687169 
L 224.262981 73.52693 
L 223.664694 73.386239 
L 223.045659 73.288158 
L 221.33728 73.457871 
L 220.195507 74.005689 
L 220.344611 74.751396 
L 221.36683 75.61056 
L 222.725406 76.2855 
L 224.0991 76.895866 
L 225.45033 77.481109 
L 226.343105 77.945467 
L 226.936731 77.920207 
L 227.142219 77.690093 
L 227.198782 77.419059 
L 227.237044 77.140079 
L 227.6644 76.911695 
L 228.10664 76.658146 
L 228.538396 76.393893 
L 228.963371 76.125351 
L 229.762067 75.894022 
L 230.074589 75.512092 
L 230.153982 75.282668 
L 230.19375 75.087974 
L 230.252042 74.914158 
L 230.32912 74.760793 
L 230.412623 74.612869 
L 230.499476 74.467378 
L 230.748894 74.759416 
L 231.026979 75.134146 
L 231.214042 75.477347 
L 231.266684 75.754376 
L 231.242272 76.028443 
L 231.181127 76.304231 
L 231.109458 76.581051 
L 231.032255 76.858729 
L 230.778652 76.875301 
L 230.485104 76.827183 
L 230.185926 76.768343 
L 229.884352 76.703803 
L 229.789049 76.976847 
L 229.726782 77.511334 
L 229.668293 77.870543 
L 229.615916 78.057274 
L 229.686583 77.411754 
L 229.769775 76.811003 
L 229.833749 76.457814 
L 229.852877 76.563011 
L 228.994532 76.855266 
L 228.040114 77.649669 
L 227.109051 78.6464 
L 226.142748 79.661164 
L 225.076539 79.649087 
L 223.993358 79.527052 
L 222.995173 79.46423 
L 222.55182 79.735461 
L 222.598566 79.195108 
L 222.883254 78.817353 
L 223.201128 78.472241 
L 223.549497 78.157393 
L 224.197815 78.160208 
L 224.92487 78.254037 
L 225.772217 78.564182 
L 226.635292 78.909179 
L 227.384968 78.968553 
L 228.073995 78.830242 
L 228.699584 78.428999 
L 229.30307 77.902548 
L 229.842838 77.504878 
L 230.455737 78.132369 
L 231.195745 78.811711 
L 231.876551 79.467667 
L 232.732347 78.780865 
L 233.719964 77.866696 
L 234.730499 76.93052 
L 235.756448 75.985428 
L 237.260266 74.774677 
L 238.86746 73.510148 
L 240.50905 72.230485 
L 242.204124 70.936147 
L 244.755869 69.957014 
L 247.396904 69.237449 
L 249.973999 68.73538 
L 252.420801 68.284004 
L 254.419529 68.142196 
L 256.271183 68.00457 
L 257.872114 67.947948 
L 259.202833 67.941997 
L 259.773306 67.570986 
L 260.22779 67.140494 
L 260.648892 66.694964 
" clip-path="url(#pef33100306)" style="fill: none; stroke: #ff0000; stroke-width: 1.1; stroke-linecap: square"/>
   </g>
   <g id="patch_4">
    <path d="M 59.726875 228.96 
L 59.726875 7.2 
" style="fill: none; stroke: #000000; stroke-width: 0.8; stroke-linejoin: miter; stroke-linecap: square"/>
   </g>
   <g id="patch_5">
    <path d="M 338.726875 228.96 
L 338.726875 7.2 
" style="fill: none; stroke: #000000; stroke-width: 0.8; stroke-linejoin: miter; stroke-linecap: square"/>
   </g>
   <g id="patch_6">
    <path d="M 59.726875 228.96 
L 338.726875 228.96 
" style="fill: none; stroke: #000000; stroke-width: 0.8; stroke-linejoin: miter; stroke-linecap: square"/>
   </g>
   <g id="patch_7">
    <path d="M 59.726875 7.2 
L 338.726875 7.2 
" style="fill: none; stroke: #000000; stroke-width: 0.8; stroke-linejoin: miter; stroke-linecap: square"/>
   </g>
   <g id="text_15">
    <!-- Timmins -->
    <g transform="translate(183.598128 76.810564) scale(0.09 -0.09)">
     <defs>
      <path id="DejaVuSerif-54" d="M 1222 0 
L 1222 331 
L 1819 331 
L 1819 4294 
L 447 4294 
L 447 3566 
L 63 3566 
L 63 4666 
L 4206 4666 
L 4206 3566 
L 3822 3566 
L 3822 4294 
L 2450 4294 
L 2450 331 
L 3047 331 
L 3047 0 
L 1222 0 
z
" transform="scale(0.015625)"/>
      <path id="DejaVuSerif-6d" d="M 3316 2675 
Q 3481 3041 3739 3227 
Q 3997 3413 4341 3413 
Q 4863 3413 5119 3089 
Q 5375 2766 5375 2113 
L 5375 331 
L 5894 331 
L 5894 0 
L 4300 0 
L 4300 331 
L 4800 331 
L 4800 2047 
Q 4800 2556 4650 2772 
Q 4500 2988 4153 2988 
Q 3769 2988 3567 2697 
Q 3366 2406 3366 1850 
L 3366 331 
L 3866 331 
L 3866 0 
L 2291 0 
L 2291 331 
L 2791 331 
L 2791 2069 
Q 2791 2566 2641 2777 
Q 2491 2988 2144 2988 
Q 1759 2988 1557 2697 
Q 1356 2406 1356 1850 
L 1356 331 
L 1856 331 
L 1856 0 
L 263 0 
L 263 331 
L 781 331 
L 781 2994 
L 231 2994 
L 231 3322 
L 1356 3322 
L 1356 2731 
Q 1516 3063 1762 3238 
Q 2009 3413 2322 3413 
Q 2709 3413 2968 3220 
Q 3228 3028 3316 2675 
z
" transform="scale(0.015625)"/>
      <path id="DejaVuSerif-73" d="M 359 184 
L 359 959 
L 691 959 
Q 703 588 923 403 
Q 1144 219 1575 219 
Q 1963 219 2166 364 
Q 2369 509 2369 788 
Q 2369 1006 2220 1140 
Q 2072 1275 1594 1428 
L 1178 1569 
Q 750 1706 558 1912 
Q 366 2119 366 2438 
Q 366 2894 700 3153 
Q 1034 3413 1625 3413 
Q 1888 3413 2178 3344 
Q 2469 3275 2778 3144 
L 2778 2419 
L 2447 2419 
Q 2434 2741 2221 2922 
Q 2009 3103 1644 3103 
Q 1281 3103 1095 2975 
Q 909 2847 909 2591 
Q 909 2381 1050 2254 
Q 1191 2128 1613 1997 
L 2069 1856 
Q 2541 1709 2748 1489 
Q 2956 1269 2956 922 
Q 2956 450 2595 179 
Q 2234 -91 1600 -91 
Q 1278 -91 972 -22 
Q 666 47 359 184 
z
" transform="scale(0.015625)"/>
     </defs>
     <use xlink:href="#DejaVuSerif-54"/>
     <use xlink:href="#DejaVuSerif-69" transform="translate(66.699219 0)"/>
     <use xlink:href="#DejaVuSerif-6d" transform="translate(98.681641 0)"/>
     <use xlink:href="#DejaVuSerif-6d" transform="translate(193.505859 0)"/>
     <use xlink:href="#DejaVuSerif-69" transform="translate(288.330078 0)"/>
     <use xlink:href="#DejaVuSerif-6e" transform="translate(320.3125 0)"/>
     <use xlink:href="#DejaVuSerif-73" transform="translate(384.716797 0)"/>
    </g>
   </g>
   <g id="text_16">
    <!-- Iroquois Falls -->
    <g transform="translate(220.109266 58.40748) scale(0.09 -0.09)">
     <defs>
      <path id="DejaVuSerif-49" d="M 1581 331 
L 2175 331 
L 2175 0 
L 353 0 
L 353 331 
L 947 331 
L 947 4331 
L 353 4331 
L 353 4666 
L 2175 4666 
L 2175 4331 
L 1581 4331 
L 1581 331 
z
" transform="scale(0.015625)"/>
      <path id="DejaVuSerif-72" d="M 3059 3328 
L 3059 2497 
L 2728 2497 
Q 2713 2744 2591 2866 
Q 2469 2988 2234 2988 
Q 1809 2988 1582 2694 
Q 1356 2400 1356 1850 
L 1356 331 
L 2022 331 
L 2022 0 
L 263 0 
L 263 331 
L 781 331 
L 781 2994 
L 231 2994 
L 231 3322 
L 1356 3322 
L 1356 2731 
Q 1525 3078 1790 3245 
Q 2056 3413 2438 3413 
Q 2578 3413 2733 3391 
Q 2888 3369 3059 3328 
z
" transform="scale(0.015625)"/>
      <path id="DejaVuSerif-71" d="M 3359 2988 
L 3359 -997 
L 3909 -997 
L 3909 -1331 
L 2241 -1331 
L 2241 -997 
L 2784 -997 
L 2784 519 
Q 2616 206 2355 57 
Q 2094 -91 1709 -91 
Q 1097 -91 708 395 
Q 319 881 319 1663 
Q 319 2444 706 2928 
Q 1094 3413 1709 3413 
Q 2094 3413 2355 3264 
Q 2616 3116 2784 2803 
L 2784 3322 
L 3909 3322 
L 3909 2988 
L 3359 2988 
z
M 2784 1825 
Q 2784 2422 2554 2737 
Q 2325 3053 1888 3053 
Q 1444 3053 1217 2703 
Q 991 2353 991 1663 
Q 991 975 1217 622 
Q 1444 269 1888 269 
Q 2325 269 2554 583 
Q 2784 897 2784 1497 
L 2784 1825 
z
" transform="scale(0.015625)"/>
      <path id="DejaVuSerif-20" transform="scale(0.015625)"/>
      <path id="DejaVuSerif-46" d="M 353 0 
L 353 331 
L 947 331 
L 947 4331 
L 353 4331 
L 353 4666 
L 4172 4666 
L 4172 3628 
L 3788 3628 
L 3788 4281 
L 1581 4281 
L 1581 2719 
L 3175 2719 
L 3175 3303 
L 3559 3303 
L 3559 1753 
L 3175 1753 
L 3175 2338 
L 1581 2338 
L 1581 331 
L 2328 331 
L 2328 0 
L 353 0 
z
" transform="scale(0.015625)"/>
      <path id="DejaVuSerif-6c" d="M 1313 331 
L 1856 331 
L 1856 0 
L 184 0 
L 184 331 
L 738 331 
L 738 4531 
L 184 4531 
L 184 4863 
L 1313 4863 
L 1313 331 
z
" transform="scale(0.015625)"/>
     </defs>
     <use xlink:href="#DejaVuSerif-49"/>
     <use xlink:href="#DejaVuSerif-72" transform="translate(39.501953 0)"/>
     <use xlink:href="#DejaVuSerif-6f" transform="translate(87.304688 0)"/>
     <use xlink:href="#DejaVuSerif-71" transform="translate(147.509766 0)"/>
     <use xlink:href="#DejaVuSerif-75" transform="translate(211.523438 0)"/>
     <use xlink:href="#DejaVuSerif-6f" transform="translate(275.927734 0)"/>
     <use xlink:href="#DejaVuSerif-69" transform="translate(336.132812 0)"/>
     <use xlink:href="#DejaVuSerif-73" transform="translate(368.115234 0)"/>
     <use xlink:href="#DejaVuSerif-20" transform="translate(419.433594 0)"/>
     <use xlink:href="#DejaVuSerif-46" transform="translate(451.220703 0)"/>
     <use xlink:href="#DejaVuSerif-61" transform="translate(513.855469 0)"/>
     <use xlink:href="#DejaVuSerif-6c" transform="translate(573.474609 0)"/>
     <use xlink:href="#DejaVuSerif-6c" transform="translate(605.457031 0)"/>
     <use xlink:href="#DejaVuSerif-73" transform="translate(637.439453 0)"/>
    </g>
   </g>
   <g id="text_17">
    <!-- Kapuskasing -->
    <g transform="translate(121.578128 17.315058) scale(0.09 -0.09)">
     <defs>
      <path id="DejaVuSerif-4b" d="M 353 0 
L 353 331 
L 947 331 
L 947 4331 
L 353 4331 
L 353 4666 
L 2175 4666 
L 2175 4331 
L 1581 4331 
L 1581 2566 
L 3591 4331 
L 3084 4331 
L 3084 4666 
L 4634 4666 
L 4634 4331 
L 4109 4331 
L 2106 2572 
L 4347 331 
L 4878 331 
L 4878 0 
L 3794 0 
L 1581 2216 
L 1581 331 
L 2175 331 
L 2175 0 
L 353 0 
z
" transform="scale(0.015625)"/>
      <path id="DejaVuSerif-70" d="M 1313 1825 
L 1313 1497 
Q 1313 897 1542 583 
Q 1772 269 2209 269 
Q 2650 269 2876 622 
Q 3103 975 3103 1663 
Q 3103 2353 2876 2703 
Q 2650 3053 2209 3053 
Q 1772 3053 1542 2737 
Q 1313 2422 1313 1825 
z
M 738 2988 
L 184 2988 
L 184 3322 
L 1313 3322 
L 1313 2803 
Q 1481 3116 1742 3264 
Q 2003 3413 2388 3413 
Q 3000 3413 3387 2928 
Q 3775 2444 3775 1663 
Q 3775 881 3387 395 
Q 3000 -91 2388 -91 
Q 2003 -91 1742 57 
Q 1481 206 1313 519 
L 1313 -997 
L 1856 -997 
L 1856 -1331 
L 184 -1331 
L 184 -997 
L 738 -997 
L 738 2988 
z
" transform="scale(0.015625)"/>
      <path id="DejaVuSerif-6b" d="M 1831 0 
L 219 0 
L 219 331 
L 738 331 
L 738 4531 
L 184 4531 
L 184 4863 
L 1313 4863 
L 1313 1697 
L 2713 2988 
L 2234 2988 
L 2234 3322 
L 3738 3322 
L 3738 2988 
L 3169 2988 
L 2181 2075 
L 3444 331 
L 3922 331 
L 3922 0 
L 2284 0 
L 2284 331 
L 2759 331 
L 1766 1697 
L 1313 1275 
L 1313 331 
L 1831 331 
L 1831 0 
z
" transform="scale(0.015625)"/>
     </defs>
     <use xlink:href="#DejaVuSerif-4b"/>
     <use xlink:href="#DejaVuSerif-61" transform="translate(74.707031 0)"/>
     <use xlink:href="#DejaVuSerif-70" transform="translate(134.326172 0)"/>
     <use xlink:href="#DejaVuSerif-75" transform="translate(198.339844 0)"/>
     <use xlink:href="#DejaVuSerif-73" transform="translate(262.744141 0)"/>
     <use xlink:href="#DejaVuSerif-6b" transform="translate(314.0625 0)"/>
     <use xlink:href="#DejaVuSerif-61" transform="translate(374.658203 0)"/>
     <use xlink:href="#DejaVuSerif-73" transform="translate(434.277344 0)"/>
     <use xlink:href="#DejaVuSerif-69" transform="translate(485.595703 0)"/>
     <use xlink:href="#DejaVuSerif-6e" transform="translate(517.578125 0)"/>
     <use xlink:href="#DejaVuSerif-67" transform="translate(581.982422 0)"/>
    </g>
   </g>
   <g id="text_18">
    <!-- Cochrane -->
    <g transform="translate(201.288396 39.435425) scale(0.09 -0.09)">
     <defs>
      <path id="DejaVuSerif-43" d="M 4513 1234 
Q 4306 581 3820 245 
Q 3334 -91 2591 -91 
Q 2134 -91 1743 65 
Q 1353 222 1050 525 
Q 700 875 529 1320 
Q 359 1766 359 2328 
Q 359 3416 987 4083 
Q 1616 4750 2644 4750 
Q 3025 4750 3456 4650 
Q 3888 4550 4384 4347 
L 4384 3272 
L 4031 3272 
Q 3916 3859 3567 4137 
Q 3219 4416 2591 4416 
Q 1844 4416 1459 3886 
Q 1075 3356 1075 2328 
Q 1075 1303 1459 773 
Q 1844 244 2591 244 
Q 3113 244 3450 492 
Q 3788 741 3938 1234 
L 4513 1234 
z
" transform="scale(0.015625)"/>
      <path id="DejaVuSerif-63" d="M 3291 997 
Q 3169 466 2822 187 
Q 2475 -91 1925 -91 
Q 1200 -91 759 389 
Q 319 869 319 1663 
Q 319 2459 759 2936 
Q 1200 3413 1925 3413 
Q 2241 3413 2553 3339 
Q 2866 3266 3181 3116 
L 3181 2266 
L 2847 2266 
Q 2781 2703 2561 2903 
Q 2341 3103 1931 3103 
Q 1466 3103 1228 2742 
Q 991 2381 991 1663 
Q 991 944 1227 581 
Q 1463 219 1931 219 
Q 2303 219 2525 412 
Q 2747 606 2828 997 
L 3291 997 
z
" transform="scale(0.015625)"/>
      <path id="DejaVuSerif-68" d="M 263 0 
L 263 331 
L 781 331 
L 781 4531 
L 231 4531 
L 231 4863 
L 1356 4863 
L 1356 2731 
Q 1516 3069 1770 3241 
Q 2025 3413 2363 3413 
Q 2913 3413 3172 3097 
Q 3431 2781 3431 2113 
L 3431 331 
L 3944 331 
L 3944 0 
L 2356 0 
L 2356 331 
L 2853 331 
L 2853 1931 
Q 2853 2541 2704 2764 
Q 2556 2988 2175 2988 
Q 1775 2988 1565 2697 
Q 1356 2406 1356 1850 
L 1356 331 
L 1856 331 
L 1856 0 
L 263 0 
z
" transform="scale(0.015625)"/>
     </defs>
     <use xlink:href="#DejaVuSerif-43"/>
     <use xlink:href="#DejaVuSerif-6f" transform="translate(76.513672 0)"/>
     <use xlink:href="#DejaVuSerif-63" transform="translate(136.71875 0)"/>
     <use xlink:href="#DejaVuSerif-68" transform="translate(192.724609 0)"/>
     <use xlink:href="#DejaVuSerif-72" transform="translate(257.128906 0)"/>
     <use xlink:href="#DejaVuSerif-61" transform="translate(304.931641 0)"/>
     <use xlink:href="#DejaVuSerif-6e" transform="translate(364.550781 0)"/>
     <use xlink:href="#DejaVuSerif-65" transform="translate(428.955078 0)"/>
    </g>
   </g>
   <g id="text_19">
    <!-- Kirkland Lake -->
    <g transform="translate(256.603531 97.331488) scale(0.09 -0.09)">
     <use xlink:href="#DejaVuSerif-4b"/>
     <use xlink:href="#DejaVuSerif-69" transform="translate(74.707031 0)"/>
     <use xlink:href="#DejaVuSerif-72" transform="translate(106.689453 0)"/>
     <use xlink:href="#DejaVuSerif-6b" transform="translate(154.492188 0)"/>
     <use xlink:href="#DejaVuSerif-6c" transform="translate(215.087891 0)"/>
     <use xlink:href="#DejaVuSerif-61" transform="translate(247.070312 0)"/>
     <use xlink:href="#DejaVuSerif-6e" transform="translate(306.689453 0)"/>
     <use xlink:href="#DejaVuSerif-64" transform="translate(371.09375 0)"/>
     <use xlink:href="#DejaVuSerif-20" transform="translate(435.107422 0)"/>
     <use xlink:href="#DejaVuSerif-4c" transform="translate(466.894531 0)"/>
     <use xlink:href="#DejaVuSerif-61" transform="translate(533.300781 0)"/>
     <use xlink:href="#DejaVuSerif-6b" transform="translate(592.919922 0)"/>
     <use xlink:href="#DejaVuSerif-65" transform="translate(653.515625 0)"/>
    </g>
   </g>
   <g id="text_20">
    <!-- NorthBay -->
    <g transform="translate(73.226603 213.787413) scale(0.09 -0.09)">
     <defs>
      <path id="DejaVuSerif-4e" d="M 313 0 
L 313 331 
L 941 331 
L 941 4331 
L 313 4331 
L 313 4666 
L 1509 4666 
L 4306 984 
L 4306 4331 
L 3681 4331 
L 3681 4666 
L 5319 4666 
L 5319 4331 
L 4691 4331 
L 4691 -91 
L 4313 -91 
L 1325 3841 
L 1325 331 
L 1953 331 
L 1953 0 
L 313 0 
z
" transform="scale(0.015625)"/>
      <path id="DejaVuSerif-42" d="M 1581 331 
L 2516 331 
Q 3078 331 3337 575 
Q 3597 819 3597 1350 
Q 3597 1878 3339 2120 
Q 3081 2363 2516 2363 
L 1581 2363 
L 1581 331 
z
M 1581 2694 
L 2375 2694 
Q 2888 2694 3123 2891 
Q 3359 3088 3359 3513 
Q 3359 3941 3123 4136 
Q 2888 4331 2375 4331 
L 1581 4331 
L 1581 2694 
z
M 353 0 
L 353 331 
L 947 331 
L 947 4331 
L 353 4331 
L 353 4666 
L 2656 4666 
Q 3363 4666 3720 4377 
Q 4078 4088 4078 3513 
Q 4078 3097 3829 2850 
Q 3581 2603 3103 2547 
Q 3697 2472 4005 2167 
Q 4313 1863 4313 1350 
Q 4313 656 3875 328 
Q 3438 0 2509 0 
L 353 0 
z
" transform="scale(0.015625)"/>
      <path id="DejaVuSerif-79" d="M 1381 -609 
L 1600 -56 
L 359 2988 
L -19 2988 
L -19 3322 
L 1509 3322 
L 1509 2988 
L 978 2988 
L 1913 703 
L 2847 2988 
L 2350 2988 
L 2350 3322 
L 3597 3322 
L 3597 2988 
L 3225 2988 
L 1703 -750 
Q 1547 -1138 1356 -1280 
Q 1166 -1422 819 -1422 
Q 672 -1422 517 -1397 
Q 363 -1372 206 -1325 
L 206 -691 
L 500 -691 
Q 519 -903 608 -995 
Q 697 -1088 884 -1088 
Q 1056 -1088 1161 -992 
Q 1266 -897 1381 -609 
z
" transform="scale(0.015625)"/>
     </defs>
     <use xlink:href="#DejaVuSerif-4e"/>
     <use xlink:href="#DejaVuSerif-6f" transform="translate(87.5 0)"/>
     <use xlink:href="#DejaVuSerif-72" transform="translate(147.705078 0)"/>
     <use xlink:href="#DejaVuSerif-74" transform="translate(195.507812 0)"/>
     <use xlink:href="#DejaVuSerif-68" transform="translate(235.693359 0)"/>
     <use xlink:href="#DejaVuSerif-42" transform="translate(300.097656 0)"/>
     <use xlink:href="#DejaVuSerif-61" transform="translate(373.583984 0)"/>
     <use xlink:href="#DejaVuSerif-79" transform="translate(433.203125 0)"/>
    </g>
   </g>
   <g id="text_21">
    <!-- 0:(277.06, 47.85) -->
    <g style="fill: #ff0000" transform="translate(101.90053 121.763552) scale(0.09 -0.09)">
     <defs>
      <path id="DejaVuSerif-Italic-30" d="M 1011 744 
Q 1147 219 1625 219 
Q 2103 219 2442 744 
Q 2781 1269 2988 2328 
Q 3194 3391 3058 3916 
Q 2922 4441 2444 4441 
Q 1966 4441 1627 3916 
Q 1288 3391 1081 2328 
Q 875 1269 1011 744 
z
M 1563 -91 
Q 803 -91 501 546 
Q 200 1184 422 2328 
Q 644 3475 1195 4112 
Q 1747 4750 2506 4750 
Q 3269 4750 3569 4112 
Q 3869 3475 3647 2328 
Q 3425 1184 2875 546 
Q 2325 -91 1563 -91 
z
" transform="scale(0.015625)"/>
      <path id="DejaVuSerif-Italic-3a" d="M 529 29 
Q 434 150 468 325 
Q 503 500 647 622 
Q 791 744 966 744 
Q 1141 744 1237 622 
Q 1334 500 1300 325 
Q 1266 150 1123 29 
Q 981 -91 803 -91 
Q 625 -91 529 29 
z
M 926 2067 
Q 828 2188 862 2363 
Q 897 2538 1040 2658 
Q 1184 2778 1359 2778 
Q 1538 2778 1633 2659 
Q 1728 2541 1693 2362 
Q 1659 2184 1518 2065 
Q 1378 1947 1200 1947 
Q 1025 1947 926 2067 
z
" transform="scale(0.015625)"/>
      <path id="DejaVuSerif-Italic-28" d="M 1472 -997 
Q 778 -656 534 83 
Q 291 822 506 1931 
Q 722 3044 1253 3783 
Q 1784 4522 2609 4863 
L 2550 4556 
Q 2006 4225 1679 3623 
Q 1353 3022 1141 1931 
Q 928 844 1020 242 
Q 1113 -359 1531 -691 
L 1472 -997 
z
" transform="scale(0.015625)"/>
      <path id="DejaVuSerif-Italic-32" d="M 1050 3553 
L 700 3553 
L 863 4384 
Q 1231 4563 1589 4656 
Q 1947 4750 2272 4750 
Q 3000 4750 3353 4397 
Q 3706 4044 3588 3438 
Q 3456 2753 2313 1800 
Q 2225 1728 2178 1691 
L 772 513 
L 2719 513 
L 2831 1088 
L 3197 1088 
L 2984 0 
L -25 0 
L 41 341 
L 1731 1753 
Q 2291 2222 2567 2614 
Q 2844 3006 2928 3438 
Q 3019 3909 2825 4175 
Q 2631 4441 2200 4441 
Q 1753 4441 1467 4219 
Q 1181 3997 1050 3553 
z
" transform="scale(0.015625)"/>
      <path id="DejaVuSerif-Italic-37" d="M 4000 4347 
L 1331 0 
L 866 0 
L 3413 4153 
L 1256 4153 
L 1144 3578 
L 778 3578 
L 991 4666 
L 4063 4666 
L 4000 4347 
z
" transform="scale(0.015625)"/>
      <path id="DejaVuSerif-Italic-2e" d="M 664 29 
Q 569 150 603 325 
Q 638 500 780 622 
Q 922 744 1100 744 
Q 1272 744 1370 622 
Q 1469 500 1434 325 
Q 1400 153 1254 31 
Q 1109 -91 938 -91 
Q 759 -91 664 29 
z
" transform="scale(0.015625)"/>
      <path id="DejaVuSerif-Italic-36" d="M 1070 553 
Q 1244 219 1684 219 
Q 2125 219 2425 542 
Q 2725 866 2842 1472 
Q 2959 2078 2786 2401 
Q 2613 2725 2172 2725 
Q 1725 2725 1429 2412 
Q 1134 2100 1019 1509 
Q 897 888 1070 553 
z
M 1122 2569 
Q 1378 2803 1670 2918 
Q 1963 3034 2300 3034 
Q 2997 3034 3320 2615 
Q 3644 2197 3503 1472 
Q 3366 763 2845 336 
Q 2325 -91 1597 -91 
Q 806 -91 497 498 
Q 188 1088 400 2181 
Q 638 3406 1272 4078 
Q 1906 4750 2822 4750 
Q 3069 4750 3331 4703 
Q 3594 4656 3859 4563 
L 3709 3794 
L 3356 3794 
Q 3381 4109 3209 4275 
Q 3038 4441 2694 4441 
Q 2088 4441 1702 3981 
Q 1316 3522 1122 2569 
z
" transform="scale(0.015625)"/>
      <path id="DejaVuSerif-Italic-2c" d="M 125 -622 
Q 463 -406 656 -114 
Q 850 178 931 594 
L 953 709 
L 1569 709 
Q 1441 175 1139 -208 
Q 838 -591 328 -872 
L 125 -622 
z
" transform="scale(0.015625)"/>
      <path id="DejaVuSerif-Italic-20" transform="scale(0.015625)"/>
      <path id="DejaVuSerif-Italic-34" d="M 2084 1581 
L 2566 4063 
L 491 1581 
L 2084 1581 
z
M 3150 0 
L 1025 0 
L 1091 331 
L 1841 331 
L 2019 1247 
L -19 1247 
L 47 1588 
L 2706 4750 
L 3325 4750 
L 2709 1581 
L 3600 1581 
L 3534 1247 
L 2644 1247 
L 2466 331 
L 3216 331 
L 3150 0 
z
" transform="scale(0.015625)"/>
      <path id="DejaVuSerif-Italic-38" d="M 2775 1275 
Q 2872 1775 2678 2051 
Q 2484 2328 2034 2328 
Q 1584 2328 1281 2051 
Q 978 1775 881 1275 
Q 784 772 979 495 
Q 1175 219 1625 219 
Q 2075 219 2376 495 
Q 2678 772 2775 1275 
z
M 3088 3541 
Q 3172 3966 3001 4203 
Q 2831 4441 2444 4441 
Q 2059 4441 1796 4203 
Q 1534 3966 1450 3541 
Q 1369 3113 1539 2875 
Q 1709 2638 2094 2638 
Q 2481 2638 2743 2875 
Q 3006 3113 3088 3541 
z
M 2547 2484 
Q 3063 2413 3297 2092 
Q 3531 1772 3434 1275 
Q 3309 619 2823 264 
Q 2338 -91 1563 -91 
Q 791 -91 444 264 
Q 97 619 222 1275 
Q 319 1772 678 2092 
Q 1038 2413 1588 2484 
Q 1131 2569 932 2842 
Q 734 3116 816 3541 
Q 925 4103 1376 4426 
Q 1828 4750 2506 4750 
Q 3184 4750 3507 4426 
Q 3831 4103 3722 3541 
Q 3641 3116 3336 2842 
Q 3031 2569 2547 2484 
z
" transform="scale(0.015625)"/>
      <path id="DejaVuSerif-Italic-35" d="M 3681 4666 
L 3581 4153 
L 1444 4153 
L 1184 2816 
Q 1369 2928 1597 2984 
Q 1825 3041 2094 3041 
Q 2850 3041 3206 2622 
Q 3563 2203 3422 1478 
Q 3278 738 2754 323 
Q 2231 -91 1431 -91 
Q 1109 -91 787 -12 
Q 466 66 144 225 
L 319 1131 
L 672 1131 
Q 613 688 822 453 
Q 1031 219 1491 219 
Q 1984 219 2314 544 
Q 2644 869 2763 1478 
Q 2878 2084 2678 2407 
Q 2478 2731 1981 2731 
Q 1700 2731 1465 2631 
Q 1231 2531 1025 2322 
L 756 2322 
L 1213 4666 
L 3681 4666 
z
" transform="scale(0.015625)"/>
      <path id="DejaVuSerif-Italic-29" d="M -113 -997 
L -53 -691 
Q 491 -359 819 242 
Q 1147 844 1359 1931 
Q 1572 3022 1478 3623 
Q 1384 4225 966 4556 
L 1025 4863 
Q 1722 4522 1965 3783 
Q 2209 3044 1994 1931 
Q 1778 822 1247 83 
Q 716 -656 -113 -997 
z
" transform="scale(0.015625)"/>
     </defs>
     <use xlink:href="#DejaVuSerif-Italic-30"/>
     <use xlink:href="#DejaVuSerif-Italic-3a" transform="translate(63.623047 0)"/>
     <use xlink:href="#DejaVuSerif-Italic-28" transform="translate(97.314453 0)"/>
     <use xlink:href="#DejaVuSerif-Italic-32" transform="translate(136.328125 0)"/>
     <use xlink:href="#DejaVuSerif-Italic-37" transform="translate(199.951172 0)"/>
     <use xlink:href="#DejaVuSerif-Italic-37" transform="translate(263.574219 0)"/>
     <use xlink:href="#DejaVuSerif-Italic-2e" transform="translate(327.197266 0)"/>
     <use xlink:href="#DejaVuSerif-Italic-30" transform="translate(358.984375 0)"/>
     <use xlink:href="#DejaVuSerif-Italic-36" transform="translate(422.607422 0)"/>
     <use xlink:href="#DejaVuSerif-Italic-2c" transform="translate(486.230469 0)"/>
     <use xlink:href="#DejaVuSerif-Italic-20" transform="translate(518.017578 0)"/>
     <use xlink:href="#DejaVuSerif-Italic-34" transform="translate(549.804688 0)"/>
     <use xlink:href="#DejaVuSerif-Italic-37" transform="translate(613.427734 0)"/>
     <use xlink:href="#DejaVuSerif-Italic-2e" transform="translate(677.050781 0)"/>
     <use xlink:href="#DejaVuSerif-Italic-38" transform="translate(708.837891 0)"/>
     <use xlink:href="#DejaVuSerif-Italic-35" transform="translate(772.460938 0)"/>
     <use xlink:href="#DejaVuSerif-Italic-29" transform="translate(836.083984 0)"/>
    </g>
   </g>
   <g id="text_22">
    <!-- 1:(277.85, 47.60) -->
    <g style="fill: #ff0000" transform="translate(146.460881 137.566749) scale(0.09 -0.09)">
     <defs>
      <path id="DejaVuSerif-Italic-31" d="M 447 0 
L 513 331 
L 1325 331 
L 2078 4213 
L 1019 3603 
L 1100 4013 
L 2381 4750 
L 2813 4750 
L 1953 331 
L 2766 331 
L 2700 0 
L 447 0 
z
" transform="scale(0.015625)"/>
     </defs>
     <use xlink:href="#DejaVuSerif-Italic-31"/>
     <use xlink:href="#DejaVuSerif-Italic-3a" transform="translate(63.623047 0)"/>
     <use xlink:href="#DejaVuSerif-Italic-28" transform="translate(97.314453 0)"/>
     <use xlink:href="#DejaVuSerif-Italic-32" transform="translate(136.328125 0)"/>
     <use xlink:href="#DejaVuSerif-Italic-37" transform="translate(199.951172 0)"/>
     <use xlink:href="#DejaVuSerif-Italic-37" transform="translate(263.574219 0)"/>
     <use xlink:href="#DejaVuSerif-Italic-2e" transform="translate(327.197266 0)"/>
     <use xlink:href="#DejaVuSerif-Italic-38" transform="translate(358.984375 0)"/>
     <use xlink:href="#DejaVuSerif-Italic-35" transform="translate(422.607422 0)"/>
     <use xlink:href="#DejaVuSerif-Italic-2c" transform="translate(486.230469 0)"/>
     <use xlink:href="#DejaVuSerif-Italic-20" transform="translate(518.017578 0)"/>
     <use xlink:href="#DejaVuSerif-Italic-34" transform="translate(549.804688 0)"/>
     <use xlink:href="#DejaVuSerif-Italic-37" transform="translate(613.427734 0)"/>
     <use xlink:href="#DejaVuSerif-Italic-2e" transform="translate(677.050781 0)"/>
     <use xlink:href="#DejaVuSerif-Italic-36" transform="translate(708.837891 0)"/>
     <use xlink:href="#DejaVuSerif-Italic-30" transform="translate(772.460938 0)"/>
     <use xlink:href="#DejaVuSerif-Italic-29" transform="translate(836.083984 0)"/>
    </g>
   </g>
   <g id="text_23">
    <!-- 2:(278.26, 47.21) -->
    <g style="fill: #ff0000" transform="translate(169.413231 161.771766) scale(0.09 -0.09)">
     <use xlink:href="#DejaVuSerif-Italic-32"/>
     <use xlink:href="#DejaVuSerif-Italic-3a" transform="translate(63.623047 0)"/>
     <use xlink:href="#DejaVuSerif-Italic-28" transform="translate(97.314453 0)"/>
     <use xlink:href="#DejaVuSerif-Italic-32" transform="translate(136.328125 0)"/>
     <use xlink:href="#DejaVuSerif-Italic-37" transform="translate(199.951172 0)"/>
     <use xlink:href="#DejaVuSerif-Italic-38" transform="translate(263.574219 0)"/>
     <use xlink:href="#DejaVuSerif-Italic-2e" transform="translate(327.197266 0)"/>
     <use xlink:href="#DejaVuSerif-Italic-32" transform="translate(358.984375 0)"/>
     <use xlink:href="#DejaVuSerif-Italic-36" transform="translate(422.607422 0)"/>
     <use xlink:href="#DejaVuSerif-Italic-2c" transform="translate(486.230469 0)"/>
     <use xlink:href="#DejaVuSerif-Italic-20" transform="translate(518.017578 0)"/>
     <use xlink:href="#DejaVuSerif-Italic-34" transform="translate(549.804688 0)"/>
     <use xlink:href="#DejaVuSerif-Italic-37" transform="translate(613.427734 0)"/>
     <use xlink:href="#DejaVuSerif-Italic-2e" transform="translate(677.050781 0)"/>
     <use xlink:href="#DejaVuSerif-Italic-32" transform="translate(708.837891 0)"/>
     <use xlink:href="#DejaVuSerif-Italic-31" transform="translate(772.460938 0)"/>
     <use xlink:href="#DejaVuSerif-Italic-29" transform="translate(836.083984 0)"/>
    </g>
   </g>
   <g id="text_24">
    <!-- 3:(277.61, 47.38) -->
    <g style="fill: #ff0000" transform="translate(132.910529 151.511305) scale(0.09 -0.09)">
     <defs>
      <path id="DejaVuSerif-Italic-33" d="M 1038 4469 
Q 1431 4606 1781 4678 
Q 2131 4750 2425 4750 
Q 3109 4750 3436 4454 
Q 3763 4159 3659 3634 
Q 3578 3213 3258 2930 
Q 2938 2647 2431 2547 
Q 2988 2466 3241 2130 
Q 3494 1794 3388 1259 
Q 3263 606 2755 257 
Q 2247 -91 1422 -91 
Q 1056 -91 723 -12 
Q 391 66 78 225 
L 253 1131 
L 603 1131 
Q 547 681 775 450 
Q 1003 219 1497 219 
Q 1975 219 2304 495 
Q 2634 772 2728 1253 
Q 2834 1803 2604 2086 
Q 2375 2369 1825 2369 
L 1528 2369 
L 1591 2688 
L 1747 2688 
Q 2294 2688 2611 2914 
Q 2928 3141 3019 3597 
Q 3097 4006 2914 4223 
Q 2731 4441 2309 4441 
Q 1888 4441 1616 4241 
Q 1344 4041 1228 3647 
L 878 3647 
L 1038 4469 
z
" transform="scale(0.015625)"/>
     </defs>
     <use xlink:href="#DejaVuSerif-Italic-33"/>
     <use xlink:href="#DejaVuSerif-Italic-3a" transform="translate(63.623047 0)"/>
     <use xlink:href="#DejaVuSerif-Italic-28" transform="translate(97.314453 0)"/>
     <use xlink:href="#DejaVuSerif-Italic-32" transform="translate(136.328125 0)"/>
     <use xlink:href="#DejaVuSerif-Italic-37" transform="translate(199.951172 0)"/>
     <use xlink:href="#DejaVuSerif-Italic-37" transform="translate(263.574219 0)"/>
     <use xlink:href="#DejaVuSerif-Italic-2e" transform="translate(327.197266 0)"/>
     <use xlink:href="#DejaVuSerif-Italic-36" transform="translate(358.984375 0)"/>
     <use xlink:href="#DejaVuSerif-Italic-31" transform="translate(422.607422 0)"/>
     <use xlink:href="#DejaVuSerif-Italic-2c" transform="translate(486.230469 0)"/>
     <use xlink:href="#DejaVuSerif-Italic-20" transform="translate(518.017578 0)"/>
     <use xlink:href="#DejaVuSerif-Italic-34" transform="translate(549.804688 0)"/>
     <use xlink:href="#DejaVuSerif-Italic-37" transform="translate(613.427734 0)"/>
     <use xlink:href="#DejaVuSerif-Italic-2e" transform="translate(677.050781 0)"/>
     <use xlink:href="#DejaVuSerif-Italic-33" transform="translate(708.837891 0)"/>
     <use xlink:href="#DejaVuSerif-Italic-38" transform="translate(772.460938 0)"/>
     <use xlink:href="#DejaVuSerif-Italic-29" transform="translate(836.083984 0)"/>
    </g>
   </g>
   <g id="text_25">
    <!-- 4:(278.69, 48.77) -->
    <g style="fill: #ff0000" transform="translate(193.588994 63.535589) scale(0.09 -0.09)">
     <defs>
      <path id="DejaVuSerif-Italic-39" d="M 2947 2091 
Q 2694 1856 2398 1740 
Q 2103 1625 1763 1625 
Q 1069 1625 748 2044 
Q 428 2463 569 3188 
Q 706 3897 1226 4323 
Q 1747 4750 2475 4750 
Q 3266 4750 3573 4161 
Q 3881 3572 3669 2478 
Q 3431 1253 2797 581 
Q 2163 -91 1250 -91 
Q 1003 -91 740 -44 
Q 478 3 213 97 
L 363 872 
L 713 872 
Q 694 556 864 387 
Q 1034 219 1375 219 
Q 1981 219 2367 676 
Q 2753 1134 2947 2091 
z
M 2388 4441 
Q 1944 4441 1645 4117 
Q 1347 3794 1230 3187 
Q 1113 2581 1284 2256 
Q 1456 1931 1900 1931 
Q 2344 1931 2641 2245 
Q 2938 2559 3053 3150 
Q 3175 3772 3001 4106 
Q 2828 4441 2388 4441 
z
" transform="scale(0.015625)"/>
     </defs>
     <use xlink:href="#DejaVuSerif-Italic-34"/>
     <use xlink:href="#DejaVuSerif-Italic-3a" transform="translate(63.623047 0)"/>
     <use xlink:href="#DejaVuSerif-Italic-28" transform="translate(97.314453 0)"/>
     <use xlink:href="#DejaVuSerif-Italic-32" transform="translate(136.328125 0)"/>
     <use xlink:href="#DejaVuSerif-Italic-37" transform="translate(199.951172 0)"/>
     <use xlink:href="#DejaVuSerif-Italic-38" transform="translate(263.574219 0)"/>
     <use xlink:href="#DejaVuSerif-Italic-2e" transform="translate(327.197266 0)"/>
     <use xlink:href="#DejaVuSerif-Italic-36" transform="translate(358.984375 0)"/>
     <use xlink:href="#DejaVuSerif-Italic-39" transform="translate(422.607422 0)"/>
     <use xlink:href="#DejaVuSerif-Italic-2c" transform="translate(486.230469 0)"/>
     <use xlink:href="#DejaVuSerif-Italic-20" transform="translate(518.017578 0)"/>
     <use xlink:href="#DejaVuSerif-Italic-34" transform="translate(549.804688 0)"/>
     <use xlink:href="#DejaVuSerif-Italic-38" transform="translate(613.427734 0)"/>
     <use xlink:href="#DejaVuSerif-Italic-2e" transform="translate(677.050781 0)"/>
     <use xlink:href="#DejaVuSerif-Italic-37" transform="translate(708.837891 0)"/>
     <use xlink:href="#DejaVuSerif-Italic-37" transform="translate(772.460938 0)"/>
     <use xlink:href="#DejaVuSerif-Italic-29" transform="translate(836.083984 0)"/>
    </g>
   </g>
   <g id="text_26">
    <!-- 5:(278.04, 48.93) -->
    <g style="fill: #ff0000" transform="translate(157.086292 53.275127) scale(0.09 -0.09)">
     <use xlink:href="#DejaVuSerif-Italic-35"/>
     <use xlink:href="#DejaVuSerif-Italic-3a" transform="translate(63.623047 0)"/>
     <use xlink:href="#DejaVuSerif-Italic-28" transform="translate(97.314453 0)"/>
     <use xlink:href="#DejaVuSerif-Italic-32" transform="translate(136.328125 0)"/>
     <use xlink:href="#DejaVuSerif-Italic-37" transform="translate(199.951172 0)"/>
     <use xlink:href="#DejaVuSerif-Italic-38" transform="translate(263.574219 0)"/>
     <use xlink:href="#DejaVuSerif-Italic-2e" transform="translate(327.197266 0)"/>
     <use xlink:href="#DejaVuSerif-Italic-30" transform="translate(358.984375 0)"/>
     <use xlink:href="#DejaVuSerif-Italic-34" transform="translate(422.607422 0)"/>
     <use xlink:href="#DejaVuSerif-Italic-2c" transform="translate(486.230469 0)"/>
     <use xlink:href="#DejaVuSerif-Italic-20" transform="translate(518.017578 0)"/>
     <use xlink:href="#DejaVuSerif-Italic-34" transform="translate(549.804688 0)"/>
     <use xlink:href="#DejaVuSerif-Italic-38" transform="translate(613.427734 0)"/>
     <use xlink:href="#DejaVuSerif-Italic-2e" transform="translate(677.050781 0)"/>
     <use xlink:href="#DejaVuSerif-Italic-39" transform="translate(708.837891 0)"/>
     <use xlink:href="#DejaVuSerif-Italic-33" transform="translate(772.460938 0)"/>
     <use xlink:href="#DejaVuSerif-Italic-29" transform="translate(836.083984 0)"/>
    </g>
   </g>
   <g id="text_27">
    <!-- 6:(278.28, 49.15) -->
    <g style="fill: #ff0000" transform="translate(170.636644 39.330571) scale(0.09 -0.09)">
     <use xlink:href="#DejaVuSerif-Italic-36"/>
     <use xlink:href="#DejaVuSerif-Italic-3a" transform="translate(63.623047 0)"/>
     <use xlink:href="#DejaVuSerif-Italic-28" transform="translate(97.314453 0)"/>
     <use xlink:href="#DejaVuSerif-Italic-32" transform="translate(136.328125 0)"/>
     <use xlink:href="#DejaVuSerif-Italic-37" transform="translate(199.951172 0)"/>
     <use xlink:href="#DejaVuSerif-Italic-38" transform="translate(263.574219 0)"/>
     <use xlink:href="#DejaVuSerif-Italic-2e" transform="translate(327.197266 0)"/>
     <use xlink:href="#DejaVuSerif-Italic-32" transform="translate(358.984375 0)"/>
     <use xlink:href="#DejaVuSerif-Italic-38" transform="translate(422.607422 0)"/>
     <use xlink:href="#DejaVuSerif-Italic-2c" transform="translate(486.230469 0)"/>
     <use xlink:href="#DejaVuSerif-Italic-20" transform="translate(518.017578 0)"/>
     <use xlink:href="#DejaVuSerif-Italic-34" transform="translate(549.804688 0)"/>
     <use xlink:href="#DejaVuSerif-Italic-39" transform="translate(613.427734 0)"/>
     <use xlink:href="#DejaVuSerif-Italic-2e" transform="translate(677.050781 0)"/>
     <use xlink:href="#DejaVuSerif-Italic-31" transform="translate(708.837891 0)"/>
     <use xlink:href="#DejaVuSerif-Italic-35" transform="translate(772.460938 0)"/>
     <use xlink:href="#DejaVuSerif-Italic-29" transform="translate(836.083984 0)"/>
    </g>
   </g>
   <g id="text_28">
    <!-- 7:(279.48, 48.52) -->
    <g style="fill: #ff0000" transform="translate(238.149345 79.338786) scale(0.09 -0.09)">
     <use xlink:href="#DejaVuSerif-Italic-37"/>
     <use xlink:href="#DejaVuSerif-Italic-3a" transform="translate(63.623047 0)"/>
     <use xlink:href="#DejaVuSerif-Italic-28" transform="translate(97.314453 0)"/>
     <use xlink:href="#DejaVuSerif-Italic-32" transform="translate(136.328125 0)"/>
     <use xlink:href="#DejaVuSerif-Italic-37" transform="translate(199.951172 0)"/>
     <use xlink:href="#DejaVuSerif-Italic-39" transform="translate(263.574219 0)"/>
     <use xlink:href="#DejaVuSerif-Italic-2e" transform="translate(327.197266 0)"/>
     <use xlink:href="#DejaVuSerif-Italic-34" transform="translate(358.984375 0)"/>
     <use xlink:href="#DejaVuSerif-Italic-38" transform="translate(422.607422 0)"/>
     <use xlink:href="#DejaVuSerif-Italic-2c" transform="translate(486.230469 0)"/>
     <use xlink:href="#DejaVuSerif-Italic-20" transform="translate(518.017578 0)"/>
     <use xlink:href="#DejaVuSerif-Italic-34" transform="translate(549.804688 0)"/>
     <use xlink:href="#DejaVuSerif-Italic-38" transform="translate(613.427734 0)"/>
     <use xlink:href="#DejaVuSerif-Italic-2e" transform="translate(677.050781 0)"/>
     <use xlink:href="#DejaVuSerif-Italic-35" transform="translate(708.837891 0)"/>
     <use xlink:href="#DejaVuSerif-Italic-32" transform="translate(772.460938 0)"/>
     <use xlink:href="#DejaVuSerif-Italic-29" transform="translate(836.083984 0)"/>
    </g>
   </g>
   <g id="PathCollection_1">
    <defs>
     <path id="m72fff66765" d="M 0 -4.472136 
L -4.472136 4.472136 
L 4.472136 4.472136 
z
" style="stroke: #87ceeb"/>
    </defs>
    <g clip-path="url(#pef33100306)">
     <use xlink:href="#m72fff66765" x="181.348173" y="79.339328" style="fill: #87ceeb; stroke: #87ceeb"/>
    </g>
   </g>
   <g id="PathCollection_2">
    <g clip-path="url(#pef33100306)">
     <use xlink:href="#m72fff66765" x="217.859312" y="60.936245" style="fill: #87ceeb; stroke: #87ceeb"/>
    </g>
   </g>
   <g id="PathCollection_3">
    <g clip-path="url(#pef33100306)">
     <use xlink:href="#m72fff66765" x="119.328173" y="19.843822" style="fill: #87ceeb; stroke: #87ceeb"/>
    </g>
   </g>
   <g id="PathCollection_4">
    <g clip-path="url(#pef33100306)">
     <use xlink:href="#m72fff66765" x="199.038441" y="41.96419" style="fill: #87ceeb; stroke: #87ceeb"/>
    </g>
   </g>
   <g id="PathCollection_5">
    <g clip-path="url(#pef33100306)">
     <use xlink:href="#m72fff66765" x="254.353576" y="99.860252" style="fill: #87ceeb; stroke: #87ceeb"/>
    </g>
   </g>
   <g id="PathCollection_6">
    <g clip-path="url(#pef33100306)">
     <use xlink:href="#m72fff66765" x="70.976648" y="216.316178" style="fill: #87ceeb; stroke: #87ceeb"/>
    </g>
   </g>
   <g id="legend_1">
    <g id="patch_8">
     <path d="M 270.889531 48.291875 
L 331.026875 48.291875 
Q 333.226875 48.291875 333.226875 46.091875 
L 333.226875 14.9 
Q 333.226875 12.7 331.026875 12.7 
L 270.889531 12.7 
Q 268.689531 12.7 268.689531 14.9 
L 268.689531 46.091875 
Q 268.689531 48.291875 270.889531 48.291875 
z
" style="fill: #ffffff; opacity: 0.8; stroke: #cccccc; stroke-linejoin: miter"/>
    </g>
    <g id="line2d_33">
     <defs>
      <path id="m88e41ef63f" d="M 0 -3 
L -3 3 
L 3 3 
z
" style="stroke: #87ceeb; stroke-linejoin: miter"/>
     </defs>
     <g>
      <use xlink:href="#m88e41ef63f" x="284.089531" y="21.608281" style="fill: #87ceeb; stroke: #87ceeb; stroke-linejoin: miter"/>
     </g>
    </g>
    <g id="text_29">
     <!-- GS -->
     <g transform="translate(303.889531 25.458281) scale(0.11 -0.11)">
      <defs>
       <path id="DejaVuSerif-47" d="M 4097 3272 
Q 3988 3856 3641 4136 
Q 3294 4416 2675 4416 
Q 1869 4416 1472 3897 
Q 1075 3378 1075 2328 
Q 1075 1300 1484 772 
Q 1894 244 2688 244 
Q 3041 244 3362 331 
Q 3684 419 3975 594 
L 3975 1797 
L 3097 1797 
L 3097 2131 
L 4609 2131 
L 4609 391 
Q 4194 150 3714 29 
Q 3234 -91 2688 -91 
Q 1631 -91 995 570 
Q 359 1231 359 2328 
Q 359 3434 996 4092 
Q 1634 4750 2713 4750 
Q 3113 4750 3539 4658 
Q 3966 4566 4447 4378 
L 4447 3272 
L 4097 3272 
z
" transform="scale(0.015625)"/>
       <path id="DejaVuSerif-53" d="M 594 225 
L 594 1288 
L 953 1284 
Q 969 753 1261 498 
Q 1553 244 2150 244 
Q 2706 244 2998 464 
Q 3291 684 3291 1106 
Q 3291 1444 3114 1625 
Q 2938 1806 2369 1978 
L 1753 2163 
Q 1084 2366 811 2669 
Q 538 2972 538 3500 
Q 538 4094 959 4422 
Q 1381 4750 2144 4750 
Q 2469 4750 2856 4679 
Q 3244 4609 3681 4475 
L 3681 3481 
L 3328 3481 
Q 3275 3975 2998 4195 
Q 2722 4416 2156 4416 
Q 1663 4416 1405 4214 
Q 1147 4013 1147 3628 
Q 1147 3294 1340 3103 
Q 1534 2913 2163 2725 
L 2741 2553 
Q 3375 2363 3645 2067 
Q 3916 1772 3916 1275 
Q 3916 597 3481 253 
Q 3047 -91 2188 -91 
Q 1803 -91 1404 -12 
Q 1006 66 594 225 
z
" transform="scale(0.015625)"/>
      </defs>
      <use xlink:href="#DejaVuSerif-47"/>
      <use xlink:href="#DejaVuSerif-53" transform="translate(79.882812 0)"/>
     </g>
    </g>
    <g id="line2d_34">
     <defs>
      <path id="m4c1ead97f8" d="M 0 3 
C 0.795609 3 1.55874 2.683901 2.12132 2.12132 
C 2.683901 1.55874 3 0.795609 3 0 
C 3 -0.795609 2.683901 -1.55874 2.12132 -2.12132 
C 1.55874 -2.683901 0.795609 -3 0 -3 
C -0.795609 -3 -1.55874 -2.683901 -2.12132 -2.12132 
C -2.683901 -1.55874 -3 -0.795609 -3 0 
C -3 0.795609 -2.683901 1.55874 -2.12132 2.12132 
C -1.55874 2.683901 -0.795609 3 0 3 
z
" style="stroke: #ff0000"/>
     </defs>
     <g>
      <use xlink:href="#m4c1ead97f8" x="284.089531" y="37.754219" style="fill: #ff0000; stroke: #ff0000"/>
     </g>
    </g>
    <g id="text_30">
     <!-- HAP -->
     <g transform="translate(303.889531 41.604219) scale(0.11 -0.11)">
      <defs>
       <path id="DejaVuSerif-48" d="M 353 0 
L 353 331 
L 947 331 
L 947 4331 
L 353 4331 
L 353 4666 
L 2175 4666 
L 2175 4331 
L 1581 4331 
L 1581 2719 
L 4000 2719 
L 4000 4331 
L 3406 4331 
L 3406 4666 
L 5228 4666 
L 5228 4331 
L 4634 4331 
L 4634 331 
L 5228 331 
L 5228 0 
L 3406 0 
L 3406 331 
L 4000 331 
L 4000 2338 
L 1581 2338 
L 1581 331 
L 2175 331 
L 2175 0 
L 353 0 
z
" transform="scale(0.015625)"/>
       <path id="DejaVuSerif-41" d="M 1281 1691 
L 2994 1691 
L 2138 3909 
L 1281 1691 
z
M -38 0 
L -38 331 
L 372 331 
L 2034 4666 
L 2559 4666 
L 4225 331 
L 4684 331 
L 4684 0 
L 2988 0 
L 2988 331 
L 3506 331 
L 3116 1356 
L 1153 1356 
L 763 331 
L 1275 331 
L 1275 0 
L -38 0 
z
" transform="scale(0.015625)"/>
       <path id="DejaVuSerif-50" d="M 1581 2375 
L 2406 2375 
Q 2872 2375 3115 2626 
Q 3359 2878 3359 3353 
Q 3359 3831 3115 4081 
Q 2872 4331 2406 4331 
L 1581 4331 
L 1581 2375 
z
M 353 0 
L 353 331 
L 947 331 
L 947 4331 
L 353 4331 
L 353 4666 
L 2559 4666 
Q 3259 4666 3668 4311 
Q 4078 3956 4078 3353 
Q 4078 2753 3668 2397 
Q 3259 2041 2559 2041 
L 1581 2041 
L 1581 331 
L 2303 331 
L 2303 0 
L 353 0 
z
" transform="scale(0.015625)"/>
      </defs>
      <use xlink:href="#DejaVuSerif-48"/>
      <use xlink:href="#DejaVuSerif-41" transform="translate(87.207031 0)"/>
      <use xlink:href="#DejaVuSerif-50" transform="translate(159.423828 0)"/>
     </g>
    </g>
   </g>
   <g id="PathCollection_7">
    <defs>
     <path id="mfeae9d7408" d="M 0 1.118034 
C 0.296506 1.118034 0.580908 1.000231 0.790569 0.790569 
C 1.000231 0.580908 1.118034 0.296506 1.118034 0 
C 1.118034 -0.296506 1.000231 -0.580908 0.790569 -0.790569 
C 0.580908 -1.000231 0.296506 -1.118034 0 -1.118034 
C -0.296506 -1.118034 -0.580908 -1.000231 -0.790569 -0.790569 
C -1.000231 -0.580908 -1.118034 -0.296506 -1.118034 0 
C -1.118034 0.296506 -1.000231 0.580908 -0.790569 0.790569 
C -0.580908 1.000231 -0.296506 1.118034 0 1.118034 
z
" style="stroke: #ff0000"/>
    </defs>
    <g clip-path="url(#pef33100306)">
     <use xlink:href="#mfeae9d7408" x="90.606141" y="119.125151" style="fill: #ff0000; stroke: #ff0000"/>
    </g>
   </g>
   <g id="PathCollection_8">
    <g clip-path="url(#pef33100306)">
     <use xlink:href="#mfeae9d7408" x="135.166493" y="134.928349" style="fill: #ff0000; stroke: #ff0000"/>
    </g>
   </g>
   <g id="PathCollection_9">
    <g clip-path="url(#pef33100306)">
     <use xlink:href="#mfeae9d7408" x="158.118843" y="159.133366" style="fill: #ff0000; stroke: #ff0000"/>
    </g>
   </g>
   <g id="PathCollection_10">
    <g clip-path="url(#pef33100306)">
     <use xlink:href="#mfeae9d7408" x="121.616141" y="148.872904" style="fill: #ff0000; stroke: #ff0000"/>
    </g>
   </g>
   <g id="PathCollection_11">
    <g clip-path="url(#pef33100306)">
     <use xlink:href="#mfeae9d7408" x="182.294605" y="60.897189" style="fill: #ff0000; stroke: #ff0000"/>
    </g>
   </g>
   <g id="PathCollection_12">
    <g clip-path="url(#pef33100306)">
     <use xlink:href="#mfeae9d7408" x="145.791904" y="50.636727" style="fill: #ff0000; stroke: #ff0000"/>
    </g>
   </g>
   <g id="PathCollection_13">
    <g clip-path="url(#pef33100306)">
     <use xlink:href="#mfeae9d7408" x="159.342255" y="36.692171" style="fill: #ff0000; stroke: #ff0000"/>
    </g>
   </g>
   <g id="PathCollection_14">
    <g clip-path="url(#pef33100306)">
     <use xlink:href="#mfeae9d7408" x="226.854957" y="76.700386" style="fill: #ff0000; stroke: #ff0000"/>
    </g>
   </g>
  </g>
  <g id="axes_2">
   <g id="patch_9">
    <path d="M 256.976875 216.96 
L 326.726875 216.96 
L 326.726875 161.52 
L 256.976875 161.52 
z
" style="fill: #ffffff"/>
   </g>
   <g id="patch_10">
    <path d="M 256.976875 161.52 
L 82.259225 107.223156 
" style="fill: none; stroke: #808080; stroke-linejoin: miter"/>
   </g>
   <g id="patch_11">
    <path d="M 326.726875 216.96 
L 126.087542 124.0568 
" style="fill: none; stroke: #808080; stroke-linejoin: miter"/>
   </g>
   <g id="matplotlib.axis_3"/>
   <g id="matplotlib.axis_4"/>
   <g id="line2d_35">
    <path d="M 270.260465 200.718087 
L 270.021659 196.890927 
L 269.387709 194.703084 
L 268.615292 193.326142 
L 267.843307 191.997703 
L 267.073965 190.794343 
L 266.135499 190.266614 
L 265.183362 189.80326 
L 264.198208 189.480238 
L 261.479431 190.039172 
L 259.662371 191.843359 
L 259.899661 194.299275 
L 261.526458 197.128849 
L 263.688545 199.351698 
L 265.874693 201.361881 
L 268.02509 203.289325 
L 269.445885 204.818641 
L 270.390603 204.73545 
L 270.717625 203.977591 
L 270.807641 203.084968 
L 270.868532 202.166173 
L 271.548643 201.414014 
L 272.25244 200.578974 
L 272.939553 199.708681 
L 273.615873 198.824263 
L 274.886947 198.062403 
L 275.384306 196.804552 
L 275.510656 196.048966 
L 275.573943 195.407761 
L 275.666712 194.835315 
L 275.789376 194.33022 
L 275.922266 193.843047 
L 276.060486 193.363887 
L 276.45742 194.325689 
L 276.899975 195.559826 
L 277.197673 196.690125 
L 277.28145 197.602492 
L 277.242601 198.505108 
L 277.145292 199.413387 
L 277.031235 200.325069 
L 276.90837 201.239575 
L 276.504777 201.294152 
L 276.037614 201.135679 
L 275.561492 200.941897 
L 275.081556 200.72934 
L 274.929888 201.628584 
L 274.830793 203.388868 
L 274.737712 204.571888 
L 274.654358 205.186867 
L 274.76682 203.060908 
L 274.899215 201.082392 
L 275.001024 199.919199 
L 275.031465 200.265655 
L 273.665463 201.228169 
L 272.146568 203.844459 
L 270.66484 207.127099 
L 269.12703 210.469126 
L 267.430225 210.429352 
L 265.706411 210.027441 
L 264.117862 209.820544 
L 263.412294 210.713817 
L 263.486687 208.934214 
L 263.939751 207.690117 
L 264.445627 206.553521 
L 265.000033 205.516601 
L 266.031792 205.525872 
L 267.188853 205.834887 
L 268.537353 206.856321 
L 269.910882 207.992535 
L 271.103945 208.188078 
L 272.200486 207.732565 
L 273.196072 206.411108 
L 274.156482 204.677292 
L 275.015489 203.367603 
L 275.990878 205.434187 
L 277.168555 207.671535 
L 278.252015 209.831863 
L 279.613961 207.569947 
L 281.185691 204.559216 
L 282.793893 201.47601 
L 284.426626 198.36344 
L 286.819857 194.375947 
L 289.377606 190.211341 
L 291.990092 185.996895 
L 294.687696 181.734117 
L 298.748637 178.509433 
L 302.951677 176.139616 
L 307.052962 174.486101 
L 310.946892 172.999535 
L 314.127742 172.532503 
L 317.074532 172.079246 
L 319.622313 171.892768 
L 321.740069 171.873167 
L 322.647941 170.651278 
L 323.371222 169.233496 
L 324.041379 167.766183 
" clip-path="url(#p4ea899f52d)" style="fill: none; stroke: #ff0000; stroke-width: 1.1; stroke-linecap: square"/>
   </g>
   <g id="patch_12">
    <path d="M 256.976875 216.96 
L 256.976875 161.52 
" style="fill: none; stroke: #000000; stroke-width: 0.8; stroke-linejoin: miter; stroke-linecap: square"/>
   </g>
   <g id="patch_13">
    <path d="M 326.726875 216.96 
L 326.726875 161.52 
" style="fill: none; stroke: #000000; stroke-width: 0.8; stroke-linejoin: miter; stroke-linecap: square"/>
   </g>
   <g id="patch_14">
    <path d="M 256.976875 216.96 
L 326.726875 216.96 
" style="fill: none; stroke: #000000; stroke-width: 0.8; stroke-linejoin: miter; stroke-linecap: square"/>
   </g>
   <g id="patch_15">
    <path d="M 256.976875 161.52 
L 326.726875 161.52 
" style="fill: none; stroke: #000000; stroke-width: 0.8; stroke-linejoin: miter; stroke-linecap: square"/>
   </g>
   <g id="PathCollection_15">
    <defs>
     <path id="m636a1a7c9e" d="M 0 0.707107 
C 0.187527 0.707107 0.367398 0.632602 0.5 0.5 
C 0.632602 0.367398 0.707107 0.187527 0.707107 0 
C 0.707107 -0.187527 0.632602 -0.367398 0.5 -0.5 
C 0.367398 -0.632602 0.187527 -0.707107 0 -0.707107 
C -0.187527 -0.707107 -0.367398 -0.632602 -0.5 -0.5 
C -0.632602 -0.367398 -0.707107 -0.187527 -0.707107 0 
C -0.707107 0.187527 -0.632602 0.367398 -0.5 0.5 
C -0.367398 0.632602 -0.187527 0.707107 0 0.707107 
z
" style="stroke: #ff0000"/>
    </defs>
    <g clip-path="url(#p4ea899f52d)">
     <use xlink:href="#m636a1a7c9e" x="270.260465" y="200.718087" style="fill: #ff0000; stroke: #ff0000"/>
    </g>
   </g>
  </g>
 </g>
 <defs>
  <clipPath id="pef33100306">
   <rect x="59.726875" y="7.2" width="279" height="221.76"/>
  </clipPath>
  <clipPath id="p4ea899f52d">
   <rect x="256.976875" y="161.52" width="69.75" height="55.44"/>
  </clipPath>
 </defs>
</svg>
