<?xml version="1.0" encoding="utf-8" standalone="no"?>
<!DOCTYPE svg PUBLIC "-//W3C//DTD SVG 1.1//EN"
  "http://www.w3.org/Graphics/SVG/1.1/DTD/svg11.dtd">
<svg xmlns:xlink="http://www.w3.org/1999/xlink" width="280.504013pt" height="207.901346pt" viewBox="0 0 280.504013 207.901346" xmlns="http://www.w3.org/2000/svg" version="1.1">
 <metadata>
  <rdf:RDF xmlns:dc="http://purl.org/dc/elements/1.1/" xmlns:cc="http://creativecommons.org/ns#" xmlns:rdf="http://www.w3.org/1999/02/22-rdf-syntax-ns#">
   <cc:Work>
    <dc:type rdf:resource="http://purl.org/dc/dcmitype/StillImage"/>
    <dc:date>2026-02-17T14:48:19.831975</dc:date>
    <dc:format>image/svg+xml</dc:format>
    <dc:creator>
     <cc:Agent>
      <dc:title>Matplotlib v3.10.8, https://matplotlib.org/</dc:title>
     </cc:Agent>
    </dc:creator>
   </cc:Work>
  </rdf:RDF>
 </metadata>
 <defs>
  <style type="text/css">*{stroke-linejoin: round; stroke-linecap: butt}</style>
 </defs>
 <g id="figure_1">
  <g id="patch_1">
   <path d="M 0 207.901346 
L 280.504013 207.901346 
L 280.504013 0 
L 0 0 
z
" style="fill: #ffffff"/>
  </g>
  <g id="axes_1">
   <g id="patch_2">
    <path d="M 46.965625 170.345096 
L 270.75108 170.345096 
L 270.75108 8.742479 
L 46.965625 8.742479 
z
" style="fill: #ffffff"/>
   </g>
   <g id="matplotlib.axis_1">
    <g id="xtick_1">
     <g id="line2d_1">
      <path d="M 57.069855 170.345096 
L 57.069855 8.742479 
" clip-path="url(#p41e27f183d)" style="fill: none; stroke: #b0b0b0; stroke-width: 0.8; stroke-linecap: square"/>
     </g>
     <g id="line2d_2">
      <defs>
       <path id="m7f016170e4" d="M 0 0 
L 0 3.5 
" style="stroke: #000000; stroke-width: 0.8"/>
      </defs>
      <g>
       <use xlink:href="#m7f016170e4" x="57.069855" y="170.345096" style="stroke: #000000; stroke-width: 0.8"/>
      </g>
     </g>
     <g id="text_1">
      <!-- 0 -->
      <g transform="translate(53.888605 184.943533) scale(0.1 -0.1)">
       <defs>
        <path id="DejaVuSerif-30" d="M 2034 219 
Q 2513 219 2750 744 
Q 2988 1269 2988 2328 
Q 2988 3391 2750 3916 
Q 2513 4441 2034 4441 
Q 1556 4441 1318 3916 
Q 1081 3391 1081 2328 
Q 1081 1269 1318 744 
Q 1556 219 2034 219 
z
M 2034 -91 
Q 1275 -91 848 546 
Q 422 1184 422 2328 
Q 422 3475 848 4112 
Q 1275 4750 2034 4750 
Q 2797 4750 3222 4112 
Q 3647 3475 3647 2328 
Q 3647 1184 3222 546 
Q 2797 -91 2034 -91 
z
" transform="scale(0.015625)"/>
       </defs>
       <use xlink:href="#DejaVuSerif-30"/>
      </g>
     </g>
    </g>
    <g id="xtick_2">
     <g id="line2d_3">
      <path d="M 90.988048 170.345096 
L 90.988048 8.742479 
" clip-path="url(#p41e27f183d)" style="fill: none; stroke: #b0b0b0; stroke-width: 0.8; stroke-linecap: square"/>
     </g>
     <g id="line2d_4">
      <g>
       <use xlink:href="#m7f016170e4" x="90.988048" y="170.345096" style="stroke: #000000; stroke-width: 0.8"/>
      </g>
     </g>
     <g id="text_2">
      <!-- 500 -->
      <g transform="translate(81.444298 184.943533) scale(0.1 -0.1)">
       <defs>
        <path id="DejaVuSerif-35" d="M 3219 4666 
L 3219 4153 
L 1081 4153 
L 1081 2816 
Q 1244 2928 1461 2984 
Q 1678 3041 1947 3041 
Q 2703 3041 3140 2622 
Q 3578 2203 3578 1478 
Q 3578 738 3136 323 
Q 2694 -91 1894 -91 
Q 1572 -91 1234 -12 
Q 897 66 544 225 
L 544 1131 
L 897 1131 
Q 925 688 1179 453 
Q 1434 219 1894 219 
Q 2388 219 2653 544 
Q 2919 869 2919 1478 
Q 2919 2084 2655 2407 
Q 2391 2731 1894 2731 
Q 1613 2731 1398 2631 
Q 1184 2531 1019 2322 
L 750 2322 
L 750 4666 
L 3219 4666 
z
" transform="scale(0.015625)"/>
       </defs>
       <use xlink:href="#DejaVuSerif-35"/>
       <use xlink:href="#DejaVuSerif-30" transform="translate(63.623047 0)"/>
       <use xlink:href="#DejaVuSerif-30" transform="translate(127.246094 0)"/>
      </g>
     </g>
    </g>
    <g id="xtick_3">
     <g id="line2d_5">
      <path d="M 124.906241 170.345096 
L 124.906241 8.742479 
" clip-path="url(#p41e27f183d)" style="fill: none; stroke: #b0b0b0; stroke-width: 0.8; stroke-linecap: square"/>
     </g>
     <g id="line2d_6">
      <g>
       <use xlink:href="#m7f016170e4" x="124.906241" y="170.345096" style="stroke: #000000; stroke-width: 0.8"/>
      </g>
     </g>
     <g id="text_3">
      <!-- 1000 -->
      <g transform="translate(112.181241 184.943533) scale(0.1 -0.1)">
       <defs>
        <path id="DejaVuSerif-31" d="M 909 0 
L 909 331 
L 1722 331 
L 1722 4213 
L 781 3603 
L 781 4013 
L 1919 4750 
L 2350 4750 
L 2350 331 
L 3163 331 
L 3163 0 
L 909 0 
z
" transform="scale(0.015625)"/>
       </defs>
       <use xlink:href="#DejaVuSerif-31"/>
       <use xlink:href="#DejaVuSerif-30" transform="translate(63.623047 0)"/>
       <use xlink:href="#DejaVuSerif-30" transform="translate(127.246094 0)"/>
       <use xlink:href="#DejaVuSerif-30" transform="translate(190.869141 0)"/>
      </g>
     </g>
    </g>
    <g id="xtick_4">
     <g id="line2d_7">
      <path d="M 158.824434 170.345096 
L 158.824434 8.742479 
" clip-path="url(#p41e27f183d)" style="fill: none; stroke: #b0b0b0; stroke-width: 0.8; stroke-linecap: square"/>
     </g>
     <g id="line2d_8">
      <g>
       <use xlink:href="#m7f016170e4" x="158.824434" y="170.345096" style="stroke: #000000; stroke-width: 0.8"/>
      </g>
     </g>
     <g id="text_4">
      <!-- 1500 -->
      <g transform="translate(146.099434 184.943533) scale(0.1 -0.1)">
       <use xlink:href="#DejaVuSerif-31"/>
       <use xlink:href="#DejaVuSerif-35" transform="translate(63.623047 0)"/>
       <use xlink:href="#DejaVuSerif-30" transform="translate(127.246094 0)"/>
       <use xlink:href="#DejaVuSerif-30" transform="translate(190.869141 0)"/>
      </g>
     </g>
    </g>
    <g id="xtick_5">
     <g id="line2d_9">
      <path d="M 192.742627 170.345096 
L 192.742627 8.742479 
" clip-path="url(#p41e27f183d)" style="fill: none; stroke: #b0b0b0; stroke-width: 0.8; stroke-linecap: square"/>
     </g>
     <g id="line2d_10">
      <g>
       <use xlink:href="#m7f016170e4" x="192.742627" y="170.345096" style="stroke: #000000; stroke-width: 0.8"/>
      </g>
     </g>
     <g id="text_5">
      <!-- 2000 -->
      <g transform="translate(180.017627 184.943533) scale(0.1 -0.1)">
       <defs>
        <path id="DejaVuSerif-32" d="M 819 3553 
L 469 3553 
L 469 4384 
Q 803 4563 1142 4656 
Q 1481 4750 1806 4750 
Q 2534 4750 2956 4397 
Q 3378 4044 3378 3438 
Q 3378 2753 2422 1800 
Q 2347 1728 2309 1691 
L 1131 513 
L 3078 513 
L 3078 1088 
L 3444 1088 
L 3444 0 
L 434 0 
L 434 341 
L 1850 1753 
Q 2319 2222 2519 2614 
Q 2719 3006 2719 3438 
Q 2719 3909 2473 4175 
Q 2228 4441 1797 4441 
Q 1350 4441 1106 4219 
Q 863 3997 819 3553 
z
" transform="scale(0.015625)"/>
       </defs>
       <use xlink:href="#DejaVuSerif-32"/>
       <use xlink:href="#DejaVuSerif-30" transform="translate(63.623047 0)"/>
       <use xlink:href="#DejaVuSerif-30" transform="translate(127.246094 0)"/>
       <use xlink:href="#DejaVuSerif-30" transform="translate(190.869141 0)"/>
      </g>
     </g>
    </g>
    <g id="xtick_6">
     <g id="line2d_11">
      <path d="M 226.66082 170.345096 
L 226.66082 8.742479 
" clip-path="url(#p41e27f183d)" style="fill: none; stroke: #b0b0b0; stroke-width: 0.8; stroke-linecap: square"/>
     </g>
     <g id="line2d_12">
      <g>
       <use xlink:href="#m7f016170e4" x="226.66082" y="170.345096" style="stroke: #000000; stroke-width: 0.8"/>
      </g>
     </g>
     <g id="text_6">
      <!-- 2500 -->
      <g transform="translate(213.93582 184.943533) scale(0.1 -0.1)">
       <use xlink:href="#DejaVuSerif-32"/>
       <use xlink:href="#DejaVuSerif-35" transform="translate(63.623047 0)"/>
       <use xlink:href="#DejaVuSerif-30" transform="translate(127.246094 0)"/>
       <use xlink:href="#DejaVuSerif-30" transform="translate(190.869141 0)"/>
      </g>
     </g>
    </g>
    <g id="xtick_7">
     <g id="line2d_13">
      <path d="M 260.579013 170.345096 
L 260.579013 8.742479 
" clip-path="url(#p41e27f183d)" style="fill: none; stroke: #b0b0b0; stroke-width: 0.8; stroke-linecap: square"/>
     </g>
     <g id="line2d_14">
      <g>
       <use xlink:href="#m7f016170e4" x="260.579013" y="170.345096" style="stroke: #000000; stroke-width: 0.8"/>
      </g>
     </g>
     <g id="text_7">
      <!-- 3000 -->
      <g transform="translate(247.854013 184.943533) scale(0.1 -0.1)">
       <defs>
        <path id="DejaVuSerif-33" d="M 622 4469 
Q 988 4606 1323 4678 
Q 1659 4750 1953 4750 
Q 2638 4750 3022 4454 
Q 3406 4159 3406 3634 
Q 3406 3213 3140 2930 
Q 2875 2647 2388 2547 
Q 2963 2466 3280 2130 
Q 3597 1794 3597 1259 
Q 3597 606 3158 257 
Q 2719 -91 1894 -91 
Q 1528 -91 1179 -12 
Q 831 66 488 225 
L 488 1131 
L 838 1131 
Q 869 681 1141 450 
Q 1413 219 1906 219 
Q 2384 219 2661 495 
Q 2938 772 2938 1253 
Q 2938 1803 2653 2086 
Q 2369 2369 1819 2369 
L 1522 2369 
L 1522 2688 
L 1678 2688 
Q 2225 2688 2498 2914 
Q 2772 3141 2772 3597 
Q 2772 4006 2547 4223 
Q 2322 4441 1900 4441 
Q 1478 4441 1245 4241 
Q 1013 4041 972 3647 
L 622 3647 
L 622 4469 
z
" transform="scale(0.015625)"/>
       </defs>
       <use xlink:href="#DejaVuSerif-33"/>
       <use xlink:href="#DejaVuSerif-30" transform="translate(63.623047 0)"/>
       <use xlink:href="#DejaVuSerif-30" transform="translate(127.246094 0)"/>
       <use xlink:href="#DejaVuSerif-30" transform="translate(190.869141 0)"/>
      </g>
     </g>
    </g>
    <g id="text_8">
     <!-- Episode -->
     <g transform="translate(138.672415 198.621658) scale(0.1 -0.1)">
      <defs>
       <path id="DejaVuSerif-45" d="M 353 0 
L 353 331 
L 947 331 
L 947 4331 
L 353 4331 
L 353 4666 
L 4109 4666 
L 4109 3628 
L 3725 3628 
L 3725 4281 
L 1581 4281 
L 1581 2719 
L 3109 2719 
L 3109 3303 
L 3494 3303 
L 3494 1753 
L 3109 1753 
L 3109 2338 
L 1581 2338 
L 1581 384 
L 3775 384 
L 3775 1038 
L 4159 1038 
L 4159 0 
L 353 0 
z
" transform="scale(0.015625)"/>
       <path id="DejaVuSerif-70" d="M 1313 1825 
L 1313 1497 
Q 1313 897 1542 583 
Q 1772 269 2209 269 
Q 2650 269 2876 622 
Q 3103 975 3103 1663 
Q 3103 2353 2876 2703 
Q 2650 3053 2209 3053 
Q 1772 3053 1542 2737 
Q 1313 2422 1313 1825 
z
M 738 2988 
L 184 2988 
L 184 3322 
L 1313 3322 
L 1313 2803 
Q 1481 3116 1742 3264 
Q 2003 3413 2388 3413 
Q 3000 3413 3387 2928 
Q 3775 2444 3775 1663 
Q 3775 881 3387 395 
Q 3000 -91 2388 -91 
Q 2003 -91 1742 57 
Q 1481 206 1313 519 
L 1313 -997 
L 1856 -997 
L 1856 -1331 
L 184 -1331 
L 184 -997 
L 738 -997 
L 738 2988 
z
" transform="scale(0.015625)"/>
       <path id="DejaVuSerif-69" d="M 622 4353 
Q 622 4497 726 4603 
Q 831 4709 978 4709 
Q 1122 4709 1226 4603 
Q 1331 4497 1331 4353 
Q 1331 4206 1228 4103 
Q 1125 4000 978 4000 
Q 831 4000 726 4103 
Q 622 4206 622 4353 
z
M 1356 331 
L 1900 331 
L 1900 0 
L 231 0 
L 231 331 
L 781 331 
L 781 2988 
L 231 2988 
L 231 3322 
L 1356 3322 
L 1356 331 
z
" transform="scale(0.015625)"/>
       <path id="DejaVuSerif-73" d="M 359 184 
L 359 959 
L 691 959 
Q 703 588 923 403 
Q 1144 219 1575 219 
Q 1963 219 2166 364 
Q 2369 509 2369 788 
Q 2369 1006 2220 1140 
Q 2072 1275 1594 1428 
L 1178 1569 
Q 750 1706 558 1912 
Q 366 2119 366 2438 
Q 366 2894 700 3153 
Q 1034 3413 1625 3413 
Q 1888 3413 2178 3344 
Q 2469 3275 2778 3144 
L 2778 2419 
L 2447 2419 
Q 2434 2741 2221 2922 
Q 2009 3103 1644 3103 
Q 1281 3103 1095 2975 
Q 909 2847 909 2591 
Q 909 2381 1050 2254 
Q 1191 2128 1613 1997 
L 2069 1856 
Q 2541 1709 2748 1489 
Q 2956 1269 2956 922 
Q 2956 450 2595 179 
Q 2234 -91 1600 -91 
Q 1278 -91 972 -22 
Q 666 47 359 184 
z
" transform="scale(0.015625)"/>
       <path id="DejaVuSerif-6f" d="M 1925 219 
Q 2388 219 2623 584 
Q 2859 950 2859 1663 
Q 2859 2375 2623 2739 
Q 2388 3103 1925 3103 
Q 1463 3103 1227 2739 
Q 991 2375 991 1663 
Q 991 950 1228 584 
Q 1466 219 1925 219 
z
M 1925 -91 
Q 1200 -91 759 389 
Q 319 869 319 1663 
Q 319 2456 758 2934 
Q 1197 3413 1925 3413 
Q 2653 3413 3092 2934 
Q 3531 2456 3531 1663 
Q 3531 869 3092 389 
Q 2653 -91 1925 -91 
z
" transform="scale(0.015625)"/>
       <path id="DejaVuSerif-64" d="M 3359 331 
L 3909 331 
L 3909 0 
L 2784 0 
L 2784 519 
Q 2616 206 2355 57 
Q 2094 -91 1709 -91 
Q 1097 -91 708 395 
Q 319 881 319 1663 
Q 319 2444 706 2928 
Q 1094 3413 1709 3413 
Q 2094 3413 2355 3264 
Q 2616 3116 2784 2803 
L 2784 4531 
L 2241 4531 
L 2241 4863 
L 3359 4863 
L 3359 331 
z
M 2784 1497 
L 2784 1825 
Q 2784 2422 2554 2737 
Q 2325 3053 1888 3053 
Q 1444 3053 1217 2703 
Q 991 2353 991 1663 
Q 991 975 1217 622 
Q 1444 269 1888 269 
Q 2325 269 2554 583 
Q 2784 897 2784 1497 
z
" transform="scale(0.015625)"/>
       <path id="DejaVuSerif-65" d="M 3469 1600 
L 991 1600 
L 991 1575 
Q 991 903 1244 561 
Q 1497 219 1991 219 
Q 2369 219 2611 417 
Q 2853 616 2950 1006 
L 3413 1006 
Q 3275 459 2904 184 
Q 2534 -91 1931 -91 
Q 1203 -91 761 389 
Q 319 869 319 1663 
Q 319 2450 753 2931 
Q 1188 3413 1894 3413 
Q 2647 3413 3050 2948 
Q 3453 2484 3469 1600 
z
M 2791 1931 
Q 2772 2513 2545 2808 
Q 2319 3103 1894 3103 
Q 1497 3103 1269 2806 
Q 1041 2509 991 1931 
L 2791 1931 
z
" transform="scale(0.015625)"/>
      </defs>
      <use xlink:href="#DejaVuSerif-45"/>
      <use xlink:href="#DejaVuSerif-70" transform="translate(72.998047 0)"/>
      <use xlink:href="#DejaVuSerif-69" transform="translate(137.011719 0)"/>
      <use xlink:href="#DejaVuSerif-73" transform="translate(168.994141 0)"/>
      <use xlink:href="#DejaVuSerif-6f" transform="translate(220.3125 0)"/>
      <use xlink:href="#DejaVuSerif-64" transform="translate(280.517578 0)"/>
      <use xlink:href="#DejaVuSerif-65" transform="translate(344.53125 0)"/>
     </g>
    </g>
   </g>
   <g id="matplotlib.axis_2">
    <g id="ytick_1">
     <g id="line2d_15">
      <path d="M 46.965625 155.144396 
L 270.75108 155.144396 
" clip-path="url(#p41e27f183d)" style="fill: none; stroke: #b0b0b0; stroke-width: 0.8; stroke-linecap: square"/>
     </g>
     <g id="line2d_16">
      <defs>
       <path id="m8716f2261f" d="M 0 0 
L -3.5 0 
" style="stroke: #000000; stroke-width: 0.8"/>
      </defs>
      <g>
       <use xlink:href="#m8716f2261f" x="46.965625" y="155.144396" style="stroke: #000000; stroke-width: 0.8"/>
      </g>
     </g>
     <g id="text_9">
      <!-- 50 -->
      <g transform="translate(27.240625 158.943614) scale(0.1 -0.1)">
       <use xlink:href="#DejaVuSerif-35"/>
       <use xlink:href="#DejaVuSerif-30" transform="translate(63.623047 0)"/>
      </g>
     </g>
    </g>
    <g id="ytick_2">
     <g id="line2d_17">
      <path d="M 46.965625 134.552228 
L 270.75108 134.552228 
" clip-path="url(#p41e27f183d)" style="fill: none; stroke: #b0b0b0; stroke-width: 0.8; stroke-linecap: square"/>
     </g>
     <g id="line2d_18">
      <g>
       <use xlink:href="#m8716f2261f" x="46.965625" y="134.552228" style="stroke: #000000; stroke-width: 0.8"/>
      </g>
     </g>
     <g id="text_10">
      <!-- 60 -->
      <g transform="translate(27.240625 138.351446) scale(0.1 -0.1)">
       <defs>
        <path id="DejaVuSerif-36" d="M 2094 219 
Q 2534 219 2771 542 
Q 3009 866 3009 1472 
Q 3009 2078 2771 2401 
Q 2534 2725 2094 2725 
Q 1647 2725 1412 2412 
Q 1178 2100 1178 1509 
Q 1178 888 1415 553 
Q 1653 219 2094 219 
z
M 1075 2569 
Q 1288 2803 1556 2918 
Q 1825 3034 2163 3034 
Q 2859 3034 3264 2615 
Q 3669 2197 3669 1472 
Q 3669 763 3233 336 
Q 2797 -91 2069 -91 
Q 1278 -91 853 498 
Q 428 1088 428 2181 
Q 428 3406 931 4078 
Q 1434 4750 2350 4750 
Q 2597 4750 2869 4703 
Q 3141 4656 3425 4563 
L 3425 3794 
L 3072 3794 
Q 3034 4109 2831 4275 
Q 2628 4441 2284 4441 
Q 1678 4441 1381 3981 
Q 1084 3522 1075 2569 
z
" transform="scale(0.015625)"/>
       </defs>
       <use xlink:href="#DejaVuSerif-36"/>
       <use xlink:href="#DejaVuSerif-30" transform="translate(63.623047 0)"/>
      </g>
     </g>
    </g>
    <g id="ytick_3">
     <g id="line2d_19">
      <path d="M 46.965625 113.960059 
L 270.75108 113.960059 
" clip-path="url(#p41e27f183d)" style="fill: none; stroke: #b0b0b0; stroke-width: 0.8; stroke-linecap: square"/>
     </g>
     <g id="line2d_20">
      <g>
       <use xlink:href="#m8716f2261f" x="46.965625" y="113.960059" style="stroke: #000000; stroke-width: 0.8"/>
      </g>
     </g>
     <g id="text_11">
      <!-- 70 -->
      <g transform="translate(27.240625 117.759278) scale(0.1 -0.1)">
       <defs>
        <path id="DejaVuSerif-37" d="M 3609 4347 
L 1784 0 
L 1319 0 
L 3059 4153 
L 903 4153 
L 903 3578 
L 538 3578 
L 538 4666 
L 3609 4666 
L 3609 4347 
z
" transform="scale(0.015625)"/>
       </defs>
       <use xlink:href="#DejaVuSerif-37"/>
       <use xlink:href="#DejaVuSerif-30" transform="translate(63.623047 0)"/>
      </g>
     </g>
    </g>
    <g id="ytick_4">
     <g id="line2d_21">
      <path d="M 46.965625 93.367891 
L 270.75108 93.367891 
" clip-path="url(#p41e27f183d)" style="fill: none; stroke: #b0b0b0; stroke-width: 0.8; stroke-linecap: square"/>
     </g>
     <g id="line2d_22">
      <g>
       <use xlink:href="#m8716f2261f" x="46.965625" y="93.367891" style="stroke: #000000; stroke-width: 0.8"/>
      </g>
     </g>
     <g id="text_12">
      <!-- 80 -->
      <g transform="translate(27.240625 97.16711) scale(0.1 -0.1)">
       <defs>
        <path id="DejaVuSerif-38" d="M 2981 1275 
Q 2981 1775 2732 2051 
Q 2484 2328 2034 2328 
Q 1584 2328 1336 2051 
Q 1088 1775 1088 1275 
Q 1088 772 1336 495 
Q 1584 219 2034 219 
Q 2484 219 2732 495 
Q 2981 772 2981 1275 
z
M 2853 3541 
Q 2853 3966 2637 4203 
Q 2422 4441 2034 4441 
Q 1650 4441 1433 4203 
Q 1216 3966 1216 3541 
Q 1216 3113 1433 2875 
Q 1650 2638 2034 2638 
Q 2422 2638 2637 2875 
Q 2853 3113 2853 3541 
z
M 2516 2484 
Q 3047 2413 3344 2092 
Q 3641 1772 3641 1275 
Q 3641 619 3225 264 
Q 2809 -91 2034 -91 
Q 1263 -91 845 264 
Q 428 619 428 1275 
Q 428 1772 725 2092 
Q 1022 2413 1556 2484 
Q 1084 2569 832 2842 
Q 581 3116 581 3541 
Q 581 4103 968 4426 
Q 1356 4750 2034 4750 
Q 2713 4750 3100 4426 
Q 3488 4103 3488 3541 
Q 3488 3116 3236 2842 
Q 2984 2569 2516 2484 
z
" transform="scale(0.015625)"/>
       </defs>
       <use xlink:href="#DejaVuSerif-38"/>
       <use xlink:href="#DejaVuSerif-30" transform="translate(63.623047 0)"/>
      </g>
     </g>
    </g>
    <g id="ytick_5">
     <g id="line2d_23">
      <path d="M 46.965625 72.775723 
L 270.75108 72.775723 
" clip-path="url(#p41e27f183d)" style="fill: none; stroke: #b0b0b0; stroke-width: 0.8; stroke-linecap: square"/>
     </g>
     <g id="line2d_24">
      <g>
       <use xlink:href="#m8716f2261f" x="46.965625" y="72.775723" style="stroke: #000000; stroke-width: 0.8"/>
      </g>
     </g>
     <g id="text_13">
      <!-- 90 -->
      <g transform="translate(27.240625 76.574942) scale(0.1 -0.1)">
       <defs>
        <path id="DejaVuSerif-39" d="M 2994 2091 
Q 2784 1856 2512 1740 
Q 2241 1625 1900 1625 
Q 1206 1625 804 2044 
Q 403 2463 403 3188 
Q 403 3897 839 4323 
Q 1275 4750 2003 4750 
Q 2794 4750 3217 4161 
Q 3641 3572 3641 2478 
Q 3641 1253 3137 581 
Q 2634 -91 1722 -91 
Q 1475 -91 1203 -44 
Q 931 3 647 97 
L 647 872 
L 997 872 
Q 1038 556 1241 387 
Q 1444 219 1784 219 
Q 2391 219 2687 676 
Q 2984 1134 2994 2091 
z
M 1978 4441 
Q 1534 4441 1298 4117 
Q 1063 3794 1063 3188 
Q 1063 2581 1298 2256 
Q 1534 1931 1978 1931 
Q 2422 1931 2658 2245 
Q 2894 2559 2894 3150 
Q 2894 3772 2656 4106 
Q 2419 4441 1978 4441 
z
" transform="scale(0.015625)"/>
       </defs>
       <use xlink:href="#DejaVuSerif-39"/>
       <use xlink:href="#DejaVuSerif-30" transform="translate(63.623047 0)"/>
      </g>
     </g>
    </g>
    <g id="ytick_6">
     <g id="line2d_25">
      <path d="M 46.965625 52.183555 
L 270.75108 52.183555 
" clip-path="url(#p41e27f183d)" style="fill: none; stroke: #b0b0b0; stroke-width: 0.8; stroke-linecap: square"/>
     </g>
     <g id="line2d_26">
      <g>
       <use xlink:href="#m8716f2261f" x="46.965625" y="52.183555" style="stroke: #000000; stroke-width: 0.8"/>
      </g>
     </g>
     <g id="text_14">
      <!-- 100 -->
      <g transform="translate(20.878125 55.982774) scale(0.1 -0.1)">
       <use xlink:href="#DejaVuSerif-31"/>
       <use xlink:href="#DejaVuSerif-30" transform="translate(63.623047 0)"/>
       <use xlink:href="#DejaVuSerif-30" transform="translate(127.246094 0)"/>
      </g>
     </g>
    </g>
    <g id="ytick_7">
     <g id="line2d_27">
      <path d="M 46.965625 31.591387 
L 270.75108 31.591387 
" clip-path="url(#p41e27f183d)" style="fill: none; stroke: #b0b0b0; stroke-width: 0.8; stroke-linecap: square"/>
     </g>
     <g id="line2d_28">
      <g>
       <use xlink:href="#m8716f2261f" x="46.965625" y="31.591387" style="stroke: #000000; stroke-width: 0.8"/>
      </g>
     </g>
     <g id="text_15">
      <!-- 110 -->
      <g transform="translate(20.878125 35.390606) scale(0.1 -0.1)">
       <use xlink:href="#DejaVuSerif-31"/>
       <use xlink:href="#DejaVuSerif-31" transform="translate(63.623047 0)"/>
       <use xlink:href="#DejaVuSerif-30" transform="translate(127.246094 0)"/>
      </g>
     </g>
    </g>
    <g id="ytick_8">
     <g id="line2d_29">
      <path d="M 46.965625 10.999219 
L 270.75108 10.999219 
" clip-path="url(#p41e27f183d)" style="fill: none; stroke: #b0b0b0; stroke-width: 0.8; stroke-linecap: square"/>
     </g>
     <g id="line2d_30">
      <g>
       <use xlink:href="#m8716f2261f" x="46.965625" y="10.999219" style="stroke: #000000; stroke-width: 0.8"/>
      </g>
     </g>
     <g id="text_16">
      <!-- 120 -->
      <g transform="translate(20.878125 14.798438) scale(0.1 -0.1)">
       <use xlink:href="#DejaVuSerif-31"/>
       <use xlink:href="#DejaVuSerif-32" transform="translate(63.623047 0)"/>
       <use xlink:href="#DejaVuSerif-30" transform="translate(127.246094 0)"/>
      </g>
     </g>
    </g>
    <g id="text_17">
     <!-- Total Reward -->
     <g transform="translate(14.798438 123.256287) rotate(-90) scale(0.1 -0.1)">
      <defs>
       <path id="DejaVuSerif-54" d="M 1222 0 
L 1222 331 
L 1819 331 
L 1819 4294 
L 447 4294 
L 447 3566 
L 63 3566 
L 63 4666 
L 4206 4666 
L 4206 3566 
L 3822 3566 
L 3822 4294 
L 2450 4294 
L 2450 331 
L 3047 331 
L 3047 0 
L 1222 0 
z
" transform="scale(0.015625)"/>
       <path id="DejaVuSerif-74" d="M 691 2988 
L 184 2988 
L 184 3322 
L 691 3322 
L 691 4353 
L 1269 4353 
L 1269 3322 
L 2350 3322 
L 2350 2988 
L 1269 2988 
L 1269 878 
Q 1269 456 1350 337 
Q 1431 219 1650 219 
Q 1875 219 1978 351 
Q 2081 484 2088 781 
L 2522 781 
Q 2497 328 2275 118 
Q 2053 -91 1600 -91 
Q 1103 -91 897 129 
Q 691 350 691 878 
L 691 2988 
z
" transform="scale(0.015625)"/>
       <path id="DejaVuSerif-61" d="M 2547 1044 
L 2547 1747 
L 1806 1747 
Q 1378 1747 1168 1562 
Q 959 1378 959 997 
Q 959 650 1171 447 
Q 1384 244 1747 244 
Q 2106 244 2326 466 
Q 2547 688 2547 1044 
z
M 3122 2075 
L 3122 331 
L 3634 331 
L 3634 0 
L 2547 0 
L 2547 359 
Q 2356 128 2106 18 
Q 1856 -91 1522 -91 
Q 969 -91 644 203 
Q 319 497 319 997 
Q 319 1513 691 1797 
Q 1063 2081 1741 2081 
L 2547 2081 
L 2547 2309 
Q 2547 2688 2317 2895 
Q 2088 3103 1672 3103 
Q 1328 3103 1125 2947 
Q 922 2791 872 2484 
L 575 2484 
L 575 3156 
Q 875 3284 1158 3348 
Q 1441 3413 1709 3413 
Q 2400 3413 2761 3070 
Q 3122 2728 3122 2075 
z
" transform="scale(0.015625)"/>
       <path id="DejaVuSerif-6c" d="M 1313 331 
L 1856 331 
L 1856 0 
L 184 0 
L 184 331 
L 738 331 
L 738 4531 
L 184 4531 
L 184 4863 
L 1313 4863 
L 1313 331 
z
" transform="scale(0.015625)"/>
       <path id="DejaVuSerif-20" transform="scale(0.015625)"/>
       <path id="DejaVuSerif-52" d="M 3066 2316 
Q 3284 2256 3442 2114 
Q 3600 1972 3725 1716 
L 4403 331 
L 4972 331 
L 4972 0 
L 3872 0 
L 3144 1484 
Q 2934 1916 2759 2042 
Q 2584 2169 2278 2169 
L 1581 2169 
L 1581 331 
L 2241 331 
L 2241 0 
L 353 0 
L 353 331 
L 947 331 
L 947 4331 
L 353 4331 
L 353 4666 
L 2719 4666 
Q 3400 4666 3770 4341 
Q 4141 4016 4141 3419 
Q 4141 2938 3870 2661 
Q 3600 2384 3066 2316 
z
M 1581 2503 
L 2503 2503 
Q 2975 2503 3200 2726 
Q 3425 2950 3425 3419 
Q 3425 3888 3200 4109 
Q 2975 4331 2503 4331 
L 1581 4331 
L 1581 2503 
z
" transform="scale(0.015625)"/>
       <path id="DejaVuSerif-77" d="M 3072 3322 
L 3922 728 
L 4672 2988 
L 4191 2988 
L 4191 3322 
L 5394 3322 
L 5394 2988 
L 5025 2988 
L 4038 0 
L 3559 0 
L 2741 2484 
L 1919 0 
L 1459 0 
L 475 2988 
L 103 2988 
L 103 3322 
L 1606 3322 
L 1606 2988 
L 1069 2988 
L 1813 728 
L 2669 3322 
L 3072 3322 
z
" transform="scale(0.015625)"/>
       <path id="DejaVuSerif-72" d="M 3059 3328 
L 3059 2497 
L 2728 2497 
Q 2713 2744 2591 2866 
Q 2469 2988 2234 2988 
Q 1809 2988 1582 2694 
Q 1356 2400 1356 1850 
L 1356 331 
L 2022 331 
L 2022 0 
L 263 0 
L 263 331 
L 781 331 
L 781 2994 
L 231 2994 
L 231 3322 
L 1356 3322 
L 1356 2731 
Q 1525 3078 1790 3245 
Q 2056 3413 2438 3413 
Q 2578 3413 2733 3391 
Q 2888 3369 3059 3328 
z
" transform="scale(0.015625)"/>
      </defs>
      <use xlink:href="#DejaVuSerif-54"/>
      <use xlink:href="#DejaVuSerif-6f" transform="translate(58.949219 0)"/>
      <use xlink:href="#DejaVuSerif-74" transform="translate(119.154297 0)"/>
      <use xlink:href="#DejaVuSerif-61" transform="translate(159.339844 0)"/>
      <use xlink:href="#DejaVuSerif-6c" transform="translate(218.958984 0)"/>
      <use xlink:href="#DejaVuSerif-20" transform="translate(250.941406 0)"/>
      <use xlink:href="#DejaVuSerif-52" transform="translate(282.728516 0)"/>
      <use xlink:href="#DejaVuSerif-65" transform="translate(358.021484 0)"/>
      <use xlink:href="#DejaVuSerif-77" transform="translate(417.201172 0)"/>
      <use xlink:href="#DejaVuSerif-61" transform="translate(502.796875 0)"/>
      <use xlink:href="#DejaVuSerif-72" transform="translate(562.416016 0)"/>
      <use xlink:href="#DejaVuSerif-64" transform="translate(610.21875 0)"/>
     </g>
    </g>
   </g>
   <g id="line2d_31">
    <path d="M 57.137691 152.325531 
L 57.205528 160.524035 
L 57.273364 159.914065 
L 57.3412 160.27554 
L 57.544709 162.371347 
L 57.680382 162.999522 
L 57.816055 159.798191 
L 57.883891 161.992846 
L 57.951728 159.085316 
L 58.019564 159.405878 
L 58.155237 159.001766 
L 58.29091 159.473 
L 58.358746 159.286679 
L 58.562255 157.636756 
L 58.969274 156.955979 
L 59.104946 156.186802 
L 59.579801 152.791801 
L 59.715474 152.187351 
L 59.78331 152.188757 
L 59.918983 150.727403 
L 60.393838 149.650999 
L 60.73302 145.895274 
L 60.936529 142.226863 
L 61.47922 136.213799 
L 61.750565 130.989856 
L 61.818402 130.974077 
L 61.954075 130.060333 
L 62.293256 127.125748 
L 62.361093 126.935248 
L 62.428929 126.981222 
L 62.496766 126.97645 
L 62.564602 127.274839 
L 62.768111 124.548659 
L 62.835948 125.134307 
L 62.903784 124.90701 
L 62.97162 124.90866 
L 63.039457 125.317464 
L 63.107293 125.038667 
L 63.175129 124.06592 
L 63.242966 125.003442 
L 63.378639 123.424419 
L 63.582148 123.008904 
L 63.649984 122.524838 
L 63.853493 119.937517 
L 63.92133 119.227454 
L 63.989166 119.57194 
L 64.057003 119.410897 
L 64.124839 120.172542 
L 64.260512 122.999699 
L 64.328348 122.835038 
L 64.464021 121.53806 
L 64.531857 122.888298 
L 64.599694 120.174126 
L 64.66753 120.277736 
L 64.735366 120.893733 
L 64.803203 120.278878 
L 64.871039 120.875284 
L 65.074548 119.216812 
L 65.142385 120.195548 
L 65.549403 113.748386 
L 65.617239 114.26739 
L 65.685076 114.03311 
L 66.024258 105.282523 
L 66.092094 106.357216 
L 66.634785 97.143753 
L 66.702622 98.220308 
L 66.770458 97.967304 
L 66.973967 96.208588 
L 67.10964 97.138306 
L 67.177476 95.972727 
L 67.245313 97.791845 
L 67.313149 95.96536 
L 67.380985 96.030324 
L 67.516658 95.27937 
L 67.720167 86.435536 
L 67.788004 86.96557 
L 67.85584 86.227171 
L 68.059349 78.254282 
L 68.195022 78.045575 
L 68.262858 76.022369 
L 68.330695 78.209826 
L 68.534204 72.609825 
L 68.60204 72.688496 
L 68.669877 73.10448 
L 68.737713 72.990785 
L 68.80555 71.763275 
L 68.873386 71.794813 
L 68.941222 73.96124 
L 69.009059 73.584796 
L 69.076895 74.205692 
L 69.144731 76.085428 
L 69.212568 74.996438 
L 69.280404 75.117974 
L 69.483913 79.663462 
L 69.619586 80.606815 
L 69.687423 82.01263 
L 69.755259 81.94063 
L 69.823095 82.046299 
L 69.890932 83.091515 
L 70.162277 74.452101 
L 70.230114 75.484757 
L 70.29795 74.856388 
L 70.569296 77.369309 
L 70.637132 73.232512 
L 70.704968 75.5981 
L 70.772805 75.928056 
L 70.908478 73.097953 
L 70.976314 75.507157 
L 71.04415 74.839604 
L 71.111987 75.717173 
L 71.247659 74.545172 
L 71.451169 81.263364 
L 71.586841 78.814498 
L 71.654678 80.245089 
L 71.722514 79.929057 
L 71.790351 78.072222 
L 71.858187 78.792132 
L 71.926023 83.38881 
L 71.99386 81.317549 
L 72.129532 77.399593 
L 72.197369 80.203508 
L 72.400878 75.85635 
L 72.468714 75.751726 
L 72.536551 70.72838 
L 72.604387 74.353607 
L 72.672224 72.835825 
L 72.943569 63.716267 
L 73.079242 61.49848 
L 73.147078 58.323431 
L 73.214915 59.463348 
L 73.282751 59.317496 
L 73.350587 59.923889 
L 73.48626 65.442859 
L 73.621933 57.346381 
L 73.689769 58.577646 
L 73.757606 58.170163 
L 73.961115 53.484505 
L 74.028951 57.438607 
L 74.096788 55.012137 
L 74.164624 51.900184 
L 74.23246 52.411025 
L 74.368133 47.165073 
L 74.43597 48.301488 
L 74.707315 53.770397 
L 74.775152 53.51048 
L 74.910824 52.508909 
L 74.978661 54.887635 
L 75.046497 53.562606 
L 75.114333 53.261217 
L 75.18217 58.050186 
L 75.250006 57.427352 
L 75.317843 53.215262 
L 75.453515 59.36501 
L 75.589188 57.04148 
L 75.657025 58.987325 
L 75.996206 50.307493 
L 76.267552 59.461761 
L 76.403225 52.636057 
L 76.471061 52.728328 
L 76.538898 55.239574 
L 76.67457 51.303585 
L 76.742407 52.989458 
L 76.810243 50.130324 
L 76.87808 51.795551 
L 77.013752 55.989083 
L 77.149425 51.104821 
L 77.217261 53.294292 
L 77.285098 49.815826 
L 77.352934 53.015049 
L 77.420771 47.633631 
L 77.488607 50.668247 
L 77.759953 58.02526 
L 77.827789 58.175676 
L 77.895625 57.953693 
L 78.031298 55.618851 
L 78.099134 56.740109 
L 78.166971 57.517202 
L 78.234807 56.188576 
L 78.302644 57.585447 
L 78.506153 55.617281 
L 78.641826 56.771038 
L 78.709662 60.93292 
L 78.777498 58.062144 
L 78.913171 60.247209 
L 79.048844 55.324513 
L 79.184517 58.768572 
L 79.252353 58.761653 
L 79.388026 66.976438 
L 79.455862 66.0499 
L 79.523699 66.923195 
L 79.591535 66.776077 
L 79.659371 64.241665 
L 80.06639 74.577885 
L 80.134226 70.805967 
L 80.202062 71.981557 
L 80.269899 72.119649 
L 80.405572 76.732531 
L 80.541244 80.774407 
L 80.609081 81.132903 
L 80.676917 83.338464 
L 80.744754 83.109614 
L 80.81259 82.826089 
L 81.016099 79.900976 
L 81.083935 79.743131 
L 81.355281 74.084667 
L 81.423117 75.534915 
L 81.490954 75.163348 
L 81.626627 72.106062 
L 81.694463 66.597532 
L 81.762299 67.667777 
L 81.830136 69.092363 
L 81.897972 68.646325 
L 82.101481 66.305879 
L 82.169318 68.661647 
L 82.237154 66.23198 
L 82.30499 67.245976 
L 82.372827 66.844312 
L 82.440663 72.347934 
L 82.5085 70.221081 
L 82.644172 73.429447 
L 82.712009 73.787013 
L 82.983354 62.781169 
L 83.051191 65.509021 
L 83.322536 54.808721 
L 83.390373 55.236508 
L 83.593882 64.659625 
L 83.797391 56.616913 
L 83.865227 57.012134 
L 83.933064 56.698679 
L 84.136573 53.464453 
L 84.272246 55.865062 
L 84.407918 50.470088 
L 84.611428 58.136956 
L 84.882773 53.145337 
L 85.018446 59.006079 
L 85.086282 64.017471 
L 85.154119 62.79698 
L 85.221955 63.025974 
L 85.832482 36.658139 
L 85.900319 37.922216 
L 86.103828 32.670923 
L 86.375174 44.334508 
L 86.44301 40.105539 
L 86.714356 49.046676 
L 86.782192 44.231274 
L 86.850028 45.219558 
L 86.985701 44.350843 
L 87.053537 47.663636 
L 87.121374 47.472015 
L 87.18921 46.708679 
L 87.324883 42.13202 
L 87.392719 42.334993 
L 87.460556 42.278661 
L 87.799738 53.102396 
L 87.867574 52.212082 
L 87.93541 51.746226 
L 88.003247 51.972887 
L 88.206756 56.744881 
L 88.274592 58.988474 
L 88.545938 49.648584 
L 88.613774 50.106413 
L 88.749447 57.560371 
L 89.020793 69.541049 
L 89.088629 66.617975 
L 89.156465 70.270538 
L 89.224302 69.615875 
L 89.292138 70.527922 
L 89.495647 76.337892 
L 89.563484 76.481308 
L 89.63132 72.590647 
L 89.699157 73.791745 
L 89.766993 72.982542 
L 89.834829 76.037187 
L 89.902666 71.92801 
L 89.970502 74.510584 
L 90.038338 73.878256 
L 90.106175 74.187696 
L 90.174011 76.751875 
L 90.37752 68.961532 
L 90.445357 71.712653 
L 90.513193 70.100534 
L 90.58103 69.109163 
L 90.648866 69.700796 
L 90.784539 67.413285 
L 90.852375 64.800832 
L 90.920211 64.902975 
L 91.055884 66.295991 
L 91.191557 64.876025 
L 91.259393 64.993117 
L 91.32723 65.506251 
L 91.462903 63.421153 
L 91.734248 51.628814 
L 91.802084 50.734434 
L 91.869921 51.599812 
L 92.07343 58.276126 
L 92.141266 58.053486 
L 92.209103 59.570334 
L 92.276939 63.887581 
L 92.412612 55.605857 
L 92.480448 61.33417 
L 92.548285 59.489279 
L 92.616121 60.294474 
L 92.683958 58.875171 
L 92.751794 60.51296 
L 92.81963 59.770633 
L 92.887467 60.537733 
L 92.955303 59.15013 
L 93.023139 63.899979 
L 93.090976 57.833947 
L 93.158812 57.897389 
L 93.226649 56.833236 
L 93.294485 60.18977 
L 93.362321 58.301125 
L 93.430158 58.288788 
L 93.497994 59.237297 
L 93.565831 56.951324 
L 93.701503 60.632412 
L 93.76934 59.045136 
L 93.837176 57.398769 
L 94.176358 67.038305 
L 94.244194 65.20344 
L 94.312031 65.592303 
L 94.379867 65.66901 
L 94.583376 57.027764 
L 94.651213 56.905887 
L 94.786885 54.870473 
L 95.126067 61.642083 
L 95.26174 65.243282 
L 95.329577 63.533155 
L 95.397413 57.415304 
L 95.465249 58.154114 
L 95.736595 51.116918 
L 95.804431 54.286855 
L 96.00794 48.09462 
L 96.075777 49.369661 
L 96.143613 44.687038 
L 96.21145 44.745928 
L 96.347122 46.022201 
L 96.414959 45.18524 
L 96.482795 47.424092 
L 96.550632 46.914863 
L 96.618468 44.669321 
L 96.754141 47.147059 
L 96.889813 44.072177 
L 97.025486 49.681366 
L 97.093323 49.840026 
L 97.161159 56.269342 
L 97.228995 54.616767 
L 97.432505 45.247821 
L 97.500341 45.40123 
L 97.568177 44.759374 
L 97.636014 47.58298 
L 97.70385 47.548383 
L 97.839523 46.936756 
L 97.907359 45.467706 
L 97.975196 45.823255 
L 98.110868 47.687101 
L 98.314378 45.618244 
L 98.382214 46.832198 
L 98.45005 45.34866 
L 98.585723 48.568001 
L 98.721396 47.973398 
L 98.924905 49.762152 
L 98.992741 50.080286 
L 99.060578 47.978456 
L 99.331923 62.144054 
L 99.467596 61.171286 
L 99.535433 64.050768 
L 99.806778 56.399476 
L 99.942451 51.242723 
L 100.010287 52.465046 
L 100.078124 52.978955 
L 100.14596 49.527787 
L 100.213796 52.005582 
L 100.281633 51.27013 
L 100.417306 50.254076 
L 100.552978 46.028692 
L 100.824324 55.752167 
L 100.959997 56.27885 
L 101.027833 58.962163 
L 101.163506 54.912863 
L 101.367015 62.312898 
L 101.434851 61.262981 
L 101.502688 61.27715 
L 101.570524 65.298809 
L 101.63836 64.283923 
L 101.706197 66.278467 
L 101.774033 63.848335 
L 101.909706 65.681304 
L 101.977542 65.891664 
L 102.045379 63.234205 
L 102.113215 63.430749 
L 102.181052 66.505603 
L 102.248888 62.701724 
L 102.316724 64.23818 
L 102.384561 61.499739 
L 102.452397 66.06491 
L 102.655906 58.439375 
L 102.723743 57.462034 
L 102.791579 58.235577 
L 102.859415 57.921252 
L 102.927252 54.663645 
L 102.995088 56.720144 
L 103.130761 58.355676 
L 103.198597 58.932408 
L 103.266434 63.892606 
L 103.33427 63.616267 
L 103.402107 63.970876 
L 103.469943 62.018358 
L 103.537779 65.867627 
L 103.741288 58.584305 
L 103.809125 58.205069 
L 103.876961 61.067095 
L 104.012634 54.906071 
L 104.08047 54.916986 
L 104.148307 55.835536 
L 104.216143 58.839806 
L 104.419652 50.832554 
L 104.623161 54.910619 
L 104.690998 52.241317 
L 104.758834 52.726055 
L 104.826671 52.817756 
L 104.894507 52.526977 
L 105.233689 59.898186 
L 105.301525 56.779201 
L 105.369362 57.279607 
L 105.437198 56.971626 
L 105.572871 51.921057 
L 105.77638 57.198955 
L 105.844216 53.959666 
L 105.912053 58.097498 
L 105.979889 57.933247 
L 106.115562 60.21111 
L 106.251235 50.517733 
L 106.319071 52.604598 
L 106.386908 53.995374 
L 106.454744 53.301555 
L 106.590417 51.390462 
L 106.658253 46.527706 
L 106.726089 46.827481 
L 106.861762 50.805256 
L 106.997435 45.861404 
L 107.065271 48.94696 
L 107.200944 44.153508 
L 107.268781 44.570532 
L 107.404453 48.806035 
L 107.607962 41.899016 
L 107.879308 53.123123 
L 108.014981 50.265205 
L 108.150654 48.148288 
L 108.21849 48.304704 
L 108.286326 49.761184 
L 108.421999 44.894781 
L 108.489835 47.899745 
L 108.625508 39.407866 
L 108.693345 42.151927 
L 108.829017 40.592431 
L 109.032527 45.473059 
L 109.168199 38.317321 
L 109.371709 45.941969 
L 109.507381 44.032858 
L 109.846563 54.105743 
L 109.982236 48.594974 
L 110.050072 53.058023 
L 110.117909 53.006537 
L 110.253582 43.671506 
L 110.321418 45.06949 
L 110.524927 53.765493 
L 110.592763 54.062552 
L 110.6606 50.715123 
L 110.728436 51.401286 
L 110.864109 49.489841 
L 110.999782 44.178127 
L 111.067618 44.879596 
L 111.203291 43.255385 
L 111.271127 41.794919 
L 111.474636 49.820981 
L 111.542473 47.039899 
L 111.610309 45.70576 
L 111.678146 46.104785 
L 111.745982 51.24794 
L 111.881655 43.27923 
L 112.017328 52.608459 
L 112.085164 50.961595 
L 112.153 50.748031 
L 112.35651 58.695792 
L 112.424346 58.142013 
L 112.560019 60.678617 
L 112.627855 60.29763 
L 112.695691 55.966035 
L 112.763528 56.512448 
L 112.831364 54.492121 
L 112.899201 54.548101 
L 113.034873 55.972709 
L 113.238383 49.102453 
L 113.441892 56.204631 
L 113.509728 54.130801 
L 113.713237 65.873317 
L 113.984583 56.379078 
L 114.391601 72.195965 
L 114.459437 69.285446 
L 114.527274 68.440016 
L 114.730783 60.771895 
L 114.798619 61.965477 
L 114.866456 60.531749 
L 115.002129 63.193995 
L 115.137801 60.38983 
L 115.273474 66.493021 
L 115.341311 61.935122 
L 115.409147 62.223479 
L 115.476983 63.068306 
L 115.54482 62.386413 
L 115.680492 57.975253 
L 115.748329 59.04127 
L 115.816165 55.569546 
L 115.884002 57.548533 
L 116.019674 56.765312 
L 116.087511 58.170667 
L 116.155347 54.666916 
L 116.223184 54.773758 
L 116.358856 55.899045 
L 116.426693 53.763514 
L 116.698038 63.268052 
L 116.833711 53.967092 
L 116.901547 56.390591 
L 116.969384 56.200048 
L 117.105057 54.862371 
L 117.172893 55.297116 
L 117.240729 53.329746 
L 117.308566 54.488259 
L 117.444238 57.355672 
L 117.512075 51.152966 
L 117.579911 51.788223 
L 117.647748 52.919977 
L 117.715584 52.581032 
L 117.78342 52.121329 
L 117.98693 57.34973 
L 118.122602 56.828535 
L 118.597457 43.294313 
L 118.665293 44.498778 
L 118.73313 49.454513 
L 118.800966 47.641473 
L 118.868803 48.485175 
L 118.936639 45.78663 
L 119.072312 48.941122 
L 119.140148 48.177185 
L 119.207985 49.461009 
L 119.275821 47.976593 
L 119.615003 54.212781 
L 119.682839 54.780859 
L 119.750676 56.819701 
L 119.818512 56.542483 
L 119.886348 51.601517 
L 119.954185 52.057615 
L 120.022021 50.573166 
L 120.089858 50.786064 
L 120.293367 63.797796 
L 120.361203 63.47689 
L 120.564712 67.250494 
L 120.700385 73.555065 
L 120.768221 73.455392 
L 120.836058 72.995416 
L 120.903894 76.226456 
L 120.971731 75.663913 
L 121.039567 77.371488 
L 121.107403 76.749293 
L 121.310912 74.084282 
L 121.378749 74.377899 
L 121.446585 73.814622 
L 121.514422 75.054796 
L 121.582258 73.6883 
L 121.785767 78.1171 
L 121.989276 82.32452 
L 122.057113 80.901177 
L 122.124949 81.64251 
L 122.260622 82.79534 
L 122.396295 87.254729 
L 122.531967 87.966744 
L 122.599804 87.900924 
L 122.66764 90.200327 
L 122.735477 89.945723 
L 123.142495 75.669244 
L 123.210331 77.251119 
L 123.278168 76.42014 
L 123.41384 72.391903 
L 123.481677 73.003595 
L 123.753022 62.825542 
L 124.160041 46.840991 
L 124.227877 46.606647 
L 124.295713 45.269725 
L 124.36355 45.634856 
L 124.431386 45.591282 
L 124.499223 46.824455 
L 124.567059 42.657139 
L 124.634895 42.842435 
L 124.838405 50.00706 
L 125.041914 45.0193 
L 125.177587 49.729348 
L 125.245423 48.21158 
L 125.313259 49.224393 
L 125.516768 42.588708 
L 125.652441 40.823351 
L 125.720278 40.957688 
L 125.923787 33.295729 
L 126.05946 36.166422 
L 126.127296 36.045272 
L 126.195132 36.600458 
L 126.330805 43.338901 
L 126.398641 43.538466 
L 126.466478 45.870005 
L 126.534314 45.78259 
L 126.602151 45.26901 
L 126.80566 53.870796 
L 126.873496 51.618118 
L 126.941333 52.294137 
L 127.009169 53.626693 
L 127.077005 50.253397 
L 127.144842 51.570993 
L 127.212678 51.70156 
L 127.416187 58.968778 
L 127.484024 59.158234 
L 127.687533 66.074374 
L 127.755369 64.943121 
L 127.891042 57.940012 
L 128.026715 62.660011 
L 128.230224 56.564288 
L 128.29806 55.726412 
L 128.433733 61.191156 
L 128.501569 58.456998 
L 128.569406 58.629984 
L 128.772915 61.617776 
L 128.840751 60.983793 
L 128.976424 64.286519 
L 129.044261 63.904431 
L 129.112097 63.992806 
L 129.24777 69.958662 
L 129.451279 59.773551 
L 129.519115 55.886567 
L 129.586952 58.621955 
L 129.654788 56.920266 
L 129.722624 55.419502 
L 129.790461 50.060339 
L 129.858297 50.455852 
L 130.061806 53.438335 
L 130.197479 43.193719 
L 130.265315 44.486321 
L 130.333152 41.42777 
L 130.468825 46.750168 
L 130.536661 46.622251 
L 130.672334 43.881905 
L 130.808007 45.555118 
L 130.875843 45.736947 
L 130.943679 47.105572 
L 131.011516 45.731316 
L 131.079352 46.115112 
L 131.147188 46.198622 
L 131.215025 49.896265 
L 131.282861 49.167572 
L 131.418534 43.359122 
L 131.68988 52.048732 
L 131.825552 43.813293 
L 131.893389 45.854729 
L 131.961225 44.931692 
L 132.029062 39.090826 
L 132.096898 41.400738 
L 132.232571 45.16994 
L 132.368243 42.662267 
L 132.43608 42.716336 
L 132.503916 41.920007 
L 132.707425 34.467174 
L 132.775262 33.364749 
L 132.843098 34.251659 
L 132.910935 40.314513 
L 132.978771 38.623096 
L 133.046607 40.066696 
L 133.18228 49.3826 
L 133.250116 49.186788 
L 133.385789 46.747479 
L 133.521462 47.8668 
L 133.657135 53.714346 
L 133.724971 54.047282 
L 133.792808 53.153122 
L 133.92848 55.776428 
L 133.996317 59.74768 
L 134.064153 58.965289 
L 134.335499 48.617894 
L 134.539008 42.825056 
L 134.606844 43.013076 
L 134.674681 44.130562 
L 134.742517 42.15828 
L 134.810353 45.579698 
L 134.946026 42.78635 
L 135.081699 43.925459 
L 135.217372 50.442347 
L 135.353044 48.752216 
L 135.420881 49.363933 
L 135.488717 49.263048 
L 135.827899 40.576171 
L 136.167081 51.402777 
L 136.234917 53.284209 
L 136.302754 51.809115 
L 136.37059 52.718061 
L 136.438427 52.79328 
L 136.574099 49.832849 
L 136.777609 42.020297 
L 136.845445 42.192126 
L 136.981118 45.336555 
L 137.11679 44.152184 
L 137.184627 44.846415 
L 137.3203 41.56508 
L 137.455972 44.358792 
L 137.591645 55.751083 
L 137.659482 54.071648 
L 137.727318 53.683878 
L 137.795154 59.148757 
L 137.862991 57.651069 
L 137.930827 58.67079 
L 137.998664 58.224472 
L 138.0665 58.47133 
L 138.134336 62.125257 
L 138.202173 60.353308 
L 138.337845 57.051368 
L 138.405682 59.820827 
L 138.473518 54.921465 
L 138.541355 55.330887 
L 138.609191 56.477701 
L 138.744864 53.369149 
L 138.8127 57.628584 
L 138.880537 57.608072 
L 138.948373 55.004686 
L 139.016209 55.362465 
L 139.151882 62.356976 
L 139.219718 60.266031 
L 139.287555 60.007633 
L 139.355391 60.237318 
L 139.491064 62.344407 
L 139.5589 62.207456 
L 139.626737 62.701175 
L 139.694573 62.66146 
L 139.76241 59.110405 
L 139.830246 59.166422 
L 139.898082 59.222374 
L 139.965919 58.733685 
L 140.101591 66.922174 
L 140.169428 66.897036 
L 140.237264 67.139518 
L 140.440773 64.118649 
L 140.576446 63.120307 
L 140.779955 68.768981 
L 140.847792 68.627717 
L 141.051301 64.266755 
L 141.25481 69.339801 
L 141.322646 70.878898 
L 141.390483 69.864832 
L 141.458319 71.313198 
L 141.526156 66.693724 
L 141.593992 68.150488 
L 141.729665 75.470184 
L 141.797501 75.032207 
L 141.865338 79.777231 
L 141.933174 79.706261 
L 142.00101 79.728089 
L 142.204519 82.532404 
L 142.272356 78.716722 
L 142.340192 82.191214 
L 142.475865 74.417771 
L 142.543701 74.827637 
L 142.611538 79.236542 
L 142.679374 78.650393 
L 142.747211 78.862315 
L 142.815047 75.567087 
L 142.882883 79.452906 
L 142.95072 78.999633 
L 143.018556 76.141743 
L 143.086392 76.639394 
L 143.154229 78.794357 
L 143.222065 77.796589 
L 143.289902 76.877134 
L 143.425574 79.873772 
L 143.493411 79.938953 
L 143.764756 71.042365 
L 143.832593 70.261527 
L 143.968265 73.205774 
L 144.103938 70.25988 
L 144.307447 65.421314 
L 144.44312 67.497968 
L 144.578793 66.796971 
L 144.850139 64.126496 
L 144.917975 69.448873 
L 144.985811 66.904082 
L 145.053648 66.526679 
L 145.18932 60.616819 
L 145.257157 60.625072 
L 145.324993 59.466458 
L 145.39283 61.220558 
L 145.460666 60.163539 
L 145.528502 60.57605 
L 145.596339 58.995066 
L 145.799848 66.669729 
L 145.867684 67.801946 
L 145.935521 64.329015 
L 146.003357 64.680407 
L 146.071193 64.040635 
L 146.206866 68.305936 
L 146.274703 63.964221 
L 146.342539 64.070799 
L 146.478212 65.334349 
L 146.546048 65.302526 
L 146.613885 63.728688 
L 146.681721 66.517836 
L 146.749557 65.935867 
L 146.817394 66.32466 
L 146.88523 63.875437 
L 146.953066 65.487889 
L 147.020903 70.95728 
L 147.088739 66.48472 
L 147.156576 68.007121 
L 147.224412 68.461752 
L 147.292248 69.768374 
L 147.427921 68.057621 
L 147.563594 74.378119 
L 147.902776 64.085068 
L 147.970612 65.408678 
L 148.106285 60.577963 
L 148.174121 62.4205 
L 148.241958 61.828838 
L 148.309794 56.50646 
L 148.377631 58.20556 
L 148.445467 55.398913 
L 148.513303 58.855033 
L 148.58114 57.911851 
L 148.784649 53.539466 
L 148.920322 57.139182 
L 149.191667 45.734655 
L 149.259504 45.658889 
L 149.32734 44.686366 
L 149.395176 41.358557 
L 149.463013 41.722812 
L 149.530849 41.305452 
L 149.598686 43.495776 
L 149.666522 42.431997 
L 149.937867 34.498713 
L 150.005704 35.992692 
L 150.141377 33.473038 
L 150.209213 28.114386 
L 150.344886 33.522819 
L 150.412722 27.967976 
L 150.480559 30.463976 
L 150.616231 34.046329 
L 150.684068 32.536877 
L 150.751904 33.571812 
L 150.819741 33.231282 
L 150.955413 27.078436 
L 151.02325 29.365307 
L 151.091086 29.671508 
L 151.226759 33.961051 
L 151.294595 34.233701 
L 151.430268 32.493241 
L 151.498104 33.075699 
L 151.565941 32.12811 
L 151.633777 32.394995 
L 151.837286 39.513869 
L 151.905123 37.774703 
L 151.972959 39.595659 
L 152.040795 34.973652 
L 152.176468 40.110551 
L 152.312141 37.481506 
L 152.447814 41.57979 
L 152.51565 40.772683 
L 152.651323 41.773865 
L 152.854832 48.379403 
L 152.990505 49.482434 
L 153.194014 55.452395 
L 153.601032 67.101126 
L 153.668869 65.208515 
L 153.736705 65.923824 
L 153.872378 72.584884 
L 153.940214 71.941412 
L 154.143723 64.041147 
L 154.21156 63.471133 
L 154.279396 64.983366 
L 154.347233 64.763083 
L 154.415069 63.478213 
L 154.550742 69.535921 
L 154.618578 63.529133 
L 154.686415 65.006425 
L 154.889924 60.939304 
L 155.025596 62.700978 
L 155.161269 59.507803 
L 155.229106 60.234461 
L 155.296942 62.930644 
L 155.364778 58.942861 
L 155.500451 61.802745 
L 155.568288 61.844013 
L 155.636124 63.49075 
L 155.70396 59.330993 
L 155.771797 61.109945 
L 155.907469 65.611574 
L 155.975306 70.313299 
L 156.043142 68.829859 
L 156.178815 65.806178 
L 156.246651 66.217794 
L 156.450161 60.227623 
L 156.517997 64.306801 
L 156.65367 58.690234 
L 156.789342 60.024516 
L 156.857179 58.17257 
L 156.992852 51.601686 
L 157.196361 54.499788 
L 157.264197 54.10101 
L 157.332034 50.095925 
L 157.39987 52.364541 
L 157.467706 52.168724 
L 157.603379 56.650456 
L 157.671216 56.246429 
L 157.739052 58.458093 
L 157.942561 49.707766 
L 158.010397 55.201177 
L 158.078234 50.885853 
L 158.213907 59.916547 
L 158.281743 59.888502 
L 158.349579 58.508189 
L 158.485252 62.347029 
L 158.553089 61.784357 
L 158.688761 60.330672 
L 158.756598 60.307634 
L 158.960107 55.817353 
L 159.027943 56.216202 
L 159.09578 59.935958 
L 159.231452 52.300517 
L 159.299289 52.537674 
L 159.367125 52.607265 
L 159.434962 53.751218 
L 159.570634 57.713649 
L 159.706307 55.921333 
L 159.774143 49.48082 
L 159.84198 53.897029 
L 159.909816 51.895602 
L 159.977653 50.683703 
L 160.045489 53.875368 
L 160.113325 53.743534 
L 160.248998 48.992256 
L 160.384671 57.482124 
L 160.58818 44.642937 
L 160.656017 45.430127 
L 160.791689 50.759308 
L 160.859526 49.76439 
L 160.927362 50.206808 
L 160.995198 47.113165 
L 161.063035 48.224272 
L 161.198708 48.663209 
L 161.266544 46.621751 
L 161.33438 50.478914 
L 161.402217 47.155985 
L 161.470053 49.426566 
L 161.53789 44.738959 
L 161.605726 44.84956 
L 161.673562 45.407616 
L 161.877071 41.921329 
L 161.944908 42.416497 
L 162.012744 42.214812 
L 162.080581 41.85901 
L 162.351926 45.677651 
L 162.487599 38.401981 
L 162.555435 40.052467 
L 162.623272 41.919835 
L 162.691108 41.575993 
L 162.758944 41.654014 
L 162.962454 33.221937 
L 163.03029 34.227437 
L 163.098126 34.152146 
L 163.233799 39.444194 
L 163.301636 40.571822 
L 163.369472 44.840761 
L 163.437308 44.833296 
L 163.505145 43.500634 
L 163.640818 49.812672 
L 163.77649 46.653588 
L 163.979999 59.419405 
L 164.047836 55.686845 
L 164.115672 57.432975 
L 164.251345 59.995247 
L 164.319181 58.271905 
L 164.387018 60.880869 
L 164.454854 60.249111 
L 164.522691 59.929803 
L 164.794036 70.054229 
L 164.861872 69.294946 
L 164.929709 75.322148 
L 164.997545 71.872403 
L 165.065382 71.386422 
L 165.133218 72.048764 
L 165.268891 70.869386 
L 165.404564 74.030676 
L 165.4724 73.377524 
L 165.540236 73.812153 
L 165.608073 76.9942 
L 165.743745 71.804651 
L 166.015091 83.355064 
L 166.082927 82.286822 
L 166.150764 80.207297 
L 166.286437 88.079695 
L 166.354273 86.140387 
L 166.693455 79.908206 
L 166.761291 79.750173 
L 166.9648 74.815697 
L 167.032637 76.073665 
L 167.16831 78.624944 
L 167.236146 76.04335 
L 167.303982 76.317008 
L 167.371819 75.427287 
L 167.439655 79.077215 
L 167.507492 78.250023 
L 167.643164 77.214965 
L 167.711001 77.9346 
L 168.050183 66.225882 
L 168.253692 68.430627 
L 168.457201 58.059144 
L 168.592874 58.963714 
L 168.66071 58.580876 
L 168.864219 51.660854 
L 168.932056 54.784999 
L 168.999892 54.545042 
L 169.203401 52.384322 
L 169.271238 55.096369 
L 169.339074 53.497345 
L 169.40691 50.699012 
L 169.474747 52.837708 
L 169.542583 52.590397 
L 169.610419 52.09682 
L 169.678256 52.161065 
L 169.813929 53.657681 
L 169.881765 56.572678 
L 170.017438 51.784014 
L 170.085274 54.323692 
L 170.153111 53.758009 
L 170.220947 53.683386 
L 170.35662 56.733108 
L 170.560129 49.294185 
L 170.627965 51.650455 
L 170.967147 37.086231 
L 171.034984 38.978803 
L 171.10282 35.181537 
L 171.306329 42.443253 
L 171.374166 40.276009 
L 171.442002 41.216845 
L 171.509838 40.561353 
L 171.577675 35.479536 
L 171.84902 49.492929 
L 171.916857 49.137813 
L 171.984693 49.44747 
L 172.120366 55.207361 
L 172.188202 52.974975 
L 172.256039 52.651676 
L 172.391711 49.842032 
L 172.459548 51.405441 
L 172.663057 45.700432 
L 172.730893 46.006105 
L 172.79873 47.91093 
L 172.866566 44.212774 
L 172.934402 45.73433 
L 173.002239 43.799393 
L 173.070075 43.876492 
L 173.137912 45.503041 
L 173.205748 45.394552 
L 173.273584 44.45574 
L 173.477094 39.867327 
L 173.54493 41.121094 
L 173.612766 37.029517 
L 173.680603 38.704359 
L 174.019785 32.383268 
L 174.087621 31.882698 
L 174.223294 35.775835 
L 174.29113 33.541036 
L 174.358967 34.932271 
L 174.494639 41.105942 
L 174.630312 40.132976 
L 174.765985 36.854235 
L 174.833821 37.195253 
L 175.03733 32.729065 
L 175.512185 16.088052 
L 175.851367 23.024949 
L 175.919203 22.857195 
L 175.98704 23.206297 
L 176.054876 24.19267 
L 176.326222 18.299056 
L 176.529731 21.519973 
L 176.597567 22.032866 
L 176.665404 21.777082 
L 176.801076 27.169435 
L 176.868913 26.702681 
L 176.936749 23.114502 
L 177.004586 28.159778 
L 177.072422 25.6232 
L 177.140258 24.253173 
L 177.343768 34.257713 
L 177.750786 42.998772 
L 177.886459 35.293372 
L 178.089968 40.94637 
L 178.157804 42.997331 
L 178.225641 42.960506 
L 178.42915 38.637705 
L 178.836168 51.964657 
L 178.904004 51.729055 
L 178.971841 49.342702 
L 179.039677 49.725647 
L 179.107514 49.992112 
L 179.311023 46.209466 
L 179.582368 52.12347 
L 179.718041 58.517606 
L 179.92155 59.942712 
L 180.125059 50.308102 
L 180.192896 51.934974 
L 180.396405 46.388731 
L 180.532078 49.863462 
L 180.599914 48.719152 
L 180.803423 51.18347 
L 180.87126 48.787138 
L 180.939096 48.978273 
L 181.074769 52.913093 
L 181.142605 50.747398 
L 181.278278 53.828129 
L 181.481787 47.305389 
L 181.956642 61.731931 
L 182.024478 61.286387 
L 182.227987 56.440212 
L 182.36366 59.32309 
L 182.499333 55.139145 
L 182.567169 60.426974 
L 182.635006 58.973497 
L 182.838515 59.59416 
L 183.042024 50.960339 
L 183.10986 52.088954 
L 183.245533 45.72156 
L 183.31337 46.239011 
L 183.381206 46.089009 
L 183.856061 54.496347 
L 183.991733 53.006527 
L 184.05957 53.30067 
L 184.195243 46.737676 
L 184.263079 46.925028 
L 184.330915 46.589411 
L 184.466588 42.601152 
L 184.534424 44.882875 
L 184.602261 41.544816 
L 184.80577 47.711739 
L 184.873606 47.230169 
L 184.941443 44.223856 
L 185.009279 44.364237 
L 185.212788 46.617819 
L 185.348461 42.593931 
L 185.484134 43.36257 
L 185.687643 33.081967 
L 185.755479 33.295 
L 185.823316 35.786347 
L 185.891152 34.307706 
L 185.958989 34.57027 
L 186.230334 27.675684 
L 186.366007 33.838116 
L 186.50168 29.668059 
L 186.637352 33.706245 
L 186.705189 28.82972 
L 186.773025 31.404001 
L 186.976534 36.790421 
L 187.044371 32.966398 
L 187.180044 38.115398 
L 187.24788 34.654234 
L 187.315716 35.69401 
L 187.383553 36.106172 
L 187.451389 35.178902 
L 187.519225 38.084022 
L 187.587062 37.964797 
L 187.654898 37.665059 
L 187.858407 33.322786 
L 187.926244 31.067367 
L 187.99408 35.30003 
L 188.061917 32.615936 
L 188.129753 33.764678 
L 188.197589 30.052536 
L 188.265426 31.99101 
L 188.333262 34.697026 
L 188.401098 34.137114 
L 188.468935 34.477137 
L 188.604608 30.827313 
L 188.672444 30.363804 
L 188.875953 34.73993 
L 188.94379 35.461942 
L 189.147299 41.28576 
L 189.215135 40.125859 
L 189.486481 52.207504 
L 189.554317 51.81672 
L 189.68999 52.302027 
L 189.757826 49.57667 
L 189.825663 53.823361 
L 189.893499 49.964509 
L 189.961335 50.959943 
L 190.029172 50.214126 
L 190.097008 55.574118 
L 190.164845 54.17966 
L 190.232681 53.342102 
L 190.300517 55.187826 
L 190.368354 50.349051 
L 190.43619 51.14271 
L 190.504026 50.591719 
L 190.571863 51.19126 
L 190.775372 56.252247 
L 190.843208 57.333013 
L 190.978881 52.837212 
L 191.046718 52.422895 
L 191.453736 62.465176 
L 191.521572 58.242425 
L 191.589409 59.496598 
L 191.657245 59.577577 
L 191.860754 51.081607 
L 191.928591 54.380004 
L 191.996427 50.385275 
L 192.064263 50.609206 
L 192.1321 49.545554 
L 192.199936 50.734305 
L 192.267772 47.471455 
L 192.403445 52.941306 
L 192.471282 52.312011 
L 192.539118 52.535122 
L 192.606954 54.634241 
L 192.674791 54.074494 
L 192.8783 45.308898 
L 192.946136 48.559461 
L 193.013973 47.776443 
L 193.081809 45.688653 
L 193.149646 46.698572 
L 193.217482 47.439398 
L 193.285318 51.003078 
L 193.353155 49.364328 
L 193.420991 48.548063 
L 193.488827 46.104908 
L 193.556664 46.595072 
L 193.6245 49.464919 
L 193.692337 46.347318 
L 193.828009 54.108229 
L 193.895846 49.513507 
L 193.963682 50.241576 
L 194.031519 50.781863 
L 194.167191 48.010872 
L 194.235028 46.524425 
L 194.438537 56.837654 
L 194.506373 55.50047 
L 194.57421 57.211255 
L 194.642046 51.698641 
L 194.709882 53.11845 
L 194.777719 53.807416 
L 194.845555 51.165736 
L 194.981228 56.20009 
L 195.184737 52.392837 
L 195.252573 52.808222 
L 195.32041 51.755291 
L 195.456083 55.50027 
L 195.795265 47.646313 
L 195.863101 50.29605 
L 195.930937 45.558677 
L 195.998774 45.765946 
L 196.270119 51.43028 
L 196.337956 50.194607 
L 196.405792 48.517022 
L 196.541465 50.887014 
L 196.609301 50.628749 
L 196.744974 46.229054 
L 196.81281 46.339375 
L 196.880647 48.084099 
L 196.948483 47.182552 
L 197.151992 44.020516 
L 197.219829 44.005546 
L 197.287665 47.873689 
L 197.355501 46.824957 
L 197.626847 37.041515 
L 197.76252 29.619878 
L 197.830356 29.886027 
L 197.898193 33.910108 
L 197.966029 30.265285 
L 198.033865 35.900864 
L 198.169538 27.232025 
L 198.237374 28.403061 
L 198.305211 25.416738 
L 198.373047 26.44477 
L 198.440884 28.510636 
L 198.50872 26.955899 
L 198.644393 33.348706 
L 198.712229 32.935573 
L 198.780066 33.106212 
L 199.187084 43.363779 
L 199.661939 32.086167 
L 199.729775 32.075938 
L 199.797611 35.221158 
L 200.001121 29.077635 
L 200.068957 28.582975 
L 200.136793 32.363205 
L 200.20463 30.457131 
L 200.272466 28.97662 
L 200.340302 30.798755 
L 200.408139 30.613526 
L 200.679484 23.682848 
L 200.747321 23.493243 
L 201.154339 34.932721 
L 201.290012 29.479655 
L 201.425685 30.667663 
L 201.900539 46.700851 
L 201.968376 43.959328 
L 202.171885 39.30714 
L 202.375394 46.027762 
L 202.44323 45.169648 
L 202.511067 43.011941 
L 202.714576 48.291584 
L 202.782412 47.561004 
L 202.850249 48.020127 
L 202.985922 46.380162 
L 203.053758 48.505276 
L 203.121594 47.998161 
L 203.257267 45.615991 
L 203.460776 49.216474 
L 203.596449 45.854803 
L 203.664285 47.861884 
L 203.732122 46.619126 
L 203.799958 44.726912 
L 204.071304 53.93701 
L 204.13914 54.094875 
L 204.342649 50.885564 
L 204.546158 49.406528 
L 204.613995 50.216599 
L 204.749668 48.573015 
L 204.817504 48.567143 
L 204.88534 48.829401 
L 204.953177 54.249137 
L 205.156686 47.546299 
L 205.224522 48.067215 
L 205.292359 47.237666 
L 205.360195 47.855952 
L 205.428031 46.928383 
L 205.631541 42.586621 
L 206.106395 33.456394 
L 206.377741 38.671842 
L 206.58125 34.102854 
L 206.649086 34.795134 
L 206.716923 34.759958 
L 206.784759 37.789201 
L 206.852596 37.33951 
L 206.920432 38.650791 
L 207.191777 47.568586 
L 207.259614 47.662378 
L 207.395287 42.27512 
L 207.463123 44.455663 
L 207.530959 45.410631 
L 207.598796 48.193857 
L 207.666632 43.875432 
L 207.734469 47.799479 
L 207.802305 47.226018 
L 207.870141 46.372017 
L 207.937978 47.717443 
L 208.005814 46.738808 
L 208.07365 50.245839 
L 208.209323 45.331384 
L 208.27716 47.668084 
L 208.480669 43.685731 
L 208.548505 44.863796 
L 208.684178 36.473752 
L 208.887687 42.785723 
L 208.955524 41.242956 
L 209.02336 43.651511 
L 209.091196 42.555021 
L 209.226869 44.888514 
L 209.430378 37.336244 
L 209.566051 40.123427 
L 209.633887 39.820647 
L 209.701724 43.219334 
L 209.76956 41.027945 
L 210.040906 48.705828 
L 210.108742 47.884076 
L 210.176578 41.865859 
L 210.244415 45.410869 
L 210.312251 45.694064 
L 210.447924 43.55528 
L 210.651433 35.524389 
L 210.787106 37.95395 
L 210.990615 26.350151 
L 211.058451 28.416071 
L 211.126288 26.714314 
L 211.194124 26.826055 
L 211.533306 32.723655 
L 211.601143 31.383701 
L 211.668979 26.801478 
L 211.736815 27.618108 
L 211.872488 30.959842 
L 211.940325 28.882014 
L 212.075997 33.096158 
L 212.143834 31.478235 
L 212.415179 36.979321 
L 212.483016 36.713898 
L 212.550852 36.126196 
L 212.686525 38.733599 
L 212.754361 37.982148 
L 212.890034 40.52606 
L 213.093543 35.708605 
L 213.229216 37.209157 
L 213.297052 36.342883 
L 213.432725 38.591969 
L 213.500561 37.374858 
L 213.568398 41.145351 
L 213.636234 39.594967 
L 213.90758 46.147336 
L 213.975416 42.237767 
L 214.043252 46.217495 
L 214.111089 46.103715 
L 214.178925 46.34151 
L 214.246762 47.31586 
L 214.382434 53.836663 
L 214.518107 50.071081 
L 214.585944 52.18108 
L 214.925125 41.203847 
L 215.060798 49.164316 
L 215.128635 48.713266 
L 215.196471 48.082966 
L 215.603489 59.526197 
L 215.806999 55.201043 
L 215.942671 57.058553 
L 216.078344 55.414823 
L 216.214017 62.93943 
L 216.281853 57.758339 
L 216.34969 58.717036 
L 216.417526 57.910383 
L 216.553199 63.39618 
L 216.621035 63.22675 
L 216.688872 65.091553 
L 216.756708 62.506181 
L 216.824544 62.548201 
L 216.892381 66.231584 
L 216.960217 64.627792 
L 217.028053 64.73156 
L 217.09589 63.903553 
L 217.163726 61.338398 
L 217.231563 61.506322 
L 217.299399 61.603059 
L 217.367235 64.177106 
L 217.502908 60.220307 
L 217.570745 59.6506 
L 217.638581 59.762367 
L 217.706417 59.472524 
L 217.977763 67.94922 
L 218.045599 65.149887 
L 218.113436 66.066059 
L 218.249108 68.056355 
L 218.316945 68.179687 
L 218.520454 65.442003 
L 218.656127 64.429023 
L 218.927472 55.611983 
L 218.995309 55.639424 
L 219.063145 57.061372 
L 219.130981 54.442604 
L 219.198818 56.963735 
L 219.266654 55.519808 
L 219.334491 55.364734 
L 219.402327 56.904811 
L 219.470163 56.096676 
L 219.538 54.606264 
L 219.809345 58.900205 
L 220.080691 52.448208 
L 220.216364 55.847877 
L 220.352036 52.188739 
L 220.419873 52.584907 
L 220.487709 51.852946 
L 220.826891 58.60129 
L 220.894727 58.413621 
L 220.962564 58.56401 
L 221.098237 60.51751 
L 221.233909 55.95359 
L 221.369582 56.705987 
L 221.573091 63.407178 
L 221.640928 61.180796 
L 221.708764 61.75801 
L 221.776601 62.911441 
L 221.844437 62.30831 
L 221.912273 63.318169 
L 222.047946 68.634471 
L 222.115782 67.648504 
L 222.251455 60.305803 
L 222.319292 60.531615 
L 222.387128 60.593496 
L 222.522801 63.499295 
L 222.590637 62.544368 
L 222.72631 64.128159 
L 222.794146 64.212375 
L 222.861983 69.460148 
L 222.929819 65.269119 
L 222.997655 65.336232 
L 223.133328 70.609261 
L 223.336837 62.52019 
L 223.404674 64.961894 
L 223.47251 64.670194 
L 223.540347 65.163821 
L 223.676019 60.25455 
L 223.947365 61.723475 
L 224.015201 59.637626 
L 224.083038 60.387485 
L 224.21871 59.291087 
L 224.42222 54.104723 
L 224.625729 57.365421 
L 224.829238 51.942186 
L 224.964911 52.570712 
L 225.100583 58.306644 
L 225.16842 55.350091 
L 225.236256 56.726669 
L 225.304093 57.251827 
L 225.371929 51.227459 
L 225.439765 51.377452 
L 225.507602 51.945721 
L 225.711111 58.123556 
L 225.778947 53.877263 
L 225.846784 54.168635 
L 225.91462 53.553778 
L 225.982456 54.166708 
L 226.118129 53.249745 
L 226.185966 54.645172 
L 226.253802 49.622915 
L 226.321638 51.005585 
L 226.592984 42.125368 
L 226.66082 44.533285 
L 226.728657 44.235287 
L 226.864329 45.416162 
L 226.932166 42.295158 
L 227.000002 44.139202 
L 227.135675 46.437018 
L 227.203511 44.093874 
L 227.271348 44.480751 
L 227.339184 44.948398 
L 227.407021 46.372245 
L 227.542693 42.678436 
L 227.678366 49.264293 
L 227.746202 49.489214 
L 227.814039 50.911517 
L 228.017548 47.651998 
L 228.085384 50.995295 
L 228.153221 48.055795 
L 228.221057 49.704197 
L 228.288894 49.348739 
L 228.424566 42.985961 
L 228.492403 43.96237 
L 228.628076 45.936755 
L 228.695912 44.362915 
L 228.763748 48.083829 
L 228.831585 44.05879 
L 228.899421 47.427823 
L 228.967257 45.608836 
L 229.170767 53.200705 
L 229.577785 36.72703 
L 229.645621 37.309243 
L 229.84913 43.253214 
L 229.916967 44.553341 
L 229.984803 48.037361 
L 230.05264 44.602066 
L 230.120476 48.436487 
L 230.188312 47.700537 
L 230.256149 46.001879 
L 230.391822 48.444587 
L 230.527494 46.147984 
L 230.595331 48.653194 
L 230.663167 47.870736 
L 230.731003 48.751784 
L 230.79884 48.41962 
L 230.866676 47.192167 
L 230.934513 48.478554 
L 231.002349 45.01046 
L 231.138022 50.418644 
L 231.205858 47.539796 
L 231.409367 51.173605 
L 231.477204 49.503361 
L 231.612877 54.835908 
L 231.748549 56.100214 
L 231.816386 59.908345 
L 231.884222 58.866427 
L 231.952058 59.878337 
L 232.019895 55.416045 
L 232.087731 56.388417 
L 232.155568 57.313152 
L 232.29124 56.181746 
L 232.359077 57.006159 
L 232.426913 54.170176 
L 232.49475 54.498672 
L 232.630422 54.890571 
L 232.833931 61.215623 
L 232.901768 60.186358 
L 232.969604 64.264055 
L 233.037441 64.199664 
L 233.105277 62.94577 
L 233.308786 65.850073 
L 233.512295 60.454195 
L 233.580132 59.302675 
L 233.851477 67.98821 
L 233.919314 65.156978 
L 233.98715 65.690139 
L 234.054986 68.193581 
L 234.190659 64.000407 
L 234.326332 67.364518 
L 234.394168 66.687464 
L 234.462005 64.240487 
L 234.529841 65.028795 
L 234.597678 68.090408 
L 234.665514 67.186463 
L 234.801187 64.118861 
L 234.869023 66.57012 
L 234.936859 65.625539 
L 235.343878 50.266117 
L 235.411714 55.734043 
L 235.479551 54.593446 
L 235.547387 55.245879 
L 235.615223 57.903421 
L 235.68306 57.855663 
L 235.750896 56.749256 
L 235.818732 58.763901 
L 235.886569 57.802667 
L 235.954405 54.756 
L 236.157914 58.615793 
L 236.225751 59.126733 
L 236.293587 62.754925 
L 236.361424 60.388177 
L 236.42926 62.010252 
L 236.497096 61.522402 
L 236.564933 61.694568 
L 236.632769 62.322593 
L 236.700605 58.964398 
L 236.971951 68.692943 
L 237.039787 68.4922 
L 237.107624 68.090372 
L 237.243297 61.716079 
L 237.311133 65.534364 
L 237.446806 59.410341 
L 237.514642 60.359126 
L 237.582478 60.723576 
L 237.650315 62.429811 
L 237.785988 58.32736 
L 237.853824 61.086031 
L 237.92166 60.111086 
L 238.057333 58.930689 
L 238.193006 59.075838 
L 238.260842 59.452182 
L 238.328679 57.6359 
L 238.667861 64.727367 
L 238.735697 65.159883 
L 238.939206 58.368038 
L 239.007043 58.308811 
L 239.074879 59.066948 
L 239.414061 52.315497 
L 239.481897 49.071598 
L 239.549734 49.700327 
L 239.61757 49.026437 
L 239.685406 45.801358 
L 239.753243 48.577026 
L 239.821079 46.809325 
L 239.888916 48.144264 
L 240.024588 46.2056 
L 240.092425 47.667804 
L 240.36377 37.224948 
L 240.499443 35.312421 
L 240.567279 38.070006 
L 240.635116 36.44034 
L 240.906461 39.801161 
L 241.042134 33.940875 
L 241.177807 41.184024 
L 241.245643 39.638076 
L 241.449153 34.623278 
L 241.516989 36.443939 
L 241.788334 30.006139 
L 241.856171 28.131218 
L 241.924007 28.490141 
L 242.127516 36.320148 
L 242.195353 35.665418 
L 242.263189 33.490763 
L 242.331026 34.076889 
L 242.398862 34.568697 
L 242.466698 32.643698 
L 242.534535 32.98415 
L 242.602371 35.041845 
L 242.670207 34.738665 
L 242.738044 34.34103 
L 242.873717 38.748491 
L 243.009389 34.653221 
L 243.077226 35.699353 
L 243.145062 32.50753 
L 243.212899 33.533607 
L 243.416408 29.657831 
L 243.687753 35.105942 
L 243.75559 35.502478 
L 243.823426 37.622684 
L 243.959099 31.769874 
L 244.026935 35.124628 
L 244.230444 28.966915 
L 244.298281 29.348385 
L 244.366117 32.785922 
L 244.433954 30.612811 
L 244.50179 30.71355 
L 244.637463 25.528807 
L 244.840972 30.183318 
L 244.908808 29.122167 
L 245.044481 25.498494 
L 245.180154 31.127559 
L 245.24799 35.285356 
L 245.519336 27.844572 
L 245.655008 37.04349 
L 245.790681 32.506449 
L 245.99419 36.384515 
L 246.062027 34.160289 
L 246.129863 37.630011 
L 246.1977 35.94966 
L 246.265536 34.341902 
L 247.011736 47.654284 
L 247.079573 46.777258 
L 247.554427 63.545566 
L 247.622264 69.113242 
L 247.757936 64.179336 
L 247.825773 65.482286 
L 247.893609 61.891631 
L 248.029282 66.108419 
L 248.097118 64.995663 
L 248.300628 60.669725 
L 248.4363 66.976669 
L 248.504137 63.558962 
L 248.571973 65.640331 
L 248.639809 65.839298 
L 248.843319 71.722923 
L 248.911155 72.020395 
L 248.978991 73.282115 
L 249.046828 69.739116 
L 249.114664 73.804882 
L 249.182501 73.711765 
L 249.250337 72.866247 
L 249.318173 76.029937 
L 249.521682 68.62647 
L 249.589519 69.999224 
L 249.657355 67.385025 
L 249.725192 68.768946 
L 249.793028 70.837614 
L 249.860864 68.921432 
L 249.928701 69.777865 
L 250.539228 55.434841 
L 250.674901 46.175542 
L 250.742737 49.259848 
L 250.810574 48.838574 
L 251.014083 38.300764 
L 251.081919 41.128241 
L 251.149756 40.170825 
L 251.217592 40.119958 
L 251.285429 43.473015 
L 251.488938 35.867509 
L 251.556774 38.881723 
L 251.62461 36.735198 
L 251.692447 40.298522 
L 251.760283 38.67387 
L 251.82812 39.073349 
L 251.895956 41.894999 
L 251.963792 40.664691 
L 252.031629 40.561972 
L 252.099465 42.971706 
L 252.235138 40.43201 
L 252.302974 40.683877 
L 252.506483 37.900425 
L 252.642156 40.380063 
L 252.709993 39.212012 
L 252.777829 40.039176 
L 252.981338 35.044283 
L 253.049175 37.495331 
L 253.184847 35.21041 
L 253.252684 37.832279 
L 253.388356 34.582956 
L 253.456193 33.721174 
L 253.591866 38.02314 
L 253.659702 35.294718 
L 253.863211 39.106358 
L 253.998884 40.001993 
L 254.06672 43.01759 
L 254.134557 42.204635 
L 254.202393 38.891777 
L 254.27023 42.132724 
L 254.338066 41.897833 
L 254.405902 39.378674 
L 254.473739 40.276214 
L 254.609411 43.750474 
L 254.745084 41.513305 
L 254.880757 45.281209 
L 254.948593 44.719279 
L 255.01643 47.748677 
L 255.084266 47.392689 
L 255.152103 44.055551 
L 255.219939 46.092971 
L 255.76263 29.099459 
L 255.966139 34.618982 
L 256.033976 30.612385 
L 256.101812 32.698448 
L 256.440994 47.250733 
L 256.50883 46.274768 
L 256.644503 41.59375 
L 256.780176 45.161234 
L 256.848012 44.894278 
L 256.915849 45.559966 
L 257.119358 40.948484 
L 257.255031 38.461114 
L 257.322867 39.998167 
L 257.390703 39.213769 
L 257.45854 38.557173 
L 257.526376 36.129996 
L 257.797722 42.460754 
L 258.001231 36.473408 
L 258.069067 37.65457 
L 258.136904 41.444106 
L 258.340413 34.386348 
L 258.408249 34.133651 
L 258.476085 32.067739 
L 258.543922 33.659232 
L 258.679595 29.210764 
L 258.883104 36.504073 
L 258.95094 37.249619 
L 259.018777 36.303162 
L 259.154449 39.828293 
L 259.222286 38.644709 
L 259.290122 38.887811 
L 259.493631 35.85661 
L 259.629304 32.093122 
L 259.69714 33.191085 
L 259.764977 31.731856 
L 259.968486 40.168572 
L 260.104159 38.375303 
L 260.171995 39.348417 
L 260.239831 42.788035 
L 260.307668 39.956585 
L 260.579013 50.513609 
L 260.579013 50.513609 
" clip-path="url(#p41e27f183d)" style="fill: none; stroke: #1f77b4; stroke-width: 2; stroke-linecap: square"/>
   </g>
   <g id="patch_3">
    <path d="M 46.965625 170.345096 
L 46.965625 8.742479 
" style="fill: none; stroke: #000000; stroke-width: 0.8; stroke-linejoin: miter; stroke-linecap: square"/>
   </g>
   <g id="patch_4">
    <path d="M 270.75108 170.345096 
L 270.75108 8.742479 
" style="fill: none; stroke: #000000; stroke-width: 0.8; stroke-linejoin: miter; stroke-linecap: square"/>
   </g>
   <g id="patch_5">
    <path d="M 46.965625 170.345096 
L 270.75108 170.345096 
" style="fill: none; stroke: #000000; stroke-width: 0.8; stroke-linejoin: miter; stroke-linecap: square"/>
   </g>
   <g id="patch_6">
    <path d="M 46.965625 8.742479 
L 270.75108 8.742479 
" style="fill: none; stroke: #000000; stroke-width: 0.8; stroke-linejoin: miter; stroke-linecap: square"/>
   </g>
  </g>
 </g>
 <defs>
  <clipPath id="p41e27f183d">
   <rect x="46.965625" y="8.742479" width="223.785455" height="161.602617"/>
  </clipPath>
 </defs>
</svg>
