<?xml version="1.0" encoding="utf-8" standalone="no"?>
<!DOCTYPE svg PUBLIC "-//W3C//DTD SVG 1.1//EN"
  "http://www.w3.org/Graphics/SVG/1.1/DTD/svg11.dtd">
<svg xmlns:xlink="http://www.w3.org/1999/xlink" width="285.834375pt" height="213.011875pt" viewBox="0 0 285.834375 213.011875" xmlns="http://www.w3.org/2000/svg" version="1.1">
 <metadata>
  <rdf:RDF xmlns:dc="http://purl.org/dc/elements/1.1/" xmlns:cc="http://creativecommons.org/ns#" xmlns:rdf="http://www.w3.org/1999/02/22-rdf-syntax-ns#">
   <cc:Work>
    <dc:type rdf:resource="http://purl.org/dc/dcmitype/StillImage"/>
    <dc:date>2026-02-22T16:37:32.625620</dc:date>
    <dc:format>image/svg+xml</dc:format>
    <dc:creator>
     <cc:Agent>
      <dc:title>Matplotlib v3.10.8, https://matplotlib.org/</dc:title>
     </cc:Agent>
    </dc:creator>
   </cc:Work>
  </rdf:RDF>
 </metadata>
 <defs>
  <style type="text/css">*{stroke-linejoin: round; stroke-linecap: butt}</style>
 </defs>
 <g id="figure_1">
  <g id="patch_1">
   <path d="M 0 213.011875 
L 285.834375 213.011875 
L 285.834375 0 
L 0 0 
z
" style="fill: #ffffff"/>
  </g>
  <g id="axes_1">
   <g id="patch_2">
    <path d="M 55.434375 173.52 
L 278.634375 173.52 
L 278.634375 7.2 
L 55.434375 7.2 
z
" style="fill: #ffffff"/>
   </g>
   <g id="matplotlib.axis_1">
    <g id="xtick_1">
     <g id="line2d_1">
      <path d="M 65.324919 173.52 
L 65.324919 7.2 
" clip-path="url(#p4307fd90a7)" style="fill: none; stroke-dasharray: 2.96,1.28; stroke-dashoffset: 0; stroke: #b0b0b0; stroke-opacity: 0.5; stroke-width: 0.8"/>
     </g>
     <g id="line2d_2">
      <defs>
       <path id="m699f459ac7" d="M 0 0 
L 0 3.5 
" style="stroke: #000000; stroke-width: 0.8"/>
      </defs>
      <g>
       <use xlink:href="#m699f459ac7" x="65.324919" y="173.52" style="stroke: #000000; stroke-width: 0.8"/>
      </g>
     </g>
     <g id="text_1">
      <!-- 0 -->
      <g transform="translate(62.143669 188.118437) scale(0.1 -0.1)">
       <defs>
        <path id="DejaVuSerif-30" d="M 2034 219 
Q 2513 219 2750 744 
Q 2988 1269 2988 2328 
Q 2988 3391 2750 3916 
Q 2513 4441 2034 4441 
Q 1556 4441 1318 3916 
Q 1081 3391 1081 2328 
Q 1081 1269 1318 744 
Q 1556 219 2034 219 
z
M 2034 -91 
Q 1275 -91 848 546 
Q 422 1184 422 2328 
Q 422 3475 848 4112 
Q 1275 4750 2034 4750 
Q 2797 4750 3222 4112 
Q 3647 3475 3647 2328 
Q 3647 1184 3222 546 
Q 2797 -91 2034 -91 
z
" transform="scale(0.015625)"/>
       </defs>
       <use xlink:href="#DejaVuSerif-30"/>
      </g>
     </g>
    </g>
    <g id="xtick_2">
     <g id="line2d_3">
      <path d="M 116.307102 173.52 
L 116.307102 7.2 
" clip-path="url(#p4307fd90a7)" style="fill: none; stroke-dasharray: 2.96,1.28; stroke-dashoffset: 0; stroke: #b0b0b0; stroke-opacity: 0.5; stroke-width: 0.8"/>
     </g>
     <g id="line2d_4">
      <g>
       <use xlink:href="#m699f459ac7" x="116.307102" y="173.52" style="stroke: #000000; stroke-width: 0.8"/>
      </g>
     </g>
     <g id="text_2">
      <!-- 10 -->
      <g transform="translate(109.944602 188.118437) scale(0.1 -0.1)">
       <defs>
        <path id="DejaVuSerif-31" d="M 909 0 
L 909 331 
L 1722 331 
L 1722 4213 
L 781 3603 
L 781 4013 
L 1919 4750 
L 2350 4750 
L 2350 331 
L 3163 331 
L 3163 0 
L 909 0 
z
" transform="scale(0.015625)"/>
       </defs>
       <use xlink:href="#DejaVuSerif-31"/>
       <use xlink:href="#DejaVuSerif-30" transform="translate(63.623047 0)"/>
      </g>
     </g>
    </g>
    <g id="xtick_3">
     <g id="line2d_5">
      <path d="M 167.289286 173.52 
L 167.289286 7.2 
" clip-path="url(#p4307fd90a7)" style="fill: none; stroke-dasharray: 2.96,1.28; stroke-dashoffset: 0; stroke: #b0b0b0; stroke-opacity: 0.5; stroke-width: 0.8"/>
     </g>
     <g id="line2d_6">
      <g>
       <use xlink:href="#m699f459ac7" x="167.289286" y="173.52" style="stroke: #000000; stroke-width: 0.8"/>
      </g>
     </g>
     <g id="text_3">
      <!-- 20 -->
      <g transform="translate(160.926786 188.118437) scale(0.1 -0.1)">
       <defs>
        <path id="DejaVuSerif-32" d="M 819 3553 
L 469 3553 
L 469 4384 
Q 803 4563 1142 4656 
Q 1481 4750 1806 4750 
Q 2534 4750 2956 4397 
Q 3378 4044 3378 3438 
Q 3378 2753 2422 1800 
Q 2347 1728 2309 1691 
L 1131 513 
L 3078 513 
L 3078 1088 
L 3444 1088 
L 3444 0 
L 434 0 
L 434 341 
L 1850 1753 
Q 2319 2222 2519 2614 
Q 2719 3006 2719 3438 
Q 2719 3909 2473 4175 
Q 2228 4441 1797 4441 
Q 1350 4441 1106 4219 
Q 863 3997 819 3553 
z
" transform="scale(0.015625)"/>
       </defs>
       <use xlink:href="#DejaVuSerif-32"/>
       <use xlink:href="#DejaVuSerif-30" transform="translate(63.623047 0)"/>
      </g>
     </g>
    </g>
    <g id="xtick_4">
     <g id="line2d_7">
      <path d="M 218.27147 173.52 
L 218.27147 7.2 
" clip-path="url(#p4307fd90a7)" style="fill: none; stroke-dasharray: 2.96,1.28; stroke-dashoffset: 0; stroke: #b0b0b0; stroke-opacity: 0.5; stroke-width: 0.8"/>
     </g>
     <g id="line2d_8">
      <g>
       <use xlink:href="#m699f459ac7" x="218.27147" y="173.52" style="stroke: #000000; stroke-width: 0.8"/>
      </g>
     </g>
     <g id="text_4">
      <!-- 30 -->
      <g transform="translate(211.90897 188.118437) scale(0.1 -0.1)">
       <defs>
        <path id="DejaVuSerif-33" d="M 622 4469 
Q 988 4606 1323 4678 
Q 1659 4750 1953 4750 
Q 2638 4750 3022 4454 
Q 3406 4159 3406 3634 
Q 3406 3213 3140 2930 
Q 2875 2647 2388 2547 
Q 2963 2466 3280 2130 
Q 3597 1794 3597 1259 
Q 3597 606 3158 257 
Q 2719 -91 1894 -91 
Q 1528 -91 1179 -12 
Q 831 66 488 225 
L 488 1131 
L 838 1131 
Q 869 681 1141 450 
Q 1413 219 1906 219 
Q 2384 219 2661 495 
Q 2938 772 2938 1253 
Q 2938 1803 2653 2086 
Q 2369 2369 1819 2369 
L 1522 2369 
L 1522 2688 
L 1678 2688 
Q 2225 2688 2498 2914 
Q 2772 3141 2772 3597 
Q 2772 4006 2547 4223 
Q 2322 4441 1900 4441 
Q 1478 4441 1245 4241 
Q 1013 4041 972 3647 
L 622 3647 
L 622 4469 
z
" transform="scale(0.015625)"/>
       </defs>
       <use xlink:href="#DejaVuSerif-33"/>
       <use xlink:href="#DejaVuSerif-30" transform="translate(63.623047 0)"/>
      </g>
     </g>
    </g>
    <g id="xtick_5">
     <g id="line2d_9">
      <path d="M 269.253653 173.52 
L 269.253653 7.2 
" clip-path="url(#p4307fd90a7)" style="fill: none; stroke-dasharray: 2.96,1.28; stroke-dashoffset: 0; stroke: #b0b0b0; stroke-opacity: 0.5; stroke-width: 0.8"/>
     </g>
     <g id="line2d_10">
      <g>
       <use xlink:href="#m699f459ac7" x="269.253653" y="173.52" style="stroke: #000000; stroke-width: 0.8"/>
      </g>
     </g>
     <g id="text_5">
      <!-- 40 -->
      <g transform="translate(262.891153 188.118437) scale(0.1 -0.1)">
       <defs>
        <path id="DejaVuSerif-34" d="M 2234 1581 
L 2234 4063 
L 641 1581 
L 2234 1581 
z
M 3609 0 
L 1484 0 
L 1484 331 
L 2234 331 
L 2234 1247 
L 197 1247 
L 197 1588 
L 2241 4750 
L 2859 4750 
L 2859 1581 
L 3750 1581 
L 3750 1247 
L 2859 1247 
L 2859 331 
L 3609 331 
L 3609 0 
z
" transform="scale(0.015625)"/>
       </defs>
       <use xlink:href="#DejaVuSerif-34"/>
       <use xlink:href="#DejaVuSerif-30" transform="translate(63.623047 0)"/>
      </g>
     </g>
    </g>
    <g id="text_6">
     <!-- Mean of the SKR demand (kbps) -->
     <g transform="translate(68.150625 203.31625) scale(0.12 -0.12)">
      <defs>
       <path id="DejaVuSerif-4d" d="M 353 0 
L 353 331 
L 947 331 
L 947 4331 
L 319 4331 
L 319 4666 
L 1678 4666 
L 3316 1344 
L 4953 4666 
L 6228 4666 
L 6228 4331 
L 5606 4331 
L 5606 331 
L 6203 331 
L 6203 0 
L 4378 0 
L 4378 331 
L 4972 331 
L 4972 3938 
L 3372 684 
L 2931 684 
L 1331 3938 
L 1331 331 
L 1925 331 
L 1925 0 
L 353 0 
z
" transform="scale(0.015625)"/>
       <path id="DejaVuSerif-65" d="M 3469 1600 
L 991 1600 
L 991 1575 
Q 991 903 1244 561 
Q 1497 219 1991 219 
Q 2369 219 2611 417 
Q 2853 616 2950 1006 
L 3413 1006 
Q 3275 459 2904 184 
Q 2534 -91 1931 -91 
Q 1203 -91 761 389 
Q 319 869 319 1663 
Q 319 2450 753 2931 
Q 1188 3413 1894 3413 
Q 2647 3413 3050 2948 
Q 3453 2484 3469 1600 
z
M 2791 1931 
Q 2772 2513 2545 2808 
Q 2319 3103 1894 3103 
Q 1497 3103 1269 2806 
Q 1041 2509 991 1931 
L 2791 1931 
z
" transform="scale(0.015625)"/>
       <path id="DejaVuSerif-61" d="M 2547 1044 
L 2547 1747 
L 1806 1747 
Q 1378 1747 1168 1562 
Q 959 1378 959 997 
Q 959 650 1171 447 
Q 1384 244 1747 244 
Q 2106 244 2326 466 
Q 2547 688 2547 1044 
z
M 3122 2075 
L 3122 331 
L 3634 331 
L 3634 0 
L 2547 0 
L 2547 359 
Q 2356 128 2106 18 
Q 1856 -91 1522 -91 
Q 969 -91 644 203 
Q 319 497 319 997 
Q 319 1513 691 1797 
Q 1063 2081 1741 2081 
L 2547 2081 
L 2547 2309 
Q 2547 2688 2317 2895 
Q 2088 3103 1672 3103 
Q 1328 3103 1125 2947 
Q 922 2791 872 2484 
L 575 2484 
L 575 3156 
Q 875 3284 1158 3348 
Q 1441 3413 1709 3413 
Q 2400 3413 2761 3070 
Q 3122 2728 3122 2075 
z
" transform="scale(0.015625)"/>
       <path id="DejaVuSerif-6e" d="M 263 0 
L 263 331 
L 781 331 
L 781 2988 
L 231 2988 
L 231 3322 
L 1356 3322 
L 1356 2731 
Q 1516 3069 1770 3241 
Q 2025 3413 2363 3413 
Q 2913 3413 3172 3097 
Q 3431 2781 3431 2113 
L 3431 331 
L 3944 331 
L 3944 0 
L 2356 0 
L 2356 331 
L 2853 331 
L 2853 1931 
Q 2853 2541 2703 2767 
Q 2553 2994 2175 2994 
Q 1775 2994 1565 2701 
Q 1356 2409 1356 1850 
L 1356 331 
L 1856 331 
L 1856 0 
L 263 0 
z
" transform="scale(0.015625)"/>
       <path id="DejaVuSerif-20" transform="scale(0.015625)"/>
       <path id="DejaVuSerif-6f" d="M 1925 219 
Q 2388 219 2623 584 
Q 2859 950 2859 1663 
Q 2859 2375 2623 2739 
Q 2388 3103 1925 3103 
Q 1463 3103 1227 2739 
Q 991 2375 991 1663 
Q 991 950 1228 584 
Q 1466 219 1925 219 
z
M 1925 -91 
Q 1200 -91 759 389 
Q 319 869 319 1663 
Q 319 2456 758 2934 
Q 1197 3413 1925 3413 
Q 2653 3413 3092 2934 
Q 3531 2456 3531 1663 
Q 3531 869 3092 389 
Q 2653 -91 1925 -91 
z
" transform="scale(0.015625)"/>
       <path id="DejaVuSerif-66" d="M 2753 4078 
L 2450 4078 
Q 2447 4313 2317 4434 
Q 2188 4556 1941 4556 
Q 1619 4556 1487 4379 
Q 1356 4203 1356 3750 
L 1356 3322 
L 2284 3322 
L 2284 2988 
L 1356 2988 
L 1356 331 
L 2094 331 
L 2094 0 
L 231 0 
L 231 331 
L 781 331 
L 781 2988 
L 231 2988 
L 231 3322 
L 781 3322 
L 781 3738 
Q 781 4294 1070 4578 
Q 1359 4863 1919 4863 
Q 2128 4863 2337 4825 
Q 2547 4788 2753 4709 
L 2753 4078 
z
" transform="scale(0.015625)"/>
       <path id="DejaVuSerif-74" d="M 691 2988 
L 184 2988 
L 184 3322 
L 691 3322 
L 691 4353 
L 1269 4353 
L 1269 3322 
L 2350 3322 
L 2350 2988 
L 1269 2988 
L 1269 878 
Q 1269 456 1350 337 
Q 1431 219 1650 219 
Q 1875 219 1978 351 
Q 2081 484 2088 781 
L 2522 781 
Q 2497 328 2275 118 
Q 2053 -91 1600 -91 
Q 1103 -91 897 129 
Q 691 350 691 878 
L 691 2988 
z
" transform="scale(0.015625)"/>
       <path id="DejaVuSerif-68" d="M 263 0 
L 263 331 
L 781 331 
L 781 4531 
L 231 4531 
L 231 4863 
L 1356 4863 
L 1356 2731 
Q 1516 3069 1770 3241 
Q 2025 3413 2363 3413 
Q 2913 3413 3172 3097 
Q 3431 2781 3431 2113 
L 3431 331 
L 3944 331 
L 3944 0 
L 2356 0 
L 2356 331 
L 2853 331 
L 2853 1931 
Q 2853 2541 2704 2764 
Q 2556 2988 2175 2988 
Q 1775 2988 1565 2697 
Q 1356 2406 1356 1850 
L 1356 331 
L 1856 331 
L 1856 0 
L 263 0 
z
" transform="scale(0.015625)"/>
       <path id="DejaVuSerif-53" d="M 594 225 
L 594 1288 
L 953 1284 
Q 969 753 1261 498 
Q 1553 244 2150 244 
Q 2706 244 2998 464 
Q 3291 684 3291 1106 
Q 3291 1444 3114 1625 
Q 2938 1806 2369 1978 
L 1753 2163 
Q 1084 2366 811 2669 
Q 538 2972 538 3500 
Q 538 4094 959 4422 
Q 1381 4750 2144 4750 
Q 2469 4750 2856 4679 
Q 3244 4609 3681 4475 
L 3681 3481 
L 3328 3481 
Q 3275 3975 2998 4195 
Q 2722 4416 2156 4416 
Q 1663 4416 1405 4214 
Q 1147 4013 1147 3628 
Q 1147 3294 1340 3103 
Q 1534 2913 2163 2725 
L 2741 2553 
Q 3375 2363 3645 2067 
Q 3916 1772 3916 1275 
Q 3916 597 3481 253 
Q 3047 -91 2188 -91 
Q 1803 -91 1404 -12 
Q 1006 66 594 225 
z
" transform="scale(0.015625)"/>
       <path id="DejaVuSerif-4b" d="M 353 0 
L 353 331 
L 947 331 
L 947 4331 
L 353 4331 
L 353 4666 
L 2175 4666 
L 2175 4331 
L 1581 4331 
L 1581 2566 
L 3591 4331 
L 3084 4331 
L 3084 4666 
L 4634 4666 
L 4634 4331 
L 4109 4331 
L 2106 2572 
L 4347 331 
L 4878 331 
L 4878 0 
L 3794 0 
L 1581 2216 
L 1581 331 
L 2175 331 
L 2175 0 
L 353 0 
z
" transform="scale(0.015625)"/>
       <path id="DejaVuSerif-52" d="M 3066 2316 
Q 3284 2256 3442 2114 
Q 3600 1972 3725 1716 
L 4403 331 
L 4972 331 
L 4972 0 
L 3872 0 
L 3144 1484 
Q 2934 1916 2759 2042 
Q 2584 2169 2278 2169 
L 1581 2169 
L 1581 331 
L 2241 331 
L 2241 0 
L 353 0 
L 353 331 
L 947 331 
L 947 4331 
L 353 4331 
L 353 4666 
L 2719 4666 
Q 3400 4666 3770 4341 
Q 4141 4016 4141 3419 
Q 4141 2938 3870 2661 
Q 3600 2384 3066 2316 
z
M 1581 2503 
L 2503 2503 
Q 2975 2503 3200 2726 
Q 3425 2950 3425 3419 
Q 3425 3888 3200 4109 
Q 2975 4331 2503 4331 
L 1581 4331 
L 1581 2503 
z
" transform="scale(0.015625)"/>
       <path id="DejaVuSerif-64" d="M 3359 331 
L 3909 331 
L 3909 0 
L 2784 0 
L 2784 519 
Q 2616 206 2355 57 
Q 2094 -91 1709 -91 
Q 1097 -91 708 395 
Q 319 881 319 1663 
Q 319 2444 706 2928 
Q 1094 3413 1709 3413 
Q 2094 3413 2355 3264 
Q 2616 3116 2784 2803 
L 2784 4531 
L 2241 4531 
L 2241 4863 
L 3359 4863 
L 3359 331 
z
M 2784 1497 
L 2784 1825 
Q 2784 2422 2554 2737 
Q 2325 3053 1888 3053 
Q 1444 3053 1217 2703 
Q 991 2353 991 1663 
Q 991 975 1217 622 
Q 1444 269 1888 269 
Q 2325 269 2554 583 
Q 2784 897 2784 1497 
z
" transform="scale(0.015625)"/>
       <path id="DejaVuSerif-6d" d="M 3316 2675 
Q 3481 3041 3739 3227 
Q 3997 3413 4341 3413 
Q 4863 3413 5119 3089 
Q 5375 2766 5375 2113 
L 5375 331 
L 5894 331 
L 5894 0 
L 4300 0 
L 4300 331 
L 4800 331 
L 4800 2047 
Q 4800 2556 4650 2772 
Q 4500 2988 4153 2988 
Q 3769 2988 3567 2697 
Q 3366 2406 3366 1850 
L 3366 331 
L 3866 331 
L 3866 0 
L 2291 0 
L 2291 331 
L 2791 331 
L 2791 2069 
Q 2791 2566 2641 2777 
Q 2491 2988 2144 2988 
Q 1759 2988 1557 2697 
Q 1356 2406 1356 1850 
L 1356 331 
L 1856 331 
L 1856 0 
L 263 0 
L 263 331 
L 781 331 
L 781 2994 
L 231 2994 
L 231 3322 
L 1356 3322 
L 1356 2731 
Q 1516 3063 1762 3238 
Q 2009 3413 2322 3413 
Q 2709 3413 2968 3220 
Q 3228 3028 3316 2675 
z
" transform="scale(0.015625)"/>
       <path id="DejaVuSerif-28" d="M 2041 -997 
Q 1281 -656 893 83 
Q 506 822 506 1931 
Q 506 3044 893 3783 
Q 1281 4522 2041 4863 
L 2041 4556 
Q 1559 4225 1350 3623 
Q 1141 3022 1141 1931 
Q 1141 844 1350 242 
Q 1559 -359 2041 -691 
L 2041 -997 
z
" transform="scale(0.015625)"/>
       <path id="DejaVuSerif-6b" d="M 1831 0 
L 219 0 
L 219 331 
L 738 331 
L 738 4531 
L 184 4531 
L 184 4863 
L 1313 4863 
L 1313 1697 
L 2713 2988 
L 2234 2988 
L 2234 3322 
L 3738 3322 
L 3738 2988 
L 3169 2988 
L 2181 2075 
L 3444 331 
L 3922 331 
L 3922 0 
L 2284 0 
L 2284 331 
L 2759 331 
L 1766 1697 
L 1313 1275 
L 1313 331 
L 1831 331 
L 1831 0 
z
" transform="scale(0.015625)"/>
       <path id="DejaVuSerif-62" d="M 738 331 
L 738 4531 
L 184 4531 
L 184 4863 
L 1313 4863 
L 1313 2803 
Q 1481 3116 1742 3264 
Q 2003 3413 2388 3413 
Q 3000 3413 3387 2928 
Q 3775 2444 3775 1663 
Q 3775 881 3387 395 
Q 3000 -91 2388 -91 
Q 2003 -91 1742 57 
Q 1481 206 1313 519 
L 1313 0 
L 184 0 
L 184 331 
L 738 331 
z
M 1313 1497 
Q 1313 897 1542 583 
Q 1772 269 2209 269 
Q 2650 269 2876 622 
Q 3103 975 3103 1663 
Q 3103 2353 2876 2703 
Q 2650 3053 2209 3053 
Q 1772 3053 1542 2737 
Q 1313 2422 1313 1825 
L 1313 1497 
z
" transform="scale(0.015625)"/>
       <path id="DejaVuSerif-70" d="M 1313 1825 
L 1313 1497 
Q 1313 897 1542 583 
Q 1772 269 2209 269 
Q 2650 269 2876 622 
Q 3103 975 3103 1663 
Q 3103 2353 2876 2703 
Q 2650 3053 2209 3053 
Q 1772 3053 1542 2737 
Q 1313 2422 1313 1825 
z
M 738 2988 
L 184 2988 
L 184 3322 
L 1313 3322 
L 1313 2803 
Q 1481 3116 1742 3264 
Q 2003 3413 2388 3413 
Q 3000 3413 3387 2928 
Q 3775 2444 3775 1663 
Q 3775 881 3387 395 
Q 3000 -91 2388 -91 
Q 2003 -91 1742 57 
Q 1481 206 1313 519 
L 1313 -997 
L 1856 -997 
L 1856 -1331 
L 184 -1331 
L 184 -997 
L 738 -997 
L 738 2988 
z
" transform="scale(0.015625)"/>
       <path id="DejaVuSerif-73" d="M 359 184 
L 359 959 
L 691 959 
Q 703 588 923 403 
Q 1144 219 1575 219 
Q 1963 219 2166 364 
Q 2369 509 2369 788 
Q 2369 1006 2220 1140 
Q 2072 1275 1594 1428 
L 1178 1569 
Q 750 1706 558 1912 
Q 366 2119 366 2438 
Q 366 2894 700 3153 
Q 1034 3413 1625 3413 
Q 1888 3413 2178 3344 
Q 2469 3275 2778 3144 
L 2778 2419 
L 2447 2419 
Q 2434 2741 2221 2922 
Q 2009 3103 1644 3103 
Q 1281 3103 1095 2975 
Q 909 2847 909 2591 
Q 909 2381 1050 2254 
Q 1191 2128 1613 1997 
L 2069 1856 
Q 2541 1709 2748 1489 
Q 2956 1269 2956 922 
Q 2956 450 2595 179 
Q 2234 -91 1600 -91 
Q 1278 -91 972 -22 
Q 666 47 359 184 
z
" transform="scale(0.015625)"/>
       <path id="DejaVuSerif-29" d="M 453 -997 
L 453 -691 
Q 934 -359 1145 242 
Q 1356 844 1356 1931 
Q 1356 3022 1145 3623 
Q 934 4225 453 4556 
L 453 4863 
Q 1216 4522 1603 3783 
Q 1991 3044 1991 1931 
Q 1991 822 1603 83 
Q 1216 -656 453 -997 
z
" transform="scale(0.015625)"/>
      </defs>
      <use xlink:href="#DejaVuSerif-4d"/>
      <use xlink:href="#DejaVuSerif-65" transform="translate(102.392578 0)"/>
      <use xlink:href="#DejaVuSerif-61" transform="translate(161.572266 0)"/>
      <use xlink:href="#DejaVuSerif-6e" transform="translate(221.191406 0)"/>
      <use xlink:href="#DejaVuSerif-20" transform="translate(285.595703 0)"/>
      <use xlink:href="#DejaVuSerif-6f" transform="translate(317.382812 0)"/>
      <use xlink:href="#DejaVuSerif-66" transform="translate(377.587891 0)"/>
      <use xlink:href="#DejaVuSerif-20" transform="translate(414.599609 0)"/>
      <use xlink:href="#DejaVuSerif-74" transform="translate(446.386719 0)"/>
      <use xlink:href="#DejaVuSerif-68" transform="translate(486.572266 0)"/>
      <use xlink:href="#DejaVuSerif-65" transform="translate(550.976562 0)"/>
      <use xlink:href="#DejaVuSerif-20" transform="translate(610.15625 0)"/>
      <use xlink:href="#DejaVuSerif-53" transform="translate(641.943359 0)"/>
      <use xlink:href="#DejaVuSerif-4b" transform="translate(710.449219 0)"/>
      <use xlink:href="#DejaVuSerif-52" transform="translate(785.15625 0)"/>
      <use xlink:href="#DejaVuSerif-20" transform="translate(860.449219 0)"/>
      <use xlink:href="#DejaVuSerif-64" transform="translate(892.236328 0)"/>
      <use xlink:href="#DejaVuSerif-65" transform="translate(956.25 0)"/>
      <use xlink:href="#DejaVuSerif-6d" transform="translate(1015.429688 0)"/>
      <use xlink:href="#DejaVuSerif-61" transform="translate(1110.253906 0)"/>
      <use xlink:href="#DejaVuSerif-6e" transform="translate(1169.873047 0)"/>
      <use xlink:href="#DejaVuSerif-64" transform="translate(1234.277344 0)"/>
      <use xlink:href="#DejaVuSerif-20" transform="translate(1298.291016 0)"/>
      <use xlink:href="#DejaVuSerif-28" transform="translate(1330.078125 0)"/>
      <use xlink:href="#DejaVuSerif-6b" transform="translate(1369.091797 0)"/>
      <use xlink:href="#DejaVuSerif-62" transform="translate(1429.6875 0)"/>
      <use xlink:href="#DejaVuSerif-70" transform="translate(1493.701172 0)"/>
      <use xlink:href="#DejaVuSerif-73" transform="translate(1557.714844 0)"/>
      <use xlink:href="#DejaVuSerif-29" transform="translate(1609.033203 0)"/>
     </g>
    </g>
   </g>
   <g id="matplotlib.axis_2">
    <g id="ytick_1">
     <g id="line2d_11">
      <path d="M 55.434375 166.227611 
L 278.634375 166.227611 
" clip-path="url(#p4307fd90a7)" style="fill: none; stroke-dasharray: 2.96,1.28; stroke-dashoffset: 0; stroke: #b0b0b0; stroke-opacity: 0.5; stroke-width: 0.8"/>
     </g>
     <g id="line2d_12">
      <defs>
       <path id="mb5841b1cf8" d="M 0 0 
L -3.5 0 
" style="stroke: #000000; stroke-width: 0.8"/>
      </defs>
      <g>
       <use xlink:href="#mb5841b1cf8" x="55.434375" y="166.227611" style="stroke: #000000; stroke-width: 0.8"/>
      </g>
     </g>
     <g id="text_7">
      <!-- 0 -->
      <g transform="translate(42.071875 170.02683) scale(0.1 -0.1)">
       <use xlink:href="#DejaVuSerif-30"/>
      </g>
     </g>
    </g>
    <g id="ytick_2">
     <g id="line2d_13">
      <path d="M 55.434375 140.838649 
L 278.634375 140.838649 
" clip-path="url(#p4307fd90a7)" style="fill: none; stroke-dasharray: 2.96,1.28; stroke-dashoffset: 0; stroke: #b0b0b0; stroke-opacity: 0.5; stroke-width: 0.8"/>
     </g>
     <g id="line2d_14">
      <g>
       <use xlink:href="#mb5841b1cf8" x="55.434375" y="140.838649" style="stroke: #000000; stroke-width: 0.8"/>
      </g>
     </g>
     <g id="text_8">
      <!-- 250 -->
      <g transform="translate(29.346875 144.637868) scale(0.1 -0.1)">
       <defs>
        <path id="DejaVuSerif-35" d="M 3219 4666 
L 3219 4153 
L 1081 4153 
L 1081 2816 
Q 1244 2928 1461 2984 
Q 1678 3041 1947 3041 
Q 2703 3041 3140 2622 
Q 3578 2203 3578 1478 
Q 3578 738 3136 323 
Q 2694 -91 1894 -91 
Q 1572 -91 1234 -12 
Q 897 66 544 225 
L 544 1131 
L 897 1131 
Q 925 688 1179 453 
Q 1434 219 1894 219 
Q 2388 219 2653 544 
Q 2919 869 2919 1478 
Q 2919 2084 2655 2407 
Q 2391 2731 1894 2731 
Q 1613 2731 1398 2631 
Q 1184 2531 1019 2322 
L 750 2322 
L 750 4666 
L 3219 4666 
z
" transform="scale(0.015625)"/>
       </defs>
       <use xlink:href="#DejaVuSerif-32"/>
       <use xlink:href="#DejaVuSerif-35" transform="translate(63.623047 0)"/>
       <use xlink:href="#DejaVuSerif-30" transform="translate(127.246094 0)"/>
      </g>
     </g>
    </g>
    <g id="ytick_3">
     <g id="line2d_15">
      <path d="M 55.434375 115.449687 
L 278.634375 115.449687 
" clip-path="url(#p4307fd90a7)" style="fill: none; stroke-dasharray: 2.96,1.28; stroke-dashoffset: 0; stroke: #b0b0b0; stroke-opacity: 0.5; stroke-width: 0.8"/>
     </g>
     <g id="line2d_16">
      <g>
       <use xlink:href="#mb5841b1cf8" x="55.434375" y="115.449687" style="stroke: #000000; stroke-width: 0.8"/>
      </g>
     </g>
     <g id="text_9">
      <!-- 500 -->
      <g transform="translate(29.346875 119.248906) scale(0.1 -0.1)">
       <use xlink:href="#DejaVuSerif-35"/>
       <use xlink:href="#DejaVuSerif-30" transform="translate(63.623047 0)"/>
       <use xlink:href="#DejaVuSerif-30" transform="translate(127.246094 0)"/>
      </g>
     </g>
    </g>
    <g id="ytick_4">
     <g id="line2d_17">
      <path d="M 55.434375 90.060726 
L 278.634375 90.060726 
" clip-path="url(#p4307fd90a7)" style="fill: none; stroke-dasharray: 2.96,1.28; stroke-dashoffset: 0; stroke: #b0b0b0; stroke-opacity: 0.5; stroke-width: 0.8"/>
     </g>
     <g id="line2d_18">
      <g>
       <use xlink:href="#mb5841b1cf8" x="55.434375" y="90.060726" style="stroke: #000000; stroke-width: 0.8"/>
      </g>
     </g>
     <g id="text_10">
      <!-- 750 -->
      <g transform="translate(29.346875 93.859944) scale(0.1 -0.1)">
       <defs>
        <path id="DejaVuSerif-37" d="M 3609 4347 
L 1784 0 
L 1319 0 
L 3059 4153 
L 903 4153 
L 903 3578 
L 538 3578 
L 538 4666 
L 3609 4666 
L 3609 4347 
z
" transform="scale(0.015625)"/>
       </defs>
       <use xlink:href="#DejaVuSerif-37"/>
       <use xlink:href="#DejaVuSerif-35" transform="translate(63.623047 0)"/>
       <use xlink:href="#DejaVuSerif-30" transform="translate(127.246094 0)"/>
      </g>
     </g>
    </g>
    <g id="ytick_5">
     <g id="line2d_19">
      <path d="M 55.434375 64.671764 
L 278.634375 64.671764 
" clip-path="url(#p4307fd90a7)" style="fill: none; stroke-dasharray: 2.96,1.28; stroke-dashoffset: 0; stroke: #b0b0b0; stroke-opacity: 0.5; stroke-width: 0.8"/>
     </g>
     <g id="line2d_20">
      <g>
       <use xlink:href="#mb5841b1cf8" x="55.434375" y="64.671764" style="stroke: #000000; stroke-width: 0.8"/>
      </g>
     </g>
     <g id="text_11">
      <!-- 1000 -->
      <g transform="translate(22.984375 68.470982) scale(0.1 -0.1)">
       <use xlink:href="#DejaVuSerif-31"/>
       <use xlink:href="#DejaVuSerif-30" transform="translate(63.623047 0)"/>
       <use xlink:href="#DejaVuSerif-30" transform="translate(127.246094 0)"/>
       <use xlink:href="#DejaVuSerif-30" transform="translate(190.869141 0)"/>
      </g>
     </g>
    </g>
    <g id="ytick_6">
     <g id="line2d_21">
      <path d="M 55.434375 39.282802 
L 278.634375 39.282802 
" clip-path="url(#p4307fd90a7)" style="fill: none; stroke-dasharray: 2.96,1.28; stroke-dashoffset: 0; stroke: #b0b0b0; stroke-opacity: 0.5; stroke-width: 0.8"/>
     </g>
     <g id="line2d_22">
      <g>
       <use xlink:href="#mb5841b1cf8" x="55.434375" y="39.282802" style="stroke: #000000; stroke-width: 0.8"/>
      </g>
     </g>
     <g id="text_12">
      <!-- 1250 -->
      <g transform="translate(22.984375 43.082021) scale(0.1 -0.1)">
       <use xlink:href="#DejaVuSerif-31"/>
       <use xlink:href="#DejaVuSerif-32" transform="translate(63.623047 0)"/>
       <use xlink:href="#DejaVuSerif-35" transform="translate(127.246094 0)"/>
       <use xlink:href="#DejaVuSerif-30" transform="translate(190.869141 0)"/>
      </g>
     </g>
    </g>
    <g id="ytick_7">
     <g id="line2d_23">
      <path d="M 55.434375 13.89384 
L 278.634375 13.89384 
" clip-path="url(#p4307fd90a7)" style="fill: none; stroke-dasharray: 2.96,1.28; stroke-dashoffset: 0; stroke: #b0b0b0; stroke-opacity: 0.5; stroke-width: 0.8"/>
     </g>
     <g id="line2d_24">
      <g>
       <use xlink:href="#mb5841b1cf8" x="55.434375" y="13.89384" style="stroke: #000000; stroke-width: 0.8"/>
      </g>
     </g>
     <g id="text_13">
      <!-- 1500 -->
      <g transform="translate(22.984375 17.693059) scale(0.1 -0.1)">
       <use xlink:href="#DejaVuSerif-31"/>
       <use xlink:href="#DejaVuSerif-35" transform="translate(63.623047 0)"/>
       <use xlink:href="#DejaVuSerif-30" transform="translate(127.246094 0)"/>
       <use xlink:href="#DejaVuSerif-30" transform="translate(190.869141 0)"/>
      </g>
     </g>
    </g>
    <g id="text_14">
     <!-- Served Key Bits (Mb) -->
     <g transform="translate(16.318125 155.142187) rotate(-90) scale(0.12 -0.12)">
      <defs>
       <path id="DejaVuSerif-72" d="M 3059 3328 
L 3059 2497 
L 2728 2497 
Q 2713 2744 2591 2866 
Q 2469 2988 2234 2988 
Q 1809 2988 1582 2694 
Q 1356 2400 1356 1850 
L 1356 331 
L 2022 331 
L 2022 0 
L 263 0 
L 263 331 
L 781 331 
L 781 2994 
L 231 2994 
L 231 3322 
L 1356 3322 
L 1356 2731 
Q 1525 3078 1790 3245 
Q 2056 3413 2438 3413 
Q 2578 3413 2733 3391 
Q 2888 3369 3059 3328 
z
" transform="scale(0.015625)"/>
       <path id="DejaVuSerif-76" d="M 1581 0 
L 359 2988 
L -19 2988 
L -19 3322 
L 1509 3322 
L 1509 2988 
L 978 2988 
L 1913 703 
L 2847 2988 
L 2350 2988 
L 2350 3322 
L 3597 3322 
L 3597 2988 
L 3225 2988 
L 2003 0 
L 1581 0 
z
" transform="scale(0.015625)"/>
       <path id="DejaVuSerif-79" d="M 1381 -609 
L 1600 -56 
L 359 2988 
L -19 2988 
L -19 3322 
L 1509 3322 
L 1509 2988 
L 978 2988 
L 1913 703 
L 2847 2988 
L 2350 2988 
L 2350 3322 
L 3597 3322 
L 3597 2988 
L 3225 2988 
L 1703 -750 
Q 1547 -1138 1356 -1280 
Q 1166 -1422 819 -1422 
Q 672 -1422 517 -1397 
Q 363 -1372 206 -1325 
L 206 -691 
L 500 -691 
Q 519 -903 608 -995 
Q 697 -1088 884 -1088 
Q 1056 -1088 1161 -992 
Q 1266 -897 1381 -609 
z
" transform="scale(0.015625)"/>
       <path id="DejaVuSerif-42" d="M 1581 331 
L 2516 331 
Q 3078 331 3337 575 
Q 3597 819 3597 1350 
Q 3597 1878 3339 2120 
Q 3081 2363 2516 2363 
L 1581 2363 
L 1581 331 
z
M 1581 2694 
L 2375 2694 
Q 2888 2694 3123 2891 
Q 3359 3088 3359 3513 
Q 3359 3941 3123 4136 
Q 2888 4331 2375 4331 
L 1581 4331 
L 1581 2694 
z
M 353 0 
L 353 331 
L 947 331 
L 947 4331 
L 353 4331 
L 353 4666 
L 2656 4666 
Q 3363 4666 3720 4377 
Q 4078 4088 4078 3513 
Q 4078 3097 3829 2850 
Q 3581 2603 3103 2547 
Q 3697 2472 4005 2167 
Q 4313 1863 4313 1350 
Q 4313 656 3875 328 
Q 3438 0 2509 0 
L 353 0 
z
" transform="scale(0.015625)"/>
       <path id="DejaVuSerif-69" d="M 622 4353 
Q 622 4497 726 4603 
Q 831 4709 978 4709 
Q 1122 4709 1226 4603 
Q 1331 4497 1331 4353 
Q 1331 4206 1228 4103 
Q 1125 4000 978 4000 
Q 831 4000 726 4103 
Q 622 4206 622 4353 
z
M 1356 331 
L 1900 331 
L 1900 0 
L 231 0 
L 231 331 
L 781 331 
L 781 2988 
L 231 2988 
L 231 3322 
L 1356 3322 
L 1356 331 
z
" transform="scale(0.015625)"/>
      </defs>
      <use xlink:href="#DejaVuSerif-53"/>
      <use xlink:href="#DejaVuSerif-65" transform="translate(68.505859 0)"/>
      <use xlink:href="#DejaVuSerif-72" transform="translate(127.685547 0)"/>
      <use xlink:href="#DejaVuSerif-76" transform="translate(175.488281 0)"/>
      <use xlink:href="#DejaVuSerif-65" transform="translate(231.982422 0)"/>
      <use xlink:href="#DejaVuSerif-64" transform="translate(291.162109 0)"/>
      <use xlink:href="#DejaVuSerif-20" transform="translate(355.175781 0)"/>
      <use xlink:href="#DejaVuSerif-4b" transform="translate(386.962891 0)"/>
      <use xlink:href="#DejaVuSerif-65" transform="translate(459.044922 0)"/>
      <use xlink:href="#DejaVuSerif-79" transform="translate(518.224609 0)"/>
      <use xlink:href="#DejaVuSerif-20" transform="translate(574.71875 0)"/>
      <use xlink:href="#DejaVuSerif-42" transform="translate(606.505859 0)"/>
      <use xlink:href="#DejaVuSerif-69" transform="translate(679.992188 0)"/>
      <use xlink:href="#DejaVuSerif-74" transform="translate(711.974609 0)"/>
      <use xlink:href="#DejaVuSerif-73" transform="translate(752.160156 0)"/>
      <use xlink:href="#DejaVuSerif-20" transform="translate(803.478516 0)"/>
      <use xlink:href="#DejaVuSerif-28" transform="translate(835.265625 0)"/>
      <use xlink:href="#DejaVuSerif-4d" transform="translate(874.279297 0)"/>
      <use xlink:href="#DejaVuSerif-62" transform="translate(976.671875 0)"/>
      <use xlink:href="#DejaVuSerif-29" transform="translate(1040.685547 0)"/>
     </g>
    </g>
   </g>
   <g id="line2d_25">
    <path d="M 65.57983 165.96 
L 132.876312 95.466034 
L 141.033461 87.281427 
L 146.13168 82.488526 
L 153.269185 76.05934 
L 163.465622 67.276208 
L 172.642415 59.74923 
L 180.799565 53.537146 
L 185.897783 49.982834 
L 194.054932 44.762131 
L 202.212082 39.879832 
L 208.329944 36.496556 
L 221.585312 29.658168 
L 228.722817 26.175495 
L 233.821036 23.983154 
L 236.879967 22.902393 
L 241.978185 21.47409 
L 246.05676 20.482131 
L 250.135334 19.704238 
L 268.48892 16.739004 
L 268.48892 16.739004 
" clip-path="url(#p4307fd90a7)" style="fill: none; stroke-dasharray: 5.55,2.4; stroke-dashoffset: 0; stroke: #1f77b4; stroke-width: 1.5"/>
    <defs>
     <path id="m4ed5ed9c3b" d="M 0 3 
C 0.795609 3 1.55874 2.683901 2.12132 2.12132 
C 2.683901 1.55874 3 0.795609 3 0 
C 3 -0.795609 2.683901 -1.55874 2.12132 -2.12132 
C 1.55874 -2.683901 0.795609 -3 0 -3 
C -0.795609 -3 -1.55874 -2.683901 -2.12132 -2.12132 
C -2.683901 -1.55874 -3 -0.795609 -3 0 
C -3 0.795609 -2.683901 1.55874 -2.12132 2.12132 
C -1.55874 2.683901 -0.795609 3 0 3 
z
" style="stroke: #1f77b4"/>
    </defs>
    <g clip-path="url(#p4307fd90a7)">
     <use xlink:href="#m4ed5ed9c3b" x="65.57983" y="165.96" style="fill: #1f77b4; stroke: #1f77b4"/>
    </g>
   </g>
   <g id="line2d_26">
    <path d="M 65.57983 165.96 
L 170.603128 55.718082 
L 185.897783 42.609561 
L 201.192438 30.188247 
L 203.231725 28.579895 
L 204.251369 28.175293 
L 217.506737 25.528162 
L 228.722817 23.423892 
L 241.978185 21.071973 
L 254.213909 19.035205 
L 268.48892 16.735604 
L 268.48892 16.735604 
" clip-path="url(#p4307fd90a7)" style="fill: none; stroke: #1f77b4; stroke-width: 1.5; stroke-linecap: square"/>
    <g clip-path="url(#p4307fd90a7)">
     <use xlink:href="#m4ed5ed9c3b" x="65.57983" y="165.96" style="fill: #1f77b4; stroke: #1f77b4"/>
     <use xlink:href="#m4ed5ed9c3b" x="85.972703" y="144.55099" style="fill: #1f77b4; stroke: #1f77b4"/>
     <use xlink:href="#m4ed5ed9c3b" x="106.365576" y="123.141981" style="fill: #1f77b4; stroke: #1f77b4"/>
     <use xlink:href="#m4ed5ed9c3b" x="126.75845" y="101.732971" style="fill: #1f77b4; stroke: #1f77b4"/>
     <use xlink:href="#m4ed5ed9c3b" x="147.151323" y="80.323961" style="fill: #1f77b4; stroke: #1f77b4"/>
     <use xlink:href="#m4ed5ed9c3b" x="167.544197" y="58.914952" style="fill: #1f77b4; stroke: #1f77b4"/>
     <use xlink:href="#m4ed5ed9c3b" x="187.93707" y="40.936984" style="fill: #1f77b4; stroke: #1f77b4"/>
     <use xlink:href="#m4ed5ed9c3b" x="208.329944" y="27.334548" style="fill: #1f77b4; stroke: #1f77b4"/>
     <use xlink:href="#m4ed5ed9c3b" x="228.722817" y="23.423892" style="fill: #1f77b4; stroke: #1f77b4"/>
     <use xlink:href="#m4ed5ed9c3b" x="249.115691" y="19.871493" style="fill: #1f77b4; stroke: #1f77b4"/>
    </g>
   </g>
   <g id="line2d_27">
    <path d="M 65.57983 165.909821 
L 123.699519 93.578331 
L 127.778094 88.871302 
L 133.895956 82.110446 
L 140.013818 75.704078 
L 148.170967 67.545505 
L 152.249542 63.667014 
L 162.445978 54.224516 
L 168.563841 48.890286 
L 174.681703 43.751099 
L 178.760277 40.768748 
L 183.858496 37.613004 
L 186.917427 35.887244 
L 190.996001 33.79002 
L 197.113863 30.961834 
L 200.172794 29.704737 
L 203.231725 28.725244 
L 208.329944 27.369269 
L 214.447806 25.952918 
L 230.762105 22.814218 
L 249.115691 19.689624 
L 268.48892 16.592817 
L 268.48892 16.592817 
" clip-path="url(#p4307fd90a7)" style="fill: none; stroke-dasharray: 5.55,2.4; stroke-dashoffset: 0; stroke: #ff7f0e; stroke-width: 1.5"/>
    <defs>
     <path id="m911bfd7f22" d="M -3 3 
L 3 3 
L 3 -3 
L -3 -3 
z
" style="stroke: #ff7f0e; stroke-linejoin: miter"/>
    </defs>
    <g clip-path="url(#p4307fd90a7)">
     <use xlink:href="#m911bfd7f22" x="65.57983" y="165.909821" style="fill: #ff7f0e; stroke: #ff7f0e; stroke-linejoin: miter"/>
    </g>
   </g>
   <g id="line2d_28">
    <path d="M 65.57983 165.909821 
L 170.603128 35.134989 
L 172.642415 34.580575 
L 186.917427 31.423463 
L 209.349587 26.805838 
L 221.585312 24.476337 
L 234.840679 22.095154 
L 249.115691 19.689624 
L 268.48892 16.589415 
L 268.48892 16.589415 
" clip-path="url(#p4307fd90a7)" style="fill: none; stroke: #ff7f0e; stroke-width: 1.5; stroke-linecap: square"/>
    <g clip-path="url(#p4307fd90a7)">
     <use xlink:href="#m911bfd7f22" x="65.57983" y="165.909821" style="fill: #ff7f0e; stroke: #ff7f0e; stroke-linejoin: miter"/>
     <use xlink:href="#m911bfd7f22" x="85.972703" y="140.486623" style="fill: #ff7f0e; stroke: #ff7f0e; stroke-linejoin: miter"/>
     <use xlink:href="#m911bfd7f22" x="106.365576" y="115.063424" style="fill: #ff7f0e; stroke: #ff7f0e; stroke-linejoin: miter"/>
     <use xlink:href="#m911bfd7f22" x="126.75845" y="89.640226" style="fill: #ff7f0e; stroke: #ff7f0e; stroke-linejoin: miter"/>
     <use xlink:href="#m911bfd7f22" x="147.151323" y="64.217027" style="fill: #ff7f0e; stroke: #ff7f0e; stroke-linejoin: miter"/>
     <use xlink:href="#m911bfd7f22" x="167.544197" y="38.793829" style="fill: #ff7f0e; stroke: #ff7f0e; stroke-linejoin: miter"/>
     <use xlink:href="#m911bfd7f22" x="187.93707" y="31.20864" style="fill: #ff7f0e; stroke: #ff7f0e; stroke-linejoin: miter"/>
     <use xlink:href="#m911bfd7f22" x="208.329944" y="27.008869" style="fill: #ff7f0e; stroke: #ff7f0e; stroke-linejoin: miter"/>
     <use xlink:href="#m911bfd7f22" x="228.722817" y="23.173749" style="fill: #ff7f0e; stroke: #ff7f0e; stroke-linejoin: miter"/>
     <use xlink:href="#m911bfd7f22" x="249.115691" y="19.689624" style="fill: #ff7f0e; stroke: #ff7f0e; stroke-linejoin: miter"/>
    </g>
   </g>
   <g id="line2d_29">
    <path d="M 65.57983 165.859644 
L 112.483438 98.344059 
L 117.581657 91.531527 
L 123.699519 83.77219 
L 127.778094 78.851474 
L 132.876312 72.947344 
L 140.013818 65.046725 
L 148.170967 56.361236 
L 151.229898 53.561066 
L 155.308473 50.212839 
L 159.387047 47.067751 
L 164.485266 43.472548 
L 169.583484 40.156846 
L 172.642415 38.326558 
L 175.701346 36.762077 
L 178.760277 35.45323 
L 183.858496 33.564555 
L 188.956714 31.883383 
L 195.074576 30.120717 
L 204.251369 27.869274 
L 210.369231 26.536747 
L 220.565668 24.475433 
L 234.840679 21.877614 
L 264.410346 17.073526 
L 268.48892 16.44663 
L 268.48892 16.44663 
" clip-path="url(#p4307fd90a7)" style="fill: none; stroke-dasharray: 5.55,2.4; stroke-dashoffset: 0; stroke: #2ca02c; stroke-width: 1.5"/>
    <defs>
     <path id="mc2c124dfc4" d="M 0 -3 
L -3 3 
L 3 3 
z
" style="stroke: #2ca02c; stroke-linejoin: miter"/>
    </defs>
    <g clip-path="url(#p4307fd90a7)">
     <use xlink:href="#mc2c124dfc4" x="65.57983" y="165.859644" style="fill: #2ca02c; stroke: #2ca02c; stroke-linejoin: miter"/>
    </g>
   </g>
   <g id="line2d_30">
    <path d="M 65.57983 165.859644 
L 153.269185 39.278877 
L 154.288829 38.577936 
L 159.387047 37.257534 
L 173.662059 33.951883 
L 185.897783 31.287805 
L 202.212082 27.915312 
L 214.447806 25.553855 
L 228.722817 22.956218 
L 242.997829 20.523407 
L 264.410346 17.073526 
L 268.48892 16.443227 
L 268.48892 16.443227 
" clip-path="url(#p4307fd90a7)" style="fill: none; stroke: #2ca02c; stroke-width: 1.5; stroke-linecap: square"/>
    <g clip-path="url(#p4307fd90a7)">
     <use xlink:href="#mc2c124dfc4" x="65.57983" y="165.859644" style="fill: #2ca02c; stroke: #2ca02c; stroke-linejoin: miter"/>
     <use xlink:href="#mc2c124dfc4" x="85.972703" y="136.422256" style="fill: #2ca02c; stroke: #2ca02c; stroke-linejoin: miter"/>
     <use xlink:href="#mc2c124dfc4" x="106.365576" y="106.984869" style="fill: #2ca02c; stroke: #2ca02c; stroke-linejoin: miter"/>
     <use xlink:href="#mc2c124dfc4" x="126.75845" y="77.54748" style="fill: #2ca02c; stroke: #2ca02c; stroke-linejoin: miter"/>
     <use xlink:href="#mc2c124dfc4" x="147.151323" y="48.110093" style="fill: #2ca02c; stroke: #2ca02c; stroke-linejoin: miter"/>
     <use xlink:href="#mc2c124dfc4" x="167.544197" y="35.334701" style="fill: #2ca02c; stroke: #2ca02c; stroke-linejoin: miter"/>
     <use xlink:href="#mc2c124dfc4" x="187.93707" y="30.852229" style="fill: #2ca02c; stroke: #2ca02c; stroke-linejoin: miter"/>
     <use xlink:href="#mc2c124dfc4" x="208.329944" y="26.7127" style="fill: #2ca02c; stroke: #2ca02c; stroke-linejoin: miter"/>
     <use xlink:href="#mc2c124dfc4" x="228.722817" y="22.956218" style="fill: #2ca02c; stroke: #2ca02c; stroke-linejoin: miter"/>
     <use xlink:href="#mc2c124dfc4" x="249.115691" y="19.507752" style="fill: #2ca02c; stroke: #2ca02c; stroke-linejoin: miter"/>
    </g>
   </g>
   <g id="line2d_31">
    <path d="M 65.57983 165.901619 
L 68.638761 162.097078 
L 70.678048 159.447063 
L 71.697692 158.511579 
L 72.717335 156.893005 
L 73.736979 155.878193 
L 74.756623 154.543975 
L 75.776266 152.890297 
L 76.79591 152.077952 
L 77.815554 150.81368 
L 78.835197 149.358508 
L 79.854841 148.104778 
L 80.874485 146.671231 
L 81.894128 145.815615 
L 83.933416 142.873029 
L 84.953059 141.933541 
L 85.972703 140.014218 
L 86.992347 138.798414 
L 88.01199 138.917954 
L 89.031634 138.023705 
L 90.051278 134.573827 
L 91.070921 135.23579 
L 92.090565 133.680617 
L 93.110209 131.122868 
L 94.129852 132.08173 
L 95.149496 127.947243 
L 96.16914 128.751865 
L 97.188783 126.697182 
L 98.208427 124.321831 
L 99.228071 124.989297 
L 100.247714 122.201707 
L 101.267358 120.817143 
L 102.287002 120.245564 
L 103.306645 117.276878 
L 104.326289 118.254433 
L 105.345933 117.522811 
L 107.38522 113.013015 
L 108.404864 112.226557 
L 109.424507 112.351266 
L 110.444151 110.988715 
L 111.463795 110.524247 
L 112.483438 107.689947 
L 113.503082 105.775789 
L 114.522726 105.17449 
L 115.54237 103.373138 
L 116.562013 101.9971 
L 117.581657 101.435895 
L 118.601301 100.247914 
L 119.620944 97.707227 
L 120.640588 98.330471 
L 121.660232 95.531181 
L 122.679875 95.229326 
L 123.699519 93.905492 
L 124.719163 90.67675 
L 125.738806 91.320649 
L 126.75845 90.40276 
L 127.778094 91.595029 
L 128.797737 87.940162 
L 129.817381 88.072195 
L 130.837025 85.324678 
L 131.856668 86.058674 
L 132.876312 84.762984 
L 133.895956 83.076976 
L 134.915599 79.496124 
L 135.935243 80.611569 
L 136.954887 78.662137 
L 137.97453 79.362469 
L 138.994174 77.532485 
L 140.013818 75.191158 
L 141.033461 75.894966 
L 142.053105 74.972153 
L 143.072749 76.687899 
L 144.092392 71.083022 
L 145.112036 69.550507 
L 146.13168 71.238099 
L 147.151323 68.544159 
L 148.170967 68.017722 
L 149.190611 66.457163 
L 150.210254 66.564074 
L 151.229898 64.875161 
L 152.249542 63.751405 
L 153.269185 62.968149 
L 154.288829 60.960502 
L 155.308473 61.169292 
L 156.328116 62.88104 
L 157.34776 61.13792 
L 158.367404 57.972728 
L 159.387047 61.249715 
L 160.406691 56.155018 
L 161.426335 56.61369 
L 162.445978 54.149914 
L 163.465622 55.948816 
L 164.485266 52.216432 
L 165.504909 53.308485 
L 166.524553 51.796798 
L 167.544197 51.019124 
L 168.563841 55.30722 
L 169.583484 50.026095 
L 170.603128 50.97339 
L 171.622772 46.144654 
L 172.642415 51.330517 
L 173.662059 44.922674 
L 174.681703 47.560387 
L 175.701346 44.674589 
L 176.72099 47.305661 
L 177.740634 42.7584 
L 178.760277 40.974055 
L 179.779921 45.498797 
L 180.799565 48.803342 
L 181.819208 39.480961 
L 182.838852 39.178754 
L 183.858496 41.653057 
L 184.878139 42.95813 
L 185.897783 39.769881 
L 186.917427 39.991995 
L 187.93707 39.345381 
L 188.956714 35.316401 
L 189.976358 37.541981 
L 190.996001 38.64342 
L 192.015645 36.867223 
L 193.035289 35.470815 
L 194.054932 35.087 
L 195.074576 37.369998 
L 196.09422 36.158701 
L 197.113863 33.581643 
L 198.133507 33.984049 
L 199.153151 37.700433 
L 200.172794 33.197722 
L 201.192438 32.969101 
L 202.212082 32.020724 
L 203.231725 35.953516 
L 204.251369 31.570845 
L 205.271013 33.899163 
L 206.290656 34.297816 
L 207.3103 33.110843 
L 208.329944 31.587568 
L 209.349587 29.30214 
L 210.369231 31.808938 
L 211.388875 26.594102 
L 212.408518 29.80466 
L 213.428162 28.526005 
L 214.447806 28.239997 
L 215.467449 27.17917 
L 216.487093 29.386878 
L 217.506737 26.808741 
L 218.52638 27.917669 
L 219.546024 27.380788 
L 220.565668 28.30634 
L 221.585312 29.412145 
L 222.604955 27.746896 
L 223.624599 26.680415 
L 224.644243 22.798731 
L 225.663886 25.057109 
L 226.68353 21.881764 
L 227.703174 25.403937 
L 228.722817 27.446194 
L 229.742461 26.791149 
L 230.762105 23.151778 
L 232.801392 22.928544 
L 233.821036 28.912565 
L 234.840679 24.52017 
L 235.860323 24.852607 
L 236.879967 21.519185 
L 237.89961 21.065388 
L 239.938898 26.184751 
L 240.958541 20.964941 
L 241.978185 23.674859 
L 242.997829 21.144521 
L 244.017472 24.780089 
L 245.037116 20.978699 
L 246.05676 20.502255 
L 247.076403 20.364764 
L 248.096047 21.382621 
L 249.115691 21.916564 
L 250.135334 22.166007 
L 251.154978 21.114424 
L 252.174622 20.237973 
L 253.194265 20.246695 
L 254.213909 19.949699 
L 255.233553 20.562587 
L 256.253196 21.544905 
L 257.27284 18.093643 
L 258.292484 17.474033 
L 259.312127 16.613043 
L 260.331771 20.379719 
L 261.351415 18.636057 
L 262.371058 19.295187 
L 263.390702 19.25535 
L 264.410346 18.349182 
L 265.429989 18.457994 
L 266.449633 19.2367 
L 267.469277 15.819614 
L 268.48892 17.885751 
L 268.48892 17.885751 
" clip-path="url(#p4307fd90a7)" style="fill: none; stroke-dasharray: 5.55,2.4; stroke-dashoffset: 0; stroke: #d62728; stroke-width: 1.5"/>
    <defs>
     <path id="m916684b442" d="M 0 -3 
L -2.598076 -1.5 
L -2.598076 1.5 
L -0 3 
L 2.598076 1.5 
L 2.598076 -1.5 
z
" style="stroke: #d62728; stroke-linejoin: miter"/>
    </defs>
    <g clip-path="url(#p4307fd90a7)">
     <use xlink:href="#m916684b442" x="65.57983" y="165.901619" style="fill: #d62728; stroke: #d62728; stroke-linejoin: miter"/>
    </g>
   </g>
   <g id="line2d_32">
    <path d="M 65.57983 165.901619 
L 68.638761 162.097078 
L 70.678048 159.447063 
L 71.697692 158.511579 
L 72.717335 156.893005 
L 73.736979 155.878193 
L 74.756623 154.543975 
L 75.776266 152.890297 
L 76.79591 152.077952 
L 77.815554 150.81368 
L 78.835197 149.358508 
L 79.854841 148.104778 
L 80.874485 146.671231 
L 81.894128 145.815615 
L 83.933416 142.873029 
L 84.953059 141.933541 
L 85.972703 140.014218 
L 86.992347 138.798414 
L 88.01199 138.917954 
L 89.031634 138.023705 
L 90.051278 134.573827 
L 91.070921 135.23579 
L 92.090565 133.680617 
L 93.110209 131.122868 
L 94.129852 132.08173 
L 95.149496 127.947243 
L 96.16914 128.751865 
L 97.188783 126.697182 
L 98.208427 124.321831 
L 99.228071 124.989297 
L 100.247714 122.201707 
L 101.267358 120.817143 
L 102.287002 120.245564 
L 103.306645 117.276878 
L 104.326289 118.250722 
L 105.345933 117.522811 
L 107.38522 113.013015 
L 108.404864 112.226557 
L 109.424507 112.29553 
L 110.444151 110.813657 
L 111.463795 110.513692 
L 112.483438 107.473614 
L 113.503082 105.6896 
L 114.522726 105.113458 
L 115.54237 103.340854 
L 116.562013 101.878124 
L 117.581657 101.404209 
L 118.601301 99.909966 
L 119.620944 97.459622 
L 120.640588 97.779294 
L 121.660232 95.354674 
L 122.679875 94.766899 
L 123.699519 93.027437 
L 124.719163 89.701813 
L 125.738806 90.352166 
L 126.75845 89.81926 
L 127.778094 90.132064 
L 128.797737 86.58742 
L 129.817381 87.00245 
L 130.837025 83.693084 
L 131.856668 84.481648 
L 132.876312 82.912286 
L 133.895956 81.064694 
L 134.915599 77.006236 
L 135.935243 78.737575 
L 136.954887 74.912795 
L 137.97453 76.126087 
L 138.994174 74.414849 
L 140.013818 71.57838 
L 141.033461 72.558776 
L 142.053105 70.904842 
L 143.072749 72.276048 
L 144.092392 66.784702 
L 145.112036 64.533723 
L 146.13168 65.129354 
L 147.151323 63.6138 
L 148.170967 61.722548 
L 149.190611 58.785708 
L 150.210254 60.3804 
L 151.229898 58.231002 
L 152.249542 55.431924 
L 153.269185 54.794435 
L 154.288829 53.912535 
L 155.308473 53.679436 
L 156.328116 55.36323 
L 157.34776 52.470201 
L 158.367404 49.074256 
L 159.387047 48.933249 
L 160.406691 46.272448 
L 161.426335 46.217175 
L 162.445978 42.729162 
L 163.465622 45.293199 
L 164.485266 38.223869 
L 165.504909 42.03068 
L 166.524553 37.45902 
L 167.544197 38.921215 
L 168.563841 42.507239 
L 169.583484 35.691844 
L 170.603128 37.798365 
L 171.622772 34.106614 
L 172.642415 38.395084 
L 173.662059 32.272554 
L 174.681703 35.088952 
L 175.701346 32.986652 
L 176.72099 34.911113 
L 177.740634 32.169441 
L 178.760277 32.451304 
L 179.779921 35.036422 
L 180.799565 34.245889 
L 181.819208 31.628983 
L 182.838852 30.381956 
L 183.858496 32.963305 
L 184.878139 32.418177 
L 185.897783 31.45891 
L 186.917427 30.854924 
L 187.93707 31.488005 
L 188.956714 30.027361 
L 189.976358 30.88861 
L 190.996001 31.360407 
L 192.015645 30.723017 
L 193.035289 30.66585 
L 194.054932 29.28766 
L 195.074576 31.467145 
L 196.09422 29.401309 
L 197.113863 29.915556 
L 198.133507 29.92614 
L 199.153151 31.584037 
L 200.172794 28.367007 
L 202.212082 28.029621 
L 203.231725 30.267873 
L 204.251369 27.692461 
L 205.271013 28.947792 
L 206.290656 29.357046 
L 207.3103 29.172702 
L 208.329944 28.126789 
L 209.349587 25.779535 
L 210.369231 28.388749 
L 211.388875 25.039688 
L 212.408518 26.434821 
L 213.428162 25.63634 
L 214.447806 26.388701 
L 215.467449 24.604436 
L 216.487093 26.334461 
L 217.506737 24.250138 
L 218.52638 23.925325 
L 219.546024 26.005025 
L 220.565668 25.06385 
L 221.585312 27.437334 
L 222.604955 25.202936 
L 223.624599 25.236306 
L 224.644243 20.96137 
L 225.663886 22.538504 
L 226.68353 20.871829 
L 227.703174 23.263341 
L 228.722817 25.027005 
L 229.742461 24.523517 
L 230.762105 21.694003 
L 231.781748 22.394851 
L 232.801392 21.642952 
L 233.821036 25.823235 
L 234.840679 22.128616 
L 235.860323 24.340651 
L 236.879967 20.285893 
L 237.89961 19.910383 
L 239.938898 25.216895 
L 240.958541 19.895793 
L 241.978185 22.31925 
L 242.997829 20.369451 
L 244.017472 23.243515 
L 245.037116 19.696483 
L 246.05676 20.338449 
L 247.076403 19.54793 
L 248.096047 19.865115 
L 249.115691 19.836061 
L 250.135334 21.592017 
L 251.154978 20.857305 
L 252.174622 18.699806 
L 253.194265 19.53327 
L 254.213909 18.68645 
L 255.233553 20.012358 
L 256.253196 18.891951 
L 258.292484 16.215364 
L 259.312127 16.356225 
L 260.331771 19.005146 
L 261.351415 17.337395 
L 262.371058 18.724221 
L 263.390702 18.891585 
L 264.410346 17.987217 
L 265.429989 18.134538 
L 267.469277 14.76 
L 268.48892 17.346155 
L 268.48892 17.346155 
" clip-path="url(#p4307fd90a7)" style="fill: none; stroke: #d62728; stroke-width: 1.5; stroke-linecap: square"/>
    <g clip-path="url(#p4307fd90a7)">
     <use xlink:href="#m916684b442" x="65.57983" y="165.901619" style="fill: #d62728; stroke: #d62728; stroke-linejoin: miter"/>
     <use xlink:href="#m916684b442" x="85.972703" y="140.014218" style="fill: #d62728; stroke: #d62728; stroke-linejoin: miter"/>
     <use xlink:href="#m916684b442" x="106.365576" y="115.392737" style="fill: #d62728; stroke: #d62728; stroke-linejoin: miter"/>
     <use xlink:href="#m916684b442" x="126.75845" y="89.81926" style="fill: #d62728; stroke: #d62728; stroke-linejoin: miter"/>
     <use xlink:href="#m916684b442" x="147.151323" y="63.6138" style="fill: #d62728; stroke: #d62728; stroke-linejoin: miter"/>
     <use xlink:href="#m916684b442" x="167.544197" y="38.921215" style="fill: #d62728; stroke: #d62728; stroke-linejoin: miter"/>
     <use xlink:href="#m916684b442" x="187.93707" y="31.488005" style="fill: #d62728; stroke: #d62728; stroke-linejoin: miter"/>
     <use xlink:href="#m916684b442" x="208.329944" y="28.126789" style="fill: #d62728; stroke: #d62728; stroke-linejoin: miter"/>
     <use xlink:href="#m916684b442" x="228.722817" y="25.027005" style="fill: #d62728; stroke: #d62728; stroke-linejoin: miter"/>
     <use xlink:href="#m916684b442" x="249.115691" y="19.836061" style="fill: #d62728; stroke: #d62728; stroke-linejoin: miter"/>
    </g>
   </g>
   <g id="patch_3">
    <path d="M 55.434375 173.52 
L 55.434375 7.2 
" style="fill: none; stroke: #000000; stroke-width: 0.8; stroke-linejoin: miter; stroke-linecap: square"/>
   </g>
   <g id="patch_4">
    <path d="M 278.634375 173.52 
L 278.634375 7.2 
" style="fill: none; stroke: #000000; stroke-width: 0.8; stroke-linejoin: miter; stroke-linecap: square"/>
   </g>
   <g id="patch_5">
    <path d="M 55.434375 173.52 
L 278.634375 173.52 
" style="fill: none; stroke: #000000; stroke-width: 0.8; stroke-linejoin: miter; stroke-linecap: square"/>
   </g>
   <g id="patch_6">
    <path d="M 55.434375 7.2 
L 278.634375 7.2 
" style="fill: none; stroke: #000000; stroke-width: 0.8; stroke-linejoin: miter; stroke-linecap: square"/>
   </g>
   <g id="legend_1">
    <g id="patch_7">
     <path d="M 193.66875 168.52 
L 271.634375 168.52 
Q 273.634375 168.52 273.634375 166.52 
L 273.634375 79.45125 
Q 273.634375 77.45125 271.634375 77.45125 
L 193.66875 77.45125 
Q 191.66875 77.45125 191.66875 79.45125 
L 191.66875 166.52 
Q 191.66875 168.52 193.66875 168.52 
z
" style="fill: #ffffff; opacity: 0.8; stroke: #cccccc; stroke-linejoin: miter"/>
    </g>
    <g id="line2d_33">
     <path d="M 195.66875 85.549688 
L 205.66875 85.549688 
L 215.66875 85.549688 
" style="fill: none; stroke: #1f77b4; stroke-width: 1.5; stroke-linecap: square"/>
     <g>
      <use xlink:href="#m4ed5ed9c3b" x="205.66875" y="85.549688" style="fill: #1f77b4; stroke: #1f77b4"/>
     </g>
    </g>
    <g id="text_15">
     <!-- (0.0, 0.0) -->
     <g transform="translate(223.66875 89.049688) scale(0.1 -0.1)">
      <defs>
       <path id="DejaVuSerif-2e" d="M 603 325 
Q 603 500 722 622 
Q 841 744 1019 744 
Q 1191 744 1312 622 
Q 1434 500 1434 325 
Q 1434 153 1312 31 
Q 1191 -91 1019 -91 
Q 841 -91 722 29 
Q 603 150 603 325 
z
" transform="scale(0.015625)"/>
       <path id="DejaVuSerif-2c" d="M 231 -622 
Q 525 -406 662 -114 
Q 800 178 800 594 
L 800 709 
L 1416 709 
Q 1391 175 1164 -208 
Q 938 -591 481 -872 
L 231 -622 
z
" transform="scale(0.015625)"/>
      </defs>
      <use xlink:href="#DejaVuSerif-28"/>
      <use xlink:href="#DejaVuSerif-30" transform="translate(39.013672 0)"/>
      <use xlink:href="#DejaVuSerif-2e" transform="translate(102.636719 0)"/>
      <use xlink:href="#DejaVuSerif-30" transform="translate(134.423828 0)"/>
      <use xlink:href="#DejaVuSerif-2c" transform="translate(198.046875 0)"/>
      <use xlink:href="#DejaVuSerif-20" transform="translate(229.833984 0)"/>
      <use xlink:href="#DejaVuSerif-30" transform="translate(261.621094 0)"/>
      <use xlink:href="#DejaVuSerif-2e" transform="translate(325.244141 0)"/>
      <use xlink:href="#DejaVuSerif-30" transform="translate(357.03125 0)"/>
      <use xlink:href="#DejaVuSerif-29" transform="translate(420.654297 0)"/>
     </g>
    </g>
    <g id="line2d_34">
     <path d="M 195.66875 100.227812 
L 205.66875 100.227812 
L 215.66875 100.227812 
" style="fill: none; stroke: #ff7f0e; stroke-width: 1.5; stroke-linecap: square"/>
     <g>
      <use xlink:href="#m911bfd7f22" x="205.66875" y="100.227812" style="fill: #ff7f0e; stroke: #ff7f0e; stroke-linejoin: miter"/>
     </g>
    </g>
    <g id="text_16">
     <!-- (0.5, 0.0) -->
     <g transform="translate(223.66875 103.727812) scale(0.1 -0.1)">
      <use xlink:href="#DejaVuSerif-28"/>
      <use xlink:href="#DejaVuSerif-30" transform="translate(39.013672 0)"/>
      <use xlink:href="#DejaVuSerif-2e" transform="translate(102.636719 0)"/>
      <use xlink:href="#DejaVuSerif-35" transform="translate(134.423828 0)"/>
      <use xlink:href="#DejaVuSerif-2c" transform="translate(198.046875 0)"/>
      <use xlink:href="#DejaVuSerif-20" transform="translate(229.833984 0)"/>
      <use xlink:href="#DejaVuSerif-30" transform="translate(261.621094 0)"/>
      <use xlink:href="#DejaVuSerif-2e" transform="translate(325.244141 0)"/>
      <use xlink:href="#DejaVuSerif-30" transform="translate(357.03125 0)"/>
      <use xlink:href="#DejaVuSerif-29" transform="translate(420.654297 0)"/>
     </g>
    </g>
    <g id="line2d_35">
     <path d="M 195.66875 114.905938 
L 205.66875 114.905938 
L 215.66875 114.905938 
" style="fill: none; stroke: #2ca02c; stroke-width: 1.5; stroke-linecap: square"/>
     <g>
      <use xlink:href="#mc2c124dfc4" x="205.66875" y="114.905938" style="fill: #2ca02c; stroke: #2ca02c; stroke-linejoin: miter"/>
     </g>
    </g>
    <g id="text_17">
     <!-- (1.0, 0.0) -->
     <g transform="translate(223.66875 118.405938) scale(0.1 -0.1)">
      <use xlink:href="#DejaVuSerif-28"/>
      <use xlink:href="#DejaVuSerif-31" transform="translate(39.013672 0)"/>
      <use xlink:href="#DejaVuSerif-2e" transform="translate(102.636719 0)"/>
      <use xlink:href="#DejaVuSerif-30" transform="translate(134.423828 0)"/>
      <use xlink:href="#DejaVuSerif-2c" transform="translate(198.046875 0)"/>
      <use xlink:href="#DejaVuSerif-20" transform="translate(229.833984 0)"/>
      <use xlink:href="#DejaVuSerif-30" transform="translate(261.621094 0)"/>
      <use xlink:href="#DejaVuSerif-2e" transform="translate(325.244141 0)"/>
      <use xlink:href="#DejaVuSerif-30" transform="translate(357.03125 0)"/>
      <use xlink:href="#DejaVuSerif-29" transform="translate(420.654297 0)"/>
     </g>
    </g>
    <g id="line2d_36">
     <path d="M 195.66875 129.584063 
L 205.66875 129.584063 
L 215.66875 129.584063 
" style="fill: none; stroke: #d62728; stroke-width: 1.5; stroke-linecap: square"/>
     <g>
      <use xlink:href="#m916684b442" x="205.66875" y="129.584063" style="fill: #d62728; stroke: #d62728; stroke-linejoin: miter"/>
     </g>
    </g>
    <g id="text_18">
     <!-- (0.5, 0.2) -->
     <g transform="translate(223.66875 133.084063) scale(0.1 -0.1)">
      <use xlink:href="#DejaVuSerif-28"/>
      <use xlink:href="#DejaVuSerif-30" transform="translate(39.013672 0)"/>
      <use xlink:href="#DejaVuSerif-2e" transform="translate(102.636719 0)"/>
      <use xlink:href="#DejaVuSerif-35" transform="translate(134.423828 0)"/>
      <use xlink:href="#DejaVuSerif-2c" transform="translate(198.046875 0)"/>
      <use xlink:href="#DejaVuSerif-20" transform="translate(229.833984 0)"/>
      <use xlink:href="#DejaVuSerif-30" transform="translate(261.621094 0)"/>
      <use xlink:href="#DejaVuSerif-2e" transform="translate(325.244141 0)"/>
      <use xlink:href="#DejaVuSerif-32" transform="translate(357.03125 0)"/>
      <use xlink:href="#DejaVuSerif-29" transform="translate(420.654297 0)"/>
     </g>
    </g>
    <g id="line2d_37">
     <path d="M 195.66875 144.262188 
L 205.66875 144.262188 
L 215.66875 144.262188 
" style="fill: none; stroke: #000000; stroke-width: 1.5; stroke-linecap: square"/>
    </g>
    <g id="text_19">
     <!-- QKP -->
     <g transform="translate(223.66875 147.762188) scale(0.1 -0.1)">
      <defs>
       <path id="DejaVuSerif-51" d="M 2700 -91 
Q 1628 -91 993 567 
Q 359 1225 359 2328 
Q 359 2894 529 3339 
Q 700 3784 1050 4134 
Q 1356 4441 1750 4595 
Q 2144 4750 2625 4750 
Q 3641 4750 4266 4084 
Q 4891 3419 4891 2328 
Q 4891 1403 4422 773 
Q 3953 144 3128 -38 
Q 3297 -247 3539 -347 
Q 3781 -447 4122 -447 
L 4219 -447 
L 4219 -1025 
Q 3691 -1000 3314 -767 
Q 2938 -534 2700 -91 
z
M 2625 244 
Q 3391 244 3781 770 
Q 4172 1297 4172 2328 
Q 4172 3363 3781 3889 
Q 3391 4416 2625 4416 
Q 1856 4416 1465 3889 
Q 1075 3363 1075 2328 
Q 1075 1297 1465 770 
Q 1856 244 2625 244 
z
" transform="scale(0.015625)"/>
       <path id="DejaVuSerif-50" d="M 1581 2375 
L 2406 2375 
Q 2872 2375 3115 2626 
Q 3359 2878 3359 3353 
Q 3359 3831 3115 4081 
Q 2872 4331 2406 4331 
L 1581 4331 
L 1581 2375 
z
M 353 0 
L 353 331 
L 947 331 
L 947 4331 
L 353 4331 
L 353 4666 
L 2559 4666 
Q 3259 4666 3668 4311 
Q 4078 3956 4078 3353 
Q 4078 2753 3668 2397 
Q 3259 2041 2559 2041 
L 1581 2041 
L 1581 331 
L 2303 331 
L 2303 0 
L 353 0 
z
" transform="scale(0.015625)"/>
      </defs>
      <use xlink:href="#DejaVuSerif-51"/>
      <use xlink:href="#DejaVuSerif-4b" transform="translate(81.982422 0)"/>
      <use xlink:href="#DejaVuSerif-50" transform="translate(156.689453 0)"/>
     </g>
    </g>
    <g id="line2d_38">
     <path d="M 195.66875 158.940313 
L 205.66875 158.940313 
L 215.66875 158.940313 
" style="fill: none; stroke-dasharray: 5.55,2.4; stroke-dashoffset: 0; stroke: #000000; stroke-width: 1.5"/>
    </g>
    <g id="text_20">
     <!-- No QKP -->
     <g transform="translate(223.66875 162.440313) scale(0.1 -0.1)">
      <defs>
       <path id="DejaVuSerif-4e" d="M 313 0 
L 313 331 
L 941 331 
L 941 4331 
L 313 4331 
L 313 4666 
L 1509 4666 
L 4306 984 
L 4306 4331 
L 3681 4331 
L 3681 4666 
L 5319 4666 
L 5319 4331 
L 4691 4331 
L 4691 -91 
L 4313 -91 
L 1325 3841 
L 1325 331 
L 1953 331 
L 1953 0 
L 313 0 
z
" transform="scale(0.015625)"/>
      </defs>
      <use xlink:href="#DejaVuSerif-4e"/>
      <use xlink:href="#DejaVuSerif-6f" transform="translate(87.5 0)"/>
      <use xlink:href="#DejaVuSerif-20" transform="translate(147.705078 0)"/>
      <use xlink:href="#DejaVuSerif-51" transform="translate(179.492188 0)"/>
      <use xlink:href="#DejaVuSerif-4b" transform="translate(261.474609 0)"/>
      <use xlink:href="#DejaVuSerif-50" transform="translate(336.181641 0)"/>
     </g>
    </g>
   </g>
  </g>
 </g>
 <defs>
  <clipPath id="p4307fd90a7">
   <rect x="55.434375" y="7.2" width="223.2" height="166.32"/>
  </clipPath>
 </defs>
</svg>
