<?xml version="1.0" encoding="utf-8" standalone="no"?>
<!DOCTYPE svg PUBLIC "-//W3C//DTD SVG 1.1//EN"
  "http://www.w3.org/Graphics/SVG/1.1/DTD/svg11.dtd">
<svg xmlns:xlink="http://www.w3.org/1999/xlink" width="266.652584pt" height="199.838125pt" viewBox="0 0 266.652584 199.838125" xmlns="http://www.w3.org/2000/svg" version="1.1">
 <metadata>
  <rdf:RDF xmlns:dc="http://purl.org/dc/elements/1.1/" xmlns:cc="http://creativecommons.org/ns#" xmlns:rdf="http://www.w3.org/1999/02/22-rdf-syntax-ns#">
   <cc:Work>
    <dc:type rdf:resource="http://purl.org/dc/dcmitype/StillImage"/>
    <dc:date>2026-03-10T02:52:08.069354</dc:date>
    <dc:format>image/svg+xml</dc:format>
    <dc:creator>
     <cc:Agent>
      <dc:title>Matplotlib v3.10.8, https://matplotlib.org/</dc:title>
     </cc:Agent>
    </dc:creator>
   </cc:Work>
  </rdf:RDF>
 </metadata>
 <defs>
  <style type="text/css">*{stroke-linejoin: round; stroke-linecap: butt}</style>
 </defs>
 <g id="figure_1">
  <g id="patch_1">
   <path d="M 0 199.838125 
L 266.652584 199.838125 
L 266.652584 0 
L 0 0 
L 0 199.838125 
z
" style="fill: none"/>
  </g>
  <g id="axes_1">
   <g id="patch_2">
    <path d="M 39.140313 167.04 
L 262.340312 167.04 
L 262.340312 0.72 
L 39.140313 0.72 
L 39.140313 167.04 
z
" style="fill: none"/>
   </g>
   <g id="matplotlib.axis_1">
    <g id="xtick_1">
     <g id="line2d_1">
      <path d="M 49.148666 167.04 
L 49.148666 0.72 
" clip-path="url(#p060c1bfb4e)" style="fill: none; stroke-dasharray: 2.96,1.28; stroke-dashoffset: 0; stroke: #b0b0b0; stroke-opacity: 0.5; stroke-width: 0.8"/>
     </g>
     <g id="line2d_2">
      <defs>
       <path id="m0aaaf3b9c8" d="M 0 0 
L 0 3.5 
" style="stroke: #000000; stroke-width: 0.8"/>
      </defs>
      <g>
       <use xlink:href="#m0aaaf3b9c8" x="49.148666" y="167.04" style="stroke: #000000; stroke-width: 0.8"/>
      </g>
     </g>
     <g id="text_1">
      <!-- 0.0 -->
      <g transform="translate(41.197104 181.638438) scale(0.1 -0.1)">
       <defs>
        <path id="DejaVuSerif-30" d="M 2034 219 
Q 2513 219 2750 744 
Q 2988 1269 2988 2328 
Q 2988 3391 2750 3916 
Q 2513 4441 2034 4441 
Q 1556 4441 1318 3916 
Q 1081 3391 1081 2328 
Q 1081 1269 1318 744 
Q 1556 219 2034 219 
z
M 2034 -91 
Q 1275 -91 848 546 
Q 422 1184 422 2328 
Q 422 3475 848 4112 
Q 1275 4750 2034 4750 
Q 2797 4750 3222 4112 
Q 3647 3475 3647 2328 
Q 3647 1184 3222 546 
Q 2797 -91 2034 -91 
z
" transform="scale(0.015625)"/>
        <path id="DejaVuSerif-2e" d="M 603 325 
Q 603 500 722 622 
Q 841 744 1019 744 
Q 1191 744 1312 622 
Q 1434 500 1434 325 
Q 1434 153 1312 31 
Q 1191 -91 1019 -91 
Q 841 -91 722 29 
Q 603 150 603 325 
z
" transform="scale(0.015625)"/>
       </defs>
       <use xlink:href="#DejaVuSerif-30"/>
       <use xlink:href="#DejaVuSerif-2e" transform="translate(63.623047 0)"/>
       <use xlink:href="#DejaVuSerif-30" transform="translate(95.410156 0)"/>
      </g>
     </g>
    </g>
    <g id="xtick_2">
     <g id="line2d_3">
      <path d="M 83.423851 167.04 
L 83.423851 0.72 
" clip-path="url(#p060c1bfb4e)" style="fill: none; stroke-dasharray: 2.96,1.28; stroke-dashoffset: 0; stroke: #b0b0b0; stroke-opacity: 0.5; stroke-width: 0.8"/>
     </g>
     <g id="line2d_4">
      <g>
       <use xlink:href="#m0aaaf3b9c8" x="83.423851" y="167.04" style="stroke: #000000; stroke-width: 0.8"/>
      </g>
     </g>
     <g id="text_2">
      <!-- 2.5 -->
      <g transform="translate(75.472288 181.638438) scale(0.1 -0.1)">
       <defs>
        <path id="DejaVuSerif-32" d="M 819 3553 
L 469 3553 
L 469 4384 
Q 803 4563 1142 4656 
Q 1481 4750 1806 4750 
Q 2534 4750 2956 4397 
Q 3378 4044 3378 3438 
Q 3378 2753 2422 1800 
Q 2347 1728 2309 1691 
L 1131 513 
L 3078 513 
L 3078 1088 
L 3444 1088 
L 3444 0 
L 434 0 
L 434 341 
L 1850 1753 
Q 2319 2222 2519 2614 
Q 2719 3006 2719 3438 
Q 2719 3909 2473 4175 
Q 2228 4441 1797 4441 
Q 1350 4441 1106 4219 
Q 863 3997 819 3553 
z
" transform="scale(0.015625)"/>
        <path id="DejaVuSerif-35" d="M 3219 4666 
L 3219 4153 
L 1081 4153 
L 1081 2816 
Q 1244 2928 1461 2984 
Q 1678 3041 1947 3041 
Q 2703 3041 3140 2622 
Q 3578 2203 3578 1478 
Q 3578 738 3136 323 
Q 2694 -91 1894 -91 
Q 1572 -91 1234 -12 
Q 897 66 544 225 
L 544 1131 
L 897 1131 
Q 925 688 1179 453 
Q 1434 219 1894 219 
Q 2388 219 2653 544 
Q 2919 869 2919 1478 
Q 2919 2084 2655 2407 
Q 2391 2731 1894 2731 
Q 1613 2731 1398 2631 
Q 1184 2531 1019 2322 
L 750 2322 
L 750 4666 
L 3219 4666 
z
" transform="scale(0.015625)"/>
       </defs>
       <use xlink:href="#DejaVuSerif-32"/>
       <use xlink:href="#DejaVuSerif-2e" transform="translate(63.623047 0)"/>
       <use xlink:href="#DejaVuSerif-35" transform="translate(95.410156 0)"/>
      </g>
     </g>
    </g>
    <g id="xtick_3">
     <g id="line2d_5">
      <path d="M 117.699035 167.04 
L 117.699035 0.72 
" clip-path="url(#p060c1bfb4e)" style="fill: none; stroke-dasharray: 2.96,1.28; stroke-dashoffset: 0; stroke: #b0b0b0; stroke-opacity: 0.5; stroke-width: 0.8"/>
     </g>
     <g id="line2d_6">
      <g>
       <use xlink:href="#m0aaaf3b9c8" x="117.699035" y="167.04" style="stroke: #000000; stroke-width: 0.8"/>
      </g>
     </g>
     <g id="text_3">
      <!-- 5.0 -->
      <g transform="translate(109.747472 181.638438) scale(0.1 -0.1)">
       <use xlink:href="#DejaVuSerif-35"/>
       <use xlink:href="#DejaVuSerif-2e" transform="translate(63.623047 0)"/>
       <use xlink:href="#DejaVuSerif-30" transform="translate(95.410156 0)"/>
      </g>
     </g>
    </g>
    <g id="xtick_4">
     <g id="line2d_7">
      <path d="M 151.974219 167.04 
L 151.974219 0.72 
" clip-path="url(#p060c1bfb4e)" style="fill: none; stroke-dasharray: 2.96,1.28; stroke-dashoffset: 0; stroke: #b0b0b0; stroke-opacity: 0.5; stroke-width: 0.8"/>
     </g>
     <g id="line2d_8">
      <g>
       <use xlink:href="#m0aaaf3b9c8" x="151.974219" y="167.04" style="stroke: #000000; stroke-width: 0.8"/>
      </g>
     </g>
     <g id="text_4">
      <!-- 7.5 -->
      <g transform="translate(144.022657 181.638438) scale(0.1 -0.1)">
       <defs>
        <path id="DejaVuSerif-37" d="M 3609 4347 
L 1784 0 
L 1319 0 
L 3059 4153 
L 903 4153 
L 903 3578 
L 538 3578 
L 538 4666 
L 3609 4666 
L 3609 4347 
z
" transform="scale(0.015625)"/>
       </defs>
       <use xlink:href="#DejaVuSerif-37"/>
       <use xlink:href="#DejaVuSerif-2e" transform="translate(63.623047 0)"/>
       <use xlink:href="#DejaVuSerif-35" transform="translate(95.410156 0)"/>
      </g>
     </g>
    </g>
    <g id="xtick_5">
     <g id="line2d_9">
      <path d="M 186.249403 167.04 
L 186.249403 0.72 
" clip-path="url(#p060c1bfb4e)" style="fill: none; stroke-dasharray: 2.96,1.28; stroke-dashoffset: 0; stroke: #b0b0b0; stroke-opacity: 0.5; stroke-width: 0.8"/>
     </g>
     <g id="line2d_10">
      <g>
       <use xlink:href="#m0aaaf3b9c8" x="186.249403" y="167.04" style="stroke: #000000; stroke-width: 0.8"/>
      </g>
     </g>
     <g id="text_5">
      <!-- 10.0 -->
      <g transform="translate(175.116591 181.638438) scale(0.1 -0.1)">
       <defs>
        <path id="DejaVuSerif-31" d="M 909 0 
L 909 331 
L 1722 331 
L 1722 4213 
L 781 3603 
L 781 4013 
L 1919 4750 
L 2350 4750 
L 2350 331 
L 3163 331 
L 3163 0 
L 909 0 
z
" transform="scale(0.015625)"/>
       </defs>
       <use xlink:href="#DejaVuSerif-31"/>
       <use xlink:href="#DejaVuSerif-30" transform="translate(63.623047 0)"/>
       <use xlink:href="#DejaVuSerif-2e" transform="translate(127.246094 0)"/>
       <use xlink:href="#DejaVuSerif-30" transform="translate(159.033203 0)"/>
      </g>
     </g>
    </g>
    <g id="xtick_6">
     <g id="line2d_11">
      <path d="M 220.524588 167.04 
L 220.524588 0.72 
" clip-path="url(#p060c1bfb4e)" style="fill: none; stroke-dasharray: 2.96,1.28; stroke-dashoffset: 0; stroke: #b0b0b0; stroke-opacity: 0.5; stroke-width: 0.8"/>
     </g>
     <g id="line2d_12">
      <g>
       <use xlink:href="#m0aaaf3b9c8" x="220.524588" y="167.04" style="stroke: #000000; stroke-width: 0.8"/>
      </g>
     </g>
     <g id="text_6">
      <!-- 12.5 -->
      <g transform="translate(209.391775 181.638438) scale(0.1 -0.1)">
       <use xlink:href="#DejaVuSerif-31"/>
       <use xlink:href="#DejaVuSerif-32" transform="translate(63.623047 0)"/>
       <use xlink:href="#DejaVuSerif-2e" transform="translate(127.246094 0)"/>
       <use xlink:href="#DejaVuSerif-35" transform="translate(159.033203 0)"/>
      </g>
     </g>
    </g>
    <g id="xtick_7">
     <g id="line2d_13">
      <path d="M 254.799772 167.04 
L 254.799772 0.72 
" clip-path="url(#p060c1bfb4e)" style="fill: none; stroke-dasharray: 2.96,1.28; stroke-dashoffset: 0; stroke: #b0b0b0; stroke-opacity: 0.5; stroke-width: 0.8"/>
     </g>
     <g id="line2d_14">
      <g>
       <use xlink:href="#m0aaaf3b9c8" x="254.799772" y="167.04" style="stroke: #000000; stroke-width: 0.8"/>
      </g>
     </g>
     <g id="text_7">
      <!-- 15.0 -->
      <g transform="translate(243.666959 181.638438) scale(0.1 -0.1)">
       <use xlink:href="#DejaVuSerif-31"/>
       <use xlink:href="#DejaVuSerif-35" transform="translate(63.623047 0)"/>
       <use xlink:href="#DejaVuSerif-2e" transform="translate(127.246094 0)"/>
       <use xlink:href="#DejaVuSerif-30" transform="translate(159.033203 0)"/>
      </g>
     </g>
    </g>
    <g id="text_8">
     <!-- Mean SKR demand $\bar{K}$ (kbps) -->
     <g transform="translate(79.690313 197.018125) scale(0.1 -0.1)">
      <defs>
       <path id="DejaVuSerif-4d" d="M 353 0 
L 353 331 
L 947 331 
L 947 4331 
L 319 4331 
L 319 4666 
L 1678 4666 
L 3316 1344 
L 4953 4666 
L 6228 4666 
L 6228 4331 
L 5606 4331 
L 5606 331 
L 6203 331 
L 6203 0 
L 4378 0 
L 4378 331 
L 4972 331 
L 4972 3938 
L 3372 684 
L 2931 684 
L 1331 3938 
L 1331 331 
L 1925 331 
L 1925 0 
L 353 0 
z
" transform="scale(0.015625)"/>
       <path id="DejaVuSerif-65" d="M 3469 1600 
L 991 1600 
L 991 1575 
Q 991 903 1244 561 
Q 1497 219 1991 219 
Q 2369 219 2611 417 
Q 2853 616 2950 1006 
L 3413 1006 
Q 3275 459 2904 184 
Q 2534 -91 1931 -91 
Q 1203 -91 761 389 
Q 319 869 319 1663 
Q 319 2450 753 2931 
Q 1188 3413 1894 3413 
Q 2647 3413 3050 2948 
Q 3453 2484 3469 1600 
z
M 2791 1931 
Q 2772 2513 2545 2808 
Q 2319 3103 1894 3103 
Q 1497 3103 1269 2806 
Q 1041 2509 991 1931 
L 2791 1931 
z
" transform="scale(0.015625)"/>
       <path id="DejaVuSerif-61" d="M 2547 1044 
L 2547 1747 
L 1806 1747 
Q 1378 1747 1168 1562 
Q 959 1378 959 997 
Q 959 650 1171 447 
Q 1384 244 1747 244 
Q 2106 244 2326 466 
Q 2547 688 2547 1044 
z
M 3122 2075 
L 3122 331 
L 3634 331 
L 3634 0 
L 2547 0 
L 2547 359 
Q 2356 128 2106 18 
Q 1856 -91 1522 -91 
Q 969 -91 644 203 
Q 319 497 319 997 
Q 319 1513 691 1797 
Q 1063 2081 1741 2081 
L 2547 2081 
L 2547 2309 
Q 2547 2688 2317 2895 
Q 2088 3103 1672 3103 
Q 1328 3103 1125 2947 
Q 922 2791 872 2484 
L 575 2484 
L 575 3156 
Q 875 3284 1158 3348 
Q 1441 3413 1709 3413 
Q 2400 3413 2761 3070 
Q 3122 2728 3122 2075 
z
" transform="scale(0.015625)"/>
       <path id="DejaVuSerif-6e" d="M 263 0 
L 263 331 
L 781 331 
L 781 2988 
L 231 2988 
L 231 3322 
L 1356 3322 
L 1356 2731 
Q 1516 3069 1770 3241 
Q 2025 3413 2363 3413 
Q 2913 3413 3172 3097 
Q 3431 2781 3431 2113 
L 3431 331 
L 3944 331 
L 3944 0 
L 2356 0 
L 2356 331 
L 2853 331 
L 2853 1931 
Q 2853 2541 2703 2767 
Q 2553 2994 2175 2994 
Q 1775 2994 1565 2701 
Q 1356 2409 1356 1850 
L 1356 331 
L 1856 331 
L 1856 0 
L 263 0 
z
" transform="scale(0.015625)"/>
       <path id="DejaVuSerif-20" transform="scale(0.015625)"/>
       <path id="DejaVuSerif-53" d="M 594 225 
L 594 1288 
L 953 1284 
Q 969 753 1261 498 
Q 1553 244 2150 244 
Q 2706 244 2998 464 
Q 3291 684 3291 1106 
Q 3291 1444 3114 1625 
Q 2938 1806 2369 1978 
L 1753 2163 
Q 1084 2366 811 2669 
Q 538 2972 538 3500 
Q 538 4094 959 4422 
Q 1381 4750 2144 4750 
Q 2469 4750 2856 4679 
Q 3244 4609 3681 4475 
L 3681 3481 
L 3328 3481 
Q 3275 3975 2998 4195 
Q 2722 4416 2156 4416 
Q 1663 4416 1405 4214 
Q 1147 4013 1147 3628 
Q 1147 3294 1340 3103 
Q 1534 2913 2163 2725 
L 2741 2553 
Q 3375 2363 3645 2067 
Q 3916 1772 3916 1275 
Q 3916 597 3481 253 
Q 3047 -91 2188 -91 
Q 1803 -91 1404 -12 
Q 1006 66 594 225 
z
" transform="scale(0.015625)"/>
       <path id="DejaVuSerif-4b" d="M 353 0 
L 353 331 
L 947 331 
L 947 4331 
L 353 4331 
L 353 4666 
L 2175 4666 
L 2175 4331 
L 1581 4331 
L 1581 2566 
L 3591 4331 
L 3084 4331 
L 3084 4666 
L 4634 4666 
L 4634 4331 
L 4109 4331 
L 2106 2572 
L 4347 331 
L 4878 331 
L 4878 0 
L 3794 0 
L 1581 2216 
L 1581 331 
L 2175 331 
L 2175 0 
L 353 0 
z
" transform="scale(0.015625)"/>
       <path id="DejaVuSerif-52" d="M 3066 2316 
Q 3284 2256 3442 2114 
Q 3600 1972 3725 1716 
L 4403 331 
L 4972 331 
L 4972 0 
L 3872 0 
L 3144 1484 
Q 2934 1916 2759 2042 
Q 2584 2169 2278 2169 
L 1581 2169 
L 1581 331 
L 2241 331 
L 2241 0 
L 353 0 
L 353 331 
L 947 331 
L 947 4331 
L 353 4331 
L 353 4666 
L 2719 4666 
Q 3400 4666 3770 4341 
Q 4141 4016 4141 3419 
Q 4141 2938 3870 2661 
Q 3600 2384 3066 2316 
z
M 1581 2503 
L 2503 2503 
Q 2975 2503 3200 2726 
Q 3425 2950 3425 3419 
Q 3425 3888 3200 4109 
Q 2975 4331 2503 4331 
L 1581 4331 
L 1581 2503 
z
" transform="scale(0.015625)"/>
       <path id="DejaVuSerif-64" d="M 3359 331 
L 3909 331 
L 3909 0 
L 2784 0 
L 2784 519 
Q 2616 206 2355 57 
Q 2094 -91 1709 -91 
Q 1097 -91 708 395 
Q 319 881 319 1663 
Q 319 2444 706 2928 
Q 1094 3413 1709 3413 
Q 2094 3413 2355 3264 
Q 2616 3116 2784 2803 
L 2784 4531 
L 2241 4531 
L 2241 4863 
L 3359 4863 
L 3359 331 
z
M 2784 1497 
L 2784 1825 
Q 2784 2422 2554 2737 
Q 2325 3053 1888 3053 
Q 1444 3053 1217 2703 
Q 991 2353 991 1663 
Q 991 975 1217 622 
Q 1444 269 1888 269 
Q 2325 269 2554 583 
Q 2784 897 2784 1497 
z
" transform="scale(0.015625)"/>
       <path id="DejaVuSerif-6d" d="M 3316 2675 
Q 3481 3041 3739 3227 
Q 3997 3413 4341 3413 
Q 4863 3413 5119 3089 
Q 5375 2766 5375 2113 
L 5375 331 
L 5894 331 
L 5894 0 
L 4300 0 
L 4300 331 
L 4800 331 
L 4800 2047 
Q 4800 2556 4650 2772 
Q 4500 2988 4153 2988 
Q 3769 2988 3567 2697 
Q 3366 2406 3366 1850 
L 3366 331 
L 3866 331 
L 3866 0 
L 2291 0 
L 2291 331 
L 2791 331 
L 2791 2069 
Q 2791 2566 2641 2777 
Q 2491 2988 2144 2988 
Q 1759 2988 1557 2697 
Q 1356 2406 1356 1850 
L 1356 331 
L 1856 331 
L 1856 0 
L 263 0 
L 263 331 
L 781 331 
L 781 2994 
L 231 2994 
L 231 3322 
L 1356 3322 
L 1356 2731 
Q 1516 3063 1762 3238 
Q 2009 3413 2322 3413 
Q 2709 3413 2968 3220 
Q 3228 3028 3316 2675 
z
" transform="scale(0.015625)"/>
       <path id="DejaVuSans-304" d="M -2518 4769 
L -650 4769 
L -650 4306 
L -2518 4306 
L -2518 4769 
z
" transform="scale(0.015625)"/>
       <path id="DejaVuSans-Oblique-4b" d="M 1081 4666 
L 1716 4666 
L 1331 2700 
L 3781 4666 
L 4622 4666 
L 1850 2438 
L 3878 0 
L 3109 0 
L 1247 2272 
L 806 0 
L 172 0 
L 1081 4666 
z
" transform="scale(0.015625)"/>
       <path id="DejaVuSerif-28" d="M 2041 -997 
Q 1281 -656 893 83 
Q 506 822 506 1931 
Q 506 3044 893 3783 
Q 1281 4522 2041 4863 
L 2041 4556 
Q 1559 4225 1350 3623 
Q 1141 3022 1141 1931 
Q 1141 844 1350 242 
Q 1559 -359 2041 -691 
L 2041 -997 
z
" transform="scale(0.015625)"/>
       <path id="DejaVuSerif-6b" d="M 1831 0 
L 219 0 
L 219 331 
L 738 331 
L 738 4531 
L 184 4531 
L 184 4863 
L 1313 4863 
L 1313 1697 
L 2713 2988 
L 2234 2988 
L 2234 3322 
L 3738 3322 
L 3738 2988 
L 3169 2988 
L 2181 2075 
L 3444 331 
L 3922 331 
L 3922 0 
L 2284 0 
L 2284 331 
L 2759 331 
L 1766 1697 
L 1313 1275 
L 1313 331 
L 1831 331 
L 1831 0 
z
" transform="scale(0.015625)"/>
       <path id="DejaVuSerif-62" d="M 738 331 
L 738 4531 
L 184 4531 
L 184 4863 
L 1313 4863 
L 1313 2803 
Q 1481 3116 1742 3264 
Q 2003 3413 2388 3413 
Q 3000 3413 3387 2928 
Q 3775 2444 3775 1663 
Q 3775 881 3387 395 
Q 3000 -91 2388 -91 
Q 2003 -91 1742 57 
Q 1481 206 1313 519 
L 1313 0 
L 184 0 
L 184 331 
L 738 331 
z
M 1313 1497 
Q 1313 897 1542 583 
Q 1772 269 2209 269 
Q 2650 269 2876 622 
Q 3103 975 3103 1663 
Q 3103 2353 2876 2703 
Q 2650 3053 2209 3053 
Q 1772 3053 1542 2737 
Q 1313 2422 1313 1825 
L 1313 1497 
z
" transform="scale(0.015625)"/>
       <path id="DejaVuSerif-70" d="M 1313 1825 
L 1313 1497 
Q 1313 897 1542 583 
Q 1772 269 2209 269 
Q 2650 269 2876 622 
Q 3103 975 3103 1663 
Q 3103 2353 2876 2703 
Q 2650 3053 2209 3053 
Q 1772 3053 1542 2737 
Q 1313 2422 1313 1825 
z
M 738 2988 
L 184 2988 
L 184 3322 
L 1313 3322 
L 1313 2803 
Q 1481 3116 1742 3264 
Q 2003 3413 2388 3413 
Q 3000 3413 3387 2928 
Q 3775 2444 3775 1663 
Q 3775 881 3387 395 
Q 3000 -91 2388 -91 
Q 2003 -91 1742 57 
Q 1481 206 1313 519 
L 1313 -997 
L 1856 -997 
L 1856 -1331 
L 184 -1331 
L 184 -997 
L 738 -997 
L 738 2988 
z
" transform="scale(0.015625)"/>
       <path id="DejaVuSerif-73" d="M 359 184 
L 359 959 
L 691 959 
Q 703 588 923 403 
Q 1144 219 1575 219 
Q 1963 219 2166 364 
Q 2369 509 2369 788 
Q 2369 1006 2220 1140 
Q 2072 1275 1594 1428 
L 1178 1569 
Q 750 1706 558 1912 
Q 366 2119 366 2438 
Q 366 2894 700 3153 
Q 1034 3413 1625 3413 
Q 1888 3413 2178 3344 
Q 2469 3275 2778 3144 
L 2778 2419 
L 2447 2419 
Q 2434 2741 2221 2922 
Q 2009 3103 1644 3103 
Q 1281 3103 1095 2975 
Q 909 2847 909 2591 
Q 909 2381 1050 2254 
Q 1191 2128 1613 1997 
L 2069 1856 
Q 2541 1709 2748 1489 
Q 2956 1269 2956 922 
Q 2956 450 2595 179 
Q 2234 -91 1600 -91 
Q 1278 -91 972 -22 
Q 666 47 359 184 
z
" transform="scale(0.015625)"/>
       <path id="DejaVuSerif-29" d="M 453 -997 
L 453 -691 
Q 934 -359 1145 242 
Q 1356 844 1356 1931 
Q 1356 3022 1145 3623 
Q 934 4225 453 4556 
L 453 4863 
Q 1216 4522 1603 3783 
Q 1991 3044 1991 1931 
Q 1991 822 1603 83 
Q 1216 -656 453 -997 
z
" transform="scale(0.015625)"/>
      </defs>
      <use xlink:href="#DejaVuSerif-4d" transform="translate(0 0.359375)"/>
      <use xlink:href="#DejaVuSerif-65" transform="translate(102.392578 0.359375)"/>
      <use xlink:href="#DejaVuSerif-61" transform="translate(161.572266 0.359375)"/>
      <use xlink:href="#DejaVuSerif-6e" transform="translate(221.191406 0.359375)"/>
      <use xlink:href="#DejaVuSerif-20" transform="translate(285.595703 0.359375)"/>
      <use xlink:href="#DejaVuSerif-53" transform="translate(317.382812 0.359375)"/>
      <use xlink:href="#DejaVuSerif-4b" transform="translate(385.888672 0.359375)"/>
      <use xlink:href="#DejaVuSerif-52" transform="translate(460.595703 0.359375)"/>
      <use xlink:href="#DejaVuSerif-20" transform="translate(535.888672 0.359375)"/>
      <use xlink:href="#DejaVuSerif-64" transform="translate(567.675781 0.359375)"/>
      <use xlink:href="#DejaVuSerif-65" transform="translate(631.689453 0.359375)"/>
      <use xlink:href="#DejaVuSerif-6d" transform="translate(690.869141 0.359375)"/>
      <use xlink:href="#DejaVuSerif-61" transform="translate(785.693359 0.359375)"/>
      <use xlink:href="#DejaVuSerif-6e" transform="translate(845.3125 0.359375)"/>
      <use xlink:href="#DejaVuSerif-64" transform="translate(909.716797 0.359375)"/>
      <use xlink:href="#DejaVuSerif-20" transform="translate(973.730469 0.359375)"/>
      <use xlink:href="#DejaVuSans-304" transform="translate(1071.255371 18.484375)"/>
      <use xlink:href="#DejaVuSans-Oblique-4b" transform="translate(1005.517578 0.359375)"/>
      <use xlink:href="#DejaVuSerif-20" transform="translate(1071.09375 0.359375)"/>
      <use xlink:href="#DejaVuSerif-28" transform="translate(1102.880859 0.359375)"/>
      <use xlink:href="#DejaVuSerif-6b" transform="translate(1141.894531 0.359375)"/>
      <use xlink:href="#DejaVuSerif-62" transform="translate(1202.490234 0.359375)"/>
      <use xlink:href="#DejaVuSerif-70" transform="translate(1266.503906 0.359375)"/>
      <use xlink:href="#DejaVuSerif-73" transform="translate(1330.517578 0.359375)"/>
      <use xlink:href="#DejaVuSerif-29" transform="translate(1381.835938 0.359375)"/>
     </g>
    </g>
   </g>
   <g id="matplotlib.axis_2">
    <g id="ytick_1">
     <g id="line2d_15">
      <path d="M 39.140313 133.000956 
L 262.340312 133.000956 
" clip-path="url(#p060c1bfb4e)" style="fill: none; stroke-dasharray: 2.96,1.28; stroke-dashoffset: 0; stroke: #b0b0b0; stroke-opacity: 0.5; stroke-width: 0.8"/>
     </g>
     <g id="line2d_16">
      <defs>
       <path id="m92537a4103" d="M 0 0 
L -3.5 0 
" style="stroke: #000000; stroke-width: 0.8"/>
      </defs>
      <g>
       <use xlink:href="#m92537a4103" x="39.140313" y="133.000956" style="stroke: #000000; stroke-width: 0.8"/>
      </g>
     </g>
     <g id="text_9">
      <!-- $\mathdefault{10^{1}}$ -->
      <g transform="translate(14.540313 136.800175) scale(0.1 -0.1)">
       <use xlink:href="#DejaVuSerif-31" transform="translate(0 0.7125)"/>
       <use xlink:href="#DejaVuSerif-30" transform="translate(63.623047 0.7125)"/>
       <use xlink:href="#DejaVuSerif-31" transform="translate(128.154453 37.046875) scale(0.7)"/>
      </g>
     </g>
    </g>
    <g id="ytick_2">
     <g id="line2d_17">
      <path d="M 39.140313 90.840523 
L 262.340312 90.840523 
" clip-path="url(#p060c1bfb4e)" style="fill: none; stroke-dasharray: 2.96,1.28; stroke-dashoffset: 0; stroke: #b0b0b0; stroke-opacity: 0.5; stroke-width: 0.8"/>
     </g>
     <g id="line2d_18">
      <g>
       <use xlink:href="#m92537a4103" x="39.140313" y="90.840523" style="stroke: #000000; stroke-width: 0.8"/>
      </g>
     </g>
     <g id="text_10">
      <!-- $\mathdefault{10^{2}}$ -->
      <g transform="translate(14.540313 94.639742) scale(0.1 -0.1)">
       <use xlink:href="#DejaVuSerif-31" transform="translate(0 0.7125)"/>
       <use xlink:href="#DejaVuSerif-30" transform="translate(63.623047 0.7125)"/>
       <use xlink:href="#DejaVuSerif-32" transform="translate(128.154453 37.046875) scale(0.7)"/>
      </g>
     </g>
    </g>
    <g id="ytick_3">
     <g id="line2d_19">
      <path d="M 39.140313 48.680089 
L 262.340312 48.680089 
" clip-path="url(#p060c1bfb4e)" style="fill: none; stroke-dasharray: 2.96,1.28; stroke-dashoffset: 0; stroke: #b0b0b0; stroke-opacity: 0.5; stroke-width: 0.8"/>
     </g>
     <g id="line2d_20">
      <g>
       <use xlink:href="#m92537a4103" x="39.140313" y="48.680089" style="stroke: #000000; stroke-width: 0.8"/>
      </g>
     </g>
     <g id="text_11">
      <!-- $\mathdefault{10^{3}}$ -->
      <g transform="translate(14.540313 52.479308) scale(0.1 -0.1)">
       <defs>
        <path id="DejaVuSerif-33" d="M 622 4469 
Q 988 4606 1323 4678 
Q 1659 4750 1953 4750 
Q 2638 4750 3022 4454 
Q 3406 4159 3406 3634 
Q 3406 3213 3140 2930 
Q 2875 2647 2388 2547 
Q 2963 2466 3280 2130 
Q 3597 1794 3597 1259 
Q 3597 606 3158 257 
Q 2719 -91 1894 -91 
Q 1528 -91 1179 -12 
Q 831 66 488 225 
L 488 1131 
L 838 1131 
Q 869 681 1141 450 
Q 1413 219 1906 219 
Q 2384 219 2661 495 
Q 2938 772 2938 1253 
Q 2938 1803 2653 2086 
Q 2369 2369 1819 2369 
L 1522 2369 
L 1522 2688 
L 1678 2688 
Q 2225 2688 2498 2914 
Q 2772 3141 2772 3597 
Q 2772 4006 2547 4223 
Q 2322 4441 1900 4441 
Q 1478 4441 1245 4241 
Q 1013 4041 972 3647 
L 622 3647 
L 622 4469 
z
" transform="scale(0.015625)"/>
       </defs>
       <use xlink:href="#DejaVuSerif-31" transform="translate(0 0.7125)"/>
       <use xlink:href="#DejaVuSerif-30" transform="translate(63.623047 0.7125)"/>
       <use xlink:href="#DejaVuSerif-33" transform="translate(128.154453 37.046875) scale(0.7)"/>
      </g>
     </g>
    </g>
    <g id="ytick_4">
     <g id="line2d_21">
      <path d="M 39.140313 6.519655 
L 262.340312 6.519655 
" clip-path="url(#p060c1bfb4e)" style="fill: none; stroke-dasharray: 2.96,1.28; stroke-dashoffset: 0; stroke: #b0b0b0; stroke-opacity: 0.5; stroke-width: 0.8"/>
     </g>
     <g id="line2d_22">
      <g>
       <use xlink:href="#m92537a4103" x="39.140313" y="6.519655" style="stroke: #000000; stroke-width: 0.8"/>
      </g>
     </g>
     <g id="text_12">
      <!-- $\mathdefault{10^{4}}$ -->
      <g transform="translate(14.540313 10.318874) scale(0.1 -0.1)">
       <defs>
        <path id="DejaVuSerif-34" d="M 2234 1581 
L 2234 4063 
L 641 1581 
L 2234 1581 
z
M 3609 0 
L 1484 0 
L 1484 331 
L 2234 331 
L 2234 1247 
L 197 1247 
L 197 1588 
L 2241 4750 
L 2859 4750 
L 2859 1581 
L 3750 1581 
L 3750 1247 
L 2859 1247 
L 2859 331 
L 3609 331 
L 3609 0 
z
" transform="scale(0.015625)"/>
       </defs>
       <use xlink:href="#DejaVuSerif-31" transform="translate(0 0.7125)"/>
       <use xlink:href="#DejaVuSerif-30" transform="translate(63.623047 0.7125)"/>
       <use xlink:href="#DejaVuSerif-34" transform="translate(128.154453 37.046875) scale(0.7)"/>
      </g>
     </g>
    </g>
    <g id="ytick_5">
     <g id="line2d_23">
      <path d="M 39.140313 162.469835 
L 262.340312 162.469835 
" clip-path="url(#p060c1bfb4e)" style="fill: none; stroke-dasharray: 2.96,1.28; stroke-dashoffset: 0; stroke: #b0b0b0; stroke-opacity: 0.5; stroke-width: 0.8"/>
     </g>
     <g id="line2d_24">
      <defs>
       <path id="m153902a7de" d="M 0 0 
L -2 0 
" style="stroke: #000000; stroke-width: 0.6"/>
      </defs>
      <g>
       <use xlink:href="#m153902a7de" x="39.140313" y="162.469835" style="stroke: #000000; stroke-width: 0.6"/>
      </g>
     </g>
    </g>
    <g id="ytick_6">
     <g id="line2d_25">
      <path d="M 39.140313 155.045751 
L 262.340312 155.045751 
" clip-path="url(#p060c1bfb4e)" style="fill: none; stroke-dasharray: 2.96,1.28; stroke-dashoffset: 0; stroke: #b0b0b0; stroke-opacity: 0.5; stroke-width: 0.8"/>
     </g>
     <g id="line2d_26">
      <g>
       <use xlink:href="#m153902a7de" x="39.140313" y="155.045751" style="stroke: #000000; stroke-width: 0.6"/>
      </g>
     </g>
    </g>
    <g id="ytick_7">
     <g id="line2d_27">
      <path d="M 39.140313 149.77828 
L 262.340312 149.77828 
" clip-path="url(#p060c1bfb4e)" style="fill: none; stroke-dasharray: 2.96,1.28; stroke-dashoffset: 0; stroke: #b0b0b0; stroke-opacity: 0.5; stroke-width: 0.8"/>
     </g>
     <g id="line2d_28">
      <g>
       <use xlink:href="#m153902a7de" x="39.140313" y="149.77828" style="stroke: #000000; stroke-width: 0.6"/>
      </g>
     </g>
    </g>
    <g id="ytick_8">
     <g id="line2d_29">
      <path d="M 39.140313 145.692512 
L 262.340312 145.692512 
" clip-path="url(#p060c1bfb4e)" style="fill: none; stroke-dasharray: 2.96,1.28; stroke-dashoffset: 0; stroke: #b0b0b0; stroke-opacity: 0.5; stroke-width: 0.8"/>
     </g>
     <g id="line2d_30">
      <g>
       <use xlink:href="#m153902a7de" x="39.140313" y="145.692512" style="stroke: #000000; stroke-width: 0.6"/>
      </g>
     </g>
    </g>
    <g id="ytick_9">
     <g id="line2d_31">
      <path d="M 39.140313 142.354196 
L 262.340312 142.354196 
" clip-path="url(#p060c1bfb4e)" style="fill: none; stroke-dasharray: 2.96,1.28; stroke-dashoffset: 0; stroke: #b0b0b0; stroke-opacity: 0.5; stroke-width: 0.8"/>
     </g>
     <g id="line2d_32">
      <g>
       <use xlink:href="#m153902a7de" x="39.140313" y="142.354196" style="stroke: #000000; stroke-width: 0.6"/>
      </g>
     </g>
    </g>
    <g id="ytick_10">
     <g id="line2d_33">
      <path d="M 39.140313 139.53169 
L 262.340312 139.53169 
" clip-path="url(#p060c1bfb4e)" style="fill: none; stroke-dasharray: 2.96,1.28; stroke-dashoffset: 0; stroke: #b0b0b0; stroke-opacity: 0.5; stroke-width: 0.8"/>
     </g>
     <g id="line2d_34">
      <g>
       <use xlink:href="#m153902a7de" x="39.140313" y="139.53169" style="stroke: #000000; stroke-width: 0.6"/>
      </g>
     </g>
    </g>
    <g id="ytick_11">
     <g id="line2d_35">
      <path d="M 39.140313 137.086725 
L 262.340312 137.086725 
" clip-path="url(#p060c1bfb4e)" style="fill: none; stroke-dasharray: 2.96,1.28; stroke-dashoffset: 0; stroke: #b0b0b0; stroke-opacity: 0.5; stroke-width: 0.8"/>
     </g>
     <g id="line2d_36">
      <g>
       <use xlink:href="#m153902a7de" x="39.140313" y="137.086725" style="stroke: #000000; stroke-width: 0.6"/>
      </g>
     </g>
    </g>
    <g id="ytick_12">
     <g id="line2d_37">
      <path d="M 39.140313 134.930112 
L 262.340312 134.930112 
" clip-path="url(#p060c1bfb4e)" style="fill: none; stroke-dasharray: 2.96,1.28; stroke-dashoffset: 0; stroke: #b0b0b0; stroke-opacity: 0.5; stroke-width: 0.8"/>
     </g>
     <g id="line2d_38">
      <g>
       <use xlink:href="#m153902a7de" x="39.140313" y="134.930112" style="stroke: #000000; stroke-width: 0.6"/>
      </g>
     </g>
    </g>
    <g id="ytick_13">
     <g id="line2d_39">
      <path d="M 39.140313 120.309401 
L 262.340312 120.309401 
" clip-path="url(#p060c1bfb4e)" style="fill: none; stroke-dasharray: 2.96,1.28; stroke-dashoffset: 0; stroke: #b0b0b0; stroke-opacity: 0.5; stroke-width: 0.8"/>
     </g>
     <g id="line2d_40">
      <g>
       <use xlink:href="#m153902a7de" x="39.140313" y="120.309401" style="stroke: #000000; stroke-width: 0.6"/>
      </g>
     </g>
    </g>
    <g id="ytick_14">
     <g id="line2d_41">
      <path d="M 39.140313 112.885317 
L 262.340312 112.885317 
" clip-path="url(#p060c1bfb4e)" style="fill: none; stroke-dasharray: 2.96,1.28; stroke-dashoffset: 0; stroke: #b0b0b0; stroke-opacity: 0.5; stroke-width: 0.8"/>
     </g>
     <g id="line2d_42">
      <g>
       <use xlink:href="#m153902a7de" x="39.140313" y="112.885317" style="stroke: #000000; stroke-width: 0.6"/>
      </g>
     </g>
    </g>
    <g id="ytick_15">
     <g id="line2d_43">
      <path d="M 39.140313 107.617846 
L 262.340312 107.617846 
" clip-path="url(#p060c1bfb4e)" style="fill: none; stroke-dasharray: 2.96,1.28; stroke-dashoffset: 0; stroke: #b0b0b0; stroke-opacity: 0.5; stroke-width: 0.8"/>
     </g>
     <g id="line2d_44">
      <g>
       <use xlink:href="#m153902a7de" x="39.140313" y="107.617846" style="stroke: #000000; stroke-width: 0.6"/>
      </g>
     </g>
    </g>
    <g id="ytick_16">
     <g id="line2d_45">
      <path d="M 39.140313 103.532078 
L 262.340312 103.532078 
" clip-path="url(#p060c1bfb4e)" style="fill: none; stroke-dasharray: 2.96,1.28; stroke-dashoffset: 0; stroke: #b0b0b0; stroke-opacity: 0.5; stroke-width: 0.8"/>
     </g>
     <g id="line2d_46">
      <g>
       <use xlink:href="#m153902a7de" x="39.140313" y="103.532078" style="stroke: #000000; stroke-width: 0.6"/>
      </g>
     </g>
    </g>
    <g id="ytick_17">
     <g id="line2d_47">
      <path d="M 39.140313 100.193762 
L 262.340312 100.193762 
" clip-path="url(#p060c1bfb4e)" style="fill: none; stroke-dasharray: 2.96,1.28; stroke-dashoffset: 0; stroke: #b0b0b0; stroke-opacity: 0.5; stroke-width: 0.8"/>
     </g>
     <g id="line2d_48">
      <g>
       <use xlink:href="#m153902a7de" x="39.140313" y="100.193762" style="stroke: #000000; stroke-width: 0.6"/>
      </g>
     </g>
    </g>
    <g id="ytick_18">
     <g id="line2d_49">
      <path d="M 39.140313 97.371257 
L 262.340312 97.371257 
" clip-path="url(#p060c1bfb4e)" style="fill: none; stroke-dasharray: 2.96,1.28; stroke-dashoffset: 0; stroke: #b0b0b0; stroke-opacity: 0.5; stroke-width: 0.8"/>
     </g>
     <g id="line2d_50">
      <g>
       <use xlink:href="#m153902a7de" x="39.140313" y="97.371257" style="stroke: #000000; stroke-width: 0.6"/>
      </g>
     </g>
    </g>
    <g id="ytick_19">
     <g id="line2d_51">
      <path d="M 39.140313 94.926291 
L 262.340312 94.926291 
" clip-path="url(#p060c1bfb4e)" style="fill: none; stroke-dasharray: 2.96,1.28; stroke-dashoffset: 0; stroke: #b0b0b0; stroke-opacity: 0.5; stroke-width: 0.8"/>
     </g>
     <g id="line2d_52">
      <g>
       <use xlink:href="#m153902a7de" x="39.140313" y="94.926291" style="stroke: #000000; stroke-width: 0.6"/>
      </g>
     </g>
    </g>
    <g id="ytick_20">
     <g id="line2d_53">
      <path d="M 39.140313 92.769678 
L 262.340312 92.769678 
" clip-path="url(#p060c1bfb4e)" style="fill: none; stroke-dasharray: 2.96,1.28; stroke-dashoffset: 0; stroke: #b0b0b0; stroke-opacity: 0.5; stroke-width: 0.8"/>
     </g>
     <g id="line2d_54">
      <g>
       <use xlink:href="#m153902a7de" x="39.140313" y="92.769678" style="stroke: #000000; stroke-width: 0.6"/>
      </g>
     </g>
    </g>
    <g id="ytick_21">
     <g id="line2d_55">
      <path d="M 39.140313 78.148968 
L 262.340312 78.148968 
" clip-path="url(#p060c1bfb4e)" style="fill: none; stroke-dasharray: 2.96,1.28; stroke-dashoffset: 0; stroke: #b0b0b0; stroke-opacity: 0.5; stroke-width: 0.8"/>
     </g>
     <g id="line2d_56">
      <g>
       <use xlink:href="#m153902a7de" x="39.140313" y="78.148968" style="stroke: #000000; stroke-width: 0.6"/>
      </g>
     </g>
    </g>
    <g id="ytick_22">
     <g id="line2d_57">
      <path d="M 39.140313 70.724884 
L 262.340312 70.724884 
" clip-path="url(#p060c1bfb4e)" style="fill: none; stroke-dasharray: 2.96,1.28; stroke-dashoffset: 0; stroke: #b0b0b0; stroke-opacity: 0.5; stroke-width: 0.8"/>
     </g>
     <g id="line2d_58">
      <g>
       <use xlink:href="#m153902a7de" x="39.140313" y="70.724884" style="stroke: #000000; stroke-width: 0.6"/>
      </g>
     </g>
    </g>
    <g id="ytick_23">
     <g id="line2d_59">
      <path d="M 39.140313 65.457412 
L 262.340312 65.457412 
" clip-path="url(#p060c1bfb4e)" style="fill: none; stroke-dasharray: 2.96,1.28; stroke-dashoffset: 0; stroke: #b0b0b0; stroke-opacity: 0.5; stroke-width: 0.8"/>
     </g>
     <g id="line2d_60">
      <g>
       <use xlink:href="#m153902a7de" x="39.140313" y="65.457412" style="stroke: #000000; stroke-width: 0.6"/>
      </g>
     </g>
    </g>
    <g id="ytick_24">
     <g id="line2d_61">
      <path d="M 39.140313 61.371644 
L 262.340312 61.371644 
" clip-path="url(#p060c1bfb4e)" style="fill: none; stroke-dasharray: 2.96,1.28; stroke-dashoffset: 0; stroke: #b0b0b0; stroke-opacity: 0.5; stroke-width: 0.8"/>
     </g>
     <g id="line2d_62">
      <g>
       <use xlink:href="#m153902a7de" x="39.140313" y="61.371644" style="stroke: #000000; stroke-width: 0.6"/>
      </g>
     </g>
    </g>
    <g id="ytick_25">
     <g id="line2d_63">
      <path d="M 39.140313 58.033329 
L 262.340312 58.033329 
" clip-path="url(#p060c1bfb4e)" style="fill: none; stroke-dasharray: 2.96,1.28; stroke-dashoffset: 0; stroke: #b0b0b0; stroke-opacity: 0.5; stroke-width: 0.8"/>
     </g>
     <g id="line2d_64">
      <g>
       <use xlink:href="#m153902a7de" x="39.140313" y="58.033329" style="stroke: #000000; stroke-width: 0.6"/>
      </g>
     </g>
    </g>
    <g id="ytick_26">
     <g id="line2d_65">
      <path d="M 39.140313 55.210823 
L 262.340312 55.210823 
" clip-path="url(#p060c1bfb4e)" style="fill: none; stroke-dasharray: 2.96,1.28; stroke-dashoffset: 0; stroke: #b0b0b0; stroke-opacity: 0.5; stroke-width: 0.8"/>
     </g>
     <g id="line2d_66">
      <g>
       <use xlink:href="#m153902a7de" x="39.140313" y="55.210823" style="stroke: #000000; stroke-width: 0.6"/>
      </g>
     </g>
    </g>
    <g id="ytick_27">
     <g id="line2d_67">
      <path d="M 39.140313 52.765857 
L 262.340312 52.765857 
" clip-path="url(#p060c1bfb4e)" style="fill: none; stroke-dasharray: 2.96,1.28; stroke-dashoffset: 0; stroke: #b0b0b0; stroke-opacity: 0.5; stroke-width: 0.8"/>
     </g>
     <g id="line2d_68">
      <g>
       <use xlink:href="#m153902a7de" x="39.140313" y="52.765857" style="stroke: #000000; stroke-width: 0.6"/>
      </g>
     </g>
    </g>
    <g id="ytick_28">
     <g id="line2d_69">
      <path d="M 39.140313 50.609245 
L 262.340312 50.609245 
" clip-path="url(#p060c1bfb4e)" style="fill: none; stroke-dasharray: 2.96,1.28; stroke-dashoffset: 0; stroke: #b0b0b0; stroke-opacity: 0.5; stroke-width: 0.8"/>
     </g>
     <g id="line2d_70">
      <g>
       <use xlink:href="#m153902a7de" x="39.140313" y="50.609245" style="stroke: #000000; stroke-width: 0.6"/>
      </g>
     </g>
    </g>
    <g id="ytick_29">
     <g id="line2d_71">
      <path d="M 39.140313 35.988534 
L 262.340312 35.988534 
" clip-path="url(#p060c1bfb4e)" style="fill: none; stroke-dasharray: 2.96,1.28; stroke-dashoffset: 0; stroke: #b0b0b0; stroke-opacity: 0.5; stroke-width: 0.8"/>
     </g>
     <g id="line2d_72">
      <g>
       <use xlink:href="#m153902a7de" x="39.140313" y="35.988534" style="stroke: #000000; stroke-width: 0.6"/>
      </g>
     </g>
    </g>
    <g id="ytick_30">
     <g id="line2d_73">
      <path d="M 39.140313 28.56445 
L 262.340312 28.56445 
" clip-path="url(#p060c1bfb4e)" style="fill: none; stroke-dasharray: 2.96,1.28; stroke-dashoffset: 0; stroke: #b0b0b0; stroke-opacity: 0.5; stroke-width: 0.8"/>
     </g>
     <g id="line2d_74">
      <g>
       <use xlink:href="#m153902a7de" x="39.140313" y="28.56445" style="stroke: #000000; stroke-width: 0.6"/>
      </g>
     </g>
    </g>
    <g id="ytick_31">
     <g id="line2d_75">
      <path d="M 39.140313 23.296979 
L 262.340312 23.296979 
" clip-path="url(#p060c1bfb4e)" style="fill: none; stroke-dasharray: 2.96,1.28; stroke-dashoffset: 0; stroke: #b0b0b0; stroke-opacity: 0.5; stroke-width: 0.8"/>
     </g>
     <g id="line2d_76">
      <g>
       <use xlink:href="#m153902a7de" x="39.140313" y="23.296979" style="stroke: #000000; stroke-width: 0.6"/>
      </g>
     </g>
    </g>
    <g id="ytick_32">
     <g id="line2d_77">
      <path d="M 39.140313 19.211211 
L 262.340312 19.211211 
" clip-path="url(#p060c1bfb4e)" style="fill: none; stroke-dasharray: 2.96,1.28; stroke-dashoffset: 0; stroke: #b0b0b0; stroke-opacity: 0.5; stroke-width: 0.8"/>
     </g>
     <g id="line2d_78">
      <g>
       <use xlink:href="#m153902a7de" x="39.140313" y="19.211211" style="stroke: #000000; stroke-width: 0.6"/>
      </g>
     </g>
    </g>
    <g id="ytick_33">
     <g id="line2d_79">
      <path d="M 39.140313 15.872895 
L 262.340312 15.872895 
" clip-path="url(#p060c1bfb4e)" style="fill: none; stroke-dasharray: 2.96,1.28; stroke-dashoffset: 0; stroke: #b0b0b0; stroke-opacity: 0.5; stroke-width: 0.8"/>
     </g>
     <g id="line2d_80">
      <g>
       <use xlink:href="#m153902a7de" x="39.140313" y="15.872895" style="stroke: #000000; stroke-width: 0.6"/>
      </g>
     </g>
    </g>
    <g id="ytick_34">
     <g id="line2d_81">
      <path d="M 39.140313 13.050389 
L 262.340312 13.050389 
" clip-path="url(#p060c1bfb4e)" style="fill: none; stroke-dasharray: 2.96,1.28; stroke-dashoffset: 0; stroke: #b0b0b0; stroke-opacity: 0.5; stroke-width: 0.8"/>
     </g>
     <g id="line2d_82">
      <g>
       <use xlink:href="#m153902a7de" x="39.140313" y="13.050389" style="stroke: #000000; stroke-width: 0.6"/>
      </g>
     </g>
    </g>
    <g id="ytick_35">
     <g id="line2d_83">
      <path d="M 39.140313 10.605424 
L 262.340312 10.605424 
" clip-path="url(#p060c1bfb4e)" style="fill: none; stroke-dasharray: 2.96,1.28; stroke-dashoffset: 0; stroke: #b0b0b0; stroke-opacity: 0.5; stroke-width: 0.8"/>
     </g>
     <g id="line2d_84">
      <g>
       <use xlink:href="#m153902a7de" x="39.140313" y="10.605424" style="stroke: #000000; stroke-width: 0.6"/>
      </g>
     </g>
    </g>
    <g id="ytick_36">
     <g id="line2d_85">
      <path d="M 39.140313 8.448811 
L 262.340312 8.448811 
" clip-path="url(#p060c1bfb4e)" style="fill: none; stroke-dasharray: 2.96,1.28; stroke-dashoffset: 0; stroke: #b0b0b0; stroke-opacity: 0.5; stroke-width: 0.8"/>
     </g>
     <g id="line2d_86">
      <g>
       <use xlink:href="#m153902a7de" x="39.140313" y="8.448811" style="stroke: #000000; stroke-width: 0.6"/>
      </g>
     </g>
    </g>
    <g id="text_13">
     <!-- Total Served Secret Key (Mb) -->
     <g transform="translate(8.318437 158.696406) rotate(-90) scale(0.1 -0.1)">
      <defs>
       <path id="DejaVuSerif-54" d="M 1222 0 
L 1222 331 
L 1819 331 
L 1819 4294 
L 447 4294 
L 447 3566 
L 63 3566 
L 63 4666 
L 4206 4666 
L 4206 3566 
L 3822 3566 
L 3822 4294 
L 2450 4294 
L 2450 331 
L 3047 331 
L 3047 0 
L 1222 0 
z
" transform="scale(0.015625)"/>
       <path id="DejaVuSerif-6f" d="M 1925 219 
Q 2388 219 2623 584 
Q 2859 950 2859 1663 
Q 2859 2375 2623 2739 
Q 2388 3103 1925 3103 
Q 1463 3103 1227 2739 
Q 991 2375 991 1663 
Q 991 950 1228 584 
Q 1466 219 1925 219 
z
M 1925 -91 
Q 1200 -91 759 389 
Q 319 869 319 1663 
Q 319 2456 758 2934 
Q 1197 3413 1925 3413 
Q 2653 3413 3092 2934 
Q 3531 2456 3531 1663 
Q 3531 869 3092 389 
Q 2653 -91 1925 -91 
z
" transform="scale(0.015625)"/>
       <path id="DejaVuSerif-74" d="M 691 2988 
L 184 2988 
L 184 3322 
L 691 3322 
L 691 4353 
L 1269 4353 
L 1269 3322 
L 2350 3322 
L 2350 2988 
L 1269 2988 
L 1269 878 
Q 1269 456 1350 337 
Q 1431 219 1650 219 
Q 1875 219 1978 351 
Q 2081 484 2088 781 
L 2522 781 
Q 2497 328 2275 118 
Q 2053 -91 1600 -91 
Q 1103 -91 897 129 
Q 691 350 691 878 
L 691 2988 
z
" transform="scale(0.015625)"/>
       <path id="DejaVuSerif-6c" d="M 1313 331 
L 1856 331 
L 1856 0 
L 184 0 
L 184 331 
L 738 331 
L 738 4531 
L 184 4531 
L 184 4863 
L 1313 4863 
L 1313 331 
z
" transform="scale(0.015625)"/>
       <path id="DejaVuSerif-72" d="M 3059 3328 
L 3059 2497 
L 2728 2497 
Q 2713 2744 2591 2866 
Q 2469 2988 2234 2988 
Q 1809 2988 1582 2694 
Q 1356 2400 1356 1850 
L 1356 331 
L 2022 331 
L 2022 0 
L 263 0 
L 263 331 
L 781 331 
L 781 2994 
L 231 2994 
L 231 3322 
L 1356 3322 
L 1356 2731 
Q 1525 3078 1790 3245 
Q 2056 3413 2438 3413 
Q 2578 3413 2733 3391 
Q 2888 3369 3059 3328 
z
" transform="scale(0.015625)"/>
       <path id="DejaVuSerif-76" d="M 1581 0 
L 359 2988 
L -19 2988 
L -19 3322 
L 1509 3322 
L 1509 2988 
L 978 2988 
L 1913 703 
L 2847 2988 
L 2350 2988 
L 2350 3322 
L 3597 3322 
L 3597 2988 
L 3225 2988 
L 2003 0 
L 1581 0 
z
" transform="scale(0.015625)"/>
       <path id="DejaVuSerif-63" d="M 3291 997 
Q 3169 466 2822 187 
Q 2475 -91 1925 -91 
Q 1200 -91 759 389 
Q 319 869 319 1663 
Q 319 2459 759 2936 
Q 1200 3413 1925 3413 
Q 2241 3413 2553 3339 
Q 2866 3266 3181 3116 
L 3181 2266 
L 2847 2266 
Q 2781 2703 2561 2903 
Q 2341 3103 1931 3103 
Q 1466 3103 1228 2742 
Q 991 2381 991 1663 
Q 991 944 1227 581 
Q 1463 219 1931 219 
Q 2303 219 2525 412 
Q 2747 606 2828 997 
L 3291 997 
z
" transform="scale(0.015625)"/>
       <path id="DejaVuSerif-79" d="M 1381 -609 
L 1600 -56 
L 359 2988 
L -19 2988 
L -19 3322 
L 1509 3322 
L 1509 2988 
L 978 2988 
L 1913 703 
L 2847 2988 
L 2350 2988 
L 2350 3322 
L 3597 3322 
L 3597 2988 
L 3225 2988 
L 1703 -750 
Q 1547 -1138 1356 -1280 
Q 1166 -1422 819 -1422 
Q 672 -1422 517 -1397 
Q 363 -1372 206 -1325 
L 206 -691 
L 500 -691 
Q 519 -903 608 -995 
Q 697 -1088 884 -1088 
Q 1056 -1088 1161 -992 
Q 1266 -897 1381 -609 
z
" transform="scale(0.015625)"/>
      </defs>
      <use xlink:href="#DejaVuSerif-54"/>
      <use xlink:href="#DejaVuSerif-6f" transform="translate(58.949219 0)"/>
      <use xlink:href="#DejaVuSerif-74" transform="translate(119.154297 0)"/>
      <use xlink:href="#DejaVuSerif-61" transform="translate(159.339844 0)"/>
      <use xlink:href="#DejaVuSerif-6c" transform="translate(218.958984 0)"/>
      <use xlink:href="#DejaVuSerif-20" transform="translate(250.941406 0)"/>
      <use xlink:href="#DejaVuSerif-53" transform="translate(282.728516 0)"/>
      <use xlink:href="#DejaVuSerif-65" transform="translate(351.234375 0)"/>
      <use xlink:href="#DejaVuSerif-72" transform="translate(410.414062 0)"/>
      <use xlink:href="#DejaVuSerif-76" transform="translate(458.216797 0)"/>
      <use xlink:href="#DejaVuSerif-65" transform="translate(514.710938 0)"/>
      <use xlink:href="#DejaVuSerif-64" transform="translate(573.890625 0)"/>
      <use xlink:href="#DejaVuSerif-20" transform="translate(637.904297 0)"/>
      <use xlink:href="#DejaVuSerif-53" transform="translate(669.691406 0)"/>
      <use xlink:href="#DejaVuSerif-65" transform="translate(738.197266 0)"/>
      <use xlink:href="#DejaVuSerif-63" transform="translate(797.376953 0)"/>
      <use xlink:href="#DejaVuSerif-72" transform="translate(853.382812 0)"/>
      <use xlink:href="#DejaVuSerif-65" transform="translate(901.185547 0)"/>
      <use xlink:href="#DejaVuSerif-74" transform="translate(960.365234 0)"/>
      <use xlink:href="#DejaVuSerif-20" transform="translate(1000.550781 0)"/>
      <use xlink:href="#DejaVuSerif-4b" transform="translate(1032.337891 0)"/>
      <use xlink:href="#DejaVuSerif-65" transform="translate(1104.419922 0)"/>
      <use xlink:href="#DejaVuSerif-79" transform="translate(1163.599609 0)"/>
      <use xlink:href="#DejaVuSerif-20" transform="translate(1220.09375 0)"/>
      <use xlink:href="#DejaVuSerif-28" transform="translate(1251.880859 0)"/>
      <use xlink:href="#DejaVuSerif-4d" transform="translate(1290.894531 0)"/>
      <use xlink:href="#DejaVuSerif-62" transform="translate(1393.287109 0)"/>
      <use xlink:href="#DejaVuSerif-29" transform="translate(1457.300781 0)"/>
     </g>
    </g>
   </g>
   <g id="LineCollection_1">
    <path d="M 49.285767 159.48 
L 49.285767 157.346376 
" clip-path="url(#p060c1bfb4e)" style="fill: none; stroke: #1f77b4; stroke-width: 1.5"/>
    <path d="M 52.027782 117.936434 
L 52.027782 117.936434 
" clip-path="url(#p060c1bfb4e)" style="fill: none; stroke: #1f77b4; stroke-width: 1.5"/>
    <path d="M 54.769797 109.490501 
L 54.769797 109.490501 
" clip-path="url(#p060c1bfb4e)" style="fill: none; stroke: #1f77b4; stroke-width: 1.5"/>
    <path d="M 57.511811 105.138507 
L 57.511811 105.138507 
" clip-path="url(#p060c1bfb4e)" style="fill: none; stroke: #1f77b4; stroke-width: 1.5"/>
    <path d="M 60.253826 101.34207 
L 60.253826 101.34207 
" clip-path="url(#p060c1bfb4e)" style="fill: none; stroke: #1f77b4; stroke-width: 1.5"/>
    <path d="M 62.995841 98.892865 
L 62.995841 98.892865 
" clip-path="url(#p060c1bfb4e)" style="fill: none; stroke: #1f77b4; stroke-width: 1.5"/>
    <path d="M 65.737855 96.81018 
L 65.737855 94.704189 
" clip-path="url(#p060c1bfb4e)" style="fill: none; stroke: #1f77b4; stroke-width: 1.5"/>
    <path d="M 68.47987 94.109806 
L 68.47987 94.109806 
" clip-path="url(#p060c1bfb4e)" style="fill: none; stroke: #1f77b4; stroke-width: 1.5"/>
    <path d="M 71.221885 92.471082 
L 71.221885 92.471082 
" clip-path="url(#p060c1bfb4e)" style="fill: none; stroke: #1f77b4; stroke-width: 1.5"/>
    <path d="M 73.9639 90.77293 
L 73.9639 90.77293 
" clip-path="url(#p060c1bfb4e)" style="fill: none; stroke: #1f77b4; stroke-width: 1.5"/>
    <path d="M 76.705914 89.743359 
L 76.705914 89.743359 
" clip-path="url(#p060c1bfb4e)" style="fill: none; stroke: #1f77b4; stroke-width: 1.5"/>
    <path d="M 79.447929 87.81524 
L 79.447929 87.81524 
" clip-path="url(#p060c1bfb4e)" style="fill: none; stroke: #1f77b4; stroke-width: 1.5"/>
    <path d="M 82.189944 89.230315 
L 82.189944 85.336007 
" clip-path="url(#p060c1bfb4e)" style="fill: none; stroke: #1f77b4; stroke-width: 1.5"/>
    <path d="M 84.931959 86.573323 
L 84.931959 86.573323 
" clip-path="url(#p060c1bfb4e)" style="fill: none; stroke: #1f77b4; stroke-width: 1.5"/>
    <path d="M 87.673973 85.182793 
L 87.673973 85.182793 
" clip-path="url(#p060c1bfb4e)" style="fill: none; stroke: #1f77b4; stroke-width: 1.5"/>
    <path d="M 90.415988 83.632114 
L 90.415988 83.632114 
" clip-path="url(#p060c1bfb4e)" style="fill: none; stroke: #1f77b4; stroke-width: 1.5"/>
    <path d="M 93.158003 83.985425 
L 93.158003 83.985425 
" clip-path="url(#p060c1bfb4e)" style="fill: none; stroke: #1f77b4; stroke-width: 1.5"/>
    <path d="M 95.900018 81.949544 
L 95.900018 81.949544 
" clip-path="url(#p060c1bfb4e)" style="fill: none; stroke: #1f77b4; stroke-width: 1.5"/>
    <path d="M 98.642032 84.051553 
L 98.642032 79.160414 
" clip-path="url(#p060c1bfb4e)" style="fill: none; stroke: #1f77b4; stroke-width: 1.5"/>
    <path d="M 101.384047 80.317406 
L 101.384047 80.317406 
" clip-path="url(#p060c1bfb4e)" style="fill: none; stroke: #1f77b4; stroke-width: 1.5"/>
    <path d="M 104.126062 78.933664 
L 104.126062 78.933664 
" clip-path="url(#p060c1bfb4e)" style="fill: none; stroke: #1f77b4; stroke-width: 1.5"/>
    <path d="M 106.868077 79.803358 
L 106.868077 79.803358 
" clip-path="url(#p060c1bfb4e)" style="fill: none; stroke: #1f77b4; stroke-width: 1.5"/>
    <path d="M 109.610091 77.890463 
L 109.610091 77.890463 
" clip-path="url(#p060c1bfb4e)" style="fill: none; stroke: #1f77b4; stroke-width: 1.5"/>
    <path d="M 112.352106 77.319348 
L 112.352106 77.319348 
" clip-path="url(#p060c1bfb4e)" style="fill: none; stroke: #1f77b4; stroke-width: 1.5"/>
    <path d="M 115.094121 80.726201 
L 115.094121 74.314024 
" clip-path="url(#p060c1bfb4e)" style="fill: none; stroke: #1f77b4; stroke-width: 1.5"/>
    <path d="M 117.836136 76.330228 
L 117.836136 76.330228 
" clip-path="url(#p060c1bfb4e)" style="fill: none; stroke: #1f77b4; stroke-width: 1.5"/>
    <path d="M 120.57815 75.689034 
L 120.57815 75.689034 
" clip-path="url(#p060c1bfb4e)" style="fill: none; stroke: #1f77b4; stroke-width: 1.5"/>
    <path d="M 123.320165 75.59969 
L 123.320165 75.59969 
" clip-path="url(#p060c1bfb4e)" style="fill: none; stroke: #1f77b4; stroke-width: 1.5"/>
    <path d="M 126.06218 73.846453 
L 126.06218 73.846453 
" clip-path="url(#p060c1bfb4e)" style="fill: none; stroke: #1f77b4; stroke-width: 1.5"/>
    <path d="M 128.804195 74.219746 
L 128.804195 74.219746 
" clip-path="url(#p060c1bfb4e)" style="fill: none; stroke: #1f77b4; stroke-width: 1.5"/>
    <path d="M 131.546209 77.005068 
L 131.546209 70.683839 
" clip-path="url(#p060c1bfb4e)" style="fill: none; stroke: #1f77b4; stroke-width: 1.5"/>
    <path d="M 134.288224 73.969378 
L 134.288224 73.969378 
" clip-path="url(#p060c1bfb4e)" style="fill: none; stroke: #1f77b4; stroke-width: 1.5"/>
    <path d="M 137.030239 72.513209 
L 137.030239 72.513209 
" clip-path="url(#p060c1bfb4e)" style="fill: none; stroke: #1f77b4; stroke-width: 1.5"/>
    <path d="M 139.772254 71.840591 
L 139.772254 71.840591 
" clip-path="url(#p060c1bfb4e)" style="fill: none; stroke: #1f77b4; stroke-width: 1.5"/>
    <path d="M 142.514268 72.014417 
L 142.514268 72.014417 
" clip-path="url(#p060c1bfb4e)" style="fill: none; stroke: #1f77b4; stroke-width: 1.5"/>
    <path d="M 145.256283 72.242446 
L 145.256283 72.242446 
" clip-path="url(#p060c1bfb4e)" style="fill: none; stroke: #1f77b4; stroke-width: 1.5"/>
    <path d="M 147.998298 71.591151 
L 147.998298 67.482012 
" clip-path="url(#p060c1bfb4e)" style="fill: none; stroke: #1f77b4; stroke-width: 1.5"/>
    <path d="M 150.740312 70.361011 
L 150.740312 70.361011 
" clip-path="url(#p060c1bfb4e)" style="fill: none; stroke: #1f77b4; stroke-width: 1.5"/>
    <path d="M 153.482327 69.283994 
L 153.482327 69.283994 
" clip-path="url(#p060c1bfb4e)" style="fill: none; stroke: #1f77b4; stroke-width: 1.5"/>
    <path d="M 156.224342 70.479199 
L 156.224342 70.479199 
" clip-path="url(#p060c1bfb4e)" style="fill: none; stroke: #1f77b4; stroke-width: 1.5"/>
    <path d="M 158.966357 70.692386 
L 158.966357 70.692386 
" clip-path="url(#p060c1bfb4e)" style="fill: none; stroke: #1f77b4; stroke-width: 1.5"/>
    <path d="M 161.708371 68.581609 
L 161.708371 68.581609 
" clip-path="url(#p060c1bfb4e)" style="fill: none; stroke: #1f77b4; stroke-width: 1.5"/>
    <path d="M 164.450386 72.166969 
L 164.450386 67.155383 
" clip-path="url(#p060c1bfb4e)" style="fill: none; stroke: #1f77b4; stroke-width: 1.5"/>
    <path d="M 167.192401 68.599896 
L 167.192401 68.599896 
" clip-path="url(#p060c1bfb4e)" style="fill: none; stroke: #1f77b4; stroke-width: 1.5"/>
    <path d="M 169.934416 68.03983 
L 169.934416 68.03983 
" clip-path="url(#p060c1bfb4e)" style="fill: none; stroke: #1f77b4; stroke-width: 1.5"/>
    <path d="M 172.67643 68.836247 
L 172.67643 68.836247 
" clip-path="url(#p060c1bfb4e)" style="fill: none; stroke: #1f77b4; stroke-width: 1.5"/>
    <path d="M 175.418445 67.009897 
L 175.418445 67.009897 
" clip-path="url(#p060c1bfb4e)" style="fill: none; stroke: #1f77b4; stroke-width: 1.5"/>
    <path d="M 178.16046 67.074212 
L 178.16046 67.074212 
" clip-path="url(#p060c1bfb4e)" style="fill: none; stroke: #1f77b4; stroke-width: 1.5"/>
    <path d="M 180.902475 70.166397 
L 180.902475 63.421239 
" clip-path="url(#p060c1bfb4e)" style="fill: none; stroke: #1f77b4; stroke-width: 1.5"/>
    <path d="M 183.644489 67.717084 
L 183.644489 67.717084 
" clip-path="url(#p060c1bfb4e)" style="fill: none; stroke: #1f77b4; stroke-width: 1.5"/>
    <path d="M 186.386504 66.895955 
L 186.386504 66.895955 
" clip-path="url(#p060c1bfb4e)" style="fill: none; stroke: #1f77b4; stroke-width: 1.5"/>
    <path d="M 189.128519 68.280265 
L 189.128519 68.280265 
" clip-path="url(#p060c1bfb4e)" style="fill: none; stroke: #1f77b4; stroke-width: 1.5"/>
    <path d="M 191.870534 65.610664 
L 191.870534 65.610664 
" clip-path="url(#p060c1bfb4e)" style="fill: none; stroke: #1f77b4; stroke-width: 1.5"/>
    <path d="M 194.612548 66.000405 
L 194.612548 66.000405 
" clip-path="url(#p060c1bfb4e)" style="fill: none; stroke: #1f77b4; stroke-width: 1.5"/>
    <path d="M 197.354563 66.881769 
L 197.354563 62.202421 
" clip-path="url(#p060c1bfb4e)" style="fill: none; stroke: #1f77b4; stroke-width: 1.5"/>
    <path d="M 200.096578 64.423888 
L 200.096578 64.423888 
" clip-path="url(#p060c1bfb4e)" style="fill: none; stroke: #1f77b4; stroke-width: 1.5"/>
    <path d="M 202.838593 64.623498 
L 202.838593 64.623498 
" clip-path="url(#p060c1bfb4e)" style="fill: none; stroke: #1f77b4; stroke-width: 1.5"/>
    <path d="M 205.580607 66.013394 
L 205.580607 66.013394 
" clip-path="url(#p060c1bfb4e)" style="fill: none; stroke: #1f77b4; stroke-width: 1.5"/>
    <path d="M 208.322622 64.131862 
L 208.322622 64.131862 
" clip-path="url(#p060c1bfb4e)" style="fill: none; stroke: #1f77b4; stroke-width: 1.5"/>
    <path d="M 211.064637 63.187476 
L 211.064637 63.187476 
" clip-path="url(#p060c1bfb4e)" style="fill: none; stroke: #1f77b4; stroke-width: 1.5"/>
    <path d="M 213.806652 67.370291 
L 213.806652 60.181792 
" clip-path="url(#p060c1bfb4e)" style="fill: none; stroke: #1f77b4; stroke-width: 1.5"/>
    <path d="M 216.548666 63.669801 
L 216.548666 63.669801 
" clip-path="url(#p060c1bfb4e)" style="fill: none; stroke: #1f77b4; stroke-width: 1.5"/>
    <path d="M 219.290681 63.388127 
L 219.290681 63.388127 
" clip-path="url(#p060c1bfb4e)" style="fill: none; stroke: #1f77b4; stroke-width: 1.5"/>
    <path d="M 222.032696 63.13066 
L 222.032696 63.13066 
" clip-path="url(#p060c1bfb4e)" style="fill: none; stroke: #1f77b4; stroke-width: 1.5"/>
    <path d="M 224.774711 62.664502 
L 224.774711 62.664502 
" clip-path="url(#p060c1bfb4e)" style="fill: none; stroke: #1f77b4; stroke-width: 1.5"/>
    <path d="M 227.516725 61.952372 
L 227.516725 61.952372 
" clip-path="url(#p060c1bfb4e)" style="fill: none; stroke: #1f77b4; stroke-width: 1.5"/>
    <path d="M 230.25874 68.884962 
L 230.25874 60.385056 
" clip-path="url(#p060c1bfb4e)" style="fill: none; stroke: #1f77b4; stroke-width: 1.5"/>
    <path d="M 233.000755 62.692901 
L 233.000755 62.692901 
" clip-path="url(#p060c1bfb4e)" style="fill: none; stroke: #1f77b4; stroke-width: 1.5"/>
    <path d="M 235.74277 61.821003 
L 235.74277 61.821003 
" clip-path="url(#p060c1bfb4e)" style="fill: none; stroke: #1f77b4; stroke-width: 1.5"/>
    <path d="M 238.484784 60.749715 
L 238.484784 60.749715 
" clip-path="url(#p060c1bfb4e)" style="fill: none; stroke: #1f77b4; stroke-width: 1.5"/>
    <path d="M 241.226799 61.088916 
L 241.226799 61.088916 
" clip-path="url(#p060c1bfb4e)" style="fill: none; stroke: #1f77b4; stroke-width: 1.5"/>
    <path d="M 243.968814 60.626241 
L 243.968814 60.626241 
" clip-path="url(#p060c1bfb4e)" style="fill: none; stroke: #1f77b4; stroke-width: 1.5"/>
    <path d="M 246.710828 64.731644 
L 246.710828 58.060638 
" clip-path="url(#p060c1bfb4e)" style="fill: none; stroke: #1f77b4; stroke-width: 1.5"/>
    <path d="M 249.452843 60.729599 
L 249.452843 60.729599 
" clip-path="url(#p060c1bfb4e)" style="fill: none; stroke: #1f77b4; stroke-width: 1.5"/>
    <path d="M 252.194858 60.337266 
L 252.194858 60.337266 
" clip-path="url(#p060c1bfb4e)" style="fill: none; stroke: #1f77b4; stroke-width: 1.5"/>
   </g>
   <g id="line2d_87">
    <path d="M 49.285767 157.666725 
L 52.027782 110.944053 
L 54.769797 103.222127 
L 57.511811 98.592492 
L 60.253826 94.527514 
L 62.995841 91.403578 
L 65.737855 89.29155 
L 68.47987 87.137901 
L 71.221885 87.837276 
L 73.9639 86.040744 
L 76.705914 84.121707 
L 79.447929 82.384857 
L 82.189944 80.79858 
L 84.931959 79.33884 
L 87.673973 78.104192 
L 90.415988 76.845274 
L 93.158003 75.667373 
L 95.900018 74.560688 
L 98.642032 73.517099 
L 101.384047 72.529796 
L 104.126062 71.593016 
L 106.868077 70.70184 
L 109.610091 69.852034 
L 112.352106 69.039926 
L 115.094121 68.262312 
L 117.836136 67.516383 
L 120.57815 66.799655 
L 123.320165 66.10993 
L 126.06218 65.445245 
L 128.804195 64.803847 
L 131.546209 64.184159 
L 134.288224 63.584759 
L 137.030239 63.00436 
L 139.772254 62.441795 
L 142.514268 61.896001 
L 145.256283 61.366006 
L 147.998298 60.850922 
L 150.740312 60.349932 
L 153.482327 59.862285 
L 156.224342 59.38729 
L 158.966357 58.924306 
L 161.708371 58.47274 
L 164.450386 58.032044 
L 167.192401 57.601706 
L 169.934416 57.18125 
L 172.67643 56.770233 
L 175.418445 56.36824 
L 178.16046 55.974884 
L 180.902475 55.5898 
L 183.644489 55.212649 
L 186.386504 54.84311 
L 189.128519 54.480881 
L 191.870534 54.125681 
L 194.612548 53.777239 
L 197.354563 53.435305 
L 200.096578 53.099639 
L 202.838593 52.770017 
L 205.580607 52.446223 
L 208.322622 52.128056 
L 211.064637 51.815324 
L 213.806652 51.507843 
L 216.548666 51.205441 
L 219.290681 50.907952 
L 222.032696 50.615219 
L 224.774711 50.327093 
L 227.516725 50.04343 
L 230.25874 49.764095 
L 233.000755 49.488958 
L 235.74277 49.217894 
L 238.484784 48.950784 
L 241.226799 48.687515 
L 243.968814 48.427978 
L 246.710828 48.172069 
L 249.452843 47.919686 
L 252.194858 47.670735 
" clip-path="url(#p060c1bfb4e)" style="fill: none; stroke: #ff7f0e; stroke-width: 1.5; stroke-linecap: square"/>
    <defs>
     <path id="mb271d369af" d="M 0 3 
C 0.795609 3 1.55874 2.683901 2.12132 2.12132 
C 2.683901 1.55874 3 0.795609 3 0 
C 3 -0.795609 2.683901 -1.55874 2.12132 -2.12132 
C 1.55874 -2.683901 0.795609 -3 0 -3 
C -0.795609 -3 -1.55874 -2.683901 -2.12132 -2.12132 
C -2.683901 -1.55874 -3 -0.795609 -3 0 
C -3 0.795609 -2.683901 1.55874 -2.12132 2.12132 
C -1.55874 2.683901 -0.795609 3 0 3 
z
" style="stroke: #ff7f0e"/>
    </defs>
    <g clip-path="url(#p060c1bfb4e)">
     <use xlink:href="#mb271d369af" x="49.285767" y="157.666725" style="fill: #ff7f0e; stroke: #ff7f0e"/>
     <use xlink:href="#mb271d369af" x="68.47987" y="87.137901" style="fill: #ff7f0e; stroke: #ff7f0e"/>
     <use xlink:href="#mb271d369af" x="87.673973" y="78.104192" style="fill: #ff7f0e; stroke: #ff7f0e"/>
     <use xlink:href="#mb271d369af" x="106.868077" y="70.70184" style="fill: #ff7f0e; stroke: #ff7f0e"/>
     <use xlink:href="#mb271d369af" x="126.06218" y="65.445245" style="fill: #ff7f0e; stroke: #ff7f0e"/>
     <use xlink:href="#mb271d369af" x="145.256283" y="61.366006" style="fill: #ff7f0e; stroke: #ff7f0e"/>
     <use xlink:href="#mb271d369af" x="164.450386" y="58.032044" style="fill: #ff7f0e; stroke: #ff7f0e"/>
     <use xlink:href="#mb271d369af" x="183.644489" y="55.212649" style="fill: #ff7f0e; stroke: #ff7f0e"/>
     <use xlink:href="#mb271d369af" x="202.838593" y="52.770017" style="fill: #ff7f0e; stroke: #ff7f0e"/>
     <use xlink:href="#mb271d369af" x="222.032696" y="50.615219" style="fill: #ff7f0e; stroke: #ff7f0e"/>
     <use xlink:href="#mb271d369af" x="241.226799" y="48.687515" style="fill: #ff7f0e; stroke: #ff7f0e"/>
    </g>
   </g>
   <g id="line2d_88">
    <path d="M 49.285767 142.331306 
L 52.027782 93.70981 
L 54.769797 86.065582 
L 57.511811 80.727217 
L 60.253826 75.890001 
L 62.995841 72.732312 
L 65.737855 71.033938 
L 68.47987 68.913588 
L 71.221885 67.028956 
L 73.9639 64.649736 
L 76.705914 64.104894 
L 79.447929 62.329561 
L 82.189944 63.302344 
L 84.931959 59.068848 
L 87.673973 58.896136 
L 90.415988 58.429516 
L 93.158003 57.56785 
L 95.900018 56.893009 
L 98.642032 56.489971 
L 101.384047 53.922046 
L 104.126062 54.704855 
L 106.868077 54.114622 
L 109.610091 55.110981 
L 112.352106 55.529249 
L 115.094121 55.479141 
L 117.836136 55.160801 
L 120.57815 56.577521 
L 123.320165 52.631082 
L 126.06218 53.46451 
L 128.804195 52.499518 
L 131.546209 53.110988 
L 134.288224 52.124869 
L 137.030239 53.213651 
L 139.772254 51.29872 
L 142.514268 55.747178 
L 145.256283 52.577237 
L 147.998298 54.594894 
L 150.740312 52.904381 
L 153.482327 53.368692 
L 156.224342 52.906799 
L 158.966357 52.28968 
L 161.708371 52.603007 
L 164.450386 52.150683 
L 167.192401 49.996643 
L 169.934416 53.954333 
L 172.67643 54.909056 
L 175.418445 49.655712 
L 178.16046 52.452225 
L 180.902475 51.310244 
L 183.644489 51.48606 
L 186.386504 53.900983 
L 189.128519 53.874623 
L 191.870534 56.43779 
L 194.612548 50.830192 
L 197.354563 50.471257 
L 200.096578 49.794815 
L 202.838593 50.673245 
L 205.580607 46.171293 
L 208.322622 54.249597 
L 211.064637 51.508788 
L 213.806652 46.595584 
L 216.548666 51.305241 
L 219.290681 51.707486 
L 222.032696 47.43127 
L 224.774711 52.874894 
L 227.516725 52.648021 
L 230.25874 52.800576 
L 233.000755 50.7224 
L 235.74277 51.055915 
L 238.484784 54.446032 
L 241.226799 50.729479 
L 243.968814 51.896534 
L 246.710828 51.10738 
L 249.452843 50.73975 
L 252.194858 53.76605 
" clip-path="url(#p060c1bfb4e)" style="fill: none; stroke: #2ca02c; stroke-width: 1.5; stroke-linecap: square"/>
    <defs>
     <path id="mb288dfaccb" d="M 0 -3 
L -3 3 
L 3 3 
z
" style="stroke: #2ca02c; stroke-linejoin: miter"/>
    </defs>
    <g clip-path="url(#p060c1bfb4e)">
     <use xlink:href="#mb288dfaccb" x="49.285767" y="142.331306" style="fill: #2ca02c; stroke: #2ca02c; stroke-linejoin: miter"/>
     <use xlink:href="#mb288dfaccb" x="68.47987" y="68.913588" style="fill: #2ca02c; stroke: #2ca02c; stroke-linejoin: miter"/>
     <use xlink:href="#mb288dfaccb" x="87.673973" y="58.896136" style="fill: #2ca02c; stroke: #2ca02c; stroke-linejoin: miter"/>
     <use xlink:href="#mb288dfaccb" x="106.868077" y="54.114622" style="fill: #2ca02c; stroke: #2ca02c; stroke-linejoin: miter"/>
     <use xlink:href="#mb288dfaccb" x="126.06218" y="53.46451" style="fill: #2ca02c; stroke: #2ca02c; stroke-linejoin: miter"/>
     <use xlink:href="#mb288dfaccb" x="145.256283" y="52.577237" style="fill: #2ca02c; stroke: #2ca02c; stroke-linejoin: miter"/>
     <use xlink:href="#mb288dfaccb" x="164.450386" y="52.150683" style="fill: #2ca02c; stroke: #2ca02c; stroke-linejoin: miter"/>
     <use xlink:href="#mb288dfaccb" x="183.644489" y="51.48606" style="fill: #2ca02c; stroke: #2ca02c; stroke-linejoin: miter"/>
     <use xlink:href="#mb288dfaccb" x="202.838593" y="50.673245" style="fill: #2ca02c; stroke: #2ca02c; stroke-linejoin: miter"/>
     <use xlink:href="#mb288dfaccb" x="222.032696" y="47.43127" style="fill: #2ca02c; stroke: #2ca02c; stroke-linejoin: miter"/>
     <use xlink:href="#mb288dfaccb" x="241.226799" y="50.729479" style="fill: #2ca02c; stroke: #2ca02c; stroke-linejoin: miter"/>
    </g>
   </g>
   <g id="line2d_89">
    <path d="M 49.285767 142.095018 
L 52.027782 86.563339 
L 54.769797 78.924972 
L 57.511811 74.636674 
L 60.253826 71.289873 
L 62.995841 68.488107 
L 65.737855 66.055272 
L 68.47987 63.916188 
L 71.221885 62.015369 
L 73.9639 60.296062 
L 76.705914 58.728734 
L 79.447929 57.29294 
L 82.189944 55.969379 
L 84.931959 54.735158 
L 87.673973 53.584588 
L 90.415988 52.50897 
L 93.158003 51.493211 
L 95.900018 50.530963 
L 98.642032 49.617107 
L 101.384047 48.746904 
L 104.126062 47.916232 
L 106.868077 47.122441 
L 109.610091 46.362352 
L 112.352106 45.634913 
L 115.094121 44.944867 
L 117.836136 44.35849 
L 120.57815 43.834663 
L 123.320165 43.325684 
L 126.06218 42.83136 
L 128.804195 42.351293 
L 131.546209 41.883834 
L 134.288224 41.429843 
L 137.030239 40.98788 
L 139.772254 40.557156 
L 142.514268 40.136994 
L 145.256283 39.726625 
L 147.998298 39.326355 
L 150.740312 38.935392 
L 153.482327 38.553196 
L 156.224342 38.178875 
L 158.966357 37.812732 
L 161.708371 37.455177 
L 164.450386 37.105475 
L 167.192401 36.763792 
L 169.934416 36.430288 
L 172.67643 36.105449 
L 175.418445 35.822038 
L 178.16046 35.642004 
L 180.902475 35.471886 
L 183.644489 35.308628 
L 186.386504 35.151923 
L 189.128519 35.002433 
L 191.870534 34.860286 
L 194.612548 34.723367 
L 197.354563 34.591135 
L 200.096578 34.461015 
L 202.838593 34.334569 
L 205.580607 34.209976 
L 208.322622 34.088364 
L 211.064637 33.969664 
L 213.806652 33.851821 
L 216.548666 33.736555 
L 219.290681 33.623195 
L 222.032696 33.513628 
L 224.774711 33.405412 
L 227.516725 33.297861 
L 230.25874 33.190948 
L 233.000755 33.0847 
L 235.74277 32.979223 
L 238.484784 32.875198 
L 241.226799 32.773722 
L 243.968814 32.672829 
L 246.710828 32.572561 
L 249.452843 32.472935 
L 252.194858 32.37387 
" clip-path="url(#p060c1bfb4e)" style="fill: none; stroke: #d62728; stroke-width: 1.5; stroke-linecap: square"/>
    <defs>
     <path id="m02cfaee6ac" d="M -3 3 
L 3 3 
L 3 -3 
L -3 -3 
z
" style="stroke: #d62728; stroke-linejoin: miter"/>
    </defs>
    <g clip-path="url(#p060c1bfb4e)">
     <use xlink:href="#m02cfaee6ac" x="49.285767" y="142.095018" style="fill: #d62728; stroke: #d62728; stroke-linejoin: miter"/>
     <use xlink:href="#m02cfaee6ac" x="68.47987" y="63.916188" style="fill: #d62728; stroke: #d62728; stroke-linejoin: miter"/>
     <use xlink:href="#m02cfaee6ac" x="87.673973" y="53.584588" style="fill: #d62728; stroke: #d62728; stroke-linejoin: miter"/>
     <use xlink:href="#m02cfaee6ac" x="106.868077" y="47.122441" style="fill: #d62728; stroke: #d62728; stroke-linejoin: miter"/>
     <use xlink:href="#m02cfaee6ac" x="126.06218" y="42.83136" style="fill: #d62728; stroke: #d62728; stroke-linejoin: miter"/>
     <use xlink:href="#m02cfaee6ac" x="145.256283" y="39.726625" style="fill: #d62728; stroke: #d62728; stroke-linejoin: miter"/>
     <use xlink:href="#m02cfaee6ac" x="164.450386" y="37.105475" style="fill: #d62728; stroke: #d62728; stroke-linejoin: miter"/>
     <use xlink:href="#m02cfaee6ac" x="183.644489" y="35.308628" style="fill: #d62728; stroke: #d62728; stroke-linejoin: miter"/>
     <use xlink:href="#m02cfaee6ac" x="202.838593" y="34.334569" style="fill: #d62728; stroke: #d62728; stroke-linejoin: miter"/>
     <use xlink:href="#m02cfaee6ac" x="222.032696" y="33.513628" style="fill: #d62728; stroke: #d62728; stroke-linejoin: miter"/>
     <use xlink:href="#m02cfaee6ac" x="241.226799" y="32.773722" style="fill: #d62728; stroke: #d62728; stroke-linejoin: miter"/>
    </g>
   </g>
   <g id="line2d_90">
    <path d="M 49.285767 141.951976 
L 52.027782 86.206637 
L 54.769797 73.956309 
L 57.511811 66.681696 
L 60.253826 61.48942 
L 62.995841 57.448918 
L 65.737855 54.140842 
L 68.47987 51.339966 
L 71.221885 48.91124 
L 73.9639 46.767268 
L 76.705914 44.848232 
L 79.447929 43.111381 
L 82.189944 41.525105 
L 84.931959 40.065364 
L 87.673973 38.713456 
L 90.415988 37.454538 
L 93.158003 36.276637 
L 95.900018 35.169953 
L 98.642032 34.126363 
L 101.384047 33.13906 
L 104.126062 32.202281 
L 106.868077 31.311105 
L 109.610091 30.461298 
L 112.352106 29.64919 
L 115.094121 28.871577 
L 117.836136 28.125647 
L 120.57815 27.40892 
L 123.320165 26.719194 
L 126.06218 26.05451 
L 128.804195 25.413112 
L 131.546209 24.793423 
L 134.288224 24.194023 
L 137.030239 23.613624 
L 139.772254 23.05106 
L 142.514268 22.505265 
L 145.256283 21.97527 
L 147.998298 21.460186 
L 150.740312 20.959196 
L 153.482327 20.47155 
L 156.224342 19.996554 
L 158.966357 19.53357 
L 161.708371 19.082005 
L 164.450386 18.641309 
L 167.192401 18.210971 
L 169.934416 17.790515 
L 172.67643 17.379498 
L 175.418445 16.977505 
L 178.16046 16.584148 
L 180.902475 16.199065 
L 183.644489 15.821913 
L 186.386504 15.452374 
L 189.128519 15.090146 
L 191.870534 14.734945 
L 194.612548 14.386503 
L 197.354563 14.044569 
L 200.096578 13.708904 
L 202.838593 13.379281 
L 205.580607 13.055488 
L 208.322622 12.737321 
L 211.064637 12.424588 
L 213.806652 12.117108 
L 216.548666 11.814705 
L 219.290681 11.517216 
L 222.032696 11.224484 
L 224.774711 10.936357 
L 227.516725 10.652695 
L 230.25874 10.37336 
L 233.000755 10.098223 
L 235.74277 9.827159 
L 238.484784 9.560049 
L 241.226799 9.29678 
L 243.968814 9.037243 
L 246.710828 8.781333 
L 249.452843 8.528951 
L 252.194858 8.28 
" clip-path="url(#p060c1bfb4e)" style="fill: none; stroke-dasharray: 5.55,2.4; stroke-dashoffset: 0; stroke: #9467bd; stroke-width: 1.5"/>
   </g>
   <g id="line2d_91">
    <path d="M 49.285767 158.597707 
L 52.027782 117.936434 
L 54.769797 109.490501 
L 57.511811 105.138507 
L 60.253826 101.34207 
L 62.995841 98.892865 
L 65.737855 96.025233 
L 68.47987 94.109806 
L 71.221885 92.471082 
L 73.9639 90.77293 
L 76.705914 89.743359 
L 79.447929 87.81524 
L 82.189944 87.207817 
L 84.931959 86.573323 
L 87.673973 85.182793 
L 90.415988 83.632114 
L 93.158003 83.985425 
L 95.900018 81.949544 
L 98.642032 81.244207 
L 101.384047 80.317406 
L 104.126062 78.933664 
L 106.868077 79.803358 
L 109.610091 77.890463 
L 112.352106 77.319348 
L 115.094121 76.981276 
L 117.836136 76.330228 
L 120.57815 75.689034 
L 123.320165 75.59969 
L 126.06218 73.846453 
L 128.804195 74.219746 
L 131.546209 73.860677 
L 134.288224 73.969378 
L 137.030239 72.513209 
L 139.772254 71.840591 
L 142.514268 72.014417 
L 145.256283 72.242446 
L 147.998298 70.334307 
L 150.740312 70.361011 
L 153.482327 69.283994 
L 156.224342 70.479199 
L 158.966357 70.692386 
L 161.708371 68.581609 
L 164.450386 69.106763 
L 167.192401 68.599896 
L 169.934416 68.03983 
L 172.67643 68.836247 
L 175.418445 67.009897 
L 178.16046 67.074212 
L 180.902475 66.777051 
L 183.644489 67.717084 
L 186.386504 66.895955 
L 189.128519 68.280265 
L 191.870534 65.610664 
L 194.612548 66.000405 
L 197.354563 65.17686 
L 200.096578 64.423888 
L 202.838593 64.623498 
L 205.580607 66.013394 
L 208.322622 64.131862 
L 211.064637 63.187476 
L 213.806652 63.458747 
L 216.548666 63.669801 
L 219.290681 63.388127 
L 222.032696 63.13066 
L 224.774711 62.664502 
L 227.516725 61.952372 
L 230.25874 62.577003 
L 233.000755 62.692901 
L 235.74277 61.821003 
L 238.484784 60.749715 
L 241.226799 61.088916 
L 243.968814 60.626241 
L 246.710828 60.465573 
L 249.452843 60.729599 
L 252.194858 60.337266 
" clip-path="url(#p060c1bfb4e)" style="fill: none; stroke: #1f77b4; stroke-width: 1.5; stroke-linecap: square"/>
   </g>
   <g id="patch_3">
    <path d="M 39.140313 167.04 
L 39.140313 0.72 
" style="fill: none; stroke: #000000; stroke-width: 0.8; stroke-linejoin: miter; stroke-linecap: square"/>
   </g>
   <g id="patch_4">
    <path d="M 262.340312 167.04 
L 262.340312 0.72 
" style="fill: none; stroke: #000000; stroke-width: 0.8; stroke-linejoin: miter; stroke-linecap: square"/>
   </g>
   <g id="patch_5">
    <path d="M 39.140313 167.04 
L 262.340312 167.04 
" style="fill: none; stroke: #000000; stroke-width: 0.8; stroke-linejoin: miter; stroke-linecap: square"/>
   </g>
   <g id="patch_6">
    <path d="M 39.140313 0.72 
L 262.340312 0.72 
" style="fill: none; stroke: #000000; stroke-width: 0.8; stroke-linejoin: miter; stroke-linecap: square"/>
   </g>
   <g id="legend_1">
    <g id="patch_7">
     <path d="M 182.509062 162.04 
L 255.340312 162.04 
Q 257.340312 162.04 257.340312 160.04 
L 257.340312 102.3275 
Q 257.340312 100.3275 255.340312 100.3275 
L 182.509062 100.3275 
Q 180.509062 100.3275 180.509062 102.3275 
L 180.509062 160.04 
Q 180.509062 162.04 182.509062 162.04 
z
" style="fill: #ffffff; opacity: 0.8; stroke: #cccccc; stroke-linejoin: miter"/>
    </g>
    <g id="line2d_92">
     <path d="M 184.509062 108.425938 
L 194.509062 108.425938 
L 204.509062 108.425938 
" style="fill: none; stroke: #ff7f0e; stroke-width: 1.5; stroke-linecap: square"/>
     <g>
      <use xlink:href="#mb271d369af" x="194.509062" y="108.425938" style="fill: #ff7f0e; stroke: #ff7f0e"/>
     </g>
    </g>
    <g id="text_14">
     <!-- SCAR-Q -->
     <g transform="translate(212.509062 111.925938) scale(0.1 -0.1)">
      <defs>
       <path id="DejaVuSerif-43" d="M 4513 1234 
Q 4306 581 3820 245 
Q 3334 -91 2591 -91 
Q 2134 -91 1743 65 
Q 1353 222 1050 525 
Q 700 875 529 1320 
Q 359 1766 359 2328 
Q 359 3416 987 4083 
Q 1616 4750 2644 4750 
Q 3025 4750 3456 4650 
Q 3888 4550 4384 4347 
L 4384 3272 
L 4031 3272 
Q 3916 3859 3567 4137 
Q 3219 4416 2591 4416 
Q 1844 4416 1459 3886 
Q 1075 3356 1075 2328 
Q 1075 1303 1459 773 
Q 1844 244 2591 244 
Q 3113 244 3450 492 
Q 3788 741 3938 1234 
L 4513 1234 
z
" transform="scale(0.015625)"/>
       <path id="DejaVuSerif-41" d="M 1281 1691 
L 2994 1691 
L 2138 3909 
L 1281 1691 
z
M -38 0 
L -38 331 
L 372 331 
L 2034 4666 
L 2559 4666 
L 4225 331 
L 4684 331 
L 4684 0 
L 2988 0 
L 2988 331 
L 3506 331 
L 3116 1356 
L 1153 1356 
L 763 331 
L 1275 331 
L 1275 0 
L -38 0 
z
" transform="scale(0.015625)"/>
       <path id="DejaVuSerif-2d" d="M 281 1959 
L 1881 1959 
L 1881 1472 
L 281 1472 
L 281 1959 
z
" transform="scale(0.015625)"/>
       <path id="DejaVuSerif-51" d="M 2700 -91 
Q 1628 -91 993 567 
Q 359 1225 359 2328 
Q 359 2894 529 3339 
Q 700 3784 1050 4134 
Q 1356 4441 1750 4595 
Q 2144 4750 2625 4750 
Q 3641 4750 4266 4084 
Q 4891 3419 4891 2328 
Q 4891 1403 4422 773 
Q 3953 144 3128 -38 
Q 3297 -247 3539 -347 
Q 3781 -447 4122 -447 
L 4219 -447 
L 4219 -1025 
Q 3691 -1000 3314 -767 
Q 2938 -534 2700 -91 
z
M 2625 244 
Q 3391 244 3781 770 
Q 4172 1297 4172 2328 
Q 4172 3363 3781 3889 
Q 3391 4416 2625 4416 
Q 1856 4416 1465 3889 
Q 1075 3363 1075 2328 
Q 1075 1297 1465 770 
Q 1856 244 2625 244 
z
" transform="scale(0.015625)"/>
      </defs>
      <use xlink:href="#DejaVuSerif-53"/>
      <use xlink:href="#DejaVuSerif-43" transform="translate(68.505859 0)"/>
      <use xlink:href="#DejaVuSerif-41" transform="translate(145.019531 0)"/>
      <use xlink:href="#DejaVuSerif-52" transform="translate(217.236328 0)"/>
      <use xlink:href="#DejaVuSerif-2d" transform="translate(292.529297 0)"/>
      <use xlink:href="#DejaVuSerif-51" transform="translate(326.318359 0)"/>
     </g>
    </g>
    <g id="line2d_93">
     <path d="M 184.509062 123.104063 
L 194.509062 123.104063 
L 204.509062 123.104063 
" style="fill: none; stroke: #2ca02c; stroke-width: 1.5; stroke-linecap: square"/>
     <g>
      <use xlink:href="#mb288dfaccb" x="194.509062" y="123.104063" style="fill: #2ca02c; stroke: #2ca02c; stroke-linejoin: miter"/>
     </g>
    </g>
    <g id="text_15">
     <!-- StratoQ -->
     <g transform="translate(212.509062 126.604063) scale(0.1 -0.1)">
      <use xlink:href="#DejaVuSerif-53"/>
      <use xlink:href="#DejaVuSerif-74" transform="translate(68.505859 0)"/>
      <use xlink:href="#DejaVuSerif-72" transform="translate(108.691406 0)"/>
      <use xlink:href="#DejaVuSerif-61" transform="translate(156.494141 0)"/>
      <use xlink:href="#DejaVuSerif-74" transform="translate(216.113281 0)"/>
      <use xlink:href="#DejaVuSerif-6f" transform="translate(256.298828 0)"/>
      <use xlink:href="#DejaVuSerif-51" transform="translate(316.503906 0)"/>
     </g>
    </g>
    <g id="line2d_94">
     <path d="M 184.509062 137.782188 
L 194.509062 137.782188 
L 204.509062 137.782188 
" style="fill: none; stroke: #d62728; stroke-width: 1.5; stroke-linecap: square"/>
     <g>
      <use xlink:href="#m02cfaee6ac" x="194.509062" y="137.782188" style="fill: #d62728; stroke: #d62728; stroke-linejoin: miter"/>
     </g>
    </g>
    <g id="text_16">
     <!-- Relaxed -->
     <g transform="translate(212.509062 141.282188) scale(0.1 -0.1)">
      <defs>
       <path id="DejaVuSerif-78" d="M 1863 2028 
L 2559 2988 
L 2113 2988 
L 2113 3322 
L 3391 3322 
L 3391 2988 
L 2950 2988 
L 2059 1759 
L 3097 331 
L 3531 331 
L 3531 0 
L 1997 0 
L 1997 331 
L 2419 331 
L 1697 1325 
L 972 331 
L 1403 331 
L 1403 0 
L 141 0 
L 141 331 
L 581 331 
L 1497 1594 
L 488 2988 
L 78 2988 
L 78 3322 
L 1563 3322 
L 1563 2988 
L 1166 2988 
L 1863 2028 
z
" transform="scale(0.015625)"/>
      </defs>
      <use xlink:href="#DejaVuSerif-52"/>
      <use xlink:href="#DejaVuSerif-65" transform="translate(75.292969 0)"/>
      <use xlink:href="#DejaVuSerif-6c" transform="translate(134.472656 0)"/>
      <use xlink:href="#DejaVuSerif-61" transform="translate(166.455078 0)"/>
      <use xlink:href="#DejaVuSerif-78" transform="translate(226.074219 0)"/>
      <use xlink:href="#DejaVuSerif-65" transform="translate(282.470703 0)"/>
      <use xlink:href="#DejaVuSerif-64" transform="translate(341.650391 0)"/>
     </g>
    </g>
    <g id="LineCollection_2">
     <path d="M 194.509062 157.460313 
L 194.509062 147.460313 
" style="fill: none; stroke: #1f77b4; stroke-width: 1.5"/>
    </g>
    <g id="line2d_95">
     <path d="M 184.509062 152.460313 
L 204.509062 152.460313 
" style="fill: none; stroke: #1f77b4; stroke-width: 1.5; stroke-linecap: square"/>
    </g>
    <g id="line2d_96"/>
    <g id="text_17">
     <!-- MCR-Q -->
     <g transform="translate(212.509062 155.960313) scale(0.1 -0.1)">
      <use xlink:href="#DejaVuSerif-4d"/>
      <use xlink:href="#DejaVuSerif-43" transform="translate(102.392578 0)"/>
      <use xlink:href="#DejaVuSerif-52" transform="translate(178.90625 0)"/>
      <use xlink:href="#DejaVuSerif-2d" transform="translate(254.199219 0)"/>
      <use xlink:href="#DejaVuSerif-51" transform="translate(287.988281 0)"/>
     </g>
    </g>
   </g>
  </g>
 </g>
 <defs>
  <clipPath id="p060c1bfb4e">
   <rect x="39.140313" y="0.72" width="223.2" height="166.32"/>
  </clipPath>
 </defs>
</svg>
