<?xml version="1.0" encoding="utf-8" standalone="no"?>
<!DOCTYPE svg PUBLIC "-//W3C//DTD SVG 1.1//EN"
  "http://www.w3.org/Graphics/SVG/1.1/DTD/svg11.dtd">
<svg xmlns:xlink="http://www.w3.org/1999/xlink" width="266.652584pt" height="199.838125pt" viewBox="0 0 266.652584 199.838125" xmlns="http://www.w3.org/2000/svg" version="1.1">
 <metadata>
  <rdf:RDF xmlns:dc="http://purl.org/dc/elements/1.1/" xmlns:cc="http://creativecommons.org/ns#" xmlns:rdf="http://www.w3.org/1999/02/22-rdf-syntax-ns#">
   <cc:Work>
    <dc:type rdf:resource="http://purl.org/dc/dcmitype/StillImage"/>
    <dc:date>2026-03-10T08:42:22.099689</dc:date>
    <dc:format>image/svg+xml</dc:format>
    <dc:creator>
     <cc:Agent>
      <dc:title>Matplotlib v3.10.8, https://matplotlib.org/</dc:title>
     </cc:Agent>
    </dc:creator>
   </cc:Work>
  </rdf:RDF>
 </metadata>
 <defs>
  <style type="text/css">*{stroke-linejoin: round; stroke-linecap: butt}</style>
 </defs>
 <g id="figure_1">
  <g id="patch_1">
   <path d="M 0 199.838125 
L 266.652584 199.838125 
L 266.652584 0 
L 0 0 
L 0 199.838125 
z
" style="fill: none"/>
  </g>
  <g id="axes_1">
   <g id="patch_2">
    <path d="M 39.140313 167.04 
L 262.340312 167.04 
L 262.340312 0.72 
L 39.140313 0.72 
L 39.140313 167.04 
z
" style="fill: none"/>
   </g>
   <g id="matplotlib.axis_1">
    <g id="xtick_1">
     <g id="line2d_1">
      <path d="M 49.148666 167.04 
L 49.148666 0.72 
" clip-path="url(#pd2e7e07619)" style="fill: none; stroke-dasharray: 2.96,1.28; stroke-dashoffset: 0; stroke: #b0b0b0; stroke-opacity: 0.5; stroke-width: 0.8"/>
     </g>
     <g id="line2d_2">
      <defs>
       <path id="m4072f6fc5f" d="M 0 0 
L 0 3.5 
" style="stroke: #000000; stroke-width: 0.8"/>
      </defs>
      <g>
       <use xlink:href="#m4072f6fc5f" x="49.148666" y="167.04" style="stroke: #000000; stroke-width: 0.8"/>
      </g>
     </g>
     <g id="text_1">
      <!-- 0.0 -->
      <g transform="translate(41.197104 181.638438) scale(0.1 -0.1)">
       <defs>
        <path id="DejaVuSerif-30" d="M 2034 219 
Q 2513 219 2750 744 
Q 2988 1269 2988 2328 
Q 2988 3391 2750 3916 
Q 2513 4441 2034 4441 
Q 1556 4441 1318 3916 
Q 1081 3391 1081 2328 
Q 1081 1269 1318 744 
Q 1556 219 2034 219 
z
M 2034 -91 
Q 1275 -91 848 546 
Q 422 1184 422 2328 
Q 422 3475 848 4112 
Q 1275 4750 2034 4750 
Q 2797 4750 3222 4112 
Q 3647 3475 3647 2328 
Q 3647 1184 3222 546 
Q 2797 -91 2034 -91 
z
" transform="scale(0.015625)"/>
        <path id="DejaVuSerif-2e" d="M 603 325 
Q 603 500 722 622 
Q 841 744 1019 744 
Q 1191 744 1312 622 
Q 1434 500 1434 325 
Q 1434 153 1312 31 
Q 1191 -91 1019 -91 
Q 841 -91 722 29 
Q 603 150 603 325 
z
" transform="scale(0.015625)"/>
       </defs>
       <use xlink:href="#DejaVuSerif-30"/>
       <use xlink:href="#DejaVuSerif-2e" transform="translate(63.623047 0)"/>
       <use xlink:href="#DejaVuSerif-30" transform="translate(95.410156 0)"/>
      </g>
     </g>
    </g>
    <g id="xtick_2">
     <g id="line2d_3">
      <path d="M 83.423851 167.04 
L 83.423851 0.72 
" clip-path="url(#pd2e7e07619)" style="fill: none; stroke-dasharray: 2.96,1.28; stroke-dashoffset: 0; stroke: #b0b0b0; stroke-opacity: 0.5; stroke-width: 0.8"/>
     </g>
     <g id="line2d_4">
      <g>
       <use xlink:href="#m4072f6fc5f" x="83.423851" y="167.04" style="stroke: #000000; stroke-width: 0.8"/>
      </g>
     </g>
     <g id="text_2">
      <!-- 2.5 -->
      <g transform="translate(75.472288 181.638438) scale(0.1 -0.1)">
       <defs>
        <path id="DejaVuSerif-32" d="M 819 3553 
L 469 3553 
L 469 4384 
Q 803 4563 1142 4656 
Q 1481 4750 1806 4750 
Q 2534 4750 2956 4397 
Q 3378 4044 3378 3438 
Q 3378 2753 2422 1800 
Q 2347 1728 2309 1691 
L 1131 513 
L 3078 513 
L 3078 1088 
L 3444 1088 
L 3444 0 
L 434 0 
L 434 341 
L 1850 1753 
Q 2319 2222 2519 2614 
Q 2719 3006 2719 3438 
Q 2719 3909 2473 4175 
Q 2228 4441 1797 4441 
Q 1350 4441 1106 4219 
Q 863 3997 819 3553 
z
" transform="scale(0.015625)"/>
        <path id="DejaVuSerif-35" d="M 3219 4666 
L 3219 4153 
L 1081 4153 
L 1081 2816 
Q 1244 2928 1461 2984 
Q 1678 3041 1947 3041 
Q 2703 3041 3140 2622 
Q 3578 2203 3578 1478 
Q 3578 738 3136 323 
Q 2694 -91 1894 -91 
Q 1572 -91 1234 -12 
Q 897 66 544 225 
L 544 1131 
L 897 1131 
Q 925 688 1179 453 
Q 1434 219 1894 219 
Q 2388 219 2653 544 
Q 2919 869 2919 1478 
Q 2919 2084 2655 2407 
Q 2391 2731 1894 2731 
Q 1613 2731 1398 2631 
Q 1184 2531 1019 2322 
L 750 2322 
L 750 4666 
L 3219 4666 
z
" transform="scale(0.015625)"/>
       </defs>
       <use xlink:href="#DejaVuSerif-32"/>
       <use xlink:href="#DejaVuSerif-2e" transform="translate(63.623047 0)"/>
       <use xlink:href="#DejaVuSerif-35" transform="translate(95.410156 0)"/>
      </g>
     </g>
    </g>
    <g id="xtick_3">
     <g id="line2d_5">
      <path d="M 117.699035 167.04 
L 117.699035 0.72 
" clip-path="url(#pd2e7e07619)" style="fill: none; stroke-dasharray: 2.96,1.28; stroke-dashoffset: 0; stroke: #b0b0b0; stroke-opacity: 0.5; stroke-width: 0.8"/>
     </g>
     <g id="line2d_6">
      <g>
       <use xlink:href="#m4072f6fc5f" x="117.699035" y="167.04" style="stroke: #000000; stroke-width: 0.8"/>
      </g>
     </g>
     <g id="text_3">
      <!-- 5.0 -->
      <g transform="translate(109.747472 181.638438) scale(0.1 -0.1)">
       <use xlink:href="#DejaVuSerif-35"/>
       <use xlink:href="#DejaVuSerif-2e" transform="translate(63.623047 0)"/>
       <use xlink:href="#DejaVuSerif-30" transform="translate(95.410156 0)"/>
      </g>
     </g>
    </g>
    <g id="xtick_4">
     <g id="line2d_7">
      <path d="M 151.974219 167.04 
L 151.974219 0.72 
" clip-path="url(#pd2e7e07619)" style="fill: none; stroke-dasharray: 2.96,1.28; stroke-dashoffset: 0; stroke: #b0b0b0; stroke-opacity: 0.5; stroke-width: 0.8"/>
     </g>
     <g id="line2d_8">
      <g>
       <use xlink:href="#m4072f6fc5f" x="151.974219" y="167.04" style="stroke: #000000; stroke-width: 0.8"/>
      </g>
     </g>
     <g id="text_4">
      <!-- 7.5 -->
      <g transform="translate(144.022657 181.638438) scale(0.1 -0.1)">
       <defs>
        <path id="DejaVuSerif-37" d="M 3609 4347 
L 1784 0 
L 1319 0 
L 3059 4153 
L 903 4153 
L 903 3578 
L 538 3578 
L 538 4666 
L 3609 4666 
L 3609 4347 
z
" transform="scale(0.015625)"/>
       </defs>
       <use xlink:href="#DejaVuSerif-37"/>
       <use xlink:href="#DejaVuSerif-2e" transform="translate(63.623047 0)"/>
       <use xlink:href="#DejaVuSerif-35" transform="translate(95.410156 0)"/>
      </g>
     </g>
    </g>
    <g id="xtick_5">
     <g id="line2d_9">
      <path d="M 186.249403 167.04 
L 186.249403 0.72 
" clip-path="url(#pd2e7e07619)" style="fill: none; stroke-dasharray: 2.96,1.28; stroke-dashoffset: 0; stroke: #b0b0b0; stroke-opacity: 0.5; stroke-width: 0.8"/>
     </g>
     <g id="line2d_10">
      <g>
       <use xlink:href="#m4072f6fc5f" x="186.249403" y="167.04" style="stroke: #000000; stroke-width: 0.8"/>
      </g>
     </g>
     <g id="text_5">
      <!-- 10.0 -->
      <g transform="translate(175.116591 181.638438) scale(0.1 -0.1)">
       <defs>
        <path id="DejaVuSerif-31" d="M 909 0 
L 909 331 
L 1722 331 
L 1722 4213 
L 781 3603 
L 781 4013 
L 1919 4750 
L 2350 4750 
L 2350 331 
L 3163 331 
L 3163 0 
L 909 0 
z
" transform="scale(0.015625)"/>
       </defs>
       <use xlink:href="#DejaVuSerif-31"/>
       <use xlink:href="#DejaVuSerif-30" transform="translate(63.623047 0)"/>
       <use xlink:href="#DejaVuSerif-2e" transform="translate(127.246094 0)"/>
       <use xlink:href="#DejaVuSerif-30" transform="translate(159.033203 0)"/>
      </g>
     </g>
    </g>
    <g id="xtick_6">
     <g id="line2d_11">
      <path d="M 220.524588 167.04 
L 220.524588 0.72 
" clip-path="url(#pd2e7e07619)" style="fill: none; stroke-dasharray: 2.96,1.28; stroke-dashoffset: 0; stroke: #b0b0b0; stroke-opacity: 0.5; stroke-width: 0.8"/>
     </g>
     <g id="line2d_12">
      <g>
       <use xlink:href="#m4072f6fc5f" x="220.524588" y="167.04" style="stroke: #000000; stroke-width: 0.8"/>
      </g>
     </g>
     <g id="text_6">
      <!-- 12.5 -->
      <g transform="translate(209.391775 181.638438) scale(0.1 -0.1)">
       <use xlink:href="#DejaVuSerif-31"/>
       <use xlink:href="#DejaVuSerif-32" transform="translate(63.623047 0)"/>
       <use xlink:href="#DejaVuSerif-2e" transform="translate(127.246094 0)"/>
       <use xlink:href="#DejaVuSerif-35" transform="translate(159.033203 0)"/>
      </g>
     </g>
    </g>
    <g id="xtick_7">
     <g id="line2d_13">
      <path d="M 254.799772 167.04 
L 254.799772 0.72 
" clip-path="url(#pd2e7e07619)" style="fill: none; stroke-dasharray: 2.96,1.28; stroke-dashoffset: 0; stroke: #b0b0b0; stroke-opacity: 0.5; stroke-width: 0.8"/>
     </g>
     <g id="line2d_14">
      <g>
       <use xlink:href="#m4072f6fc5f" x="254.799772" y="167.04" style="stroke: #000000; stroke-width: 0.8"/>
      </g>
     </g>
     <g id="text_7">
      <!-- 15.0 -->
      <g transform="translate(243.666959 181.638438) scale(0.1 -0.1)">
       <use xlink:href="#DejaVuSerif-31"/>
       <use xlink:href="#DejaVuSerif-35" transform="translate(63.623047 0)"/>
       <use xlink:href="#DejaVuSerif-2e" transform="translate(127.246094 0)"/>
       <use xlink:href="#DejaVuSerif-30" transform="translate(159.033203 0)"/>
      </g>
     </g>
    </g>
    <g id="text_8">
     <!-- Mean SKR demand $\bar{K}$ (kbps) -->
     <g transform="translate(79.690313 197.018125) scale(0.1 -0.1)">
      <defs>
       <path id="DejaVuSerif-4d" d="M 353 0 
L 353 331 
L 947 331 
L 947 4331 
L 319 4331 
L 319 4666 
L 1678 4666 
L 3316 1344 
L 4953 4666 
L 6228 4666 
L 6228 4331 
L 5606 4331 
L 5606 331 
L 6203 331 
L 6203 0 
L 4378 0 
L 4378 331 
L 4972 331 
L 4972 3938 
L 3372 684 
L 2931 684 
L 1331 3938 
L 1331 331 
L 1925 331 
L 1925 0 
L 353 0 
z
" transform="scale(0.015625)"/>
       <path id="DejaVuSerif-65" d="M 3469 1600 
L 991 1600 
L 991 1575 
Q 991 903 1244 561 
Q 1497 219 1991 219 
Q 2369 219 2611 417 
Q 2853 616 2950 1006 
L 3413 1006 
Q 3275 459 2904 184 
Q 2534 -91 1931 -91 
Q 1203 -91 761 389 
Q 319 869 319 1663 
Q 319 2450 753 2931 
Q 1188 3413 1894 3413 
Q 2647 3413 3050 2948 
Q 3453 2484 3469 1600 
z
M 2791 1931 
Q 2772 2513 2545 2808 
Q 2319 3103 1894 3103 
Q 1497 3103 1269 2806 
Q 1041 2509 991 1931 
L 2791 1931 
z
" transform="scale(0.015625)"/>
       <path id="DejaVuSerif-61" d="M 2547 1044 
L 2547 1747 
L 1806 1747 
Q 1378 1747 1168 1562 
Q 959 1378 959 997 
Q 959 650 1171 447 
Q 1384 244 1747 244 
Q 2106 244 2326 466 
Q 2547 688 2547 1044 
z
M 3122 2075 
L 3122 331 
L 3634 331 
L 3634 0 
L 2547 0 
L 2547 359 
Q 2356 128 2106 18 
Q 1856 -91 1522 -91 
Q 969 -91 644 203 
Q 319 497 319 997 
Q 319 1513 691 1797 
Q 1063 2081 1741 2081 
L 2547 2081 
L 2547 2309 
Q 2547 2688 2317 2895 
Q 2088 3103 1672 3103 
Q 1328 3103 1125 2947 
Q 922 2791 872 2484 
L 575 2484 
L 575 3156 
Q 875 3284 1158 3348 
Q 1441 3413 1709 3413 
Q 2400 3413 2761 3070 
Q 3122 2728 3122 2075 
z
" transform="scale(0.015625)"/>
       <path id="DejaVuSerif-6e" d="M 263 0 
L 263 331 
L 781 331 
L 781 2988 
L 231 2988 
L 231 3322 
L 1356 3322 
L 1356 2731 
Q 1516 3069 1770 3241 
Q 2025 3413 2363 3413 
Q 2913 3413 3172 3097 
Q 3431 2781 3431 2113 
L 3431 331 
L 3944 331 
L 3944 0 
L 2356 0 
L 2356 331 
L 2853 331 
L 2853 1931 
Q 2853 2541 2703 2767 
Q 2553 2994 2175 2994 
Q 1775 2994 1565 2701 
Q 1356 2409 1356 1850 
L 1356 331 
L 1856 331 
L 1856 0 
L 263 0 
z
" transform="scale(0.015625)"/>
       <path id="DejaVuSerif-20" transform="scale(0.015625)"/>
       <path id="DejaVuSerif-53" d="M 594 225 
L 594 1288 
L 953 1284 
Q 969 753 1261 498 
Q 1553 244 2150 244 
Q 2706 244 2998 464 
Q 3291 684 3291 1106 
Q 3291 1444 3114 1625 
Q 2938 1806 2369 1978 
L 1753 2163 
Q 1084 2366 811 2669 
Q 538 2972 538 3500 
Q 538 4094 959 4422 
Q 1381 4750 2144 4750 
Q 2469 4750 2856 4679 
Q 3244 4609 3681 4475 
L 3681 3481 
L 3328 3481 
Q 3275 3975 2998 4195 
Q 2722 4416 2156 4416 
Q 1663 4416 1405 4214 
Q 1147 4013 1147 3628 
Q 1147 3294 1340 3103 
Q 1534 2913 2163 2725 
L 2741 2553 
Q 3375 2363 3645 2067 
Q 3916 1772 3916 1275 
Q 3916 597 3481 253 
Q 3047 -91 2188 -91 
Q 1803 -91 1404 -12 
Q 1006 66 594 225 
z
" transform="scale(0.015625)"/>
       <path id="DejaVuSerif-4b" d="M 353 0 
L 353 331 
L 947 331 
L 947 4331 
L 353 4331 
L 353 4666 
L 2175 4666 
L 2175 4331 
L 1581 4331 
L 1581 2566 
L 3591 4331 
L 3084 4331 
L 3084 4666 
L 4634 4666 
L 4634 4331 
L 4109 4331 
L 2106 2572 
L 4347 331 
L 4878 331 
L 4878 0 
L 3794 0 
L 1581 2216 
L 1581 331 
L 2175 331 
L 2175 0 
L 353 0 
z
" transform="scale(0.015625)"/>
       <path id="DejaVuSerif-52" d="M 3066 2316 
Q 3284 2256 3442 2114 
Q 3600 1972 3725 1716 
L 4403 331 
L 4972 331 
L 4972 0 
L 3872 0 
L 3144 1484 
Q 2934 1916 2759 2042 
Q 2584 2169 2278 2169 
L 1581 2169 
L 1581 331 
L 2241 331 
L 2241 0 
L 353 0 
L 353 331 
L 947 331 
L 947 4331 
L 353 4331 
L 353 4666 
L 2719 4666 
Q 3400 4666 3770 4341 
Q 4141 4016 4141 3419 
Q 4141 2938 3870 2661 
Q 3600 2384 3066 2316 
z
M 1581 2503 
L 2503 2503 
Q 2975 2503 3200 2726 
Q 3425 2950 3425 3419 
Q 3425 3888 3200 4109 
Q 2975 4331 2503 4331 
L 1581 4331 
L 1581 2503 
z
" transform="scale(0.015625)"/>
       <path id="DejaVuSerif-64" d="M 3359 331 
L 3909 331 
L 3909 0 
L 2784 0 
L 2784 519 
Q 2616 206 2355 57 
Q 2094 -91 1709 -91 
Q 1097 -91 708 395 
Q 319 881 319 1663 
Q 319 2444 706 2928 
Q 1094 3413 1709 3413 
Q 2094 3413 2355 3264 
Q 2616 3116 2784 2803 
L 2784 4531 
L 2241 4531 
L 2241 4863 
L 3359 4863 
L 3359 331 
z
M 2784 1497 
L 2784 1825 
Q 2784 2422 2554 2737 
Q 2325 3053 1888 3053 
Q 1444 3053 1217 2703 
Q 991 2353 991 1663 
Q 991 975 1217 622 
Q 1444 269 1888 269 
Q 2325 269 2554 583 
Q 2784 897 2784 1497 
z
" transform="scale(0.015625)"/>
       <path id="DejaVuSerif-6d" d="M 3316 2675 
Q 3481 3041 3739 3227 
Q 3997 3413 4341 3413 
Q 4863 3413 5119 3089 
Q 5375 2766 5375 2113 
L 5375 331 
L 5894 331 
L 5894 0 
L 4300 0 
L 4300 331 
L 4800 331 
L 4800 2047 
Q 4800 2556 4650 2772 
Q 4500 2988 4153 2988 
Q 3769 2988 3567 2697 
Q 3366 2406 3366 1850 
L 3366 331 
L 3866 331 
L 3866 0 
L 2291 0 
L 2291 331 
L 2791 331 
L 2791 2069 
Q 2791 2566 2641 2777 
Q 2491 2988 2144 2988 
Q 1759 2988 1557 2697 
Q 1356 2406 1356 1850 
L 1356 331 
L 1856 331 
L 1856 0 
L 263 0 
L 263 331 
L 781 331 
L 781 2994 
L 231 2994 
L 231 3322 
L 1356 3322 
L 1356 2731 
Q 1516 3063 1762 3238 
Q 2009 3413 2322 3413 
Q 2709 3413 2968 3220 
Q 3228 3028 3316 2675 
z
" transform="scale(0.015625)"/>
       <path id="DejaVuSans-304" d="M -2518 4769 
L -650 4769 
L -650 4306 
L -2518 4306 
L -2518 4769 
z
" transform="scale(0.015625)"/>
       <path id="DejaVuSans-Oblique-4b" d="M 1081 4666 
L 1716 4666 
L 1331 2700 
L 3781 4666 
L 4622 4666 
L 1850 2438 
L 3878 0 
L 3109 0 
L 1247 2272 
L 806 0 
L 172 0 
L 1081 4666 
z
" transform="scale(0.015625)"/>
       <path id="DejaVuSerif-28" d="M 2041 -997 
Q 1281 -656 893 83 
Q 506 822 506 1931 
Q 506 3044 893 3783 
Q 1281 4522 2041 4863 
L 2041 4556 
Q 1559 4225 1350 3623 
Q 1141 3022 1141 1931 
Q 1141 844 1350 242 
Q 1559 -359 2041 -691 
L 2041 -997 
z
" transform="scale(0.015625)"/>
       <path id="DejaVuSerif-6b" d="M 1831 0 
L 219 0 
L 219 331 
L 738 331 
L 738 4531 
L 184 4531 
L 184 4863 
L 1313 4863 
L 1313 1697 
L 2713 2988 
L 2234 2988 
L 2234 3322 
L 3738 3322 
L 3738 2988 
L 3169 2988 
L 2181 2075 
L 3444 331 
L 3922 331 
L 3922 0 
L 2284 0 
L 2284 331 
L 2759 331 
L 1766 1697 
L 1313 1275 
L 1313 331 
L 1831 331 
L 1831 0 
z
" transform="scale(0.015625)"/>
       <path id="DejaVuSerif-62" d="M 738 331 
L 738 4531 
L 184 4531 
L 184 4863 
L 1313 4863 
L 1313 2803 
Q 1481 3116 1742 3264 
Q 2003 3413 2388 3413 
Q 3000 3413 3387 2928 
Q 3775 2444 3775 1663 
Q 3775 881 3387 395 
Q 3000 -91 2388 -91 
Q 2003 -91 1742 57 
Q 1481 206 1313 519 
L 1313 0 
L 184 0 
L 184 331 
L 738 331 
z
M 1313 1497 
Q 1313 897 1542 583 
Q 1772 269 2209 269 
Q 2650 269 2876 622 
Q 3103 975 3103 1663 
Q 3103 2353 2876 2703 
Q 2650 3053 2209 3053 
Q 1772 3053 1542 2737 
Q 1313 2422 1313 1825 
L 1313 1497 
z
" transform="scale(0.015625)"/>
       <path id="DejaVuSerif-70" d="M 1313 1825 
L 1313 1497 
Q 1313 897 1542 583 
Q 1772 269 2209 269 
Q 2650 269 2876 622 
Q 3103 975 3103 1663 
Q 3103 2353 2876 2703 
Q 2650 3053 2209 3053 
Q 1772 3053 1542 2737 
Q 1313 2422 1313 1825 
z
M 738 2988 
L 184 2988 
L 184 3322 
L 1313 3322 
L 1313 2803 
Q 1481 3116 1742 3264 
Q 2003 3413 2388 3413 
Q 3000 3413 3387 2928 
Q 3775 2444 3775 1663 
Q 3775 881 3387 395 
Q 3000 -91 2388 -91 
Q 2003 -91 1742 57 
Q 1481 206 1313 519 
L 1313 -997 
L 1856 -997 
L 1856 -1331 
L 184 -1331 
L 184 -997 
L 738 -997 
L 738 2988 
z
" transform="scale(0.015625)"/>
       <path id="DejaVuSerif-73" d="M 359 184 
L 359 959 
L 691 959 
Q 703 588 923 403 
Q 1144 219 1575 219 
Q 1963 219 2166 364 
Q 2369 509 2369 788 
Q 2369 1006 2220 1140 
Q 2072 1275 1594 1428 
L 1178 1569 
Q 750 1706 558 1912 
Q 366 2119 366 2438 
Q 366 2894 700 3153 
Q 1034 3413 1625 3413 
Q 1888 3413 2178 3344 
Q 2469 3275 2778 3144 
L 2778 2419 
L 2447 2419 
Q 2434 2741 2221 2922 
Q 2009 3103 1644 3103 
Q 1281 3103 1095 2975 
Q 909 2847 909 2591 
Q 909 2381 1050 2254 
Q 1191 2128 1613 1997 
L 2069 1856 
Q 2541 1709 2748 1489 
Q 2956 1269 2956 922 
Q 2956 450 2595 179 
Q 2234 -91 1600 -91 
Q 1278 -91 972 -22 
Q 666 47 359 184 
z
" transform="scale(0.015625)"/>
       <path id="DejaVuSerif-29" d="M 453 -997 
L 453 -691 
Q 934 -359 1145 242 
Q 1356 844 1356 1931 
Q 1356 3022 1145 3623 
Q 934 4225 453 4556 
L 453 4863 
Q 1216 4522 1603 3783 
Q 1991 3044 1991 1931 
Q 1991 822 1603 83 
Q 1216 -656 453 -997 
z
" transform="scale(0.015625)"/>
      </defs>
      <use xlink:href="#DejaVuSerif-4d" transform="translate(0 0.359375)"/>
      <use xlink:href="#DejaVuSerif-65" transform="translate(102.392578 0.359375)"/>
      <use xlink:href="#DejaVuSerif-61" transform="translate(161.572266 0.359375)"/>
      <use xlink:href="#DejaVuSerif-6e" transform="translate(221.191406 0.359375)"/>
      <use xlink:href="#DejaVuSerif-20" transform="translate(285.595703 0.359375)"/>
      <use xlink:href="#DejaVuSerif-53" transform="translate(317.382812 0.359375)"/>
      <use xlink:href="#DejaVuSerif-4b" transform="translate(385.888672 0.359375)"/>
      <use xlink:href="#DejaVuSerif-52" transform="translate(460.595703 0.359375)"/>
      <use xlink:href="#DejaVuSerif-20" transform="translate(535.888672 0.359375)"/>
      <use xlink:href="#DejaVuSerif-64" transform="translate(567.675781 0.359375)"/>
      <use xlink:href="#DejaVuSerif-65" transform="translate(631.689453 0.359375)"/>
      <use xlink:href="#DejaVuSerif-6d" transform="translate(690.869141 0.359375)"/>
      <use xlink:href="#DejaVuSerif-61" transform="translate(785.693359 0.359375)"/>
      <use xlink:href="#DejaVuSerif-6e" transform="translate(845.3125 0.359375)"/>
      <use xlink:href="#DejaVuSerif-64" transform="translate(909.716797 0.359375)"/>
      <use xlink:href="#DejaVuSerif-20" transform="translate(973.730469 0.359375)"/>
      <use xlink:href="#DejaVuSans-304" transform="translate(1071.255371 18.484375)"/>
      <use xlink:href="#DejaVuSans-Oblique-4b" transform="translate(1005.517578 0.359375)"/>
      <use xlink:href="#DejaVuSerif-20" transform="translate(1071.09375 0.359375)"/>
      <use xlink:href="#DejaVuSerif-28" transform="translate(1102.880859 0.359375)"/>
      <use xlink:href="#DejaVuSerif-6b" transform="translate(1141.894531 0.359375)"/>
      <use xlink:href="#DejaVuSerif-62" transform="translate(1202.490234 0.359375)"/>
      <use xlink:href="#DejaVuSerif-70" transform="translate(1266.503906 0.359375)"/>
      <use xlink:href="#DejaVuSerif-73" transform="translate(1330.517578 0.359375)"/>
      <use xlink:href="#DejaVuSerif-29" transform="translate(1381.835938 0.359375)"/>
     </g>
    </g>
   </g>
   <g id="matplotlib.axis_2">
    <g id="ytick_1">
     <g id="line2d_15">
      <path d="M 39.140313 156.492764 
L 262.340312 156.492764 
" clip-path="url(#pd2e7e07619)" style="fill: none; stroke-dasharray: 2.96,1.28; stroke-dashoffset: 0; stroke: #b0b0b0; stroke-opacity: 0.5; stroke-width: 0.8"/>
     </g>
     <g id="line2d_16">
      <defs>
       <path id="m265cbd5d53" d="M 0 0 
L -3.5 0 
" style="stroke: #000000; stroke-width: 0.8"/>
      </defs>
      <g>
       <use xlink:href="#m265cbd5d53" x="39.140313" y="156.492764" style="stroke: #000000; stroke-width: 0.8"/>
      </g>
     </g>
     <g id="text_9">
      <!-- $\mathdefault{10^{0}}$ -->
      <g transform="translate(14.540313 160.291983) scale(0.1 -0.1)">
       <use xlink:href="#DejaVuSerif-31" transform="translate(0 0.7125)"/>
       <use xlink:href="#DejaVuSerif-30" transform="translate(63.623047 0.7125)"/>
       <use xlink:href="#DejaVuSerif-30" transform="translate(128.154453 37.046875) scale(0.7)"/>
      </g>
     </g>
    </g>
    <g id="ytick_2">
     <g id="line2d_17">
      <path d="M 39.140313 110.255669 
L 262.340312 110.255669 
" clip-path="url(#pd2e7e07619)" style="fill: none; stroke-dasharray: 2.96,1.28; stroke-dashoffset: 0; stroke: #b0b0b0; stroke-opacity: 0.5; stroke-width: 0.8"/>
     </g>
     <g id="line2d_18">
      <g>
       <use xlink:href="#m265cbd5d53" x="39.140313" y="110.255669" style="stroke: #000000; stroke-width: 0.8"/>
      </g>
     </g>
     <g id="text_10">
      <!-- $\mathdefault{10^{1}}$ -->
      <g transform="translate(14.540313 114.054887) scale(0.1 -0.1)">
       <use xlink:href="#DejaVuSerif-31" transform="translate(0 0.7125)"/>
       <use xlink:href="#DejaVuSerif-30" transform="translate(63.623047 0.7125)"/>
       <use xlink:href="#DejaVuSerif-31" transform="translate(128.154453 37.046875) scale(0.7)"/>
      </g>
     </g>
    </g>
    <g id="ytick_3">
     <g id="line2d_19">
      <path d="M 39.140313 64.018574 
L 262.340312 64.018574 
" clip-path="url(#pd2e7e07619)" style="fill: none; stroke-dasharray: 2.96,1.28; stroke-dashoffset: 0; stroke: #b0b0b0; stroke-opacity: 0.5; stroke-width: 0.8"/>
     </g>
     <g id="line2d_20">
      <g>
       <use xlink:href="#m265cbd5d53" x="39.140313" y="64.018574" style="stroke: #000000; stroke-width: 0.8"/>
      </g>
     </g>
     <g id="text_11">
      <!-- $\mathdefault{10^{2}}$ -->
      <g transform="translate(14.540313 67.817792) scale(0.1 -0.1)">
       <use xlink:href="#DejaVuSerif-31" transform="translate(0 0.7125)"/>
       <use xlink:href="#DejaVuSerif-30" transform="translate(63.623047 0.7125)"/>
       <use xlink:href="#DejaVuSerif-32" transform="translate(128.154453 37.046875) scale(0.7)"/>
      </g>
     </g>
    </g>
    <g id="ytick_4">
     <g id="line2d_21">
      <path d="M 39.140313 17.781478 
L 262.340312 17.781478 
" clip-path="url(#pd2e7e07619)" style="fill: none; stroke-dasharray: 2.96,1.28; stroke-dashoffset: 0; stroke: #b0b0b0; stroke-opacity: 0.5; stroke-width: 0.8"/>
     </g>
     <g id="line2d_22">
      <g>
       <use xlink:href="#m265cbd5d53" x="39.140313" y="17.781478" style="stroke: #000000; stroke-width: 0.8"/>
      </g>
     </g>
     <g id="text_12">
      <!-- $\mathdefault{10^{3}}$ -->
      <g transform="translate(14.540313 21.580697) scale(0.1 -0.1)">
       <defs>
        <path id="DejaVuSerif-33" d="M 622 4469 
Q 988 4606 1323 4678 
Q 1659 4750 1953 4750 
Q 2638 4750 3022 4454 
Q 3406 4159 3406 3634 
Q 3406 3213 3140 2930 
Q 2875 2647 2388 2547 
Q 2963 2466 3280 2130 
Q 3597 1794 3597 1259 
Q 3597 606 3158 257 
Q 2719 -91 1894 -91 
Q 1528 -91 1179 -12 
Q 831 66 488 225 
L 488 1131 
L 838 1131 
Q 869 681 1141 450 
Q 1413 219 1906 219 
Q 2384 219 2661 495 
Q 2938 772 2938 1253 
Q 2938 1803 2653 2086 
Q 2369 2369 1819 2369 
L 1522 2369 
L 1522 2688 
L 1678 2688 
Q 2225 2688 2498 2914 
Q 2772 3141 2772 3597 
Q 2772 4006 2547 4223 
Q 2322 4441 1900 4441 
Q 1478 4441 1245 4241 
Q 1013 4041 972 3647 
L 622 3647 
L 622 4469 
z
" transform="scale(0.015625)"/>
       </defs>
       <use xlink:href="#DejaVuSerif-31" transform="translate(0 0.7125)"/>
       <use xlink:href="#DejaVuSerif-30" transform="translate(63.623047 0.7125)"/>
       <use xlink:href="#DejaVuSerif-33" transform="translate(128.154453 37.046875) scale(0.7)"/>
      </g>
     </g>
    </g>
    <g id="ytick_5">
     <g id="line2d_23">
      <path d="M 39.140313 166.750406 
L 262.340312 166.750406 
" clip-path="url(#pd2e7e07619)" style="fill: none; stroke-dasharray: 2.96,1.28; stroke-dashoffset: 0; stroke: #b0b0b0; stroke-opacity: 0.5; stroke-width: 0.8"/>
     </g>
     <g id="line2d_24">
      <defs>
       <path id="m43ab413379" d="M 0 0 
L -2 0 
" style="stroke: #000000; stroke-width: 0.6"/>
      </defs>
      <g>
       <use xlink:href="#m43ab413379" x="39.140313" y="166.750406" style="stroke: #000000; stroke-width: 0.6"/>
      </g>
     </g>
    </g>
    <g id="ytick_6">
     <g id="line2d_25">
      <path d="M 39.140313 163.654981 
L 262.340312 163.654981 
" clip-path="url(#pd2e7e07619)" style="fill: none; stroke-dasharray: 2.96,1.28; stroke-dashoffset: 0; stroke: #b0b0b0; stroke-opacity: 0.5; stroke-width: 0.8"/>
     </g>
     <g id="line2d_26">
      <g>
       <use xlink:href="#m43ab413379" x="39.140313" y="163.654981" style="stroke: #000000; stroke-width: 0.6"/>
      </g>
     </g>
    </g>
    <g id="ytick_7">
     <g id="line2d_27">
      <path d="M 39.140313 160.973601 
L 262.340312 160.973601 
" clip-path="url(#pd2e7e07619)" style="fill: none; stroke-dasharray: 2.96,1.28; stroke-dashoffset: 0; stroke: #b0b0b0; stroke-opacity: 0.5; stroke-width: 0.8"/>
     </g>
     <g id="line2d_28">
      <g>
       <use xlink:href="#m43ab413379" x="39.140313" y="160.973601" style="stroke: #000000; stroke-width: 0.6"/>
      </g>
     </g>
    </g>
    <g id="ytick_8">
     <g id="line2d_29">
      <path d="M 39.140313 158.608457 
L 262.340312 158.608457 
" clip-path="url(#pd2e7e07619)" style="fill: none; stroke-dasharray: 2.96,1.28; stroke-dashoffset: 0; stroke: #b0b0b0; stroke-opacity: 0.5; stroke-width: 0.8"/>
     </g>
     <g id="line2d_30">
      <g>
       <use xlink:href="#m43ab413379" x="39.140313" y="158.608457" style="stroke: #000000; stroke-width: 0.6"/>
      </g>
     </g>
    </g>
    <g id="ytick_9">
     <g id="line2d_31">
      <path d="M 39.140313 142.574011 
L 262.340312 142.574011 
" clip-path="url(#pd2e7e07619)" style="fill: none; stroke-dasharray: 2.96,1.28; stroke-dashoffset: 0; stroke: #b0b0b0; stroke-opacity: 0.5; stroke-width: 0.8"/>
     </g>
     <g id="line2d_32">
      <g>
       <use xlink:href="#m43ab413379" x="39.140313" y="142.574011" style="stroke: #000000; stroke-width: 0.6"/>
      </g>
     </g>
    </g>
    <g id="ytick_10">
     <g id="line2d_33">
      <path d="M 39.140313 134.432063 
L 262.340312 134.432063 
" clip-path="url(#pd2e7e07619)" style="fill: none; stroke-dasharray: 2.96,1.28; stroke-dashoffset: 0; stroke: #b0b0b0; stroke-opacity: 0.5; stroke-width: 0.8"/>
     </g>
     <g id="line2d_34">
      <g>
       <use xlink:href="#m43ab413379" x="39.140313" y="134.432063" style="stroke: #000000; stroke-width: 0.6"/>
      </g>
     </g>
    </g>
    <g id="ytick_11">
     <g id="line2d_35">
      <path d="M 39.140313 128.655259 
L 262.340312 128.655259 
" clip-path="url(#pd2e7e07619)" style="fill: none; stroke-dasharray: 2.96,1.28; stroke-dashoffset: 0; stroke: #b0b0b0; stroke-opacity: 0.5; stroke-width: 0.8"/>
     </g>
     <g id="line2d_36">
      <g>
       <use xlink:href="#m43ab413379" x="39.140313" y="128.655259" style="stroke: #000000; stroke-width: 0.6"/>
      </g>
     </g>
    </g>
    <g id="ytick_12">
     <g id="line2d_37">
      <path d="M 39.140313 124.174421 
L 262.340312 124.174421 
" clip-path="url(#pd2e7e07619)" style="fill: none; stroke-dasharray: 2.96,1.28; stroke-dashoffset: 0; stroke: #b0b0b0; stroke-opacity: 0.5; stroke-width: 0.8"/>
     </g>
     <g id="line2d_38">
      <g>
       <use xlink:href="#m43ab413379" x="39.140313" y="124.174421" style="stroke: #000000; stroke-width: 0.6"/>
      </g>
     </g>
    </g>
    <g id="ytick_13">
     <g id="line2d_39">
      <path d="M 39.140313 120.51331 
L 262.340312 120.51331 
" clip-path="url(#pd2e7e07619)" style="fill: none; stroke-dasharray: 2.96,1.28; stroke-dashoffset: 0; stroke: #b0b0b0; stroke-opacity: 0.5; stroke-width: 0.8"/>
     </g>
     <g id="line2d_40">
      <g>
       <use xlink:href="#m43ab413379" x="39.140313" y="120.51331" style="stroke: #000000; stroke-width: 0.6"/>
      </g>
     </g>
    </g>
    <g id="ytick_14">
     <g id="line2d_41">
      <path d="M 39.140313 117.417885 
L 262.340312 117.417885 
" clip-path="url(#pd2e7e07619)" style="fill: none; stroke-dasharray: 2.96,1.28; stroke-dashoffset: 0; stroke: #b0b0b0; stroke-opacity: 0.5; stroke-width: 0.8"/>
     </g>
     <g id="line2d_42">
      <g>
       <use xlink:href="#m43ab413379" x="39.140313" y="117.417885" style="stroke: #000000; stroke-width: 0.6"/>
      </g>
     </g>
    </g>
    <g id="ytick_15">
     <g id="line2d_43">
      <path d="M 39.140313 114.736506 
L 262.340312 114.736506 
" clip-path="url(#pd2e7e07619)" style="fill: none; stroke-dasharray: 2.96,1.28; stroke-dashoffset: 0; stroke: #b0b0b0; stroke-opacity: 0.5; stroke-width: 0.8"/>
     </g>
     <g id="line2d_44">
      <g>
       <use xlink:href="#m43ab413379" x="39.140313" y="114.736506" style="stroke: #000000; stroke-width: 0.6"/>
      </g>
     </g>
    </g>
    <g id="ytick_16">
     <g id="line2d_45">
      <path d="M 39.140313 112.371362 
L 262.340312 112.371362 
" clip-path="url(#pd2e7e07619)" style="fill: none; stroke-dasharray: 2.96,1.28; stroke-dashoffset: 0; stroke: #b0b0b0; stroke-opacity: 0.5; stroke-width: 0.8"/>
     </g>
     <g id="line2d_46">
      <g>
       <use xlink:href="#m43ab413379" x="39.140313" y="112.371362" style="stroke: #000000; stroke-width: 0.6"/>
      </g>
     </g>
    </g>
    <g id="ytick_17">
     <g id="line2d_47">
      <path d="M 39.140313 96.336916 
L 262.340312 96.336916 
" clip-path="url(#pd2e7e07619)" style="fill: none; stroke-dasharray: 2.96,1.28; stroke-dashoffset: 0; stroke: #b0b0b0; stroke-opacity: 0.5; stroke-width: 0.8"/>
     </g>
     <g id="line2d_48">
      <g>
       <use xlink:href="#m43ab413379" x="39.140313" y="96.336916" style="stroke: #000000; stroke-width: 0.6"/>
      </g>
     </g>
    </g>
    <g id="ytick_18">
     <g id="line2d_49">
      <path d="M 39.140313 88.194968 
L 262.340312 88.194968 
" clip-path="url(#pd2e7e07619)" style="fill: none; stroke-dasharray: 2.96,1.28; stroke-dashoffset: 0; stroke: #b0b0b0; stroke-opacity: 0.5; stroke-width: 0.8"/>
     </g>
     <g id="line2d_50">
      <g>
       <use xlink:href="#m43ab413379" x="39.140313" y="88.194968" style="stroke: #000000; stroke-width: 0.6"/>
      </g>
     </g>
    </g>
    <g id="ytick_19">
     <g id="line2d_51">
      <path d="M 39.140313 82.418164 
L 262.340312 82.418164 
" clip-path="url(#pd2e7e07619)" style="fill: none; stroke-dasharray: 2.96,1.28; stroke-dashoffset: 0; stroke: #b0b0b0; stroke-opacity: 0.5; stroke-width: 0.8"/>
     </g>
     <g id="line2d_52">
      <g>
       <use xlink:href="#m43ab413379" x="39.140313" y="82.418164" style="stroke: #000000; stroke-width: 0.6"/>
      </g>
     </g>
    </g>
    <g id="ytick_20">
     <g id="line2d_53">
      <path d="M 39.140313 77.937326 
L 262.340312 77.937326 
" clip-path="url(#pd2e7e07619)" style="fill: none; stroke-dasharray: 2.96,1.28; stroke-dashoffset: 0; stroke: #b0b0b0; stroke-opacity: 0.5; stroke-width: 0.8"/>
     </g>
     <g id="line2d_54">
      <g>
       <use xlink:href="#m43ab413379" x="39.140313" y="77.937326" style="stroke: #000000; stroke-width: 0.6"/>
      </g>
     </g>
    </g>
    <g id="ytick_21">
     <g id="line2d_55">
      <path d="M 39.140313 74.276215 
L 262.340312 74.276215 
" clip-path="url(#pd2e7e07619)" style="fill: none; stroke-dasharray: 2.96,1.28; stroke-dashoffset: 0; stroke: #b0b0b0; stroke-opacity: 0.5; stroke-width: 0.8"/>
     </g>
     <g id="line2d_56">
      <g>
       <use xlink:href="#m43ab413379" x="39.140313" y="74.276215" style="stroke: #000000; stroke-width: 0.6"/>
      </g>
     </g>
    </g>
    <g id="ytick_22">
     <g id="line2d_57">
      <path d="M 39.140313 71.18079 
L 262.340312 71.18079 
" clip-path="url(#pd2e7e07619)" style="fill: none; stroke-dasharray: 2.96,1.28; stroke-dashoffset: 0; stroke: #b0b0b0; stroke-opacity: 0.5; stroke-width: 0.8"/>
     </g>
     <g id="line2d_58">
      <g>
       <use xlink:href="#m43ab413379" x="39.140313" y="71.18079" style="stroke: #000000; stroke-width: 0.6"/>
      </g>
     </g>
    </g>
    <g id="ytick_23">
     <g id="line2d_59">
      <path d="M 39.140313 68.499411 
L 262.340312 68.499411 
" clip-path="url(#pd2e7e07619)" style="fill: none; stroke-dasharray: 2.96,1.28; stroke-dashoffset: 0; stroke: #b0b0b0; stroke-opacity: 0.5; stroke-width: 0.8"/>
     </g>
     <g id="line2d_60">
      <g>
       <use xlink:href="#m43ab413379" x="39.140313" y="68.499411" style="stroke: #000000; stroke-width: 0.6"/>
      </g>
     </g>
    </g>
    <g id="ytick_24">
     <g id="line2d_61">
      <path d="M 39.140313 66.134267 
L 262.340312 66.134267 
" clip-path="url(#pd2e7e07619)" style="fill: none; stroke-dasharray: 2.96,1.28; stroke-dashoffset: 0; stroke: #b0b0b0; stroke-opacity: 0.5; stroke-width: 0.8"/>
     </g>
     <g id="line2d_62">
      <g>
       <use xlink:href="#m43ab413379" x="39.140313" y="66.134267" style="stroke: #000000; stroke-width: 0.6"/>
      </g>
     </g>
    </g>
    <g id="ytick_25">
     <g id="line2d_63">
      <path d="M 39.140313 50.099821 
L 262.340312 50.099821 
" clip-path="url(#pd2e7e07619)" style="fill: none; stroke-dasharray: 2.96,1.28; stroke-dashoffset: 0; stroke: #b0b0b0; stroke-opacity: 0.5; stroke-width: 0.8"/>
     </g>
     <g id="line2d_64">
      <g>
       <use xlink:href="#m43ab413379" x="39.140313" y="50.099821" style="stroke: #000000; stroke-width: 0.6"/>
      </g>
     </g>
    </g>
    <g id="ytick_26">
     <g id="line2d_65">
      <path d="M 39.140313 41.957873 
L 262.340312 41.957873 
" clip-path="url(#pd2e7e07619)" style="fill: none; stroke-dasharray: 2.96,1.28; stroke-dashoffset: 0; stroke: #b0b0b0; stroke-opacity: 0.5; stroke-width: 0.8"/>
     </g>
     <g id="line2d_66">
      <g>
       <use xlink:href="#m43ab413379" x="39.140313" y="41.957873" style="stroke: #000000; stroke-width: 0.6"/>
      </g>
     </g>
    </g>
    <g id="ytick_27">
     <g id="line2d_67">
      <path d="M 39.140313 36.181068 
L 262.340312 36.181068 
" clip-path="url(#pd2e7e07619)" style="fill: none; stroke-dasharray: 2.96,1.28; stroke-dashoffset: 0; stroke: #b0b0b0; stroke-opacity: 0.5; stroke-width: 0.8"/>
     </g>
     <g id="line2d_68">
      <g>
       <use xlink:href="#m43ab413379" x="39.140313" y="36.181068" style="stroke: #000000; stroke-width: 0.6"/>
      </g>
     </g>
    </g>
    <g id="ytick_28">
     <g id="line2d_69">
      <path d="M 39.140313 31.700231 
L 262.340312 31.700231 
" clip-path="url(#pd2e7e07619)" style="fill: none; stroke-dasharray: 2.96,1.28; stroke-dashoffset: 0; stroke: #b0b0b0; stroke-opacity: 0.5; stroke-width: 0.8"/>
     </g>
     <g id="line2d_70">
      <g>
       <use xlink:href="#m43ab413379" x="39.140313" y="31.700231" style="stroke: #000000; stroke-width: 0.6"/>
      </g>
     </g>
    </g>
    <g id="ytick_29">
     <g id="line2d_71">
      <path d="M 39.140313 28.03912 
L 262.340312 28.03912 
" clip-path="url(#pd2e7e07619)" style="fill: none; stroke-dasharray: 2.96,1.28; stroke-dashoffset: 0; stroke: #b0b0b0; stroke-opacity: 0.5; stroke-width: 0.8"/>
     </g>
     <g id="line2d_72">
      <g>
       <use xlink:href="#m43ab413379" x="39.140313" y="28.03912" style="stroke: #000000; stroke-width: 0.6"/>
      </g>
     </g>
    </g>
    <g id="ytick_30">
     <g id="line2d_73">
      <path d="M 39.140313 24.943695 
L 262.340312 24.943695 
" clip-path="url(#pd2e7e07619)" style="fill: none; stroke-dasharray: 2.96,1.28; stroke-dashoffset: 0; stroke: #b0b0b0; stroke-opacity: 0.5; stroke-width: 0.8"/>
     </g>
     <g id="line2d_74">
      <g>
       <use xlink:href="#m43ab413379" x="39.140313" y="24.943695" style="stroke: #000000; stroke-width: 0.6"/>
      </g>
     </g>
    </g>
    <g id="ytick_31">
     <g id="line2d_75">
      <path d="M 39.140313 22.262316 
L 262.340312 22.262316 
" clip-path="url(#pd2e7e07619)" style="fill: none; stroke-dasharray: 2.96,1.28; stroke-dashoffset: 0; stroke: #b0b0b0; stroke-opacity: 0.5; stroke-width: 0.8"/>
     </g>
     <g id="line2d_76">
      <g>
       <use xlink:href="#m43ab413379" x="39.140313" y="22.262316" style="stroke: #000000; stroke-width: 0.6"/>
      </g>
     </g>
    </g>
    <g id="ytick_32">
     <g id="line2d_77">
      <path d="M 39.140313 19.897172 
L 262.340312 19.897172 
" clip-path="url(#pd2e7e07619)" style="fill: none; stroke-dasharray: 2.96,1.28; stroke-dashoffset: 0; stroke: #b0b0b0; stroke-opacity: 0.5; stroke-width: 0.8"/>
     </g>
     <g id="line2d_78">
      <g>
       <use xlink:href="#m43ab413379" x="39.140313" y="19.897172" style="stroke: #000000; stroke-width: 0.6"/>
      </g>
     </g>
    </g>
    <g id="ytick_33">
     <g id="line2d_79">
      <path d="M 39.140313 3.862726 
L 262.340312 3.862726 
" clip-path="url(#pd2e7e07619)" style="fill: none; stroke-dasharray: 2.96,1.28; stroke-dashoffset: 0; stroke: #b0b0b0; stroke-opacity: 0.5; stroke-width: 0.8"/>
     </g>
     <g id="line2d_80">
      <g>
       <use xlink:href="#m43ab413379" x="39.140313" y="3.862726" style="stroke: #000000; stroke-width: 0.6"/>
      </g>
     </g>
    </g>
    <g id="text_13">
     <!-- Total Served Secret Key (Mb) -->
     <g transform="translate(8.318437 158.696406) rotate(-90) scale(0.1 -0.1)">
      <defs>
       <path id="DejaVuSerif-54" d="M 1222 0 
L 1222 331 
L 1819 331 
L 1819 4294 
L 447 4294 
L 447 3566 
L 63 3566 
L 63 4666 
L 4206 4666 
L 4206 3566 
L 3822 3566 
L 3822 4294 
L 2450 4294 
L 2450 331 
L 3047 331 
L 3047 0 
L 1222 0 
z
" transform="scale(0.015625)"/>
       <path id="DejaVuSerif-6f" d="M 1925 219 
Q 2388 219 2623 584 
Q 2859 950 2859 1663 
Q 2859 2375 2623 2739 
Q 2388 3103 1925 3103 
Q 1463 3103 1227 2739 
Q 991 2375 991 1663 
Q 991 950 1228 584 
Q 1466 219 1925 219 
z
M 1925 -91 
Q 1200 -91 759 389 
Q 319 869 319 1663 
Q 319 2456 758 2934 
Q 1197 3413 1925 3413 
Q 2653 3413 3092 2934 
Q 3531 2456 3531 1663 
Q 3531 869 3092 389 
Q 2653 -91 1925 -91 
z
" transform="scale(0.015625)"/>
       <path id="DejaVuSerif-74" d="M 691 2988 
L 184 2988 
L 184 3322 
L 691 3322 
L 691 4353 
L 1269 4353 
L 1269 3322 
L 2350 3322 
L 2350 2988 
L 1269 2988 
L 1269 878 
Q 1269 456 1350 337 
Q 1431 219 1650 219 
Q 1875 219 1978 351 
Q 2081 484 2088 781 
L 2522 781 
Q 2497 328 2275 118 
Q 2053 -91 1600 -91 
Q 1103 -91 897 129 
Q 691 350 691 878 
L 691 2988 
z
" transform="scale(0.015625)"/>
       <path id="DejaVuSerif-6c" d="M 1313 331 
L 1856 331 
L 1856 0 
L 184 0 
L 184 331 
L 738 331 
L 738 4531 
L 184 4531 
L 184 4863 
L 1313 4863 
L 1313 331 
z
" transform="scale(0.015625)"/>
       <path id="DejaVuSerif-72" d="M 3059 3328 
L 3059 2497 
L 2728 2497 
Q 2713 2744 2591 2866 
Q 2469 2988 2234 2988 
Q 1809 2988 1582 2694 
Q 1356 2400 1356 1850 
L 1356 331 
L 2022 331 
L 2022 0 
L 263 0 
L 263 331 
L 781 331 
L 781 2994 
L 231 2994 
L 231 3322 
L 1356 3322 
L 1356 2731 
Q 1525 3078 1790 3245 
Q 2056 3413 2438 3413 
Q 2578 3413 2733 3391 
Q 2888 3369 3059 3328 
z
" transform="scale(0.015625)"/>
       <path id="DejaVuSerif-76" d="M 1581 0 
L 359 2988 
L -19 2988 
L -19 3322 
L 1509 3322 
L 1509 2988 
L 978 2988 
L 1913 703 
L 2847 2988 
L 2350 2988 
L 2350 3322 
L 3597 3322 
L 3597 2988 
L 3225 2988 
L 2003 0 
L 1581 0 
z
" transform="scale(0.015625)"/>
       <path id="DejaVuSerif-63" d="M 3291 997 
Q 3169 466 2822 187 
Q 2475 -91 1925 -91 
Q 1200 -91 759 389 
Q 319 869 319 1663 
Q 319 2459 759 2936 
Q 1200 3413 1925 3413 
Q 2241 3413 2553 3339 
Q 2866 3266 3181 3116 
L 3181 2266 
L 2847 2266 
Q 2781 2703 2561 2903 
Q 2341 3103 1931 3103 
Q 1466 3103 1228 2742 
Q 991 2381 991 1663 
Q 991 944 1227 581 
Q 1463 219 1931 219 
Q 2303 219 2525 412 
Q 2747 606 2828 997 
L 3291 997 
z
" transform="scale(0.015625)"/>
       <path id="DejaVuSerif-79" d="M 1381 -609 
L 1600 -56 
L 359 2988 
L -19 2988 
L -19 3322 
L 1509 3322 
L 1509 2988 
L 978 2988 
L 1913 703 
L 2847 2988 
L 2350 2988 
L 2350 3322 
L 3597 3322 
L 3597 2988 
L 3225 2988 
L 1703 -750 
Q 1547 -1138 1356 -1280 
Q 1166 -1422 819 -1422 
Q 672 -1422 517 -1397 
Q 363 -1372 206 -1325 
L 206 -691 
L 500 -691 
Q 519 -903 608 -995 
Q 697 -1088 884 -1088 
Q 1056 -1088 1161 -992 
Q 1266 -897 1381 -609 
z
" transform="scale(0.015625)"/>
      </defs>
      <use xlink:href="#DejaVuSerif-54"/>
      <use xlink:href="#DejaVuSerif-6f" transform="translate(58.949219 0)"/>
      <use xlink:href="#DejaVuSerif-74" transform="translate(119.154297 0)"/>
      <use xlink:href="#DejaVuSerif-61" transform="translate(159.339844 0)"/>
      <use xlink:href="#DejaVuSerif-6c" transform="translate(218.958984 0)"/>
      <use xlink:href="#DejaVuSerif-20" transform="translate(250.941406 0)"/>
      <use xlink:href="#DejaVuSerif-53" transform="translate(282.728516 0)"/>
      <use xlink:href="#DejaVuSerif-65" transform="translate(351.234375 0)"/>
      <use xlink:href="#DejaVuSerif-72" transform="translate(410.414062 0)"/>
      <use xlink:href="#DejaVuSerif-76" transform="translate(458.216797 0)"/>
      <use xlink:href="#DejaVuSerif-65" transform="translate(514.710938 0)"/>
      <use xlink:href="#DejaVuSerif-64" transform="translate(573.890625 0)"/>
      <use xlink:href="#DejaVuSerif-20" transform="translate(637.904297 0)"/>
      <use xlink:href="#DejaVuSerif-53" transform="translate(669.691406 0)"/>
      <use xlink:href="#DejaVuSerif-65" transform="translate(738.197266 0)"/>
      <use xlink:href="#DejaVuSerif-63" transform="translate(797.376953 0)"/>
      <use xlink:href="#DejaVuSerif-72" transform="translate(853.382812 0)"/>
      <use xlink:href="#DejaVuSerif-65" transform="translate(901.185547 0)"/>
      <use xlink:href="#DejaVuSerif-74" transform="translate(960.365234 0)"/>
      <use xlink:href="#DejaVuSerif-20" transform="translate(1000.550781 0)"/>
      <use xlink:href="#DejaVuSerif-4b" transform="translate(1032.337891 0)"/>
      <use xlink:href="#DejaVuSerif-65" transform="translate(1104.419922 0)"/>
      <use xlink:href="#DejaVuSerif-79" transform="translate(1163.599609 0)"/>
      <use xlink:href="#DejaVuSerif-20" transform="translate(1220.09375 0)"/>
      <use xlink:href="#DejaVuSerif-28" transform="translate(1251.880859 0)"/>
      <use xlink:href="#DejaVuSerif-4d" transform="translate(1290.894531 0)"/>
      <use xlink:href="#DejaVuSerif-62" transform="translate(1393.287109 0)"/>
      <use xlink:href="#DejaVuSerif-29" transform="translate(1457.300781 0)"/>
     </g>
    </g>
   </g>
   <g id="LineCollection_1">
    <path d="M 49.285767 155.073513 
L 49.285767 154.949656 
" clip-path="url(#pd2e7e07619)" style="fill: none; stroke: #1f77b4; stroke-width: 1.5"/>
    <path d="M 52.027782 93.842687 
L 52.027782 93.842687 
" clip-path="url(#pd2e7e07619)" style="fill: none; stroke: #1f77b4; stroke-width: 1.5"/>
    <path d="M 54.769797 80.483398 
L 54.769797 80.483398 
" clip-path="url(#pd2e7e07619)" style="fill: none; stroke: #1f77b4; stroke-width: 1.5"/>
    <path d="M 57.511811 72.568575 
L 57.511811 72.568575 
" clip-path="url(#pd2e7e07619)" style="fill: none; stroke: #1f77b4; stroke-width: 1.5"/>
    <path d="M 60.253826 67.69429 
L 60.253826 67.69429 
" clip-path="url(#pd2e7e07619)" style="fill: none; stroke: #1f77b4; stroke-width: 1.5"/>
    <path d="M 62.995841 65.203922 
L 62.995841 65.203922 
" clip-path="url(#pd2e7e07619)" style="fill: none; stroke: #1f77b4; stroke-width: 1.5"/>
    <path d="M 65.737855 63.783009 
L 65.737855 62.915269 
" clip-path="url(#pd2e7e07619)" style="fill: none; stroke: #1f77b4; stroke-width: 1.5"/>
    <path d="M 68.47987 61.625617 
L 68.47987 61.625617 
" clip-path="url(#pd2e7e07619)" style="fill: none; stroke: #1f77b4; stroke-width: 1.5"/>
    <path d="M 71.221885 60.42608 
L 71.221885 60.42608 
" clip-path="url(#pd2e7e07619)" style="fill: none; stroke: #1f77b4; stroke-width: 1.5"/>
    <path d="M 73.9639 59.034833 
L 73.9639 59.034833 
" clip-path="url(#pd2e7e07619)" style="fill: none; stroke: #1f77b4; stroke-width: 1.5"/>
    <path d="M 76.705914 58.032214 
L 76.705914 58.032214 
" clip-path="url(#pd2e7e07619)" style="fill: none; stroke: #1f77b4; stroke-width: 1.5"/>
    <path d="M 79.447929 56.978106 
L 79.447929 56.978106 
" clip-path="url(#pd2e7e07619)" style="fill: none; stroke: #1f77b4; stroke-width: 1.5"/>
    <path d="M 82.189944 56.475015 
L 82.189944 55.400097 
" clip-path="url(#pd2e7e07619)" style="fill: none; stroke: #1f77b4; stroke-width: 1.5"/>
    <path d="M 84.931959 55.113405 
L 84.931959 55.113405 
" clip-path="url(#pd2e7e07619)" style="fill: none; stroke: #1f77b4; stroke-width: 1.5"/>
    <path d="M 87.673973 54.179205 
L 87.673973 54.179205 
" clip-path="url(#pd2e7e07619)" style="fill: none; stroke: #1f77b4; stroke-width: 1.5"/>
    <path d="M 90.415988 53.241637 
L 90.415988 53.241637 
" clip-path="url(#pd2e7e07619)" style="fill: none; stroke: #1f77b4; stroke-width: 1.5"/>
    <path d="M 93.158003 52.673238 
L 93.158003 52.673238 
" clip-path="url(#pd2e7e07619)" style="fill: none; stroke: #1f77b4; stroke-width: 1.5"/>
    <path d="M 95.900018 52.013998 
L 95.900018 52.013998 
" clip-path="url(#pd2e7e07619)" style="fill: none; stroke: #1f77b4; stroke-width: 1.5"/>
    <path d="M 98.642032 52.338139 
L 98.642032 50.618784 
" clip-path="url(#pd2e7e07619)" style="fill: none; stroke: #1f77b4; stroke-width: 1.5"/>
    <path d="M 101.384047 50.992929 
L 101.384047 50.992929 
" clip-path="url(#pd2e7e07619)" style="fill: none; stroke: #1f77b4; stroke-width: 1.5"/>
    <path d="M 104.126062 50.284207 
L 104.126062 50.284207 
" clip-path="url(#pd2e7e07619)" style="fill: none; stroke: #1f77b4; stroke-width: 1.5"/>
    <path d="M 106.868077 49.864058 
L 106.868077 49.864058 
" clip-path="url(#pd2e7e07619)" style="fill: none; stroke: #1f77b4; stroke-width: 1.5"/>
    <path d="M 109.610091 49.407051 
L 109.610091 49.407051 
" clip-path="url(#pd2e7e07619)" style="fill: none; stroke: #1f77b4; stroke-width: 1.5"/>
    <path d="M 112.352106 49.043564 
L 112.352106 49.043564 
" clip-path="url(#pd2e7e07619)" style="fill: none; stroke: #1f77b4; stroke-width: 1.5"/>
    <path d="M 115.094121 49.28291 
L 115.094121 48.113233 
" clip-path="url(#pd2e7e07619)" style="fill: none; stroke: #1f77b4; stroke-width: 1.5"/>
    <path d="M 117.836136 48.49916 
L 117.836136 48.49916 
" clip-path="url(#pd2e7e07619)" style="fill: none; stroke: #1f77b4; stroke-width: 1.5"/>
    <path d="M 120.57815 48.03652 
L 120.57815 48.03652 
" clip-path="url(#pd2e7e07619)" style="fill: none; stroke: #1f77b4; stroke-width: 1.5"/>
    <path d="M 123.320165 47.716715 
L 123.320165 47.716715 
" clip-path="url(#pd2e7e07619)" style="fill: none; stroke: #1f77b4; stroke-width: 1.5"/>
    <path d="M 126.06218 47.290281 
L 126.06218 47.290281 
" clip-path="url(#pd2e7e07619)" style="fill: none; stroke: #1f77b4; stroke-width: 1.5"/>
    <path d="M 128.804195 46.783182 
L 128.804195 46.783182 
" clip-path="url(#pd2e7e07619)" style="fill: none; stroke: #1f77b4; stroke-width: 1.5"/>
    <path d="M 131.546209 47.775815 
L 131.546209 46.039074 
" clip-path="url(#pd2e7e07619)" style="fill: none; stroke: #1f77b4; stroke-width: 1.5"/>
    <path d="M 134.288224 46.260593 
L 134.288224 46.260593 
" clip-path="url(#pd2e7e07619)" style="fill: none; stroke: #1f77b4; stroke-width: 1.5"/>
    <path d="M 137.030239 46.317914 
L 137.030239 46.317914 
" clip-path="url(#pd2e7e07619)" style="fill: none; stroke: #1f77b4; stroke-width: 1.5"/>
    <path d="M 139.772254 45.884053 
L 139.772254 45.884053 
" clip-path="url(#pd2e7e07619)" style="fill: none; stroke: #1f77b4; stroke-width: 1.5"/>
    <path d="M 142.514268 45.247627 
L 142.514268 45.247627 
" clip-path="url(#pd2e7e07619)" style="fill: none; stroke: #1f77b4; stroke-width: 1.5"/>
    <path d="M 145.256283 45.144803 
L 145.256283 45.144803 
" clip-path="url(#pd2e7e07619)" style="fill: none; stroke: #1f77b4; stroke-width: 1.5"/>
    <path d="M 147.998298 46.136253 
L 147.998298 44.291858 
" clip-path="url(#pd2e7e07619)" style="fill: none; stroke: #1f77b4; stroke-width: 1.5"/>
    <path d="M 150.740312 44.565025 
L 150.740312 44.565025 
" clip-path="url(#pd2e7e07619)" style="fill: none; stroke: #1f77b4; stroke-width: 1.5"/>
    <path d="M 153.482327 44.277311 
L 153.482327 44.277311 
" clip-path="url(#pd2e7e07619)" style="fill: none; stroke: #1f77b4; stroke-width: 1.5"/>
    <path d="M 156.224342 43.780074 
L 156.224342 43.780074 
" clip-path="url(#pd2e7e07619)" style="fill: none; stroke: #1f77b4; stroke-width: 1.5"/>
    <path d="M 158.966357 43.750968 
L 158.966357 43.750968 
" clip-path="url(#pd2e7e07619)" style="fill: none; stroke: #1f77b4; stroke-width: 1.5"/>
    <path d="M 161.708371 43.591096 
L 161.708371 43.591096 
" clip-path="url(#pd2e7e07619)" style="fill: none; stroke: #1f77b4; stroke-width: 1.5"/>
    <path d="M 164.450386 43.784326 
L 164.450386 42.358215 
" clip-path="url(#pd2e7e07619)" style="fill: none; stroke: #1f77b4; stroke-width: 1.5"/>
    <path d="M 167.192401 43.135345 
L 167.192401 43.135345 
" clip-path="url(#pd2e7e07619)" style="fill: none; stroke: #1f77b4; stroke-width: 1.5"/>
    <path d="M 169.934416 42.685072 
L 169.934416 42.685072 
" clip-path="url(#pd2e7e07619)" style="fill: none; stroke: #1f77b4; stroke-width: 1.5"/>
    <path d="M 172.67643 42.311997 
L 172.67643 42.311997 
" clip-path="url(#pd2e7e07619)" style="fill: none; stroke: #1f77b4; stroke-width: 1.5"/>
    <path d="M 175.418445 42.138626 
L 175.418445 42.138626 
" clip-path="url(#pd2e7e07619)" style="fill: none; stroke: #1f77b4; stroke-width: 1.5"/>
    <path d="M 178.16046 42.222567 
L 178.16046 42.222567 
" clip-path="url(#pd2e7e07619)" style="fill: none; stroke: #1f77b4; stroke-width: 1.5"/>
    <path d="M 180.902475 42.352946 
L 180.902475 40.941891 
" clip-path="url(#pd2e7e07619)" style="fill: none; stroke: #1f77b4; stroke-width: 1.5"/>
    <path d="M 183.644489 41.550068 
L 183.644489 41.550068 
" clip-path="url(#pd2e7e07619)" style="fill: none; stroke: #1f77b4; stroke-width: 1.5"/>
    <path d="M 186.386504 41.354843 
L 186.386504 41.354843 
" clip-path="url(#pd2e7e07619)" style="fill: none; stroke: #1f77b4; stroke-width: 1.5"/>
    <path d="M 189.128519 41.069656 
L 189.128519 41.069656 
" clip-path="url(#pd2e7e07619)" style="fill: none; stroke: #1f77b4; stroke-width: 1.5"/>
    <path d="M 191.870534 40.898983 
L 191.870534 40.898983 
" clip-path="url(#pd2e7e07619)" style="fill: none; stroke: #1f77b4; stroke-width: 1.5"/>
    <path d="M 194.612548 40.744783 
L 194.612548 40.744783 
" clip-path="url(#pd2e7e07619)" style="fill: none; stroke: #1f77b4; stroke-width: 1.5"/>
    <path d="M 197.354563 41.38549 
L 197.354563 39.846793 
" clip-path="url(#pd2e7e07619)" style="fill: none; stroke: #1f77b4; stroke-width: 1.5"/>
    <path d="M 200.096578 40.40328 
L 200.096578 40.40328 
" clip-path="url(#pd2e7e07619)" style="fill: none; stroke: #1f77b4; stroke-width: 1.5"/>
    <path d="M 202.838593 40.458546 
L 202.838593 40.458546 
" clip-path="url(#pd2e7e07619)" style="fill: none; stroke: #1f77b4; stroke-width: 1.5"/>
    <path d="M 205.580607 40.27294 
L 205.580607 40.27294 
" clip-path="url(#pd2e7e07619)" style="fill: none; stroke: #1f77b4; stroke-width: 1.5"/>
    <path d="M 208.322622 39.78317 
L 208.322622 39.78317 
" clip-path="url(#pd2e7e07619)" style="fill: none; stroke: #1f77b4; stroke-width: 1.5"/>
    <path d="M 211.064637 39.811078 
L 211.064637 39.811078 
" clip-path="url(#pd2e7e07619)" style="fill: none; stroke: #1f77b4; stroke-width: 1.5"/>
    <path d="M 213.806652 40.569144 
L 213.806652 39.228218 
" clip-path="url(#pd2e7e07619)" style="fill: none; stroke: #1f77b4; stroke-width: 1.5"/>
    <path d="M 216.548666 39.294482 
L 216.548666 39.294482 
" clip-path="url(#pd2e7e07619)" style="fill: none; stroke: #1f77b4; stroke-width: 1.5"/>
    <path d="M 219.290681 39.003554 
L 219.290681 39.003554 
" clip-path="url(#pd2e7e07619)" style="fill: none; stroke: #1f77b4; stroke-width: 1.5"/>
    <path d="M 222.032696 39.210329 
L 222.032696 39.210329 
" clip-path="url(#pd2e7e07619)" style="fill: none; stroke: #1f77b4; stroke-width: 1.5"/>
    <path d="M 224.774711 38.960634 
L 224.774711 38.960634 
" clip-path="url(#pd2e7e07619)" style="fill: none; stroke: #1f77b4; stroke-width: 1.5"/>
    <path d="M 227.516725 38.895285 
L 227.516725 38.895285 
" clip-path="url(#pd2e7e07619)" style="fill: none; stroke: #1f77b4; stroke-width: 1.5"/>
    <path d="M 230.25874 40.137438 
L 230.25874 37.934487 
" clip-path="url(#pd2e7e07619)" style="fill: none; stroke: #1f77b4; stroke-width: 1.5"/>
    <path d="M 233.000755 38.734218 
L 233.000755 38.734218 
" clip-path="url(#pd2e7e07619)" style="fill: none; stroke: #1f77b4; stroke-width: 1.5"/>
    <path d="M 235.74277 38.272743 
L 235.74277 38.272743 
" clip-path="url(#pd2e7e07619)" style="fill: none; stroke: #1f77b4; stroke-width: 1.5"/>
    <path d="M 238.484784 38.445006 
L 238.484784 38.445006 
" clip-path="url(#pd2e7e07619)" style="fill: none; stroke: #1f77b4; stroke-width: 1.5"/>
    <path d="M 241.226799 38.109897 
L 241.226799 38.109897 
" clip-path="url(#pd2e7e07619)" style="fill: none; stroke: #1f77b4; stroke-width: 1.5"/>
    <path d="M 243.968814 38.47328 
L 243.968814 38.47328 
" clip-path="url(#pd2e7e07619)" style="fill: none; stroke: #1f77b4; stroke-width: 1.5"/>
    <path d="M 246.710828 39.880739 
L 246.710828 37.50918 
" clip-path="url(#pd2e7e07619)" style="fill: none; stroke: #1f77b4; stroke-width: 1.5"/>
    <path d="M 249.452843 38.873709 
L 249.452843 38.873709 
" clip-path="url(#pd2e7e07619)" style="fill: none; stroke: #1f77b4; stroke-width: 1.5"/>
    <path d="M 252.194858 38.485244 
L 252.194858 38.485244 
" clip-path="url(#pd2e7e07619)" style="fill: none; stroke: #1f77b4; stroke-width: 1.5"/>
   </g>
   <g id="line2d_81">
    <path d="M 49.285767 159.48 
L 52.027782 98.344323 
L 54.769797 84.909471 
L 57.511811 76.955607 
L 60.253826 71.40786 
L 62.995841 72.511331 
L 65.737855 77.032144 
L 68.47987 78.90944 
L 71.221885 76.343243 
L 73.9639 75.361748 
L 76.705914 73.257149 
L 79.447929 71.352358 
L 82.189944 69.612695 
L 84.931959 68.011807 
L 87.673973 66.52918 
L 90.415988 65.148531 
L 93.158003 63.856734 
L 95.900018 62.643039 
L 98.642032 62.187439 
L 101.384047 61.104669 
L 104.126062 60.077308 
L 106.868077 59.099962 
L 109.610091 58.167982 
L 112.352106 57.27735 
L 115.094121 56.424544 
L 117.836136 55.606487 
L 120.57815 54.820458 
L 123.320165 54.06404 
L 126.06218 53.335084 
L 128.804195 52.631666 
L 131.546209 51.952058 
L 134.288224 52.005837 
L 137.030239 51.369317 
L 139.772254 50.752356 
L 142.514268 50.153786 
L 145.256283 49.572545 
L 147.998298 49.007655 
L 150.740312 48.458283 
L 153.482327 47.938088 
L 156.224342 47.436279 
L 158.966357 46.956774 
L 161.708371 46.497555 
L 164.450386 46.057006 
L 167.192401 46.380238 
L 169.934416 45.979237 
L 172.67643 45.594536 
L 175.418445 45.219135 
L 178.16046 44.855519 
L 180.902475 44.501903 
L 183.644489 44.154406 
L 186.386504 43.81282 
L 189.128519 44.275475 
L 191.870534 43.966142 
L 194.612548 43.666419 
L 197.354563 43.907269 
L 200.096578 43.633101 
L 202.838593 43.678513 
L 205.580607 43.413034 
L 208.322622 43.15102 
L 211.064637 42.898805 
L 213.806652 42.650652 
L 216.548666 42.412102 
L 219.290681 42.176354 
L 222.032696 41.94334 
L 224.774711 41.713528 
L 227.516725 41.492074 
L 230.25874 41.278457 
L 233.000755 41.067996 
L 235.74277 40.859719 
L 238.484784 40.973632 
L 241.226799 41.292079 
L 243.968814 42.144083 
L 246.710828 42.595926 
L 249.452843 43.037133 
L 252.194858 43.541488 
" clip-path="url(#pd2e7e07619)" style="fill: none; stroke: #ff7f0e; stroke-width: 1.5; stroke-linecap: square"/>
    <defs>
     <path id="mb0254543fb" d="M 0 3 
C 0.795609 3 1.55874 2.683901 2.12132 2.12132 
C 2.683901 1.55874 3 0.795609 3 0 
C 3 -0.795609 2.683901 -1.55874 2.12132 -2.12132 
C 1.55874 -2.683901 0.795609 -3 0 -3 
C -0.795609 -3 -1.55874 -2.683901 -2.12132 -2.12132 
C -2.683901 -1.55874 -3 -0.795609 -3 0 
C -3 0.795609 -2.683901 1.55874 -2.12132 2.12132 
C -1.55874 2.683901 -0.795609 3 0 3 
z
" style="stroke: #ff7f0e"/>
    </defs>
    <g clip-path="url(#pd2e7e07619)">
     <use xlink:href="#mb0254543fb" x="49.285767" y="159.48" style="fill: #ff7f0e; stroke: #ff7f0e"/>
     <use xlink:href="#mb0254543fb" x="68.47987" y="78.90944" style="fill: #ff7f0e; stroke: #ff7f0e"/>
     <use xlink:href="#mb0254543fb" x="87.673973" y="66.52918" style="fill: #ff7f0e; stroke: #ff7f0e"/>
     <use xlink:href="#mb0254543fb" x="106.868077" y="59.099962" style="fill: #ff7f0e; stroke: #ff7f0e"/>
     <use xlink:href="#mb0254543fb" x="126.06218" y="53.335084" style="fill: #ff7f0e; stroke: #ff7f0e"/>
     <use xlink:href="#mb0254543fb" x="145.256283" y="49.572545" style="fill: #ff7f0e; stroke: #ff7f0e"/>
     <use xlink:href="#mb0254543fb" x="164.450386" y="46.057006" style="fill: #ff7f0e; stroke: #ff7f0e"/>
     <use xlink:href="#mb0254543fb" x="183.644489" y="44.154406" style="fill: #ff7f0e; stroke: #ff7f0e"/>
     <use xlink:href="#mb0254543fb" x="202.838593" y="43.678513" style="fill: #ff7f0e; stroke: #ff7f0e"/>
     <use xlink:href="#mb0254543fb" x="222.032696" y="41.94334" style="fill: #ff7f0e; stroke: #ff7f0e"/>
     <use xlink:href="#mb0254543fb" x="241.226799" y="41.292079" style="fill: #ff7f0e; stroke: #ff7f0e"/>
    </g>
   </g>
   <g id="line2d_82">
    <path d="M 49.285767 154.96248 
L 52.027782 93.813965 
L 54.769797 80.379116 
L 57.511811 72.401447 
L 60.253826 67.592292 
L 62.995841 65.902461 
L 65.737855 62.904283 
L 68.47987 61.60527 
L 71.221885 59.282021 
L 73.9639 57.010689 
L 76.705914 56.392946 
L 79.447929 55.295828 
L 82.189944 53.999181 
L 84.931959 53.28548 
L 87.673973 51.60349 
L 90.415988 51.618633 
L 93.158003 50.592928 
L 95.900018 48.934548 
L 98.642032 49.289799 
L 101.384047 47.784895 
L 104.126062 47.35166 
L 106.868077 47.043757 
L 109.610091 46.707504 
L 112.352106 46.975635 
L 115.094121 46.030429 
L 117.836136 44.27907 
L 120.57815 45.154822 
L 123.320165 44.779534 
L 126.06218 44.08069 
L 128.804195 44.184589 
L 131.546209 43.763916 
L 134.288224 43.700356 
L 137.030239 42.475087 
L 139.772254 42.971493 
L 142.514268 41.518445 
L 145.256283 41.154479 
L 147.998298 40.841142 
L 150.740312 40.633944 
L 153.482327 40.657243 
L 156.224342 39.559388 
L 158.966357 40.251388 
L 161.708371 40.069792 
L 164.450386 40.253234 
L 167.192401 39.485472 
L 169.934416 38.870202 
L 172.67643 39.294118 
L 175.418445 38.902507 
L 178.16046 38.888866 
L 180.902475 39.632809 
L 183.644489 38.395469 
L 186.386504 37.955606 
L 189.128519 38.305807 
L 191.870534 37.846159 
L 194.612548 37.894396 
L 197.354563 38.642147 
L 200.096578 38.04969 
L 202.838593 38.249572 
L 205.580607 39.090562 
L 208.322622 38.642048 
L 211.064637 38.717357 
L 213.806652 38.891796 
L 216.548666 38.223655 
L 219.290681 37.918198 
L 222.032696 38.331938 
L 224.774711 38.152454 
L 227.516725 37.855499 
L 230.25874 37.796345 
L 233.000755 38.240213 
L 235.74277 37.616985 
L 238.484784 38.069417 
L 241.226799 37.995245 
L 243.968814 38.384529 
L 246.710828 38.035277 
L 249.452843 38.03468 
L 252.194858 37.965094 
" clip-path="url(#pd2e7e07619)" style="fill: none; stroke: #2ca02c; stroke-width: 1.5; stroke-linecap: square"/>
    <defs>
     <path id="m1fff19a162" d="M 0 -3 
L -3 3 
L 3 3 
z
" style="stroke: #2ca02c; stroke-linejoin: miter"/>
    </defs>
    <g clip-path="url(#pd2e7e07619)">
     <use xlink:href="#m1fff19a162" x="49.285767" y="154.96248" style="fill: #2ca02c; stroke: #2ca02c; stroke-linejoin: miter"/>
     <use xlink:href="#m1fff19a162" x="68.47987" y="61.60527" style="fill: #2ca02c; stroke: #2ca02c; stroke-linejoin: miter"/>
     <use xlink:href="#m1fff19a162" x="87.673973" y="51.60349" style="fill: #2ca02c; stroke: #2ca02c; stroke-linejoin: miter"/>
     <use xlink:href="#m1fff19a162" x="106.868077" y="47.043757" style="fill: #2ca02c; stroke: #2ca02c; stroke-linejoin: miter"/>
     <use xlink:href="#m1fff19a162" x="126.06218" y="44.08069" style="fill: #2ca02c; stroke: #2ca02c; stroke-linejoin: miter"/>
     <use xlink:href="#m1fff19a162" x="145.256283" y="41.154479" style="fill: #2ca02c; stroke: #2ca02c; stroke-linejoin: miter"/>
     <use xlink:href="#m1fff19a162" x="164.450386" y="40.253234" style="fill: #2ca02c; stroke: #2ca02c; stroke-linejoin: miter"/>
     <use xlink:href="#m1fff19a162" x="183.644489" y="38.395469" style="fill: #2ca02c; stroke: #2ca02c; stroke-linejoin: miter"/>
     <use xlink:href="#m1fff19a162" x="202.838593" y="38.249572" style="fill: #2ca02c; stroke: #2ca02c; stroke-linejoin: miter"/>
     <use xlink:href="#m1fff19a162" x="222.032696" y="38.331938" style="fill: #2ca02c; stroke: #2ca02c; stroke-linejoin: miter"/>
     <use xlink:href="#m1fff19a162" x="241.226799" y="37.995245" style="fill: #2ca02c; stroke: #2ca02c; stroke-linejoin: miter"/>
    </g>
   </g>
   <g id="line2d_83">
    <path d="M 49.285767 154.949656 
L 52.027782 93.813965 
L 54.769797 80.379116 
L 57.511811 72.401083 
L 60.253826 66.706745 
L 62.995841 62.27555 
L 65.737855 58.647604 
L 68.47987 55.575898 
L 71.221885 52.912328 
L 73.9639 50.866846 
L 76.705914 49.755122 
L 79.447929 48.72013 
L 82.189944 47.733634 
L 84.931959 46.790208 
L 87.673973 45.889212 
L 90.415988 45.032785 
L 93.158003 44.289563 
L 95.900018 43.818186 
L 98.642032 43.369667 
L 101.384047 42.942674 
L 104.126062 42.544145 
L 106.868077 42.178963 
L 109.610091 41.860641 
L 112.352106 41.550507 
L 115.094121 41.246603 
L 117.836136 40.948305 
L 120.57815 40.662619 
L 123.320165 40.382521 
L 126.06218 40.107851 
L 128.804195 39.838714 
L 131.546209 39.574014 
L 134.288224 39.313552 
L 137.030239 39.056666 
L 139.772254 38.803362 
L 142.514268 38.554716 
L 145.256283 38.312168 
L 147.998298 38.074425 
L 150.740312 37.839668 
L 153.482327 37.608099 
L 156.224342 37.379422 
L 158.966357 37.154212 
L 161.708371 36.933119 
L 164.450386 36.719491 
L 167.192401 36.508226 
L 169.934416 36.29962 
L 172.67643 36.095275 
L 175.418445 35.893014 
L 178.16046 35.692776 
L 180.902475 35.495301 
L 183.644489 35.301844 
L 186.386504 35.112197 
L 189.128519 34.9252 
L 191.870534 34.739993 
L 194.612548 34.559843 
L 197.354563 34.382461 
L 200.096578 34.207627 
L 202.838593 34.034841 
L 205.580607 33.875341 
L 208.322622 33.723057 
L 211.064637 33.572851 
L 213.806652 33.448266 
L 216.548666 33.371738 
L 219.290681 33.303456 
L 222.032696 33.237213 
L 224.774711 33.171378 
L 227.516725 33.106098 
L 230.25874 33.042538 
L 233.000755 32.979244 
L 235.74277 32.916421 
L 238.484784 32.853892 
L 241.226799 32.791638 
L 243.968814 32.729746 
L 246.710828 32.668228 
L 249.452843 32.611118 
L 252.194858 32.555291 
" clip-path="url(#pd2e7e07619)" style="fill: none; stroke: #d62728; stroke-width: 1.5; stroke-linecap: square"/>
    <defs>
     <path id="md40fddb043" d="M -3 3 
L 3 3 
L 3 -3 
L -3 -3 
z
" style="stroke: #d62728; stroke-linejoin: miter"/>
    </defs>
    <g clip-path="url(#pd2e7e07619)">
     <use xlink:href="#md40fddb043" x="49.285767" y="154.949656" style="fill: #d62728; stroke: #d62728; stroke-linejoin: miter"/>
     <use xlink:href="#md40fddb043" x="68.47987" y="55.575898" style="fill: #d62728; stroke: #d62728; stroke-linejoin: miter"/>
     <use xlink:href="#md40fddb043" x="87.673973" y="45.889212" style="fill: #d62728; stroke: #d62728; stroke-linejoin: miter"/>
     <use xlink:href="#md40fddb043" x="106.868077" y="42.178963" style="fill: #d62728; stroke: #d62728; stroke-linejoin: miter"/>
     <use xlink:href="#md40fddb043" x="126.06218" y="40.107851" style="fill: #d62728; stroke: #d62728; stroke-linejoin: miter"/>
     <use xlink:href="#md40fddb043" x="145.256283" y="38.312168" style="fill: #d62728; stroke: #d62728; stroke-linejoin: miter"/>
     <use xlink:href="#md40fddb043" x="164.450386" y="36.719491" style="fill: #d62728; stroke: #d62728; stroke-linejoin: miter"/>
     <use xlink:href="#md40fddb043" x="183.644489" y="35.301844" style="fill: #d62728; stroke: #d62728; stroke-linejoin: miter"/>
     <use xlink:href="#md40fddb043" x="202.838593" y="34.034841" style="fill: #d62728; stroke: #d62728; stroke-linejoin: miter"/>
     <use xlink:href="#md40fddb043" x="222.032696" y="33.237213" style="fill: #d62728; stroke: #d62728; stroke-linejoin: miter"/>
     <use xlink:href="#md40fddb043" x="241.226799" y="32.791638" style="fill: #d62728; stroke: #d62728; stroke-linejoin: miter"/>
    </g>
   </g>
   <g id="line2d_84">
    <path d="M 49.285767 154.949656 
L 52.027782 93.999535 
L 54.769797 80.379116 
L 57.511811 72.567335 
L 60.253826 66.706745 
L 62.995841 62.27555 
L 65.737855 58.82775 
L 68.47987 55.685306 
L 71.221885 52.912328 
L 73.9639 51.068679 
L 76.705914 49.797738 
L 79.447929 48.743696 
L 82.189944 47.748429 
L 84.931959 46.805447 
L 87.673973 45.901075 
L 90.415988 45.149242 
L 93.158003 44.443739 
L 95.900018 43.899967 
L 98.642032 43.461442 
L 101.384047 43.016771 
L 104.126062 42.635384 
L 106.868077 42.321486 
L 109.610091 41.972928 
L 112.352106 41.681816 
L 115.094121 41.383633 
L 117.836136 41.109817 
L 120.57815 40.824833 
L 123.320165 40.532601 
L 126.06218 40.224898 
L 128.804195 39.960996 
L 131.546209 39.705432 
L 134.288224 39.439596 
L 137.030239 39.148809 
L 139.772254 38.983847 
L 142.514268 38.666149 
L 145.256283 38.470108 
L 147.998298 38.220765 
L 150.740312 38.032039 
L 153.482327 37.813304 
L 156.224342 37.553595 
L 158.966357 37.36536 
L 161.708371 37.149565 
L 164.450386 36.932227 
L 167.192401 36.711348 
L 169.934416 36.407376 
L 172.67643 36.281629 
L 175.418445 36.019979 
L 178.16046 35.914628 
L 180.902475 35.658047 
L 183.644489 35.476514 
L 186.386504 35.329686 
L 189.128519 35.103823 
L 191.870534 34.936835 
L 194.612548 34.791419 
L 197.354563 34.532732 
L 200.096578 34.361237 
L 202.838593 34.203105 
L 205.580607 34.123248 
L 208.322622 33.921148 
L 211.064637 33.806779 
L 213.806652 33.681562 
L 216.548666 33.562748 
L 219.290681 33.489199 
L 222.032696 33.45684 
L 224.774711 33.418151 
L 227.516725 33.390376 
L 230.25874 33.292236 
L 233.000755 33.273028 
L 235.74277 33.165615 
L 238.484784 33.140656 
L 241.226799 33.031691 
L 243.968814 33.004063 
L 246.710828 32.945183 
L 249.452843 32.889549 
L 252.194858 32.849397 
" clip-path="url(#pd2e7e07619)" style="fill: none; stroke: #9467bd; stroke-width: 1.5; stroke-linecap: square"/>
    <defs>
     <path id="m22fe6944fc" d="M -0 3 
L 3 -3 
L -3 -3 
z
" style="stroke: #9467bd; stroke-linejoin: miter"/>
    </defs>
    <g clip-path="url(#pd2e7e07619)">
     <use xlink:href="#m22fe6944fc" x="49.285767" y="154.949656" style="fill: #9467bd; stroke: #9467bd; stroke-linejoin: miter"/>
     <use xlink:href="#m22fe6944fc" x="68.47987" y="55.685306" style="fill: #9467bd; stroke: #9467bd; stroke-linejoin: miter"/>
     <use xlink:href="#m22fe6944fc" x="87.673973" y="45.901075" style="fill: #9467bd; stroke: #9467bd; stroke-linejoin: miter"/>
     <use xlink:href="#m22fe6944fc" x="106.868077" y="42.321486" style="fill: #9467bd; stroke: #9467bd; stroke-linejoin: miter"/>
     <use xlink:href="#m22fe6944fc" x="126.06218" y="40.224898" style="fill: #9467bd; stroke: #9467bd; stroke-linejoin: miter"/>
     <use xlink:href="#m22fe6944fc" x="145.256283" y="38.470108" style="fill: #9467bd; stroke: #9467bd; stroke-linejoin: miter"/>
     <use xlink:href="#m22fe6944fc" x="164.450386" y="36.932227" style="fill: #9467bd; stroke: #9467bd; stroke-linejoin: miter"/>
     <use xlink:href="#m22fe6944fc" x="183.644489" y="35.476514" style="fill: #9467bd; stroke: #9467bd; stroke-linejoin: miter"/>
     <use xlink:href="#m22fe6944fc" x="202.838593" y="34.203105" style="fill: #9467bd; stroke: #9467bd; stroke-linejoin: miter"/>
     <use xlink:href="#m22fe6944fc" x="222.032696" y="33.45684" style="fill: #9467bd; stroke: #9467bd; stroke-linejoin: miter"/>
     <use xlink:href="#m22fe6944fc" x="241.226799" y="33.031691" style="fill: #9467bd; stroke: #9467bd; stroke-linejoin: miter"/>
    </g>
   </g>
   <g id="line2d_85">
    <path d="M 49.285767 154.877256 
L 52.027782 93.741677 
L 54.769797 80.306815 
L 57.511811 72.328791 
L 60.253826 66.634453 
L 62.995841 62.203258 
L 65.737855 58.575311 
L 68.47987 55.503607 
L 71.221885 52.840038 
L 73.9639 50.488757 
L 76.705914 48.384161 
L 79.447929 46.479367 
L 82.189944 44.739707 
L 84.931959 43.138819 
L 87.673973 41.656189 
L 90.415988 40.275541 
L 93.158003 38.983744 
L 95.900018 37.770051 
L 98.642032 36.625552 
L 101.384047 35.542782 
L 104.126062 34.515422 
L 106.868077 33.538075 
L 109.610091 32.606097 
L 112.352106 31.715463 
L 115.094121 30.862659 
L 117.836136 30.044602 
L 120.57815 29.258572 
L 123.320165 28.502154 
L 126.06218 27.773199 
L 128.804195 27.069781 
L 131.546209 26.390173 
L 134.288224 25.732814 
L 137.030239 25.096294 
L 139.772254 24.479333 
L 142.514268 23.880763 
L 145.256283 23.299521 
L 147.998298 22.734631 
L 150.740312 22.185198 
L 153.482327 21.650399 
L 156.224342 21.129475 
L 158.966357 20.621723 
L 161.708371 20.126494 
L 164.450386 19.643185 
L 167.192401 19.171236 
L 169.934416 18.710125 
L 172.67643 18.259365 
L 175.418445 17.818501 
L 178.16046 17.38711 
L 180.902475 16.964791 
L 183.644489 16.551171 
L 186.386504 16.1459 
L 189.128519 15.748646 
L 191.870534 15.359099 
L 194.612548 14.976966 
L 197.354563 14.601969 
L 200.096578 14.233846 
L 202.838593 13.872351 
L 205.580607 13.517249 
L 208.322622 13.168317 
L 211.064637 12.825345 
L 213.806652 12.488133 
L 216.548666 12.15649 
L 219.290681 11.830236 
L 222.032696 11.509197 
L 224.774711 11.193211 
L 227.516725 10.88212 
L 230.25874 10.575775 
L 233.000755 10.274034 
L 235.74277 9.97676 
L 238.484784 9.683822 
L 241.226799 9.395096 
L 243.968814 9.110464 
L 246.710828 8.829809 
L 249.452843 8.553023 
L 252.194858 8.28 
" clip-path="url(#pd2e7e07619)" style="fill: none; stroke-dasharray: 5.55,2.4; stroke-dashoffset: 0; stroke: #8c564b; stroke-width: 1.5"/>
   </g>
   <g id="line2d_86">
    <path d="M 49.285767 154.968422 
L 52.027782 93.842687 
L 54.769797 80.483398 
L 57.511811 72.568575 
L 60.253826 67.69429 
L 62.995841 65.203922 
L 65.737855 63.258015 
L 68.47987 61.625617 
L 71.221885 60.42608 
L 73.9639 59.034833 
L 76.705914 58.032214 
L 79.447929 56.978106 
L 82.189944 55.878706 
L 84.931959 55.113405 
L 87.673973 54.179205 
L 90.415988 53.241637 
L 93.158003 52.673238 
L 95.900018 52.013998 
L 98.642032 51.612012 
L 101.384047 50.992929 
L 104.126062 50.284207 
L 106.868077 49.864058 
L 109.610091 49.407051 
L 112.352106 49.043564 
L 115.094121 48.859648 
L 117.836136 48.49916 
L 120.57815 48.03652 
L 123.320165 47.716715 
L 126.06218 47.290281 
L 128.804195 46.783182 
L 131.546209 46.621773 
L 134.288224 46.260593 
L 137.030239 46.317914 
L 139.772254 45.884053 
L 142.514268 45.247627 
L 145.256283 45.144803 
L 147.998298 44.694868 
L 150.740312 44.565025 
L 153.482327 44.277311 
L 156.224342 43.780074 
L 158.966357 43.750968 
L 161.708371 43.591096 
L 164.450386 43.0214 
L 167.192401 43.135345 
L 169.934416 42.685072 
L 172.67643 42.311997 
L 175.418445 42.138626 
L 178.16046 42.222567 
L 180.902475 41.678354 
L 183.644489 41.550068 
L 186.386504 41.354843 
L 189.128519 41.069656 
L 191.870534 40.898983 
L 194.612548 40.744783 
L 197.354563 40.609797 
L 200.096578 40.40328 
L 202.838593 40.458546 
L 205.580607 40.27294 
L 208.322622 39.78317 
L 211.064637 39.811078 
L 213.806652 39.909205 
L 216.548666 39.294482 
L 219.290681 39.003554 
L 222.032696 39.210329 
L 224.774711 38.960634 
L 227.516725 38.895285 
L 230.25874 38.836318 
L 233.000755 38.734218 
L 235.74277 38.272743 
L 238.484784 38.445006 
L 241.226799 38.109897 
L 243.968814 38.47328 
L 246.710828 38.217084 
L 249.452843 38.873709 
L 252.194858 38.485244 
" clip-path="url(#pd2e7e07619)" style="fill: none; stroke: #1f77b4; stroke-width: 1.5; stroke-linecap: square"/>
   </g>
   <g id="patch_3">
    <path d="M 39.140313 167.04 
L 39.140313 0.72 
" style="fill: none; stroke: #000000; stroke-width: 0.8; stroke-linejoin: miter; stroke-linecap: square"/>
   </g>
   <g id="patch_4">
    <path d="M 262.340312 167.04 
L 262.340312 0.72 
" style="fill: none; stroke: #000000; stroke-width: 0.8; stroke-linejoin: miter; stroke-linecap: square"/>
   </g>
   <g id="patch_5">
    <path d="M 39.140313 167.04 
L 262.340312 167.04 
" style="fill: none; stroke: #000000; stroke-width: 0.8; stroke-linejoin: miter; stroke-linecap: square"/>
   </g>
   <g id="patch_6">
    <path d="M 39.140313 0.72 
L 262.340312 0.72 
" style="fill: none; stroke: #000000; stroke-width: 0.8; stroke-linejoin: miter; stroke-linecap: square"/>
   </g>
   <g id="legend_1">
    <g id="patch_7">
     <path d="M 182.509062 162.04 
L 255.340312 162.04 
Q 257.340312 162.04 257.340312 160.04 
L 257.340312 87.649375 
Q 257.340312 85.649375 255.340312 85.649375 
L 182.509062 85.649375 
Q 180.509062 85.649375 180.509062 87.649375 
L 180.509062 160.04 
Q 180.509062 162.04 182.509062 162.04 
z
" style="fill: #ffffff; opacity: 0.8; stroke: #cccccc; stroke-linejoin: miter"/>
    </g>
    <g id="line2d_87">
     <path d="M 184.509062 93.747813 
L 194.509062 93.747813 
L 204.509062 93.747813 
" style="fill: none; stroke: #ff7f0e; stroke-width: 1.5; stroke-linecap: square"/>
     <g>
      <use xlink:href="#mb0254543fb" x="194.509062" y="93.747813" style="fill: #ff7f0e; stroke: #ff7f0e"/>
     </g>
    </g>
    <g id="text_14">
     <!-- SCAR-Q -->
     <g transform="translate(212.509062 97.247813) scale(0.1 -0.1)">
      <defs>
       <path id="DejaVuSerif-43" d="M 4513 1234 
Q 4306 581 3820 245 
Q 3334 -91 2591 -91 
Q 2134 -91 1743 65 
Q 1353 222 1050 525 
Q 700 875 529 1320 
Q 359 1766 359 2328 
Q 359 3416 987 4083 
Q 1616 4750 2644 4750 
Q 3025 4750 3456 4650 
Q 3888 4550 4384 4347 
L 4384 3272 
L 4031 3272 
Q 3916 3859 3567 4137 
Q 3219 4416 2591 4416 
Q 1844 4416 1459 3886 
Q 1075 3356 1075 2328 
Q 1075 1303 1459 773 
Q 1844 244 2591 244 
Q 3113 244 3450 492 
Q 3788 741 3938 1234 
L 4513 1234 
z
" transform="scale(0.015625)"/>
       <path id="DejaVuSerif-41" d="M 1281 1691 
L 2994 1691 
L 2138 3909 
L 1281 1691 
z
M -38 0 
L -38 331 
L 372 331 
L 2034 4666 
L 2559 4666 
L 4225 331 
L 4684 331 
L 4684 0 
L 2988 0 
L 2988 331 
L 3506 331 
L 3116 1356 
L 1153 1356 
L 763 331 
L 1275 331 
L 1275 0 
L -38 0 
z
" transform="scale(0.015625)"/>
       <path id="DejaVuSerif-2d" d="M 281 1959 
L 1881 1959 
L 1881 1472 
L 281 1472 
L 281 1959 
z
" transform="scale(0.015625)"/>
       <path id="DejaVuSerif-51" d="M 2700 -91 
Q 1628 -91 993 567 
Q 359 1225 359 2328 
Q 359 2894 529 3339 
Q 700 3784 1050 4134 
Q 1356 4441 1750 4595 
Q 2144 4750 2625 4750 
Q 3641 4750 4266 4084 
Q 4891 3419 4891 2328 
Q 4891 1403 4422 773 
Q 3953 144 3128 -38 
Q 3297 -247 3539 -347 
Q 3781 -447 4122 -447 
L 4219 -447 
L 4219 -1025 
Q 3691 -1000 3314 -767 
Q 2938 -534 2700 -91 
z
M 2625 244 
Q 3391 244 3781 770 
Q 4172 1297 4172 2328 
Q 4172 3363 3781 3889 
Q 3391 4416 2625 4416 
Q 1856 4416 1465 3889 
Q 1075 3363 1075 2328 
Q 1075 1297 1465 770 
Q 1856 244 2625 244 
z
" transform="scale(0.015625)"/>
      </defs>
      <use xlink:href="#DejaVuSerif-53"/>
      <use xlink:href="#DejaVuSerif-43" transform="translate(68.505859 0)"/>
      <use xlink:href="#DejaVuSerif-41" transform="translate(145.019531 0)"/>
      <use xlink:href="#DejaVuSerif-52" transform="translate(217.236328 0)"/>
      <use xlink:href="#DejaVuSerif-2d" transform="translate(292.529297 0)"/>
      <use xlink:href="#DejaVuSerif-51" transform="translate(326.318359 0)"/>
     </g>
    </g>
    <g id="line2d_88">
     <path d="M 184.509062 108.425938 
L 194.509062 108.425938 
L 204.509062 108.425938 
" style="fill: none; stroke: #2ca02c; stroke-width: 1.5; stroke-linecap: square"/>
     <g>
      <use xlink:href="#m1fff19a162" x="194.509062" y="108.425938" style="fill: #2ca02c; stroke: #2ca02c; stroke-linejoin: miter"/>
     </g>
    </g>
    <g id="text_15">
     <!-- StratoQ -->
     <g transform="translate(212.509062 111.925938) scale(0.1 -0.1)">
      <use xlink:href="#DejaVuSerif-53"/>
      <use xlink:href="#DejaVuSerif-74" transform="translate(68.505859 0)"/>
      <use xlink:href="#DejaVuSerif-72" transform="translate(108.691406 0)"/>
      <use xlink:href="#DejaVuSerif-61" transform="translate(156.494141 0)"/>
      <use xlink:href="#DejaVuSerif-74" transform="translate(216.113281 0)"/>
      <use xlink:href="#DejaVuSerif-6f" transform="translate(256.298828 0)"/>
      <use xlink:href="#DejaVuSerif-51" transform="translate(316.503906 0)"/>
     </g>
    </g>
    <g id="line2d_89">
     <path d="M 184.509062 123.104063 
L 194.509062 123.104063 
L 204.509062 123.104063 
" style="fill: none; stroke: #d62728; stroke-width: 1.5; stroke-linecap: square"/>
     <g>
      <use xlink:href="#md40fddb043" x="194.509062" y="123.104063" style="fill: #d62728; stroke: #d62728; stroke-linejoin: miter"/>
     </g>
    </g>
    <g id="text_16">
     <!-- Relaxed -->
     <g transform="translate(212.509062 126.604063) scale(0.1 -0.1)">
      <defs>
       <path id="DejaVuSerif-78" d="M 1863 2028 
L 2559 2988 
L 2113 2988 
L 2113 3322 
L 3391 3322 
L 3391 2988 
L 2950 2988 
L 2059 1759 
L 3097 331 
L 3531 331 
L 3531 0 
L 1997 0 
L 1997 331 
L 2419 331 
L 1697 1325 
L 972 331 
L 1403 331 
L 1403 0 
L 141 0 
L 141 331 
L 581 331 
L 1497 1594 
L 488 2988 
L 78 2988 
L 78 3322 
L 1563 3322 
L 1563 2988 
L 1166 2988 
L 1863 2028 
z
" transform="scale(0.015625)"/>
      </defs>
      <use xlink:href="#DejaVuSerif-52"/>
      <use xlink:href="#DejaVuSerif-65" transform="translate(75.292969 0)"/>
      <use xlink:href="#DejaVuSerif-6c" transform="translate(134.472656 0)"/>
      <use xlink:href="#DejaVuSerif-61" transform="translate(166.455078 0)"/>
      <use xlink:href="#DejaVuSerif-78" transform="translate(226.074219 0)"/>
      <use xlink:href="#DejaVuSerif-65" transform="translate(282.470703 0)"/>
      <use xlink:href="#DejaVuSerif-64" transform="translate(341.650391 0)"/>
     </g>
    </g>
    <g id="line2d_90">
     <path d="M 184.509062 137.782188 
L 194.509062 137.782188 
L 204.509062 137.782188 
" style="fill: none; stroke: #9467bd; stroke-width: 1.5; stroke-linecap: square"/>
     <g>
      <use xlink:href="#m22fe6944fc" x="194.509062" y="137.782188" style="fill: #9467bd; stroke: #9467bd; stroke-linejoin: miter"/>
     </g>
    </g>
    <g id="text_17">
     <!-- Optimal -->
     <g transform="translate(212.509062 141.282188) scale(0.1 -0.1)">
      <defs>
       <path id="DejaVuSerif-4f" d="M 2625 244 
Q 3391 244 3781 770 
Q 4172 1297 4172 2328 
Q 4172 3363 3781 3889 
Q 3391 4416 2625 4416 
Q 1856 4416 1465 3889 
Q 1075 3363 1075 2328 
Q 1075 1297 1465 770 
Q 1856 244 2625 244 
z
M 2625 -91 
Q 2150 -91 1751 65 
Q 1353 222 1050 525 
Q 700 875 529 1319 
Q 359 1763 359 2328 
Q 359 2894 529 3339 
Q 700 3784 1050 4134 
Q 1356 4441 1750 4595 
Q 2144 4750 2625 4750 
Q 3641 4750 4266 4084 
Q 4891 3419 4891 2328 
Q 4891 1769 4719 1320 
Q 4547 872 4197 525 
Q 3891 219 3497 64 
Q 3103 -91 2625 -91 
z
" transform="scale(0.015625)"/>
       <path id="DejaVuSerif-69" d="M 622 4353 
Q 622 4497 726 4603 
Q 831 4709 978 4709 
Q 1122 4709 1226 4603 
Q 1331 4497 1331 4353 
Q 1331 4206 1228 4103 
Q 1125 4000 978 4000 
Q 831 4000 726 4103 
Q 622 4206 622 4353 
z
M 1356 331 
L 1900 331 
L 1900 0 
L 231 0 
L 231 331 
L 781 331 
L 781 2988 
L 231 2988 
L 231 3322 
L 1356 3322 
L 1356 331 
z
" transform="scale(0.015625)"/>
      </defs>
      <use xlink:href="#DejaVuSerif-4f"/>
      <use xlink:href="#DejaVuSerif-70" transform="translate(81.982422 0)"/>
      <use xlink:href="#DejaVuSerif-74" transform="translate(145.996094 0)"/>
      <use xlink:href="#DejaVuSerif-69" transform="translate(186.181641 0)"/>
      <use xlink:href="#DejaVuSerif-6d" transform="translate(218.164062 0)"/>
      <use xlink:href="#DejaVuSerif-61" transform="translate(312.988281 0)"/>
      <use xlink:href="#DejaVuSerif-6c" transform="translate(372.607422 0)"/>
     </g>
    </g>
    <g id="LineCollection_2">
     <path d="M 194.509062 157.460313 
L 194.509062 147.460313 
" style="fill: none; stroke: #1f77b4; stroke-width: 1.5"/>
    </g>
    <g id="line2d_91">
     <path d="M 184.509062 152.460313 
L 204.509062 152.460313 
" style="fill: none; stroke: #1f77b4; stroke-width: 1.5; stroke-linecap: square"/>
    </g>
    <g id="line2d_92"/>
    <g id="text_18">
     <!-- MCR-Q -->
     <g transform="translate(212.509062 155.960313) scale(0.1 -0.1)">
      <use xlink:href="#DejaVuSerif-4d"/>
      <use xlink:href="#DejaVuSerif-43" transform="translate(102.392578 0)"/>
      <use xlink:href="#DejaVuSerif-52" transform="translate(178.90625 0)"/>
      <use xlink:href="#DejaVuSerif-2d" transform="translate(254.199219 0)"/>
      <use xlink:href="#DejaVuSerif-51" transform="translate(287.988281 0)"/>
     </g>
    </g>
   </g>
  </g>
 </g>
 <defs>
  <clipPath id="pd2e7e07619">
   <rect x="39.140313" y="0.72" width="223.2" height="166.32"/>
  </clipPath>
 </defs>
</svg>
