<?xml version="1.0" encoding="utf-8" standalone="no"?>
<!DOCTYPE svg PUBLIC "-//W3C//DTD SVG 1.1//EN"
  "http://www.w3.org/Graphics/SVG/1.1/DTD/svg11.dtd">
<svg xmlns:xlink="http://www.w3.org/1999/xlink" width="266.652584pt" height="203.278675pt" viewBox="0 0 266.652584 203.278675" xmlns="http://www.w3.org/2000/svg" version="1.1">
 <metadata>
  <rdf:RDF xmlns:dc="http://purl.org/dc/elements/1.1/" xmlns:cc="http://creativecommons.org/ns#" xmlns:rdf="http://www.w3.org/1999/02/22-rdf-syntax-ns#">
   <cc:Work>
    <dc:type rdf:resource="http://purl.org/dc/dcmitype/StillImage"/>
    <dc:date>2026-03-10T02:52:08.297771</dc:date>
    <dc:format>image/svg+xml</dc:format>
    <dc:creator>
     <cc:Agent>
      <dc:title>Matplotlib v3.10.8, https://matplotlib.org/</dc:title>
     </cc:Agent>
    </dc:creator>
   </cc:Work>
  </rdf:RDF>
 </metadata>
 <defs>
  <style type="text/css">*{stroke-linejoin: round; stroke-linecap: butt}</style>
 </defs>
 <g id="figure_1">
  <g id="patch_1">
   <path d="M 0 203.278675 
L 266.652584 203.278675 
L 266.652584 0 
L 0 0 
L 0 203.278675 
z
" style="fill: none"/>
  </g>
  <g id="axes_1">
   <g id="patch_2">
    <path d="M 39.140313 170.48055 
L 262.340312 170.48055 
L 262.340312 4.16055 
L 39.140313 4.16055 
L 39.140313 170.48055 
z
" style="fill: none"/>
   </g>
   <g id="matplotlib.axis_1">
    <g id="xtick_1">
     <g id="line2d_1">
      <path d="M 49.148666 170.48055 
L 49.148666 4.16055 
" clip-path="url(#pb418dd5bc4)" style="fill: none; stroke-dasharray: 2.96,1.28; stroke-dashoffset: 0; stroke: #b0b0b0; stroke-opacity: 0.5; stroke-width: 0.8"/>
     </g>
     <g id="line2d_2">
      <defs>
       <path id="m6b62cba5a9" d="M 0 0 
L 0 3.5 
" style="stroke: #000000; stroke-width: 0.8"/>
      </defs>
      <g>
       <use xlink:href="#m6b62cba5a9" x="49.148666" y="170.48055" style="stroke: #000000; stroke-width: 0.8"/>
      </g>
     </g>
     <g id="text_1">
      <!-- 0.0 -->
      <g transform="translate(41.197104 185.078987) scale(0.1 -0.1)">
       <defs>
        <path id="DejaVuSerif-30" d="M 2034 219 
Q 2513 219 2750 744 
Q 2988 1269 2988 2328 
Q 2988 3391 2750 3916 
Q 2513 4441 2034 4441 
Q 1556 4441 1318 3916 
Q 1081 3391 1081 2328 
Q 1081 1269 1318 744 
Q 1556 219 2034 219 
z
M 2034 -91 
Q 1275 -91 848 546 
Q 422 1184 422 2328 
Q 422 3475 848 4112 
Q 1275 4750 2034 4750 
Q 2797 4750 3222 4112 
Q 3647 3475 3647 2328 
Q 3647 1184 3222 546 
Q 2797 -91 2034 -91 
z
" transform="scale(0.015625)"/>
        <path id="DejaVuSerif-2e" d="M 603 325 
Q 603 500 722 622 
Q 841 744 1019 744 
Q 1191 744 1312 622 
Q 1434 500 1434 325 
Q 1434 153 1312 31 
Q 1191 -91 1019 -91 
Q 841 -91 722 29 
Q 603 150 603 325 
z
" transform="scale(0.015625)"/>
       </defs>
       <use xlink:href="#DejaVuSerif-30"/>
       <use xlink:href="#DejaVuSerif-2e" transform="translate(63.623047 0)"/>
       <use xlink:href="#DejaVuSerif-30" transform="translate(95.410156 0)"/>
      </g>
     </g>
    </g>
    <g id="xtick_2">
     <g id="line2d_3">
      <path d="M 83.423851 170.48055 
L 83.423851 4.16055 
" clip-path="url(#pb418dd5bc4)" style="fill: none; stroke-dasharray: 2.96,1.28; stroke-dashoffset: 0; stroke: #b0b0b0; stroke-opacity: 0.5; stroke-width: 0.8"/>
     </g>
     <g id="line2d_4">
      <g>
       <use xlink:href="#m6b62cba5a9" x="83.423851" y="170.48055" style="stroke: #000000; stroke-width: 0.8"/>
      </g>
     </g>
     <g id="text_2">
      <!-- 2.5 -->
      <g transform="translate(75.472288 185.078987) scale(0.1 -0.1)">
       <defs>
        <path id="DejaVuSerif-32" d="M 819 3553 
L 469 3553 
L 469 4384 
Q 803 4563 1142 4656 
Q 1481 4750 1806 4750 
Q 2534 4750 2956 4397 
Q 3378 4044 3378 3438 
Q 3378 2753 2422 1800 
Q 2347 1728 2309 1691 
L 1131 513 
L 3078 513 
L 3078 1088 
L 3444 1088 
L 3444 0 
L 434 0 
L 434 341 
L 1850 1753 
Q 2319 2222 2519 2614 
Q 2719 3006 2719 3438 
Q 2719 3909 2473 4175 
Q 2228 4441 1797 4441 
Q 1350 4441 1106 4219 
Q 863 3997 819 3553 
z
" transform="scale(0.015625)"/>
        <path id="DejaVuSerif-35" d="M 3219 4666 
L 3219 4153 
L 1081 4153 
L 1081 2816 
Q 1244 2928 1461 2984 
Q 1678 3041 1947 3041 
Q 2703 3041 3140 2622 
Q 3578 2203 3578 1478 
Q 3578 738 3136 323 
Q 2694 -91 1894 -91 
Q 1572 -91 1234 -12 
Q 897 66 544 225 
L 544 1131 
L 897 1131 
Q 925 688 1179 453 
Q 1434 219 1894 219 
Q 2388 219 2653 544 
Q 2919 869 2919 1478 
Q 2919 2084 2655 2407 
Q 2391 2731 1894 2731 
Q 1613 2731 1398 2631 
Q 1184 2531 1019 2322 
L 750 2322 
L 750 4666 
L 3219 4666 
z
" transform="scale(0.015625)"/>
       </defs>
       <use xlink:href="#DejaVuSerif-32"/>
       <use xlink:href="#DejaVuSerif-2e" transform="translate(63.623047 0)"/>
       <use xlink:href="#DejaVuSerif-35" transform="translate(95.410156 0)"/>
      </g>
     </g>
    </g>
    <g id="xtick_3">
     <g id="line2d_5">
      <path d="M 117.699035 170.48055 
L 117.699035 4.16055 
" clip-path="url(#pb418dd5bc4)" style="fill: none; stroke-dasharray: 2.96,1.28; stroke-dashoffset: 0; stroke: #b0b0b0; stroke-opacity: 0.5; stroke-width: 0.8"/>
     </g>
     <g id="line2d_6">
      <g>
       <use xlink:href="#m6b62cba5a9" x="117.699035" y="170.48055" style="stroke: #000000; stroke-width: 0.8"/>
      </g>
     </g>
     <g id="text_3">
      <!-- 5.0 -->
      <g transform="translate(109.747472 185.078987) scale(0.1 -0.1)">
       <use xlink:href="#DejaVuSerif-35"/>
       <use xlink:href="#DejaVuSerif-2e" transform="translate(63.623047 0)"/>
       <use xlink:href="#DejaVuSerif-30" transform="translate(95.410156 0)"/>
      </g>
     </g>
    </g>
    <g id="xtick_4">
     <g id="line2d_7">
      <path d="M 151.974219 170.48055 
L 151.974219 4.16055 
" clip-path="url(#pb418dd5bc4)" style="fill: none; stroke-dasharray: 2.96,1.28; stroke-dashoffset: 0; stroke: #b0b0b0; stroke-opacity: 0.5; stroke-width: 0.8"/>
     </g>
     <g id="line2d_8">
      <g>
       <use xlink:href="#m6b62cba5a9" x="151.974219" y="170.48055" style="stroke: #000000; stroke-width: 0.8"/>
      </g>
     </g>
     <g id="text_4">
      <!-- 7.5 -->
      <g transform="translate(144.022657 185.078987) scale(0.1 -0.1)">
       <defs>
        <path id="DejaVuSerif-37" d="M 3609 4347 
L 1784 0 
L 1319 0 
L 3059 4153 
L 903 4153 
L 903 3578 
L 538 3578 
L 538 4666 
L 3609 4666 
L 3609 4347 
z
" transform="scale(0.015625)"/>
       </defs>
       <use xlink:href="#DejaVuSerif-37"/>
       <use xlink:href="#DejaVuSerif-2e" transform="translate(63.623047 0)"/>
       <use xlink:href="#DejaVuSerif-35" transform="translate(95.410156 0)"/>
      </g>
     </g>
    </g>
    <g id="xtick_5">
     <g id="line2d_9">
      <path d="M 186.249403 170.48055 
L 186.249403 4.16055 
" clip-path="url(#pb418dd5bc4)" style="fill: none; stroke-dasharray: 2.96,1.28; stroke-dashoffset: 0; stroke: #b0b0b0; stroke-opacity: 0.5; stroke-width: 0.8"/>
     </g>
     <g id="line2d_10">
      <g>
       <use xlink:href="#m6b62cba5a9" x="186.249403" y="170.48055" style="stroke: #000000; stroke-width: 0.8"/>
      </g>
     </g>
     <g id="text_5">
      <!-- 10.0 -->
      <g transform="translate(175.116591 185.078987) scale(0.1 -0.1)">
       <defs>
        <path id="DejaVuSerif-31" d="M 909 0 
L 909 331 
L 1722 331 
L 1722 4213 
L 781 3603 
L 781 4013 
L 1919 4750 
L 2350 4750 
L 2350 331 
L 3163 331 
L 3163 0 
L 909 0 
z
" transform="scale(0.015625)"/>
       </defs>
       <use xlink:href="#DejaVuSerif-31"/>
       <use xlink:href="#DejaVuSerif-30" transform="translate(63.623047 0)"/>
       <use xlink:href="#DejaVuSerif-2e" transform="translate(127.246094 0)"/>
       <use xlink:href="#DejaVuSerif-30" transform="translate(159.033203 0)"/>
      </g>
     </g>
    </g>
    <g id="xtick_6">
     <g id="line2d_11">
      <path d="M 220.524588 170.48055 
L 220.524588 4.16055 
" clip-path="url(#pb418dd5bc4)" style="fill: none; stroke-dasharray: 2.96,1.28; stroke-dashoffset: 0; stroke: #b0b0b0; stroke-opacity: 0.5; stroke-width: 0.8"/>
     </g>
     <g id="line2d_12">
      <g>
       <use xlink:href="#m6b62cba5a9" x="220.524588" y="170.48055" style="stroke: #000000; stroke-width: 0.8"/>
      </g>
     </g>
     <g id="text_6">
      <!-- 12.5 -->
      <g transform="translate(209.391775 185.078987) scale(0.1 -0.1)">
       <use xlink:href="#DejaVuSerif-31"/>
       <use xlink:href="#DejaVuSerif-32" transform="translate(63.623047 0)"/>
       <use xlink:href="#DejaVuSerif-2e" transform="translate(127.246094 0)"/>
       <use xlink:href="#DejaVuSerif-35" transform="translate(159.033203 0)"/>
      </g>
     </g>
    </g>
    <g id="xtick_7">
     <g id="line2d_13">
      <path d="M 254.799772 170.48055 
L 254.799772 4.16055 
" clip-path="url(#pb418dd5bc4)" style="fill: none; stroke-dasharray: 2.96,1.28; stroke-dashoffset: 0; stroke: #b0b0b0; stroke-opacity: 0.5; stroke-width: 0.8"/>
     </g>
     <g id="line2d_14">
      <g>
       <use xlink:href="#m6b62cba5a9" x="254.799772" y="170.48055" style="stroke: #000000; stroke-width: 0.8"/>
      </g>
     </g>
     <g id="text_7">
      <!-- 15.0 -->
      <g transform="translate(243.666959 185.078987) scale(0.1 -0.1)">
       <use xlink:href="#DejaVuSerif-31"/>
       <use xlink:href="#DejaVuSerif-35" transform="translate(63.623047 0)"/>
       <use xlink:href="#DejaVuSerif-2e" transform="translate(127.246094 0)"/>
       <use xlink:href="#DejaVuSerif-30" transform="translate(159.033203 0)"/>
      </g>
     </g>
    </g>
    <g id="text_8">
     <!-- Mean SKR demand $\bar{K}$ (kbps) -->
     <g transform="translate(79.690313 200.458675) scale(0.1 -0.1)">
      <defs>
       <path id="DejaVuSerif-4d" d="M 353 0 
L 353 331 
L 947 331 
L 947 4331 
L 319 4331 
L 319 4666 
L 1678 4666 
L 3316 1344 
L 4953 4666 
L 6228 4666 
L 6228 4331 
L 5606 4331 
L 5606 331 
L 6203 331 
L 6203 0 
L 4378 0 
L 4378 331 
L 4972 331 
L 4972 3938 
L 3372 684 
L 2931 684 
L 1331 3938 
L 1331 331 
L 1925 331 
L 1925 0 
L 353 0 
z
" transform="scale(0.015625)"/>
       <path id="DejaVuSerif-65" d="M 3469 1600 
L 991 1600 
L 991 1575 
Q 991 903 1244 561 
Q 1497 219 1991 219 
Q 2369 219 2611 417 
Q 2853 616 2950 1006 
L 3413 1006 
Q 3275 459 2904 184 
Q 2534 -91 1931 -91 
Q 1203 -91 761 389 
Q 319 869 319 1663 
Q 319 2450 753 2931 
Q 1188 3413 1894 3413 
Q 2647 3413 3050 2948 
Q 3453 2484 3469 1600 
z
M 2791 1931 
Q 2772 2513 2545 2808 
Q 2319 3103 1894 3103 
Q 1497 3103 1269 2806 
Q 1041 2509 991 1931 
L 2791 1931 
z
" transform="scale(0.015625)"/>
       <path id="DejaVuSerif-61" d="M 2547 1044 
L 2547 1747 
L 1806 1747 
Q 1378 1747 1168 1562 
Q 959 1378 959 997 
Q 959 650 1171 447 
Q 1384 244 1747 244 
Q 2106 244 2326 466 
Q 2547 688 2547 1044 
z
M 3122 2075 
L 3122 331 
L 3634 331 
L 3634 0 
L 2547 0 
L 2547 359 
Q 2356 128 2106 18 
Q 1856 -91 1522 -91 
Q 969 -91 644 203 
Q 319 497 319 997 
Q 319 1513 691 1797 
Q 1063 2081 1741 2081 
L 2547 2081 
L 2547 2309 
Q 2547 2688 2317 2895 
Q 2088 3103 1672 3103 
Q 1328 3103 1125 2947 
Q 922 2791 872 2484 
L 575 2484 
L 575 3156 
Q 875 3284 1158 3348 
Q 1441 3413 1709 3413 
Q 2400 3413 2761 3070 
Q 3122 2728 3122 2075 
z
" transform="scale(0.015625)"/>
       <path id="DejaVuSerif-6e" d="M 263 0 
L 263 331 
L 781 331 
L 781 2988 
L 231 2988 
L 231 3322 
L 1356 3322 
L 1356 2731 
Q 1516 3069 1770 3241 
Q 2025 3413 2363 3413 
Q 2913 3413 3172 3097 
Q 3431 2781 3431 2113 
L 3431 331 
L 3944 331 
L 3944 0 
L 2356 0 
L 2356 331 
L 2853 331 
L 2853 1931 
Q 2853 2541 2703 2767 
Q 2553 2994 2175 2994 
Q 1775 2994 1565 2701 
Q 1356 2409 1356 1850 
L 1356 331 
L 1856 331 
L 1856 0 
L 263 0 
z
" transform="scale(0.015625)"/>
       <path id="DejaVuSerif-20" transform="scale(0.015625)"/>
       <path id="DejaVuSerif-53" d="M 594 225 
L 594 1288 
L 953 1284 
Q 969 753 1261 498 
Q 1553 244 2150 244 
Q 2706 244 2998 464 
Q 3291 684 3291 1106 
Q 3291 1444 3114 1625 
Q 2938 1806 2369 1978 
L 1753 2163 
Q 1084 2366 811 2669 
Q 538 2972 538 3500 
Q 538 4094 959 4422 
Q 1381 4750 2144 4750 
Q 2469 4750 2856 4679 
Q 3244 4609 3681 4475 
L 3681 3481 
L 3328 3481 
Q 3275 3975 2998 4195 
Q 2722 4416 2156 4416 
Q 1663 4416 1405 4214 
Q 1147 4013 1147 3628 
Q 1147 3294 1340 3103 
Q 1534 2913 2163 2725 
L 2741 2553 
Q 3375 2363 3645 2067 
Q 3916 1772 3916 1275 
Q 3916 597 3481 253 
Q 3047 -91 2188 -91 
Q 1803 -91 1404 -12 
Q 1006 66 594 225 
z
" transform="scale(0.015625)"/>
       <path id="DejaVuSerif-4b" d="M 353 0 
L 353 331 
L 947 331 
L 947 4331 
L 353 4331 
L 353 4666 
L 2175 4666 
L 2175 4331 
L 1581 4331 
L 1581 2566 
L 3591 4331 
L 3084 4331 
L 3084 4666 
L 4634 4666 
L 4634 4331 
L 4109 4331 
L 2106 2572 
L 4347 331 
L 4878 331 
L 4878 0 
L 3794 0 
L 1581 2216 
L 1581 331 
L 2175 331 
L 2175 0 
L 353 0 
z
" transform="scale(0.015625)"/>
       <path id="DejaVuSerif-52" d="M 3066 2316 
Q 3284 2256 3442 2114 
Q 3600 1972 3725 1716 
L 4403 331 
L 4972 331 
L 4972 0 
L 3872 0 
L 3144 1484 
Q 2934 1916 2759 2042 
Q 2584 2169 2278 2169 
L 1581 2169 
L 1581 331 
L 2241 331 
L 2241 0 
L 353 0 
L 353 331 
L 947 331 
L 947 4331 
L 353 4331 
L 353 4666 
L 2719 4666 
Q 3400 4666 3770 4341 
Q 4141 4016 4141 3419 
Q 4141 2938 3870 2661 
Q 3600 2384 3066 2316 
z
M 1581 2503 
L 2503 2503 
Q 2975 2503 3200 2726 
Q 3425 2950 3425 3419 
Q 3425 3888 3200 4109 
Q 2975 4331 2503 4331 
L 1581 4331 
L 1581 2503 
z
" transform="scale(0.015625)"/>
       <path id="DejaVuSerif-64" d="M 3359 331 
L 3909 331 
L 3909 0 
L 2784 0 
L 2784 519 
Q 2616 206 2355 57 
Q 2094 -91 1709 -91 
Q 1097 -91 708 395 
Q 319 881 319 1663 
Q 319 2444 706 2928 
Q 1094 3413 1709 3413 
Q 2094 3413 2355 3264 
Q 2616 3116 2784 2803 
L 2784 4531 
L 2241 4531 
L 2241 4863 
L 3359 4863 
L 3359 331 
z
M 2784 1497 
L 2784 1825 
Q 2784 2422 2554 2737 
Q 2325 3053 1888 3053 
Q 1444 3053 1217 2703 
Q 991 2353 991 1663 
Q 991 975 1217 622 
Q 1444 269 1888 269 
Q 2325 269 2554 583 
Q 2784 897 2784 1497 
z
" transform="scale(0.015625)"/>
       <path id="DejaVuSerif-6d" d="M 3316 2675 
Q 3481 3041 3739 3227 
Q 3997 3413 4341 3413 
Q 4863 3413 5119 3089 
Q 5375 2766 5375 2113 
L 5375 331 
L 5894 331 
L 5894 0 
L 4300 0 
L 4300 331 
L 4800 331 
L 4800 2047 
Q 4800 2556 4650 2772 
Q 4500 2988 4153 2988 
Q 3769 2988 3567 2697 
Q 3366 2406 3366 1850 
L 3366 331 
L 3866 331 
L 3866 0 
L 2291 0 
L 2291 331 
L 2791 331 
L 2791 2069 
Q 2791 2566 2641 2777 
Q 2491 2988 2144 2988 
Q 1759 2988 1557 2697 
Q 1356 2406 1356 1850 
L 1356 331 
L 1856 331 
L 1856 0 
L 263 0 
L 263 331 
L 781 331 
L 781 2994 
L 231 2994 
L 231 3322 
L 1356 3322 
L 1356 2731 
Q 1516 3063 1762 3238 
Q 2009 3413 2322 3413 
Q 2709 3413 2968 3220 
Q 3228 3028 3316 2675 
z
" transform="scale(0.015625)"/>
       <path id="DejaVuSans-304" d="M -2518 4769 
L -650 4769 
L -650 4306 
L -2518 4306 
L -2518 4769 
z
" transform="scale(0.015625)"/>
       <path id="DejaVuSans-Oblique-4b" d="M 1081 4666 
L 1716 4666 
L 1331 2700 
L 3781 4666 
L 4622 4666 
L 1850 2438 
L 3878 0 
L 3109 0 
L 1247 2272 
L 806 0 
L 172 0 
L 1081 4666 
z
" transform="scale(0.015625)"/>
       <path id="DejaVuSerif-28" d="M 2041 -997 
Q 1281 -656 893 83 
Q 506 822 506 1931 
Q 506 3044 893 3783 
Q 1281 4522 2041 4863 
L 2041 4556 
Q 1559 4225 1350 3623 
Q 1141 3022 1141 1931 
Q 1141 844 1350 242 
Q 1559 -359 2041 -691 
L 2041 -997 
z
" transform="scale(0.015625)"/>
       <path id="DejaVuSerif-6b" d="M 1831 0 
L 219 0 
L 219 331 
L 738 331 
L 738 4531 
L 184 4531 
L 184 4863 
L 1313 4863 
L 1313 1697 
L 2713 2988 
L 2234 2988 
L 2234 3322 
L 3738 3322 
L 3738 2988 
L 3169 2988 
L 2181 2075 
L 3444 331 
L 3922 331 
L 3922 0 
L 2284 0 
L 2284 331 
L 2759 331 
L 1766 1697 
L 1313 1275 
L 1313 331 
L 1831 331 
L 1831 0 
z
" transform="scale(0.015625)"/>
       <path id="DejaVuSerif-62" d="M 738 331 
L 738 4531 
L 184 4531 
L 184 4863 
L 1313 4863 
L 1313 2803 
Q 1481 3116 1742 3264 
Q 2003 3413 2388 3413 
Q 3000 3413 3387 2928 
Q 3775 2444 3775 1663 
Q 3775 881 3387 395 
Q 3000 -91 2388 -91 
Q 2003 -91 1742 57 
Q 1481 206 1313 519 
L 1313 0 
L 184 0 
L 184 331 
L 738 331 
z
M 1313 1497 
Q 1313 897 1542 583 
Q 1772 269 2209 269 
Q 2650 269 2876 622 
Q 3103 975 3103 1663 
Q 3103 2353 2876 2703 
Q 2650 3053 2209 3053 
Q 1772 3053 1542 2737 
Q 1313 2422 1313 1825 
L 1313 1497 
z
" transform="scale(0.015625)"/>
       <path id="DejaVuSerif-70" d="M 1313 1825 
L 1313 1497 
Q 1313 897 1542 583 
Q 1772 269 2209 269 
Q 2650 269 2876 622 
Q 3103 975 3103 1663 
Q 3103 2353 2876 2703 
Q 2650 3053 2209 3053 
Q 1772 3053 1542 2737 
Q 1313 2422 1313 1825 
z
M 738 2988 
L 184 2988 
L 184 3322 
L 1313 3322 
L 1313 2803 
Q 1481 3116 1742 3264 
Q 2003 3413 2388 3413 
Q 3000 3413 3387 2928 
Q 3775 2444 3775 1663 
Q 3775 881 3387 395 
Q 3000 -91 2388 -91 
Q 2003 -91 1742 57 
Q 1481 206 1313 519 
L 1313 -997 
L 1856 -997 
L 1856 -1331 
L 184 -1331 
L 184 -997 
L 738 -997 
L 738 2988 
z
" transform="scale(0.015625)"/>
       <path id="DejaVuSerif-73" d="M 359 184 
L 359 959 
L 691 959 
Q 703 588 923 403 
Q 1144 219 1575 219 
Q 1963 219 2166 364 
Q 2369 509 2369 788 
Q 2369 1006 2220 1140 
Q 2072 1275 1594 1428 
L 1178 1569 
Q 750 1706 558 1912 
Q 366 2119 366 2438 
Q 366 2894 700 3153 
Q 1034 3413 1625 3413 
Q 1888 3413 2178 3344 
Q 2469 3275 2778 3144 
L 2778 2419 
L 2447 2419 
Q 2434 2741 2221 2922 
Q 2009 3103 1644 3103 
Q 1281 3103 1095 2975 
Q 909 2847 909 2591 
Q 909 2381 1050 2254 
Q 1191 2128 1613 1997 
L 2069 1856 
Q 2541 1709 2748 1489 
Q 2956 1269 2956 922 
Q 2956 450 2595 179 
Q 2234 -91 1600 -91 
Q 1278 -91 972 -22 
Q 666 47 359 184 
z
" transform="scale(0.015625)"/>
       <path id="DejaVuSerif-29" d="M 453 -997 
L 453 -691 
Q 934 -359 1145 242 
Q 1356 844 1356 1931 
Q 1356 3022 1145 3623 
Q 934 4225 453 4556 
L 453 4863 
Q 1216 4522 1603 3783 
Q 1991 3044 1991 1931 
Q 1991 822 1603 83 
Q 1216 -656 453 -997 
z
" transform="scale(0.015625)"/>
      </defs>
      <use xlink:href="#DejaVuSerif-4d" transform="translate(0 0.359375)"/>
      <use xlink:href="#DejaVuSerif-65" transform="translate(102.392578 0.359375)"/>
      <use xlink:href="#DejaVuSerif-61" transform="translate(161.572266 0.359375)"/>
      <use xlink:href="#DejaVuSerif-6e" transform="translate(221.191406 0.359375)"/>
      <use xlink:href="#DejaVuSerif-20" transform="translate(285.595703 0.359375)"/>
      <use xlink:href="#DejaVuSerif-53" transform="translate(317.382812 0.359375)"/>
      <use xlink:href="#DejaVuSerif-4b" transform="translate(385.888672 0.359375)"/>
      <use xlink:href="#DejaVuSerif-52" transform="translate(460.595703 0.359375)"/>
      <use xlink:href="#DejaVuSerif-20" transform="translate(535.888672 0.359375)"/>
      <use xlink:href="#DejaVuSerif-64" transform="translate(567.675781 0.359375)"/>
      <use xlink:href="#DejaVuSerif-65" transform="translate(631.689453 0.359375)"/>
      <use xlink:href="#DejaVuSerif-6d" transform="translate(690.869141 0.359375)"/>
      <use xlink:href="#DejaVuSerif-61" transform="translate(785.693359 0.359375)"/>
      <use xlink:href="#DejaVuSerif-6e" transform="translate(845.3125 0.359375)"/>
      <use xlink:href="#DejaVuSerif-64" transform="translate(909.716797 0.359375)"/>
      <use xlink:href="#DejaVuSerif-20" transform="translate(973.730469 0.359375)"/>
      <use xlink:href="#DejaVuSans-304" transform="translate(1071.255371 18.484375)"/>
      <use xlink:href="#DejaVuSans-Oblique-4b" transform="translate(1005.517578 0.359375)"/>
      <use xlink:href="#DejaVuSerif-20" transform="translate(1071.09375 0.359375)"/>
      <use xlink:href="#DejaVuSerif-28" transform="translate(1102.880859 0.359375)"/>
      <use xlink:href="#DejaVuSerif-6b" transform="translate(1141.894531 0.359375)"/>
      <use xlink:href="#DejaVuSerif-62" transform="translate(1202.490234 0.359375)"/>
      <use xlink:href="#DejaVuSerif-70" transform="translate(1266.503906 0.359375)"/>
      <use xlink:href="#DejaVuSerif-73" transform="translate(1330.517578 0.359375)"/>
      <use xlink:href="#DejaVuSerif-29" transform="translate(1381.835938 0.359375)"/>
     </g>
    </g>
   </g>
   <g id="matplotlib.axis_2">
    <g id="ytick_1">
     <g id="line2d_15">
      <path d="M 39.140313 139.974901 
L 262.340312 139.974901 
" clip-path="url(#pb418dd5bc4)" style="fill: none; stroke-dasharray: 2.96,1.28; stroke-dashoffset: 0; stroke: #b0b0b0; stroke-opacity: 0.5; stroke-width: 0.8"/>
     </g>
     <g id="line2d_16">
      <defs>
       <path id="mf290f2d18d" d="M 0 0 
L -3.5 0 
" style="stroke: #000000; stroke-width: 0.8"/>
      </defs>
      <g>
       <use xlink:href="#mf290f2d18d" x="39.140313" y="139.974901" style="stroke: #000000; stroke-width: 0.8"/>
      </g>
     </g>
     <g id="text_9">
      <!-- $\mathdefault{10^{1}}$ -->
      <g transform="translate(14.540313 143.77412) scale(0.1 -0.1)">
       <use xlink:href="#DejaVuSerif-31" transform="translate(0 0.7125)"/>
       <use xlink:href="#DejaVuSerif-30" transform="translate(63.623047 0.7125)"/>
       <use xlink:href="#DejaVuSerif-31" transform="translate(128.154453 37.046875) scale(0.7)"/>
      </g>
     </g>
    </g>
    <g id="ytick_2">
     <g id="line2d_17">
      <path d="M 39.140313 94.823007 
L 262.340312 94.823007 
" clip-path="url(#pb418dd5bc4)" style="fill: none; stroke-dasharray: 2.96,1.28; stroke-dashoffset: 0; stroke: #b0b0b0; stroke-opacity: 0.5; stroke-width: 0.8"/>
     </g>
     <g id="line2d_18">
      <g>
       <use xlink:href="#mf290f2d18d" x="39.140313" y="94.823007" style="stroke: #000000; stroke-width: 0.8"/>
      </g>
     </g>
     <g id="text_10">
      <!-- $\mathdefault{10^{2}}$ -->
      <g transform="translate(14.540313 98.622226) scale(0.1 -0.1)">
       <use xlink:href="#DejaVuSerif-31" transform="translate(0 0.7125)"/>
       <use xlink:href="#DejaVuSerif-30" transform="translate(63.623047 0.7125)"/>
       <use xlink:href="#DejaVuSerif-32" transform="translate(128.154453 37.046875) scale(0.7)"/>
      </g>
     </g>
    </g>
    <g id="ytick_3">
     <g id="line2d_19">
      <path d="M 39.140313 49.671113 
L 262.340312 49.671113 
" clip-path="url(#pb418dd5bc4)" style="fill: none; stroke-dasharray: 2.96,1.28; stroke-dashoffset: 0; stroke: #b0b0b0; stroke-opacity: 0.5; stroke-width: 0.8"/>
     </g>
     <g id="line2d_20">
      <g>
       <use xlink:href="#mf290f2d18d" x="39.140313" y="49.671113" style="stroke: #000000; stroke-width: 0.8"/>
      </g>
     </g>
     <g id="text_11">
      <!-- $\mathdefault{10^{3}}$ -->
      <g transform="translate(14.540313 53.470332) scale(0.1 -0.1)">
       <defs>
        <path id="DejaVuSerif-33" d="M 622 4469 
Q 988 4606 1323 4678 
Q 1659 4750 1953 4750 
Q 2638 4750 3022 4454 
Q 3406 4159 3406 3634 
Q 3406 3213 3140 2930 
Q 2875 2647 2388 2547 
Q 2963 2466 3280 2130 
Q 3597 1794 3597 1259 
Q 3597 606 3158 257 
Q 2719 -91 1894 -91 
Q 1528 -91 1179 -12 
Q 831 66 488 225 
L 488 1131 
L 838 1131 
Q 869 681 1141 450 
Q 1413 219 1906 219 
Q 2384 219 2661 495 
Q 2938 772 2938 1253 
Q 2938 1803 2653 2086 
Q 2369 2369 1819 2369 
L 1522 2369 
L 1522 2688 
L 1678 2688 
Q 2225 2688 2498 2914 
Q 2772 3141 2772 3597 
Q 2772 4006 2547 4223 
Q 2322 4441 1900 4441 
Q 1478 4441 1245 4241 
Q 1013 4041 972 3647 
L 622 3647 
L 622 4469 
z
" transform="scale(0.015625)"/>
       </defs>
       <use xlink:href="#DejaVuSerif-31" transform="translate(0 0.7125)"/>
       <use xlink:href="#DejaVuSerif-30" transform="translate(63.623047 0.7125)"/>
       <use xlink:href="#DejaVuSerif-33" transform="translate(128.154453 37.046875) scale(0.7)"/>
      </g>
     </g>
    </g>
    <g id="ytick_4">
     <g id="line2d_21">
      <path d="M 39.140313 4.519219 
L 262.340312 4.519219 
" clip-path="url(#pb418dd5bc4)" style="fill: none; stroke-dasharray: 2.96,1.28; stroke-dashoffset: 0; stroke: #b0b0b0; stroke-opacity: 0.5; stroke-width: 0.8"/>
     </g>
     <g id="line2d_22">
      <g>
       <use xlink:href="#mf290f2d18d" x="39.140313" y="4.519219" style="stroke: #000000; stroke-width: 0.8"/>
      </g>
     </g>
     <g id="text_12">
      <!-- $\mathdefault{10^{4}}$ -->
      <g transform="translate(14.540313 8.318437) scale(0.1 -0.1)">
       <defs>
        <path id="DejaVuSerif-34" d="M 2234 1581 
L 2234 4063 
L 641 1581 
L 2234 1581 
z
M 3609 0 
L 1484 0 
L 1484 331 
L 2234 331 
L 2234 1247 
L 197 1247 
L 197 1588 
L 2241 4750 
L 2859 4750 
L 2859 1581 
L 3750 1581 
L 3750 1247 
L 2859 1247 
L 2859 331 
L 3609 331 
L 3609 0 
z
" transform="scale(0.015625)"/>
       </defs>
       <use xlink:href="#DejaVuSerif-31" transform="translate(0 0.7125)"/>
       <use xlink:href="#DejaVuSerif-30" transform="translate(63.623047 0.7125)"/>
       <use xlink:href="#DejaVuSerif-34" transform="translate(128.154453 37.046875) scale(0.7)"/>
      </g>
     </g>
    </g>
    <g id="ytick_5">
     <g id="line2d_23">
      <path d="M 39.140313 163.583867 
L 262.340312 163.583867 
" clip-path="url(#pb418dd5bc4)" style="fill: none; stroke-dasharray: 2.96,1.28; stroke-dashoffset: 0; stroke: #b0b0b0; stroke-opacity: 0.5; stroke-width: 0.8"/>
     </g>
     <g id="line2d_24">
      <defs>
       <path id="m7de8417f28" d="M 0 0 
L -2 0 
" style="stroke: #000000; stroke-width: 0.6"/>
      </defs>
      <g>
       <use xlink:href="#m7de8417f28" x="39.140313" y="163.583867" style="stroke: #000000; stroke-width: 0.6"/>
      </g>
     </g>
    </g>
    <g id="ytick_6">
     <g id="line2d_25">
      <path d="M 39.140313 157.942646 
L 262.340312 157.942646 
" clip-path="url(#pb418dd5bc4)" style="fill: none; stroke-dasharray: 2.96,1.28; stroke-dashoffset: 0; stroke: #b0b0b0; stroke-opacity: 0.5; stroke-width: 0.8"/>
     </g>
     <g id="line2d_26">
      <g>
       <use xlink:href="#m7de8417f28" x="39.140313" y="157.942646" style="stroke: #000000; stroke-width: 0.6"/>
      </g>
     </g>
    </g>
    <g id="ytick_7">
     <g id="line2d_27">
      <path d="M 39.140313 153.566976 
L 262.340312 153.566976 
" clip-path="url(#pb418dd5bc4)" style="fill: none; stroke-dasharray: 2.96,1.28; stroke-dashoffset: 0; stroke: #b0b0b0; stroke-opacity: 0.5; stroke-width: 0.8"/>
     </g>
     <g id="line2d_28">
      <g>
       <use xlink:href="#m7de8417f28" x="39.140313" y="153.566976" style="stroke: #000000; stroke-width: 0.6"/>
      </g>
     </g>
    </g>
    <g id="ytick_8">
     <g id="line2d_29">
      <path d="M 39.140313 149.991792 
L 262.340312 149.991792 
" clip-path="url(#pb418dd5bc4)" style="fill: none; stroke-dasharray: 2.96,1.28; stroke-dashoffset: 0; stroke: #b0b0b0; stroke-opacity: 0.5; stroke-width: 0.8"/>
     </g>
     <g id="line2d_30">
      <g>
       <use xlink:href="#m7de8417f28" x="39.140313" y="149.991792" style="stroke: #000000; stroke-width: 0.6"/>
      </g>
     </g>
    </g>
    <g id="ytick_9">
     <g id="line2d_31">
      <path d="M 39.140313 146.969018 
L 262.340312 146.969018 
" clip-path="url(#pb418dd5bc4)" style="fill: none; stroke-dasharray: 2.96,1.28; stroke-dashoffset: 0; stroke: #b0b0b0; stroke-opacity: 0.5; stroke-width: 0.8"/>
     </g>
     <g id="line2d_32">
      <g>
       <use xlink:href="#m7de8417f28" x="39.140313" y="146.969018" style="stroke: #000000; stroke-width: 0.6"/>
      </g>
     </g>
    </g>
    <g id="ytick_10">
     <g id="line2d_33">
      <path d="M 39.140313 144.350572 
L 262.340312 144.350572 
" clip-path="url(#pb418dd5bc4)" style="fill: none; stroke-dasharray: 2.96,1.28; stroke-dashoffset: 0; stroke: #b0b0b0; stroke-opacity: 0.5; stroke-width: 0.8"/>
     </g>
     <g id="line2d_34">
      <g>
       <use xlink:href="#m7de8417f28" x="39.140313" y="144.350572" style="stroke: #000000; stroke-width: 0.6"/>
      </g>
     </g>
    </g>
    <g id="ytick_11">
     <g id="line2d_35">
      <path d="M 39.140313 142.040938 
L 262.340312 142.040938 
" clip-path="url(#pb418dd5bc4)" style="fill: none; stroke-dasharray: 2.96,1.28; stroke-dashoffset: 0; stroke: #b0b0b0; stroke-opacity: 0.5; stroke-width: 0.8"/>
     </g>
     <g id="line2d_36">
      <g>
       <use xlink:href="#m7de8417f28" x="39.140313" y="142.040938" style="stroke: #000000; stroke-width: 0.6"/>
      </g>
     </g>
    </g>
    <g id="ytick_12">
     <g id="line2d_37">
      <path d="M 39.140313 126.382827 
L 262.340312 126.382827 
" clip-path="url(#pb418dd5bc4)" style="fill: none; stroke-dasharray: 2.96,1.28; stroke-dashoffset: 0; stroke: #b0b0b0; stroke-opacity: 0.5; stroke-width: 0.8"/>
     </g>
     <g id="line2d_38">
      <g>
       <use xlink:href="#m7de8417f28" x="39.140313" y="126.382827" style="stroke: #000000; stroke-width: 0.6"/>
      </g>
     </g>
    </g>
    <g id="ytick_13">
     <g id="line2d_39">
      <path d="M 39.140313 118.431973 
L 262.340312 118.431973 
" clip-path="url(#pb418dd5bc4)" style="fill: none; stroke-dasharray: 2.96,1.28; stroke-dashoffset: 0; stroke: #b0b0b0; stroke-opacity: 0.5; stroke-width: 0.8"/>
     </g>
     <g id="line2d_40">
      <g>
       <use xlink:href="#m7de8417f28" x="39.140313" y="118.431973" style="stroke: #000000; stroke-width: 0.6"/>
      </g>
     </g>
    </g>
    <g id="ytick_14">
     <g id="line2d_41">
      <path d="M 39.140313 112.790752 
L 262.340312 112.790752 
" clip-path="url(#pb418dd5bc4)" style="fill: none; stroke-dasharray: 2.96,1.28; stroke-dashoffset: 0; stroke: #b0b0b0; stroke-opacity: 0.5; stroke-width: 0.8"/>
     </g>
     <g id="line2d_42">
      <g>
       <use xlink:href="#m7de8417f28" x="39.140313" y="112.790752" style="stroke: #000000; stroke-width: 0.6"/>
      </g>
     </g>
    </g>
    <g id="ytick_15">
     <g id="line2d_43">
      <path d="M 39.140313 108.415081 
L 262.340312 108.415081 
" clip-path="url(#pb418dd5bc4)" style="fill: none; stroke-dasharray: 2.96,1.28; stroke-dashoffset: 0; stroke: #b0b0b0; stroke-opacity: 0.5; stroke-width: 0.8"/>
     </g>
     <g id="line2d_44">
      <g>
       <use xlink:href="#m7de8417f28" x="39.140313" y="108.415081" style="stroke: #000000; stroke-width: 0.6"/>
      </g>
     </g>
    </g>
    <g id="ytick_16">
     <g id="line2d_45">
      <path d="M 39.140313 104.839898 
L 262.340312 104.839898 
" clip-path="url(#pb418dd5bc4)" style="fill: none; stroke-dasharray: 2.96,1.28; stroke-dashoffset: 0; stroke: #b0b0b0; stroke-opacity: 0.5; stroke-width: 0.8"/>
     </g>
     <g id="line2d_46">
      <g>
       <use xlink:href="#m7de8417f28" x="39.140313" y="104.839898" style="stroke: #000000; stroke-width: 0.6"/>
      </g>
     </g>
    </g>
    <g id="ytick_17">
     <g id="line2d_47">
      <path d="M 39.140313 101.817124 
L 262.340312 101.817124 
" clip-path="url(#pb418dd5bc4)" style="fill: none; stroke-dasharray: 2.96,1.28; stroke-dashoffset: 0; stroke: #b0b0b0; stroke-opacity: 0.5; stroke-width: 0.8"/>
     </g>
     <g id="line2d_48">
      <g>
       <use xlink:href="#m7de8417f28" x="39.140313" y="101.817124" style="stroke: #000000; stroke-width: 0.6"/>
      </g>
     </g>
    </g>
    <g id="ytick_18">
     <g id="line2d_49">
      <path d="M 39.140313 99.198678 
L 262.340312 99.198678 
" clip-path="url(#pb418dd5bc4)" style="fill: none; stroke-dasharray: 2.96,1.28; stroke-dashoffset: 0; stroke: #b0b0b0; stroke-opacity: 0.5; stroke-width: 0.8"/>
     </g>
     <g id="line2d_50">
      <g>
       <use xlink:href="#m7de8417f28" x="39.140313" y="99.198678" style="stroke: #000000; stroke-width: 0.6"/>
      </g>
     </g>
    </g>
    <g id="ytick_19">
     <g id="line2d_51">
      <path d="M 39.140313 96.889044 
L 262.340312 96.889044 
" clip-path="url(#pb418dd5bc4)" style="fill: none; stroke-dasharray: 2.96,1.28; stroke-dashoffset: 0; stroke: #b0b0b0; stroke-opacity: 0.5; stroke-width: 0.8"/>
     </g>
     <g id="line2d_52">
      <g>
       <use xlink:href="#m7de8417f28" x="39.140313" y="96.889044" style="stroke: #000000; stroke-width: 0.6"/>
      </g>
     </g>
    </g>
    <g id="ytick_20">
     <g id="line2d_53">
      <path d="M 39.140313 81.230932 
L 262.340312 81.230932 
" clip-path="url(#pb418dd5bc4)" style="fill: none; stroke-dasharray: 2.96,1.28; stroke-dashoffset: 0; stroke: #b0b0b0; stroke-opacity: 0.5; stroke-width: 0.8"/>
     </g>
     <g id="line2d_54">
      <g>
       <use xlink:href="#m7de8417f28" x="39.140313" y="81.230932" style="stroke: #000000; stroke-width: 0.6"/>
      </g>
     </g>
    </g>
    <g id="ytick_21">
     <g id="line2d_55">
      <path d="M 39.140313 73.280079 
L 262.340312 73.280079 
" clip-path="url(#pb418dd5bc4)" style="fill: none; stroke-dasharray: 2.96,1.28; stroke-dashoffset: 0; stroke: #b0b0b0; stroke-opacity: 0.5; stroke-width: 0.8"/>
     </g>
     <g id="line2d_56">
      <g>
       <use xlink:href="#m7de8417f28" x="39.140313" y="73.280079" style="stroke: #000000; stroke-width: 0.6"/>
      </g>
     </g>
    </g>
    <g id="ytick_22">
     <g id="line2d_57">
      <path d="M 39.140313 67.638858 
L 262.340312 67.638858 
" clip-path="url(#pb418dd5bc4)" style="fill: none; stroke-dasharray: 2.96,1.28; stroke-dashoffset: 0; stroke: #b0b0b0; stroke-opacity: 0.5; stroke-width: 0.8"/>
     </g>
     <g id="line2d_58">
      <g>
       <use xlink:href="#m7de8417f28" x="39.140313" y="67.638858" style="stroke: #000000; stroke-width: 0.6"/>
      </g>
     </g>
    </g>
    <g id="ytick_23">
     <g id="line2d_59">
      <path d="M 39.140313 63.263187 
L 262.340312 63.263187 
" clip-path="url(#pb418dd5bc4)" style="fill: none; stroke-dasharray: 2.96,1.28; stroke-dashoffset: 0; stroke: #b0b0b0; stroke-opacity: 0.5; stroke-width: 0.8"/>
     </g>
     <g id="line2d_60">
      <g>
       <use xlink:href="#m7de8417f28" x="39.140313" y="63.263187" style="stroke: #000000; stroke-width: 0.6"/>
      </g>
     </g>
    </g>
    <g id="ytick_24">
     <g id="line2d_61">
      <path d="M 39.140313 59.688004 
L 262.340312 59.688004 
" clip-path="url(#pb418dd5bc4)" style="fill: none; stroke-dasharray: 2.96,1.28; stroke-dashoffset: 0; stroke: #b0b0b0; stroke-opacity: 0.5; stroke-width: 0.8"/>
     </g>
     <g id="line2d_62">
      <g>
       <use xlink:href="#m7de8417f28" x="39.140313" y="59.688004" style="stroke: #000000; stroke-width: 0.6"/>
      </g>
     </g>
    </g>
    <g id="ytick_25">
     <g id="line2d_63">
      <path d="M 39.140313 56.66523 
L 262.340312 56.66523 
" clip-path="url(#pb418dd5bc4)" style="fill: none; stroke-dasharray: 2.96,1.28; stroke-dashoffset: 0; stroke: #b0b0b0; stroke-opacity: 0.5; stroke-width: 0.8"/>
     </g>
     <g id="line2d_64">
      <g>
       <use xlink:href="#m7de8417f28" x="39.140313" y="56.66523" style="stroke: #000000; stroke-width: 0.6"/>
      </g>
     </g>
    </g>
    <g id="ytick_26">
     <g id="line2d_65">
      <path d="M 39.140313 54.046783 
L 262.340312 54.046783 
" clip-path="url(#pb418dd5bc4)" style="fill: none; stroke-dasharray: 2.96,1.28; stroke-dashoffset: 0; stroke: #b0b0b0; stroke-opacity: 0.5; stroke-width: 0.8"/>
     </g>
     <g id="line2d_66">
      <g>
       <use xlink:href="#m7de8417f28" x="39.140313" y="54.046783" style="stroke: #000000; stroke-width: 0.6"/>
      </g>
     </g>
    </g>
    <g id="ytick_27">
     <g id="line2d_67">
      <path d="M 39.140313 51.73715 
L 262.340312 51.73715 
" clip-path="url(#pb418dd5bc4)" style="fill: none; stroke-dasharray: 2.96,1.28; stroke-dashoffset: 0; stroke: #b0b0b0; stroke-opacity: 0.5; stroke-width: 0.8"/>
     </g>
     <g id="line2d_68">
      <g>
       <use xlink:href="#m7de8417f28" x="39.140313" y="51.73715" style="stroke: #000000; stroke-width: 0.6"/>
      </g>
     </g>
    </g>
    <g id="ytick_28">
     <g id="line2d_69">
      <path d="M 39.140313 36.079038 
L 262.340312 36.079038 
" clip-path="url(#pb418dd5bc4)" style="fill: none; stroke-dasharray: 2.96,1.28; stroke-dashoffset: 0; stroke: #b0b0b0; stroke-opacity: 0.5; stroke-width: 0.8"/>
     </g>
     <g id="line2d_70">
      <g>
       <use xlink:href="#m7de8417f28" x="39.140313" y="36.079038" style="stroke: #000000; stroke-width: 0.6"/>
      </g>
     </g>
    </g>
    <g id="ytick_29">
     <g id="line2d_71">
      <path d="M 39.140313 28.128184 
L 262.340312 28.128184 
" clip-path="url(#pb418dd5bc4)" style="fill: none; stroke-dasharray: 2.96,1.28; stroke-dashoffset: 0; stroke: #b0b0b0; stroke-opacity: 0.5; stroke-width: 0.8"/>
     </g>
     <g id="line2d_72">
      <g>
       <use xlink:href="#m7de8417f28" x="39.140313" y="28.128184" style="stroke: #000000; stroke-width: 0.6"/>
      </g>
     </g>
    </g>
    <g id="ytick_30">
     <g id="line2d_73">
      <path d="M 39.140313 22.486964 
L 262.340312 22.486964 
" clip-path="url(#pb418dd5bc4)" style="fill: none; stroke-dasharray: 2.96,1.28; stroke-dashoffset: 0; stroke: #b0b0b0; stroke-opacity: 0.5; stroke-width: 0.8"/>
     </g>
     <g id="line2d_74">
      <g>
       <use xlink:href="#m7de8417f28" x="39.140313" y="22.486964" style="stroke: #000000; stroke-width: 0.6"/>
      </g>
     </g>
    </g>
    <g id="ytick_31">
     <g id="line2d_75">
      <path d="M 39.140313 18.111293 
L 262.340312 18.111293 
" clip-path="url(#pb418dd5bc4)" style="fill: none; stroke-dasharray: 2.96,1.28; stroke-dashoffset: 0; stroke: #b0b0b0; stroke-opacity: 0.5; stroke-width: 0.8"/>
     </g>
     <g id="line2d_76">
      <g>
       <use xlink:href="#m7de8417f28" x="39.140313" y="18.111293" style="stroke: #000000; stroke-width: 0.6"/>
      </g>
     </g>
    </g>
    <g id="ytick_32">
     <g id="line2d_77">
      <path d="M 39.140313 14.53611 
L 262.340312 14.53611 
" clip-path="url(#pb418dd5bc4)" style="fill: none; stroke-dasharray: 2.96,1.28; stroke-dashoffset: 0; stroke: #b0b0b0; stroke-opacity: 0.5; stroke-width: 0.8"/>
     </g>
     <g id="line2d_78">
      <g>
       <use xlink:href="#m7de8417f28" x="39.140313" y="14.53611" style="stroke: #000000; stroke-width: 0.6"/>
      </g>
     </g>
    </g>
    <g id="ytick_33">
     <g id="line2d_79">
      <path d="M 39.140313 11.513336 
L 262.340312 11.513336 
" clip-path="url(#pb418dd5bc4)" style="fill: none; stroke-dasharray: 2.96,1.28; stroke-dashoffset: 0; stroke: #b0b0b0; stroke-opacity: 0.5; stroke-width: 0.8"/>
     </g>
     <g id="line2d_80">
      <g>
       <use xlink:href="#m7de8417f28" x="39.140313" y="11.513336" style="stroke: #000000; stroke-width: 0.6"/>
      </g>
     </g>
    </g>
    <g id="ytick_34">
     <g id="line2d_81">
      <path d="M 39.140313 8.894889 
L 262.340312 8.894889 
" clip-path="url(#pb418dd5bc4)" style="fill: none; stroke-dasharray: 2.96,1.28; stroke-dashoffset: 0; stroke: #b0b0b0; stroke-opacity: 0.5; stroke-width: 0.8"/>
     </g>
     <g id="line2d_82">
      <g>
       <use xlink:href="#m7de8417f28" x="39.140313" y="8.894889" style="stroke: #000000; stroke-width: 0.6"/>
      </g>
     </g>
    </g>
    <g id="ytick_35">
     <g id="line2d_83">
      <path d="M 39.140313 6.585256 
L 262.340312 6.585256 
" clip-path="url(#pb418dd5bc4)" style="fill: none; stroke-dasharray: 2.96,1.28; stroke-dashoffset: 0; stroke: #b0b0b0; stroke-opacity: 0.5; stroke-width: 0.8"/>
     </g>
     <g id="line2d_84">
      <g>
       <use xlink:href="#m7de8417f28" x="39.140313" y="6.585256" style="stroke: #000000; stroke-width: 0.6"/>
      </g>
     </g>
    </g>
    <g id="text_13">
     <!-- Final QKP Stored Keys (Mb) -->
     <g transform="translate(8.318438 158.915081) rotate(-90) scale(0.1 -0.1)">
      <defs>
       <path id="DejaVuSerif-46" d="M 353 0 
L 353 331 
L 947 331 
L 947 4331 
L 353 4331 
L 353 4666 
L 4172 4666 
L 4172 3628 
L 3788 3628 
L 3788 4281 
L 1581 4281 
L 1581 2719 
L 3175 2719 
L 3175 3303 
L 3559 3303 
L 3559 1753 
L 3175 1753 
L 3175 2338 
L 1581 2338 
L 1581 331 
L 2328 331 
L 2328 0 
L 353 0 
z
" transform="scale(0.015625)"/>
       <path id="DejaVuSerif-69" d="M 622 4353 
Q 622 4497 726 4603 
Q 831 4709 978 4709 
Q 1122 4709 1226 4603 
Q 1331 4497 1331 4353 
Q 1331 4206 1228 4103 
Q 1125 4000 978 4000 
Q 831 4000 726 4103 
Q 622 4206 622 4353 
z
M 1356 331 
L 1900 331 
L 1900 0 
L 231 0 
L 231 331 
L 781 331 
L 781 2988 
L 231 2988 
L 231 3322 
L 1356 3322 
L 1356 331 
z
" transform="scale(0.015625)"/>
       <path id="DejaVuSerif-6c" d="M 1313 331 
L 1856 331 
L 1856 0 
L 184 0 
L 184 331 
L 738 331 
L 738 4531 
L 184 4531 
L 184 4863 
L 1313 4863 
L 1313 331 
z
" transform="scale(0.015625)"/>
       <path id="DejaVuSerif-51" d="M 2700 -91 
Q 1628 -91 993 567 
Q 359 1225 359 2328 
Q 359 2894 529 3339 
Q 700 3784 1050 4134 
Q 1356 4441 1750 4595 
Q 2144 4750 2625 4750 
Q 3641 4750 4266 4084 
Q 4891 3419 4891 2328 
Q 4891 1403 4422 773 
Q 3953 144 3128 -38 
Q 3297 -247 3539 -347 
Q 3781 -447 4122 -447 
L 4219 -447 
L 4219 -1025 
Q 3691 -1000 3314 -767 
Q 2938 -534 2700 -91 
z
M 2625 244 
Q 3391 244 3781 770 
Q 4172 1297 4172 2328 
Q 4172 3363 3781 3889 
Q 3391 4416 2625 4416 
Q 1856 4416 1465 3889 
Q 1075 3363 1075 2328 
Q 1075 1297 1465 770 
Q 1856 244 2625 244 
z
" transform="scale(0.015625)"/>
       <path id="DejaVuSerif-50" d="M 1581 2375 
L 2406 2375 
Q 2872 2375 3115 2626 
Q 3359 2878 3359 3353 
Q 3359 3831 3115 4081 
Q 2872 4331 2406 4331 
L 1581 4331 
L 1581 2375 
z
M 353 0 
L 353 331 
L 947 331 
L 947 4331 
L 353 4331 
L 353 4666 
L 2559 4666 
Q 3259 4666 3668 4311 
Q 4078 3956 4078 3353 
Q 4078 2753 3668 2397 
Q 3259 2041 2559 2041 
L 1581 2041 
L 1581 331 
L 2303 331 
L 2303 0 
L 353 0 
z
" transform="scale(0.015625)"/>
       <path id="DejaVuSerif-74" d="M 691 2988 
L 184 2988 
L 184 3322 
L 691 3322 
L 691 4353 
L 1269 4353 
L 1269 3322 
L 2350 3322 
L 2350 2988 
L 1269 2988 
L 1269 878 
Q 1269 456 1350 337 
Q 1431 219 1650 219 
Q 1875 219 1978 351 
Q 2081 484 2088 781 
L 2522 781 
Q 2497 328 2275 118 
Q 2053 -91 1600 -91 
Q 1103 -91 897 129 
Q 691 350 691 878 
L 691 2988 
z
" transform="scale(0.015625)"/>
       <path id="DejaVuSerif-6f" d="M 1925 219 
Q 2388 219 2623 584 
Q 2859 950 2859 1663 
Q 2859 2375 2623 2739 
Q 2388 3103 1925 3103 
Q 1463 3103 1227 2739 
Q 991 2375 991 1663 
Q 991 950 1228 584 
Q 1466 219 1925 219 
z
M 1925 -91 
Q 1200 -91 759 389 
Q 319 869 319 1663 
Q 319 2456 758 2934 
Q 1197 3413 1925 3413 
Q 2653 3413 3092 2934 
Q 3531 2456 3531 1663 
Q 3531 869 3092 389 
Q 2653 -91 1925 -91 
z
" transform="scale(0.015625)"/>
       <path id="DejaVuSerif-72" d="M 3059 3328 
L 3059 2497 
L 2728 2497 
Q 2713 2744 2591 2866 
Q 2469 2988 2234 2988 
Q 1809 2988 1582 2694 
Q 1356 2400 1356 1850 
L 1356 331 
L 2022 331 
L 2022 0 
L 263 0 
L 263 331 
L 781 331 
L 781 2994 
L 231 2994 
L 231 3322 
L 1356 3322 
L 1356 2731 
Q 1525 3078 1790 3245 
Q 2056 3413 2438 3413 
Q 2578 3413 2733 3391 
Q 2888 3369 3059 3328 
z
" transform="scale(0.015625)"/>
       <path id="DejaVuSerif-79" d="M 1381 -609 
L 1600 -56 
L 359 2988 
L -19 2988 
L -19 3322 
L 1509 3322 
L 1509 2988 
L 978 2988 
L 1913 703 
L 2847 2988 
L 2350 2988 
L 2350 3322 
L 3597 3322 
L 3597 2988 
L 3225 2988 
L 1703 -750 
Q 1547 -1138 1356 -1280 
Q 1166 -1422 819 -1422 
Q 672 -1422 517 -1397 
Q 363 -1372 206 -1325 
L 206 -691 
L 500 -691 
Q 519 -903 608 -995 
Q 697 -1088 884 -1088 
Q 1056 -1088 1161 -992 
Q 1266 -897 1381 -609 
z
" transform="scale(0.015625)"/>
      </defs>
      <use xlink:href="#DejaVuSerif-46"/>
      <use xlink:href="#DejaVuSerif-69" transform="translate(69.384766 0)"/>
      <use xlink:href="#DejaVuSerif-6e" transform="translate(101.367188 0)"/>
      <use xlink:href="#DejaVuSerif-61" transform="translate(165.771484 0)"/>
      <use xlink:href="#DejaVuSerif-6c" transform="translate(225.390625 0)"/>
      <use xlink:href="#DejaVuSerif-20" transform="translate(257.373047 0)"/>
      <use xlink:href="#DejaVuSerif-51" transform="translate(289.160156 0)"/>
      <use xlink:href="#DejaVuSerif-4b" transform="translate(371.142578 0)"/>
      <use xlink:href="#DejaVuSerif-50" transform="translate(445.849609 0)"/>
      <use xlink:href="#DejaVuSerif-20" transform="translate(513.134766 0)"/>
      <use xlink:href="#DejaVuSerif-53" transform="translate(544.921875 0)"/>
      <use xlink:href="#DejaVuSerif-74" transform="translate(613.427734 0)"/>
      <use xlink:href="#DejaVuSerif-6f" transform="translate(653.613281 0)"/>
      <use xlink:href="#DejaVuSerif-72" transform="translate(713.818359 0)"/>
      <use xlink:href="#DejaVuSerif-65" transform="translate(761.621094 0)"/>
      <use xlink:href="#DejaVuSerif-64" transform="translate(820.800781 0)"/>
      <use xlink:href="#DejaVuSerif-20" transform="translate(884.814453 0)"/>
      <use xlink:href="#DejaVuSerif-4b" transform="translate(916.601562 0)"/>
      <use xlink:href="#DejaVuSerif-65" transform="translate(988.683594 0)"/>
      <use xlink:href="#DejaVuSerif-79" transform="translate(1047.863281 0)"/>
      <use xlink:href="#DejaVuSerif-73" transform="translate(1104.357422 0)"/>
      <use xlink:href="#DejaVuSerif-20" transform="translate(1155.675781 0)"/>
      <use xlink:href="#DejaVuSerif-28" transform="translate(1187.462891 0)"/>
      <use xlink:href="#DejaVuSerif-4d" transform="translate(1226.476562 0)"/>
      <use xlink:href="#DejaVuSerif-62" transform="translate(1328.869141 0)"/>
      <use xlink:href="#DejaVuSerif-29" transform="translate(1392.882812 0)"/>
     </g>
    </g>
   </g>
   <g id="LineCollection_1">
    <path d="M 49.285767 17.242662 
L 49.285767 15.139586 
" clip-path="url(#pb418dd5bc4)" style="fill: none; stroke: #1f77b4; stroke-width: 1.5"/>
    <path d="M 52.027782 15.260087 
L 52.027782 15.260087 
" clip-path="url(#pb418dd5bc4)" style="fill: none; stroke: #1f77b4; stroke-width: 1.5"/>
    <path d="M 54.769797 15.021716 
L 54.769797 15.021716 
" clip-path="url(#pb418dd5bc4)" style="fill: none; stroke: #1f77b4; stroke-width: 1.5"/>
    <path d="M 57.511811 14.997764 
L 57.511811 14.997764 
" clip-path="url(#pb418dd5bc4)" style="fill: none; stroke: #1f77b4; stroke-width: 1.5"/>
    <path d="M 60.253826 15.185739 
L 60.253826 15.185739 
" clip-path="url(#pb418dd5bc4)" style="fill: none; stroke: #1f77b4; stroke-width: 1.5"/>
    <path d="M 62.995841 15.224124 
L 62.995841 15.224124 
" clip-path="url(#pb418dd5bc4)" style="fill: none; stroke: #1f77b4; stroke-width: 1.5"/>
    <path d="M 65.737855 16.790056 
L 65.737855 13.086256 
" clip-path="url(#pb418dd5bc4)" style="fill: none; stroke: #1f77b4; stroke-width: 1.5"/>
    <path d="M 68.47987 14.688192 
L 68.47987 14.688192 
" clip-path="url(#pb418dd5bc4)" style="fill: none; stroke: #1f77b4; stroke-width: 1.5"/>
    <path d="M 71.221885 15.253181 
L 71.221885 15.253181 
" clip-path="url(#pb418dd5bc4)" style="fill: none; stroke: #1f77b4; stroke-width: 1.5"/>
    <path d="M 73.9639 15.448063 
L 73.9639 15.448063 
" clip-path="url(#pb418dd5bc4)" style="fill: none; stroke: #1f77b4; stroke-width: 1.5"/>
    <path d="M 76.705914 15.488947 
L 76.705914 15.488947 
" clip-path="url(#pb418dd5bc4)" style="fill: none; stroke: #1f77b4; stroke-width: 1.5"/>
    <path d="M 79.447929 15.138197 
L 79.447929 15.138197 
" clip-path="url(#pb418dd5bc4)" style="fill: none; stroke: #1f77b4; stroke-width: 1.5"/>
    <path d="M 82.189944 19.508875 
L 82.189944 13.768897 
" clip-path="url(#pb418dd5bc4)" style="fill: none; stroke: #1f77b4; stroke-width: 1.5"/>
    <path d="M 84.931959 15.305088 
L 84.931959 15.305088 
" clip-path="url(#pb418dd5bc4)" style="fill: none; stroke: #1f77b4; stroke-width: 1.5"/>
    <path d="M 87.673973 14.928374 
L 87.673973 14.928374 
" clip-path="url(#pb418dd5bc4)" style="fill: none; stroke: #1f77b4; stroke-width: 1.5"/>
    <path d="M 90.415988 15.276791 
L 90.415988 15.276791 
" clip-path="url(#pb418dd5bc4)" style="fill: none; stroke: #1f77b4; stroke-width: 1.5"/>
    <path d="M 93.158003 15.443186 
L 93.158003 15.443186 
" clip-path="url(#pb418dd5bc4)" style="fill: none; stroke: #1f77b4; stroke-width: 1.5"/>
    <path d="M 95.900018 15.541612 
L 95.900018 15.541612 
" clip-path="url(#pb418dd5bc4)" style="fill: none; stroke: #1f77b4; stroke-width: 1.5"/>
    <path d="M 98.642032 17.62142 
L 98.642032 13.389617 
" clip-path="url(#pb418dd5bc4)" style="fill: none; stroke: #1f77b4; stroke-width: 1.5"/>
    <path d="M 101.384047 15.219127 
L 101.384047 15.219127 
" clip-path="url(#pb418dd5bc4)" style="fill: none; stroke: #1f77b4; stroke-width: 1.5"/>
    <path d="M 104.126062 14.938772 
L 104.126062 14.938772 
" clip-path="url(#pb418dd5bc4)" style="fill: none; stroke: #1f77b4; stroke-width: 1.5"/>
    <path d="M 106.868077 16.357183 
L 106.868077 16.357183 
" clip-path="url(#pb418dd5bc4)" style="fill: none; stroke: #1f77b4; stroke-width: 1.5"/>
    <path d="M 109.610091 15.462358 
L 109.610091 15.462358 
" clip-path="url(#pb418dd5bc4)" style="fill: none; stroke: #1f77b4; stroke-width: 1.5"/>
    <path d="M 112.352106 15.632906 
L 112.352106 15.632906 
" clip-path="url(#pb418dd5bc4)" style="fill: none; stroke: #1f77b4; stroke-width: 1.5"/>
    <path d="M 115.094121 18.181695 
L 115.094121 14.096321 
" clip-path="url(#pb418dd5bc4)" style="fill: none; stroke: #1f77b4; stroke-width: 1.5"/>
    <path d="M 117.836136 15.376138 
L 117.836136 15.376138 
" clip-path="url(#pb418dd5bc4)" style="fill: none; stroke: #1f77b4; stroke-width: 1.5"/>
    <path d="M 120.57815 15.479795 
L 120.57815 15.479795 
" clip-path="url(#pb418dd5bc4)" style="fill: none; stroke: #1f77b4; stroke-width: 1.5"/>
    <path d="M 123.320165 16.006273 
L 123.320165 16.006273 
" clip-path="url(#pb418dd5bc4)" style="fill: none; stroke: #1f77b4; stroke-width: 1.5"/>
    <path d="M 126.06218 15.749447 
L 126.06218 15.749447 
" clip-path="url(#pb418dd5bc4)" style="fill: none; stroke: #1f77b4; stroke-width: 1.5"/>
    <path d="M 128.804195 15.953505 
L 128.804195 15.953505 
" clip-path="url(#pb418dd5bc4)" style="fill: none; stroke: #1f77b4; stroke-width: 1.5"/>
    <path d="M 131.546209 18.081453 
L 131.546209 15.0166 
" clip-path="url(#pb418dd5bc4)" style="fill: none; stroke: #1f77b4; stroke-width: 1.5"/>
    <path d="M 134.288224 15.660011 
L 134.288224 15.660011 
" clip-path="url(#pb418dd5bc4)" style="fill: none; stroke: #1f77b4; stroke-width: 1.5"/>
    <path d="M 137.030239 16.448381 
L 137.030239 16.448381 
" clip-path="url(#pb418dd5bc4)" style="fill: none; stroke: #1f77b4; stroke-width: 1.5"/>
    <path d="M 139.772254 16.261814 
L 139.772254 16.261814 
" clip-path="url(#pb418dd5bc4)" style="fill: none; stroke: #1f77b4; stroke-width: 1.5"/>
    <path d="M 142.514268 16.52835 
L 142.514268 16.52835 
" clip-path="url(#pb418dd5bc4)" style="fill: none; stroke: #1f77b4; stroke-width: 1.5"/>
    <path d="M 145.256283 16.561552 
L 145.256283 16.561552 
" clip-path="url(#pb418dd5bc4)" style="fill: none; stroke: #1f77b4; stroke-width: 1.5"/>
    <path d="M 147.998298 19.568558 
L 147.998298 14.011991 
" clip-path="url(#pb418dd5bc4)" style="fill: none; stroke: #1f77b4; stroke-width: 1.5"/>
    <path d="M 150.740312 16.022808 
L 150.740312 16.022808 
" clip-path="url(#pb418dd5bc4)" style="fill: none; stroke: #1f77b4; stroke-width: 1.5"/>
    <path d="M 153.482327 16.109967 
L 153.482327 16.109967 
" clip-path="url(#pb418dd5bc4)" style="fill: none; stroke: #1f77b4; stroke-width: 1.5"/>
    <path d="M 156.224342 17.079225 
L 156.224342 17.079225 
" clip-path="url(#pb418dd5bc4)" style="fill: none; stroke: #1f77b4; stroke-width: 1.5"/>
    <path d="M 158.966357 16.389683 
L 158.966357 16.389683 
" clip-path="url(#pb418dd5bc4)" style="fill: none; stroke: #1f77b4; stroke-width: 1.5"/>
    <path d="M 161.708371 16.481169 
L 161.708371 16.481169 
" clip-path="url(#pb418dd5bc4)" style="fill: none; stroke: #1f77b4; stroke-width: 1.5"/>
    <path d="M 164.450386 18.68019 
L 164.450386 14.569113 
" clip-path="url(#pb418dd5bc4)" style="fill: none; stroke: #1f77b4; stroke-width: 1.5"/>
    <path d="M 167.192401 16.601123 
L 167.192401 16.601123 
" clip-path="url(#pb418dd5bc4)" style="fill: none; stroke: #1f77b4; stroke-width: 1.5"/>
    <path d="M 169.934416 16.960117 
L 169.934416 16.960117 
" clip-path="url(#pb418dd5bc4)" style="fill: none; stroke: #1f77b4; stroke-width: 1.5"/>
    <path d="M 172.67643 16.896926 
L 172.67643 16.896926 
" clip-path="url(#pb418dd5bc4)" style="fill: none; stroke: #1f77b4; stroke-width: 1.5"/>
    <path d="M 175.418445 16.19191 
L 175.418445 16.19191 
" clip-path="url(#pb418dd5bc4)" style="fill: none; stroke: #1f77b4; stroke-width: 1.5"/>
    <path d="M 178.16046 16.853035 
L 178.16046 16.853035 
" clip-path="url(#pb418dd5bc4)" style="fill: none; stroke: #1f77b4; stroke-width: 1.5"/>
    <path d="M 180.902475 21.409044 
L 180.902475 15.157405 
" clip-path="url(#pb418dd5bc4)" style="fill: none; stroke: #1f77b4; stroke-width: 1.5"/>
    <path d="M 183.644489 16.950414 
L 183.644489 16.950414 
" clip-path="url(#pb418dd5bc4)" style="fill: none; stroke: #1f77b4; stroke-width: 1.5"/>
    <path d="M 186.386504 16.413354 
L 186.386504 16.413354 
" clip-path="url(#pb418dd5bc4)" style="fill: none; stroke: #1f77b4; stroke-width: 1.5"/>
    <path d="M 189.128519 17.3203 
L 189.128519 17.3203 
" clip-path="url(#pb418dd5bc4)" style="fill: none; stroke: #1f77b4; stroke-width: 1.5"/>
    <path d="M 191.870534 17.549573 
L 191.870534 17.549573 
" clip-path="url(#pb418dd5bc4)" style="fill: none; stroke: #1f77b4; stroke-width: 1.5"/>
    <path d="M 194.612548 16.894605 
L 194.612548 16.894605 
" clip-path="url(#pb418dd5bc4)" style="fill: none; stroke: #1f77b4; stroke-width: 1.5"/>
    <path d="M 197.354563 19.316392 
L 197.354563 15.758679 
" clip-path="url(#pb418dd5bc4)" style="fill: none; stroke: #1f77b4; stroke-width: 1.5"/>
    <path d="M 200.096578 16.648111 
L 200.096578 16.648111 
" clip-path="url(#pb418dd5bc4)" style="fill: none; stroke: #1f77b4; stroke-width: 1.5"/>
    <path d="M 202.838593 17.273369 
L 202.838593 17.273369 
" clip-path="url(#pb418dd5bc4)" style="fill: none; stroke: #1f77b4; stroke-width: 1.5"/>
    <path d="M 205.580607 18.037957 
L 205.580607 18.037957 
" clip-path="url(#pb418dd5bc4)" style="fill: none; stroke: #1f77b4; stroke-width: 1.5"/>
    <path d="M 208.322622 16.708335 
L 208.322622 16.708335 
" clip-path="url(#pb418dd5bc4)" style="fill: none; stroke: #1f77b4; stroke-width: 1.5"/>
    <path d="M 211.064637 17.003556 
L 211.064637 17.003556 
" clip-path="url(#pb418dd5bc4)" style="fill: none; stroke: #1f77b4; stroke-width: 1.5"/>
    <path d="M 213.806652 19.527963 
L 213.806652 15.971924 
" clip-path="url(#pb418dd5bc4)" style="fill: none; stroke: #1f77b4; stroke-width: 1.5"/>
    <path d="M 216.548666 17.571092 
L 216.548666 17.571092 
" clip-path="url(#pb418dd5bc4)" style="fill: none; stroke: #1f77b4; stroke-width: 1.5"/>
    <path d="M 219.290681 17.673668 
L 219.290681 17.673668 
" clip-path="url(#pb418dd5bc4)" style="fill: none; stroke: #1f77b4; stroke-width: 1.5"/>
    <path d="M 222.032696 18.008755 
L 222.032696 18.008755 
" clip-path="url(#pb418dd5bc4)" style="fill: none; stroke: #1f77b4; stroke-width: 1.5"/>
    <path d="M 224.774711 17.348804 
L 224.774711 17.348804 
" clip-path="url(#pb418dd5bc4)" style="fill: none; stroke: #1f77b4; stroke-width: 1.5"/>
    <path d="M 227.516725 17.499918 
L 227.516725 17.499918 
" clip-path="url(#pb418dd5bc4)" style="fill: none; stroke: #1f77b4; stroke-width: 1.5"/>
    <path d="M 230.25874 19.896982 
L 230.25874 14.945283 
" clip-path="url(#pb418dd5bc4)" style="fill: none; stroke: #1f77b4; stroke-width: 1.5"/>
    <path d="M 233.000755 18.346409 
L 233.000755 18.346409 
" clip-path="url(#pb418dd5bc4)" style="fill: none; stroke: #1f77b4; stroke-width: 1.5"/>
    <path d="M 235.74277 17.58396 
L 235.74277 17.58396 
" clip-path="url(#pb418dd5bc4)" style="fill: none; stroke: #1f77b4; stroke-width: 1.5"/>
    <path d="M 238.484784 17.520487 
L 238.484784 17.520487 
" clip-path="url(#pb418dd5bc4)" style="fill: none; stroke: #1f77b4; stroke-width: 1.5"/>
    <path d="M 241.226799 17.569984 
L 241.226799 17.569984 
" clip-path="url(#pb418dd5bc4)" style="fill: none; stroke: #1f77b4; stroke-width: 1.5"/>
    <path d="M 243.968814 17.871755 
L 243.968814 17.871755 
" clip-path="url(#pb418dd5bc4)" style="fill: none; stroke: #1f77b4; stroke-width: 1.5"/>
    <path d="M 246.710828 20.108651 
L 246.710828 15.946871 
" clip-path="url(#pb418dd5bc4)" style="fill: none; stroke: #1f77b4; stroke-width: 1.5"/>
    <path d="M 249.452843 17.502169 
L 249.452843 17.502169 
" clip-path="url(#pb418dd5bc4)" style="fill: none; stroke: #1f77b4; stroke-width: 1.5"/>
    <path d="M 252.194858 18.605452 
L 252.194858 18.605452 
" clip-path="url(#pb418dd5bc4)" style="fill: none; stroke: #1f77b4; stroke-width: 1.5"/>
   </g>
   <g id="line2d_85">
    <path d="M 49.285767 11.72055 
L 52.027782 13.479294 
L 54.769797 13.445058 
L 57.511811 13.09523 
L 60.253826 13.426727 
L 62.995841 13.515909 
L 65.737855 13.740373 
L 68.47987 13.834671 
L 71.221885 14.193512 
L 73.9639 14.301756 
L 76.705914 14.393109 
L 79.447929 14.484889 
L 82.189944 14.5771 
L 84.931959 14.669747 
L 87.673973 14.768365 
L 90.415988 14.861313 
L 93.158003 14.954704 
L 95.900018 15.048542 
L 98.642032 15.14283 
L 101.384047 15.237575 
L 104.126062 15.332779 
L 106.868077 15.428448 
L 109.610091 15.524586 
L 112.352106 15.621198 
L 115.094121 15.718288 
L 117.836136 15.815861 
L 120.57815 15.913922 
L 123.320165 16.012476 
L 126.06218 16.111528 
L 128.804195 16.211082 
L 131.546209 16.311145 
L 134.288224 16.411721 
L 137.030239 16.512815 
L 139.772254 16.614433 
L 142.514268 16.716581 
L 145.256283 16.819264 
L 147.998298 16.922487 
L 150.740312 17.026256 
L 153.482327 17.130577 
L 156.224342 17.235456 
L 158.966357 17.3409 
L 161.708371 17.446913 
L 164.450386 17.553502 
L 167.192401 17.660674 
L 169.934416 17.768435 
L 172.67643 17.876792 
L 175.418445 17.985751 
L 178.16046 18.095318 
L 180.902475 18.205501 
L 183.644489 18.316307 
L 186.386504 18.427742 
L 189.128519 18.539814 
L 191.870534 18.652531 
L 194.612548 18.765899 
L 197.354563 18.879926 
L 200.096578 18.994621 
L 202.838593 19.10999 
L 205.580607 19.226042 
L 208.322622 19.342784 
L 211.064637 19.460226 
L 213.806652 19.578376 
L 216.548666 19.697242 
L 219.290681 19.816832 
L 222.032696 19.937157 
L 224.774711 20.058224 
L 227.516725 20.180044 
L 230.25874 20.302625 
L 233.000755 20.425977 
L 235.74277 20.55011 
L 238.484784 20.675034 
L 241.226799 20.800759 
L 243.968814 20.927295 
L 246.710828 21.054653 
L 249.452843 21.182843 
L 252.194858 21.311877 
" clip-path="url(#pb418dd5bc4)" style="fill: none; stroke: #ff7f0e; stroke-width: 1.5; stroke-linecap: square"/>
    <defs>
     <path id="m7a5d8ede17" d="M 0 3 
C 0.795609 3 1.55874 2.683901 2.12132 2.12132 
C 2.683901 1.55874 3 0.795609 3 0 
C 3 -0.795609 2.683901 -1.55874 2.12132 -2.12132 
C 1.55874 -2.683901 0.795609 -3 0 -3 
C -0.795609 -3 -1.55874 -2.683901 -2.12132 -2.12132 
C -2.683901 -1.55874 -3 -0.795609 -3 0 
C -3 0.795609 -2.683901 1.55874 -2.12132 2.12132 
C -1.55874 2.683901 -0.795609 3 0 3 
z
" style="stroke: #ff7f0e"/>
    </defs>
    <g clip-path="url(#pb418dd5bc4)">
     <use xlink:href="#m7a5d8ede17" x="49.285767" y="11.72055" style="fill: #ff7f0e; stroke: #ff7f0e"/>
     <use xlink:href="#m7a5d8ede17" x="68.47987" y="13.834671" style="fill: #ff7f0e; stroke: #ff7f0e"/>
     <use xlink:href="#m7a5d8ede17" x="87.673973" y="14.768365" style="fill: #ff7f0e; stroke: #ff7f0e"/>
     <use xlink:href="#m7a5d8ede17" x="106.868077" y="15.428448" style="fill: #ff7f0e; stroke: #ff7f0e"/>
     <use xlink:href="#m7a5d8ede17" x="126.06218" y="16.111528" style="fill: #ff7f0e; stroke: #ff7f0e"/>
     <use xlink:href="#m7a5d8ede17" x="145.256283" y="16.819264" style="fill: #ff7f0e; stroke: #ff7f0e"/>
     <use xlink:href="#m7a5d8ede17" x="164.450386" y="17.553502" style="fill: #ff7f0e; stroke: #ff7f0e"/>
     <use xlink:href="#m7a5d8ede17" x="183.644489" y="18.316307" style="fill: #ff7f0e; stroke: #ff7f0e"/>
     <use xlink:href="#m7a5d8ede17" x="202.838593" y="19.10999" style="fill: #ff7f0e; stroke: #ff7f0e"/>
     <use xlink:href="#m7a5d8ede17" x="222.032696" y="19.937157" style="fill: #ff7f0e; stroke: #ff7f0e"/>
     <use xlink:href="#m7a5d8ede17" x="241.226799" y="20.800759" style="fill: #ff7f0e; stroke: #ff7f0e"/>
    </g>
   </g>
   <g id="line2d_86">
    <path d="M 49.285767 15.204203 
L 52.027782 16.472119 
L 54.769797 16.697979 
L 57.511811 16.860849 
L 60.253826 17.125448 
L 62.995841 17.0168 
L 65.737855 18.329401 
L 68.47987 17.523519 
L 71.221885 17.522781 
L 73.9639 18.105338 
L 76.705914 18.928845 
L 79.447929 19.274759 
L 82.189944 17.535488 
L 84.931959 17.633924 
L 87.673973 19.367553 
L 90.415988 19.535329 
L 93.158003 19.477978 
L 95.900018 19.859466 
L 98.642032 21.080518 
L 101.384047 20.371876 
L 104.126062 19.821669 
L 106.868077 18.941551 
L 109.610091 20.938755 
L 112.352106 20.163636 
L 115.094121 21.420296 
L 117.836136 19.302633 
L 120.57815 20.800079 
L 123.320165 18.609658 
L 126.06218 21.600042 
L 128.804195 21.514266 
L 131.546209 19.494794 
L 134.288224 21.7527 
L 137.030239 20.757786 
L 139.772254 19.443685 
L 142.514268 21.356498 
L 145.256283 19.661027 
L 147.998298 19.763971 
L 150.740312 20.632451 
L 153.482327 20.628023 
L 156.224342 20.946187 
L 158.966357 22.769929 
L 161.708371 20.821838 
L 164.450386 20.991283 
L 167.192401 20.906786 
L 169.934416 19.643956 
L 172.67643 21.020069 
L 175.418445 21.548158 
L 178.16046 20.673077 
L 180.902475 22.14942 
L 183.644489 20.67781 
L 186.386504 20.681086 
L 189.128519 20.634703 
L 191.870534 19.896411 
L 194.612548 20.818835 
L 197.354563 20.932522 
L 200.096578 20.167546 
L 202.838593 19.652748 
L 205.580607 19.533068 
L 208.322622 20.452868 
L 211.064637 20.956602 
L 213.806652 22.193552 
L 216.548666 21.678974 
L 219.290681 21.973413 
L 222.032696 20.726014 
L 224.774711 21.049851 
L 227.516725 19.925412 
L 230.25874 19.502546 
L 233.000755 21.323343 
L 235.74277 20.036169 
L 238.484784 20.889184 
L 241.226799 22.515803 
L 243.968814 21.609209 
L 246.710828 20.670199 
L 249.452843 19.427714 
L 252.194858 21.903735 
" clip-path="url(#pb418dd5bc4)" style="fill: none; stroke: #2ca02c; stroke-width: 1.5; stroke-linecap: square"/>
    <defs>
     <path id="m187d3c3c95" d="M 0 -3 
L -3 3 
L 3 3 
z
" style="stroke: #2ca02c; stroke-linejoin: miter"/>
    </defs>
    <g clip-path="url(#pb418dd5bc4)">
     <use xlink:href="#m187d3c3c95" x="49.285767" y="15.204203" style="fill: #2ca02c; stroke: #2ca02c; stroke-linejoin: miter"/>
     <use xlink:href="#m187d3c3c95" x="68.47987" y="17.523519" style="fill: #2ca02c; stroke: #2ca02c; stroke-linejoin: miter"/>
     <use xlink:href="#m187d3c3c95" x="87.673973" y="19.367553" style="fill: #2ca02c; stroke: #2ca02c; stroke-linejoin: miter"/>
     <use xlink:href="#m187d3c3c95" x="106.868077" y="18.941551" style="fill: #2ca02c; stroke: #2ca02c; stroke-linejoin: miter"/>
     <use xlink:href="#m187d3c3c95" x="126.06218" y="21.600042" style="fill: #2ca02c; stroke: #2ca02c; stroke-linejoin: miter"/>
     <use xlink:href="#m187d3c3c95" x="145.256283" y="19.661027" style="fill: #2ca02c; stroke: #2ca02c; stroke-linejoin: miter"/>
     <use xlink:href="#m187d3c3c95" x="164.450386" y="20.991283" style="fill: #2ca02c; stroke: #2ca02c; stroke-linejoin: miter"/>
     <use xlink:href="#m187d3c3c95" x="183.644489" y="20.67781" style="fill: #2ca02c; stroke: #2ca02c; stroke-linejoin: miter"/>
     <use xlink:href="#m187d3c3c95" x="202.838593" y="19.652748" style="fill: #2ca02c; stroke: #2ca02c; stroke-linejoin: miter"/>
     <use xlink:href="#m187d3c3c95" x="222.032696" y="20.726014" style="fill: #2ca02c; stroke: #2ca02c; stroke-linejoin: miter"/>
     <use xlink:href="#m187d3c3c95" x="241.226799" y="22.515803" style="fill: #2ca02c; stroke: #2ca02c; stroke-linejoin: miter"/>
    </g>
   </g>
   <g id="line2d_87">
    <path d="M 49.285767 21.677012 
L 52.027782 28.856418 
L 54.769797 28.737492 
L 57.511811 29.194323 
L 60.253826 29.303029 
L 62.995841 30.191003 
L 65.737855 30.315319 
L 68.47987 32.16144 
L 71.221885 33.495746 
L 73.9639 35.651362 
L 76.705914 35.501714 
L 79.447929 37.794056 
L 82.189944 39.682748 
L 84.931959 42.407534 
L 87.673973 43.720158 
L 90.415988 47.468889 
L 93.158003 50.836671 
L 95.900018 56.908569 
L 98.642032 60.471729 
L 101.384047 69.62244 
L 104.126062 75.887989 
L 106.868077 79.443439 
L 109.610091 86.965065 
L 112.352106 101.284 
L 115.094121 137.736148 
L 117.836136 139.202971 
L 120.57815 141.859338 
L 123.320165 142.566857 
L 126.06218 144.796918 
L 128.804195 147.346702 
L 131.546209 148.200194 
L 134.288224 149.519281 
L 137.030239 149.641768 
L 139.772254 151.778457 
L 142.514268 149.169561 
L 145.256283 142.947001 
L 147.998298 141.359092 
L 150.740312 143.072713 
L 153.482327 142.978877 
L 156.224342 133.219751 
L 158.966357 144.61073 
L 161.708371 123.320113 
L 164.450386 120.199011 
L 167.192401 126.639167 
L 169.934416 136.031421 
L 172.67643 148.126418 
L 175.418445 156.347265 
L 178.16046 158.774939 
L 180.902475 159.733787 
L 183.644489 161.347838 
L 186.386504 161.004962 
L 189.128519 158.011279 
L 191.870534 159.736317 
L 194.612548 162.92055 
L 197.354563 157.543132 
L 200.096578 158.848237 
L 202.838593 160.498367 
L 205.580607 158.965292 
L 208.322622 160.142671 
L 211.064637 158.078793 
L 213.806652 158.185033 
L 216.548666 157.133176 
L 219.290681 155.37856 
L 222.032696 158.559404 
L 224.774711 159.797271 
L 227.516725 157.942773 
L 230.25874 157.770652 
L 233.000755 158.630878 
L 235.74277 158.476829 
L 238.484784 157.945077 
L 241.226799 159.905532 
L 243.968814 157.50477 
L 246.710828 158.718756 
L 249.452843 158.982529 
L 252.194858 156.150225 
" clip-path="url(#pb418dd5bc4)" style="fill: none; stroke: #d62728; stroke-width: 1.5; stroke-linecap: square"/>
    <defs>
     <path id="madd57df4c8" d="M -3 3 
L 3 3 
L 3 -3 
L -3 -3 
z
" style="stroke: #d62728; stroke-linejoin: miter"/>
    </defs>
    <g clip-path="url(#pb418dd5bc4)">
     <use xlink:href="#madd57df4c8" x="49.285767" y="21.677012" style="fill: #d62728; stroke: #d62728; stroke-linejoin: miter"/>
     <use xlink:href="#madd57df4c8" x="68.47987" y="32.16144" style="fill: #d62728; stroke: #d62728; stroke-linejoin: miter"/>
     <use xlink:href="#madd57df4c8" x="87.673973" y="43.720158" style="fill: #d62728; stroke: #d62728; stroke-linejoin: miter"/>
     <use xlink:href="#madd57df4c8" x="106.868077" y="79.443439" style="fill: #d62728; stroke: #d62728; stroke-linejoin: miter"/>
     <use xlink:href="#madd57df4c8" x="126.06218" y="144.796918" style="fill: #d62728; stroke: #d62728; stroke-linejoin: miter"/>
     <use xlink:href="#madd57df4c8" x="145.256283" y="142.947001" style="fill: #d62728; stroke: #d62728; stroke-linejoin: miter"/>
     <use xlink:href="#madd57df4c8" x="164.450386" y="120.199011" style="fill: #d62728; stroke: #d62728; stroke-linejoin: miter"/>
     <use xlink:href="#madd57df4c8" x="183.644489" y="161.347838" style="fill: #d62728; stroke: #d62728; stroke-linejoin: miter"/>
     <use xlink:href="#madd57df4c8" x="202.838593" y="160.498367" style="fill: #d62728; stroke: #d62728; stroke-linejoin: miter"/>
     <use xlink:href="#madd57df4c8" x="222.032696" y="158.559404" style="fill: #d62728; stroke: #d62728; stroke-linejoin: miter"/>
     <use xlink:href="#madd57df4c8" x="241.226799" y="159.905532" style="fill: #d62728; stroke: #d62728; stroke-linejoin: miter"/>
    </g>
   </g>
   <g id="line2d_88">
    <path d="M 49.285767 16.164454 
L 52.027782 15.260087 
L 54.769797 15.021716 
L 57.511811 14.997764 
L 60.253826 15.185739 
L 62.995841 15.224124 
L 65.737855 14.147504 
L 68.47987 14.688192 
L 71.221885 15.253181 
L 73.9639 15.448063 
L 76.705914 15.488947 
L 79.447929 15.138197 
L 82.189944 15.442522 
L 84.931959 15.305088 
L 87.673973 14.928374 
L 90.415988 15.276791 
L 93.158003 15.443186 
L 95.900018 15.541612 
L 98.642032 15.24665 
L 101.384047 15.219127 
L 104.126062 14.938772 
L 106.868077 16.357183 
L 109.610091 15.462358 
L 112.352106 15.632906 
L 115.094121 15.368514 
L 117.836136 15.376138 
L 120.57815 15.479795 
L 123.320165 16.006273 
L 126.06218 15.749447 
L 128.804195 15.953505 
L 131.546209 16.475837 
L 134.288224 15.660011 
L 137.030239 16.448381 
L 139.772254 16.261814 
L 142.514268 16.52835 
L 145.256283 16.561552 
L 147.998298 16.241554 
L 150.740312 16.022808 
L 153.482327 16.109967 
L 156.224342 17.079225 
L 158.966357 16.389683 
L 161.708371 16.481169 
L 164.450386 16.761795 
L 167.192401 16.601123 
L 169.934416 16.960117 
L 172.67643 16.896926 
L 175.418445 16.19191 
L 178.16046 16.853035 
L 180.902475 16.982374 
L 183.644489 16.950414 
L 186.386504 16.413354 
L 189.128519 17.3203 
L 191.870534 17.549573 
L 194.612548 16.894605 
L 197.354563 17.637504 
L 200.096578 16.648111 
L 202.838593 17.273369 
L 205.580607 18.037957 
L 208.322622 16.708335 
L 211.064637 17.003556 
L 213.806652 17.690126 
L 216.548666 17.571092 
L 219.290681 17.673668 
L 222.032696 18.008755 
L 224.774711 17.348804 
L 227.516725 17.499918 
L 230.25874 17.71799 
L 233.000755 18.346409 
L 235.74277 17.58396 
L 238.484784 17.520487 
L 241.226799 17.569984 
L 243.968814 17.871755 
L 246.710828 18.043148 
L 249.452843 17.502169 
L 252.194858 18.605452 
" clip-path="url(#pb418dd5bc4)" style="fill: none; stroke: #1f77b4; stroke-width: 1.5; stroke-linecap: square"/>
   </g>
   <g id="patch_3">
    <path d="M 39.140313 170.48055 
L 39.140313 4.16055 
" style="fill: none; stroke: #000000; stroke-width: 0.8; stroke-linejoin: miter; stroke-linecap: square"/>
   </g>
   <g id="patch_4">
    <path d="M 262.340312 170.48055 
L 262.340312 4.16055 
" style="fill: none; stroke: #000000; stroke-width: 0.8; stroke-linejoin: miter; stroke-linecap: square"/>
   </g>
   <g id="patch_5">
    <path d="M 39.140313 170.48055 
L 262.340312 170.48055 
" style="fill: none; stroke: #000000; stroke-width: 0.8; stroke-linejoin: miter; stroke-linecap: square"/>
   </g>
   <g id="patch_6">
    <path d="M 39.140313 4.16055 
L 262.340312 4.16055 
" style="fill: none; stroke: #000000; stroke-width: 0.8; stroke-linejoin: miter; stroke-linecap: square"/>
   </g>
   <g id="legend_1">
    <g id="patch_7">
     <path d="M 182.509062 118.1768 
L 255.340312 118.1768 
Q 257.340312 118.1768 257.340312 116.1768 
L 257.340312 58.4643 
Q 257.340312 56.4643 255.340312 56.4643 
L 182.509062 56.4643 
Q 180.509062 56.4643 180.509062 58.4643 
L 180.509062 116.1768 
Q 180.509062 118.1768 182.509062 118.1768 
z
" style="fill: #ffffff; opacity: 0.8; stroke: #cccccc; stroke-linejoin: miter"/>
    </g>
    <g id="line2d_89">
     <path d="M 184.509062 64.562737 
L 194.509062 64.562737 
L 204.509062 64.562737 
" style="fill: none; stroke: #ff7f0e; stroke-width: 1.5; stroke-linecap: square"/>
     <g>
      <use xlink:href="#m7a5d8ede17" x="194.509062" y="64.562737" style="fill: #ff7f0e; stroke: #ff7f0e"/>
     </g>
    </g>
    <g id="text_14">
     <!-- SCAR-Q -->
     <g transform="translate(212.509062 68.062737) scale(0.1 -0.1)">
      <defs>
       <path id="DejaVuSerif-43" d="M 4513 1234 
Q 4306 581 3820 245 
Q 3334 -91 2591 -91 
Q 2134 -91 1743 65 
Q 1353 222 1050 525 
Q 700 875 529 1320 
Q 359 1766 359 2328 
Q 359 3416 987 4083 
Q 1616 4750 2644 4750 
Q 3025 4750 3456 4650 
Q 3888 4550 4384 4347 
L 4384 3272 
L 4031 3272 
Q 3916 3859 3567 4137 
Q 3219 4416 2591 4416 
Q 1844 4416 1459 3886 
Q 1075 3356 1075 2328 
Q 1075 1303 1459 773 
Q 1844 244 2591 244 
Q 3113 244 3450 492 
Q 3788 741 3938 1234 
L 4513 1234 
z
" transform="scale(0.015625)"/>
       <path id="DejaVuSerif-41" d="M 1281 1691 
L 2994 1691 
L 2138 3909 
L 1281 1691 
z
M -38 0 
L -38 331 
L 372 331 
L 2034 4666 
L 2559 4666 
L 4225 331 
L 4684 331 
L 4684 0 
L 2988 0 
L 2988 331 
L 3506 331 
L 3116 1356 
L 1153 1356 
L 763 331 
L 1275 331 
L 1275 0 
L -38 0 
z
" transform="scale(0.015625)"/>
       <path id="DejaVuSerif-2d" d="M 281 1959 
L 1881 1959 
L 1881 1472 
L 281 1472 
L 281 1959 
z
" transform="scale(0.015625)"/>
      </defs>
      <use xlink:href="#DejaVuSerif-53"/>
      <use xlink:href="#DejaVuSerif-43" transform="translate(68.505859 0)"/>
      <use xlink:href="#DejaVuSerif-41" transform="translate(145.019531 0)"/>
      <use xlink:href="#DejaVuSerif-52" transform="translate(217.236328 0)"/>
      <use xlink:href="#DejaVuSerif-2d" transform="translate(292.529297 0)"/>
      <use xlink:href="#DejaVuSerif-51" transform="translate(326.318359 0)"/>
     </g>
    </g>
    <g id="line2d_90">
     <path d="M 184.509062 79.240862 
L 194.509062 79.240862 
L 204.509062 79.240862 
" style="fill: none; stroke: #2ca02c; stroke-width: 1.5; stroke-linecap: square"/>
     <g>
      <use xlink:href="#m187d3c3c95" x="194.509062" y="79.240862" style="fill: #2ca02c; stroke: #2ca02c; stroke-linejoin: miter"/>
     </g>
    </g>
    <g id="text_15">
     <!-- StratoQ -->
     <g transform="translate(212.509062 82.740862) scale(0.1 -0.1)">
      <use xlink:href="#DejaVuSerif-53"/>
      <use xlink:href="#DejaVuSerif-74" transform="translate(68.505859 0)"/>
      <use xlink:href="#DejaVuSerif-72" transform="translate(108.691406 0)"/>
      <use xlink:href="#DejaVuSerif-61" transform="translate(156.494141 0)"/>
      <use xlink:href="#DejaVuSerif-74" transform="translate(216.113281 0)"/>
      <use xlink:href="#DejaVuSerif-6f" transform="translate(256.298828 0)"/>
      <use xlink:href="#DejaVuSerif-51" transform="translate(316.503906 0)"/>
     </g>
    </g>
    <g id="line2d_91">
     <path d="M 184.509062 93.918987 
L 194.509062 93.918987 
L 204.509062 93.918987 
" style="fill: none; stroke: #d62728; stroke-width: 1.5; stroke-linecap: square"/>
     <g>
      <use xlink:href="#madd57df4c8" x="194.509062" y="93.918987" style="fill: #d62728; stroke: #d62728; stroke-linejoin: miter"/>
     </g>
    </g>
    <g id="text_16">
     <!-- Relaxed -->
     <g transform="translate(212.509062 97.418987) scale(0.1 -0.1)">
      <defs>
       <path id="DejaVuSerif-78" d="M 1863 2028 
L 2559 2988 
L 2113 2988 
L 2113 3322 
L 3391 3322 
L 3391 2988 
L 2950 2988 
L 2059 1759 
L 3097 331 
L 3531 331 
L 3531 0 
L 1997 0 
L 1997 331 
L 2419 331 
L 1697 1325 
L 972 331 
L 1403 331 
L 1403 0 
L 141 0 
L 141 331 
L 581 331 
L 1497 1594 
L 488 2988 
L 78 2988 
L 78 3322 
L 1563 3322 
L 1563 2988 
L 1166 2988 
L 1863 2028 
z
" transform="scale(0.015625)"/>
      </defs>
      <use xlink:href="#DejaVuSerif-52"/>
      <use xlink:href="#DejaVuSerif-65" transform="translate(75.292969 0)"/>
      <use xlink:href="#DejaVuSerif-6c" transform="translate(134.472656 0)"/>
      <use xlink:href="#DejaVuSerif-61" transform="translate(166.455078 0)"/>
      <use xlink:href="#DejaVuSerif-78" transform="translate(226.074219 0)"/>
      <use xlink:href="#DejaVuSerif-65" transform="translate(282.470703 0)"/>
      <use xlink:href="#DejaVuSerif-64" transform="translate(341.650391 0)"/>
     </g>
    </g>
    <g id="LineCollection_2">
     <path d="M 194.509062 113.597112 
L 194.509062 103.597112 
" style="fill: none; stroke: #1f77b4; stroke-width: 1.5"/>
    </g>
    <g id="line2d_92">
     <path d="M 184.509062 108.597112 
L 204.509062 108.597112 
" style="fill: none; stroke: #1f77b4; stroke-width: 1.5; stroke-linecap: square"/>
    </g>
    <g id="line2d_93"/>
    <g id="text_17">
     <!-- MCR-Q -->
     <g transform="translate(212.509062 112.097112) scale(0.1 -0.1)">
      <use xlink:href="#DejaVuSerif-4d"/>
      <use xlink:href="#DejaVuSerif-43" transform="translate(102.392578 0)"/>
      <use xlink:href="#DejaVuSerif-52" transform="translate(178.90625 0)"/>
      <use xlink:href="#DejaVuSerif-2d" transform="translate(254.199219 0)"/>
      <use xlink:href="#DejaVuSerif-51" transform="translate(287.988281 0)"/>
     </g>
    </g>
   </g>
  </g>
 </g>
 <defs>
  <clipPath id="pb418dd5bc4">
   <rect x="39.140313" y="4.16055" width="223.2" height="166.32"/>
  </clipPath>
 </defs>
</svg>
