<?xml version="1.0" encoding="utf-8" standalone="no"?>
<!DOCTYPE svg PUBLIC "-//W3C//DTD SVG 1.1//EN"
  "http://www.w3.org/Graphics/SVG/1.1/DTD/svg11.dtd">
<svg xmlns:xlink="http://www.w3.org/1999/xlink" width="273.21987pt" height="213.011875pt" viewBox="0 0 273.21987 213.011875" xmlns="http://www.w3.org/2000/svg" version="1.1">
 <metadata>
  <rdf:RDF xmlns:dc="http://purl.org/dc/elements/1.1/" xmlns:cc="http://creativecommons.org/ns#" xmlns:rdf="http://www.w3.org/1999/02/22-rdf-syntax-ns#">
   <cc:Work>
    <dc:type rdf:resource="http://purl.org/dc/dcmitype/StillImage"/>
    <dc:date>2026-02-03T11:12:20.323044</dc:date>
    <dc:format>image/svg+xml</dc:format>
    <dc:creator>
     <cc:Agent>
      <dc:title>Matplotlib v3.10.8, https://matplotlib.org/</dc:title>
     </cc:Agent>
    </dc:creator>
   </cc:Work>
  </rdf:RDF>
 </metadata>
 <defs>
  <style type="text/css">*{stroke-linejoin: round; stroke-linecap: butt}</style>
 </defs>
 <g id="figure_1">
  <g id="patch_1">
   <path d="M 0 213.011875 
L 273.21987 213.011875 
L 273.21987 0 
L 0 0 
z
" style="fill: #ffffff"/>
  </g>
  <g id="axes_1">
   <g id="patch_2">
    <path d="M 53.21375 173.52 
L 265.25375 173.52 
L 265.25375 7.2 
L 53.21375 7.2 
z
" style="fill: #ffffff"/>
   </g>
   <g id="FillBetweenPolyCollection_1">
    <defs>
     <path id="m30ca867d2e" d="M 62.851932 -183.968262 
L 62.851932 -186.640415 
L 63.712484 -186.537742 
L 64.573036 -186.43429 
L 65.433588 -186.331292 
L 66.29414 -186.227476 
L 67.154692 -186.124874 
L 68.015244 -186.021025 
L 68.875795 -185.917891 
L 69.736347 -185.813858 
L 70.596899 -185.709063 
L 71.457451 -185.603922 
L 72.318003 -185.499053 
L 73.178555 -185.393488 
L 74.039107 -185.289485 
L 74.899659 -185.184388 
L 75.760211 -185.078868 
L 76.620763 -184.972568 
L 77.481315 -184.866519 
L 78.341867 -184.760944 
L 79.202419 -184.653244 
L 80.062971 -184.547987 
L 80.923523 -184.438865 
L 81.784075 -184.334139 
L 82.644627 -184.226007 
L 83.505179 -184.116567 
L 84.365731 -184.008072 
L 85.226282 -183.898703 
L 86.086834 -183.792677 
L 86.947386 -183.681803 
L 87.807938 -183.571776 
L 88.66849 -183.462349 
L 89.529042 -183.350969 
L 90.389594 -183.242213 
L 91.250146 -183.128689 
L 92.110698 -183.017739 
L 92.97125 -182.906703 
L 93.831802 -182.794335 
L 94.692354 -182.680581 
L 95.552906 -182.568224 
L 96.413458 -182.454053 
L 97.27401 -182.33697 
L 98.134562 -182.223077 
L 98.995114 -182.106492 
L 99.855666 -181.990907 
L 100.716218 -181.874223 
L 101.576769 -181.75736 
L 102.437321 -181.640362 
L 103.297873 -181.519528 
L 104.158425 -181.399071 
L 105.018977 -181.280432 
L 105.879529 -181.160432 
L 106.740081 -181.040529 
L 107.600633 -180.918806 
L 108.461185 -180.793533 
L 109.321737 -180.672417 
L 110.182289 -180.54381 
L 111.042841 -180.419953 
L 111.903393 -180.293426 
L 112.763945 -180.166075 
L 113.624497 -180.042083 
L 114.485049 -179.911881 
L 115.345601 -179.781347 
L 116.206153 -179.652254 
L 117.066705 -179.522461 
L 117.927256 -179.390492 
L 118.787808 -179.257691 
L 119.64836 -179.127258 
L 120.508912 -178.992746 
L 121.369464 -178.857385 
L 122.230016 -178.719405 
L 123.090568 -178.584091 
L 123.95112 -178.447388 
L 124.811672 -178.305929 
L 125.672224 -178.16658 
L 126.532776 -178.023856 
L 127.393328 -177.887322 
L 128.25388 -177.744934 
L 129.114432 -177.599786 
L 129.974984 -177.453591 
L 130.835536 -177.309237 
L 131.696088 -177.167583 
L 132.55664 -177.021523 
L 133.417192 -176.873462 
L 134.277744 -176.721877 
L 135.138295 -176.571775 
L 135.998847 -176.423688 
L 136.859399 -176.268964 
L 137.719951 -176.11879 
L 138.580503 -175.966317 
L 139.441055 -175.814437 
L 140.301607 -175.661365 
L 141.162159 -175.50177 
L 142.022711 -175.346409 
L 142.883263 -175.190257 
L 143.743815 -175.028039 
L 144.604367 -174.86934 
L 145.464919 -174.710544 
L 146.325471 -174.550831 
L 147.186023 -174.388938 
L 148.046575 -174.228324 
L 148.907127 -174.063805 
L 149.767679 -173.898807 
L 150.628231 -173.732853 
L 151.488782 -173.565613 
L 152.349334 -173.404388 
L 153.209886 -173.232577 
L 154.070438 -173.072435 
L 154.93099 -172.897461 
L 155.791542 -172.728723 
L 156.652094 -172.564064 
L 157.512646 -172.384344 
L 158.373198 -172.216137 
L 159.23375 -172.040967 
L 160.094302 -171.869317 
L 160.954854 -171.698184 
L 161.815406 -171.52581 
L 162.675958 -171.344827 
L 163.53651 -171.172982 
L 164.397062 -170.995637 
L 165.257614 -170.81423 
L 166.118166 -170.637651 
L 166.978718 -170.456051 
L 167.839269 -170.283082 
L 168.699821 -170.102487 
L 169.560373 -169.924487 
L 170.420925 -169.737549 
L 171.281477 -169.554832 
L 172.142029 -169.37288 
L 173.002581 -169.194492 
L 173.863133 -169.006961 
L 174.723685 -168.825521 
L 175.584237 -168.630937 
L 176.444789 -168.45859 
L 177.305341 -168.264925 
L 178.165893 -168.079353 
L 179.026445 -167.8924 
L 179.886997 -167.707966 
L 180.747549 -167.515183 
L 181.608101 -167.324724 
L 182.468653 -167.134536 
L 183.329205 -166.94394 
L 184.189756 -166.756681 
L 185.050308 -166.56851 
L 185.91086 -166.37455 
L 186.771412 -166.17084 
L 187.631964 -165.981121 
L 188.492516 -165.794218 
L 189.353068 -165.599602 
L 190.21362 -165.404025 
L 191.074172 -165.208112 
L 191.934724 -165.011972 
L 192.795276 -164.813335 
L 193.655828 -164.617956 
L 194.51638 -164.419485 
L 195.376932 -164.222618 
L 196.237484 -164.017772 
L 197.098036 -163.82075 
L 197.958588 -163.619714 
L 198.81914 -163.420229 
L 199.679692 -163.221126 
L 200.540244 -163.013558 
L 201.400795 -162.810004 
L 202.261347 -162.603624 
L 203.121899 -162.406326 
L 203.982451 -162.196917 
L 204.843003 -161.993367 
L 205.703555 -161.79052 
L 206.564107 -161.586187 
L 207.424659 -161.376073 
L 208.285211 -161.167059 
L 209.145763 -160.969197 
L 210.006315 -160.74846 
L 210.866867 -160.547942 
L 211.727419 -160.333991 
L 212.587971 -160.129268 
L 213.448523 -159.919693 
L 214.309075 -159.702191 
L 215.169627 -159.491798 
L 216.030179 -159.28823 
L 216.890731 -159.066975 
L 217.751282 -158.851498 
L 218.611834 -158.636948 
L 219.472386 -158.431163 
L 220.332938 -158.215448 
L 221.19349 -157.990462 
L 222.054042 -157.777704 
L 222.914594 -157.553399 
L 223.775146 -157.341301 
L 224.635698 -157.11991 
L 225.49625 -156.915105 
L 226.356802 -156.684668 
L 227.217354 -156.457558 
L 228.077906 -156.238868 
L 228.938458 -156.017478 
L 229.79901 -155.798737 
L 230.659562 -155.578274 
L 231.520114 -155.351869 
L 232.380666 -155.124844 
L 233.241218 -154.908439 
L 234.101769 -154.675128 
L 234.962321 -154.444021 
L 235.822873 -154.22961 
L 236.683425 -153.996444 
L 237.543977 -153.759396 
L 238.404529 -153.534379 
L 239.265081 -153.317475 
L 240.125633 -153.072157 
L 240.986185 -152.847135 
L 241.846737 -152.617725 
L 242.707289 -152.376636 
L 243.567841 -152.148889 
L 244.428393 -151.893284 
L 245.288945 -151.67767 
L 246.149497 -151.439339 
L 247.010049 -151.190806 
L 247.870601 -150.965922 
L 248.731153 -150.724349 
L 249.591705 -150.484849 
L 250.452256 -150.252487 
L 251.312808 -150.008597 
L 252.17336 -149.766926 
L 253.033912 -149.5266 
L 253.894464 -149.271344 
L 254.755016 -149.029687 
L 255.615568 -148.786712 
L 255.615568 -111.201078 
L 255.615568 -111.201078 
L 254.755016 -111.641896 
L 253.894464 -112.080756 
L 253.033912 -112.532587 
L 252.17336 -112.96887 
L 251.312808 -113.405889 
L 250.452256 -113.844528 
L 249.591705 -114.271051 
L 248.731153 -114.704133 
L 247.870601 -115.138718 
L 247.010049 -115.556055 
L 246.149497 -115.996489 
L 245.288945 -116.426178 
L 244.428393 -116.832618 
L 243.567841 -117.278525 
L 242.707289 -117.696057 
L 241.846737 -118.126426 
L 240.986185 -118.544616 
L 240.125633 -118.957927 
L 239.265081 -119.391053 
L 238.404529 -119.79529 
L 237.543977 -120.207174 
L 236.683425 -120.630629 
L 235.822873 -121.049751 
L 234.962321 -121.449676 
L 234.101769 -121.86586 
L 233.241218 -122.283818 
L 232.380666 -122.684449 
L 231.520114 -123.095285 
L 230.659562 -123.505093 
L 229.79901 -123.908557 
L 228.938458 -124.309904 
L 228.077906 -124.713512 
L 227.217354 -125.114038 
L 226.356802 -125.522609 
L 225.49625 -125.934137 
L 224.635698 -126.319668 
L 223.775146 -126.721429 
L 222.914594 -127.113544 
L 222.054042 -127.51752 
L 221.19349 -127.909608 
L 220.332938 -128.313589 
L 219.472386 -128.707968 
L 218.611834 -129.092092 
L 217.751282 -129.484661 
L 216.890731 -129.877843 
L 216.030179 -130.276492 
L 215.169627 -130.657148 
L 214.309075 -131.044329 
L 213.448523 -131.438322 
L 212.587971 -131.824095 
L 211.727419 -132.204729 
L 210.866867 -132.594306 
L 210.006315 -132.970171 
L 209.145763 -133.365979 
L 208.285211 -133.738639 
L 207.424659 -134.122183 
L 206.564107 -134.506561 
L 205.703555 -134.884897 
L 204.843003 -135.261488 
L 203.982451 -135.638528 
L 203.121899 -136.021174 
L 202.261347 -136.39146 
L 201.400795 -136.770582 
L 200.540244 -137.146633 
L 199.679692 -137.526457 
L 198.81914 -137.897578 
L 197.958588 -138.268845 
L 197.098036 -138.641429 
L 196.237484 -139.009767 
L 195.376932 -139.385699 
L 194.51638 -139.753425 
L 193.655828 -140.122528 
L 192.795276 -140.488314 
L 191.934724 -140.857136 
L 191.074172 -141.22324 
L 190.21362 -141.588895 
L 189.353068 -141.953996 
L 188.492516 -142.317918 
L 187.631964 -142.67391 
L 186.771412 -143.032502 
L 185.91086 -143.40487 
L 185.050308 -143.767272 
L 184.189756 -144.12367 
L 183.329205 -144.478944 
L 182.468653 -144.837339 
L 181.608101 -145.195114 
L 180.747549 -145.552945 
L 179.886997 -145.912887 
L 179.026445 -146.264264 
L 178.165893 -146.617946 
L 177.305341 -146.970032 
L 176.444789 -147.329994 
L 175.584237 -147.668422 
L 174.723685 -148.028869 
L 173.863133 -148.375952 
L 173.002581 -148.728906 
L 172.142029 -149.072496 
L 171.281477 -149.419426 
L 170.420925 -149.766896 
L 169.560373 -150.118361 
L 168.699821 -150.460659 
L 167.839269 -150.80532 
L 166.978718 -151.142122 
L 166.118166 -151.48732 
L 165.257614 -151.827259 
L 164.397062 -152.171785 
L 163.53651 -152.512004 
L 162.675958 -152.846476 
L 161.815406 -153.189836 
L 160.954854 -153.524333 
L 160.094302 -153.857331 
L 159.23375 -154.190586 
L 158.373198 -154.527095 
L 157.512646 -154.856372 
L 156.652094 -155.196887 
L 155.791542 -155.522063 
L 154.93099 -155.851035 
L 154.070438 -156.185956 
L 153.209886 -156.50575 
L 152.349334 -156.836916 
L 151.488782 -157.157191 
L 150.628231 -157.483171 
L 149.767679 -157.807549 
L 148.907127 -158.13065 
L 148.046575 -158.452942 
L 147.186023 -158.770995 
L 146.325471 -159.089985 
L 145.464919 -159.406445 
L 144.604367 -159.721633 
L 143.743815 -160.03636 
L 142.883263 -160.354234 
L 142.022711 -160.665663 
L 141.162159 -160.975915 
L 140.301607 -161.290004 
L 139.441055 -161.597166 
L 138.580503 -161.902723 
L 137.719951 -162.208453 
L 136.859399 -162.511452 
L 135.998847 -162.818562 
L 135.138295 -163.118587 
L 134.277744 -163.420168 
L 133.417192 -163.722765 
L 132.55664 -164.02136 
L 131.696088 -164.317467 
L 130.835536 -164.608672 
L 129.974984 -164.90207 
L 129.114432 -165.196793 
L 128.25388 -165.489943 
L 127.393328 -165.779799 
L 126.532776 -166.063255 
L 125.672224 -166.352348 
L 124.811672 -166.637502 
L 123.95112 -166.924193 
L 123.090568 -167.205546 
L 122.230016 -167.484921 
L 121.369464 -167.766363 
L 120.508912 -168.04458 
L 119.64836 -168.321334 
L 118.787808 -168.593387 
L 117.927256 -168.86718 
L 117.066705 -169.139507 
L 116.206153 -169.409019 
L 115.345601 -169.677184 
L 114.485049 -169.946139 
L 113.624497 -170.214109 
L 112.763945 -170.475211 
L 111.903393 -170.739011 
L 111.042841 -171.001324 
L 110.182289 -171.260303 
L 109.321737 -171.523367 
L 108.461185 -171.778275 
L 107.600633 -172.036675 
L 106.740081 -172.290863 
L 105.879529 -172.542571 
L 105.018977 -172.793719 
L 104.158425 -173.042851 
L 103.297873 -173.293152 
L 102.437321 -173.543187 
L 101.576769 -173.788749 
L 100.716218 -174.033545 
L 99.855666 -174.277538 
L 98.995114 -174.519817 
L 98.134562 -174.762489 
L 97.27401 -175.001873 
L 96.413458 -175.243861 
L 95.552906 -175.482359 
L 94.692354 -175.718478 
L 93.831802 -175.955442 
L 92.97125 -176.190477 
L 92.110698 -176.423651 
L 91.250146 -176.656222 
L 90.389594 -176.890864 
L 89.529042 -177.120247 
L 88.66849 -177.351777 
L 87.807938 -177.58089 
L 86.947386 -177.810153 
L 86.086834 -178.039826 
L 85.226282 -178.264226 
L 84.365731 -178.49156 
L 83.505179 -178.717621 
L 82.644627 -178.944242 
L 81.784075 -179.169181 
L 80.923523 -179.390352 
L 80.062971 -179.615569 
L 79.202419 -179.836581 
L 78.341867 -180.059707 
L 77.481315 -180.280386 
L 76.620763 -180.501229 
L 75.760211 -180.72202 
L 74.899659 -180.941735 
L 74.039107 -181.160737 
L 73.178555 -181.378365 
L 72.318003 -181.597277 
L 71.457451 -181.815223 
L 70.596899 -182.033173 
L 69.736347 -182.250513 
L 68.875795 -182.466831 
L 68.015244 -182.681994 
L 67.154692 -182.897617 
L 66.29414 -183.11174 
L 65.433588 -183.326826 
L 64.573036 -183.540843 
L 63.712484 -183.755067 
L 62.851932 -183.968262 
z
" style="stroke: #1f77b4; stroke-opacity: 0.3"/>
    </defs>
    <g clip-path="url(#pbe59b5c0c1)">
     <use xlink:href="#m30ca867d2e" x="0" y="213.011875" style="fill: #1f77b4; fill-opacity: 0.3; stroke: #1f77b4; stroke-opacity: 0.3"/>
    </g>
   </g>
   <g id="FillBetweenPolyCollection_2">
    <defs>
     <path id="m4f6f332528" d="M 62.851932 -183.968262 
L 62.851932 -186.640415 
L 63.712484 -186.537742 
L 64.573036 -186.43429 
L 65.433588 -186.331292 
L 66.29414 -186.227476 
L 67.154692 -186.124874 
L 68.015244 -186.021025 
L 68.875795 -185.917891 
L 69.736347 -185.813858 
L 70.596899 -185.709063 
L 71.457451 -185.603922 
L 72.318003 -185.499053 
L 73.178555 -185.393488 
L 74.039107 -185.289485 
L 74.899659 -185.184388 
L 75.760211 -185.078868 
L 76.620763 -184.972568 
L 77.481315 -184.866519 
L 78.341867 -184.760944 
L 79.202419 -184.653244 
L 80.062971 -184.547987 
L 80.923523 -184.438865 
L 81.784075 -184.334139 
L 82.644627 -184.226007 
L 83.505179 -184.116567 
L 84.365731 -184.008072 
L 85.226282 -183.898703 
L 86.086834 -183.792677 
L 86.947386 -183.681803 
L 87.807938 -183.571776 
L 88.66849 -183.462349 
L 89.529042 -183.350969 
L 90.389594 -183.242213 
L 91.250146 -183.128689 
L 92.110698 -183.017739 
L 92.97125 -182.906703 
L 93.831802 -182.794335 
L 94.692354 -182.680581 
L 95.552906 -182.568224 
L 96.413458 -182.454053 
L 97.27401 -182.33697 
L 98.134562 -182.223077 
L 98.995114 -182.106492 
L 99.855666 -181.990907 
L 100.716218 -181.874223 
L 101.576769 -181.75736 
L 102.437321 -181.640362 
L 103.297873 -181.519528 
L 104.158425 -181.399071 
L 105.018977 -181.280432 
L 105.879529 -181.160432 
L 106.740081 -181.040529 
L 107.600633 -180.918806 
L 108.461185 -180.793533 
L 109.321737 -180.672417 
L 110.182289 -180.54381 
L 111.042841 -180.419953 
L 111.903393 -180.293426 
L 112.763945 -180.166075 
L 113.624497 -180.042083 
L 114.485049 -179.911881 
L 115.345601 -179.781347 
L 116.206153 -179.652254 
L 117.066705 -179.522461 
L 117.927256 -179.390492 
L 118.787808 -179.257691 
L 119.64836 -179.127258 
L 120.508912 -178.992746 
L 121.369464 -178.857385 
L 122.230016 -178.719405 
L 123.090568 -178.584091 
L 123.95112 -178.447388 
L 124.811672 -178.305929 
L 125.672224 -178.16658 
L 126.532776 -178.023856 
L 127.393328 -177.887322 
L 128.25388 -177.744934 
L 129.114432 -177.599786 
L 129.974984 -177.453591 
L 130.835536 -177.309237 
L 131.696088 -177.167583 
L 132.55664 -177.021523 
L 133.417192 -176.873462 
L 134.277744 -176.721877 
L 135.138295 -176.571775 
L 135.998847 -176.423688 
L 136.859399 -176.268964 
L 137.719951 -176.11879 
L 138.580503 -175.966317 
L 139.441055 -175.814437 
L 140.301607 -175.661365 
L 141.162159 -175.50177 
L 142.022711 -175.346409 
L 142.883263 -175.190257 
L 143.743815 -175.028039 
L 144.604367 -174.86934 
L 145.464919 -174.710544 
L 146.325471 -174.550831 
L 147.186023 -174.388938 
L 148.046575 -174.228324 
L 148.907127 -174.063805 
L 149.767679 -173.898807 
L 150.628231 -173.732853 
L 151.488782 -173.565613 
L 152.349334 -173.404388 
L 153.209886 -173.232577 
L 154.070438 -173.072435 
L 154.93099 -172.897461 
L 155.791542 -172.728723 
L 156.652094 -172.564064 
L 157.512646 -172.384344 
L 158.373198 -172.216137 
L 159.23375 -172.040967 
L 160.094302 -171.869317 
L 160.954854 -171.698184 
L 161.815406 -171.52581 
L 162.675958 -171.344827 
L 163.53651 -171.172982 
L 164.397062 -170.995637 
L 165.257614 -170.81423 
L 166.118166 -170.637651 
L 166.978718 -170.456051 
L 167.839269 -170.283082 
L 168.699821 -170.102487 
L 169.560373 -169.924487 
L 170.420925 -169.737549 
L 171.281477 -169.554832 
L 172.142029 -169.37288 
L 173.002581 -169.194492 
L 173.863133 -169.006961 
L 174.723685 -168.825521 
L 175.584237 -168.630937 
L 176.444789 -168.45859 
L 177.305341 -168.264925 
L 178.165893 -168.079353 
L 179.026445 -167.8924 
L 179.886997 -167.707966 
L 180.747549 -167.515183 
L 181.608101 -167.324724 
L 182.468653 -167.134536 
L 183.329205 -166.94394 
L 184.189756 -166.756681 
L 185.050308 -166.56851 
L 185.91086 -166.37455 
L 186.771412 -166.17084 
L 187.631964 -165.981121 
L 188.492516 -165.794218 
L 189.353068 -165.599602 
L 190.21362 -165.404025 
L 191.074172 -165.208112 
L 191.934724 -165.011972 
L 192.795276 -164.813335 
L 193.655828 -164.617956 
L 194.51638 -164.419485 
L 195.376932 -164.222618 
L 196.237484 -164.017772 
L 197.098036 -163.82075 
L 197.958588 -163.619714 
L 198.81914 -163.420229 
L 199.679692 -163.221126 
L 200.540244 -163.013558 
L 201.400795 -162.810004 
L 202.261347 -162.603624 
L 203.121899 -162.406326 
L 203.982451 -162.196917 
L 204.843003 -161.993367 
L 205.703555 -161.79052 
L 206.564107 -161.586187 
L 207.424659 -161.376073 
L 208.285211 -161.167059 
L 209.145763 -160.969197 
L 210.006315 -160.74846 
L 210.866867 -160.547942 
L 211.727419 -160.333991 
L 212.587971 -160.129268 
L 213.448523 -159.919693 
L 214.309075 -159.702191 
L 215.169627 -159.491798 
L 216.030179 -159.28823 
L 216.890731 -159.066975 
L 217.751282 -158.851498 
L 218.611834 -158.636948 
L 219.472386 -158.431163 
L 220.332938 -158.215448 
L 221.19349 -157.990462 
L 222.054042 -157.777704 
L 222.914594 -157.553399 
L 223.775146 -157.341301 
L 224.635698 -157.11991 
L 225.49625 -156.915105 
L 226.356802 -156.684668 
L 227.217354 -156.457558 
L 228.077906 -156.238868 
L 228.938458 -156.017478 
L 229.79901 -155.798737 
L 230.659562 -155.578274 
L 231.520114 -155.351869 
L 232.380666 -155.124844 
L 233.241218 -154.908439 
L 234.101769 -154.675128 
L 234.962321 -154.444021 
L 235.822873 -154.22961 
L 236.683425 -153.996444 
L 237.543977 -153.759396 
L 238.404529 -153.534379 
L 239.265081 -153.317475 
L 240.125633 -153.072157 
L 240.986185 -152.847135 
L 241.846737 -152.617725 
L 242.707289 -152.376636 
L 243.567841 -152.148889 
L 244.428393 -151.893284 
L 245.288945 -151.67767 
L 246.149497 -151.439339 
L 247.010049 -151.190806 
L 247.870601 -150.965922 
L 248.731153 -150.724349 
L 249.591705 -150.484849 
L 250.452256 -150.252487 
L 251.312808 -150.008597 
L 252.17336 -149.766926 
L 253.033912 -149.5266 
L 253.894464 -149.271344 
L 254.755016 -149.029687 
L 255.615568 -148.786712 
L 255.615568 -111.201078 
L 255.615568 -111.201078 
L 254.755016 -111.641896 
L 253.894464 -112.080756 
L 253.033912 -112.532587 
L 252.17336 -112.96887 
L 251.312808 -113.405889 
L 250.452256 -113.844528 
L 249.591705 -114.271051 
L 248.731153 -114.704133 
L 247.870601 -115.138718 
L 247.010049 -115.556055 
L 246.149497 -115.996489 
L 245.288945 -116.426178 
L 244.428393 -116.832618 
L 243.567841 -117.278525 
L 242.707289 -117.696057 
L 241.846737 -118.126426 
L 240.986185 -118.544616 
L 240.125633 -118.957927 
L 239.265081 -119.391053 
L 238.404529 -119.79529 
L 237.543977 -120.207174 
L 236.683425 -120.630629 
L 235.822873 -121.049751 
L 234.962321 -121.449676 
L 234.101769 -121.86586 
L 233.241218 -122.283818 
L 232.380666 -122.684449 
L 231.520114 -123.095285 
L 230.659562 -123.505093 
L 229.79901 -123.908557 
L 228.938458 -124.309904 
L 228.077906 -124.713512 
L 227.217354 -125.114038 
L 226.356802 -125.522609 
L 225.49625 -125.934137 
L 224.635698 -126.319668 
L 223.775146 -126.721429 
L 222.914594 -127.113544 
L 222.054042 -127.51752 
L 221.19349 -127.909608 
L 220.332938 -128.313589 
L 219.472386 -128.707968 
L 218.611834 -129.092092 
L 217.751282 -129.484661 
L 216.890731 -129.877843 
L 216.030179 -130.276492 
L 215.169627 -130.657148 
L 214.309075 -131.044329 
L 213.448523 -131.438322 
L 212.587971 -131.824095 
L 211.727419 -132.204729 
L 210.866867 -132.594306 
L 210.006315 -132.970171 
L 209.145763 -133.365979 
L 208.285211 -133.738639 
L 207.424659 -134.122183 
L 206.564107 -134.506561 
L 205.703555 -134.884897 
L 204.843003 -135.261488 
L 203.982451 -135.638528 
L 203.121899 -136.021174 
L 202.261347 -136.39146 
L 201.400795 -136.770582 
L 200.540244 -137.146633 
L 199.679692 -137.526457 
L 198.81914 -137.897578 
L 197.958588 -138.268845 
L 197.098036 -138.641429 
L 196.237484 -139.009767 
L 195.376932 -139.385699 
L 194.51638 -139.753425 
L 193.655828 -140.122528 
L 192.795276 -140.488314 
L 191.934724 -140.857136 
L 191.074172 -141.22324 
L 190.21362 -141.588895 
L 189.353068 -141.953996 
L 188.492516 -142.317918 
L 187.631964 -142.67391 
L 186.771412 -143.032502 
L 185.91086 -143.40487 
L 185.050308 -143.767272 
L 184.189756 -144.12367 
L 183.329205 -144.478944 
L 182.468653 -144.837339 
L 181.608101 -145.195114 
L 180.747549 -145.552945 
L 179.886997 -145.912887 
L 179.026445 -146.264264 
L 178.165893 -146.617946 
L 177.305341 -146.970032 
L 176.444789 -147.329994 
L 175.584237 -147.668422 
L 174.723685 -148.028869 
L 173.863133 -148.375952 
L 173.002581 -148.728906 
L 172.142029 -149.072496 
L 171.281477 -149.419426 
L 170.420925 -149.766896 
L 169.560373 -150.118361 
L 168.699821 -150.460659 
L 167.839269 -150.80532 
L 166.978718 -151.142122 
L 166.118166 -151.48732 
L 165.257614 -151.827259 
L 164.397062 -152.171785 
L 163.53651 -152.512004 
L 162.675958 -152.846476 
L 161.815406 -153.189836 
L 160.954854 -153.524333 
L 160.094302 -153.857331 
L 159.23375 -154.190586 
L 158.373198 -154.527095 
L 157.512646 -154.856372 
L 156.652094 -155.196887 
L 155.791542 -155.522063 
L 154.93099 -155.851035 
L 154.070438 -156.185956 
L 153.209886 -156.50575 
L 152.349334 -156.836916 
L 151.488782 -157.157191 
L 150.628231 -157.483171 
L 149.767679 -157.807549 
L 148.907127 -158.13065 
L 148.046575 -158.452942 
L 147.186023 -158.770995 
L 146.325471 -159.089985 
L 145.464919 -159.406445 
L 144.604367 -159.721633 
L 143.743815 -160.03636 
L 142.883263 -160.354234 
L 142.022711 -160.665663 
L 141.162159 -160.975915 
L 140.301607 -161.290004 
L 139.441055 -161.597166 
L 138.580503 -161.902723 
L 137.719951 -162.208453 
L 136.859399 -162.511452 
L 135.998847 -162.818562 
L 135.138295 -163.118587 
L 134.277744 -163.420168 
L 133.417192 -163.722765 
L 132.55664 -164.02136 
L 131.696088 -164.317467 
L 130.835536 -164.608672 
L 129.974984 -164.90207 
L 129.114432 -165.196793 
L 128.25388 -165.489943 
L 127.393328 -165.779799 
L 126.532776 -166.063255 
L 125.672224 -166.352348 
L 124.811672 -166.637502 
L 123.95112 -166.924193 
L 123.090568 -167.205546 
L 122.230016 -167.484921 
L 121.369464 -167.766363 
L 120.508912 -168.04458 
L 119.64836 -168.321334 
L 118.787808 -168.593387 
L 117.927256 -168.86718 
L 117.066705 -169.139507 
L 116.206153 -169.409019 
L 115.345601 -169.677184 
L 114.485049 -169.946139 
L 113.624497 -170.214109 
L 112.763945 -170.475211 
L 111.903393 -170.739011 
L 111.042841 -171.001324 
L 110.182289 -171.260303 
L 109.321737 -171.523367 
L 108.461185 -171.778275 
L 107.600633 -172.036675 
L 106.740081 -172.290863 
L 105.879529 -172.542571 
L 105.018977 -172.793719 
L 104.158425 -173.042851 
L 103.297873 -173.293152 
L 102.437321 -173.543187 
L 101.576769 -173.788749 
L 100.716218 -174.033545 
L 99.855666 -174.277538 
L 98.995114 -174.519817 
L 98.134562 -174.762489 
L 97.27401 -175.001873 
L 96.413458 -175.243861 
L 95.552906 -175.482359 
L 94.692354 -175.718478 
L 93.831802 -175.955442 
L 92.97125 -176.190477 
L 92.110698 -176.423651 
L 91.250146 -176.656222 
L 90.389594 -176.890864 
L 89.529042 -177.120247 
L 88.66849 -177.351777 
L 87.807938 -177.58089 
L 86.947386 -177.810153 
L 86.086834 -178.039826 
L 85.226282 -178.264226 
L 84.365731 -178.49156 
L 83.505179 -178.717621 
L 82.644627 -178.944242 
L 81.784075 -179.169181 
L 80.923523 -179.390352 
L 80.062971 -179.615569 
L 79.202419 -179.836581 
L 78.341867 -180.059707 
L 77.481315 -180.280386 
L 76.620763 -180.501229 
L 75.760211 -180.72202 
L 74.899659 -180.941735 
L 74.039107 -181.160737 
L 73.178555 -181.378365 
L 72.318003 -181.597277 
L 71.457451 -181.815223 
L 70.596899 -182.033173 
L 69.736347 -182.250513 
L 68.875795 -182.466831 
L 68.015244 -182.681994 
L 67.154692 -182.897617 
L 66.29414 -183.11174 
L 65.433588 -183.326826 
L 64.573036 -183.540843 
L 63.712484 -183.755067 
L 62.851932 -183.968262 
z
" style="stroke: #2ca02c; stroke-opacity: 0.3"/>
    </defs>
    <g clip-path="url(#pbe59b5c0c1)">
     <use xlink:href="#m4f6f332528" x="0" y="213.011875" style="fill: #2ca02c; fill-opacity: 0.3; stroke: #2ca02c; stroke-opacity: 0.3"/>
    </g>
   </g>
   <g id="FillBetweenPolyCollection_3">
    <defs>
     <path id="m062547f59c" d="M 62.851932 -171.228445 
L 62.851932 -178.435121 
L 63.712484 -178.118344 
L 64.573036 -177.801567 
L 65.433588 -177.48479 
L 66.29414 -177.168013 
L 67.154692 -176.851236 
L 68.015244 -176.534459 
L 68.875795 -176.217682 
L 69.736347 -175.900905 
L 70.596899 -175.584129 
L 71.457451 -175.267352 
L 72.318003 -174.950575 
L 73.178555 -174.633798 
L 74.039107 -174.317021 
L 74.899659 -174.000244 
L 75.760211 -173.683467 
L 76.620763 -173.36669 
L 77.481315 -173.049913 
L 78.341867 -172.733136 
L 79.202419 -172.416359 
L 80.062971 -172.099582 
L 80.923523 -171.782805 
L 81.784075 -171.466028 
L 82.644627 -171.149251 
L 83.505179 -170.832474 
L 84.365731 -170.515697 
L 85.226282 -170.19892 
L 86.086834 -169.882143 
L 86.947386 -169.565366 
L 87.807938 -169.248589 
L 88.66849 -168.931812 
L 89.529042 -168.615035 
L 90.389594 -168.298258 
L 91.250146 -167.981481 
L 92.110698 -167.664704 
L 92.97125 -167.347927 
L 93.831802 -167.03115 
L 94.692354 -166.714374 
L 95.552906 -166.397597 
L 96.413458 -166.08082 
L 97.27401 -165.764043 
L 98.134562 -165.447266 
L 98.995114 -165.130489 
L 99.855666 -164.813712 
L 100.716218 -164.496935 
L 101.576769 -164.180158 
L 102.437321 -163.863381 
L 103.297873 -163.546604 
L 104.158425 -163.229827 
L 105.018977 -162.91305 
L 105.879529 -162.596273 
L 106.740081 -162.279496 
L 107.600633 -161.962719 
L 108.461185 -161.645942 
L 109.321737 -161.329165 
L 110.182289 -161.012388 
L 111.042841 -160.695611 
L 111.903393 -160.378834 
L 112.763945 -160.062057 
L 113.624497 -159.74528 
L 114.485049 -159.428503 
L 115.345601 -159.111726 
L 116.206153 -158.794949 
L 117.066705 -158.478172 
L 117.927256 -158.161395 
L 118.787808 -157.844618 
L 119.64836 -157.527842 
L 120.508912 -157.211065 
L 121.369464 -156.894288 
L 122.230016 -156.577511 
L 123.090568 -156.260734 
L 123.95112 -155.943957 
L 124.811672 -155.62718 
L 125.672224 -155.310403 
L 126.532776 -154.993626 
L 127.393328 -154.676849 
L 128.25388 -154.360072 
L 129.114432 -154.043295 
L 129.974984 -153.726518 
L 130.835536 -153.409741 
L 131.696088 -153.092964 
L 132.55664 -152.776187 
L 133.417192 -152.45941 
L 134.277744 -152.142633 
L 135.138295 -151.825856 
L 135.998847 -151.509079 
L 136.859399 -151.192302 
L 137.719951 -150.875525 
L 138.580503 -150.558748 
L 139.441055 -150.241971 
L 140.301607 -149.925194 
L 141.162159 -149.608417 
L 142.022711 -149.29164 
L 142.883263 -148.974863 
L 143.743815 -148.658087 
L 144.604367 -148.34131 
L 145.464919 -148.024533 
L 146.325471 -147.707756 
L 147.186023 -147.390979 
L 148.046575 -147.074202 
L 148.907127 -146.757425 
L 149.767679 -146.440648 
L 150.628231 -146.123871 
L 151.488782 -145.807094 
L 152.349334 -145.490317 
L 153.209886 -145.17354 
L 154.070438 -144.856763 
L 154.93099 -144.539986 
L 155.791542 -144.223209 
L 156.652094 -143.906432 
L 157.512646 -143.589655 
L 158.373198 -143.272878 
L 159.23375 -142.956101 
L 160.094302 -142.639324 
L 160.954854 -142.322547 
L 161.815406 -142.00577 
L 162.675958 -141.688993 
L 163.53651 -141.372216 
L 164.397062 -141.055439 
L 165.257614 -140.738662 
L 166.118166 -140.421885 
L 166.978718 -140.105108 
L 167.839269 -139.788331 
L 168.699821 -139.471555 
L 169.560373 -139.154778 
L 170.420925 -138.838001 
L 171.281477 -138.521224 
L 172.142029 -138.204447 
L 173.002581 -137.88767 
L 173.863133 -137.570893 
L 174.723685 -137.254116 
L 175.584237 -136.937339 
L 176.444789 -136.620562 
L 177.305341 -136.303785 
L 178.165893 -135.987008 
L 179.026445 -135.670231 
L 179.886997 -135.353454 
L 180.747549 -135.036677 
L 181.608101 -134.7199 
L 182.468653 -134.403123 
L 183.329205 -134.086346 
L 184.189756 -133.769569 
L 185.050308 -133.452792 
L 185.91086 -133.136015 
L 186.771412 -132.819238 
L 187.631964 -132.502461 
L 188.492516 -132.185684 
L 189.353068 -131.868907 
L 190.21362 -131.55213 
L 191.074172 -131.235353 
L 191.934724 -130.918576 
L 192.795276 -130.6018 
L 193.655828 -130.285023 
L 194.51638 -129.968246 
L 195.376932 -129.651469 
L 196.237484 -129.334692 
L 197.098036 -129.017915 
L 197.958588 -128.701138 
L 198.81914 -128.384361 
L 199.679692 -128.067584 
L 200.540244 -127.750807 
L 201.400795 -127.43403 
L 202.261347 -127.117253 
L 203.121899 -126.800476 
L 203.982451 -126.483699 
L 204.843003 -126.166922 
L 205.703555 -125.850145 
L 206.564107 -125.533368 
L 207.424659 -125.216591 
L 208.285211 -124.899814 
L 209.145763 -124.583037 
L 210.006315 -124.26626 
L 210.866867 -123.949483 
L 211.727419 -123.632706 
L 212.587971 -123.315929 
L 213.448523 -122.999152 
L 214.309075 -122.682375 
L 215.169627 -122.365598 
L 216.030179 -122.048821 
L 216.890731 -121.732044 
L 217.751282 -121.415268 
L 218.611834 -121.098491 
L 219.472386 -120.781714 
L 220.332938 -120.464937 
L 221.19349 -120.14816 
L 222.054042 -119.831383 
L 222.914594 -119.514606 
L 223.775146 -119.197829 
L 224.635698 -118.881052 
L 225.49625 -118.564275 
L 226.356802 -118.247498 
L 227.217354 -117.930721 
L 228.077906 -117.613944 
L 228.938458 -117.297167 
L 229.79901 -116.98039 
L 230.659562 -116.663613 
L 231.520114 -116.346836 
L 232.380666 -116.030059 
L 233.241218 -115.713282 
L 234.101769 -115.396505 
L 234.962321 -115.079728 
L 235.822873 -114.762951 
L 236.683425 -114.446174 
L 237.543977 -114.129397 
L 238.404529 -113.81262 
L 239.265081 -113.495843 
L 240.125633 -113.179066 
L 240.986185 -112.862289 
L 241.846737 -112.545513 
L 242.707289 -112.228736 
L 243.567841 -111.911959 
L 244.428393 -111.595182 
L 245.288945 -111.278405 
L 246.149497 -110.961628 
L 247.010049 -110.644851 
L 247.870601 -110.328074 
L 248.731153 -110.011297 
L 249.591705 -109.69452 
L 250.452256 -109.377743 
L 251.312808 -109.060966 
L 252.17336 -108.744189 
L 253.033912 -108.427412 
L 253.894464 -108.110635 
L 254.755016 -107.793858 
L 255.615568 -107.477081 
L 255.615568 -47.051875 
L 255.615568 -47.051875 
L 254.755016 -47.606235 
L 253.894464 -48.160594 
L 253.033912 -48.714954 
L 252.17336 -49.269314 
L 251.312808 -49.823673 
L 250.452256 -50.378033 
L 249.591705 -50.932393 
L 248.731153 -51.486753 
L 247.870601 -52.041112 
L 247.010049 -52.595472 
L 246.149497 -53.149832 
L 245.288945 -53.704191 
L 244.428393 -54.258551 
L 243.567841 -54.812911 
L 242.707289 -55.36727 
L 241.846737 -55.92163 
L 240.986185 -56.47599 
L 240.125633 -57.030349 
L 239.265081 -57.584709 
L 238.404529 -58.139069 
L 237.543977 -58.693428 
L 236.683425 -59.247788 
L 235.822873 -59.802148 
L 234.962321 -60.356508 
L 234.101769 -60.910867 
L 233.241218 -61.465227 
L 232.380666 -62.019587 
L 231.520114 -62.573946 
L 230.659562 -63.128306 
L 229.79901 -63.682666 
L 228.938458 -64.237025 
L 228.077906 -64.791385 
L 227.217354 -65.345745 
L 226.356802 -65.900104 
L 225.49625 -66.454464 
L 224.635698 -67.008824 
L 223.775146 -67.563183 
L 222.914594 -68.117543 
L 222.054042 -68.671903 
L 221.19349 -69.226263 
L 220.332938 -69.780622 
L 219.472386 -70.334982 
L 218.611834 -70.889342 
L 217.751282 -71.443701 
L 216.890731 -71.998061 
L 216.030179 -72.552421 
L 215.169627 -73.10678 
L 214.309075 -73.66114 
L 213.448523 -74.2155 
L 212.587971 -74.769859 
L 211.727419 -75.324219 
L 210.866867 -75.878579 
L 210.006315 -76.432938 
L 209.145763 -76.987298 
L 208.285211 -77.541658 
L 207.424659 -78.096018 
L 206.564107 -78.650377 
L 205.703555 -79.204737 
L 204.843003 -79.759097 
L 203.982451 -80.313456 
L 203.121899 -80.867816 
L 202.261347 -81.422176 
L 201.400795 -81.976535 
L 200.540244 -82.530895 
L 199.679692 -83.085255 
L 198.81914 -83.639614 
L 197.958588 -84.193974 
L 197.098036 -84.748334 
L 196.237484 -85.302694 
L 195.376932 -85.857053 
L 194.51638 -86.411413 
L 193.655828 -86.965773 
L 192.795276 -87.520132 
L 191.934724 -88.074492 
L 191.074172 -88.628852 
L 190.21362 -89.183211 
L 189.353068 -89.737571 
L 188.492516 -90.291931 
L 187.631964 -90.84629 
L 186.771412 -91.40065 
L 185.91086 -91.95501 
L 185.050308 -92.509369 
L 184.189756 -93.063729 
L 183.329205 -93.618089 
L 182.468653 -94.172449 
L 181.608101 -94.726808 
L 180.747549 -95.281168 
L 179.886997 -95.835528 
L 179.026445 -96.389887 
L 178.165893 -96.944247 
L 177.305341 -97.498607 
L 176.444789 -98.052966 
L 175.584237 -98.607326 
L 174.723685 -99.161686 
L 173.863133 -99.716045 
L 173.002581 -100.270405 
L 172.142029 -100.824765 
L 171.281477 -101.379124 
L 170.420925 -101.933484 
L 169.560373 -102.487844 
L 168.699821 -103.042204 
L 167.839269 -103.596563 
L 166.978718 -104.150923 
L 166.118166 -104.705283 
L 165.257614 -105.259642 
L 164.397062 -105.814002 
L 163.53651 -106.368362 
L 162.675958 -106.922721 
L 161.815406 -107.477081 
L 160.954854 -108.031441 
L 160.094302 -108.5858 
L 159.23375 -109.14016 
L 158.373198 -109.69452 
L 157.512646 -110.24888 
L 156.652094 -110.803239 
L 155.791542 -111.357599 
L 154.93099 -111.911959 
L 154.070438 -112.466318 
L 153.209886 -113.020678 
L 152.349334 -113.575038 
L 151.488782 -114.129397 
L 150.628231 -114.683757 
L 149.767679 -115.238117 
L 148.907127 -115.792476 
L 148.046575 -116.346836 
L 147.186023 -116.901196 
L 146.325471 -117.455555 
L 145.464919 -118.009915 
L 144.604367 -118.564275 
L 143.743815 -119.118635 
L 142.883263 -119.672994 
L 142.022711 -120.227354 
L 141.162159 -120.781714 
L 140.301607 -121.336073 
L 139.441055 -121.890433 
L 138.580503 -122.444793 
L 137.719951 -122.999152 
L 136.859399 -123.553512 
L 135.998847 -124.107872 
L 135.138295 -124.662231 
L 134.277744 -125.216591 
L 133.417192 -125.770951 
L 132.55664 -126.32531 
L 131.696088 -126.87967 
L 130.835536 -127.43403 
L 129.974984 -127.98839 
L 129.114432 -128.542749 
L 128.25388 -129.097109 
L 127.393328 -129.651469 
L 126.532776 -130.205828 
L 125.672224 -130.760188 
L 124.811672 -131.314548 
L 123.95112 -131.868907 
L 123.090568 -132.423267 
L 122.230016 -132.977627 
L 121.369464 -133.531986 
L 120.508912 -134.086346 
L 119.64836 -134.640706 
L 118.787808 -135.195065 
L 117.927256 -135.749425 
L 117.066705 -136.303785 
L 116.206153 -136.858145 
L 115.345601 -137.412504 
L 114.485049 -137.966864 
L 113.624497 -138.521224 
L 112.763945 -139.075583 
L 111.903393 -139.629943 
L 111.042841 -140.184303 
L 110.182289 -140.738662 
L 109.321737 -141.293022 
L 108.461185 -141.847382 
L 107.600633 -142.401741 
L 106.740081 -142.956101 
L 105.879529 -143.510461 
L 105.018977 -144.064821 
L 104.158425 -144.61918 
L 103.297873 -145.17354 
L 102.437321 -145.7279 
L 101.576769 -146.282259 
L 100.716218 -146.836619 
L 99.855666 -147.390979 
L 98.995114 -147.945338 
L 98.134562 -148.499698 
L 97.27401 -149.054058 
L 96.413458 -149.608417 
L 95.552906 -150.162777 
L 94.692354 -150.717137 
L 93.831802 -151.271496 
L 92.97125 -151.825856 
L 92.110698 -152.380216 
L 91.250146 -152.934576 
L 90.389594 -153.488935 
L 89.529042 -154.043295 
L 88.66849 -154.597655 
L 87.807938 -155.152014 
L 86.947386 -155.706374 
L 86.086834 -156.260734 
L 85.226282 -156.815093 
L 84.365731 -157.369453 
L 83.505179 -157.923813 
L 82.644627 -158.478172 
L 81.784075 -159.032532 
L 80.923523 -159.586892 
L 80.062971 -160.141251 
L 79.202419 -160.695611 
L 78.341867 -161.249971 
L 77.481315 -161.804331 
L 76.620763 -162.35869 
L 75.760211 -162.91305 
L 74.899659 -163.46741 
L 74.039107 -164.021769 
L 73.178555 -164.576129 
L 72.318003 -165.130489 
L 71.457451 -165.684848 
L 70.596899 -166.239208 
L 69.736347 -166.793568 
L 68.875795 -167.347927 
L 68.015244 -167.902287 
L 67.154692 -168.456647 
L 66.29414 -169.011007 
L 65.433588 -169.565366 
L 64.573036 -170.119726 
L 63.712484 -170.674086 
L 62.851932 -171.228445 
z
" style="stroke: #ff7f0e; stroke-opacity: 0.3"/>
    </defs>
    <g clip-path="url(#pbe59b5c0c1)">
     <use xlink:href="#m062547f59c" x="0" y="213.011875" style="fill: #ff7f0e; fill-opacity: 0.3; stroke: #ff7f0e; stroke-opacity: 0.3"/>
    </g>
   </g>
   <g id="FillBetweenPolyCollection_4">
    <defs>
     <path id="m0058113f2e" d="M 62.851932 -171.228445 
L 62.851932 -178.435121 
L 63.712484 -178.118344 
L 64.573036 -177.801567 
L 65.433588 -177.48479 
L 66.29414 -177.168013 
L 67.154692 -176.851236 
L 68.015244 -176.534459 
L 68.875795 -176.217682 
L 69.736347 -175.900905 
L 70.596899 -175.584129 
L 71.457451 -175.267352 
L 72.318003 -174.950575 
L 73.178555 -174.633798 
L 74.039107 -174.317021 
L 74.899659 -174.000244 
L 75.760211 -173.683467 
L 76.620763 -173.36669 
L 77.481315 -173.049913 
L 78.341867 -172.733136 
L 79.202419 -172.416359 
L 80.062971 -172.099582 
L 80.923523 -171.782805 
L 81.784075 -171.466028 
L 82.644627 -171.149251 
L 83.505179 -170.832474 
L 84.365731 -170.515697 
L 85.226282 -170.19892 
L 86.086834 -169.882143 
L 86.947386 -169.565366 
L 87.807938 -169.248589 
L 88.66849 -168.931812 
L 89.529042 -168.615035 
L 90.389594 -168.298258 
L 91.250146 -167.981481 
L 92.110698 -167.664704 
L 92.97125 -167.347927 
L 93.831802 -167.03115 
L 94.692354 -166.714374 
L 95.552906 -166.397597 
L 96.413458 -166.08082 
L 97.27401 -165.764043 
L 98.134562 -165.447266 
L 98.995114 -165.130489 
L 99.855666 -164.813712 
L 100.716218 -164.496935 
L 101.576769 -164.180158 
L 102.437321 -163.863381 
L 103.297873 -163.546604 
L 104.158425 -163.229827 
L 105.018977 -162.91305 
L 105.879529 -162.596273 
L 106.740081 -162.279496 
L 107.600633 -161.962719 
L 108.461185 -161.645942 
L 109.321737 -161.329165 
L 110.182289 -161.012388 
L 111.042841 -160.695611 
L 111.903393 -160.378834 
L 112.763945 -160.062057 
L 113.624497 -159.74528 
L 114.485049 -159.428503 
L 115.345601 -159.111726 
L 116.206153 -158.794949 
L 117.066705 -158.478172 
L 117.927256 -158.161395 
L 118.787808 -157.844618 
L 119.64836 -157.527842 
L 120.508912 -157.211065 
L 121.369464 -156.894288 
L 122.230016 -156.577511 
L 123.090568 -156.260734 
L 123.95112 -155.943957 
L 124.811672 -155.62718 
L 125.672224 -155.310403 
L 126.532776 -154.993626 
L 127.393328 -154.676849 
L 128.25388 -154.360072 
L 129.114432 -154.043295 
L 129.974984 -153.726518 
L 130.835536 -153.409741 
L 131.696088 -153.092964 
L 132.55664 -152.776187 
L 133.417192 -152.45941 
L 134.277744 -152.142633 
L 135.138295 -151.825856 
L 135.998847 -151.509079 
L 136.859399 -151.192302 
L 137.719951 -150.875525 
L 138.580503 -150.558748 
L 139.441055 -150.241971 
L 140.301607 -149.925194 
L 141.162159 -149.608417 
L 142.022711 -149.29164 
L 142.883263 -148.974863 
L 143.743815 -148.658087 
L 144.604367 -148.34131 
L 145.464919 -148.024533 
L 146.325471 -147.707756 
L 147.186023 -147.390979 
L 148.046575 -147.074202 
L 148.907127 -146.757425 
L 149.767679 -146.440648 
L 150.628231 -146.123871 
L 151.488782 -145.807094 
L 152.349334 -145.490317 
L 153.209886 -145.17354 
L 154.070438 -144.856763 
L 154.93099 -144.539986 
L 155.791542 -144.223209 
L 156.652094 -143.906432 
L 157.512646 -143.589655 
L 158.373198 -143.272878 
L 159.23375 -142.956101 
L 160.094302 -142.639324 
L 160.954854 -142.322547 
L 161.815406 -142.00577 
L 162.675958 -141.688993 
L 163.53651 -141.372216 
L 164.397062 -141.055439 
L 165.257614 -140.738662 
L 166.118166 -140.421885 
L 166.978718 -140.105108 
L 167.839269 -139.788331 
L 168.699821 -139.471555 
L 169.560373 -139.154778 
L 170.420925 -138.838001 
L 171.281477 -138.521224 
L 172.142029 -138.204447 
L 173.002581 -137.88767 
L 173.863133 -137.570893 
L 174.723685 -137.254116 
L 175.584237 -136.937339 
L 176.444789 -136.620562 
L 177.305341 -136.303785 
L 178.165893 -135.987008 
L 179.026445 -135.670231 
L 179.886997 -135.353454 
L 180.747549 -135.036677 
L 181.608101 -134.7199 
L 182.468653 -134.403123 
L 183.329205 -134.086346 
L 184.189756 -133.769569 
L 185.050308 -133.452792 
L 185.91086 -133.136015 
L 186.771412 -132.819238 
L 187.631964 -132.502461 
L 188.492516 -132.185684 
L 189.353068 -131.868907 
L 190.21362 -131.55213 
L 191.074172 -131.235353 
L 191.934724 -130.918576 
L 192.795276 -130.6018 
L 193.655828 -130.285023 
L 194.51638 -129.968246 
L 195.376932 -129.651469 
L 196.237484 -129.334692 
L 197.098036 -129.017915 
L 197.958588 -128.701138 
L 198.81914 -128.384361 
L 199.679692 -128.067584 
L 200.540244 -127.750807 
L 201.400795 -127.43403 
L 202.261347 -127.117253 
L 203.121899 -126.800476 
L 203.982451 -126.483699 
L 204.843003 -126.166922 
L 205.703555 -125.850145 
L 206.564107 -125.533368 
L 207.424659 -125.216591 
L 208.285211 -124.899814 
L 209.145763 -124.583037 
L 210.006315 -124.26626 
L 210.866867 -123.949483 
L 211.727419 -123.632706 
L 212.587971 -123.315929 
L 213.448523 -122.999152 
L 214.309075 -122.682375 
L 215.169627 -122.365598 
L 216.030179 -122.048821 
L 216.890731 -121.732044 
L 217.751282 -121.415268 
L 218.611834 -121.098491 
L 219.472386 -120.781714 
L 220.332938 -120.464937 
L 221.19349 -120.14816 
L 222.054042 -119.831383 
L 222.914594 -119.514606 
L 223.775146 -119.197829 
L 224.635698 -118.881052 
L 225.49625 -118.564275 
L 226.356802 -118.247498 
L 227.217354 -117.930721 
L 228.077906 -117.613944 
L 228.938458 -117.297167 
L 229.79901 -116.98039 
L 230.659562 -116.663613 
L 231.520114 -116.346836 
L 232.380666 -116.030059 
L 233.241218 -115.713282 
L 234.101769 -115.396505 
L 234.962321 -115.079728 
L 235.822873 -114.762951 
L 236.683425 -114.446174 
L 237.543977 -114.129397 
L 238.404529 -113.81262 
L 239.265081 -113.495843 
L 240.125633 -113.179066 
L 240.986185 -112.862289 
L 241.846737 -112.545513 
L 242.707289 -112.228736 
L 243.567841 -111.911959 
L 244.428393 -111.595182 
L 245.288945 -111.278405 
L 246.149497 -110.961628 
L 247.010049 -110.644851 
L 247.870601 -110.328074 
L 248.731153 -110.011297 
L 249.591705 -109.69452 
L 250.452256 -109.377743 
L 251.312808 -109.060966 
L 252.17336 -108.744189 
L 253.033912 -108.427412 
L 253.894464 -108.110635 
L 254.755016 -107.793858 
L 255.615568 -107.477081 
L 255.615568 -47.051875 
L 255.615568 -47.051875 
L 254.755016 -47.606235 
L 253.894464 -48.160594 
L 253.033912 -48.714954 
L 252.17336 -49.269314 
L 251.312808 -49.823673 
L 250.452256 -50.378033 
L 249.591705 -50.932393 
L 248.731153 -51.486753 
L 247.870601 -52.041112 
L 247.010049 -52.595472 
L 246.149497 -53.149832 
L 245.288945 -53.704191 
L 244.428393 -54.258551 
L 243.567841 -54.812911 
L 242.707289 -55.36727 
L 241.846737 -55.92163 
L 240.986185 -56.47599 
L 240.125633 -57.030349 
L 239.265081 -57.584709 
L 238.404529 -58.139069 
L 237.543977 -58.693428 
L 236.683425 -59.247788 
L 235.822873 -59.802148 
L 234.962321 -60.356508 
L 234.101769 -60.910867 
L 233.241218 -61.465227 
L 232.380666 -62.019587 
L 231.520114 -62.573946 
L 230.659562 -63.128306 
L 229.79901 -63.682666 
L 228.938458 -64.237025 
L 228.077906 -64.791385 
L 227.217354 -65.345745 
L 226.356802 -65.900104 
L 225.49625 -66.454464 
L 224.635698 -67.008824 
L 223.775146 -67.563183 
L 222.914594 -68.117543 
L 222.054042 -68.671903 
L 221.19349 -69.226263 
L 220.332938 -69.780622 
L 219.472386 -70.334982 
L 218.611834 -70.889342 
L 217.751282 -71.443701 
L 216.890731 -71.998061 
L 216.030179 -72.552421 
L 215.169627 -73.10678 
L 214.309075 -73.66114 
L 213.448523 -74.2155 
L 212.587971 -74.769859 
L 211.727419 -75.324219 
L 210.866867 -75.878579 
L 210.006315 -76.432938 
L 209.145763 -76.987298 
L 208.285211 -77.541658 
L 207.424659 -78.096018 
L 206.564107 -78.650377 
L 205.703555 -79.204737 
L 204.843003 -79.759097 
L 203.982451 -80.313456 
L 203.121899 -80.867816 
L 202.261347 -81.422176 
L 201.400795 -81.976535 
L 200.540244 -82.530895 
L 199.679692 -83.085255 
L 198.81914 -83.639614 
L 197.958588 -84.193974 
L 197.098036 -84.748334 
L 196.237484 -85.302694 
L 195.376932 -85.857053 
L 194.51638 -86.411413 
L 193.655828 -86.965773 
L 192.795276 -87.520132 
L 191.934724 -88.074492 
L 191.074172 -88.628852 
L 190.21362 -89.183211 
L 189.353068 -89.737571 
L 188.492516 -90.291931 
L 187.631964 -90.84629 
L 186.771412 -91.40065 
L 185.91086 -91.95501 
L 185.050308 -92.509369 
L 184.189756 -93.063729 
L 183.329205 -93.618089 
L 182.468653 -94.172449 
L 181.608101 -94.726808 
L 180.747549 -95.281168 
L 179.886997 -95.835528 
L 179.026445 -96.389887 
L 178.165893 -96.944247 
L 177.305341 -97.498607 
L 176.444789 -98.052966 
L 175.584237 -98.607326 
L 174.723685 -99.161686 
L 173.863133 -99.716045 
L 173.002581 -100.270405 
L 172.142029 -100.824765 
L 171.281477 -101.379124 
L 170.420925 -101.933484 
L 169.560373 -102.487844 
L 168.699821 -103.042204 
L 167.839269 -103.596563 
L 166.978718 -104.150923 
L 166.118166 -104.705283 
L 165.257614 -105.259642 
L 164.397062 -105.814002 
L 163.53651 -106.368362 
L 162.675958 -106.922721 
L 161.815406 -107.477081 
L 160.954854 -108.031441 
L 160.094302 -108.5858 
L 159.23375 -109.14016 
L 158.373198 -109.69452 
L 157.512646 -110.24888 
L 156.652094 -110.803239 
L 155.791542 -111.357599 
L 154.93099 -111.911959 
L 154.070438 -112.466318 
L 153.209886 -113.020678 
L 152.349334 -113.575038 
L 151.488782 -114.129397 
L 150.628231 -114.683757 
L 149.767679 -115.238117 
L 148.907127 -115.792476 
L 148.046575 -116.346836 
L 147.186023 -116.901196 
L 146.325471 -117.455555 
L 145.464919 -118.009915 
L 144.604367 -118.564275 
L 143.743815 -119.118635 
L 142.883263 -119.672994 
L 142.022711 -120.227354 
L 141.162159 -120.781714 
L 140.301607 -121.336073 
L 139.441055 -121.890433 
L 138.580503 -122.444793 
L 137.719951 -122.999152 
L 136.859399 -123.553512 
L 135.998847 -124.107872 
L 135.138295 -124.662231 
L 134.277744 -125.216591 
L 133.417192 -125.770951 
L 132.55664 -126.32531 
L 131.696088 -126.87967 
L 130.835536 -127.43403 
L 129.974984 -127.98839 
L 129.114432 -128.542749 
L 128.25388 -129.097109 
L 127.393328 -129.651469 
L 126.532776 -130.205828 
L 125.672224 -130.760188 
L 124.811672 -131.314548 
L 123.95112 -131.868907 
L 123.090568 -132.423267 
L 122.230016 -132.977627 
L 121.369464 -133.531986 
L 120.508912 -134.086346 
L 119.64836 -134.640706 
L 118.787808 -135.195065 
L 117.927256 -135.749425 
L 117.066705 -136.303785 
L 116.206153 -136.858145 
L 115.345601 -137.412504 
L 114.485049 -137.966864 
L 113.624497 -138.521224 
L 112.763945 -139.075583 
L 111.903393 -139.629943 
L 111.042841 -140.184303 
L 110.182289 -140.738662 
L 109.321737 -141.293022 
L 108.461185 -141.847382 
L 107.600633 -142.401741 
L 106.740081 -142.956101 
L 105.879529 -143.510461 
L 105.018977 -144.064821 
L 104.158425 -144.61918 
L 103.297873 -145.17354 
L 102.437321 -145.7279 
L 101.576769 -146.282259 
L 100.716218 -146.836619 
L 99.855666 -147.390979 
L 98.995114 -147.945338 
L 98.134562 -148.499698 
L 97.27401 -149.054058 
L 96.413458 -149.608417 
L 95.552906 -150.162777 
L 94.692354 -150.717137 
L 93.831802 -151.271496 
L 92.97125 -151.825856 
L 92.110698 -152.380216 
L 91.250146 -152.934576 
L 90.389594 -153.488935 
L 89.529042 -154.043295 
L 88.66849 -154.597655 
L 87.807938 -155.152014 
L 86.947386 -155.706374 
L 86.086834 -156.260734 
L 85.226282 -156.815093 
L 84.365731 -157.369453 
L 83.505179 -157.923813 
L 82.644627 -158.478172 
L 81.784075 -159.032532 
L 80.923523 -159.586892 
L 80.062971 -160.141251 
L 79.202419 -160.695611 
L 78.341867 -161.249971 
L 77.481315 -161.804331 
L 76.620763 -162.35869 
L 75.760211 -162.91305 
L 74.899659 -163.46741 
L 74.039107 -164.021769 
L 73.178555 -164.576129 
L 72.318003 -165.130489 
L 71.457451 -165.684848 
L 70.596899 -166.239208 
L 69.736347 -166.793568 
L 68.875795 -167.347927 
L 68.015244 -167.902287 
L 67.154692 -168.456647 
L 66.29414 -169.011007 
L 65.433588 -169.565366 
L 64.573036 -170.119726 
L 63.712484 -170.674086 
L 62.851932 -171.228445 
z
" style="stroke: #d62728; stroke-opacity: 0.3"/>
    </defs>
    <g clip-path="url(#pbe59b5c0c1)">
     <use xlink:href="#m0058113f2e" x="0" y="213.011875" style="fill: #d62728; fill-opacity: 0.3; stroke: #d62728; stroke-opacity: 0.3"/>
    </g>
   </g>
   <g id="matplotlib.axis_1">
    <g id="xtick_1">
     <g id="line2d_1">
      <path d="M 84.365731 173.52 
L 84.365731 7.2 
" clip-path="url(#pbe59b5c0c1)" style="fill: none; stroke: #b0b0b0; stroke-width: 0.4; stroke-linecap: square"/>
     </g>
     <g id="line2d_2">
      <defs>
       <path id="mf8ac336367" d="M 0 0 
L 0 3.5 
" style="stroke: #000000; stroke-width: 0.8"/>
      </defs>
      <g>
       <use xlink:href="#mf8ac336367" x="84.365731" y="173.52" style="stroke: #000000; stroke-width: 0.8"/>
      </g>
     </g>
     <g id="text_1">
      <!-- 50 -->
      <g transform="translate(78.003231 188.118438) scale(0.1 -0.1)">
       <defs>
        <path id="DejaVuSerif-35" d="M 3219 4666 
L 3219 4153 
L 1081 4153 
L 1081 2816 
Q 1244 2928 1461 2984 
Q 1678 3041 1947 3041 
Q 2703 3041 3140 2622 
Q 3578 2203 3578 1478 
Q 3578 738 3136 323 
Q 2694 -91 1894 -91 
Q 1572 -91 1234 -12 
Q 897 66 544 225 
L 544 1131 
L 897 1131 
Q 925 688 1179 453 
Q 1434 219 1894 219 
Q 2388 219 2653 544 
Q 2919 869 2919 1478 
Q 2919 2084 2655 2407 
Q 2391 2731 1894 2731 
Q 1613 2731 1398 2631 
Q 1184 2531 1019 2322 
L 750 2322 
L 750 4666 
L 3219 4666 
z
" transform="scale(0.015625)"/>
        <path id="DejaVuSerif-30" d="M 2034 219 
Q 2513 219 2750 744 
Q 2988 1269 2988 2328 
Q 2988 3391 2750 3916 
Q 2513 4441 2034 4441 
Q 1556 4441 1318 3916 
Q 1081 3391 1081 2328 
Q 1081 1269 1318 744 
Q 1556 219 2034 219 
z
M 2034 -91 
Q 1275 -91 848 546 
Q 422 1184 422 2328 
Q 422 3475 848 4112 
Q 1275 4750 2034 4750 
Q 2797 4750 3222 4112 
Q 3647 3475 3647 2328 
Q 3647 1184 3222 546 
Q 2797 -91 2034 -91 
z
" transform="scale(0.015625)"/>
       </defs>
       <use xlink:href="#DejaVuSerif-35"/>
       <use xlink:href="#DejaVuSerif-30" transform="translate(63.623047 0)"/>
      </g>
     </g>
    </g>
    <g id="xtick_2">
     <g id="line2d_3">
      <path d="M 127.393328 173.52 
L 127.393328 7.2 
" clip-path="url(#pbe59b5c0c1)" style="fill: none; stroke: #b0b0b0; stroke-width: 0.4; stroke-linecap: square"/>
     </g>
     <g id="line2d_4">
      <g>
       <use xlink:href="#mf8ac336367" x="127.393328" y="173.52" style="stroke: #000000; stroke-width: 0.8"/>
      </g>
     </g>
     <g id="text_2">
      <!-- 100 -->
      <g transform="translate(117.849578 188.118438) scale(0.1 -0.1)">
       <defs>
        <path id="DejaVuSerif-31" d="M 909 0 
L 909 331 
L 1722 331 
L 1722 4213 
L 781 3603 
L 781 4013 
L 1919 4750 
L 2350 4750 
L 2350 331 
L 3163 331 
L 3163 0 
L 909 0 
z
" transform="scale(0.015625)"/>
       </defs>
       <use xlink:href="#DejaVuSerif-31"/>
       <use xlink:href="#DejaVuSerif-30" transform="translate(63.623047 0)"/>
       <use xlink:href="#DejaVuSerif-30" transform="translate(127.246094 0)"/>
      </g>
     </g>
    </g>
    <g id="xtick_3">
     <g id="line2d_5">
      <path d="M 170.420925 173.52 
L 170.420925 7.2 
" clip-path="url(#pbe59b5c0c1)" style="fill: none; stroke: #b0b0b0; stroke-width: 0.4; stroke-linecap: square"/>
     </g>
     <g id="line2d_6">
      <g>
       <use xlink:href="#mf8ac336367" x="170.420925" y="173.52" style="stroke: #000000; stroke-width: 0.8"/>
      </g>
     </g>
     <g id="text_3">
      <!-- 150 -->
      <g transform="translate(160.877175 188.118438) scale(0.1 -0.1)">
       <use xlink:href="#DejaVuSerif-31"/>
       <use xlink:href="#DejaVuSerif-35" transform="translate(63.623047 0)"/>
       <use xlink:href="#DejaVuSerif-30" transform="translate(127.246094 0)"/>
      </g>
     </g>
    </g>
    <g id="xtick_4">
     <g id="line2d_7">
      <path d="M 213.448523 173.52 
L 213.448523 7.2 
" clip-path="url(#pbe59b5c0c1)" style="fill: none; stroke: #b0b0b0; stroke-width: 0.4; stroke-linecap: square"/>
     </g>
     <g id="line2d_8">
      <g>
       <use xlink:href="#mf8ac336367" x="213.448523" y="173.52" style="stroke: #000000; stroke-width: 0.8"/>
      </g>
     </g>
     <g id="text_4">
      <!-- 200 -->
      <g transform="translate(203.904773 188.118438) scale(0.1 -0.1)">
       <defs>
        <path id="DejaVuSerif-32" d="M 819 3553 
L 469 3553 
L 469 4384 
Q 803 4563 1142 4656 
Q 1481 4750 1806 4750 
Q 2534 4750 2956 4397 
Q 3378 4044 3378 3438 
Q 3378 2753 2422 1800 
Q 2347 1728 2309 1691 
L 1131 513 
L 3078 513 
L 3078 1088 
L 3444 1088 
L 3444 0 
L 434 0 
L 434 341 
L 1850 1753 
Q 2319 2222 2519 2614 
Q 2719 3006 2719 3438 
Q 2719 3909 2473 4175 
Q 2228 4441 1797 4441 
Q 1350 4441 1106 4219 
Q 863 3997 819 3553 
z
" transform="scale(0.015625)"/>
       </defs>
       <use xlink:href="#DejaVuSerif-32"/>
       <use xlink:href="#DejaVuSerif-30" transform="translate(63.623047 0)"/>
       <use xlink:href="#DejaVuSerif-30" transform="translate(127.246094 0)"/>
      </g>
     </g>
    </g>
    <g id="xtick_5">
     <g id="line2d_9">
      <path d="M 256.47612 173.52 
L 256.47612 7.2 
" clip-path="url(#pbe59b5c0c1)" style="fill: none; stroke: #b0b0b0; stroke-width: 0.4; stroke-linecap: square"/>
     </g>
     <g id="line2d_10">
      <g>
       <use xlink:href="#mf8ac336367" x="256.47612" y="173.52" style="stroke: #000000; stroke-width: 0.8"/>
      </g>
     </g>
     <g id="text_5">
      <!-- 250 -->
      <g transform="translate(246.93237 188.118438) scale(0.1 -0.1)">
       <use xlink:href="#DejaVuSerif-32"/>
       <use xlink:href="#DejaVuSerif-35" transform="translate(63.623047 0)"/>
       <use xlink:href="#DejaVuSerif-30" transform="translate(127.246094 0)"/>
      </g>
     </g>
    </g>
    <g id="text_6">
     <!-- Distance (km) -->
     <g transform="translate(116.747187 203.31625) scale(0.12 -0.12)">
      <defs>
       <path id="DejaVuSerif-44" d="M 1581 331 
L 2163 331 
Q 3072 331 3558 850 
Q 4044 1369 4044 2338 
Q 4044 3306 3559 3818 
Q 3075 4331 2163 4331 
L 1581 4331 
L 1581 331 
z
M 353 0 
L 353 331 
L 947 331 
L 947 4331 
L 353 4331 
L 353 4666 
L 2209 4666 
Q 3416 4666 4089 4050 
Q 4763 3434 4763 2338 
Q 4763 1238 4088 619 
Q 3413 0 2209 0 
L 353 0 
z
" transform="scale(0.015625)"/>
       <path id="DejaVuSerif-69" d="M 622 4353 
Q 622 4497 726 4603 
Q 831 4709 978 4709 
Q 1122 4709 1226 4603 
Q 1331 4497 1331 4353 
Q 1331 4206 1228 4103 
Q 1125 4000 978 4000 
Q 831 4000 726 4103 
Q 622 4206 622 4353 
z
M 1356 331 
L 1900 331 
L 1900 0 
L 231 0 
L 231 331 
L 781 331 
L 781 2988 
L 231 2988 
L 231 3322 
L 1356 3322 
L 1356 331 
z
" transform="scale(0.015625)"/>
       <path id="DejaVuSerif-73" d="M 359 184 
L 359 959 
L 691 959 
Q 703 588 923 403 
Q 1144 219 1575 219 
Q 1963 219 2166 364 
Q 2369 509 2369 788 
Q 2369 1006 2220 1140 
Q 2072 1275 1594 1428 
L 1178 1569 
Q 750 1706 558 1912 
Q 366 2119 366 2438 
Q 366 2894 700 3153 
Q 1034 3413 1625 3413 
Q 1888 3413 2178 3344 
Q 2469 3275 2778 3144 
L 2778 2419 
L 2447 2419 
Q 2434 2741 2221 2922 
Q 2009 3103 1644 3103 
Q 1281 3103 1095 2975 
Q 909 2847 909 2591 
Q 909 2381 1050 2254 
Q 1191 2128 1613 1997 
L 2069 1856 
Q 2541 1709 2748 1489 
Q 2956 1269 2956 922 
Q 2956 450 2595 179 
Q 2234 -91 1600 -91 
Q 1278 -91 972 -22 
Q 666 47 359 184 
z
" transform="scale(0.015625)"/>
       <path id="DejaVuSerif-74" d="M 691 2988 
L 184 2988 
L 184 3322 
L 691 3322 
L 691 4353 
L 1269 4353 
L 1269 3322 
L 2350 3322 
L 2350 2988 
L 1269 2988 
L 1269 878 
Q 1269 456 1350 337 
Q 1431 219 1650 219 
Q 1875 219 1978 351 
Q 2081 484 2088 781 
L 2522 781 
Q 2497 328 2275 118 
Q 2053 -91 1600 -91 
Q 1103 -91 897 129 
Q 691 350 691 878 
L 691 2988 
z
" transform="scale(0.015625)"/>
       <path id="DejaVuSerif-61" d="M 2547 1044 
L 2547 1747 
L 1806 1747 
Q 1378 1747 1168 1562 
Q 959 1378 959 997 
Q 959 650 1171 447 
Q 1384 244 1747 244 
Q 2106 244 2326 466 
Q 2547 688 2547 1044 
z
M 3122 2075 
L 3122 331 
L 3634 331 
L 3634 0 
L 2547 0 
L 2547 359 
Q 2356 128 2106 18 
Q 1856 -91 1522 -91 
Q 969 -91 644 203 
Q 319 497 319 997 
Q 319 1513 691 1797 
Q 1063 2081 1741 2081 
L 2547 2081 
L 2547 2309 
Q 2547 2688 2317 2895 
Q 2088 3103 1672 3103 
Q 1328 3103 1125 2947 
Q 922 2791 872 2484 
L 575 2484 
L 575 3156 
Q 875 3284 1158 3348 
Q 1441 3413 1709 3413 
Q 2400 3413 2761 3070 
Q 3122 2728 3122 2075 
z
" transform="scale(0.015625)"/>
       <path id="DejaVuSerif-6e" d="M 263 0 
L 263 331 
L 781 331 
L 781 2988 
L 231 2988 
L 231 3322 
L 1356 3322 
L 1356 2731 
Q 1516 3069 1770 3241 
Q 2025 3413 2363 3413 
Q 2913 3413 3172 3097 
Q 3431 2781 3431 2113 
L 3431 331 
L 3944 331 
L 3944 0 
L 2356 0 
L 2356 331 
L 2853 331 
L 2853 1931 
Q 2853 2541 2703 2767 
Q 2553 2994 2175 2994 
Q 1775 2994 1565 2701 
Q 1356 2409 1356 1850 
L 1356 331 
L 1856 331 
L 1856 0 
L 263 0 
z
" transform="scale(0.015625)"/>
       <path id="DejaVuSerif-63" d="M 3291 997 
Q 3169 466 2822 187 
Q 2475 -91 1925 -91 
Q 1200 -91 759 389 
Q 319 869 319 1663 
Q 319 2459 759 2936 
Q 1200 3413 1925 3413 
Q 2241 3413 2553 3339 
Q 2866 3266 3181 3116 
L 3181 2266 
L 2847 2266 
Q 2781 2703 2561 2903 
Q 2341 3103 1931 3103 
Q 1466 3103 1228 2742 
Q 991 2381 991 1663 
Q 991 944 1227 581 
Q 1463 219 1931 219 
Q 2303 219 2525 412 
Q 2747 606 2828 997 
L 3291 997 
z
" transform="scale(0.015625)"/>
       <path id="DejaVuSerif-65" d="M 3469 1600 
L 991 1600 
L 991 1575 
Q 991 903 1244 561 
Q 1497 219 1991 219 
Q 2369 219 2611 417 
Q 2853 616 2950 1006 
L 3413 1006 
Q 3275 459 2904 184 
Q 2534 -91 1931 -91 
Q 1203 -91 761 389 
Q 319 869 319 1663 
Q 319 2450 753 2931 
Q 1188 3413 1894 3413 
Q 2647 3413 3050 2948 
Q 3453 2484 3469 1600 
z
M 2791 1931 
Q 2772 2513 2545 2808 
Q 2319 3103 1894 3103 
Q 1497 3103 1269 2806 
Q 1041 2509 991 1931 
L 2791 1931 
z
" transform="scale(0.015625)"/>
       <path id="DejaVuSerif-20" transform="scale(0.015625)"/>
       <path id="DejaVuSerif-28" d="M 2041 -997 
Q 1281 -656 893 83 
Q 506 822 506 1931 
Q 506 3044 893 3783 
Q 1281 4522 2041 4863 
L 2041 4556 
Q 1559 4225 1350 3623 
Q 1141 3022 1141 1931 
Q 1141 844 1350 242 
Q 1559 -359 2041 -691 
L 2041 -997 
z
" transform="scale(0.015625)"/>
       <path id="DejaVuSerif-6b" d="M 1831 0 
L 219 0 
L 219 331 
L 738 331 
L 738 4531 
L 184 4531 
L 184 4863 
L 1313 4863 
L 1313 1697 
L 2713 2988 
L 2234 2988 
L 2234 3322 
L 3738 3322 
L 3738 2988 
L 3169 2988 
L 2181 2075 
L 3444 331 
L 3922 331 
L 3922 0 
L 2284 0 
L 2284 331 
L 2759 331 
L 1766 1697 
L 1313 1275 
L 1313 331 
L 1831 331 
L 1831 0 
z
" transform="scale(0.015625)"/>
       <path id="DejaVuSerif-6d" d="M 3316 2675 
Q 3481 3041 3739 3227 
Q 3997 3413 4341 3413 
Q 4863 3413 5119 3089 
Q 5375 2766 5375 2113 
L 5375 331 
L 5894 331 
L 5894 0 
L 4300 0 
L 4300 331 
L 4800 331 
L 4800 2047 
Q 4800 2556 4650 2772 
Q 4500 2988 4153 2988 
Q 3769 2988 3567 2697 
Q 3366 2406 3366 1850 
L 3366 331 
L 3866 331 
L 3866 0 
L 2291 0 
L 2291 331 
L 2791 331 
L 2791 2069 
Q 2791 2566 2641 2777 
Q 2491 2988 2144 2988 
Q 1759 2988 1557 2697 
Q 1356 2406 1356 1850 
L 1356 331 
L 1856 331 
L 1856 0 
L 263 0 
L 263 331 
L 781 331 
L 781 2994 
L 231 2994 
L 231 3322 
L 1356 3322 
L 1356 2731 
Q 1516 3063 1762 3238 
Q 2009 3413 2322 3413 
Q 2709 3413 2968 3220 
Q 3228 3028 3316 2675 
z
" transform="scale(0.015625)"/>
       <path id="DejaVuSerif-29" d="M 453 -997 
L 453 -691 
Q 934 -359 1145 242 
Q 1356 844 1356 1931 
Q 1356 3022 1145 3623 
Q 934 4225 453 4556 
L 453 4863 
Q 1216 4522 1603 3783 
Q 1991 3044 1991 1931 
Q 1991 822 1603 83 
Q 1216 -656 453 -997 
z
" transform="scale(0.015625)"/>
      </defs>
      <use xlink:href="#DejaVuSerif-44"/>
      <use xlink:href="#DejaVuSerif-69" transform="translate(80.175781 0)"/>
      <use xlink:href="#DejaVuSerif-73" transform="translate(112.158203 0)"/>
      <use xlink:href="#DejaVuSerif-74" transform="translate(163.476562 0)"/>
      <use xlink:href="#DejaVuSerif-61" transform="translate(203.662109 0)"/>
      <use xlink:href="#DejaVuSerif-6e" transform="translate(263.28125 0)"/>
      <use xlink:href="#DejaVuSerif-63" transform="translate(327.685547 0)"/>
      <use xlink:href="#DejaVuSerif-65" transform="translate(383.691406 0)"/>
      <use xlink:href="#DejaVuSerif-20" transform="translate(442.871094 0)"/>
      <use xlink:href="#DejaVuSerif-28" transform="translate(474.658203 0)"/>
      <use xlink:href="#DejaVuSerif-6b" transform="translate(513.671875 0)"/>
      <use xlink:href="#DejaVuSerif-6d" transform="translate(574.267578 0)"/>
      <use xlink:href="#DejaVuSerif-29" transform="translate(669.091797 0)"/>
     </g>
    </g>
   </g>
   <g id="matplotlib.axis_2">
    <g id="ytick_1">
     <g id="line2d_11">
      <path d="M 53.21375 156.302224 
L 265.25375 156.302224 
" clip-path="url(#pbe59b5c0c1)" style="fill: none; stroke: #b0b0b0; stroke-width: 0.4; stroke-linecap: square"/>
     </g>
     <g id="line2d_12">
      <defs>
       <path id="m8f5a39ef11" d="M 0 0 
L -3.5 0 
" style="stroke: #000000; stroke-width: 0.8"/>
      </defs>
      <g>
       <use xlink:href="#m8f5a39ef11" x="53.21375" y="156.302224" style="stroke: #000000; stroke-width: 0.8"/>
      </g>
     </g>
     <g id="text_7">
      <!-- $\mathdefault{10^{-6}}$ -->
      <g transform="translate(22.81375 160.101442) scale(0.1 -0.1)">
       <defs>
        <path id="DejaVuSerif-2212" d="M 678 2259 
L 4684 2259 
L 4684 1753 
L 678 1753 
L 678 2259 
z
" transform="scale(0.015625)"/>
        <path id="DejaVuSerif-36" d="M 2094 219 
Q 2534 219 2771 542 
Q 3009 866 3009 1472 
Q 3009 2078 2771 2401 
Q 2534 2725 2094 2725 
Q 1647 2725 1412 2412 
Q 1178 2100 1178 1509 
Q 1178 888 1415 553 
Q 1653 219 2094 219 
z
M 1075 2569 
Q 1288 2803 1556 2918 
Q 1825 3034 2163 3034 
Q 2859 3034 3264 2615 
Q 3669 2197 3669 1472 
Q 3669 763 3233 336 
Q 2797 -91 2069 -91 
Q 1278 -91 853 498 
Q 428 1088 428 2181 
Q 428 3406 931 4078 
Q 1434 4750 2350 4750 
Q 2597 4750 2869 4703 
Q 3141 4656 3425 4563 
L 3425 3794 
L 3072 3794 
Q 3034 4109 2831 4275 
Q 2628 4441 2284 4441 
Q 1678 4441 1381 3981 
Q 1084 3522 1075 2569 
z
" transform="scale(0.015625)"/>
       </defs>
       <use xlink:href="#DejaVuSerif-31" transform="translate(0 0.7125)"/>
       <use xlink:href="#DejaVuSerif-30" transform="translate(63.623047 0.7125)"/>
       <use xlink:href="#DejaVuSerif-2212" transform="translate(128.154453 37.046875) scale(0.7)"/>
       <use xlink:href="#DejaVuSerif-36" transform="translate(186.806797 37.046875) scale(0.7)"/>
      </g>
     </g>
    </g>
    <g id="ytick_2">
     <g id="line2d_13">
      <path d="M 53.21375 124.624527 
L 265.25375 124.624527 
" clip-path="url(#pbe59b5c0c1)" style="fill: none; stroke: #b0b0b0; stroke-width: 0.4; stroke-linecap: square"/>
     </g>
     <g id="line2d_14">
      <g>
       <use xlink:href="#m8f5a39ef11" x="53.21375" y="124.624527" style="stroke: #000000; stroke-width: 0.8"/>
      </g>
     </g>
     <g id="text_8">
      <!-- $\mathdefault{10^{-4}}$ -->
      <g transform="translate(22.81375 128.423746) scale(0.1 -0.1)">
       <defs>
        <path id="DejaVuSerif-34" d="M 2234 1581 
L 2234 4063 
L 641 1581 
L 2234 1581 
z
M 3609 0 
L 1484 0 
L 1484 331 
L 2234 331 
L 2234 1247 
L 197 1247 
L 197 1588 
L 2241 4750 
L 2859 4750 
L 2859 1581 
L 3750 1581 
L 3750 1247 
L 2859 1247 
L 2859 331 
L 3609 331 
L 3609 0 
z
" transform="scale(0.015625)"/>
       </defs>
       <use xlink:href="#DejaVuSerif-31" transform="translate(0 0.7125)"/>
       <use xlink:href="#DejaVuSerif-30" transform="translate(63.623047 0.7125)"/>
       <use xlink:href="#DejaVuSerif-2212" transform="translate(128.154453 37.046875) scale(0.7)"/>
       <use xlink:href="#DejaVuSerif-34" transform="translate(186.806797 37.046875) scale(0.7)"/>
      </g>
     </g>
    </g>
    <g id="ytick_3">
     <g id="line2d_15">
      <path d="M 53.21375 92.946831 
L 265.25375 92.946831 
" clip-path="url(#pbe59b5c0c1)" style="fill: none; stroke: #b0b0b0; stroke-width: 0.4; stroke-linecap: square"/>
     </g>
     <g id="line2d_16">
      <g>
       <use xlink:href="#m8f5a39ef11" x="53.21375" y="92.946831" style="stroke: #000000; stroke-width: 0.8"/>
      </g>
     </g>
     <g id="text_9">
      <!-- $\mathdefault{10^{-2}}$ -->
      <g transform="translate(22.81375 96.746049) scale(0.1 -0.1)">
       <use xlink:href="#DejaVuSerif-31" transform="translate(0 0.7125)"/>
       <use xlink:href="#DejaVuSerif-30" transform="translate(63.623047 0.7125)"/>
       <use xlink:href="#DejaVuSerif-2212" transform="translate(128.154453 37.046875) scale(0.7)"/>
       <use xlink:href="#DejaVuSerif-32" transform="translate(186.806797 37.046875) scale(0.7)"/>
      </g>
     </g>
    </g>
    <g id="ytick_4">
     <g id="line2d_17">
      <path d="M 53.21375 61.269134 
L 265.25375 61.269134 
" clip-path="url(#pbe59b5c0c1)" style="fill: none; stroke: #b0b0b0; stroke-width: 0.4; stroke-linecap: square"/>
     </g>
     <g id="line2d_18">
      <g>
       <use xlink:href="#m8f5a39ef11" x="53.21375" y="61.269134" style="stroke: #000000; stroke-width: 0.8"/>
      </g>
     </g>
     <g id="text_10">
      <!-- $\mathdefault{10^{0}}$ -->
      <g transform="translate(28.61375 65.068353) scale(0.1 -0.1)">
       <use xlink:href="#DejaVuSerif-31" transform="translate(0 0.7125)"/>
       <use xlink:href="#DejaVuSerif-30" transform="translate(63.623047 0.7125)"/>
       <use xlink:href="#DejaVuSerif-30" transform="translate(128.154453 37.046875) scale(0.7)"/>
      </g>
     </g>
    </g>
    <g id="ytick_5">
     <g id="line2d_19">
      <path d="M 53.21375 29.591438 
L 265.25375 29.591438 
" clip-path="url(#pbe59b5c0c1)" style="fill: none; stroke: #b0b0b0; stroke-width: 0.4; stroke-linecap: square"/>
     </g>
     <g id="line2d_20">
      <g>
       <use xlink:href="#m8f5a39ef11" x="53.21375" y="29.591438" style="stroke: #000000; stroke-width: 0.8"/>
      </g>
     </g>
     <g id="text_11">
      <!-- $\mathdefault{10^{2}}$ -->
      <g transform="translate(28.61375 33.390656) scale(0.1 -0.1)">
       <use xlink:href="#DejaVuSerif-31" transform="translate(0 0.7125)"/>
       <use xlink:href="#DejaVuSerif-30" transform="translate(63.623047 0.7125)"/>
       <use xlink:href="#DejaVuSerif-32" transform="translate(128.154453 37.046875) scale(0.7)"/>
      </g>
     </g>
    </g>
    <g id="text_12">
     <!-- Maximum SKR (kbps) -->
     <g transform="translate(16.318125 156.629063) rotate(-90) scale(0.12 -0.12)">
      <defs>
       <path id="DejaVuSerif-4d" d="M 353 0 
L 353 331 
L 947 331 
L 947 4331 
L 319 4331 
L 319 4666 
L 1678 4666 
L 3316 1344 
L 4953 4666 
L 6228 4666 
L 6228 4331 
L 5606 4331 
L 5606 331 
L 6203 331 
L 6203 0 
L 4378 0 
L 4378 331 
L 4972 331 
L 4972 3938 
L 3372 684 
L 2931 684 
L 1331 3938 
L 1331 331 
L 1925 331 
L 1925 0 
L 353 0 
z
" transform="scale(0.015625)"/>
       <path id="DejaVuSerif-78" d="M 1863 2028 
L 2559 2988 
L 2113 2988 
L 2113 3322 
L 3391 3322 
L 3391 2988 
L 2950 2988 
L 2059 1759 
L 3097 331 
L 3531 331 
L 3531 0 
L 1997 0 
L 1997 331 
L 2419 331 
L 1697 1325 
L 972 331 
L 1403 331 
L 1403 0 
L 141 0 
L 141 331 
L 581 331 
L 1497 1594 
L 488 2988 
L 78 2988 
L 78 3322 
L 1563 3322 
L 1563 2988 
L 1166 2988 
L 1863 2028 
z
" transform="scale(0.015625)"/>
       <path id="DejaVuSerif-75" d="M 2266 3322 
L 3341 3322 
L 3341 331 
L 3884 331 
L 3884 0 
L 2766 0 
L 2766 588 
Q 2606 256 2353 82 
Q 2100 -91 1766 -91 
Q 1213 -91 952 223 
Q 691 538 691 1209 
L 691 2988 
L 172 2988 
L 172 3322 
L 1269 3322 
L 1269 1388 
Q 1269 781 1417 556 
Q 1566 331 1947 331 
Q 2347 331 2556 625 
Q 2766 919 2766 1478 
L 2766 2988 
L 2266 2988 
L 2266 3322 
z
" transform="scale(0.015625)"/>
       <path id="DejaVuSerif-53" d="M 594 225 
L 594 1288 
L 953 1284 
Q 969 753 1261 498 
Q 1553 244 2150 244 
Q 2706 244 2998 464 
Q 3291 684 3291 1106 
Q 3291 1444 3114 1625 
Q 2938 1806 2369 1978 
L 1753 2163 
Q 1084 2366 811 2669 
Q 538 2972 538 3500 
Q 538 4094 959 4422 
Q 1381 4750 2144 4750 
Q 2469 4750 2856 4679 
Q 3244 4609 3681 4475 
L 3681 3481 
L 3328 3481 
Q 3275 3975 2998 4195 
Q 2722 4416 2156 4416 
Q 1663 4416 1405 4214 
Q 1147 4013 1147 3628 
Q 1147 3294 1340 3103 
Q 1534 2913 2163 2725 
L 2741 2553 
Q 3375 2363 3645 2067 
Q 3916 1772 3916 1275 
Q 3916 597 3481 253 
Q 3047 -91 2188 -91 
Q 1803 -91 1404 -12 
Q 1006 66 594 225 
z
" transform="scale(0.015625)"/>
       <path id="DejaVuSerif-4b" d="M 353 0 
L 353 331 
L 947 331 
L 947 4331 
L 353 4331 
L 353 4666 
L 2175 4666 
L 2175 4331 
L 1581 4331 
L 1581 2566 
L 3591 4331 
L 3084 4331 
L 3084 4666 
L 4634 4666 
L 4634 4331 
L 4109 4331 
L 2106 2572 
L 4347 331 
L 4878 331 
L 4878 0 
L 3794 0 
L 1581 2216 
L 1581 331 
L 2175 331 
L 2175 0 
L 353 0 
z
" transform="scale(0.015625)"/>
       <path id="DejaVuSerif-52" d="M 3066 2316 
Q 3284 2256 3442 2114 
Q 3600 1972 3725 1716 
L 4403 331 
L 4972 331 
L 4972 0 
L 3872 0 
L 3144 1484 
Q 2934 1916 2759 2042 
Q 2584 2169 2278 2169 
L 1581 2169 
L 1581 331 
L 2241 331 
L 2241 0 
L 353 0 
L 353 331 
L 947 331 
L 947 4331 
L 353 4331 
L 353 4666 
L 2719 4666 
Q 3400 4666 3770 4341 
Q 4141 4016 4141 3419 
Q 4141 2938 3870 2661 
Q 3600 2384 3066 2316 
z
M 1581 2503 
L 2503 2503 
Q 2975 2503 3200 2726 
Q 3425 2950 3425 3419 
Q 3425 3888 3200 4109 
Q 2975 4331 2503 4331 
L 1581 4331 
L 1581 2503 
z
" transform="scale(0.015625)"/>
       <path id="DejaVuSerif-62" d="M 738 331 
L 738 4531 
L 184 4531 
L 184 4863 
L 1313 4863 
L 1313 2803 
Q 1481 3116 1742 3264 
Q 2003 3413 2388 3413 
Q 3000 3413 3387 2928 
Q 3775 2444 3775 1663 
Q 3775 881 3387 395 
Q 3000 -91 2388 -91 
Q 2003 -91 1742 57 
Q 1481 206 1313 519 
L 1313 0 
L 184 0 
L 184 331 
L 738 331 
z
M 1313 1497 
Q 1313 897 1542 583 
Q 1772 269 2209 269 
Q 2650 269 2876 622 
Q 3103 975 3103 1663 
Q 3103 2353 2876 2703 
Q 2650 3053 2209 3053 
Q 1772 3053 1542 2737 
Q 1313 2422 1313 1825 
L 1313 1497 
z
" transform="scale(0.015625)"/>
       <path id="DejaVuSerif-70" d="M 1313 1825 
L 1313 1497 
Q 1313 897 1542 583 
Q 1772 269 2209 269 
Q 2650 269 2876 622 
Q 3103 975 3103 1663 
Q 3103 2353 2876 2703 
Q 2650 3053 2209 3053 
Q 1772 3053 1542 2737 
Q 1313 2422 1313 1825 
z
M 738 2988 
L 184 2988 
L 184 3322 
L 1313 3322 
L 1313 2803 
Q 1481 3116 1742 3264 
Q 2003 3413 2388 3413 
Q 3000 3413 3387 2928 
Q 3775 2444 3775 1663 
Q 3775 881 3387 395 
Q 3000 -91 2388 -91 
Q 2003 -91 1742 57 
Q 1481 206 1313 519 
L 1313 -997 
L 1856 -997 
L 1856 -1331 
L 184 -1331 
L 184 -997 
L 738 -997 
L 738 2988 
z
" transform="scale(0.015625)"/>
      </defs>
      <use xlink:href="#DejaVuSerif-4d"/>
      <use xlink:href="#DejaVuSerif-61" transform="translate(102.392578 0)"/>
      <use xlink:href="#DejaVuSerif-78" transform="translate(162.011719 0)"/>
      <use xlink:href="#DejaVuSerif-69" transform="translate(218.408203 0)"/>
      <use xlink:href="#DejaVuSerif-6d" transform="translate(250.390625 0)"/>
      <use xlink:href="#DejaVuSerif-75" transform="translate(345.214844 0)"/>
      <use xlink:href="#DejaVuSerif-6d" transform="translate(409.619141 0)"/>
      <use xlink:href="#DejaVuSerif-20" transform="translate(504.443359 0)"/>
      <use xlink:href="#DejaVuSerif-53" transform="translate(536.230469 0)"/>
      <use xlink:href="#DejaVuSerif-4b" transform="translate(604.736328 0)"/>
      <use xlink:href="#DejaVuSerif-52" transform="translate(679.443359 0)"/>
      <use xlink:href="#DejaVuSerif-20" transform="translate(754.736328 0)"/>
      <use xlink:href="#DejaVuSerif-28" transform="translate(786.523438 0)"/>
      <use xlink:href="#DejaVuSerif-6b" transform="translate(825.537109 0)"/>
      <use xlink:href="#DejaVuSerif-62" transform="translate(886.132812 0)"/>
      <use xlink:href="#DejaVuSerif-70" transform="translate(950.146484 0)"/>
      <use xlink:href="#DejaVuSerif-73" transform="translate(1014.160156 0)"/>
      <use xlink:href="#DejaVuSerif-29" transform="translate(1065.478516 0)"/>
     </g>
    </g>
   </g>
   <g id="line2d_21">
    <path d="M 62.851932 14.76 
L 75.760211 16.524514 
L 90.389594 18.283908 
L 106.740081 20.015987 
L 124.811672 21.706523 
L 145.464919 23.414081 
L 168.699821 25.111493 
L 195.376932 26.832644 
L 225.49625 28.547745 
L 255.615568 30.072535 
L 255.615568 30.072535 
" clip-path="url(#pbe59b5c0c1)" style="fill: none; stroke-dasharray: 5.18,2.24; stroke-dashoffset: 0; stroke: #000000; stroke-width: 1.4"/>
   </g>
   <g id="patch_3">
    <path d="M 53.21375 173.52 
L 53.21375 7.2 
" style="fill: none; stroke: #000000; stroke-width: 0.8; stroke-linejoin: miter; stroke-linecap: square"/>
   </g>
   <g id="patch_4">
    <path d="M 265.25375 173.52 
L 265.25375 7.2 
" style="fill: none; stroke: #000000; stroke-width: 0.8; stroke-linejoin: miter; stroke-linecap: square"/>
   </g>
   <g id="patch_5">
    <path d="M 53.21375 173.52 
L 265.25375 173.52 
" style="fill: none; stroke: #000000; stroke-width: 0.8; stroke-linejoin: miter; stroke-linecap: square"/>
   </g>
   <g id="patch_6">
    <path d="M 53.21375 7.2 
L 265.25375 7.2 
" style="fill: none; stroke: #000000; stroke-width: 0.8; stroke-linejoin: miter; stroke-linecap: square"/>
   </g>
   <g id="legend_1">
    <g id="patch_7">
     <path d="M 59.51375 169.02 
L 185.84 169.02 
Q 187.64 169.02 187.64 167.22 
L 187.64 103.740469 
Q 187.64 101.940469 185.84 101.940469 
L 59.51375 101.940469 
Q 57.71375 101.940469 57.71375 103.740469 
L 57.71375 167.22 
Q 57.71375 169.02 59.51375 169.02 
z
" style="fill: #ffffff; opacity: 0.8; stroke: #cccccc; stroke-linejoin: miter"/>
    </g>
    <g id="patch_8">
     <path d="M 60.41375 111.479063 
L 78.41375 111.479063 
L 78.41375 105.179063 
L 60.41375 105.179063 
z
" style="fill: #1f77b4; fill-opacity: 0.3; stroke: #1f77b4; stroke-opacity: 0.3; stroke-linejoin: miter"/>
    </g>
    <g id="text_13">
     <!-- HAP (DW) -->
     <g transform="translate(85.61375 111.479063) scale(0.09 -0.09)">
      <defs>
       <path id="DejaVuSerif-48" d="M 353 0 
L 353 331 
L 947 331 
L 947 4331 
L 353 4331 
L 353 4666 
L 2175 4666 
L 2175 4331 
L 1581 4331 
L 1581 2719 
L 4000 2719 
L 4000 4331 
L 3406 4331 
L 3406 4666 
L 5228 4666 
L 5228 4331 
L 4634 4331 
L 4634 331 
L 5228 331 
L 5228 0 
L 3406 0 
L 3406 331 
L 4000 331 
L 4000 2338 
L 1581 2338 
L 1581 331 
L 2175 331 
L 2175 0 
L 353 0 
z
" transform="scale(0.015625)"/>
       <path id="DejaVuSerif-41" d="M 1281 1691 
L 2994 1691 
L 2138 3909 
L 1281 1691 
z
M -38 0 
L -38 331 
L 372 331 
L 2034 4666 
L 2559 4666 
L 4225 331 
L 4684 331 
L 4684 0 
L 2988 0 
L 2988 331 
L 3506 331 
L 3116 1356 
L 1153 1356 
L 763 331 
L 1275 331 
L 1275 0 
L -38 0 
z
" transform="scale(0.015625)"/>
       <path id="DejaVuSerif-50" d="M 1581 2375 
L 2406 2375 
Q 2872 2375 3115 2626 
Q 3359 2878 3359 3353 
Q 3359 3831 3115 4081 
Q 2872 4331 2406 4331 
L 1581 4331 
L 1581 2375 
z
M 353 0 
L 353 331 
L 947 331 
L 947 4331 
L 353 4331 
L 353 4666 
L 2559 4666 
Q 3259 4666 3668 4311 
Q 4078 3956 4078 3353 
Q 4078 2753 3668 2397 
Q 3259 2041 2559 2041 
L 1581 2041 
L 1581 331 
L 2303 331 
L 2303 0 
L 353 0 
z
" transform="scale(0.015625)"/>
       <path id="DejaVuSerif-57" d="M 4878 0 
L 4366 0 
L 3297 3794 
L 2228 0 
L 1716 0 
L 494 4331 
L 31 4331 
L 31 4666 
L 1734 4666 
L 1734 4331 
L 1153 4331 
L 2125 884 
L 3188 4666 
L 3694 4666 
L 4775 844 
L 5753 4331 
L 5216 4331 
L 5216 4666 
L 6559 4666 
L 6559 4331 
L 6100 4331 
L 4878 0 
z
" transform="scale(0.015625)"/>
      </defs>
      <use xlink:href="#DejaVuSerif-48"/>
      <use xlink:href="#DejaVuSerif-41" transform="translate(87.207031 0)"/>
      <use xlink:href="#DejaVuSerif-50" transform="translate(159.423828 0)"/>
      <use xlink:href="#DejaVuSerif-20" transform="translate(226.708984 0)"/>
      <use xlink:href="#DejaVuSerif-28" transform="translate(258.496094 0)"/>
      <use xlink:href="#DejaVuSerif-44" transform="translate(297.509766 0)"/>
      <use xlink:href="#DejaVuSerif-57" transform="translate(377.685547 0)"/>
      <use xlink:href="#DejaVuSerif-29" transform="translate(480.46875 0)"/>
     </g>
    </g>
    <g id="patch_9">
     <path d="M 60.41375 124.689375 
L 78.41375 124.689375 
L 78.41375 118.389375 
L 60.41375 118.389375 
z
" style="fill: #2ca02c; fill-opacity: 0.3; stroke: #2ca02c; stroke-opacity: 0.3; stroke-linejoin: miter"/>
    </g>
    <g id="text_14">
     <!-- HAP (PLOB) -->
     <g transform="translate(85.61375 124.689375) scale(0.09 -0.09)">
      <defs>
       <path id="DejaVuSerif-4c" d="M 353 0 
L 353 331 
L 947 331 
L 947 4331 
L 353 4331 
L 353 4666 
L 2175 4666 
L 2175 4331 
L 1581 4331 
L 1581 384 
L 3713 384 
L 3713 1166 
L 4097 1166 
L 4097 0 
L 353 0 
z
" transform="scale(0.015625)"/>
       <path id="DejaVuSerif-4f" d="M 2625 244 
Q 3391 244 3781 770 
Q 4172 1297 4172 2328 
Q 4172 3363 3781 3889 
Q 3391 4416 2625 4416 
Q 1856 4416 1465 3889 
Q 1075 3363 1075 2328 
Q 1075 1297 1465 770 
Q 1856 244 2625 244 
z
M 2625 -91 
Q 2150 -91 1751 65 
Q 1353 222 1050 525 
Q 700 875 529 1319 
Q 359 1763 359 2328 
Q 359 2894 529 3339 
Q 700 3784 1050 4134 
Q 1356 4441 1750 4595 
Q 2144 4750 2625 4750 
Q 3641 4750 4266 4084 
Q 4891 3419 4891 2328 
Q 4891 1769 4719 1320 
Q 4547 872 4197 525 
Q 3891 219 3497 64 
Q 3103 -91 2625 -91 
z
" transform="scale(0.015625)"/>
       <path id="DejaVuSerif-42" d="M 1581 331 
L 2516 331 
Q 3078 331 3337 575 
Q 3597 819 3597 1350 
Q 3597 1878 3339 2120 
Q 3081 2363 2516 2363 
L 1581 2363 
L 1581 331 
z
M 1581 2694 
L 2375 2694 
Q 2888 2694 3123 2891 
Q 3359 3088 3359 3513 
Q 3359 3941 3123 4136 
Q 2888 4331 2375 4331 
L 1581 4331 
L 1581 2694 
z
M 353 0 
L 353 331 
L 947 331 
L 947 4331 
L 353 4331 
L 353 4666 
L 2656 4666 
Q 3363 4666 3720 4377 
Q 4078 4088 4078 3513 
Q 4078 3097 3829 2850 
Q 3581 2603 3103 2547 
Q 3697 2472 4005 2167 
Q 4313 1863 4313 1350 
Q 4313 656 3875 328 
Q 3438 0 2509 0 
L 353 0 
z
" transform="scale(0.015625)"/>
      </defs>
      <use xlink:href="#DejaVuSerif-48"/>
      <use xlink:href="#DejaVuSerif-41" transform="translate(87.207031 0)"/>
      <use xlink:href="#DejaVuSerif-50" transform="translate(159.423828 0)"/>
      <use xlink:href="#DejaVuSerif-20" transform="translate(226.708984 0)"/>
      <use xlink:href="#DejaVuSerif-28" transform="translate(258.496094 0)"/>
      <use xlink:href="#DejaVuSerif-50" transform="translate(297.509766 0)"/>
      <use xlink:href="#DejaVuSerif-4c" transform="translate(364.794922 0)"/>
      <use xlink:href="#DejaVuSerif-4f" transform="translate(431.201172 0)"/>
      <use xlink:href="#DejaVuSerif-42" transform="translate(513.183594 0)"/>
      <use xlink:href="#DejaVuSerif-29" transform="translate(586.669922 0)"/>
     </g>
    </g>
    <g id="patch_10">
     <path d="M 60.41375 137.899688 
L 78.41375 137.899688 
L 78.41375 131.599688 
L 60.41375 131.599688 
z
" style="fill: #ff7f0e; fill-opacity: 0.3; stroke: #ff7f0e; stroke-opacity: 0.3; stroke-linejoin: miter"/>
    </g>
    <g id="text_15">
     <!-- Fiber (DW) -->
     <g transform="translate(85.61375 137.899688) scale(0.09 -0.09)">
      <defs>
       <path id="DejaVuSerif-46" d="M 353 0 
L 353 331 
L 947 331 
L 947 4331 
L 353 4331 
L 353 4666 
L 4172 4666 
L 4172 3628 
L 3788 3628 
L 3788 4281 
L 1581 4281 
L 1581 2719 
L 3175 2719 
L 3175 3303 
L 3559 3303 
L 3559 1753 
L 3175 1753 
L 3175 2338 
L 1581 2338 
L 1581 331 
L 2328 331 
L 2328 0 
L 353 0 
z
" transform="scale(0.015625)"/>
       <path id="DejaVuSerif-72" d="M 3059 3328 
L 3059 2497 
L 2728 2497 
Q 2713 2744 2591 2866 
Q 2469 2988 2234 2988 
Q 1809 2988 1582 2694 
Q 1356 2400 1356 1850 
L 1356 331 
L 2022 331 
L 2022 0 
L 263 0 
L 263 331 
L 781 331 
L 781 2994 
L 231 2994 
L 231 3322 
L 1356 3322 
L 1356 2731 
Q 1525 3078 1790 3245 
Q 2056 3413 2438 3413 
Q 2578 3413 2733 3391 
Q 2888 3369 3059 3328 
z
" transform="scale(0.015625)"/>
      </defs>
      <use xlink:href="#DejaVuSerif-46"/>
      <use xlink:href="#DejaVuSerif-69" transform="translate(69.384766 0)"/>
      <use xlink:href="#DejaVuSerif-62" transform="translate(101.367188 0)"/>
      <use xlink:href="#DejaVuSerif-65" transform="translate(165.380859 0)"/>
      <use xlink:href="#DejaVuSerif-72" transform="translate(224.560547 0)"/>
      <use xlink:href="#DejaVuSerif-20" transform="translate(272.363281 0)"/>
      <use xlink:href="#DejaVuSerif-28" transform="translate(304.150391 0)"/>
      <use xlink:href="#DejaVuSerif-44" transform="translate(343.164062 0)"/>
      <use xlink:href="#DejaVuSerif-57" transform="translate(423.339844 0)"/>
      <use xlink:href="#DejaVuSerif-29" transform="translate(526.123047 0)"/>
     </g>
    </g>
    <g id="patch_11">
     <path d="M 60.41375 151.11 
L 78.41375 151.11 
L 78.41375 144.81 
L 60.41375 144.81 
z
" style="fill: #d62728; fill-opacity: 0.3; stroke: #d62728; stroke-opacity: 0.3; stroke-linejoin: miter"/>
    </g>
    <g id="text_16">
     <!-- Fiber (PLOB) -->
     <g transform="translate(85.61375 151.11) scale(0.09 -0.09)">
      <use xlink:href="#DejaVuSerif-46"/>
      <use xlink:href="#DejaVuSerif-69" transform="translate(69.384766 0)"/>
      <use xlink:href="#DejaVuSerif-62" transform="translate(101.367188 0)"/>
      <use xlink:href="#DejaVuSerif-65" transform="translate(165.380859 0)"/>
      <use xlink:href="#DejaVuSerif-72" transform="translate(224.560547 0)"/>
      <use xlink:href="#DejaVuSerif-20" transform="translate(272.363281 0)"/>
      <use xlink:href="#DejaVuSerif-28" transform="translate(304.150391 0)"/>
      <use xlink:href="#DejaVuSerif-50" transform="translate(343.164062 0)"/>
      <use xlink:href="#DejaVuSerif-4c" transform="translate(410.449219 0)"/>
      <use xlink:href="#DejaVuSerif-4f" transform="translate(476.855469 0)"/>
      <use xlink:href="#DejaVuSerif-42" transform="translate(558.837891 0)"/>
      <use xlink:href="#DejaVuSerif-29" transform="translate(632.324219 0)"/>
     </g>
    </g>
    <g id="line2d_22">
     <path d="M 60.41375 161.170313 
L 69.41375 161.170313 
L 78.41375 161.170313 
" style="fill: none; stroke-dasharray: 5.18,2.24; stroke-dashoffset: 0; stroke: #000000; stroke-width: 1.4"/>
    </g>
    <g id="text_17">
     <!-- HAP (Geo-only PLOB) -->
     <g transform="translate(85.61375 164.320313) scale(0.09 -0.09)">
      <defs>
       <path id="DejaVuSerif-47" d="M 4097 3272 
Q 3988 3856 3641 4136 
Q 3294 4416 2675 4416 
Q 1869 4416 1472 3897 
Q 1075 3378 1075 2328 
Q 1075 1300 1484 772 
Q 1894 244 2688 244 
Q 3041 244 3362 331 
Q 3684 419 3975 594 
L 3975 1797 
L 3097 1797 
L 3097 2131 
L 4609 2131 
L 4609 391 
Q 4194 150 3714 29 
Q 3234 -91 2688 -91 
Q 1631 -91 995 570 
Q 359 1231 359 2328 
Q 359 3434 996 4092 
Q 1634 4750 2713 4750 
Q 3113 4750 3539 4658 
Q 3966 4566 4447 4378 
L 4447 3272 
L 4097 3272 
z
" transform="scale(0.015625)"/>
       <path id="DejaVuSerif-6f" d="M 1925 219 
Q 2388 219 2623 584 
Q 2859 950 2859 1663 
Q 2859 2375 2623 2739 
Q 2388 3103 1925 3103 
Q 1463 3103 1227 2739 
Q 991 2375 991 1663 
Q 991 950 1228 584 
Q 1466 219 1925 219 
z
M 1925 -91 
Q 1200 -91 759 389 
Q 319 869 319 1663 
Q 319 2456 758 2934 
Q 1197 3413 1925 3413 
Q 2653 3413 3092 2934 
Q 3531 2456 3531 1663 
Q 3531 869 3092 389 
Q 2653 -91 1925 -91 
z
" transform="scale(0.015625)"/>
       <path id="DejaVuSerif-2d" d="M 281 1959 
L 1881 1959 
L 1881 1472 
L 281 1472 
L 281 1959 
z
" transform="scale(0.015625)"/>
       <path id="DejaVuSerif-6c" d="M 1313 331 
L 1856 331 
L 1856 0 
L 184 0 
L 184 331 
L 738 331 
L 738 4531 
L 184 4531 
L 184 4863 
L 1313 4863 
L 1313 331 
z
" transform="scale(0.015625)"/>
       <path id="DejaVuSerif-79" d="M 1381 -609 
L 1600 -56 
L 359 2988 
L -19 2988 
L -19 3322 
L 1509 3322 
L 1509 2988 
L 978 2988 
L 1913 703 
L 2847 2988 
L 2350 2988 
L 2350 3322 
L 3597 3322 
L 3597 2988 
L 3225 2988 
L 1703 -750 
Q 1547 -1138 1356 -1280 
Q 1166 -1422 819 -1422 
Q 672 -1422 517 -1397 
Q 363 -1372 206 -1325 
L 206 -691 
L 500 -691 
Q 519 -903 608 -995 
Q 697 -1088 884 -1088 
Q 1056 -1088 1161 -992 
Q 1266 -897 1381 -609 
z
" transform="scale(0.015625)"/>
      </defs>
      <use xlink:href="#DejaVuSerif-48"/>
      <use xlink:href="#DejaVuSerif-41" transform="translate(87.207031 0)"/>
      <use xlink:href="#DejaVuSerif-50" transform="translate(159.423828 0)"/>
      <use xlink:href="#DejaVuSerif-20" transform="translate(226.708984 0)"/>
      <use xlink:href="#DejaVuSerif-28" transform="translate(258.496094 0)"/>
      <use xlink:href="#DejaVuSerif-47" transform="translate(297.509766 0)"/>
      <use xlink:href="#DejaVuSerif-65" transform="translate(377.392578 0)"/>
      <use xlink:href="#DejaVuSerif-6f" transform="translate(436.572266 0)"/>
      <use xlink:href="#DejaVuSerif-2d" transform="translate(496.777344 0)"/>
      <use xlink:href="#DejaVuSerif-6f" transform="translate(530.566406 0)"/>
      <use xlink:href="#DejaVuSerif-6e" transform="translate(590.771484 0)"/>
      <use xlink:href="#DejaVuSerif-6c" transform="translate(655.175781 0)"/>
      <use xlink:href="#DejaVuSerif-79" transform="translate(687.158203 0)"/>
      <use xlink:href="#DejaVuSerif-20" transform="translate(743.652344 0)"/>
      <use xlink:href="#DejaVuSerif-50" transform="translate(775.439453 0)"/>
      <use xlink:href="#DejaVuSerif-4c" transform="translate(842.724609 0)"/>
      <use xlink:href="#DejaVuSerif-4f" transform="translate(909.130859 0)"/>
      <use xlink:href="#DejaVuSerif-42" transform="translate(991.113281 0)"/>
      <use xlink:href="#DejaVuSerif-29" transform="translate(1064.599609 0)"/>
     </g>
    </g>
   </g>
  </g>
 </g>
 <defs>
  <clipPath id="pbe59b5c0c1">
   <rect x="53.21375" y="7.2" width="212.04" height="166.32"/>
  </clipPath>
 </defs>
</svg>
