<?xml version="1.0" encoding="utf-8" standalone="no"?>
<!DOCTYPE svg PUBLIC "-//W3C//DTD SVG 1.1//EN"
  "http://www.w3.org/Graphics/SVG/1.1/DTD/svg11.dtd">
<svg xmlns:xlink="http://www.w3.org/1999/xlink" width="230.427792pt" height="213.011875pt" viewBox="0 0 230.427792 213.011875" xmlns="http://www.w3.org/2000/svg" version="1.1">
 <metadata>
  <rdf:RDF xmlns:dc="http://purl.org/dc/elements/1.1/" xmlns:cc="http://creativecommons.org/ns#" xmlns:rdf="http://www.w3.org/1999/02/22-rdf-syntax-ns#">
   <cc:Work>
    <dc:type rdf:resource="http://purl.org/dc/dcmitype/StillImage"/>
    <dc:date>2026-02-02T10:33:19.858124</dc:date>
    <dc:format>image/svg+xml</dc:format>
    <dc:creator>
     <cc:Agent>
      <dc:title>Matplotlib v3.10.8, https://matplotlib.org/</dc:title>
     </cc:Agent>
    </dc:creator>
   </cc:Work>
  </rdf:RDF>
 </metadata>
 <defs>
  <style type="text/css">*{stroke-linejoin: round; stroke-linecap: butt}</style>
 </defs>
 <g id="figure_1">
  <g id="patch_1">
   <path d="M 0 213.011875 
L 230.427792 213.011875 
L 230.427792 0 
L 0 0 
z
" style="fill: #ffffff"/>
  </g>
  <g id="axes_1">
   <g id="patch_2">
    <path d="M 53.21375 173.52 
L 220.61375 173.52 
L 220.61375 7.2 
L 53.21375 7.2 
z
" style="fill: #ffffff"/>
   </g>
   <g id="FillBetweenPolyCollection_1">
    <defs>
     <path id="mba1d5bc4ae" d="M 60.822841 -171.228445 
L 60.822841 -178.435121 
L 61.502224 -178.118344 
L 62.181607 -177.801567 
L 62.86099 -177.48479 
L 63.540373 -177.168013 
L 64.219756 -176.851236 
L 64.89914 -176.534459 
L 65.578523 -176.217682 
L 66.257906 -175.900905 
L 66.937289 -175.584129 
L 67.616672 -175.267352 
L 68.296055 -174.950575 
L 68.975438 -174.633798 
L 69.654821 -174.317021 
L 70.334205 -174.000244 
L 71.013588 -173.683467 
L 71.692971 -173.36669 
L 72.372354 -173.049913 
L 73.051737 -172.733136 
L 73.73112 -172.416359 
L 74.410503 -172.099582 
L 75.089886 -171.782805 
L 75.769269 -171.466028 
L 76.448653 -171.149251 
L 77.128036 -170.832474 
L 77.807419 -170.515697 
L 78.486802 -170.19892 
L 79.166185 -169.882143 
L 79.845568 -169.565366 
L 80.524951 -169.248589 
L 81.204334 -168.931812 
L 81.883718 -168.615035 
L 82.563101 -168.298258 
L 83.242484 -167.981481 
L 83.921867 -167.664704 
L 84.60125 -167.347927 
L 85.280633 -167.03115 
L 85.960016 -166.714374 
L 86.639399 -166.397597 
L 87.318782 -166.08082 
L 87.998166 -165.764043 
L 88.677549 -165.447266 
L 89.356932 -165.130489 
L 90.036315 -164.813712 
L 90.715698 -164.496935 
L 91.395081 -164.180158 
L 92.074464 -163.863381 
L 92.753847 -163.546604 
L 93.433231 -163.229827 
L 94.112614 -162.91305 
L 94.791997 -162.596273 
L 95.47138 -162.279496 
L 96.150763 -161.962719 
L 96.830146 -161.645942 
L 97.509529 -161.329165 
L 98.188912 -161.012388 
L 98.868295 -160.695611 
L 99.547679 -160.378834 
L 100.227062 -160.062057 
L 100.906445 -159.74528 
L 101.585828 -159.428503 
L 102.265211 -159.111726 
L 102.944594 -158.794949 
L 103.623977 -158.478172 
L 104.30336 -158.161395 
L 104.982744 -157.844618 
L 105.662127 -157.527842 
L 106.34151 -157.211065 
L 107.020893 -156.894288 
L 107.700276 -156.577511 
L 108.379659 -156.260734 
L 109.059042 -155.943957 
L 109.738425 -155.62718 
L 110.417808 -155.310403 
L 111.097192 -154.993626 
L 111.776575 -154.676849 
L 112.455958 -154.360072 
L 113.135341 -154.043295 
L 113.814724 -153.726518 
L 114.494107 -153.409741 
L 115.17349 -153.092964 
L 115.852873 -152.776187 
L 116.532256 -152.45941 
L 117.21164 -152.142633 
L 117.891023 -151.825856 
L 118.570406 -151.509079 
L 119.249789 -151.192302 
L 119.929172 -150.875525 
L 120.608555 -150.558748 
L 121.287938 -150.241971 
L 121.967321 -149.925194 
L 122.646705 -149.608417 
L 123.326088 -149.29164 
L 124.005471 -148.974863 
L 124.684854 -148.658087 
L 125.364237 -148.34131 
L 126.04362 -148.024533 
L 126.723003 -147.707756 
L 127.402386 -147.390979 
L 128.081769 -147.074202 
L 128.761153 -146.757425 
L 129.440536 -146.440648 
L 130.119919 -146.123871 
L 130.799302 -145.807094 
L 131.478685 -145.490317 
L 132.158068 -145.17354 
L 132.837451 -144.856763 
L 133.516834 -144.539986 
L 134.196218 -144.223209 
L 134.875601 -143.906432 
L 135.554984 -143.589655 
L 136.234367 -143.272878 
L 136.91375 -142.956101 
L 137.593133 -142.639324 
L 138.272516 -142.322547 
L 138.951899 -142.00577 
L 139.631282 -141.688993 
L 140.310666 -141.372216 
L 140.990049 -141.055439 
L 141.669432 -140.738662 
L 142.348815 -140.421885 
L 143.028198 -140.105108 
L 143.707581 -139.788331 
L 144.386964 -139.471555 
L 145.066347 -139.154778 
L 145.745731 -138.838001 
L 146.425114 -138.521224 
L 147.104497 -138.204447 
L 147.78388 -137.88767 
L 148.463263 -137.570893 
L 149.142646 -137.254116 
L 149.822029 -136.937339 
L 150.501412 -136.620562 
L 151.180795 -136.303785 
L 151.860179 -135.987008 
L 152.539562 -135.670231 
L 153.218945 -135.353454 
L 153.898328 -135.036677 
L 154.577711 -134.7199 
L 155.257094 -134.403123 
L 155.936477 -134.086346 
L 156.61586 -133.769569 
L 157.295244 -133.452792 
L 157.974627 -133.136015 
L 158.65401 -132.819238 
L 159.333393 -132.502461 
L 160.012776 -132.185684 
L 160.692159 -131.868907 
L 161.371542 -131.55213 
L 162.050925 -131.235353 
L 162.730308 -130.918576 
L 163.409692 -130.6018 
L 164.089075 -130.285023 
L 164.768458 -129.968246 
L 165.447841 -129.651469 
L 166.127224 -129.334692 
L 166.806607 -129.017915 
L 167.48599 -128.701138 
L 168.165373 -128.384361 
L 168.844756 -128.067584 
L 169.52414 -127.750807 
L 170.203523 -127.43403 
L 170.882906 -127.117253 
L 171.562289 -126.800476 
L 172.241672 -126.483699 
L 172.921055 -126.166922 
L 173.600438 -125.850145 
L 174.279821 -125.533368 
L 174.959205 -125.216591 
L 175.638588 -124.899814 
L 176.317971 -124.583037 
L 176.997354 -124.26626 
L 177.676737 -123.949483 
L 178.35612 -123.632706 
L 179.035503 -123.315929 
L 179.714886 -122.999152 
L 180.394269 -122.682375 
L 181.073653 -122.365598 
L 181.753036 -122.048821 
L 182.432419 -121.732044 
L 183.111802 -121.415268 
L 183.791185 -121.098491 
L 184.470568 -120.781714 
L 185.149951 -120.464937 
L 185.829334 -120.14816 
L 186.508718 -119.831383 
L 187.188101 -119.514606 
L 187.867484 -119.197829 
L 188.546867 -118.881052 
L 189.22625 -118.564275 
L 189.905633 -118.247498 
L 190.585016 -117.930721 
L 191.264399 -117.613944 
L 191.943782 -117.297167 
L 192.623166 -116.98039 
L 193.302549 -116.663613 
L 193.981932 -116.346836 
L 194.661315 -116.030059 
L 195.340698 -115.713282 
L 196.020081 -115.396505 
L 196.699464 -115.079728 
L 197.378847 -114.762951 
L 198.058231 -114.446174 
L 198.737614 -114.129397 
L 199.416997 -113.81262 
L 200.09638 -113.495843 
L 200.775763 -113.179066 
L 201.455146 -112.862289 
L 202.134529 -112.545513 
L 202.813912 -112.228736 
L 203.493295 -111.911959 
L 204.172679 -111.595182 
L 204.852062 -111.278405 
L 205.531445 -110.961628 
L 206.210828 -110.644851 
L 206.890211 -110.328074 
L 207.569594 -110.011297 
L 208.248977 -109.69452 
L 208.92836 -109.377743 
L 209.607744 -109.060966 
L 210.287127 -108.744189 
L 210.96651 -108.427412 
L 211.645893 -108.110635 
L 212.325276 -107.793858 
L 213.004659 -107.477081 
L 213.004659 -47.051875 
L 213.004659 -47.051875 
L 212.325276 -47.606235 
L 211.645893 -48.160594 
L 210.96651 -48.714954 
L 210.287127 -49.269314 
L 209.607744 -49.823673 
L 208.92836 -50.378033 
L 208.248977 -50.932393 
L 207.569594 -51.486753 
L 206.890211 -52.041112 
L 206.210828 -52.595472 
L 205.531445 -53.149832 
L 204.852062 -53.704191 
L 204.172679 -54.258551 
L 203.493295 -54.812911 
L 202.813912 -55.36727 
L 202.134529 -55.92163 
L 201.455146 -56.47599 
L 200.775763 -57.030349 
L 200.09638 -57.584709 
L 199.416997 -58.139069 
L 198.737614 -58.693428 
L 198.058231 -59.247788 
L 197.378847 -59.802148 
L 196.699464 -60.356508 
L 196.020081 -60.910867 
L 195.340698 -61.465227 
L 194.661315 -62.019587 
L 193.981932 -62.573946 
L 193.302549 -63.128306 
L 192.623166 -63.682666 
L 191.943782 -64.237025 
L 191.264399 -64.791385 
L 190.585016 -65.345745 
L 189.905633 -65.900104 
L 189.22625 -66.454464 
L 188.546867 -67.008824 
L 187.867484 -67.563183 
L 187.188101 -68.117543 
L 186.508718 -68.671903 
L 185.829334 -69.226263 
L 185.149951 -69.780622 
L 184.470568 -70.334982 
L 183.791185 -70.889342 
L 183.111802 -71.443701 
L 182.432419 -71.998061 
L 181.753036 -72.552421 
L 181.073653 -73.10678 
L 180.394269 -73.66114 
L 179.714886 -74.2155 
L 179.035503 -74.769859 
L 178.35612 -75.324219 
L 177.676737 -75.878579 
L 176.997354 -76.432938 
L 176.317971 -76.987298 
L 175.638588 -77.541658 
L 174.959205 -78.096018 
L 174.279821 -78.650377 
L 173.600438 -79.204737 
L 172.921055 -79.759097 
L 172.241672 -80.313456 
L 171.562289 -80.867816 
L 170.882906 -81.422176 
L 170.203523 -81.976535 
L 169.52414 -82.530895 
L 168.844756 -83.085255 
L 168.165373 -83.639614 
L 167.48599 -84.193974 
L 166.806607 -84.748334 
L 166.127224 -85.302694 
L 165.447841 -85.857053 
L 164.768458 -86.411413 
L 164.089075 -86.965773 
L 163.409692 -87.520132 
L 162.730308 -88.074492 
L 162.050925 -88.628852 
L 161.371542 -89.183211 
L 160.692159 -89.737571 
L 160.012776 -90.291931 
L 159.333393 -90.84629 
L 158.65401 -91.40065 
L 157.974627 -91.95501 
L 157.295244 -92.509369 
L 156.61586 -93.063729 
L 155.936477 -93.618089 
L 155.257094 -94.172449 
L 154.577711 -94.726808 
L 153.898328 -95.281168 
L 153.218945 -95.835528 
L 152.539562 -96.389887 
L 151.860179 -96.944247 
L 151.180795 -97.498607 
L 150.501412 -98.052966 
L 149.822029 -98.607326 
L 149.142646 -99.161686 
L 148.463263 -99.716045 
L 147.78388 -100.270405 
L 147.104497 -100.824765 
L 146.425114 -101.379124 
L 145.745731 -101.933484 
L 145.066347 -102.487844 
L 144.386964 -103.042204 
L 143.707581 -103.596563 
L 143.028198 -104.150923 
L 142.348815 -104.705283 
L 141.669432 -105.259642 
L 140.990049 -105.814002 
L 140.310666 -106.368362 
L 139.631282 -106.922721 
L 138.951899 -107.477081 
L 138.272516 -108.031441 
L 137.593133 -108.5858 
L 136.91375 -109.14016 
L 136.234367 -109.69452 
L 135.554984 -110.24888 
L 134.875601 -110.803239 
L 134.196218 -111.357599 
L 133.516834 -111.911959 
L 132.837451 -112.466318 
L 132.158068 -113.020678 
L 131.478685 -113.575038 
L 130.799302 -114.129397 
L 130.119919 -114.683757 
L 129.440536 -115.238117 
L 128.761153 -115.792476 
L 128.081769 -116.346836 
L 127.402386 -116.901196 
L 126.723003 -117.455555 
L 126.04362 -118.009915 
L 125.364237 -118.564275 
L 124.684854 -119.118635 
L 124.005471 -119.672994 
L 123.326088 -120.227354 
L 122.646705 -120.781714 
L 121.967321 -121.336073 
L 121.287938 -121.890433 
L 120.608555 -122.444793 
L 119.929172 -122.999152 
L 119.249789 -123.553512 
L 118.570406 -124.107872 
L 117.891023 -124.662231 
L 117.21164 -125.216591 
L 116.532256 -125.770951 
L 115.852873 -126.32531 
L 115.17349 -126.87967 
L 114.494107 -127.43403 
L 113.814724 -127.98839 
L 113.135341 -128.542749 
L 112.455958 -129.097109 
L 111.776575 -129.651469 
L 111.097192 -130.205828 
L 110.417808 -130.760188 
L 109.738425 -131.314548 
L 109.059042 -131.868907 
L 108.379659 -132.423267 
L 107.700276 -132.977627 
L 107.020893 -133.531986 
L 106.34151 -134.086346 
L 105.662127 -134.640706 
L 104.982744 -135.195065 
L 104.30336 -135.749425 
L 103.623977 -136.303785 
L 102.944594 -136.858145 
L 102.265211 -137.412504 
L 101.585828 -137.966864 
L 100.906445 -138.521224 
L 100.227062 -139.075583 
L 99.547679 -139.629943 
L 98.868295 -140.184303 
L 98.188912 -140.738662 
L 97.509529 -141.293022 
L 96.830146 -141.847382 
L 96.150763 -142.401741 
L 95.47138 -142.956101 
L 94.791997 -143.510461 
L 94.112614 -144.064821 
L 93.433231 -144.61918 
L 92.753847 -145.17354 
L 92.074464 -145.7279 
L 91.395081 -146.282259 
L 90.715698 -146.836619 
L 90.036315 -147.390979 
L 89.356932 -147.945338 
L 88.677549 -148.499698 
L 87.998166 -149.054058 
L 87.318782 -149.608417 
L 86.639399 -150.162777 
L 85.960016 -150.717137 
L 85.280633 -151.271496 
L 84.60125 -151.825856 
L 83.921867 -152.380216 
L 83.242484 -152.934576 
L 82.563101 -153.488935 
L 81.883718 -154.043295 
L 81.204334 -154.597655 
L 80.524951 -155.152014 
L 79.845568 -155.706374 
L 79.166185 -156.260734 
L 78.486802 -156.815093 
L 77.807419 -157.369453 
L 77.128036 -157.923813 
L 76.448653 -158.478172 
L 75.769269 -159.032532 
L 75.089886 -159.586892 
L 74.410503 -160.141251 
L 73.73112 -160.695611 
L 73.051737 -161.249971 
L 72.372354 -161.804331 
L 71.692971 -162.35869 
L 71.013588 -162.91305 
L 70.334205 -163.46741 
L 69.654821 -164.021769 
L 68.975438 -164.576129 
L 68.296055 -165.130489 
L 67.616672 -165.684848 
L 66.937289 -166.239208 
L 66.257906 -166.793568 
L 65.578523 -167.347927 
L 64.89914 -167.902287 
L 64.219756 -168.456647 
L 63.540373 -169.011007 
L 62.86099 -169.565366 
L 62.181607 -170.119726 
L 61.502224 -170.674086 
L 60.822841 -171.228445 
z
" style="stroke: #ff0000; stroke-opacity: 0.2"/>
    </defs>
    <g clip-path="url(#pda441a78c7)">
     <use xlink:href="#mba1d5bc4ae" x="0" y="213.011875" style="fill: #ff0000; fill-opacity: 0.2; stroke: #ff0000; stroke-opacity: 0.2"/>
    </g>
   </g>
   <g id="matplotlib.axis_1">
    <g id="xtick_1">
     <g id="line2d_1">
      <path d="M 77.807419 173.52 
L 77.807419 7.2 
" clip-path="url(#pda441a78c7)" style="fill: none; stroke: #b0b0b0; stroke-width: 0.8; stroke-linecap: square"/>
     </g>
     <g id="line2d_2">
      <defs>
       <path id="m3992d4f757" d="M 0 0 
L 0 3.5 
" style="stroke: #000000; stroke-width: 0.8"/>
      </defs>
      <g>
       <use xlink:href="#m3992d4f757" x="77.807419" y="173.52" style="stroke: #000000; stroke-width: 0.8"/>
      </g>
     </g>
     <g id="text_1">
      <!-- 50 -->
      <g transform="translate(71.444919 188.118437) scale(0.1 -0.1)">
       <defs>
        <path id="DejaVuSerif-35" d="M 3219 4666 
L 3219 4153 
L 1081 4153 
L 1081 2816 
Q 1244 2928 1461 2984 
Q 1678 3041 1947 3041 
Q 2703 3041 3140 2622 
Q 3578 2203 3578 1478 
Q 3578 738 3136 323 
Q 2694 -91 1894 -91 
Q 1572 -91 1234 -12 
Q 897 66 544 225 
L 544 1131 
L 897 1131 
Q 925 688 1179 453 
Q 1434 219 1894 219 
Q 2388 219 2653 544 
Q 2919 869 2919 1478 
Q 2919 2084 2655 2407 
Q 2391 2731 1894 2731 
Q 1613 2731 1398 2631 
Q 1184 2531 1019 2322 
L 750 2322 
L 750 4666 
L 3219 4666 
z
" transform="scale(0.015625)"/>
        <path id="DejaVuSerif-30" d="M 2034 219 
Q 2513 219 2750 744 
Q 2988 1269 2988 2328 
Q 2988 3391 2750 3916 
Q 2513 4441 2034 4441 
Q 1556 4441 1318 3916 
Q 1081 3391 1081 2328 
Q 1081 1269 1318 744 
Q 1556 219 2034 219 
z
M 2034 -91 
Q 1275 -91 848 546 
Q 422 1184 422 2328 
Q 422 3475 848 4112 
Q 1275 4750 2034 4750 
Q 2797 4750 3222 4112 
Q 3647 3475 3647 2328 
Q 3647 1184 3222 546 
Q 2797 -91 2034 -91 
z
" transform="scale(0.015625)"/>
       </defs>
       <use xlink:href="#DejaVuSerif-35"/>
       <use xlink:href="#DejaVuSerif-30" transform="translate(63.623047 0)"/>
      </g>
     </g>
    </g>
    <g id="xtick_2">
     <g id="line2d_3">
      <path d="M 111.776575 173.52 
L 111.776575 7.2 
" clip-path="url(#pda441a78c7)" style="fill: none; stroke: #b0b0b0; stroke-width: 0.8; stroke-linecap: square"/>
     </g>
     <g id="line2d_4">
      <g>
       <use xlink:href="#m3992d4f757" x="111.776575" y="173.52" style="stroke: #000000; stroke-width: 0.8"/>
      </g>
     </g>
     <g id="text_2">
      <!-- 100 -->
      <g transform="translate(102.232825 188.118437) scale(0.1 -0.1)">
       <defs>
        <path id="DejaVuSerif-31" d="M 909 0 
L 909 331 
L 1722 331 
L 1722 4213 
L 781 3603 
L 781 4013 
L 1919 4750 
L 2350 4750 
L 2350 331 
L 3163 331 
L 3163 0 
L 909 0 
z
" transform="scale(0.015625)"/>
       </defs>
       <use xlink:href="#DejaVuSerif-31"/>
       <use xlink:href="#DejaVuSerif-30" transform="translate(63.623047 0)"/>
       <use xlink:href="#DejaVuSerif-30" transform="translate(127.246094 0)"/>
      </g>
     </g>
    </g>
    <g id="xtick_3">
     <g id="line2d_5">
      <path d="M 145.745731 173.52 
L 145.745731 7.2 
" clip-path="url(#pda441a78c7)" style="fill: none; stroke: #b0b0b0; stroke-width: 0.8; stroke-linecap: square"/>
     </g>
     <g id="line2d_6">
      <g>
       <use xlink:href="#m3992d4f757" x="145.745731" y="173.52" style="stroke: #000000; stroke-width: 0.8"/>
      </g>
     </g>
     <g id="text_3">
      <!-- 150 -->
      <g transform="translate(136.201981 188.118437) scale(0.1 -0.1)">
       <use xlink:href="#DejaVuSerif-31"/>
       <use xlink:href="#DejaVuSerif-35" transform="translate(63.623047 0)"/>
       <use xlink:href="#DejaVuSerif-30" transform="translate(127.246094 0)"/>
      </g>
     </g>
    </g>
    <g id="xtick_4">
     <g id="line2d_7">
      <path d="M 179.714886 173.52 
L 179.714886 7.2 
" clip-path="url(#pda441a78c7)" style="fill: none; stroke: #b0b0b0; stroke-width: 0.8; stroke-linecap: square"/>
     </g>
     <g id="line2d_8">
      <g>
       <use xlink:href="#m3992d4f757" x="179.714886" y="173.52" style="stroke: #000000; stroke-width: 0.8"/>
      </g>
     </g>
     <g id="text_4">
      <!-- 200 -->
      <g transform="translate(170.171136 188.118437) scale(0.1 -0.1)">
       <defs>
        <path id="DejaVuSerif-32" d="M 819 3553 
L 469 3553 
L 469 4384 
Q 803 4563 1142 4656 
Q 1481 4750 1806 4750 
Q 2534 4750 2956 4397 
Q 3378 4044 3378 3438 
Q 3378 2753 2422 1800 
Q 2347 1728 2309 1691 
L 1131 513 
L 3078 513 
L 3078 1088 
L 3444 1088 
L 3444 0 
L 434 0 
L 434 341 
L 1850 1753 
Q 2319 2222 2519 2614 
Q 2719 3006 2719 3438 
Q 2719 3909 2473 4175 
Q 2228 4441 1797 4441 
Q 1350 4441 1106 4219 
Q 863 3997 819 3553 
z
" transform="scale(0.015625)"/>
       </defs>
       <use xlink:href="#DejaVuSerif-32"/>
       <use xlink:href="#DejaVuSerif-30" transform="translate(63.623047 0)"/>
       <use xlink:href="#DejaVuSerif-30" transform="translate(127.246094 0)"/>
      </g>
     </g>
    </g>
    <g id="xtick_5">
     <g id="line2d_9">
      <path d="M 213.684042 173.52 
L 213.684042 7.2 
" clip-path="url(#pda441a78c7)" style="fill: none; stroke: #b0b0b0; stroke-width: 0.8; stroke-linecap: square"/>
     </g>
     <g id="line2d_10">
      <g>
       <use xlink:href="#m3992d4f757" x="213.684042" y="173.52" style="stroke: #000000; stroke-width: 0.8"/>
      </g>
     </g>
     <g id="text_5">
      <!-- 250 -->
      <g transform="translate(204.140292 188.118437) scale(0.1 -0.1)">
       <use xlink:href="#DejaVuSerif-32"/>
       <use xlink:href="#DejaVuSerif-35" transform="translate(63.623047 0)"/>
       <use xlink:href="#DejaVuSerif-30" transform="translate(127.246094 0)"/>
      </g>
     </g>
    </g>
    <g id="text_6">
     <!-- Distance (Km) -->
     <g transform="translate(93.580625 203.31625) scale(0.12 -0.12)">
      <defs>
       <path id="DejaVuSerif-44" d="M 1581 331 
L 2163 331 
Q 3072 331 3558 850 
Q 4044 1369 4044 2338 
Q 4044 3306 3559 3818 
Q 3075 4331 2163 4331 
L 1581 4331 
L 1581 331 
z
M 353 0 
L 353 331 
L 947 331 
L 947 4331 
L 353 4331 
L 353 4666 
L 2209 4666 
Q 3416 4666 4089 4050 
Q 4763 3434 4763 2338 
Q 4763 1238 4088 619 
Q 3413 0 2209 0 
L 353 0 
z
" transform="scale(0.015625)"/>
       <path id="DejaVuSerif-69" d="M 622 4353 
Q 622 4497 726 4603 
Q 831 4709 978 4709 
Q 1122 4709 1226 4603 
Q 1331 4497 1331 4353 
Q 1331 4206 1228 4103 
Q 1125 4000 978 4000 
Q 831 4000 726 4103 
Q 622 4206 622 4353 
z
M 1356 331 
L 1900 331 
L 1900 0 
L 231 0 
L 231 331 
L 781 331 
L 781 2988 
L 231 2988 
L 231 3322 
L 1356 3322 
L 1356 331 
z
" transform="scale(0.015625)"/>
       <path id="DejaVuSerif-73" d="M 359 184 
L 359 959 
L 691 959 
Q 703 588 923 403 
Q 1144 219 1575 219 
Q 1963 219 2166 364 
Q 2369 509 2369 788 
Q 2369 1006 2220 1140 
Q 2072 1275 1594 1428 
L 1178 1569 
Q 750 1706 558 1912 
Q 366 2119 366 2438 
Q 366 2894 700 3153 
Q 1034 3413 1625 3413 
Q 1888 3413 2178 3344 
Q 2469 3275 2778 3144 
L 2778 2419 
L 2447 2419 
Q 2434 2741 2221 2922 
Q 2009 3103 1644 3103 
Q 1281 3103 1095 2975 
Q 909 2847 909 2591 
Q 909 2381 1050 2254 
Q 1191 2128 1613 1997 
L 2069 1856 
Q 2541 1709 2748 1489 
Q 2956 1269 2956 922 
Q 2956 450 2595 179 
Q 2234 -91 1600 -91 
Q 1278 -91 972 -22 
Q 666 47 359 184 
z
" transform="scale(0.015625)"/>
       <path id="DejaVuSerif-74" d="M 691 2988 
L 184 2988 
L 184 3322 
L 691 3322 
L 691 4353 
L 1269 4353 
L 1269 3322 
L 2350 3322 
L 2350 2988 
L 1269 2988 
L 1269 878 
Q 1269 456 1350 337 
Q 1431 219 1650 219 
Q 1875 219 1978 351 
Q 2081 484 2088 781 
L 2522 781 
Q 2497 328 2275 118 
Q 2053 -91 1600 -91 
Q 1103 -91 897 129 
Q 691 350 691 878 
L 691 2988 
z
" transform="scale(0.015625)"/>
       <path id="DejaVuSerif-61" d="M 2547 1044 
L 2547 1747 
L 1806 1747 
Q 1378 1747 1168 1562 
Q 959 1378 959 997 
Q 959 650 1171 447 
Q 1384 244 1747 244 
Q 2106 244 2326 466 
Q 2547 688 2547 1044 
z
M 3122 2075 
L 3122 331 
L 3634 331 
L 3634 0 
L 2547 0 
L 2547 359 
Q 2356 128 2106 18 
Q 1856 -91 1522 -91 
Q 969 -91 644 203 
Q 319 497 319 997 
Q 319 1513 691 1797 
Q 1063 2081 1741 2081 
L 2547 2081 
L 2547 2309 
Q 2547 2688 2317 2895 
Q 2088 3103 1672 3103 
Q 1328 3103 1125 2947 
Q 922 2791 872 2484 
L 575 2484 
L 575 3156 
Q 875 3284 1158 3348 
Q 1441 3413 1709 3413 
Q 2400 3413 2761 3070 
Q 3122 2728 3122 2075 
z
" transform="scale(0.015625)"/>
       <path id="DejaVuSerif-6e" d="M 263 0 
L 263 331 
L 781 331 
L 781 2988 
L 231 2988 
L 231 3322 
L 1356 3322 
L 1356 2731 
Q 1516 3069 1770 3241 
Q 2025 3413 2363 3413 
Q 2913 3413 3172 3097 
Q 3431 2781 3431 2113 
L 3431 331 
L 3944 331 
L 3944 0 
L 2356 0 
L 2356 331 
L 2853 331 
L 2853 1931 
Q 2853 2541 2703 2767 
Q 2553 2994 2175 2994 
Q 1775 2994 1565 2701 
Q 1356 2409 1356 1850 
L 1356 331 
L 1856 331 
L 1856 0 
L 263 0 
z
" transform="scale(0.015625)"/>
       <path id="DejaVuSerif-63" d="M 3291 997 
Q 3169 466 2822 187 
Q 2475 -91 1925 -91 
Q 1200 -91 759 389 
Q 319 869 319 1663 
Q 319 2459 759 2936 
Q 1200 3413 1925 3413 
Q 2241 3413 2553 3339 
Q 2866 3266 3181 3116 
L 3181 2266 
L 2847 2266 
Q 2781 2703 2561 2903 
Q 2341 3103 1931 3103 
Q 1466 3103 1228 2742 
Q 991 2381 991 1663 
Q 991 944 1227 581 
Q 1463 219 1931 219 
Q 2303 219 2525 412 
Q 2747 606 2828 997 
L 3291 997 
z
" transform="scale(0.015625)"/>
       <path id="DejaVuSerif-65" d="M 3469 1600 
L 991 1600 
L 991 1575 
Q 991 903 1244 561 
Q 1497 219 1991 219 
Q 2369 219 2611 417 
Q 2853 616 2950 1006 
L 3413 1006 
Q 3275 459 2904 184 
Q 2534 -91 1931 -91 
Q 1203 -91 761 389 
Q 319 869 319 1663 
Q 319 2450 753 2931 
Q 1188 3413 1894 3413 
Q 2647 3413 3050 2948 
Q 3453 2484 3469 1600 
z
M 2791 1931 
Q 2772 2513 2545 2808 
Q 2319 3103 1894 3103 
Q 1497 3103 1269 2806 
Q 1041 2509 991 1931 
L 2791 1931 
z
" transform="scale(0.015625)"/>
       <path id="DejaVuSerif-20" transform="scale(0.015625)"/>
       <path id="DejaVuSerif-28" d="M 2041 -997 
Q 1281 -656 893 83 
Q 506 822 506 1931 
Q 506 3044 893 3783 
Q 1281 4522 2041 4863 
L 2041 4556 
Q 1559 4225 1350 3623 
Q 1141 3022 1141 1931 
Q 1141 844 1350 242 
Q 1559 -359 2041 -691 
L 2041 -997 
z
" transform="scale(0.015625)"/>
       <path id="DejaVuSerif-4b" d="M 353 0 
L 353 331 
L 947 331 
L 947 4331 
L 353 4331 
L 353 4666 
L 2175 4666 
L 2175 4331 
L 1581 4331 
L 1581 2566 
L 3591 4331 
L 3084 4331 
L 3084 4666 
L 4634 4666 
L 4634 4331 
L 4109 4331 
L 2106 2572 
L 4347 331 
L 4878 331 
L 4878 0 
L 3794 0 
L 1581 2216 
L 1581 331 
L 2175 331 
L 2175 0 
L 353 0 
z
" transform="scale(0.015625)"/>
       <path id="DejaVuSerif-6d" d="M 3316 2675 
Q 3481 3041 3739 3227 
Q 3997 3413 4341 3413 
Q 4863 3413 5119 3089 
Q 5375 2766 5375 2113 
L 5375 331 
L 5894 331 
L 5894 0 
L 4300 0 
L 4300 331 
L 4800 331 
L 4800 2047 
Q 4800 2556 4650 2772 
Q 4500 2988 4153 2988 
Q 3769 2988 3567 2697 
Q 3366 2406 3366 1850 
L 3366 331 
L 3866 331 
L 3866 0 
L 2291 0 
L 2291 331 
L 2791 331 
L 2791 2069 
Q 2791 2566 2641 2777 
Q 2491 2988 2144 2988 
Q 1759 2988 1557 2697 
Q 1356 2406 1356 1850 
L 1356 331 
L 1856 331 
L 1856 0 
L 263 0 
L 263 331 
L 781 331 
L 781 2994 
L 231 2994 
L 231 3322 
L 1356 3322 
L 1356 2731 
Q 1516 3063 1762 3238 
Q 2009 3413 2322 3413 
Q 2709 3413 2968 3220 
Q 3228 3028 3316 2675 
z
" transform="scale(0.015625)"/>
       <path id="DejaVuSerif-29" d="M 453 -997 
L 453 -691 
Q 934 -359 1145 242 
Q 1356 844 1356 1931 
Q 1356 3022 1145 3623 
Q 934 4225 453 4556 
L 453 4863 
Q 1216 4522 1603 3783 
Q 1991 3044 1991 1931 
Q 1991 822 1603 83 
Q 1216 -656 453 -997 
z
" transform="scale(0.015625)"/>
      </defs>
      <use xlink:href="#DejaVuSerif-44"/>
      <use xlink:href="#DejaVuSerif-69" transform="translate(80.175781 0)"/>
      <use xlink:href="#DejaVuSerif-73" transform="translate(112.158203 0)"/>
      <use xlink:href="#DejaVuSerif-74" transform="translate(163.476562 0)"/>
      <use xlink:href="#DejaVuSerif-61" transform="translate(203.662109 0)"/>
      <use xlink:href="#DejaVuSerif-6e" transform="translate(263.28125 0)"/>
      <use xlink:href="#DejaVuSerif-63" transform="translate(327.685547 0)"/>
      <use xlink:href="#DejaVuSerif-65" transform="translate(383.691406 0)"/>
      <use xlink:href="#DejaVuSerif-20" transform="translate(442.871094 0)"/>
      <use xlink:href="#DejaVuSerif-28" transform="translate(474.658203 0)"/>
      <use xlink:href="#DejaVuSerif-4b" transform="translate(513.671875 0)"/>
      <use xlink:href="#DejaVuSerif-6d" transform="translate(588.378906 0)"/>
      <use xlink:href="#DejaVuSerif-29" transform="translate(683.203125 0)"/>
     </g>
    </g>
   </g>
   <g id="matplotlib.axis_2">
    <g id="ytick_1">
     <g id="line2d_11">
      <path d="M 53.21375 146.557411 
L 220.61375 146.557411 
" clip-path="url(#pda441a78c7)" style="fill: none; stroke: #b0b0b0; stroke-width: 0.8; stroke-linecap: square"/>
     </g>
     <g id="line2d_12">
      <defs>
       <path id="m45a0bf9ad1" d="M 0 0 
L -3.5 0 
" style="stroke: #000000; stroke-width: 0.8"/>
      </defs>
      <g>
       <use xlink:href="#m45a0bf9ad1" x="53.21375" y="146.557411" style="stroke: #000000; stroke-width: 0.8"/>
      </g>
     </g>
     <g id="text_7">
      <!-- $\mathdefault{10^{-6}}$ -->
      <g transform="translate(22.81375 150.35663) scale(0.1 -0.1)">
       <defs>
        <path id="DejaVuSerif-2212" d="M 678 2259 
L 4684 2259 
L 4684 1753 
L 678 1753 
L 678 2259 
z
" transform="scale(0.015625)"/>
        <path id="DejaVuSerif-36" d="M 2094 219 
Q 2534 219 2771 542 
Q 3009 866 3009 1472 
Q 3009 2078 2771 2401 
Q 2534 2725 2094 2725 
Q 1647 2725 1412 2412 
Q 1178 2100 1178 1509 
Q 1178 888 1415 553 
Q 1653 219 2094 219 
z
M 1075 2569 
Q 1288 2803 1556 2918 
Q 1825 3034 2163 3034 
Q 2859 3034 3264 2615 
Q 3669 2197 3669 1472 
Q 3669 763 3233 336 
Q 2797 -91 2069 -91 
Q 1278 -91 853 498 
Q 428 1088 428 2181 
Q 428 3406 931 4078 
Q 1434 4750 2350 4750 
Q 2597 4750 2869 4703 
Q 3141 4656 3425 4563 
L 3425 3794 
L 3072 3794 
Q 3034 4109 2831 4275 
Q 2628 4441 2284 4441 
Q 1678 4441 1381 3981 
Q 1084 3522 1075 2569 
z
" transform="scale(0.015625)"/>
       </defs>
       <use xlink:href="#DejaVuSerif-31" transform="translate(0 0.7125)"/>
       <use xlink:href="#DejaVuSerif-30" transform="translate(63.623047 0.7125)"/>
       <use xlink:href="#DejaVuSerif-2212" transform="translate(128.154453 37.046875) scale(0.7)"/>
       <use xlink:href="#DejaVuSerif-36" transform="translate(186.806797 37.046875) scale(0.7)"/>
      </g>
     </g>
    </g>
    <g id="ytick_2">
     <g id="line2d_13">
      <path d="M 53.21375 114.879714 
L 220.61375 114.879714 
" clip-path="url(#pda441a78c7)" style="fill: none; stroke: #b0b0b0; stroke-width: 0.8; stroke-linecap: square"/>
     </g>
     <g id="line2d_14">
      <g>
       <use xlink:href="#m45a0bf9ad1" x="53.21375" y="114.879714" style="stroke: #000000; stroke-width: 0.8"/>
      </g>
     </g>
     <g id="text_8">
      <!-- $\mathdefault{10^{-4}}$ -->
      <g transform="translate(22.81375 118.678933) scale(0.1 -0.1)">
       <defs>
        <path id="DejaVuSerif-34" d="M 2234 1581 
L 2234 4063 
L 641 1581 
L 2234 1581 
z
M 3609 0 
L 1484 0 
L 1484 331 
L 2234 331 
L 2234 1247 
L 197 1247 
L 197 1588 
L 2241 4750 
L 2859 4750 
L 2859 1581 
L 3750 1581 
L 3750 1247 
L 2859 1247 
L 2859 331 
L 3609 331 
L 3609 0 
z
" transform="scale(0.015625)"/>
       </defs>
       <use xlink:href="#DejaVuSerif-31" transform="translate(0 0.7125)"/>
       <use xlink:href="#DejaVuSerif-30" transform="translate(63.623047 0.7125)"/>
       <use xlink:href="#DejaVuSerif-2212" transform="translate(128.154453 37.046875) scale(0.7)"/>
       <use xlink:href="#DejaVuSerif-34" transform="translate(186.806797 37.046875) scale(0.7)"/>
      </g>
     </g>
    </g>
    <g id="ytick_3">
     <g id="line2d_15">
      <path d="M 53.21375 83.202018 
L 220.61375 83.202018 
" clip-path="url(#pda441a78c7)" style="fill: none; stroke: #b0b0b0; stroke-width: 0.8; stroke-linecap: square"/>
     </g>
     <g id="line2d_16">
      <g>
       <use xlink:href="#m45a0bf9ad1" x="53.21375" y="83.202018" style="stroke: #000000; stroke-width: 0.8"/>
      </g>
     </g>
     <g id="text_9">
      <!-- $\mathdefault{10^{-2}}$ -->
      <g transform="translate(22.81375 87.001237) scale(0.1 -0.1)">
       <use xlink:href="#DejaVuSerif-31" transform="translate(0 0.7125)"/>
       <use xlink:href="#DejaVuSerif-30" transform="translate(63.623047 0.7125)"/>
       <use xlink:href="#DejaVuSerif-2212" transform="translate(128.154453 37.046875) scale(0.7)"/>
       <use xlink:href="#DejaVuSerif-32" transform="translate(186.806797 37.046875) scale(0.7)"/>
      </g>
     </g>
    </g>
    <g id="ytick_4">
     <g id="line2d_17">
      <path d="M 53.21375 51.524321 
L 220.61375 51.524321 
" clip-path="url(#pda441a78c7)" style="fill: none; stroke: #b0b0b0; stroke-width: 0.8; stroke-linecap: square"/>
     </g>
     <g id="line2d_18">
      <g>
       <use xlink:href="#m45a0bf9ad1" x="53.21375" y="51.524321" style="stroke: #000000; stroke-width: 0.8"/>
      </g>
     </g>
     <g id="text_10">
      <!-- $\mathdefault{10^{0}}$ -->
      <g transform="translate(28.61375 55.32354) scale(0.1 -0.1)">
       <use xlink:href="#DejaVuSerif-31" transform="translate(0 0.7125)"/>
       <use xlink:href="#DejaVuSerif-30" transform="translate(63.623047 0.7125)"/>
       <use xlink:href="#DejaVuSerif-30" transform="translate(128.154453 37.046875) scale(0.7)"/>
      </g>
     </g>
    </g>
    <g id="ytick_5">
     <g id="line2d_19">
      <path d="M 53.21375 19.846625 
L 220.61375 19.846625 
" clip-path="url(#pda441a78c7)" style="fill: none; stroke: #b0b0b0; stroke-width: 0.8; stroke-linecap: square"/>
     </g>
     <g id="line2d_20">
      <g>
       <use xlink:href="#m45a0bf9ad1" x="53.21375" y="19.846625" style="stroke: #000000; stroke-width: 0.8"/>
      </g>
     </g>
     <g id="text_11">
      <!-- $\mathdefault{10^{2}}$ -->
      <g transform="translate(28.61375 23.645844) scale(0.1 -0.1)">
       <use xlink:href="#DejaVuSerif-31" transform="translate(0 0.7125)"/>
       <use xlink:href="#DejaVuSerif-30" transform="translate(63.623047 0.7125)"/>
       <use xlink:href="#DejaVuSerif-32" transform="translate(128.154453 37.046875) scale(0.7)"/>
      </g>
     </g>
    </g>
    <g id="text_12">
     <!-- Transmittance (%) -->
     <g transform="translate(16.318125 146.824687) rotate(-90) scale(0.12 -0.12)">
      <defs>
       <path id="DejaVuSerif-54" d="M 1222 0 
L 1222 331 
L 1819 331 
L 1819 4294 
L 447 4294 
L 447 3566 
L 63 3566 
L 63 4666 
L 4206 4666 
L 4206 3566 
L 3822 3566 
L 3822 4294 
L 2450 4294 
L 2450 331 
L 3047 331 
L 3047 0 
L 1222 0 
z
" transform="scale(0.015625)"/>
       <path id="DejaVuSerif-72" d="M 3059 3328 
L 3059 2497 
L 2728 2497 
Q 2713 2744 2591 2866 
Q 2469 2988 2234 2988 
Q 1809 2988 1582 2694 
Q 1356 2400 1356 1850 
L 1356 331 
L 2022 331 
L 2022 0 
L 263 0 
L 263 331 
L 781 331 
L 781 2994 
L 231 2994 
L 231 3322 
L 1356 3322 
L 1356 2731 
Q 1525 3078 1790 3245 
Q 2056 3413 2438 3413 
Q 2578 3413 2733 3391 
Q 2888 3369 3059 3328 
z
" transform="scale(0.015625)"/>
       <path id="DejaVuSerif-25" d="M 1434 4459 
Q 1159 4459 1004 4200 
Q 850 3941 850 3475 
Q 850 3016 1008 2753 
Q 1166 2491 1434 2491 
Q 1700 2491 1854 2752 
Q 2009 3013 2009 3475 
Q 2009 3938 1854 4198 
Q 1700 4459 1434 4459 
z
M 4653 2169 
Q 4381 2169 4226 1906 
Q 4072 1644 4072 1178 
Q 4072 719 4228 458 
Q 4384 197 4653 197 
Q 4922 197 5075 458 
Q 5228 719 5228 1178 
Q 5228 1641 5073 1905 
Q 4919 2169 4653 2169 
z
M 4653 2450 
Q 5147 2450 5437 2106 
Q 5728 1763 5728 1178 
Q 5728 594 5436 251 
Q 5144 -91 4653 -91 
Q 4153 -91 3862 251 
Q 3572 594 3572 1178 
Q 3572 1766 3864 2108 
Q 4156 2450 4653 2450 
z
M 4263 4750 
L 4738 4750 
L 1819 -91 
L 1344 -91 
L 4263 4750 
z
M 1428 4750 
Q 1922 4750 2215 4408 
Q 2509 4066 2509 3481 
Q 2509 2891 2217 2550 
Q 1925 2209 1428 2209 
Q 931 2209 642 2551 
Q 353 2894 353 3481 
Q 353 4063 643 4406 
Q 934 4750 1428 4750 
z
" transform="scale(0.015625)"/>
      </defs>
      <use xlink:href="#DejaVuSerif-54"/>
      <use xlink:href="#DejaVuSerif-72" transform="translate(66.699219 0)"/>
      <use xlink:href="#DejaVuSerif-61" transform="translate(114.501953 0)"/>
      <use xlink:href="#DejaVuSerif-6e" transform="translate(174.121094 0)"/>
      <use xlink:href="#DejaVuSerif-73" transform="translate(238.525391 0)"/>
      <use xlink:href="#DejaVuSerif-6d" transform="translate(289.84375 0)"/>
      <use xlink:href="#DejaVuSerif-69" transform="translate(384.667969 0)"/>
      <use xlink:href="#DejaVuSerif-74" transform="translate(416.650391 0)"/>
      <use xlink:href="#DejaVuSerif-74" transform="translate(456.835938 0)"/>
      <use xlink:href="#DejaVuSerif-61" transform="translate(497.021484 0)"/>
      <use xlink:href="#DejaVuSerif-6e" transform="translate(556.640625 0)"/>
      <use xlink:href="#DejaVuSerif-63" transform="translate(621.044922 0)"/>
      <use xlink:href="#DejaVuSerif-65" transform="translate(677.050781 0)"/>
      <use xlink:href="#DejaVuSerif-20" transform="translate(736.230469 0)"/>
      <use xlink:href="#DejaVuSerif-28" transform="translate(768.017578 0)"/>
      <use xlink:href="#DejaVuSerif-25" transform="translate(807.03125 0)"/>
      <use xlink:href="#DejaVuSerif-29" transform="translate(902.050781 0)"/>
     </g>
    </g>
   </g>
   <g id="line2d_21">
    <path d="M 60.822841 26.37391 
L 81.883718 29.666657 
L 93.433231 31.620516 
L 104.30336 33.631068 
L 115.852873 36.002269 
L 126.723003 38.475188 
L 138.951899 41.502875 
L 158.65401 46.86254 
L 168.844756 49.814881 
L 189.905633 56.357181 
L 210.287127 63.281113 
L 213.004659 64.262195 
L 213.004659 64.262195 
" clip-path="url(#pda441a78c7)" style="fill: none; stroke: #0000ff; stroke-width: 1.5; stroke-linecap: square"/>
    <defs>
     <path id="mfc70c87a0a" d="M 0 3 
C 0.795609 3 1.55874 2.683901 2.12132 2.12132 
C 2.683901 1.55874 3 0.795609 3 0 
C 3 -0.795609 2.683901 -1.55874 2.12132 -2.12132 
C 1.55874 -2.683901 0.795609 -3 0 -3 
C -0.795609 -3 -1.55874 -2.683901 -2.12132 -2.12132 
C -2.683901 -1.55874 -3 -0.795609 -3 0 
C -3 0.795609 -2.683901 1.55874 -2.12132 2.12132 
C -1.55874 2.683901 -0.795609 3 0 3 
z
" style="stroke: #0000ff"/>
    </defs>
    <g clip-path="url(#pda441a78c7)">
     <use xlink:href="#mfc70c87a0a" x="60.822841" y="26.37391" style="fill: #0000ff; stroke: #0000ff"/>
     <use xlink:href="#mfc70c87a0a" x="74.410503" y="28.468434" style="fill: #0000ff; stroke: #0000ff"/>
     <use xlink:href="#mfc70c87a0a" x="87.998166" y="30.681678" style="fill: #0000ff; stroke: #0000ff"/>
     <use xlink:href="#mfc70c87a0a" x="101.585828" y="33.109174" style="fill: #0000ff; stroke: #0000ff"/>
     <use xlink:href="#mfc70c87a0a" x="115.17349" y="35.856074" style="fill: #0000ff; stroke: #0000ff"/>
     <use xlink:href="#mfc70c87a0a" x="128.761153" y="38.962645" style="fill: #0000ff; stroke: #0000ff"/>
     <use xlink:href="#mfc70c87a0a" x="142.348815" y="42.391807" style="fill: #0000ff; stroke: #0000ff"/>
     <use xlink:href="#mfc70c87a0a" x="155.936477" y="46.088762" style="fill: #0000ff; stroke: #0000ff"/>
     <use xlink:href="#mfc70c87a0a" x="169.52414" y="50.022628" style="fill: #0000ff; stroke: #0000ff"/>
     <use xlink:href="#mfc70c87a0a" x="183.111802" y="54.188406" style="fill: #0000ff; stroke: #0000ff"/>
     <use xlink:href="#mfc70c87a0a" x="196.699464" y="58.599832" style="fill: #0000ff; stroke: #0000ff"/>
     <use xlink:href="#mfc70c87a0a" x="210.287127" y="63.281113" style="fill: #0000ff; stroke: #0000ff"/>
    </g>
   </g>
   <g id="line2d_22">
    <path d="M 60.822841 34.576754 
L 213.004659 105.534794 
L 213.004659 105.534794 
" clip-path="url(#pda441a78c7)" style="fill: none; stroke-dasharray: 5.55,2.4; stroke-dashoffset: 0; stroke: #ff0000; stroke-width: 1.5"/>
   </g>
   <g id="line2d_23">
    <path d="M 60.822841 41.78343 
L 213.004659 165.96 
L 213.004659 165.96 
" clip-path="url(#pda441a78c7)" style="fill: none; stroke-dasharray: 5.55,2.4; stroke-dashoffset: 0; stroke: #ff0000; stroke-width: 1.5"/>
   </g>
   <g id="line2d_24">
    <path d="M 60.822841 14.76 
L 71.013588 16.524514 
L 82.563101 18.283908 
L 95.47138 20.015987 
L 109.738425 21.706523 
L 126.04362 23.414081 
L 144.386964 25.111493 
L 165.447841 26.832644 
L 189.22625 28.547745 
L 213.004659 30.072535 
L 213.004659 30.072535 
" clip-path="url(#pda441a78c7)" style="fill: none; stroke-dasharray: 5.55,2.4; stroke-dashoffset: 0; stroke: #008000; stroke-width: 1.5"/>
   </g>
   <g id="patch_3">
    <path d="M 53.21375 173.52 
L 53.21375 7.2 
" style="fill: none; stroke: #000000; stroke-width: 0.8; stroke-linejoin: miter; stroke-linecap: square"/>
   </g>
   <g id="patch_4">
    <path d="M 220.61375 173.52 
L 220.61375 7.2 
" style="fill: none; stroke: #000000; stroke-width: 0.8; stroke-linejoin: miter; stroke-linecap: square"/>
   </g>
   <g id="patch_5">
    <path d="M 53.21375 173.52 
L 220.61375 173.52 
" style="fill: none; stroke: #000000; stroke-width: 0.8; stroke-linejoin: miter; stroke-linecap: square"/>
   </g>
   <g id="patch_6">
    <path d="M 53.21375 7.2 
L 220.61375 7.2 
" style="fill: none; stroke: #000000; stroke-width: 0.8; stroke-linejoin: miter; stroke-linecap: square"/>
   </g>
   <g id="legend_1">
    <g id="patch_7">
     <path d="M 61.61375 167.52 
L 164.309375 167.52 
Q 166.709375 167.52 166.709375 165.12 
L 166.709375 113.47875 
Q 166.709375 111.07875 164.309375 111.07875 
L 61.61375 111.07875 
Q 59.21375 111.07875 59.21375 113.47875 
L 59.21375 165.12 
Q 59.21375 167.52 61.61375 167.52 
z
" style="fill: #ffffff; opacity: 0.8; stroke: #cccccc; stroke-linejoin: miter"/>
    </g>
    <g id="line2d_25">
     <path d="M 64.01375 120.796875 
L 76.01375 120.796875 
L 88.01375 120.796875 
" style="fill: none; stroke: #0000ff; stroke-width: 1.5; stroke-linecap: square"/>
     <g>
      <use xlink:href="#mfc70c87a0a" x="76.01375" y="120.796875" style="fill: #0000ff; stroke: #0000ff"/>
     </g>
    </g>
    <g id="text_13">
     <!-- HAP -->
     <g transform="translate(97.61375 124.996875) scale(0.12 -0.12)">
      <defs>
       <path id="DejaVuSerif-48" d="M 353 0 
L 353 331 
L 947 331 
L 947 4331 
L 353 4331 
L 353 4666 
L 2175 4666 
L 2175 4331 
L 1581 4331 
L 1581 2719 
L 4000 2719 
L 4000 4331 
L 3406 4331 
L 3406 4666 
L 5228 4666 
L 5228 4331 
L 4634 4331 
L 4634 331 
L 5228 331 
L 5228 0 
L 3406 0 
L 3406 331 
L 4000 331 
L 4000 2338 
L 1581 2338 
L 1581 331 
L 2175 331 
L 2175 0 
L 353 0 
z
" transform="scale(0.015625)"/>
       <path id="DejaVuSerif-41" d="M 1281 1691 
L 2994 1691 
L 2138 3909 
L 1281 1691 
z
M -38 0 
L -38 331 
L 372 331 
L 2034 4666 
L 2559 4666 
L 4225 331 
L 4684 331 
L 4684 0 
L 2988 0 
L 2988 331 
L 3506 331 
L 3116 1356 
L 1153 1356 
L 763 331 
L 1275 331 
L 1275 0 
L -38 0 
z
" transform="scale(0.015625)"/>
       <path id="DejaVuSerif-50" d="M 1581 2375 
L 2406 2375 
Q 2872 2375 3115 2626 
Q 3359 2878 3359 3353 
Q 3359 3831 3115 4081 
Q 2872 4331 2406 4331 
L 1581 4331 
L 1581 2375 
z
M 353 0 
L 353 331 
L 947 331 
L 947 4331 
L 353 4331 
L 353 4666 
L 2559 4666 
Q 3259 4666 3668 4311 
Q 4078 3956 4078 3353 
Q 4078 2753 3668 2397 
Q 3259 2041 2559 2041 
L 1581 2041 
L 1581 331 
L 2303 331 
L 2303 0 
L 353 0 
z
" transform="scale(0.015625)"/>
      </defs>
      <use xlink:href="#DejaVuSerif-48"/>
      <use xlink:href="#DejaVuSerif-41" transform="translate(87.207031 0)"/>
      <use xlink:href="#DejaVuSerif-50" transform="translate(159.423828 0)"/>
     </g>
    </g>
    <g id="line2d_26">
     <path d="M 64.01375 138.410625 
L 76.01375 138.410625 
L 88.01375 138.410625 
" style="fill: none; stroke-dasharray: 5.55,2.4; stroke-dashoffset: 0; stroke: #008000; stroke-width: 1.5"/>
    </g>
    <g id="text_14">
     <!-- HAP (Geo) -->
     <g transform="translate(97.61375 142.610625) scale(0.12 -0.12)">
      <defs>
       <path id="DejaVuSerif-47" d="M 4097 3272 
Q 3988 3856 3641 4136 
Q 3294 4416 2675 4416 
Q 1869 4416 1472 3897 
Q 1075 3378 1075 2328 
Q 1075 1300 1484 772 
Q 1894 244 2688 244 
Q 3041 244 3362 331 
Q 3684 419 3975 594 
L 3975 1797 
L 3097 1797 
L 3097 2131 
L 4609 2131 
L 4609 391 
Q 4194 150 3714 29 
Q 3234 -91 2688 -91 
Q 1631 -91 995 570 
Q 359 1231 359 2328 
Q 359 3434 996 4092 
Q 1634 4750 2713 4750 
Q 3113 4750 3539 4658 
Q 3966 4566 4447 4378 
L 4447 3272 
L 4097 3272 
z
" transform="scale(0.015625)"/>
       <path id="DejaVuSerif-6f" d="M 1925 219 
Q 2388 219 2623 584 
Q 2859 950 2859 1663 
Q 2859 2375 2623 2739 
Q 2388 3103 1925 3103 
Q 1463 3103 1227 2739 
Q 991 2375 991 1663 
Q 991 950 1228 584 
Q 1466 219 1925 219 
z
M 1925 -91 
Q 1200 -91 759 389 
Q 319 869 319 1663 
Q 319 2456 758 2934 
Q 1197 3413 1925 3413 
Q 2653 3413 3092 2934 
Q 3531 2456 3531 1663 
Q 3531 869 3092 389 
Q 2653 -91 1925 -91 
z
" transform="scale(0.015625)"/>
      </defs>
      <use xlink:href="#DejaVuSerif-48"/>
      <use xlink:href="#DejaVuSerif-41" transform="translate(87.207031 0)"/>
      <use xlink:href="#DejaVuSerif-50" transform="translate(159.423828 0)"/>
      <use xlink:href="#DejaVuSerif-20" transform="translate(226.708984 0)"/>
      <use xlink:href="#DejaVuSerif-28" transform="translate(258.496094 0)"/>
      <use xlink:href="#DejaVuSerif-47" transform="translate(297.509766 0)"/>
      <use xlink:href="#DejaVuSerif-65" transform="translate(377.392578 0)"/>
      <use xlink:href="#DejaVuSerif-6f" transform="translate(436.572266 0)"/>
      <use xlink:href="#DejaVuSerif-29" transform="translate(496.777344 0)"/>
     </g>
    </g>
    <g id="patch_8">
     <path d="M 64.01375 160.224375 
L 88.01375 160.224375 
L 88.01375 151.824375 
L 64.01375 151.824375 
z
" style="fill: #ff0000; fill-opacity: 0.2; stroke: #ff0000; stroke-opacity: 0.2; stroke-linejoin: miter"/>
    </g>
    <g id="text_15">
     <!-- Fiber -->
     <g transform="translate(97.61375 160.224375) scale(0.12 -0.12)">
      <defs>
       <path id="DejaVuSerif-46" d="M 353 0 
L 353 331 
L 947 331 
L 947 4331 
L 353 4331 
L 353 4666 
L 4172 4666 
L 4172 3628 
L 3788 3628 
L 3788 4281 
L 1581 4281 
L 1581 2719 
L 3175 2719 
L 3175 3303 
L 3559 3303 
L 3559 1753 
L 3175 1753 
L 3175 2338 
L 1581 2338 
L 1581 331 
L 2328 331 
L 2328 0 
L 353 0 
z
" transform="scale(0.015625)"/>
       <path id="DejaVuSerif-62" d="M 738 331 
L 738 4531 
L 184 4531 
L 184 4863 
L 1313 4863 
L 1313 2803 
Q 1481 3116 1742 3264 
Q 2003 3413 2388 3413 
Q 3000 3413 3387 2928 
Q 3775 2444 3775 1663 
Q 3775 881 3387 395 
Q 3000 -91 2388 -91 
Q 2003 -91 1742 57 
Q 1481 206 1313 519 
L 1313 0 
L 184 0 
L 184 331 
L 738 331 
z
M 1313 1497 
Q 1313 897 1542 583 
Q 1772 269 2209 269 
Q 2650 269 2876 622 
Q 3103 975 3103 1663 
Q 3103 2353 2876 2703 
Q 2650 3053 2209 3053 
Q 1772 3053 1542 2737 
Q 1313 2422 1313 1825 
L 1313 1497 
z
" transform="scale(0.015625)"/>
      </defs>
      <use xlink:href="#DejaVuSerif-46"/>
      <use xlink:href="#DejaVuSerif-69" transform="translate(69.384766 0)"/>
      <use xlink:href="#DejaVuSerif-62" transform="translate(101.367188 0)"/>
      <use xlink:href="#DejaVuSerif-65" transform="translate(165.380859 0)"/>
      <use xlink:href="#DejaVuSerif-72" transform="translate(224.560547 0)"/>
     </g>
    </g>
   </g>
  </g>
 </g>
 <defs>
  <clipPath id="pda441a78c7">
   <rect x="53.21375" y="7.2" width="167.4" height="166.32"/>
  </clipPath>
 </defs>
</svg>
