<?xml version="1.0" encoding="utf-8" standalone="no"?>
<!DOCTYPE svg PUBLIC "-//W3C//DTD SVG 1.1//EN"
  "http://www.w3.org/Graphics/SVG/1.1/DTD/svg11.dtd">
<svg xmlns:xlink="http://www.w3.org/1999/xlink" width="568.266562pt" height="351.473125pt" viewBox="0 0 568.266562 351.473125" xmlns="http://www.w3.org/2000/svg" version="1.1">
 <metadata>
  <rdf:RDF xmlns:dc="http://purl.org/dc/elements/1.1/" xmlns:cc="http://creativecommons.org/ns#" xmlns:rdf="http://www.w3.org/1999/02/22-rdf-syntax-ns#">
   <cc:Work>
    <dc:type rdf:resource="http://purl.org/dc/dcmitype/StillImage"/>
    <dc:date>2026-01-22T00:49:06.974854</dc:date>
    <dc:format>image/svg+xml</dc:format>
    <dc:creator>
     <cc:Agent>
      <dc:title>Matplotlib v3.10.8, https://matplotlib.org/</dc:title>
     </cc:Agent>
    </dc:creator>
   </cc:Work>
  </rdf:RDF>
 </metadata>
 <defs>
  <style type="text/css">*{stroke-linejoin: round; stroke-linecap: butt}</style>
 </defs>
 <g id="figure_1">
  <g id="patch_1">
   <path d="M 0 351.473125 
L 568.266562 351.473125 
L 568.266562 0 
L 0 0 
z
" style="fill: #ffffff"/>
  </g>
  <g id="axes_1">
   <g id="patch_2">
    <path d="M 47.107813 313.916875 
L 561.066562 313.916875 
L 561.066562 22.318125 
L 47.107813 22.318125 
z
" style="fill: #ffffff"/>
   </g>
   <g id="matplotlib.axis_1">
    <g id="xtick_1">
     <g id="line2d_1">
      <path d="M 70.469574 313.916875 
L 70.469574 22.318125 
" clip-path="url(#pac9c80b812)" style="fill: none; stroke-dasharray: 2.96,1.28; stroke-dashoffset: 0; stroke: #b0b0b0; stroke-opacity: 0.6; stroke-width: 0.8"/>
     </g>
     <g id="line2d_2">
      <defs>
       <path id="m731b73f9cd" d="M 0 0 
L 0 3.5 
" style="stroke: #000000; stroke-width: 0.8"/>
      </defs>
      <g>
       <use xlink:href="#m731b73f9cd" x="70.469574" y="313.916875" style="stroke: #000000; stroke-width: 0.8"/>
      </g>
     </g>
     <g id="text_1">
      <!-- 0 -->
      <g transform="translate(67.288324 328.515312) scale(0.1 -0.1)">
       <defs>
        <path id="DejaVuSerif-30" d="M 2034 219 
Q 2513 219 2750 744 
Q 2988 1269 2988 2328 
Q 2988 3391 2750 3916 
Q 2513 4441 2034 4441 
Q 1556 4441 1318 3916 
Q 1081 3391 1081 2328 
Q 1081 1269 1318 744 
Q 1556 219 2034 219 
z
M 2034 -91 
Q 1275 -91 848 546 
Q 422 1184 422 2328 
Q 422 3475 848 4112 
Q 1275 4750 2034 4750 
Q 2797 4750 3222 4112 
Q 3647 3475 3647 2328 
Q 3647 1184 3222 546 
Q 2797 -91 2034 -91 
z
" transform="scale(0.015625)"/>
       </defs>
       <use xlink:href="#DejaVuSerif-30"/>
      </g>
     </g>
    </g>
    <g id="xtick_2">
     <g id="line2d_3">
      <path d="M 169.881324 313.916875 
L 169.881324 22.318125 
" clip-path="url(#pac9c80b812)" style="fill: none; stroke-dasharray: 2.96,1.28; stroke-dashoffset: 0; stroke: #b0b0b0; stroke-opacity: 0.6; stroke-width: 0.8"/>
     </g>
     <g id="line2d_4">
      <g>
       <use xlink:href="#m731b73f9cd" x="169.881324" y="313.916875" style="stroke: #000000; stroke-width: 0.8"/>
      </g>
     </g>
     <g id="text_2">
      <!-- 10 -->
      <g transform="translate(163.518824 328.515312) scale(0.1 -0.1)">
       <defs>
        <path id="DejaVuSerif-31" d="M 909 0 
L 909 331 
L 1722 331 
L 1722 4213 
L 781 3603 
L 781 4013 
L 1919 4750 
L 2350 4750 
L 2350 331 
L 3163 331 
L 3163 0 
L 909 0 
z
" transform="scale(0.015625)"/>
       </defs>
       <use xlink:href="#DejaVuSerif-31"/>
       <use xlink:href="#DejaVuSerif-30" transform="translate(63.623047 0)"/>
      </g>
     </g>
    </g>
    <g id="xtick_3">
     <g id="line2d_5">
      <path d="M 269.293075 313.916875 
L 269.293075 22.318125 
" clip-path="url(#pac9c80b812)" style="fill: none; stroke-dasharray: 2.96,1.28; stroke-dashoffset: 0; stroke: #b0b0b0; stroke-opacity: 0.6; stroke-width: 0.8"/>
     </g>
     <g id="line2d_6">
      <g>
       <use xlink:href="#m731b73f9cd" x="269.293075" y="313.916875" style="stroke: #000000; stroke-width: 0.8"/>
      </g>
     </g>
     <g id="text_3">
      <!-- 20 -->
      <g transform="translate(262.930575 328.515312) scale(0.1 -0.1)">
       <defs>
        <path id="DejaVuSerif-32" d="M 819 3553 
L 469 3553 
L 469 4384 
Q 803 4563 1142 4656 
Q 1481 4750 1806 4750 
Q 2534 4750 2956 4397 
Q 3378 4044 3378 3438 
Q 3378 2753 2422 1800 
Q 2347 1728 2309 1691 
L 1131 513 
L 3078 513 
L 3078 1088 
L 3444 1088 
L 3444 0 
L 434 0 
L 434 341 
L 1850 1753 
Q 2319 2222 2519 2614 
Q 2719 3006 2719 3438 
Q 2719 3909 2473 4175 
Q 2228 4441 1797 4441 
Q 1350 4441 1106 4219 
Q 863 3997 819 3553 
z
" transform="scale(0.015625)"/>
       </defs>
       <use xlink:href="#DejaVuSerif-32"/>
       <use xlink:href="#DejaVuSerif-30" transform="translate(63.623047 0)"/>
      </g>
     </g>
    </g>
    <g id="xtick_4">
     <g id="line2d_7">
      <path d="M 368.704825 313.916875 
L 368.704825 22.318125 
" clip-path="url(#pac9c80b812)" style="fill: none; stroke-dasharray: 2.96,1.28; stroke-dashoffset: 0; stroke: #b0b0b0; stroke-opacity: 0.6; stroke-width: 0.8"/>
     </g>
     <g id="line2d_8">
      <g>
       <use xlink:href="#m731b73f9cd" x="368.704825" y="313.916875" style="stroke: #000000; stroke-width: 0.8"/>
      </g>
     </g>
     <g id="text_4">
      <!-- 30 -->
      <g transform="translate(362.342325 328.515312) scale(0.1 -0.1)">
       <defs>
        <path id="DejaVuSerif-33" d="M 622 4469 
Q 988 4606 1323 4678 
Q 1659 4750 1953 4750 
Q 2638 4750 3022 4454 
Q 3406 4159 3406 3634 
Q 3406 3213 3140 2930 
Q 2875 2647 2388 2547 
Q 2963 2466 3280 2130 
Q 3597 1794 3597 1259 
Q 3597 606 3158 257 
Q 2719 -91 1894 -91 
Q 1528 -91 1179 -12 
Q 831 66 488 225 
L 488 1131 
L 838 1131 
Q 869 681 1141 450 
Q 1413 219 1906 219 
Q 2384 219 2661 495 
Q 2938 772 2938 1253 
Q 2938 1803 2653 2086 
Q 2369 2369 1819 2369 
L 1522 2369 
L 1522 2688 
L 1678 2688 
Q 2225 2688 2498 2914 
Q 2772 3141 2772 3597 
Q 2772 4006 2547 4223 
Q 2322 4441 1900 4441 
Q 1478 4441 1245 4241 
Q 1013 4041 972 3647 
L 622 3647 
L 622 4469 
z
" transform="scale(0.015625)"/>
       </defs>
       <use xlink:href="#DejaVuSerif-33"/>
       <use xlink:href="#DejaVuSerif-30" transform="translate(63.623047 0)"/>
      </g>
     </g>
    </g>
    <g id="xtick_5">
     <g id="line2d_9">
      <path d="M 468.116576 313.916875 
L 468.116576 22.318125 
" clip-path="url(#pac9c80b812)" style="fill: none; stroke-dasharray: 2.96,1.28; stroke-dashoffset: 0; stroke: #b0b0b0; stroke-opacity: 0.6; stroke-width: 0.8"/>
     </g>
     <g id="line2d_10">
      <g>
       <use xlink:href="#m731b73f9cd" x="468.116576" y="313.916875" style="stroke: #000000; stroke-width: 0.8"/>
      </g>
     </g>
     <g id="text_5">
      <!-- 40 -->
      <g transform="translate(461.754076 328.515312) scale(0.1 -0.1)">
       <defs>
        <path id="DejaVuSerif-34" d="M 2234 1581 
L 2234 4063 
L 641 1581 
L 2234 1581 
z
M 3609 0 
L 1484 0 
L 1484 331 
L 2234 331 
L 2234 1247 
L 197 1247 
L 197 1588 
L 2241 4750 
L 2859 4750 
L 2859 1581 
L 3750 1581 
L 3750 1247 
L 2859 1247 
L 2859 331 
L 3609 331 
L 3609 0 
z
" transform="scale(0.015625)"/>
       </defs>
       <use xlink:href="#DejaVuSerif-34"/>
       <use xlink:href="#DejaVuSerif-30" transform="translate(63.623047 0)"/>
      </g>
     </g>
    </g>
    <g id="text_6">
     <!-- Time step (t) -->
     <g transform="translate(271.627812 342.193437) scale(0.1 -0.1)">
      <defs>
       <path id="DejaVuSerif-54" d="M 1222 0 
L 1222 331 
L 1819 331 
L 1819 4294 
L 447 4294 
L 447 3566 
L 63 3566 
L 63 4666 
L 4206 4666 
L 4206 3566 
L 3822 3566 
L 3822 4294 
L 2450 4294 
L 2450 331 
L 3047 331 
L 3047 0 
L 1222 0 
z
" transform="scale(0.015625)"/>
       <path id="DejaVuSerif-69" d="M 622 4353 
Q 622 4497 726 4603 
Q 831 4709 978 4709 
Q 1122 4709 1226 4603 
Q 1331 4497 1331 4353 
Q 1331 4206 1228 4103 
Q 1125 4000 978 4000 
Q 831 4000 726 4103 
Q 622 4206 622 4353 
z
M 1356 331 
L 1900 331 
L 1900 0 
L 231 0 
L 231 331 
L 781 331 
L 781 2988 
L 231 2988 
L 231 3322 
L 1356 3322 
L 1356 331 
z
" transform="scale(0.015625)"/>
       <path id="DejaVuSerif-6d" d="M 3316 2675 
Q 3481 3041 3739 3227 
Q 3997 3413 4341 3413 
Q 4863 3413 5119 3089 
Q 5375 2766 5375 2113 
L 5375 331 
L 5894 331 
L 5894 0 
L 4300 0 
L 4300 331 
L 4800 331 
L 4800 2047 
Q 4800 2556 4650 2772 
Q 4500 2988 4153 2988 
Q 3769 2988 3567 2697 
Q 3366 2406 3366 1850 
L 3366 331 
L 3866 331 
L 3866 0 
L 2291 0 
L 2291 331 
L 2791 331 
L 2791 2069 
Q 2791 2566 2641 2777 
Q 2491 2988 2144 2988 
Q 1759 2988 1557 2697 
Q 1356 2406 1356 1850 
L 1356 331 
L 1856 331 
L 1856 0 
L 263 0 
L 263 331 
L 781 331 
L 781 2994 
L 231 2994 
L 231 3322 
L 1356 3322 
L 1356 2731 
Q 1516 3063 1762 3238 
Q 2009 3413 2322 3413 
Q 2709 3413 2968 3220 
Q 3228 3028 3316 2675 
z
" transform="scale(0.015625)"/>
       <path id="DejaVuSerif-65" d="M 3469 1600 
L 991 1600 
L 991 1575 
Q 991 903 1244 561 
Q 1497 219 1991 219 
Q 2369 219 2611 417 
Q 2853 616 2950 1006 
L 3413 1006 
Q 3275 459 2904 184 
Q 2534 -91 1931 -91 
Q 1203 -91 761 389 
Q 319 869 319 1663 
Q 319 2450 753 2931 
Q 1188 3413 1894 3413 
Q 2647 3413 3050 2948 
Q 3453 2484 3469 1600 
z
M 2791 1931 
Q 2772 2513 2545 2808 
Q 2319 3103 1894 3103 
Q 1497 3103 1269 2806 
Q 1041 2509 991 1931 
L 2791 1931 
z
" transform="scale(0.015625)"/>
       <path id="DejaVuSerif-20" transform="scale(0.015625)"/>
       <path id="DejaVuSerif-73" d="M 359 184 
L 359 959 
L 691 959 
Q 703 588 923 403 
Q 1144 219 1575 219 
Q 1963 219 2166 364 
Q 2369 509 2369 788 
Q 2369 1006 2220 1140 
Q 2072 1275 1594 1428 
L 1178 1569 
Q 750 1706 558 1912 
Q 366 2119 366 2438 
Q 366 2894 700 3153 
Q 1034 3413 1625 3413 
Q 1888 3413 2178 3344 
Q 2469 3275 2778 3144 
L 2778 2419 
L 2447 2419 
Q 2434 2741 2221 2922 
Q 2009 3103 1644 3103 
Q 1281 3103 1095 2975 
Q 909 2847 909 2591 
Q 909 2381 1050 2254 
Q 1191 2128 1613 1997 
L 2069 1856 
Q 2541 1709 2748 1489 
Q 2956 1269 2956 922 
Q 2956 450 2595 179 
Q 2234 -91 1600 -91 
Q 1278 -91 972 -22 
Q 666 47 359 184 
z
" transform="scale(0.015625)"/>
       <path id="DejaVuSerif-74" d="M 691 2988 
L 184 2988 
L 184 3322 
L 691 3322 
L 691 4353 
L 1269 4353 
L 1269 3322 
L 2350 3322 
L 2350 2988 
L 1269 2988 
L 1269 878 
Q 1269 456 1350 337 
Q 1431 219 1650 219 
Q 1875 219 1978 351 
Q 2081 484 2088 781 
L 2522 781 
Q 2497 328 2275 118 
Q 2053 -91 1600 -91 
Q 1103 -91 897 129 
Q 691 350 691 878 
L 691 2988 
z
" transform="scale(0.015625)"/>
       <path id="DejaVuSerif-70" d="M 1313 1825 
L 1313 1497 
Q 1313 897 1542 583 
Q 1772 269 2209 269 
Q 2650 269 2876 622 
Q 3103 975 3103 1663 
Q 3103 2353 2876 2703 
Q 2650 3053 2209 3053 
Q 1772 3053 1542 2737 
Q 1313 2422 1313 1825 
z
M 738 2988 
L 184 2988 
L 184 3322 
L 1313 3322 
L 1313 2803 
Q 1481 3116 1742 3264 
Q 2003 3413 2388 3413 
Q 3000 3413 3387 2928 
Q 3775 2444 3775 1663 
Q 3775 881 3387 395 
Q 3000 -91 2388 -91 
Q 2003 -91 1742 57 
Q 1481 206 1313 519 
L 1313 -997 
L 1856 -997 
L 1856 -1331 
L 184 -1331 
L 184 -997 
L 738 -997 
L 738 2988 
z
" transform="scale(0.015625)"/>
       <path id="DejaVuSerif-28" d="M 2041 -997 
Q 1281 -656 893 83 
Q 506 822 506 1931 
Q 506 3044 893 3783 
Q 1281 4522 2041 4863 
L 2041 4556 
Q 1559 4225 1350 3623 
Q 1141 3022 1141 1931 
Q 1141 844 1350 242 
Q 1559 -359 2041 -691 
L 2041 -997 
z
" transform="scale(0.015625)"/>
       <path id="DejaVuSerif-29" d="M 453 -997 
L 453 -691 
Q 934 -359 1145 242 
Q 1356 844 1356 1931 
Q 1356 3022 1145 3623 
Q 934 4225 453 4556 
L 453 4863 
Q 1216 4522 1603 3783 
Q 1991 3044 1991 1931 
Q 1991 822 1603 83 
Q 1216 -656 453 -997 
z
" transform="scale(0.015625)"/>
      </defs>
      <use xlink:href="#DejaVuSerif-54"/>
      <use xlink:href="#DejaVuSerif-69" transform="translate(66.699219 0)"/>
      <use xlink:href="#DejaVuSerif-6d" transform="translate(98.681641 0)"/>
      <use xlink:href="#DejaVuSerif-65" transform="translate(193.505859 0)"/>
      <use xlink:href="#DejaVuSerif-20" transform="translate(252.685547 0)"/>
      <use xlink:href="#DejaVuSerif-73" transform="translate(284.472656 0)"/>
      <use xlink:href="#DejaVuSerif-74" transform="translate(335.791016 0)"/>
      <use xlink:href="#DejaVuSerif-65" transform="translate(375.976562 0)"/>
      <use xlink:href="#DejaVuSerif-70" transform="translate(435.15625 0)"/>
      <use xlink:href="#DejaVuSerif-20" transform="translate(499.169922 0)"/>
      <use xlink:href="#DejaVuSerif-28" transform="translate(530.957031 0)"/>
      <use xlink:href="#DejaVuSerif-74" transform="translate(569.970703 0)"/>
      <use xlink:href="#DejaVuSerif-29" transform="translate(610.15625 0)"/>
     </g>
    </g>
   </g>
   <g id="matplotlib.axis_2">
    <g id="ytick_1">
     <g id="line2d_11">
      <path d="M 47.107813 304.475998 
L 561.066562 304.475998 
" clip-path="url(#pac9c80b812)" style="fill: none; stroke-dasharray: 2.96,1.28; stroke-dashoffset: 0; stroke: #b0b0b0; stroke-opacity: 0.6; stroke-width: 0.8"/>
     </g>
     <g id="line2d_12">
      <defs>
       <path id="m07ae47afe9" d="M 0 0 
L -3.5 0 
" style="stroke: #000000; stroke-width: 0.8"/>
      </defs>
      <g>
       <use xlink:href="#m07ae47afe9" x="47.107813" y="304.475998" style="stroke: #000000; stroke-width: 0.8"/>
      </g>
     </g>
     <g id="text_7">
      <!-- 0 -->
      <g transform="translate(33.745313 308.275217) scale(0.1 -0.1)">
       <use xlink:href="#DejaVuSerif-30"/>
      </g>
     </g>
    </g>
    <g id="ytick_2">
     <g id="line2d_13">
      <path d="M 47.107813 266.408984 
L 561.066562 266.408984 
" clip-path="url(#pac9c80b812)" style="fill: none; stroke-dasharray: 2.96,1.28; stroke-dashoffset: 0; stroke: #b0b0b0; stroke-opacity: 0.6; stroke-width: 0.8"/>
     </g>
     <g id="line2d_14">
      <g>
       <use xlink:href="#m07ae47afe9" x="47.107813" y="266.408984" style="stroke: #000000; stroke-width: 0.8"/>
      </g>
     </g>
     <g id="text_8">
      <!-- 20 -->
      <g transform="translate(27.382813 270.208202) scale(0.1 -0.1)">
       <use xlink:href="#DejaVuSerif-32"/>
       <use xlink:href="#DejaVuSerif-30" transform="translate(63.623047 0)"/>
      </g>
     </g>
    </g>
    <g id="ytick_3">
     <g id="line2d_15">
      <path d="M 47.107813 228.34197 
L 561.066562 228.34197 
" clip-path="url(#pac9c80b812)" style="fill: none; stroke-dasharray: 2.96,1.28; stroke-dashoffset: 0; stroke: #b0b0b0; stroke-opacity: 0.6; stroke-width: 0.8"/>
     </g>
     <g id="line2d_16">
      <g>
       <use xlink:href="#m07ae47afe9" x="47.107813" y="228.34197" style="stroke: #000000; stroke-width: 0.8"/>
      </g>
     </g>
     <g id="text_9">
      <!-- 40 -->
      <g transform="translate(27.382813 232.141188) scale(0.1 -0.1)">
       <use xlink:href="#DejaVuSerif-34"/>
       <use xlink:href="#DejaVuSerif-30" transform="translate(63.623047 0)"/>
      </g>
     </g>
    </g>
    <g id="ytick_4">
     <g id="line2d_17">
      <path d="M 47.107813 190.274956 
L 561.066562 190.274956 
" clip-path="url(#pac9c80b812)" style="fill: none; stroke-dasharray: 2.96,1.28; stroke-dashoffset: 0; stroke: #b0b0b0; stroke-opacity: 0.6; stroke-width: 0.8"/>
     </g>
     <g id="line2d_18">
      <g>
       <use xlink:href="#m07ae47afe9" x="47.107813" y="190.274956" style="stroke: #000000; stroke-width: 0.8"/>
      </g>
     </g>
     <g id="text_10">
      <!-- 60 -->
      <g transform="translate(27.382813 194.074174) scale(0.1 -0.1)">
       <defs>
        <path id="DejaVuSerif-36" d="M 2094 219 
Q 2534 219 2771 542 
Q 3009 866 3009 1472 
Q 3009 2078 2771 2401 
Q 2534 2725 2094 2725 
Q 1647 2725 1412 2412 
Q 1178 2100 1178 1509 
Q 1178 888 1415 553 
Q 1653 219 2094 219 
z
M 1075 2569 
Q 1288 2803 1556 2918 
Q 1825 3034 2163 3034 
Q 2859 3034 3264 2615 
Q 3669 2197 3669 1472 
Q 3669 763 3233 336 
Q 2797 -91 2069 -91 
Q 1278 -91 853 498 
Q 428 1088 428 2181 
Q 428 3406 931 4078 
Q 1434 4750 2350 4750 
Q 2597 4750 2869 4703 
Q 3141 4656 3425 4563 
L 3425 3794 
L 3072 3794 
Q 3034 4109 2831 4275 
Q 2628 4441 2284 4441 
Q 1678 4441 1381 3981 
Q 1084 3522 1075 2569 
z
" transform="scale(0.015625)"/>
       </defs>
       <use xlink:href="#DejaVuSerif-36"/>
       <use xlink:href="#DejaVuSerif-30" transform="translate(63.623047 0)"/>
      </g>
     </g>
    </g>
    <g id="ytick_5">
     <g id="line2d_19">
      <path d="M 47.107813 152.207942 
L 561.066562 152.207942 
" clip-path="url(#pac9c80b812)" style="fill: none; stroke-dasharray: 2.96,1.28; stroke-dashoffset: 0; stroke: #b0b0b0; stroke-opacity: 0.6; stroke-width: 0.8"/>
     </g>
     <g id="line2d_20">
      <g>
       <use xlink:href="#m07ae47afe9" x="47.107813" y="152.207942" style="stroke: #000000; stroke-width: 0.8"/>
      </g>
     </g>
     <g id="text_11">
      <!-- 80 -->
      <g transform="translate(27.382813 156.00716) scale(0.1 -0.1)">
       <defs>
        <path id="DejaVuSerif-38" d="M 2981 1275 
Q 2981 1775 2732 2051 
Q 2484 2328 2034 2328 
Q 1584 2328 1336 2051 
Q 1088 1775 1088 1275 
Q 1088 772 1336 495 
Q 1584 219 2034 219 
Q 2484 219 2732 495 
Q 2981 772 2981 1275 
z
M 2853 3541 
Q 2853 3966 2637 4203 
Q 2422 4441 2034 4441 
Q 1650 4441 1433 4203 
Q 1216 3966 1216 3541 
Q 1216 3113 1433 2875 
Q 1650 2638 2034 2638 
Q 2422 2638 2637 2875 
Q 2853 3113 2853 3541 
z
M 2516 2484 
Q 3047 2413 3344 2092 
Q 3641 1772 3641 1275 
Q 3641 619 3225 264 
Q 2809 -91 2034 -91 
Q 1263 -91 845 264 
Q 428 619 428 1275 
Q 428 1772 725 2092 
Q 1022 2413 1556 2484 
Q 1084 2569 832 2842 
Q 581 3116 581 3541 
Q 581 4103 968 4426 
Q 1356 4750 2034 4750 
Q 2713 4750 3100 4426 
Q 3488 4103 3488 3541 
Q 3488 3116 3236 2842 
Q 2984 2569 2516 2484 
z
" transform="scale(0.015625)"/>
       </defs>
       <use xlink:href="#DejaVuSerif-38"/>
       <use xlink:href="#DejaVuSerif-30" transform="translate(63.623047 0)"/>
      </g>
     </g>
    </g>
    <g id="ytick_6">
     <g id="line2d_21">
      <path d="M 47.107813 114.140928 
L 561.066562 114.140928 
" clip-path="url(#pac9c80b812)" style="fill: none; stroke-dasharray: 2.96,1.28; stroke-dashoffset: 0; stroke: #b0b0b0; stroke-opacity: 0.6; stroke-width: 0.8"/>
     </g>
     <g id="line2d_22">
      <g>
       <use xlink:href="#m07ae47afe9" x="47.107813" y="114.140928" style="stroke: #000000; stroke-width: 0.8"/>
      </g>
     </g>
     <g id="text_12">
      <!-- 100 -->
      <g transform="translate(21.020313 117.940146) scale(0.1 -0.1)">
       <use xlink:href="#DejaVuSerif-31"/>
       <use xlink:href="#DejaVuSerif-30" transform="translate(63.623047 0)"/>
       <use xlink:href="#DejaVuSerif-30" transform="translate(127.246094 0)"/>
      </g>
     </g>
    </g>
    <g id="ytick_7">
     <g id="line2d_23">
      <path d="M 47.107813 76.073914 
L 561.066562 76.073914 
" clip-path="url(#pac9c80b812)" style="fill: none; stroke-dasharray: 2.96,1.28; stroke-dashoffset: 0; stroke: #b0b0b0; stroke-opacity: 0.6; stroke-width: 0.8"/>
     </g>
     <g id="line2d_24">
      <g>
       <use xlink:href="#m07ae47afe9" x="47.107813" y="76.073914" style="stroke: #000000; stroke-width: 0.8"/>
      </g>
     </g>
     <g id="text_13">
      <!-- 120 -->
      <g transform="translate(21.020313 79.873132) scale(0.1 -0.1)">
       <use xlink:href="#DejaVuSerif-31"/>
       <use xlink:href="#DejaVuSerif-32" transform="translate(63.623047 0)"/>
       <use xlink:href="#DejaVuSerif-30" transform="translate(127.246094 0)"/>
      </g>
     </g>
    </g>
    <g id="ytick_8">
     <g id="line2d_25">
      <path d="M 47.107813 38.0069 
L 561.066562 38.0069 
" clip-path="url(#pac9c80b812)" style="fill: none; stroke-dasharray: 2.96,1.28; stroke-dashoffset: 0; stroke: #b0b0b0; stroke-opacity: 0.6; stroke-width: 0.8"/>
     </g>
     <g id="line2d_26">
      <g>
       <use xlink:href="#m07ae47afe9" x="47.107813" y="38.0069" style="stroke: #000000; stroke-width: 0.8"/>
      </g>
     </g>
     <g id="text_14">
      <!-- 140 -->
      <g transform="translate(21.020313 41.806118) scale(0.1 -0.1)">
       <use xlink:href="#DejaVuSerif-31"/>
       <use xlink:href="#DejaVuSerif-34" transform="translate(63.623047 0)"/>
       <use xlink:href="#DejaVuSerif-30" transform="translate(127.246094 0)"/>
      </g>
     </g>
    </g>
    <g id="text_15">
     <!-- Key Rate Demand (kb/sec) -->
     <g transform="translate(14.798438 235.353437) rotate(-90) scale(0.1 -0.1)">
      <defs>
       <path id="DejaVuSerif-4b" d="M 353 0 
L 353 331 
L 947 331 
L 947 4331 
L 353 4331 
L 353 4666 
L 2175 4666 
L 2175 4331 
L 1581 4331 
L 1581 2566 
L 3591 4331 
L 3084 4331 
L 3084 4666 
L 4634 4666 
L 4634 4331 
L 4109 4331 
L 2106 2572 
L 4347 331 
L 4878 331 
L 4878 0 
L 3794 0 
L 1581 2216 
L 1581 331 
L 2175 331 
L 2175 0 
L 353 0 
z
" transform="scale(0.015625)"/>
       <path id="DejaVuSerif-79" d="M 1381 -609 
L 1600 -56 
L 359 2988 
L -19 2988 
L -19 3322 
L 1509 3322 
L 1509 2988 
L 978 2988 
L 1913 703 
L 2847 2988 
L 2350 2988 
L 2350 3322 
L 3597 3322 
L 3597 2988 
L 3225 2988 
L 1703 -750 
Q 1547 -1138 1356 -1280 
Q 1166 -1422 819 -1422 
Q 672 -1422 517 -1397 
Q 363 -1372 206 -1325 
L 206 -691 
L 500 -691 
Q 519 -903 608 -995 
Q 697 -1088 884 -1088 
Q 1056 -1088 1161 -992 
Q 1266 -897 1381 -609 
z
" transform="scale(0.015625)"/>
       <path id="DejaVuSerif-52" d="M 3066 2316 
Q 3284 2256 3442 2114 
Q 3600 1972 3725 1716 
L 4403 331 
L 4972 331 
L 4972 0 
L 3872 0 
L 3144 1484 
Q 2934 1916 2759 2042 
Q 2584 2169 2278 2169 
L 1581 2169 
L 1581 331 
L 2241 331 
L 2241 0 
L 353 0 
L 353 331 
L 947 331 
L 947 4331 
L 353 4331 
L 353 4666 
L 2719 4666 
Q 3400 4666 3770 4341 
Q 4141 4016 4141 3419 
Q 4141 2938 3870 2661 
Q 3600 2384 3066 2316 
z
M 1581 2503 
L 2503 2503 
Q 2975 2503 3200 2726 
Q 3425 2950 3425 3419 
Q 3425 3888 3200 4109 
Q 2975 4331 2503 4331 
L 1581 4331 
L 1581 2503 
z
" transform="scale(0.015625)"/>
       <path id="DejaVuSerif-61" d="M 2547 1044 
L 2547 1747 
L 1806 1747 
Q 1378 1747 1168 1562 
Q 959 1378 959 997 
Q 959 650 1171 447 
Q 1384 244 1747 244 
Q 2106 244 2326 466 
Q 2547 688 2547 1044 
z
M 3122 2075 
L 3122 331 
L 3634 331 
L 3634 0 
L 2547 0 
L 2547 359 
Q 2356 128 2106 18 
Q 1856 -91 1522 -91 
Q 969 -91 644 203 
Q 319 497 319 997 
Q 319 1513 691 1797 
Q 1063 2081 1741 2081 
L 2547 2081 
L 2547 2309 
Q 2547 2688 2317 2895 
Q 2088 3103 1672 3103 
Q 1328 3103 1125 2947 
Q 922 2791 872 2484 
L 575 2484 
L 575 3156 
Q 875 3284 1158 3348 
Q 1441 3413 1709 3413 
Q 2400 3413 2761 3070 
Q 3122 2728 3122 2075 
z
" transform="scale(0.015625)"/>
       <path id="DejaVuSerif-44" d="M 1581 331 
L 2163 331 
Q 3072 331 3558 850 
Q 4044 1369 4044 2338 
Q 4044 3306 3559 3818 
Q 3075 4331 2163 4331 
L 1581 4331 
L 1581 331 
z
M 353 0 
L 353 331 
L 947 331 
L 947 4331 
L 353 4331 
L 353 4666 
L 2209 4666 
Q 3416 4666 4089 4050 
Q 4763 3434 4763 2338 
Q 4763 1238 4088 619 
Q 3413 0 2209 0 
L 353 0 
z
" transform="scale(0.015625)"/>
       <path id="DejaVuSerif-6e" d="M 263 0 
L 263 331 
L 781 331 
L 781 2988 
L 231 2988 
L 231 3322 
L 1356 3322 
L 1356 2731 
Q 1516 3069 1770 3241 
Q 2025 3413 2363 3413 
Q 2913 3413 3172 3097 
Q 3431 2781 3431 2113 
L 3431 331 
L 3944 331 
L 3944 0 
L 2356 0 
L 2356 331 
L 2853 331 
L 2853 1931 
Q 2853 2541 2703 2767 
Q 2553 2994 2175 2994 
Q 1775 2994 1565 2701 
Q 1356 2409 1356 1850 
L 1356 331 
L 1856 331 
L 1856 0 
L 263 0 
z
" transform="scale(0.015625)"/>
       <path id="DejaVuSerif-64" d="M 3359 331 
L 3909 331 
L 3909 0 
L 2784 0 
L 2784 519 
Q 2616 206 2355 57 
Q 2094 -91 1709 -91 
Q 1097 -91 708 395 
Q 319 881 319 1663 
Q 319 2444 706 2928 
Q 1094 3413 1709 3413 
Q 2094 3413 2355 3264 
Q 2616 3116 2784 2803 
L 2784 4531 
L 2241 4531 
L 2241 4863 
L 3359 4863 
L 3359 331 
z
M 2784 1497 
L 2784 1825 
Q 2784 2422 2554 2737 
Q 2325 3053 1888 3053 
Q 1444 3053 1217 2703 
Q 991 2353 991 1663 
Q 991 975 1217 622 
Q 1444 269 1888 269 
Q 2325 269 2554 583 
Q 2784 897 2784 1497 
z
" transform="scale(0.015625)"/>
       <path id="DejaVuSerif-6b" d="M 1831 0 
L 219 0 
L 219 331 
L 738 331 
L 738 4531 
L 184 4531 
L 184 4863 
L 1313 4863 
L 1313 1697 
L 2713 2988 
L 2234 2988 
L 2234 3322 
L 3738 3322 
L 3738 2988 
L 3169 2988 
L 2181 2075 
L 3444 331 
L 3922 331 
L 3922 0 
L 2284 0 
L 2284 331 
L 2759 331 
L 1766 1697 
L 1313 1275 
L 1313 331 
L 1831 331 
L 1831 0 
z
" transform="scale(0.015625)"/>
       <path id="DejaVuSerif-62" d="M 738 331 
L 738 4531 
L 184 4531 
L 184 4863 
L 1313 4863 
L 1313 2803 
Q 1481 3116 1742 3264 
Q 2003 3413 2388 3413 
Q 3000 3413 3387 2928 
Q 3775 2444 3775 1663 
Q 3775 881 3387 395 
Q 3000 -91 2388 -91 
Q 2003 -91 1742 57 
Q 1481 206 1313 519 
L 1313 0 
L 184 0 
L 184 331 
L 738 331 
z
M 1313 1497 
Q 1313 897 1542 583 
Q 1772 269 2209 269 
Q 2650 269 2876 622 
Q 3103 975 3103 1663 
Q 3103 2353 2876 2703 
Q 2650 3053 2209 3053 
Q 1772 3053 1542 2737 
Q 1313 2422 1313 1825 
L 1313 1497 
z
" transform="scale(0.015625)"/>
       <path id="DejaVuSerif-2f" d="M 1656 4666 
L 2156 4666 
L 500 -594 
L 0 -594 
L 1656 4666 
z
" transform="scale(0.015625)"/>
       <path id="DejaVuSerif-63" d="M 3291 997 
Q 3169 466 2822 187 
Q 2475 -91 1925 -91 
Q 1200 -91 759 389 
Q 319 869 319 1663 
Q 319 2459 759 2936 
Q 1200 3413 1925 3413 
Q 2241 3413 2553 3339 
Q 2866 3266 3181 3116 
L 3181 2266 
L 2847 2266 
Q 2781 2703 2561 2903 
Q 2341 3103 1931 3103 
Q 1466 3103 1228 2742 
Q 991 2381 991 1663 
Q 991 944 1227 581 
Q 1463 219 1931 219 
Q 2303 219 2525 412 
Q 2747 606 2828 997 
L 3291 997 
z
" transform="scale(0.015625)"/>
      </defs>
      <use xlink:href="#DejaVuSerif-4b"/>
      <use xlink:href="#DejaVuSerif-65" transform="translate(72.082031 0)"/>
      <use xlink:href="#DejaVuSerif-79" transform="translate(131.261719 0)"/>
      <use xlink:href="#DejaVuSerif-20" transform="translate(187.755859 0)"/>
      <use xlink:href="#DejaVuSerif-52" transform="translate(219.542969 0)"/>
      <use xlink:href="#DejaVuSerif-61" transform="translate(297.085938 0)"/>
      <use xlink:href="#DejaVuSerif-74" transform="translate(356.705078 0)"/>
      <use xlink:href="#DejaVuSerif-65" transform="translate(396.890625 0)"/>
      <use xlink:href="#DejaVuSerif-20" transform="translate(456.070312 0)"/>
      <use xlink:href="#DejaVuSerif-44" transform="translate(487.857422 0)"/>
      <use xlink:href="#DejaVuSerif-65" transform="translate(568.033203 0)"/>
      <use xlink:href="#DejaVuSerif-6d" transform="translate(627.212891 0)"/>
      <use xlink:href="#DejaVuSerif-61" transform="translate(722.037109 0)"/>
      <use xlink:href="#DejaVuSerif-6e" transform="translate(781.65625 0)"/>
      <use xlink:href="#DejaVuSerif-64" transform="translate(846.060547 0)"/>
      <use xlink:href="#DejaVuSerif-20" transform="translate(910.074219 0)"/>
      <use xlink:href="#DejaVuSerif-28" transform="translate(941.861328 0)"/>
      <use xlink:href="#DejaVuSerif-6b" transform="translate(980.875 0)"/>
      <use xlink:href="#DejaVuSerif-62" transform="translate(1041.470703 0)"/>
      <use xlink:href="#DejaVuSerif-2f" transform="translate(1105.484375 0)"/>
      <use xlink:href="#DejaVuSerif-73" transform="translate(1139.175781 0)"/>
      <use xlink:href="#DejaVuSerif-65" transform="translate(1190.494141 0)"/>
      <use xlink:href="#DejaVuSerif-63" transform="translate(1249.673828 0)"/>
      <use xlink:href="#DejaVuSerif-29" transform="translate(1305.679688 0)"/>
     </g>
    </g>
   </g>
   <g id="line2d_27">
    <path d="M 70.469574 196.565341 
L 80.410749 157.05738 
L 90.351924 164.676746 
L 100.293099 153.280023 
L 110.234274 147.303082 
L 120.175449 119.247701 
L 130.116624 125.44014 
L 140.057799 97.193961 
L 149.998974 108.214527 
L 159.940149 112.887527 
L 169.881324 65.542907 
L 179.822499 93.361508 
L 189.763674 60.391577 
L 199.704849 35.572614 
L 209.646025 108.153705 
L 219.5872 121.673088 
L 229.528375 104.495569 
L 239.46955 121.271783 
L 249.410725 141.597339 
L 259.3519 104.022591 
L 269.293075 119.806796 
L 279.23425 151.913503 
L 289.175425 151.70499 
L 299.1166 173.311892 
L 309.057775 180.678992 
L 318.99895 205.429091 
L 328.940125 215.821792 
L 338.8813 224.904088 
L 348.822475 246.218273 
L 358.76365 249.253379 
L 368.704825 259.376758 
L 378.646 274.77438 
L 388.587175 276.373967 
L 398.52835 287.706175 
L 408.469526 288.372667 
L 418.410701 292.771902 
L 428.351876 292.751092 
L 438.293051 291.849271 
L 448.234226 286.711492 
L 458.175401 282.814389 
L 468.116576 277.38328 
L 478.057751 273.760514 
L 487.998926 269.938383 
L 497.940101 240.88377 
L 507.881276 243.734007 
L 517.822451 224.753793 
L 527.763626 212.451554 
L 537.704801 196.988156 
" clip-path="url(#pac9c80b812)" style="fill: none; stroke: #1f77b4; stroke-width: 1.6; stroke-linecap: square"/>
   </g>
   <g id="line2d_28">
    <path d="M 70.469574 228.67137 
L 80.410749 215.28726 
L 90.351924 215.041062 
L 100.293099 210.73455 
L 110.234274 190.512956 
L 120.175449 192.394829 
L 130.116624 180.688172 
L 140.057799 184.462182 
L 149.998974 159.683574 
L 159.940149 135.533829 
L 169.881324 184.824976 
L 179.822499 163.332075 
L 189.763674 161.175818 
L 199.704849 163.96673 
L 209.646025 163.117964 
L 219.5872 156.300101 
L 229.528375 159.165574 
L 239.46955 177.014758 
L 249.410725 200.118066 
L 259.3519 173.838222 
L 269.293075 186.723423 
L 279.23425 205.437695 
L 289.175425 221.41387 
L 299.1166 225.204988 
L 309.057775 227.526477 
L 318.99895 232.61211 
L 328.940125 245.689747 
L 338.8813 244.317327 
L 348.822475 256.045705 
L 358.76365 262.488024 
L 368.704825 274.064485 
L 378.646 283.076123 
L 388.587175 288.776898 
L 398.52835 290.752716 
L 408.469526 292.224638 
L 418.410701 295.916732 
L 428.351876 295.801847 
L 438.293051 295.822481 
L 448.234226 294.300994 
L 458.175401 291.767211 
L 468.116576 291.318135 
L 478.057751 283.861822 
L 487.998926 276.375992 
L 497.940101 266.182753 
L 507.881276 256.091988 
L 517.822451 245.300596 
L 527.763626 243.051267 
L 537.704801 242.33083 
" clip-path="url(#pac9c80b812)" style="fill: none; stroke: #ff7f0e; stroke-width: 1.6; stroke-linecap: square"/>
   </g>
   <g id="line2d_29">
    <path d="M 70.469574 194.555964 
L 80.410749 182.150225 
L 90.351924 191.743793 
L 100.293099 154.051357 
L 110.234274 125.233413 
L 120.175449 147.004397 
L 130.116624 122.869878 
L 140.057799 143.346037 
L 149.998974 127.148068 
L 159.940149 116.356531 
L 169.881324 102.691684 
L 179.822499 107.521526 
L 189.763674 91.416087 
L 199.704849 91.154243 
L 209.646025 72.499955 
L 219.5872 68.985749 
L 229.528375 95.508219 
L 239.46955 145.137027 
L 249.410725 121.933628 
L 259.3519 126.483484 
L 269.293075 168.61836 
L 279.23425 166.821078 
L 289.175425 173.053036 
L 299.1166 165.760289 
L 309.057775 185.856535 
L 318.99895 204.676164 
L 328.940125 233.926757 
L 338.8813 226.828313 
L 348.822475 242.28999 
L 358.76365 263.287696 
L 368.704825 265.901036 
L 378.646 277.387733 
L 388.587175 280.446143 
L 398.52835 284.236301 
L 408.469526 290.293867 
L 418.410701 293.226615 
L 428.351876 292.997335 
L 438.293051 292.513567 
L 448.234226 289.431409 
L 458.175401 286.773086 
L 468.116576 278.441884 
L 478.057751 270.279162 
L 487.998926 260.799025 
L 497.940101 251.978092 
L 507.881276 257.434541 
L 517.822451 224.784502 
L 527.763626 218.881802 
L 537.704801 220.918644 
" clip-path="url(#pac9c80b812)" style="fill: none; stroke: #2ca02c; stroke-width: 1.6; stroke-linecap: square"/>
   </g>
   <g id="line2d_30">
    <path d="M 70.469574 208.626315 
L 80.410749 203.330174 
L 90.351924 183.4356 
L 100.293099 166.58728 
L 110.234274 199.08441 
L 120.175449 156.793 
L 130.116624 167.793169 
L 140.057799 152.529918 
L 149.998974 144.901931 
L 159.940149 153.335336 
L 169.881324 157.140307 
L 179.822499 127.425207 
L 189.763674 141.355341 
L 199.704849 149.64901 
L 209.646025 145.331469 
L 219.5872 143.273097 
L 229.528375 160.166876 
L 239.46955 168.637296 
L 249.410725 142.095979 
L 259.3519 173.297979 
L 269.293075 175.799499 
L 279.23425 174.098335 
L 289.175425 211.951524 
L 299.1166 200.836232 
L 309.057775 218.29282 
L 318.99895 227.54484 
L 328.940125 216.533774 
L 338.8813 244.62102 
L 348.822475 262.534406 
L 358.76365 264.076409 
L 368.704825 265.416194 
L 378.646 279.151386 
L 388.587175 285.365808 
L 398.52835 289.170677 
L 408.469526 291.800221 
L 418.410701 294.394606 
L 428.351876 295.663446 
L 438.293051 293.493605 
L 448.234226 293.785083 
L 458.175401 288.90516 
L 468.116576 287.736079 
L 478.057751 282.987774 
L 487.998926 275.185605 
L 497.940101 269.886894 
L 507.881276 254.469054 
L 517.822451 236.730564 
L 527.763626 242.988719 
L 537.704801 234.305236 
" clip-path="url(#pac9c80b812)" style="fill: none; stroke: #d62728; stroke-width: 1.6; stroke-linecap: square"/>
   </g>
   <g id="line2d_31">
    <path d="M 70.469574 254.190862 
L 80.410749 256.426453 
L 90.351924 243.318394 
L 100.293099 242.313783 
L 110.234274 224.501363 
L 120.175449 243.755758 
L 130.116624 219.63276 
L 140.057799 221.863462 
L 149.998974 224.513708 
L 159.940149 213.252138 
L 169.881324 219.152335 
L 179.822499 216.151662 
L 189.763674 221.262987 
L 199.704849 207.076497 
L 209.646025 220.988284 
L 219.5872 204.75902 
L 229.528375 230.955322 
L 239.46955 234.228109 
L 249.410725 217.778921 
L 259.3519 225.814488 
L 269.293075 226.319673 
L 279.23425 220.193255 
L 289.175425 235.373572 
L 299.1166 259.435489 
L 309.057775 256.794734 
L 318.99895 254.045173 
L 328.940125 271.743712 
L 338.8813 271.015242 
L 348.822475 282.527377 
L 358.76365 278.862188 
L 368.704825 284.335274 
L 378.646 292.276028 
L 388.587175 292.864211 
L 398.52835 295.465586 
L 408.469526 298.205474 
L 418.410701 299.482866 
L 428.351876 300.661472 
L 438.293051 299.329032 
L 448.234226 296.934414 
L 458.175401 296.26925 
L 468.116576 293.915265 
L 478.057751 291.911596 
L 487.998926 286.465119 
L 497.940101 282.101889 
L 507.881276 275.683376 
L 517.822451 278.917948 
L 527.763626 261.388366 
L 537.704801 266.138334 
" clip-path="url(#pac9c80b812)" style="fill: none; stroke: #9467bd; stroke-width: 1.6; stroke-linecap: square"/>
   </g>
   <g id="line2d_32">
    <path d="M 70.469574 230.864173 
L 80.410749 227.890199 
L 90.351924 215.999971 
L 100.293099 215.241346 
L 110.234274 208.03487 
L 120.175449 197.421599 
L 130.116624 182.160663 
L 140.057799 189.71032 
L 149.998974 167.538787 
L 159.940149 178.994319 
L 169.881324 160.39051 
L 179.822499 165.116242 
L 189.763674 188.315344 
L 199.704849 184.815246 
L 209.646025 159.314208 
L 219.5872 170.701332 
L 229.528375 168.811325 
L 239.46955 201.585026 
L 249.410725 177.210989 
L 259.3519 182.485979 
L 269.293075 191.801417 
L 279.23425 206.494684 
L 289.175425 212.190695 
L 299.1166 242.863607 
L 309.057775 235.860592 
L 318.99895 246.22974 
L 328.940125 243.725427 
L 338.8813 258.854068 
L 348.822475 263.571911 
L 358.76365 271.938806 
L 368.704825 278.272774 
L 378.646 285.54378 
L 388.587175 285.175355 
L 398.52835 294.794637 
L 408.469526 295.671155 
L 418.410701 296.570881 
L 428.351876 297.447319 
L 438.293051 296.829369 
L 448.234226 295.040057 
L 458.175401 293.500013 
L 468.116576 289.911368 
L 478.057751 285.546057 
L 487.998926 278.033576 
L 497.940101 273.798621 
L 507.881276 264.887704 
L 517.822451 260.252698 
L 527.763626 250.906854 
L 537.704801 242.118532 
" clip-path="url(#pac9c80b812)" style="fill: none; stroke: #8c564b; stroke-width: 1.6; stroke-linecap: square"/>
   </g>
   <g id="line2d_33">
    <path d="M 70.469574 140.667553 
L 80.410749 144.747906 
L 90.351924 132.826473 
L 100.293099 129.823613 
L 110.234274 111.849591 
L 120.175449 96.643245 
L 130.116624 92.801755 
L 140.057799 86.272553 
L 149.998974 80.166671 
L 159.940149 71.538534 
L 169.881324 96.698509 
L 179.822499 116.858459 
L 189.763674 43.226804 
L 199.704849 36.616647 
L 209.646025 54.444994 
L 219.5872 68.371697 
L 229.528375 68.212017 
L 239.46955 54.99804 
L 249.410725 63.812378 
L 259.3519 140.375355 
L 269.293075 143.732076 
L 279.23425 139.211333 
L 289.175425 160.450427 
L 299.1166 150.168635 
L 309.057775 161.16163 
L 318.99895 202.07148 
L 328.940125 208.401311 
L 338.8813 218.165687 
L 348.822475 232.476048 
L 358.76365 244.486485 
L 368.704825 256.390293 
L 378.646 264.59466 
L 388.587175 271.237302 
L 398.52835 280.941527 
L 408.469526 286.650398 
L 418.410701 289.322832 
L 428.351876 290.889545 
L 438.293051 290.651486 
L 448.234226 290.569569 
L 458.175401 280.129956 
L 468.116576 277.454141 
L 478.057751 263.440457 
L 487.998926 250.900912 
L 497.940101 260.325774 
L 507.881276 221.510532 
L 517.822451 208.909712 
L 527.763626 202.160547 
L 537.704801 193.13128 
" clip-path="url(#pac9c80b812)" style="fill: none; stroke: #e377c2; stroke-width: 1.6; stroke-linecap: square"/>
   </g>
   <g id="line2d_34">
    <path d="M 70.469574 209.468346 
L 80.410749 188.311928 
L 90.351924 189.023757 
L 100.293099 159.521977 
L 110.234274 134.594766 
L 120.175449 150.990915 
L 130.116624 151.068094 
L 140.057799 124.818316 
L 149.998974 128.59446 
L 159.940149 111.739058 
L 169.881324 133.951087 
L 179.822499 141.748667 
L 189.763674 93.984604 
L 199.704849 104.511102 
L 209.646025 123.918403 
L 219.5872 91.993928 
L 229.528375 139.982429 
L 239.46955 132.082909 
L 249.410725 118.403919 
L 259.3519 145.873646 
L 269.293075 157.139728 
L 279.23425 168.317523 
L 289.175425 200.007701 
L 299.1166 183.376546 
L 309.057775 208.627278 
L 318.99895 220.881362 
L 328.940125 220.19788 
L 338.8813 233.054918 
L 348.822475 252.298013 
L 358.76365 261.517795 
L 368.704825 270.996872 
L 378.646 278.124499 
L 388.587175 280.678977 
L 398.52835 286.349789 
L 408.469526 291.85668 
L 418.410701 293.92571 
L 428.351876 294.548883 
L 438.293051 292.741482 
L 448.234226 291.613079 
L 458.175401 287.366314 
L 468.116576 283.536964 
L 478.057751 277.077494 
L 487.998926 275.728656 
L 497.940101 267.357088 
L 507.881276 248.63995 
L 517.822451 240.482864 
L 527.763626 222.363142 
L 537.704801 219.206607 
" clip-path="url(#pac9c80b812)" style="fill: none; stroke: #7f7f7f; stroke-width: 1.6; stroke-linecap: square"/>
   </g>
   <g id="line2d_35">
    <path d="M 70.469574 259.576486 
L 80.410749 263.818893 
L 90.351924 261.6968 
L 100.293099 245.297585 
L 110.234274 241.152771 
L 120.175449 251.136639 
L 130.116624 234.445211 
L 140.057799 225.63394 
L 149.998974 232.184178 
L 159.940149 231.343181 
L 169.881324 224.283487 
L 179.822499 227.05523 
L 189.763674 229.201234 
L 199.704849 220.829822 
L 209.646025 227.712449 
L 219.5872 236.752025 
L 229.528375 224.738534 
L 239.46955 232.794358 
L 249.410725 235.965826 
L 259.3519 232.081282 
L 269.293075 249.378104 
L 279.23425 249.808453 
L 289.175425 251.109352 
L 299.1166 262.544307 
L 309.057775 264.860329 
L 318.99895 262.779347 
L 328.940125 272.075503 
L 338.8813 277.158406 
L 348.822475 280.210192 
L 358.76365 286.322858 
L 368.704825 288.440444 
L 378.646 291.832241 
L 388.587175 295.366391 
L 398.52835 297.012978 
L 408.469526 297.915363 
L 418.410701 299.681571 
L 428.351876 299.938842 
L 438.293051 299.398913 
L 448.234226 298.96316 
L 458.175401 296.403888 
L 468.116576 295.138941 
L 478.057751 293.659325 
L 487.998926 287.403873 
L 497.940101 290.039791 
L 507.881276 281.037717 
L 517.822451 272.938386 
L 527.763626 272.434386 
L 537.704801 272.491727 
" clip-path="url(#pac9c80b812)" style="fill: none; stroke: #bcbd22; stroke-width: 1.6; stroke-linecap: square"/>
   </g>
   <g id="line2d_36">
    <path d="M 70.469574 211.030771 
L 80.410749 204.006026 
L 90.351924 196.578125 
L 100.293099 197.409785 
L 110.234274 194.685023 
L 120.175449 175.406432 
L 130.116624 166.46205 
L 140.057799 149.511977 
L 149.998974 155.260944 
L 159.940149 167.798528 
L 169.881324 158.527175 
L 179.822499 134.499056 
L 189.763674 133.957835 
L 199.704849 157.230387 
L 209.646025 158.556484 
L 219.5872 136.895281 
L 229.528375 138.3102 
L 239.46955 146.842505 
L 249.410725 170.65153 
L 259.3519 157.262255 
L 269.293075 189.458759 
L 279.23425 181.589416 
L 289.175425 197.043695 
L 299.1166 223.171132 
L 309.057775 214.090113 
L 318.99895 225.541108 
L 328.940125 230.703143 
L 338.8813 249.879973 
L 348.822475 253.203844 
L 358.76365 265.93056 
L 368.704825 282.00668 
L 378.646 280.050941 
L 388.587175 287.308443 
L 398.52835 291.639875 
L 408.469526 291.325058 
L 418.410701 296.01073 
L 428.351876 296.117926 
L 438.293051 294.833195 
L 448.234226 293.10231 
L 458.175401 292.11335 
L 468.116576 284.793037 
L 478.057751 280.04697 
L 487.998926 276.057513 
L 497.940101 273.884161 
L 507.881276 264.267924 
L 517.822451 240.215427 
L 527.763626 240.909446 
L 537.704801 221.076243 
" clip-path="url(#pac9c80b812)" style="fill: none; stroke: #17becf; stroke-width: 1.6; stroke-linecap: square"/>
   </g>
   <g id="line2d_37">
    <path d="M 70.469574 250.527798 
L 80.410749 244.891117 
L 90.351924 234.795326 
L 100.293099 247.458337 
L 110.234274 220.561199 
L 120.175449 222.386058 
L 130.116624 220.223868 
L 140.057799 203.34295 
L 149.998974 206.891122 
L 159.940149 213.005185 
L 169.881324 206.882789 
L 179.822499 197.813304 
L 189.763674 177.612645 
L 199.704849 194.654165 
L 209.646025 220.928231 
L 219.5872 206.416644 
L 229.528375 222.056105 
L 239.46955 206.85115 
L 249.410725 224.258227 
L 259.3519 204.840005 
L 269.293075 219.43712 
L 279.23425 247.289317 
L 289.175425 234.882363 
L 299.1166 242.92018 
L 309.057775 247.955235 
L 318.99895 255.335196 
L 328.940125 260.703181 
L 338.8813 275.796055 
L 348.822475 273.874525 
L 358.76365 277.948023 
L 368.704825 282.744222 
L 378.646 289.009167 
L 388.587175 291.760606 
L 398.52835 294.298966 
L 408.469526 296.563966 
L 418.410701 298.02589 
L 428.351876 298.657584 
L 438.293051 298.812755 
L 448.234226 297.874823 
L 458.175401 296.117181 
L 468.116576 292.100942 
L 478.057751 288.873407 
L 487.998926 285.660268 
L 497.940101 283.37769 
L 507.881276 275.479699 
L 517.822451 266.791431 
L 527.763626 256.29055 
L 537.704801 243.851694 
" clip-path="url(#pac9c80b812)" style="fill: none; stroke: #1f77b4; stroke-width: 1.6; stroke-linecap: square"/>
   </g>
   <g id="line2d_38">
    <path d="M 70.469574 264.641553 
L 80.410749 250.088866 
L 90.351924 247.405051 
L 100.293099 242.193386 
L 110.234274 243.465754 
L 120.175449 244.563099 
L 130.116624 222.934913 
L 140.057799 232.824899 
L 149.998974 230.472247 
L 159.940149 242.9901 
L 169.881324 234.928517 
L 179.822499 215.873694 
L 189.763674 221.449829 
L 199.704849 222.270369 
L 209.646025 217.676689 
L 219.5872 225.745668 
L 229.528375 224.954254 
L 239.46955 225.851182 
L 249.410725 234.313647 
L 259.3519 227.339351 
L 269.293075 238.48048 
L 279.23425 245.093981 
L 289.175425 248.04294 
L 299.1166 259.173771 
L 309.057775 254.687971 
L 318.99895 267.795522 
L 328.940125 276.804547 
L 338.8813 277.840158 
L 348.822475 285.749812 
L 358.76365 286.65298 
L 368.704825 291.306918 
L 378.646 293.440176 
L 388.587175 294.56495 
L 398.52835 298.19269 
L 408.469526 299.401699 
L 418.410701 299.844221 
L 428.351876 300.143898 
L 438.293051 300.039429 
L 448.234226 298.431016 
L 458.175401 297.914516 
L 468.116576 295.648331 
L 478.057751 294.09063 
L 487.998926 287.640872 
L 497.940101 284.074288 
L 507.881276 284.371297 
L 517.822451 276.775285 
L 527.763626 267.554721 
L 537.704801 267.802569 
" clip-path="url(#pac9c80b812)" style="fill: none; stroke: #ff7f0e; stroke-width: 1.6; stroke-linecap: square"/>
   </g>
   <g id="line2d_39">
    <path d="M 70.469574 218.489179 
L 80.410749 212.546663 
L 90.351924 198.079344 
L 100.293099 196.620424 
L 110.234274 163.194923 
L 120.175449 184.779676 
L 130.116624 196.799683 
L 140.057799 182.29779 
L 149.998974 147.899976 
L 159.940149 130.441162 
L 169.881324 150.868739 
L 179.822499 134.90353 
L 189.763674 179.969315 
L 199.704849 155.667629 
L 209.646025 159.445042 
L 219.5872 145.035395 
L 229.528375 189.01873 
L 239.46955 167.983564 
L 249.410725 172.794776 
L 259.3519 182.465012 
L 269.293075 175.641886 
L 279.23425 214.813408 
L 289.175425 234.036799 
L 299.1166 200.472159 
L 309.057775 225.344132 
L 318.99895 250.625486 
L 328.940125 247.077 
L 338.8813 247.570707 
L 348.822475 256.983295 
L 358.76365 263.798172 
L 368.704825 277.545924 
L 378.646 277.675453 
L 388.587175 287.246579 
L 398.52835 289.883233 
L 408.469526 295.383489 
L 418.410701 297.04734 
L 428.351876 296.218804 
L 438.293051 296.329429 
L 448.234226 293.881851 
L 458.175401 290.670068 
L 468.116576 287.286205 
L 478.057751 283.641466 
L 487.998926 277.608327 
L 497.940101 260.963266 
L 507.881276 258.652725 
L 517.822451 251.766165 
L 527.763626 250.891694 
L 537.704801 235.661059 
" clip-path="url(#pac9c80b812)" style="fill: none; stroke: #2ca02c; stroke-width: 1.6; stroke-linecap: square"/>
   </g>
   <g id="line2d_40">
    <path d="M 70.469574 257.266222 
L 80.410749 264.308028 
L 90.351924 253.009062 
L 100.293099 255.925987 
L 110.234274 240.699622 
L 120.175449 226.849654 
L 130.116624 240.934516 
L 140.057799 245.939731 
L 149.998974 237.340359 
L 159.940149 235.647037 
L 169.881324 224.104834 
L 179.822499 239.914153 
L 189.763674 225.341102 
L 199.704849 228.158731 
L 209.646025 223.611937 
L 219.5872 223.853775 
L 229.528375 230.48369 
L 239.46955 244.802892 
L 249.410725 254.015132 
L 259.3519 243.759033 
L 269.293075 245.619702 
L 279.23425 245.878484 
L 289.175425 252.122994 
L 299.1166 258.45576 
L 309.057775 264.793268 
L 318.99895 267.237462 
L 328.940125 269.281808 
L 338.8813 273.14222 
L 348.822475 281.324872 
L 358.76365 288.385085 
L 368.704825 289.349047 
L 378.646 293.815334 
L 388.587175 295.574084 
L 398.52835 296.882158 
L 408.469526 299.560981 
L 418.410701 300.622147 
L 428.351876 299.882704 
L 438.293051 299.484743 
L 448.234226 299.759414 
L 458.175401 297.804767 
L 468.116576 295.608218 
L 478.057751 295.129955 
L 487.998926 288.590189 
L 497.940101 287.254755 
L 507.881276 284.217776 
L 517.822451 281.113764 
L 527.763626 275.759509 
L 537.704801 265.017403 
" clip-path="url(#pac9c80b812)" style="fill: none; stroke: #d62728; stroke-width: 1.6; stroke-linecap: square"/>
   </g>
   <g id="line2d_41">
    <path d="M 70.469574 255.334092 
L 80.410749 260.120487 
L 90.351924 260.590347 
L 100.293099 249.344362 
L 110.234274 243.025647 
L 120.175449 233.375205 
L 130.116624 235.769484 
L 140.057799 228.808689 
L 149.998974 233.471117 
L 159.940149 231.307373 
L 169.881324 224.245038 
L 179.822499 229.256592 
L 189.763674 209.813445 
L 199.704849 213.480408 
L 209.646025 218.536442 
L 219.5872 236.880098 
L 229.528375 235.498738 
L 239.46955 242.495249 
L 249.410725 241.842763 
L 259.3519 238.542286 
L 269.293075 252.10153 
L 279.23425 238.110988 
L 289.175425 248.819388 
L 299.1166 254.558781 
L 309.057775 262.813162 
L 318.99895 269.306035 
L 328.940125 268.352298 
L 338.8813 279.293566 
L 348.822475 279.847249 
L 358.76365 287.072977 
L 368.704825 286.719042 
L 378.646 291.279951 
L 388.587175 296.127841 
L 398.52835 296.563523 
L 408.469526 299.972819 
L 418.410701 299.277356 
L 428.351876 300.662386 
L 438.293051 299.489097 
L 448.234226 298.845318 
L 458.175401 296.727881 
L 468.116576 294.953794 
L 478.057751 292.306353 
L 487.998926 291.738542 
L 497.940101 286.288247 
L 507.881276 279.867287 
L 517.822451 279.061282 
L 527.763626 273.478144 
L 537.704801 262.33248 
" clip-path="url(#pac9c80b812)" style="fill: none; stroke: #9467bd; stroke-width: 1.6; stroke-linecap: square"/>
   </g>
   <g id="patch_3">
    <path d="M 47.107813 313.916875 
L 47.107813 22.318125 
" style="fill: none; stroke: #000000; stroke-width: 0.8; stroke-linejoin: miter; stroke-linecap: square"/>
   </g>
   <g id="patch_4">
    <path d="M 561.066562 313.916875 
L 561.066562 22.318125 
" style="fill: none; stroke: #000000; stroke-width: 0.8; stroke-linejoin: miter; stroke-linecap: square"/>
   </g>
   <g id="patch_5">
    <path d="M 47.107812 313.916875 
L 561.066562 313.916875 
" style="fill: none; stroke: #000000; stroke-width: 0.8; stroke-linejoin: miter; stroke-linecap: square"/>
   </g>
   <g id="patch_6">
    <path d="M 47.107812 22.318125 
L 561.066562 22.318125 
" style="fill: none; stroke: #000000; stroke-width: 0.8; stroke-linejoin: miter; stroke-linecap: square"/>
   </g>
   <g id="text_16">
    <!-- Generated GS–GS Demands over Time -->
    <g transform="translate(186.6475 16.318125) scale(0.12 -0.12)">
     <defs>
      <path id="DejaVuSerif-47" d="M 4097 3272 
Q 3988 3856 3641 4136 
Q 3294 4416 2675 4416 
Q 1869 4416 1472 3897 
Q 1075 3378 1075 2328 
Q 1075 1300 1484 772 
Q 1894 244 2688 244 
Q 3041 244 3362 331 
Q 3684 419 3975 594 
L 3975 1797 
L 3097 1797 
L 3097 2131 
L 4609 2131 
L 4609 391 
Q 4194 150 3714 29 
Q 3234 -91 2688 -91 
Q 1631 -91 995 570 
Q 359 1231 359 2328 
Q 359 3434 996 4092 
Q 1634 4750 2713 4750 
Q 3113 4750 3539 4658 
Q 3966 4566 4447 4378 
L 4447 3272 
L 4097 3272 
z
" transform="scale(0.015625)"/>
      <path id="DejaVuSerif-72" d="M 3059 3328 
L 3059 2497 
L 2728 2497 
Q 2713 2744 2591 2866 
Q 2469 2988 2234 2988 
Q 1809 2988 1582 2694 
Q 1356 2400 1356 1850 
L 1356 331 
L 2022 331 
L 2022 0 
L 263 0 
L 263 331 
L 781 331 
L 781 2994 
L 231 2994 
L 231 3322 
L 1356 3322 
L 1356 2731 
Q 1525 3078 1790 3245 
Q 2056 3413 2438 3413 
Q 2578 3413 2733 3391 
Q 2888 3369 3059 3328 
z
" transform="scale(0.015625)"/>
      <path id="DejaVuSerif-53" d="M 594 225 
L 594 1288 
L 953 1284 
Q 969 753 1261 498 
Q 1553 244 2150 244 
Q 2706 244 2998 464 
Q 3291 684 3291 1106 
Q 3291 1444 3114 1625 
Q 2938 1806 2369 1978 
L 1753 2163 
Q 1084 2366 811 2669 
Q 538 2972 538 3500 
Q 538 4094 959 4422 
Q 1381 4750 2144 4750 
Q 2469 4750 2856 4679 
Q 3244 4609 3681 4475 
L 3681 3481 
L 3328 3481 
Q 3275 3975 2998 4195 
Q 2722 4416 2156 4416 
Q 1663 4416 1405 4214 
Q 1147 4013 1147 3628 
Q 1147 3294 1340 3103 
Q 1534 2913 2163 2725 
L 2741 2553 
Q 3375 2363 3645 2067 
Q 3916 1772 3916 1275 
Q 3916 597 3481 253 
Q 3047 -91 2188 -91 
Q 1803 -91 1404 -12 
Q 1006 66 594 225 
z
" transform="scale(0.015625)"/>
      <path id="DejaVuSerif-2013" d="M 281 1906 
L 2919 1906 
L 2919 1491 
L 281 1491 
L 281 1906 
z
" transform="scale(0.015625)"/>
      <path id="DejaVuSerif-6f" d="M 1925 219 
Q 2388 219 2623 584 
Q 2859 950 2859 1663 
Q 2859 2375 2623 2739 
Q 2388 3103 1925 3103 
Q 1463 3103 1227 2739 
Q 991 2375 991 1663 
Q 991 950 1228 584 
Q 1466 219 1925 219 
z
M 1925 -91 
Q 1200 -91 759 389 
Q 319 869 319 1663 
Q 319 2456 758 2934 
Q 1197 3413 1925 3413 
Q 2653 3413 3092 2934 
Q 3531 2456 3531 1663 
Q 3531 869 3092 389 
Q 2653 -91 1925 -91 
z
" transform="scale(0.015625)"/>
      <path id="DejaVuSerif-76" d="M 1581 0 
L 359 2988 
L -19 2988 
L -19 3322 
L 1509 3322 
L 1509 2988 
L 978 2988 
L 1913 703 
L 2847 2988 
L 2350 2988 
L 2350 3322 
L 3597 3322 
L 3597 2988 
L 3225 2988 
L 2003 0 
L 1581 0 
z
" transform="scale(0.015625)"/>
     </defs>
     <use xlink:href="#DejaVuSerif-47"/>
     <use xlink:href="#DejaVuSerif-65" transform="translate(79.882812 0)"/>
     <use xlink:href="#DejaVuSerif-6e" transform="translate(139.0625 0)"/>
     <use xlink:href="#DejaVuSerif-65" transform="translate(203.466797 0)"/>
     <use xlink:href="#DejaVuSerif-72" transform="translate(262.646484 0)"/>
     <use xlink:href="#DejaVuSerif-61" transform="translate(310.449219 0)"/>
     <use xlink:href="#DejaVuSerif-74" transform="translate(370.068359 0)"/>
     <use xlink:href="#DejaVuSerif-65" transform="translate(410.253906 0)"/>
     <use xlink:href="#DejaVuSerif-64" transform="translate(469.433594 0)"/>
     <use xlink:href="#DejaVuSerif-20" transform="translate(533.447266 0)"/>
     <use xlink:href="#DejaVuSerif-47" transform="translate(565.234375 0)"/>
     <use xlink:href="#DejaVuSerif-53" transform="translate(645.117188 0)"/>
     <use xlink:href="#DejaVuSerif-2013" transform="translate(713.623047 0)"/>
     <use xlink:href="#DejaVuSerif-47" transform="translate(763.623047 0)"/>
     <use xlink:href="#DejaVuSerif-53" transform="translate(843.505859 0)"/>
     <use xlink:href="#DejaVuSerif-20" transform="translate(912.011719 0)"/>
     <use xlink:href="#DejaVuSerif-44" transform="translate(943.798828 0)"/>
     <use xlink:href="#DejaVuSerif-65" transform="translate(1023.974609 0)"/>
     <use xlink:href="#DejaVuSerif-6d" transform="translate(1083.154297 0)"/>
     <use xlink:href="#DejaVuSerif-61" transform="translate(1177.978516 0)"/>
     <use xlink:href="#DejaVuSerif-6e" transform="translate(1237.597656 0)"/>
     <use xlink:href="#DejaVuSerif-64" transform="translate(1302.001953 0)"/>
     <use xlink:href="#DejaVuSerif-73" transform="translate(1366.015625 0)"/>
     <use xlink:href="#DejaVuSerif-20" transform="translate(1417.333984 0)"/>
     <use xlink:href="#DejaVuSerif-6f" transform="translate(1449.121094 0)"/>
     <use xlink:href="#DejaVuSerif-76" transform="translate(1509.326172 0)"/>
     <use xlink:href="#DejaVuSerif-65" transform="translate(1565.820312 0)"/>
     <use xlink:href="#DejaVuSerif-72" transform="translate(1625 0)"/>
     <use xlink:href="#DejaVuSerif-20" transform="translate(1672.802734 0)"/>
     <use xlink:href="#DejaVuSerif-54" transform="translate(1704.589844 0)"/>
     <use xlink:href="#DejaVuSerif-69" transform="translate(1771.289062 0)"/>
     <use xlink:href="#DejaVuSerif-6d" transform="translate(1803.271484 0)"/>
     <use xlink:href="#DejaVuSerif-65" transform="translate(1898.095703 0)"/>
    </g>
   </g>
   <g id="legend_1">
    <g id="patch_7">
     <path d="M 484.155312 204.855625 
L 555.466562 204.855625 
Q 557.066562 204.855625 557.066562 203.255625 
L 557.066562 27.918125 
Q 557.066562 26.318125 555.466562 26.318125 
L 484.155312 26.318125 
Q 482.555312 26.318125 482.555312 27.918125 
L 482.555312 203.255625 
Q 482.555312 204.855625 484.155312 204.855625 
z
" style="fill: #ffffff; opacity: 0.8; stroke: #cccccc; stroke-linejoin: miter"/>
    </g>
    <g id="line2d_42">
     <path d="M 485.755312 32.796875 
L 493.755312 32.796875 
L 501.755312 32.796875 
" style="fill: none; stroke: #1f77b4; stroke-width: 1.6; stroke-linecap: square"/>
    </g>
    <g id="text_17">
     <!-- GS0 ↔ GS1 -->
     <g transform="translate(508.155312 35.596875) scale(0.08 -0.08)">
      <defs>
       <path id="DejaVuSerif-2194" d="M 4391 2322 
L 3788 3375 
L 3822 3375 
L 5125 2084 
L 5125 2053 
L 3822 763 
L 3788 763 
L 4391 1816 
L 972 1816 
L 1575 763 
L 1541 763 
L 238 2053 
L 238 2084 
L 1541 3375 
L 1575 3375 
L 972 2322 
L 4391 2322 
z
" transform="scale(0.015625)"/>
      </defs>
      <use xlink:href="#DejaVuSerif-47"/>
      <use xlink:href="#DejaVuSerif-53" transform="translate(79.882812 0)"/>
      <use xlink:href="#DejaVuSerif-30" transform="translate(148.388672 0)"/>
      <use xlink:href="#DejaVuSerif-20" transform="translate(212.011719 0)"/>
      <use xlink:href="#DejaVuSerif-2194" transform="translate(243.798828 0)"/>
      <use xlink:href="#DejaVuSerif-20" transform="translate(327.587891 0)"/>
      <use xlink:href="#DejaVuSerif-47" transform="translate(359.375 0)"/>
      <use xlink:href="#DejaVuSerif-53" transform="translate(439.257812 0)"/>
      <use xlink:href="#DejaVuSerif-31" transform="translate(507.763672 0)"/>
     </g>
    </g>
    <g id="line2d_43">
     <path d="M 485.755312 44.539375 
L 493.755312 44.539375 
L 501.755312 44.539375 
" style="fill: none; stroke: #ff7f0e; stroke-width: 1.6; stroke-linecap: square"/>
    </g>
    <g id="text_18">
     <!-- GS0 ↔ GS2 -->
     <g transform="translate(508.155312 47.339375) scale(0.08 -0.08)">
      <use xlink:href="#DejaVuSerif-47"/>
      <use xlink:href="#DejaVuSerif-53" transform="translate(79.882812 0)"/>
      <use xlink:href="#DejaVuSerif-30" transform="translate(148.388672 0)"/>
      <use xlink:href="#DejaVuSerif-20" transform="translate(212.011719 0)"/>
      <use xlink:href="#DejaVuSerif-2194" transform="translate(243.798828 0)"/>
      <use xlink:href="#DejaVuSerif-20" transform="translate(327.587891 0)"/>
      <use xlink:href="#DejaVuSerif-47" transform="translate(359.375 0)"/>
      <use xlink:href="#DejaVuSerif-53" transform="translate(439.257812 0)"/>
      <use xlink:href="#DejaVuSerif-32" transform="translate(507.763672 0)"/>
     </g>
    </g>
    <g id="line2d_44">
     <path d="M 485.755312 56.281875 
L 493.755312 56.281875 
L 501.755312 56.281875 
" style="fill: none; stroke: #2ca02c; stroke-width: 1.6; stroke-linecap: square"/>
    </g>
    <g id="text_19">
     <!-- GS0 ↔ GS3 -->
     <g transform="translate(508.155312 59.081875) scale(0.08 -0.08)">
      <use xlink:href="#DejaVuSerif-47"/>
      <use xlink:href="#DejaVuSerif-53" transform="translate(79.882812 0)"/>
      <use xlink:href="#DejaVuSerif-30" transform="translate(148.388672 0)"/>
      <use xlink:href="#DejaVuSerif-20" transform="translate(212.011719 0)"/>
      <use xlink:href="#DejaVuSerif-2194" transform="translate(243.798828 0)"/>
      <use xlink:href="#DejaVuSerif-20" transform="translate(327.587891 0)"/>
      <use xlink:href="#DejaVuSerif-47" transform="translate(359.375 0)"/>
      <use xlink:href="#DejaVuSerif-53" transform="translate(439.257812 0)"/>
      <use xlink:href="#DejaVuSerif-33" transform="translate(507.763672 0)"/>
     </g>
    </g>
    <g id="line2d_45">
     <path d="M 485.755312 68.024375 
L 493.755312 68.024375 
L 501.755312 68.024375 
" style="fill: none; stroke: #d62728; stroke-width: 1.6; stroke-linecap: square"/>
    </g>
    <g id="text_20">
     <!-- GS0 ↔ GS4 -->
     <g transform="translate(508.155312 70.824375) scale(0.08 -0.08)">
      <use xlink:href="#DejaVuSerif-47"/>
      <use xlink:href="#DejaVuSerif-53" transform="translate(79.882812 0)"/>
      <use xlink:href="#DejaVuSerif-30" transform="translate(148.388672 0)"/>
      <use xlink:href="#DejaVuSerif-20" transform="translate(212.011719 0)"/>
      <use xlink:href="#DejaVuSerif-2194" transform="translate(243.798828 0)"/>
      <use xlink:href="#DejaVuSerif-20" transform="translate(327.587891 0)"/>
      <use xlink:href="#DejaVuSerif-47" transform="translate(359.375 0)"/>
      <use xlink:href="#DejaVuSerif-53" transform="translate(439.257812 0)"/>
      <use xlink:href="#DejaVuSerif-34" transform="translate(507.763672 0)"/>
     </g>
    </g>
    <g id="line2d_46">
     <path d="M 485.755312 79.766875 
L 493.755312 79.766875 
L 501.755312 79.766875 
" style="fill: none; stroke: #9467bd; stroke-width: 1.6; stroke-linecap: square"/>
    </g>
    <g id="text_21">
     <!-- GS0 ↔ GS5 -->
     <g transform="translate(508.155312 82.566875) scale(0.08 -0.08)">
      <defs>
       <path id="DejaVuSerif-35" d="M 3219 4666 
L 3219 4153 
L 1081 4153 
L 1081 2816 
Q 1244 2928 1461 2984 
Q 1678 3041 1947 3041 
Q 2703 3041 3140 2622 
Q 3578 2203 3578 1478 
Q 3578 738 3136 323 
Q 2694 -91 1894 -91 
Q 1572 -91 1234 -12 
Q 897 66 544 225 
L 544 1131 
L 897 1131 
Q 925 688 1179 453 
Q 1434 219 1894 219 
Q 2388 219 2653 544 
Q 2919 869 2919 1478 
Q 2919 2084 2655 2407 
Q 2391 2731 1894 2731 
Q 1613 2731 1398 2631 
Q 1184 2531 1019 2322 
L 750 2322 
L 750 4666 
L 3219 4666 
z
" transform="scale(0.015625)"/>
      </defs>
      <use xlink:href="#DejaVuSerif-47"/>
      <use xlink:href="#DejaVuSerif-53" transform="translate(79.882812 0)"/>
      <use xlink:href="#DejaVuSerif-30" transform="translate(148.388672 0)"/>
      <use xlink:href="#DejaVuSerif-20" transform="translate(212.011719 0)"/>
      <use xlink:href="#DejaVuSerif-2194" transform="translate(243.798828 0)"/>
      <use xlink:href="#DejaVuSerif-20" transform="translate(327.587891 0)"/>
      <use xlink:href="#DejaVuSerif-47" transform="translate(359.375 0)"/>
      <use xlink:href="#DejaVuSerif-53" transform="translate(439.257812 0)"/>
      <use xlink:href="#DejaVuSerif-35" transform="translate(507.763672 0)"/>
     </g>
    </g>
    <g id="line2d_47">
     <path d="M 485.755312 91.509375 
L 493.755312 91.509375 
L 501.755312 91.509375 
" style="fill: none; stroke: #8c564b; stroke-width: 1.6; stroke-linecap: square"/>
    </g>
    <g id="text_22">
     <!-- GS1 ↔ GS2 -->
     <g transform="translate(508.155312 94.309375) scale(0.08 -0.08)">
      <use xlink:href="#DejaVuSerif-47"/>
      <use xlink:href="#DejaVuSerif-53" transform="translate(79.882812 0)"/>
      <use xlink:href="#DejaVuSerif-31" transform="translate(148.388672 0)"/>
      <use xlink:href="#DejaVuSerif-20" transform="translate(212.011719 0)"/>
      <use xlink:href="#DejaVuSerif-2194" transform="translate(243.798828 0)"/>
      <use xlink:href="#DejaVuSerif-20" transform="translate(327.587891 0)"/>
      <use xlink:href="#DejaVuSerif-47" transform="translate(359.375 0)"/>
      <use xlink:href="#DejaVuSerif-53" transform="translate(439.257812 0)"/>
      <use xlink:href="#DejaVuSerif-32" transform="translate(507.763672 0)"/>
     </g>
    </g>
    <g id="line2d_48">
     <path d="M 485.755312 103.251875 
L 493.755312 103.251875 
L 501.755312 103.251875 
" style="fill: none; stroke: #e377c2; stroke-width: 1.6; stroke-linecap: square"/>
    </g>
    <g id="text_23">
     <!-- GS1 ↔ GS3 -->
     <g transform="translate(508.155312 106.051875) scale(0.08 -0.08)">
      <use xlink:href="#DejaVuSerif-47"/>
      <use xlink:href="#DejaVuSerif-53" transform="translate(79.882812 0)"/>
      <use xlink:href="#DejaVuSerif-31" transform="translate(148.388672 0)"/>
      <use xlink:href="#DejaVuSerif-20" transform="translate(212.011719 0)"/>
      <use xlink:href="#DejaVuSerif-2194" transform="translate(243.798828 0)"/>
      <use xlink:href="#DejaVuSerif-20" transform="translate(327.587891 0)"/>
      <use xlink:href="#DejaVuSerif-47" transform="translate(359.375 0)"/>
      <use xlink:href="#DejaVuSerif-53" transform="translate(439.257812 0)"/>
      <use xlink:href="#DejaVuSerif-33" transform="translate(507.763672 0)"/>
     </g>
    </g>
    <g id="line2d_49">
     <path d="M 485.755312 114.994375 
L 493.755312 114.994375 
L 501.755312 114.994375 
" style="fill: none; stroke: #7f7f7f; stroke-width: 1.6; stroke-linecap: square"/>
    </g>
    <g id="text_24">
     <!-- GS1 ↔ GS4 -->
     <g transform="translate(508.155312 117.794375) scale(0.08 -0.08)">
      <use xlink:href="#DejaVuSerif-47"/>
      <use xlink:href="#DejaVuSerif-53" transform="translate(79.882812 0)"/>
      <use xlink:href="#DejaVuSerif-31" transform="translate(148.388672 0)"/>
      <use xlink:href="#DejaVuSerif-20" transform="translate(212.011719 0)"/>
      <use xlink:href="#DejaVuSerif-2194" transform="translate(243.798828 0)"/>
      <use xlink:href="#DejaVuSerif-20" transform="translate(327.587891 0)"/>
      <use xlink:href="#DejaVuSerif-47" transform="translate(359.375 0)"/>
      <use xlink:href="#DejaVuSerif-53" transform="translate(439.257812 0)"/>
      <use xlink:href="#DejaVuSerif-34" transform="translate(507.763672 0)"/>
     </g>
    </g>
    <g id="line2d_50">
     <path d="M 485.755312 126.736875 
L 493.755312 126.736875 
L 501.755312 126.736875 
" style="fill: none; stroke: #bcbd22; stroke-width: 1.6; stroke-linecap: square"/>
    </g>
    <g id="text_25">
     <!-- GS1 ↔ GS5 -->
     <g transform="translate(508.155312 129.536875) scale(0.08 -0.08)">
      <use xlink:href="#DejaVuSerif-47"/>
      <use xlink:href="#DejaVuSerif-53" transform="translate(79.882812 0)"/>
      <use xlink:href="#DejaVuSerif-31" transform="translate(148.388672 0)"/>
      <use xlink:href="#DejaVuSerif-20" transform="translate(212.011719 0)"/>
      <use xlink:href="#DejaVuSerif-2194" transform="translate(243.798828 0)"/>
      <use xlink:href="#DejaVuSerif-20" transform="translate(327.587891 0)"/>
      <use xlink:href="#DejaVuSerif-47" transform="translate(359.375 0)"/>
      <use xlink:href="#DejaVuSerif-53" transform="translate(439.257812 0)"/>
      <use xlink:href="#DejaVuSerif-35" transform="translate(507.763672 0)"/>
     </g>
    </g>
    <g id="line2d_51">
     <path d="M 485.755312 138.479375 
L 493.755312 138.479375 
L 501.755312 138.479375 
" style="fill: none; stroke: #17becf; stroke-width: 1.6; stroke-linecap: square"/>
    </g>
    <g id="text_26">
     <!-- GS2 ↔ GS3 -->
     <g transform="translate(508.155312 141.279375) scale(0.08 -0.08)">
      <use xlink:href="#DejaVuSerif-47"/>
      <use xlink:href="#DejaVuSerif-53" transform="translate(79.882812 0)"/>
      <use xlink:href="#DejaVuSerif-32" transform="translate(148.388672 0)"/>
      <use xlink:href="#DejaVuSerif-20" transform="translate(212.011719 0)"/>
      <use xlink:href="#DejaVuSerif-2194" transform="translate(243.798828 0)"/>
      <use xlink:href="#DejaVuSerif-20" transform="translate(327.587891 0)"/>
      <use xlink:href="#DejaVuSerif-47" transform="translate(359.375 0)"/>
      <use xlink:href="#DejaVuSerif-53" transform="translate(439.257812 0)"/>
      <use xlink:href="#DejaVuSerif-33" transform="translate(507.763672 0)"/>
     </g>
    </g>
    <g id="line2d_52">
     <path d="M 485.755312 150.221875 
L 493.755312 150.221875 
L 501.755312 150.221875 
" style="fill: none; stroke: #1f77b4; stroke-width: 1.6; stroke-linecap: square"/>
    </g>
    <g id="text_27">
     <!-- GS2 ↔ GS4 -->
     <g transform="translate(508.155312 153.021875) scale(0.08 -0.08)">
      <use xlink:href="#DejaVuSerif-47"/>
      <use xlink:href="#DejaVuSerif-53" transform="translate(79.882812 0)"/>
      <use xlink:href="#DejaVuSerif-32" transform="translate(148.388672 0)"/>
      <use xlink:href="#DejaVuSerif-20" transform="translate(212.011719 0)"/>
      <use xlink:href="#DejaVuSerif-2194" transform="translate(243.798828 0)"/>
      <use xlink:href="#DejaVuSerif-20" transform="translate(327.587891 0)"/>
      <use xlink:href="#DejaVuSerif-47" transform="translate(359.375 0)"/>
      <use xlink:href="#DejaVuSerif-53" transform="translate(439.257812 0)"/>
      <use xlink:href="#DejaVuSerif-34" transform="translate(507.763672 0)"/>
     </g>
    </g>
    <g id="line2d_53">
     <path d="M 485.755312 161.964375 
L 493.755312 161.964375 
L 501.755312 161.964375 
" style="fill: none; stroke: #ff7f0e; stroke-width: 1.6; stroke-linecap: square"/>
    </g>
    <g id="text_28">
     <!-- GS2 ↔ GS5 -->
     <g transform="translate(508.155312 164.764375) scale(0.08 -0.08)">
      <use xlink:href="#DejaVuSerif-47"/>
      <use xlink:href="#DejaVuSerif-53" transform="translate(79.882812 0)"/>
      <use xlink:href="#DejaVuSerif-32" transform="translate(148.388672 0)"/>
      <use xlink:href="#DejaVuSerif-20" transform="translate(212.011719 0)"/>
      <use xlink:href="#DejaVuSerif-2194" transform="translate(243.798828 0)"/>
      <use xlink:href="#DejaVuSerif-20" transform="translate(327.587891 0)"/>
      <use xlink:href="#DejaVuSerif-47" transform="translate(359.375 0)"/>
      <use xlink:href="#DejaVuSerif-53" transform="translate(439.257812 0)"/>
      <use xlink:href="#DejaVuSerif-35" transform="translate(507.763672 0)"/>
     </g>
    </g>
    <g id="line2d_54">
     <path d="M 485.755312 173.706875 
L 493.755312 173.706875 
L 501.755312 173.706875 
" style="fill: none; stroke: #2ca02c; stroke-width: 1.6; stroke-linecap: square"/>
    </g>
    <g id="text_29">
     <!-- GS3 ↔ GS4 -->
     <g transform="translate(508.155312 176.506875) scale(0.08 -0.08)">
      <use xlink:href="#DejaVuSerif-47"/>
      <use xlink:href="#DejaVuSerif-53" transform="translate(79.882812 0)"/>
      <use xlink:href="#DejaVuSerif-33" transform="translate(148.388672 0)"/>
      <use xlink:href="#DejaVuSerif-20" transform="translate(212.011719 0)"/>
      <use xlink:href="#DejaVuSerif-2194" transform="translate(243.798828 0)"/>
      <use xlink:href="#DejaVuSerif-20" transform="translate(327.587891 0)"/>
      <use xlink:href="#DejaVuSerif-47" transform="translate(359.375 0)"/>
      <use xlink:href="#DejaVuSerif-53" transform="translate(439.257812 0)"/>
      <use xlink:href="#DejaVuSerif-34" transform="translate(507.763672 0)"/>
     </g>
    </g>
    <g id="line2d_55">
     <path d="M 485.755312 185.449375 
L 493.755312 185.449375 
L 501.755312 185.449375 
" style="fill: none; stroke: #d62728; stroke-width: 1.6; stroke-linecap: square"/>
    </g>
    <g id="text_30">
     <!-- GS3 ↔ GS5 -->
     <g transform="translate(508.155312 188.249375) scale(0.08 -0.08)">
      <use xlink:href="#DejaVuSerif-47"/>
      <use xlink:href="#DejaVuSerif-53" transform="translate(79.882812 0)"/>
      <use xlink:href="#DejaVuSerif-33" transform="translate(148.388672 0)"/>
      <use xlink:href="#DejaVuSerif-20" transform="translate(212.011719 0)"/>
      <use xlink:href="#DejaVuSerif-2194" transform="translate(243.798828 0)"/>
      <use xlink:href="#DejaVuSerif-20" transform="translate(327.587891 0)"/>
      <use xlink:href="#DejaVuSerif-47" transform="translate(359.375 0)"/>
      <use xlink:href="#DejaVuSerif-53" transform="translate(439.257812 0)"/>
      <use xlink:href="#DejaVuSerif-35" transform="translate(507.763672 0)"/>
     </g>
    </g>
    <g id="line2d_56">
     <path d="M 485.755312 197.191875 
L 493.755312 197.191875 
L 501.755312 197.191875 
" style="fill: none; stroke: #9467bd; stroke-width: 1.6; stroke-linecap: square"/>
    </g>
    <g id="text_31">
     <!-- GS4 ↔ GS5 -->
     <g transform="translate(508.155312 199.991875) scale(0.08 -0.08)">
      <use xlink:href="#DejaVuSerif-47"/>
      <use xlink:href="#DejaVuSerif-53" transform="translate(79.882812 0)"/>
      <use xlink:href="#DejaVuSerif-34" transform="translate(148.388672 0)"/>
      <use xlink:href="#DejaVuSerif-20" transform="translate(212.011719 0)"/>
      <use xlink:href="#DejaVuSerif-2194" transform="translate(243.798828 0)"/>
      <use xlink:href="#DejaVuSerif-20" transform="translate(327.587891 0)"/>
      <use xlink:href="#DejaVuSerif-47" transform="translate(359.375 0)"/>
      <use xlink:href="#DejaVuSerif-53" transform="translate(439.257812 0)"/>
      <use xlink:href="#DejaVuSerif-35" transform="translate(507.763672 0)"/>
     </g>
    </g>
   </g>
  </g>
 </g>
 <defs>
  <clipPath id="pac9c80b812">
   <rect x="47.107813" y="22.318125" width="513.95875" height="291.59875"/>
  </clipPath>
 </defs>
</svg>
