<?xml version="1.0" encoding="utf-8" standalone="no"?>
<!DOCTYPE svg PUBLIC "-//W3C//DTD SVG 1.1//EN"
  "http://www.w3.org/Graphics/SVG/1.1/DTD/svg11.dtd">
<svg xmlns:xlink="http://www.w3.org/1999/xlink" width="293.302647pt" height="280.8pt" viewBox="0 0 293.302647 280.8" xmlns="http://www.w3.org/2000/svg" version="1.1">
 <metadata>
  <rdf:RDF xmlns:dc="http://purl.org/dc/elements/1.1/" xmlns:cc="http://creativecommons.org/ns#" xmlns:rdf="http://www.w3.org/1999/02/22-rdf-syntax-ns#">
   <cc:Work>
    <dc:type rdf:resource="http://purl.org/dc/dcmitype/StillImage"/>
    <dc:date>2026-01-21T15:33:44.584892</dc:date>
    <dc:format>image/svg+xml</dc:format>
    <dc:creator>
     <cc:Agent>
      <dc:title>Matplotlib v3.10.8, https://matplotlib.org/</dc:title>
     </cc:Agent>
    </dc:creator>
   </cc:Work>
  </rdf:RDF>
 </metadata>
 <defs>
  <style type="text/css">*{stroke-linejoin: round; stroke-linecap: butt}</style>
 </defs>
 <g id="figure_1">
  <g id="patch_1">
   <path d="M 0 280.8 
L 293.302647 280.8 
L 293.302647 0 
L 0 0 
z
" style="fill: #ffffff"/>
  </g>
  <g id="patch_2">
   <path d="M 7.2 273.6 
L 273.6 273.6 
L 273.6 7.2 
L 7.2 7.2 
z
" style="fill: #ffffff"/>
  </g>
  <g id="pane3d_1">
   <g id="patch_3">
    <path d="M 26.809092 208.384629 
L 115.28431 144.835407 
L 114.257078 34.654119 
L 22.209431 89.988907 
" style="fill: #f2f2f2; opacity: 0.5; stroke: #f2f2f2; stroke-linejoin: miter"/>
   </g>
  </g>
  <g id="pane3d_2">
   <g id="patch_4">
    <path d="M 115.28431 144.835407 
L 256.73488 180.130473 
L 260.985057 65.341113 
L 114.257078 34.654119 
" style="fill: #e6e6e6; opacity: 0.5; stroke: #e6e6e6; stroke-linejoin: miter"/>
   </g>
  </g>
  <g id="pane3d_3">
   <g id="patch_5">
    <path d="M 26.809092 208.384629 
L 177.193469 250.796066 
L 256.73488 180.130473 
L 115.28431 144.835407 
" style="fill: #ececec; opacity: 0.5; stroke: #ececec; stroke-linejoin: miter"/>
   </g>
  </g>
  <g id="grid3d_1">
   <g id="Line3DCollection_1">
    <path d="M 40.202374 212.161805 
L 127.937937 147.992769 
L 127.360591 37.394615 
" style="fill: none; stroke: #b0b0b0; stroke-width: 0.8"/>
    <path d="M 67.808815 219.94738 
L 153.985124 154.492122 
L 154.347577 43.038729 
" style="fill: none; stroke: #b0b0b0; stroke-width: 0.8"/>
    <path d="M 95.996892 227.896989 
L 180.533038 161.116417 
L 181.872376 48.795323 
" style="fill: none; stroke: #b0b0b0; stroke-width: 0.8"/>
    <path d="M 124.785184 236.015869 
L 207.596257 167.869293 
L 209.951227 54.667792 
" style="fill: none; stroke: #b0b0b0; stroke-width: 0.8"/>
    <path d="M 154.193066 244.309487 
L 235.189933 174.754529 
L 238.601029 60.659671 
" style="fill: none; stroke: #b0b0b0; stroke-width: 0.8"/>
   </g>
  </g>
  <g id="grid3d_2">
   <g id="Line3DCollection_2">
    <path d="M 33.343337 83.295718 
L 37.479399 200.720452 
L 186.827494 242.237077 
" style="fill: none; stroke: #b0b0b0; stroke-width: 0.8"/>
    <path d="M 47.241639 74.940701 
L 50.811127 191.144653 
L 198.848547 231.557422 
" style="fill: none; stroke: #b0b0b0; stroke-width: 0.8"/>
    <path d="M 60.769147 66.808589 
L 63.800128 181.815024 
L 210.543596 221.167393 
" style="fill: none; stroke: #b0b0b0; stroke-width: 0.8"/>
    <path d="M 73.940504 58.890578 
L 76.459451 172.722194 
L 221.925724 211.055367 
" style="fill: none; stroke: #b0b0b0; stroke-width: 0.8"/>
    <path d="M 86.769592 51.178324 
L 88.801491 163.857259 
L 233.007324 201.210333 
" style="fill: none; stroke: #b0b0b0; stroke-width: 0.8"/>
    <path d="M 99.269581 43.663908 
L 100.838028 155.211759 
L 243.800144 191.621856 
" style="fill: none; stroke: #b0b0b0; stroke-width: 0.8"/>
    <path d="M 111.452975 36.339815 
L 112.580266 146.777645 
L 254.315327 182.280034 
" style="fill: none; stroke: #b0b0b0; stroke-width: 0.8"/>
   </g>
  </g>
  <g id="grid3d_3">
   <g id="Line3DCollection_3">
    <path d="M 256.812212 178.041891 
L 115.265585 142.827005 
L 26.725524 206.233581 
" style="fill: none; stroke: #b0b0b0; stroke-width: 0.8"/>
    <path d="M 257.591403 156.99739 
L 115.076988 122.59798 
L 25.883242 184.553167 
" style="fill: none; stroke: #b0b0b0; stroke-width: 0.8"/>
    <path d="M 258.381433 135.660158 
L 114.885898 102.101655 
L 25.028774 162.559076 
" style="fill: none; stroke: #b0b0b0; stroke-width: 0.8"/>
    <path d="M 259.182529 114.024047 
L 114.692267 81.332698 
L 24.161853 140.244452 
" style="fill: none; stroke: #b0b0b0; stroke-width: 0.8"/>
    <path d="M 259.994925 92.082732 
L 114.496043 60.285631 
L 23.282206 117.602235 
" style="fill: none; stroke: #b0b0b0; stroke-width: 0.8"/>
    <path d="M 260.818863 69.829708 
L 114.297174 38.954832 
L 22.389549 94.62516 
" style="fill: none; stroke: #b0b0b0; stroke-width: 0.8"/>
   </g>
  </g>
  <g id="axis3d_1">
   <g id="line2d_1">
    <path d="M 26.809092 208.384629 
L 177.193469 250.796066 
" style="fill: none; stroke: #000000; stroke-width: 0.8; stroke-linecap: square"/>
   </g>
   <g id="xtick_1">
    <g id="line2d_2">
     <path d="M 40.969656 211.600622 
L 38.664343 213.286708 
" style="fill: none; stroke: #000000; stroke-width: 0.8; stroke-linecap: square"/>
    </g>
    <g id="text_1">
     <!-- 277 -->
     <g transform="translate(22.994293 235.128544) scale(0.1 -0.1)">
      <defs>
       <path id="DejaVuSerif-32" d="M 819 3553 
L 469 3553 
L 469 4384 
Q 803 4563 1142 4656 
Q 1481 4750 1806 4750 
Q 2534 4750 2956 4397 
Q 3378 4044 3378 3438 
Q 3378 2753 2422 1800 
Q 2347 1728 2309 1691 
L 1131 513 
L 3078 513 
L 3078 1088 
L 3444 1088 
L 3444 0 
L 434 0 
L 434 341 
L 1850 1753 
Q 2319 2222 2519 2614 
Q 2719 3006 2719 3438 
Q 2719 3909 2473 4175 
Q 2228 4441 1797 4441 
Q 1350 4441 1106 4219 
Q 863 3997 819 3553 
z
" transform="scale(0.015625)"/>
       <path id="DejaVuSerif-37" d="M 3609 4347 
L 1784 0 
L 1319 0 
L 3059 4153 
L 903 4153 
L 903 3578 
L 538 3578 
L 538 4666 
L 3609 4666 
L 3609 4347 
z
" transform="scale(0.015625)"/>
      </defs>
      <use xlink:href="#DejaVuSerif-32"/>
      <use xlink:href="#DejaVuSerif-37" transform="translate(63.623047 0)"/>
      <use xlink:href="#DejaVuSerif-37" transform="translate(127.246094 0)"/>
     </g>
    </g>
   </g>
   <g id="xtick_2">
    <g id="line2d_3">
     <path d="M 68.56313 219.37444 
L 66.296741 221.095877 
" style="fill: none; stroke: #000000; stroke-width: 0.8; stroke-linecap: square"/>
    </g>
    <g id="text_2">
     <!-- 278 -->
     <g transform="translate(50.650626 243.111792) scale(0.1 -0.1)">
      <defs>
       <path id="DejaVuSerif-38" d="M 2981 1275 
Q 2981 1775 2732 2051 
Q 2484 2328 2034 2328 
Q 1584 2328 1336 2051 
Q 1088 1775 1088 1275 
Q 1088 772 1336 495 
Q 1584 219 2034 219 
Q 2484 219 2732 495 
Q 2981 772 2981 1275 
z
M 2853 3541 
Q 2853 3966 2637 4203 
Q 2422 4441 2034 4441 
Q 1650 4441 1433 4203 
Q 1216 3966 1216 3541 
Q 1216 3113 1433 2875 
Q 1650 2638 2034 2638 
Q 2422 2638 2637 2875 
Q 2853 3113 2853 3541 
z
M 2516 2484 
Q 3047 2413 3344 2092 
Q 3641 1772 3641 1275 
Q 3641 619 3225 264 
Q 2809 -91 2034 -91 
Q 1263 -91 845 264 
Q 428 619 428 1275 
Q 428 1772 725 2092 
Q 1022 2413 1556 2484 
Q 1084 2569 832 2842 
Q 581 3116 581 3541 
Q 581 4103 968 4426 
Q 1356 4750 2034 4750 
Q 2713 4750 3100 4426 
Q 3488 4103 3488 3541 
Q 3488 3116 3236 2842 
Q 2984 2569 2516 2484 
z
" transform="scale(0.015625)"/>
      </defs>
      <use xlink:href="#DejaVuSerif-32"/>
      <use xlink:href="#DejaVuSerif-37" transform="translate(63.623047 0)"/>
      <use xlink:href="#DejaVuSerif-38" transform="translate(127.246094 0)"/>
     </g>
    </g>
   </g>
   <g id="xtick_3">
    <g id="line2d_4">
     <path d="M 96.737521 227.311918 
L 94.512218 229.069829 
" style="fill: none; stroke: #000000; stroke-width: 0.8; stroke-linecap: square"/>
    </g>
    <g id="text_3">
     <!-- 279 -->
     <g transform="translate(78.892423 251.264041) scale(0.1 -0.1)">
      <defs>
       <path id="DejaVuSerif-39" d="M 2994 2091 
Q 2784 1856 2512 1740 
Q 2241 1625 1900 1625 
Q 1206 1625 804 2044 
Q 403 2463 403 3188 
Q 403 3897 839 4323 
Q 1275 4750 2003 4750 
Q 2794 4750 3217 4161 
Q 3641 3572 3641 2478 
Q 3641 1253 3137 581 
Q 2634 -91 1722 -91 
Q 1475 -91 1203 -44 
Q 931 3 647 97 
L 647 872 
L 997 872 
Q 1038 556 1241 387 
Q 1444 219 1784 219 
Q 2391 219 2687 676 
Q 2984 1134 2994 2091 
z
M 1978 4441 
Q 1534 4441 1298 4117 
Q 1063 3794 1063 3188 
Q 1063 2581 1298 2256 
Q 1534 1931 1978 1931 
Q 2422 1931 2658 2245 
Q 2894 2559 2894 3150 
Q 2894 3772 2656 4106 
Q 2419 4441 1978 4441 
z
" transform="scale(0.015625)"/>
      </defs>
      <use xlink:href="#DejaVuSerif-32"/>
      <use xlink:href="#DejaVuSerif-37" transform="translate(63.623047 0)"/>
      <use xlink:href="#DejaVuSerif-39" transform="translate(127.246094 0)"/>
     </g>
    </g>
   </g>
   <g id="xtick_4">
    <g id="line2d_5">
     <path d="M 125.511369 235.418279 
L 123.329426 237.213836 
" style="fill: none; stroke: #000000; stroke-width: 0.8; stroke-linecap: square"/>
    </g>
    <g id="text_4">
     <!-- 280 -->
     <g transform="translate(107.738474 259.590712) scale(0.1 -0.1)">
      <defs>
       <path id="DejaVuSerif-30" d="M 2034 219 
Q 2513 219 2750 744 
Q 2988 1269 2988 2328 
Q 2988 3391 2750 3916 
Q 2513 4441 2034 4441 
Q 1556 4441 1318 3916 
Q 1081 3391 1081 2328 
Q 1081 1269 1318 744 
Q 1556 219 2034 219 
z
M 2034 -91 
Q 1275 -91 848 546 
Q 422 1184 422 2328 
Q 422 3475 848 4112 
Q 1275 4750 2034 4750 
Q 2797 4750 3222 4112 
Q 3647 3475 3647 2328 
Q 3647 1184 3222 546 
Q 2797 -91 2034 -91 
z
" transform="scale(0.015625)"/>
      </defs>
      <use xlink:href="#DejaVuSerif-32"/>
      <use xlink:href="#DejaVuSerif-38" transform="translate(63.623047 0)"/>
      <use xlink:href="#DejaVuSerif-30" transform="translate(127.246094 0)"/>
     </g>
    </g>
   </g>
   <g id="xtick_5">
    <g id="line2d_6">
     <path d="M 154.904013 243.698972 
L 152.767823 245.533396 
" style="fill: none; stroke: #000000; stroke-width: 0.8; stroke-linecap: square"/>
    </g>
    <g id="text_5">
     <!-- 281 -->
     <g transform="translate(137.208382 268.097466) scale(0.1 -0.1)">
      <defs>
       <path id="DejaVuSerif-31" d="M 909 0 
L 909 331 
L 1722 331 
L 1722 4213 
L 781 3603 
L 781 4013 
L 1919 4750 
L 2350 4750 
L 2350 331 
L 3163 331 
L 3163 0 
L 909 0 
z
" transform="scale(0.015625)"/>
      </defs>
      <use xlink:href="#DejaVuSerif-32"/>
      <use xlink:href="#DejaVuSerif-38" transform="translate(63.623047 0)"/>
      <use xlink:href="#DejaVuSerif-31" transform="translate(127.246094 0)"/>
     </g>
    </g>
   </g>
   <g id="text_6">
    <!-- Longitude -->
    <g transform="translate(46.23342 266.212809) rotate(-344.250474) scale(0.13 -0.13)">
     <defs>
      <path id="DejaVuSerif-4c" d="M 353 0 
L 353 331 
L 947 331 
L 947 4331 
L 353 4331 
L 353 4666 
L 2175 4666 
L 2175 4331 
L 1581 4331 
L 1581 384 
L 3713 384 
L 3713 1166 
L 4097 1166 
L 4097 0 
L 353 0 
z
" transform="scale(0.015625)"/>
      <path id="DejaVuSerif-6f" d="M 1925 219 
Q 2388 219 2623 584 
Q 2859 950 2859 1663 
Q 2859 2375 2623 2739 
Q 2388 3103 1925 3103 
Q 1463 3103 1227 2739 
Q 991 2375 991 1663 
Q 991 950 1228 584 
Q 1466 219 1925 219 
z
M 1925 -91 
Q 1200 -91 759 389 
Q 319 869 319 1663 
Q 319 2456 758 2934 
Q 1197 3413 1925 3413 
Q 2653 3413 3092 2934 
Q 3531 2456 3531 1663 
Q 3531 869 3092 389 
Q 2653 -91 1925 -91 
z
" transform="scale(0.015625)"/>
      <path id="DejaVuSerif-6e" d="M 263 0 
L 263 331 
L 781 331 
L 781 2988 
L 231 2988 
L 231 3322 
L 1356 3322 
L 1356 2731 
Q 1516 3069 1770 3241 
Q 2025 3413 2363 3413 
Q 2913 3413 3172 3097 
Q 3431 2781 3431 2113 
L 3431 331 
L 3944 331 
L 3944 0 
L 2356 0 
L 2356 331 
L 2853 331 
L 2853 1931 
Q 2853 2541 2703 2767 
Q 2553 2994 2175 2994 
Q 1775 2994 1565 2701 
Q 1356 2409 1356 1850 
L 1356 331 
L 1856 331 
L 1856 0 
L 263 0 
z
" transform="scale(0.015625)"/>
      <path id="DejaVuSerif-67" d="M 3359 2988 
L 3359 72 
Q 3359 -644 2965 -1033 
Q 2572 -1422 1844 -1422 
Q 1516 -1422 1216 -1362 
Q 916 -1303 641 -1184 
L 641 -488 
L 941 -488 
Q 997 -813 1206 -963 
Q 1416 -1113 1806 -1113 
Q 2313 -1113 2548 -827 
Q 2784 -541 2784 72 
L 2784 519 
Q 2616 206 2355 57 
Q 2094 -91 1709 -91 
Q 1097 -91 708 395 
Q 319 881 319 1663 
Q 319 2444 706 2928 
Q 1094 3413 1709 3413 
Q 2094 3413 2355 3264 
Q 2616 3116 2784 2803 
L 2784 3322 
L 3909 3322 
L 3909 2988 
L 3359 2988 
z
M 2784 1825 
Q 2784 2422 2554 2737 
Q 2325 3053 1888 3053 
Q 1444 3053 1217 2703 
Q 991 2353 991 1663 
Q 991 975 1217 622 
Q 1444 269 1888 269 
Q 2325 269 2554 583 
Q 2784 897 2784 1497 
L 2784 1825 
z
" transform="scale(0.015625)"/>
      <path id="DejaVuSerif-69" d="M 622 4353 
Q 622 4497 726 4603 
Q 831 4709 978 4709 
Q 1122 4709 1226 4603 
Q 1331 4497 1331 4353 
Q 1331 4206 1228 4103 
Q 1125 4000 978 4000 
Q 831 4000 726 4103 
Q 622 4206 622 4353 
z
M 1356 331 
L 1900 331 
L 1900 0 
L 231 0 
L 231 331 
L 781 331 
L 781 2988 
L 231 2988 
L 231 3322 
L 1356 3322 
L 1356 331 
z
" transform="scale(0.015625)"/>
      <path id="DejaVuSerif-74" d="M 691 2988 
L 184 2988 
L 184 3322 
L 691 3322 
L 691 4353 
L 1269 4353 
L 1269 3322 
L 2350 3322 
L 2350 2988 
L 1269 2988 
L 1269 878 
Q 1269 456 1350 337 
Q 1431 219 1650 219 
Q 1875 219 1978 351 
Q 2081 484 2088 781 
L 2522 781 
Q 2497 328 2275 118 
Q 2053 -91 1600 -91 
Q 1103 -91 897 129 
Q 691 350 691 878 
L 691 2988 
z
" transform="scale(0.015625)"/>
      <path id="DejaVuSerif-75" d="M 2266 3322 
L 3341 3322 
L 3341 331 
L 3884 331 
L 3884 0 
L 2766 0 
L 2766 588 
Q 2606 256 2353 82 
Q 2100 -91 1766 -91 
Q 1213 -91 952 223 
Q 691 538 691 1209 
L 691 2988 
L 172 2988 
L 172 3322 
L 1269 3322 
L 1269 1388 
Q 1269 781 1417 556 
Q 1566 331 1947 331 
Q 2347 331 2556 625 
Q 2766 919 2766 1478 
L 2766 2988 
L 2266 2988 
L 2266 3322 
z
" transform="scale(0.015625)"/>
      <path id="DejaVuSerif-64" d="M 3359 331 
L 3909 331 
L 3909 0 
L 2784 0 
L 2784 519 
Q 2616 206 2355 57 
Q 2094 -91 1709 -91 
Q 1097 -91 708 395 
Q 319 881 319 1663 
Q 319 2444 706 2928 
Q 1094 3413 1709 3413 
Q 2094 3413 2355 3264 
Q 2616 3116 2784 2803 
L 2784 4531 
L 2241 4531 
L 2241 4863 
L 3359 4863 
L 3359 331 
z
M 2784 1497 
L 2784 1825 
Q 2784 2422 2554 2737 
Q 2325 3053 1888 3053 
Q 1444 3053 1217 2703 
Q 991 2353 991 1663 
Q 991 975 1217 622 
Q 1444 269 1888 269 
Q 2325 269 2554 583 
Q 2784 897 2784 1497 
z
" transform="scale(0.015625)"/>
      <path id="DejaVuSerif-65" d="M 3469 1600 
L 991 1600 
L 991 1575 
Q 991 903 1244 561 
Q 1497 219 1991 219 
Q 2369 219 2611 417 
Q 2853 616 2950 1006 
L 3413 1006 
Q 3275 459 2904 184 
Q 2534 -91 1931 -91 
Q 1203 -91 761 389 
Q 319 869 319 1663 
Q 319 2450 753 2931 
Q 1188 3413 1894 3413 
Q 2647 3413 3050 2948 
Q 3453 2484 3469 1600 
z
M 2791 1931 
Q 2772 2513 2545 2808 
Q 2319 3103 1894 3103 
Q 1497 3103 1269 2806 
Q 1041 2509 991 1931 
L 2791 1931 
z
" transform="scale(0.015625)"/>
     </defs>
     <use xlink:href="#DejaVuSerif-4c"/>
     <use xlink:href="#DejaVuSerif-6f" transform="translate(66.40625 0)"/>
     <use xlink:href="#DejaVuSerif-6e" transform="translate(126.611328 0)"/>
     <use xlink:href="#DejaVuSerif-67" transform="translate(191.015625 0)"/>
     <use xlink:href="#DejaVuSerif-69" transform="translate(255.029297 0)"/>
     <use xlink:href="#DejaVuSerif-74" transform="translate(287.011719 0)"/>
     <use xlink:href="#DejaVuSerif-75" transform="translate(327.197266 0)"/>
     <use xlink:href="#DejaVuSerif-64" transform="translate(391.601562 0)"/>
     <use xlink:href="#DejaVuSerif-65" transform="translate(455.615234 0)"/>
    </g>
   </g>
  </g>
  <g id="axis3d_2">
   <g id="line2d_7">
    <path d="M 256.73488 180.130473 
L 177.193469 250.796066 
" style="fill: none; stroke: #000000; stroke-width: 0.8; stroke-linecap: square"/>
   </g>
   <g id="xtick_6">
    <g id="line2d_8">
     <path d="M 185.565828 241.886352 
L 189.354247 242.939478 
" style="fill: none; stroke: #000000; stroke-width: 0.8; stroke-linecap: square"/>
    </g>
    <g id="text_7">
     <!-- 46.5 -->
     <g transform="translate(188.649946 263.25141) scale(0.1 -0.1)">
      <defs>
       <path id="DejaVuSerif-34" d="M 2234 1581 
L 2234 4063 
L 641 1581 
L 2234 1581 
z
M 3609 0 
L 1484 0 
L 1484 331 
L 2234 331 
L 2234 1247 
L 197 1247 
L 197 1588 
L 2241 4750 
L 2859 4750 
L 2859 1581 
L 3750 1581 
L 3750 1247 
L 2859 1247 
L 2859 331 
L 3609 331 
L 3609 0 
z
" transform="scale(0.015625)"/>
       <path id="DejaVuSerif-36" d="M 2094 219 
Q 2534 219 2771 542 
Q 3009 866 3009 1472 
Q 3009 2078 2771 2401 
Q 2534 2725 2094 2725 
Q 1647 2725 1412 2412 
Q 1178 2100 1178 1509 
Q 1178 888 1415 553 
Q 1653 219 2094 219 
z
M 1075 2569 
Q 1288 2803 1556 2918 
Q 1825 3034 2163 3034 
Q 2859 3034 3264 2615 
Q 3669 2197 3669 1472 
Q 3669 763 3233 336 
Q 2797 -91 2069 -91 
Q 1278 -91 853 498 
Q 428 1088 428 2181 
Q 428 3406 931 4078 
Q 1434 4750 2350 4750 
Q 2597 4750 2869 4703 
Q 3141 4656 3425 4563 
L 3425 3794 
L 3072 3794 
Q 3034 4109 2831 4275 
Q 2628 4441 2284 4441 
Q 1678 4441 1381 3981 
Q 1084 3522 1075 2569 
z
" transform="scale(0.015625)"/>
       <path id="DejaVuSerif-2e" d="M 603 325 
Q 603 500 722 622 
Q 841 744 1019 744 
Q 1191 744 1312 622 
Q 1434 500 1434 325 
Q 1434 153 1312 31 
Q 1191 -91 1019 -91 
Q 841 -91 722 29 
Q 603 150 603 325 
z
" transform="scale(0.015625)"/>
       <path id="DejaVuSerif-35" d="M 3219 4666 
L 3219 4153 
L 1081 4153 
L 1081 2816 
Q 1244 2928 1461 2984 
Q 1678 3041 1947 3041 
Q 2703 3041 3140 2622 
Q 3578 2203 3578 1478 
Q 3578 738 3136 323 
Q 2694 -91 1894 -91 
Q 1572 -91 1234 -12 
Q 897 66 544 225 
L 544 1131 
L 897 1131 
Q 925 688 1179 453 
Q 1434 219 1894 219 
Q 2388 219 2653 544 
Q 2919 869 2919 1478 
Q 2919 2084 2655 2407 
Q 2391 2731 1894 2731 
Q 1613 2731 1398 2631 
Q 1184 2531 1019 2322 
L 750 2322 
L 750 4666 
L 3219 4666 
z
" transform="scale(0.015625)"/>
      </defs>
      <use xlink:href="#DejaVuSerif-34"/>
      <use xlink:href="#DejaVuSerif-36" transform="translate(63.623047 0)"/>
      <use xlink:href="#DejaVuSerif-2e" transform="translate(127.246094 0)"/>
      <use xlink:href="#DejaVuSerif-35" transform="translate(159.033203 0)"/>
     </g>
    </g>
   </g>
   <g id="xtick_7">
    <g id="line2d_9">
     <path d="M 197.598865 231.216271 
L 201.351255 232.240636 
" style="fill: none; stroke: #000000; stroke-width: 0.8; stroke-linecap: square"/>
    </g>
    <g id="text_8">
     <!-- 47.0 -->
     <g transform="translate(200.509362 252.372249) scale(0.1 -0.1)">
      <use xlink:href="#DejaVuSerif-34"/>
      <use xlink:href="#DejaVuSerif-37" transform="translate(63.623047 0)"/>
      <use xlink:href="#DejaVuSerif-2e" transform="translate(127.246094 0)"/>
      <use xlink:href="#DejaVuSerif-30" transform="translate(159.033203 0)"/>
     </g>
    </g>
   </g>
   <g id="xtick_8">
    <g id="line2d_10">
     <path d="M 209.305715 220.835429 
L 213.022624 221.832197 
" style="fill: none; stroke: #000000; stroke-width: 0.8; stroke-linecap: square"/>
    </g>
    <g id="text_9">
     <!-- 47.5 -->
     <g transform="translate(212.046717 241.788529) scale(0.1 -0.1)">
      <use xlink:href="#DejaVuSerif-34"/>
      <use xlink:href="#DejaVuSerif-37" transform="translate(63.623047 0)"/>
      <use xlink:href="#DejaVuSerif-2e" transform="translate(127.246094 0)"/>
      <use xlink:href="#DejaVuSerif-35" transform="translate(159.033203 0)"/>
     </g>
    </g>
   </g>
   <g id="xtick_9">
    <g id="line2d_11">
     <path d="M 220.699464 210.732224 
L 224.381435 211.702494 
" style="fill: none; stroke: #000000; stroke-width: 0.8; stroke-linecap: square"/>
    </g>
    <g id="text_10">
     <!-- 48.0 -->
     <g transform="translate(223.274953 231.488378) scale(0.1 -0.1)">
      <use xlink:href="#DejaVuSerif-34"/>
      <use xlink:href="#DejaVuSerif-38" transform="translate(63.623047 0)"/>
      <use xlink:href="#DejaVuSerif-2e" transform="translate(127.246094 0)"/>
      <use xlink:href="#DejaVuSerif-30" transform="translate(159.033203 0)"/>
     </g>
    </g>
   </g>
   <g id="xtick_10">
    <g id="line2d_12">
     <path d="M 231.792508 200.895664 
L 235.440077 201.84048 
" style="fill: none; stroke: #000000; stroke-width: 0.8; stroke-linecap: square"/>
    </g>
    <g id="text_11">
     <!-- 48.5 -->
     <g transform="translate(234.206329 221.460549) scale(0.1 -0.1)">
      <use xlink:href="#DejaVuSerif-34"/>
      <use xlink:href="#DejaVuSerif-38" transform="translate(63.623047 0)"/>
      <use xlink:href="#DejaVuSerif-2e" transform="translate(127.246094 0)"/>
      <use xlink:href="#DejaVuSerif-35" transform="translate(159.033203 0)"/>
     </g>
    </g>
   </g>
   <g id="xtick_11">
    <g id="line2d_13">
     <path d="M 242.596595 191.315332 
L 246.210294 192.235681 
" style="fill: none; stroke: #000000; stroke-width: 0.8; stroke-linecap: square"/>
    </g>
    <g id="text_12">
     <!-- 49.0 -->
     <g transform="translate(244.852465 211.694383) scale(0.1 -0.1)">
      <use xlink:href="#DejaVuSerif-34"/>
      <use xlink:href="#DejaVuSerif-39" transform="translate(63.623047 0)"/>
      <use xlink:href="#DejaVuSerif-2e" transform="translate(127.246094 0)"/>
      <use xlink:href="#DejaVuSerif-30" transform="translate(159.033203 0)"/>
     </g>
    </g>
   </g>
   <g id="xtick_12">
    <g id="line2d_14">
     <path d="M 253.122872 181.981343 
L 256.703224 182.878165 
" style="fill: none; stroke: #000000; stroke-width: 0.8; stroke-linecap: square"/>
    </g>
    <g id="text_13">
     <!-- 49.5 -->
     <g transform="translate(255.224381 202.179771) scale(0.1 -0.1)">
      <use xlink:href="#DejaVuSerif-34"/>
      <use xlink:href="#DejaVuSerif-39" transform="translate(63.623047 0)"/>
      <use xlink:href="#DejaVuSerif-2e" transform="translate(127.246094 0)"/>
      <use xlink:href="#DejaVuSerif-35" transform="translate(159.033203 0)"/>
     </g>
    </g>
   </g>
   <g id="text_14">
    <!-- Latitude -->
    <g transform="translate(234.356996 269.686639) rotate(-41.618292) scale(0.13 -0.13)">
     <defs>
      <path id="DejaVuSerif-61" d="M 2547 1044 
L 2547 1747 
L 1806 1747 
Q 1378 1747 1168 1562 
Q 959 1378 959 997 
Q 959 650 1171 447 
Q 1384 244 1747 244 
Q 2106 244 2326 466 
Q 2547 688 2547 1044 
z
M 3122 2075 
L 3122 331 
L 3634 331 
L 3634 0 
L 2547 0 
L 2547 359 
Q 2356 128 2106 18 
Q 1856 -91 1522 -91 
Q 969 -91 644 203 
Q 319 497 319 997 
Q 319 1513 691 1797 
Q 1063 2081 1741 2081 
L 2547 2081 
L 2547 2309 
Q 2547 2688 2317 2895 
Q 2088 3103 1672 3103 
Q 1328 3103 1125 2947 
Q 922 2791 872 2484 
L 575 2484 
L 575 3156 
Q 875 3284 1158 3348 
Q 1441 3413 1709 3413 
Q 2400 3413 2761 3070 
Q 3122 2728 3122 2075 
z
" transform="scale(0.015625)"/>
     </defs>
     <use xlink:href="#DejaVuSerif-4c"/>
     <use xlink:href="#DejaVuSerif-61" transform="translate(66.40625 0)"/>
     <use xlink:href="#DejaVuSerif-74" transform="translate(126.025391 0)"/>
     <use xlink:href="#DejaVuSerif-69" transform="translate(166.210938 0)"/>
     <use xlink:href="#DejaVuSerif-74" transform="translate(198.193359 0)"/>
     <use xlink:href="#DejaVuSerif-75" transform="translate(238.378906 0)"/>
     <use xlink:href="#DejaVuSerif-64" transform="translate(302.783203 0)"/>
     <use xlink:href="#DejaVuSerif-65" transform="translate(366.796875 0)"/>
    </g>
   </g>
  </g>
  <g id="axis3d_3">
   <g id="line2d_15">
    <path d="M 256.73488 180.130473 
L 260.985057 65.341113 
" style="fill: none; stroke: #000000; stroke-width: 0.8; stroke-linecap: square"/>
   </g>
   <g id="xtick_13">
    <g id="line2d_16">
     <path d="M 255.621477 177.745652 
L 259.196656 178.635108 
" style="fill: none; stroke: #000000; stroke-width: 0.8; stroke-linecap: square"/>
    </g>
    <g id="text_15">
     <!-- 0 -->
     <g transform="translate(271.917921 183.399694) scale(0.1 -0.1)">
      <use xlink:href="#DejaVuSerif-30"/>
     </g>
    </g>
   </g>
   <g id="xtick_14">
    <g id="line2d_17">
     <path d="M 256.392121 156.707913 
L 259.992983 157.577071 
" style="fill: none; stroke: #000000; stroke-width: 0.8; stroke-linecap: square"/>
    </g>
    <g id="text_16">
     <!-- 5 -->
     <g transform="translate(272.820553 162.406379) scale(0.1 -0.1)">
      <use xlink:href="#DejaVuSerif-35"/>
     </g>
    </g>
   </g>
   <g id="xtick_15">
    <g id="line2d_18">
     <path d="M 257.17348 135.377661 
L 260.800396 136.225868 
" style="fill: none; stroke: #000000; stroke-width: 0.8; stroke-linecap: square"/>
    </g>
    <g id="text_17">
     <!-- 10 -->
     <g transform="translate(270.554451 141.121978) scale(0.1 -0.1)">
      <use xlink:href="#DejaVuSerif-31"/>
      <use xlink:href="#DejaVuSerif-30" transform="translate(63.623047 0)"/>
     </g>
    </g>
   </g>
   <g id="xtick_16">
    <g id="line2d_19">
     <path d="M 257.965779 113.748754 
L 261.619129 114.575335 
" style="fill: none; stroke: #000000; stroke-width: 0.8; stroke-linecap: square"/>
    </g>
    <g id="text_18">
     <!-- 15 -->
     <g transform="translate(271.482377 119.540394) scale(0.1 -0.1)">
      <use xlink:href="#DejaVuSerif-31"/>
      <use xlink:href="#DejaVuSerif-35" transform="translate(63.623047 0)"/>
     </g>
    </g>
   </g>
   <g id="xtick_17">
    <g id="line2d_20">
     <path d="M 258.76925 91.814875 
L 262.449421 92.619134 
" style="fill: none; stroke: #000000; stroke-width: 0.8; stroke-linecap: square"/>
    </g>
    <g id="text_19">
     <!-- 20 -->
     <g transform="translate(272.42335 97.655359) scale(0.1 -0.1)">
      <use xlink:href="#DejaVuSerif-32"/>
      <use xlink:href="#DejaVuSerif-30" transform="translate(63.623047 0)"/>
     </g>
    </g>
   </g>
   <g id="xtick_18">
    <g id="line2d_21">
     <path d="M 259.584131 69.569527 
L 263.291519 70.350743 
" style="fill: none; stroke: #000000; stroke-width: 0.8; stroke-linecap: square"/>
    </g>
    <g id="text_20">
     <!-- 25 -->
     <g transform="translate(273.377647 75.460427) scale(0.1 -0.1)">
      <use xlink:href="#DejaVuSerif-32"/>
      <use xlink:href="#DejaVuSerif-35" transform="translate(63.623047 0)"/>
     </g>
    </g>
   </g>
   <g id="text_21">
    <!-- Altitude (km) -->
    <g transform="translate(310.677584 161.763358) rotate(-87.879542) scale(0.13 -0.13)">
     <defs>
      <path id="DejaVuSerif-41" d="M 1281 1691 
L 2994 1691 
L 2138 3909 
L 1281 1691 
z
M -38 0 
L -38 331 
L 372 331 
L 2034 4666 
L 2559 4666 
L 4225 331 
L 4684 331 
L 4684 0 
L 2988 0 
L 2988 331 
L 3506 331 
L 3116 1356 
L 1153 1356 
L 763 331 
L 1275 331 
L 1275 0 
L -38 0 
z
" transform="scale(0.015625)"/>
      <path id="DejaVuSerif-6c" d="M 1313 331 
L 1856 331 
L 1856 0 
L 184 0 
L 184 331 
L 738 331 
L 738 4531 
L 184 4531 
L 184 4863 
L 1313 4863 
L 1313 331 
z
" transform="scale(0.015625)"/>
      <path id="DejaVuSerif-20" transform="scale(0.015625)"/>
      <path id="DejaVuSerif-28" d="M 2041 -997 
Q 1281 -656 893 83 
Q 506 822 506 1931 
Q 506 3044 893 3783 
Q 1281 4522 2041 4863 
L 2041 4556 
Q 1559 4225 1350 3623 
Q 1141 3022 1141 1931 
Q 1141 844 1350 242 
Q 1559 -359 2041 -691 
L 2041 -997 
z
" transform="scale(0.015625)"/>
      <path id="DejaVuSerif-6b" d="M 1831 0 
L 219 0 
L 219 331 
L 738 331 
L 738 4531 
L 184 4531 
L 184 4863 
L 1313 4863 
L 1313 1697 
L 2713 2988 
L 2234 2988 
L 2234 3322 
L 3738 3322 
L 3738 2988 
L 3169 2988 
L 2181 2075 
L 3444 331 
L 3922 331 
L 3922 0 
L 2284 0 
L 2284 331 
L 2759 331 
L 1766 1697 
L 1313 1275 
L 1313 331 
L 1831 331 
L 1831 0 
z
" transform="scale(0.015625)"/>
      <path id="DejaVuSerif-6d" d="M 3316 2675 
Q 3481 3041 3739 3227 
Q 3997 3413 4341 3413 
Q 4863 3413 5119 3089 
Q 5375 2766 5375 2113 
L 5375 331 
L 5894 331 
L 5894 0 
L 4300 0 
L 4300 331 
L 4800 331 
L 4800 2047 
Q 4800 2556 4650 2772 
Q 4500 2988 4153 2988 
Q 3769 2988 3567 2697 
Q 3366 2406 3366 1850 
L 3366 331 
L 3866 331 
L 3866 0 
L 2291 0 
L 2291 331 
L 2791 331 
L 2791 2069 
Q 2791 2566 2641 2777 
Q 2491 2988 2144 2988 
Q 1759 2988 1557 2697 
Q 1356 2406 1356 1850 
L 1356 331 
L 1856 331 
L 1856 0 
L 263 0 
L 263 331 
L 781 331 
L 781 2994 
L 231 2994 
L 231 3322 
L 1356 3322 
L 1356 2731 
Q 1516 3063 1762 3238 
Q 2009 3413 2322 3413 
Q 2709 3413 2968 3220 
Q 3228 3028 3316 2675 
z
" transform="scale(0.015625)"/>
      <path id="DejaVuSerif-29" d="M 453 -997 
L 453 -691 
Q 934 -359 1145 242 
Q 1356 844 1356 1931 
Q 1356 3022 1145 3623 
Q 934 4225 453 4556 
L 453 4863 
Q 1216 4522 1603 3783 
Q 1991 3044 1991 1931 
Q 1991 822 1603 83 
Q 1216 -656 453 -997 
z
" transform="scale(0.015625)"/>
     </defs>
     <use xlink:href="#DejaVuSerif-41"/>
     <use xlink:href="#DejaVuSerif-6c" transform="translate(72.216797 0)"/>
     <use xlink:href="#DejaVuSerif-74" transform="translate(104.199219 0)"/>
     <use xlink:href="#DejaVuSerif-69" transform="translate(144.384766 0)"/>
     <use xlink:href="#DejaVuSerif-74" transform="translate(176.367188 0)"/>
     <use xlink:href="#DejaVuSerif-75" transform="translate(216.552734 0)"/>
     <use xlink:href="#DejaVuSerif-64" transform="translate(280.957031 0)"/>
     <use xlink:href="#DejaVuSerif-65" transform="translate(344.970703 0)"/>
     <use xlink:href="#DejaVuSerif-20" transform="translate(404.150391 0)"/>
     <use xlink:href="#DejaVuSerif-28" transform="translate(435.9375 0)"/>
     <use xlink:href="#DejaVuSerif-6b" transform="translate(474.951172 0)"/>
     <use xlink:href="#DejaVuSerif-6d" transform="translate(535.546875 0)"/>
     <use xlink:href="#DejaVuSerif-29" transform="translate(630.371094 0)"/>
    </g>
   </g>
  </g>
  <g id="axes_1">
   <g id="line2d_22">
    <path d="M 85.031616 69.095339 
L 85.540168 73.473951 
L 85.649526 74.476965 
L 85.589118 74.328886 
L 85.522601 74.18386 
L 85.47145 75.698104 
L 85.249516 75.550667 
L 85.015735 75.439036 
L 84.780828 76.774671 
L 83.95978 81.221701 
L 83.257656 85.805736 
L 83.094359 90.13348 
L 83.280506 93.126859 
L 83.658041 93.496673 
L 84.069853 93.808865 
L 84.45761 92.843039 
L 84.636742 89.872741 
L 84.881626 86.944342 
L 85.054744 85.565848 
L 85.197322 85.49208 
L 85.333766 85.386855 
L 85.611764 83.851968 
L 85.93621 83.836225 
L 86.260249 83.827682 
L 86.582574 83.806924 
L 87.017189 80.789233 
L 87.267632 77.117423 
L 87.395699 76.601771 
L 87.518626 77.710553 
L 87.627754 78.047744 
L 87.731173 78.04391 
L 87.834946 78.015056 
L 87.939211 77.980844 
L 87.937718 78.071254 
L 87.915418 78.196327 
L 87.844329 77.327642 
L 87.752103 77.375661 
L 87.623726 77.443281 
L 87.476695 77.516954 
L 87.323855 77.580474 
L 87.167817 77.639199 
L 87.035785 77.602063 
L 86.912024 77.566705 
L 86.78991 77.519101 
L 86.668978 77.465326 
L 86.533132 79.007375 
L 86.263223 78.476579 
L 86.08125 78.537726 
L 85.942892 76.781044 
L 86.249689 76.477762 
L 86.567724 77.515666 
L 86.749655 77.452298 
L 86.751104 79.500533 
L 86.289199 84.049026 
L 85.537598 87.03017 
L 84.658672 87.201075 
L 83.754147 87.357358 
L 83.237712 87.267481 
L 82.759013 87.098711 
L 82.341528 89.221994 
L 82.014352 89.489951 
L 82.292561 90.658538 
L 82.593373 90.657514 
L 82.89551 90.619192 
L 83.225426 91.920691 
L 83.548632 92.393643 
L 83.878737 93.264567 
L 84.163032 93.531646 
L 84.439209 93.747803 
L 84.780381 93.836214 
L 85.158476 92.946074 
L 85.626971 92.50258 
L 86.153661 92.88495 
L 86.671763 97.512069 
L 86.717358 98.354729 
L 86.792441 98.637683 
L 86.816735 97.170226 
L 87.498141 95.53584 
L 88.368838 95.43165 
L 89.259238 95.295815 
L 90.16098 95.179333 
L 91.407555 94.989799 
L 92.728103 94.865859 
L 94.071294 94.738916 
L 95.438633 94.11724 
L 97.055001 91.03281 
L 98.613355 88.243038 
L 100.068839 86.655164 
L 101.42093 83.565656 
L 102.434443 81.201812 
L 103.37915 79.090389 
L 104.153945 75.900531 
L 104.804586 75.042975 
L 105.243432 75.008158 
L 105.64973 74.961851 
L 106.045614 74.903874 
" clip-path="url(#pcf76551991)" style="fill: none; stroke: #ff0000; stroke-width: 1.1; stroke-linecap: square"/>
   </g>
   <g id="line2d_23">
    <path d="M 100.178822 76.357651 
L 100.662923 80.774173 
L 100.762314 81.783774 
L 100.697043 81.631918 
L 100.62569 81.483201 
L 100.562134 83.009886 
L 100.334979 82.85944 
L 100.09578 82.745204 
L 99.848681 84.092278 
L 98.991565 88.579683 
L 98.25898 93.20759 
L 98.078884 97.579581 
L 98.262738 100.60638 
L 98.652767 100.984593 
L 99.077346 101.304432 
L 99.483536 100.333971 
L 99.685852 97.338656 
L 99.949792 94.383214 
L 100.130675 92.991028 
L 100.27348 92.915648 
L 100.410106 92.808448 
L 100.698681 91.25875 
L 101.026741 91.242685 
L 101.354235 91.233832 
L 101.679999 91.212618 
L 102.13558 88.166485 
L 102.405119 84.458469 
L 102.535781 83.937143 
L 102.653458 85.055966 
L 102.761149 85.395868 
L 102.864942 85.391568 
L 102.96928 85.362038 
L 103.074172 85.327113 
L 103.075305 85.419891 
L 103.055942 85.548019 
L 102.991483 84.672542 
L 102.900196 84.72213 
L 102.771933 84.791364 
L 102.624646 84.866654 
L 102.471499 84.931678 
L 102.315128 84.991856 
L 102.180918 84.953986 
L 102.05444 84.917606 
L 101.929587 84.868813 
L 101.80591 84.813764 
L 101.662653 86.37151 
L 101.395902 85.837457 
L 101.213953 85.900413 
L 101.083709 84.127382 
L 101.39104 83.818928 
L 101.703599 84.864786 
L 101.885582 84.799622 
L 101.877942 86.868006 
L 101.387539 91.459793 
L 100.615052 94.470779 
L 99.728989 94.6454 
L 98.817101 94.805267 
L 98.291074 94.712627 
L 97.802736 94.539904 
L 97.365979 96.68151 
L 97.034067 96.952261 
L 97.306055 98.130067 
L 97.608637 98.128123 
L 97.9131 98.088705 
L 98.23951 99.402041 
L 98.566577 99.880641 
L 98.899651 100.761478 
L 99.191344 101.033744 
L 99.475391 101.254765 
L 99.823292 101.345556 
L 100.21162 100.44763 
L 100.687061 99.999506 
L 101.216354 100.384607 
L 101.717033 105.055183 
L 101.765939 105.909287 
L 101.848253 106.198798 
L 101.88733 104.721083 
L 102.582698 103.070073 
L 103.46091 102.963192 
L 104.359129 102.824325 
L 105.268714 102.70499 
L 106.527291 102.511753 
L 107.86036 102.384716 
L 109.21636 102.254653 
L 110.599295 101.625191 
L 112.251744 98.512191 
L 113.846375 95.69771 
L 115.33247 94.097266 
L 116.721294 90.980707 
L 117.764713 88.597075 
L 118.736798 86.468001 
L 119.542013 83.249881 
L 120.209489 82.386295 
L 120.652996 82.350762 
L 121.062741 82.303209 
L 121.461769 82.24376 
" clip-path="url(#pcf76551991)" style="fill: none; stroke: #ff0000; stroke-width: 1.1; stroke-linecap: square"/>
   </g>
   <g id="line2d_24">
    <path d="M 100.995376 79.898361 
L 101.48062 84.33324 
L 101.579972 85.346005 
L 101.514099 85.19229 
L 101.442115 85.041757 
L 101.37755 86.574458 
L 101.148946 86.422536 
L 100.908225 86.307018 
L 100.659192 87.65963 
L 99.795724 92.166608 
L 99.05774 96.815809 
L 98.875815 101.209305 
L 99.060483 104.252377 
L 99.453179 104.634719 
L 99.880619 104.958318 
L 100.289888 103.985657 
L 100.494505 100.978236 
L 100.760839 98.009679 
L 100.943073 96.610842 
L 101.086621 96.53467 
L 101.223956 96.426502 
L 101.514589 94.869613 
L 101.844526 94.85339 
L 102.173887 94.844384 
L 102.501507 94.822947 
L 102.96058 91.763014 
L 103.232561 88.037413 
L 103.364037 87.513325 
L 103.482024 88.637016 
L 103.590185 88.978228 
L 103.694531 88.973697 
L 103.799434 88.943835 
L 103.904897 88.908559 
L 103.906183 89.002503 
L 103.886884 89.132134 
L 103.822467 88.253378 
L 103.730764 88.303738 
L 103.60185 88.373766 
L 103.453795 88.449851 
L 103.299846 88.515614 
L 103.142655 88.576507 
L 103.007636 88.538277 
L 102.880359 88.501394 
L 102.754714 88.452015 
L 102.630252 88.39634 
L 102.485849 89.961715 
L 102.217906 89.426101 
L 102.035026 89.489948 
L 101.904561 87.708987 
L 102.213499 87.397999 
L 102.527357 88.447695 
L 102.710276 88.381647 
L 102.702093 90.459816 
L 102.207601 95.072613 
L 101.430011 98.098096 
L 100.539023 98.274543 
L 99.622062 98.436172 
L 99.092818 98.342171 
L 98.601456 98.167504 
L 98.16142 100.317982 
L 97.827554 100.590092 
L 98.100599 101.772351 
L 98.404825 101.769951 
L 98.710972 101.729994 
L 99.038862 103.049068 
L 99.36781 103.530421 
L 99.702748 104.416087 
L 99.996334 104.690898 
L 100.282262 104.91431 
L 100.632308 105.006273 
L 101.023182 104.104576 
L 101.501433 103.654199 
L 102.033572 104.040617 
L 102.535841 108.732276 
L 102.58518 109.59197 
L 102.668315 109.884706 
L 102.70841 108.402052 
L 103.408102 106.742962 
L 104.291211 106.634758 
L 105.194444 106.494401 
L 106.109102 106.373663 
L 107.37476 106.178607 
L 108.715316 106.050047 
L 110.078932 105.918449 
L 111.46978 105.285189 
L 113.132712 102.158333 
L 114.737564 99.33188 
L 116.233009 97.725363 
L 117.631075 94.595702 
L 118.681591 92.202496 
L 119.660268 90.064884 
L 120.471428 86.833072 
L 121.143324 85.966583 
L 121.589366 85.930697 
L 122.001399 85.882531 
L 122.402643 85.822358 
" clip-path="url(#pcf76551991)" style="fill: none; stroke: #ff0000; stroke-width: 1.1; stroke-linecap: square"/>
   </g>
   <g id="line2d_25">
    <path d="M 102.163066 87.169311 
L 102.651642 91.641623 
L 102.751277 92.660789 
L 102.684301 92.503223 
L 102.611149 92.348926 
L 102.544895 93.893879 
L 102.313396 93.738903 
L 102.069634 93.620732 
L 101.816935 94.984634 
L 100.941269 99.531576 
L 100.192915 104.224308 
L 100.007714 108.661832 
L 100.194199 111.738274 
L 100.592114 112.129162 
L 101.025175 112.460552 
L 101.44032 111.483494 
L 101.648981 108.451401 
L 101.919709 105.456055 
L 102.104534 104.043611 
L 102.249656 103.965799 
L 102.388494 103.855631 
L 102.683119 102.28404 
L 103.016921 102.26749 
L 103.350127 102.258166 
L 103.681571 102.236266 
L 104.14731 99.148133 
L 104.423786 95.386563 
L 104.556898 94.856812 
L 104.675738 95.99044 
L 104.784955 96.334319 
L 104.890462 96.329307 
L 104.996547 96.298756 
L 105.103204 96.262756 
L 105.104718 96.359115 
L 105.08545 96.49186 
L 105.020875 95.606433 
L 104.928254 95.658399 
L 104.797952 95.730072 
L 104.648269 95.8078 
L 104.492625 95.875096 
L 104.333701 95.937469 
L 104.19704 95.898494 
L 104.068162 95.860567 
L 103.940932 95.809976 
L 103.814896 95.753004 
L 103.668329 97.333995 
L 103.397732 96.79523 
L 103.212866 96.860925 
L 103.081635 95.063765 
L 103.393973 94.747544 
L 103.7108 95.805044 
L 103.895709 95.737162 
L 103.886703 97.835346 
L 103.384556 102.491086 
L 102.59687 105.546235 
L 101.695659 105.726461 
L 100.768171 105.891738 
L 100.232432 105.794912 
L 99.734985 105.61622 
L 99.28868 107.784789 
L 98.950825 108.059683 
L 99.226352 109.251003 
L 99.534014 109.24765 
L 99.843659 109.206574 
L 100.174828 110.537365 
L 100.507638 111.024371 
L 100.846433 111.919942 
L 101.143778 112.200016 
L 101.43342 112.428376 
L 101.787786 112.522769 
L 102.183701 111.613378 
L 102.66768 111.15839 
L 103.205782 111.547477 
L 103.712076 116.282219 
L 103.762214 117.153415 
L 103.846829 117.452827 
L 103.888549 115.96016 
L 104.596932 114.284533 
L 105.49019 114.173585 
L 106.403811 114.030143 
L 107.328977 113.906498 
L 108.609268 113.707685 
L 109.965299 113.575968 
L 111.344658 113.44119 
L 112.751775 112.800124 
L 114.435699 109.644963 
L 116.060977 106.794081 
L 117.575204 105.175209 
L 118.991598 102.018819 
L 120.056126 99.606106 
L 121.047835 97.451096 
L 121.870538 94.191347 
L 122.551226 93.318973 
L 123.002494 93.282359 
L 123.419273 93.23292 
L 123.825116 93.171246 
" clip-path="url(#pcf76551991)" style="fill: none; stroke: #ff0000; stroke-width: 1.1; stroke-linecap: square"/>
   </g>
   <g id="line2d_26">
    <path d="M 88.065464 80.240499 
L 88.577226 84.677146 
L 88.686317 85.690216 
L 88.623961 85.536321 
L 88.555404 85.385612 
L 88.500929 86.918892 
L 88.274398 86.766827 
L 88.035792 86.651185 
L 87.794681 88.00433 
L 86.953295 92.513196 
L 86.233892 97.164451 
L 86.064644 101.560024 
L 86.253294 104.604667 
L 86.639331 104.987408 
L 87.060251 105.311372 
L 87.457879 104.3385 
L 87.644526 101.329913 
L 87.89715 98.360092 
L 88.074595 96.960613 
L 88.219494 96.884364 
L 88.358151 96.776102 
L 88.642721 95.218519 
L 88.973074 95.202281 
L 89.302982 95.19326 
L 89.631144 95.171801 
L 90.076955 92.110537 
L 90.335288 88.38324 
L 90.465929 87.858885 
L 90.589746 88.983045 
L 90.700322 89.324383 
L 90.805467 89.31983 
L 90.911011 89.289935 
L 91.017067 89.254626 
L 91.016088 89.348682 
L 90.994033 89.478459 
L 90.923166 88.599387 
L 90.82966 88.649823 
L 90.699256 88.719928 
L 90.549825 88.796089 
L 90.39448 88.861925 
L 90.235882 88.922887 
L 90.101296 88.884621 
L 89.975004 88.847689 
L 89.85038 88.798254 
L 89.726958 88.742519 
L 89.587435 90.30863 
L 89.313853 89.772866 
L 89.128975 89.836799 
L 88.990048 88.055074 
L 89.301862 87.74384 
L 89.62387 88.793906 
L 89.808719 88.727772 
L 89.808343 90.806885 
L 89.333277 95.421708 
L 88.565459 98.448591 
L 87.671071 98.625215 
L 86.750623 98.787015 
L 86.224019 98.692882 
L 85.735748 98.518026 
L 85.307759 100.669359 
L 84.974416 100.941601 
L 85.255834 102.124289 
L 85.561799 102.121844 
L 85.869218 102.081835 
L 86.203696 103.401462 
L 86.532824 103.883081 
L 86.868782 104.769213 
L 87.159089 105.044271 
L 87.441246 105.267915 
L 87.789206 105.359992 
L 88.175386 104.457931 
L 88.652747 104.007337 
L 89.188349 104.393881 
L 89.711152 109.087574 
L 89.758144 109.947808 
L 89.835891 110.240857 
L 89.863579 108.757728 
L 90.558669 107.097858 
L 91.444746 106.989526 
L 92.350897 106.849024 
L 93.268569 106.72815 
L 94.537398 106.532919 
L 95.881472 106.40421 
L 97.248598 106.272464 
L 98.640837 105.638836 
L 100.290418 102.510644 
L 101.881167 99.683037 
L 103.366249 98.075935 
L 104.747686 94.945011 
L 105.783757 92.550883 
L 106.749413 90.412447 
L 107.543179 87.179316 
L 108.207841 86.312547 
L 108.654659 86.276628 
L 109.068143 86.228402 
L 109.47098 86.168158 
" clip-path="url(#pcf76551991)" style="fill: none; stroke: #ff0000; stroke-width: 1.1; stroke-linecap: square"/>
   </g>
   <g id="line2d_27">
    <path d="M 153.232081 64.428626 
L 153.601811 68.782693 
L 153.660556 69.781406 
L 153.582351 69.635729 
L 153.498524 69.49305 
L 153.395725 70.999229 
L 153.164189 70.853709 
L 152.920648 70.743736 
L 152.646123 72.071963 
L 151.715405 76.492886 
L 150.921039 81.04859 
L 150.693296 85.347805 
L 150.858063 88.319676 
L 151.268063 88.684142 
L 151.711455 88.991469 
L 152.157249 88.028707 
L 152.427972 85.074617 
L 152.742205 82.163697 
L 152.93913 80.794038 
L 153.074077 80.721296 
L 153.203065 80.61733 
L 153.510917 79.092007 
L 153.831668 79.076469 
L 154.151342 79.068124 
L 154.46933 79.047655 
L 154.970068 76.048339 
L 155.289496 72.399894 
L 155.42124 71.887895 
L 155.513594 72.990183 
L 155.609785 73.325615 
L 155.708594 73.322076 
L 155.808573 73.293652 
L 155.909287 73.259895 
L 155.919453 73.348799 
L 155.911431 73.471928 
L 155.873847 72.607652 
L 155.79134 72.654676 
L 155.671242 72.721268 
L 155.531992 72.793912 
L 155.387065 72.856474 
L 155.239015 72.914276 
L 155.105391 72.877607 
L 154.977159 72.842899 
L 154.850379 72.796051 
L 154.72468 72.743087 
L 154.564395 74.275013 
L 154.324782 73.746349 
L 154.153952 73.806348 
L 154.059782 72.060231 
L 154.35031 71.760254 
L 154.624907 72.79299 
L 154.796037 72.730763 
L 154.757331 74.765994 
L 154.197739 79.286525 
L 153.399477 82.248418 
L 152.542251 82.416956 
L 151.659999 82.570957 
L 151.132461 82.482833 
L 150.640152 82.316581 
L 150.162689 84.428 
L 149.83438 84.694156 
L 150.068184 85.856758 
L 150.358613 85.856314 
L 150.652754 85.818689 
L 150.9472 87.112535 
L 151.267933 87.581857 
L 151.591209 88.446404 
L 151.891016 88.710174 
L 152.185273 88.923233 
L 152.535545 89.010131 
L 152.935975 88.125031 
L 153.406812 87.684521 
L 153.913166 88.065112 
L 154.323168 92.664155 
L 154.380614 93.499478 
L 154.483052 93.778256 
L 154.57105 92.317484 
L 155.272865 90.693818 
L 156.124131 90.591339 
L 156.995264 90.457435 
L 157.877189 90.342769 
L 159.101497 90.155596 
L 160.397638 90.033627 
L 161.716359 89.908669 
L 163.070005 89.291992 
L 164.747273 86.226026 
L 166.370637 83.452243 
L 167.872393 81.872527 
L 169.303428 78.800527 
L 170.386277 76.449507 
L 171.393319 74.349524 
L 172.253717 71.177953 
L 172.938368 70.324326 
L 173.371111 70.289966 
L 173.768001 70.244451 
L 174.153788 70.187409 
" clip-path="url(#pcf76551991)" style="fill: none; stroke: #ff0000; stroke-width: 1.1; stroke-linecap: square"/>
   </g>
   <g id="line2d_28">
    <path d="M 151.531082 57.676853 
L 151.89998 61.995152 
L 151.959295 62.987547 
L 151.882421 62.84531 
L 151.799976 62.705995 
L 151.699617 64.200404 
L 151.470958 64.057637 
L 151.230435 63.950042 
L 150.960009 65.267471 
L 150.042559 69.650398 
L 149.259458 74.164919 
L 149.035854 78.422725 
L 149.199265 81.363434 
L 149.603827 81.72023 
L 150.041417 82.020584 
L 150.480735 81.062375 
L 150.746149 78.131918 
L 151.05511 75.246429 
L 151.249208 73.8896 
L 151.382802 73.818331 
L 151.510501 73.716176 
L 151.814109 72.204752 
L 152.131291 72.189508 
L 152.447425 72.181444 
L 152.761891 72.161392 
L 153.255277 69.188795 
L 153.569344 65.574293 
L 153.69949 65.067588 
L 153.791548 66.160424 
L 153.886961 66.493288 
L 153.984755 66.490167 
L 154.083685 66.462361 
L 154.183337 66.429255 
L 154.193097 66.516003 
L 154.18481 66.636346 
L 154.146821 65.778514 
L 154.065016 65.824114 
L 153.946086 65.889234 
L 153.808236 65.960402 
L 153.664771 66.021591 
L 153.518216 66.078069 
L 153.386161 66.042072 
L 153.259508 66.008293 
L 153.134294 65.962529 
L 153.010151 65.910726 
L 152.852302 67.427957 
L 152.614683 66.902432 
L 152.445533 66.960788 
L 152.351353 65.23004 
L 152.638956 64.934817 
L 152.911482 65.959998 
L 153.080921 65.899404 
L 153.043651 67.915744 
L 152.492863 72.395622 
L 151.704855 75.32956 
L 150.856875 75.494701 
L 149.984146 75.64543 
L 149.462894 75.559815 
L 148.976527 75.39717 
L 148.505944 77.491301 
L 148.181402 77.754844 
L 148.413607 78.908706 
L 148.700979 78.909085 
L 148.991964 78.872456 
L 149.283914 80.155164 
L 149.601058 80.619235 
L 149.920822 81.474545 
L 150.216842 81.733561 
L 150.507311 81.942178 
L 150.853375 82.026908 
L 151.2487 81.14915 
L 151.714116 80.712971 
L 152.215202 81.090956 
L 152.623199 85.64917 
L 152.6797 86.4739 
L 152.780298 86.746691 
L 152.865721 85.295715 
L 153.559035 83.687612 
L 154.401084 83.587583 
L 155.262774 83.456449 
L 156.13515 83.344384 
L 157.346075 83.160604 
L 158.628075 83.041459 
L 159.932406 82.919347 
L 161.270989 82.309897 
L 162.927539 79.27079 
L 164.530652 76.520291 
L 166.01401 74.952491 
L 167.42654 71.905997 
L 168.495097 69.573681 
L 169.488881 67.490381 
L 170.33704 64.345444 
L 171.01288 63.497576 
L 171.440815 63.463872 
L 171.833403 63.419491 
L 172.215035 63.36379 
" clip-path="url(#pcf76551991)" style="fill: none; stroke: #ff0000; stroke-width: 1.1; stroke-linecap: square"/>
   </g>
   <g id="line2d_29">
    <path d="M 139.096044 57.99469 
L 139.489473 62.314679 
L 139.557797 63.307374 
L 139.484177 63.164977 
L 139.404903 63.025503 
L 139.313878 64.52047 
L 139.087137 64.377573 
L 138.848571 64.269867 
L 138.585473 65.587807 
L 137.688456 69.972528 
L 136.922548 74.488993 
L 136.710676 78.748752 
L 136.877773 81.690929 
L 137.276172 82.048084 
L 137.707729 82.348764 
L 138.136274 81.390339 
L 138.385059 78.458764 
L 138.681336 75.572073 
L 138.871003 74.214639 
L 139.005846 74.143302 
L 139.134769 74.041062 
L 139.432769 72.528981 
L 139.750336 72.513724 
L 140.066976 72.505647 
L 140.381945 72.485575 
L 140.863062 69.511717 
L 141.164503 65.895613 
L 141.293877 65.388659 
L 141.391329 66.481941 
L 141.488975 66.814927 
L 141.58751 66.811786 
L 141.687033 66.783951 
L 141.787234 66.750815 
L 141.794897 66.837664 
L 141.784061 66.958138 
L 141.740106 66.1 
L 141.656632 66.145667 
L 141.536324 66.210856 
L 141.3972 66.282093 
L 141.252444 66.343346 
L 141.104587 66.399886 
L 140.972932 66.363858 
L 140.847189 66.330035 
L 140.72292 66.284221 
L 140.599739 66.232363 
L 140.446404 67.750287 
L 140.203567 67.224613 
L 140.03257 67.283046 
L 139.930561 65.551572 
L 140.220825 65.256126 
L 140.500891 66.281665 
L 140.672116 66.220995 
L 140.642069 68.238226 
L 140.109251 72.720023 
L 139.330283 75.655279 
L 138.479156 75.820579 
L 137.603198 75.971462 
L 137.084387 75.88573 
L 136.600879 75.722916 
L 136.141442 77.817864 
L 135.817384 78.08153 
L 136.057336 79.235805 
L 136.346318 79.236146 
L 136.638482 79.199471 
L 136.936529 80.482705 
L 137.253841 80.947022 
L 137.574549 81.802768 
L 137.867536 82.062007 
L 138.154515 82.270832 
L 138.49865 82.355664 
L 138.889632 81.477559 
L 139.354225 81.041175 
L 139.858517 81.419283 
L 140.285518 85.979426 
L 140.339847 86.804654 
L 140.435459 87.077725 
L 140.509401 85.626284 
L 141.198457 84.017448 
L 142.043255 83.917303 
L 142.907647 83.78604 
L 143.782815 83.673853 
L 144.996676 83.489914 
L 146.281935 83.370636 
L 147.589517 83.248391 
L 148.929391 82.638601 
L 150.573589 79.598226 
L 152.163656 76.846627 
L 153.637428 75.278263 
L 155.034577 72.230564 
L 156.089772 69.897363 
L 157.071513 67.813275 
L 157.903585 64.667079 
L 158.572735 63.818938 
L 159.00139 63.785203 
L 159.39532 63.740769 
L 159.778427 63.685005 
" clip-path="url(#pcf76551991)" style="fill: none; stroke: #ff0000; stroke-width: 1.1; stroke-linecap: square"/>
   </g>
   <g id="line2d_30">
    <path d="M 169.074721 71.578444 
L 169.417145 75.970057 
L 169.464886 76.975338 
L 169.381457 76.825973 
L 169.292441 76.67969 
L 169.176186 78.198203 
L 168.939239 78.049741 
L 168.690088 77.937222 
L 168.402569 79.276781 
L 167.433573 83.737651 
L 166.606889 88.336716 
L 166.361043 92.679609 
L 166.523079 95.684421 
L 166.946221 96.057097 
L 167.40301 96.371893 
L 167.868406 95.404464 
L 168.164171 92.425584 
L 168.498866 89.487917 
L 168.704037 88.104734 
L 168.83905 88.030416 
L 168.968064 87.924518 
L 169.287094 86.384557 
L 169.611374 86.368704 
L 169.934407 86.360056 
L 170.255736 86.339143 
L 170.778776 83.311706 
L 171.118701 79.627496 
L 171.253112 79.109902 
L 171.339589 80.222126 
L 171.434075 80.560247 
L 171.533162 80.556255 
L 171.633624 80.527171 
L 171.73489 80.492716 
L 171.747921 80.583932 
L 171.743126 80.710046 
L 171.712859 79.839029 
L 171.631492 79.887581 
L 171.511681 79.955751 
L 171.372338 80.029975 
L 171.227271 80.094007 
L 171.079054 80.153228 
L 170.943223 80.115841 
L 170.812187 80.080136 
L 170.682577 80.032126 
L 170.554038 79.977917 
L 170.385846 81.525341 
L 170.150019 80.993423 
L 169.979445 81.055186 
L 169.894297 79.292901 
L 170.185017 78.987855 
L 170.453242 80.028491 
L 170.624198 79.964512 
L 170.575583 82.019648 
L 169.985512 86.582974 
L 169.165434 89.574337 
L 168.301537 89.746508 
L 167.412401 89.904012 
L 166.875058 89.813194 
L 166.372847 89.643078 
L 165.874901 91.772645 
L 165.541843 92.041559 
L 165.768513 93.213311 
L 166.060492 93.211974 
L 166.356789 93.173279 
L 166.646999 94.478836 
L 166.971533 94.953719 
L 167.29763 95.828034 
L 167.605143 96.096881 
L 167.90763 96.314695 
L 168.264807 96.403917 
L 168.675915 95.511107 
L 169.153731 95.066028 
L 169.662261 95.449336 
L 170.052627 100.091346 
L 170.113624 100.937916 
L 170.223848 101.223103 
L 170.327922 99.75212 
L 171.044096 98.112042 
L 171.902458 98.006935 
L 172.780992 97.870068 
L 173.670332 97.752614 
L 174.906155 97.561817 
L 176.214285 97.436823 
L 177.545281 97.308817 
L 178.914207 96.68448 
L 180.628747 93.590258 
L 182.289666 90.792015 
L 183.822933 89.199826 
L 185.29227 86.101041 
L 186.40641 83.730409 
L 187.442074 81.61293 
L 188.334619 78.413382 
L 189.036781 77.553752 
L 189.474047 77.518692 
L 189.874181 77.47196 
L 190.262893 77.413482 
" clip-path="url(#pcf76551991)" style="fill: none; stroke: #ff0000; stroke-width: 1.1; stroke-linecap: square"/>
   </g>
   <g id="line2d_31">
    <path d="M 150.463211 54.386872 
L 150.832141 58.687632 
L 150.891896 59.676909 
L 150.815729 59.536334 
L 150.734015 59.398642 
L 150.635014 60.887274 
L 150.407794 60.745839 
L 150.168779 60.639393 
L 149.900485 61.951527 
L 148.989878 66.315842 
L 148.212583 70.810213 
L 147.991209 75.047785 
L 148.154024 77.973291 
L 148.555821 78.326378 
L 148.990471 78.623362 
L 149.426434 77.667423 
L 149.688959 74.748561 
L 149.995121 71.875523 
L 150.18776 70.524968 
L 150.320715 70.454412 
L 150.447807 70.353133 
L 150.749244 68.848509 
L 151.06469 68.833408 
L 151.379104 68.825479 
L 151.69186 68.805628 
L 152.181438 65.846109 
L 152.492663 62.248205 
L 152.622015 61.744084 
L 152.714025 62.832289 
L 152.809098 63.163892 
L 152.90641 63.160972 
L 153.004839 63.133464 
L 153.103982 63.100675 
L 153.113505 63.186381 
L 153.105044 63.305378 
L 153.066751 62.450712 
L 152.985259 62.495627 
L 152.866875 62.560035 
L 152.729685 62.630488 
L 152.586911 62.691014 
L 152.441063 62.746853 
L 152.309781 62.711181 
L 152.183914 62.677851 
L 152.059482 62.63261 
L 151.936115 62.581368 
L 151.779537 64.091418 
L 151.542797 63.567446 
L 151.374434 63.625009 
L 151.28011 61.901785 
L 151.566332 61.608868 
L 151.837983 62.630334 
L 152.006629 62.570528 
L 151.970188 64.577629 
L 151.424018 69.037614 
L 150.641177 71.957884 
L 149.797655 72.121383 
L 148.929517 72.270531 
L 148.411376 72.186126 
L 147.927961 72.025225 
L 147.460936 74.110878 
L 147.138241 74.373145 
L 147.369804 75.522711 
L 147.655713 75.523485 
L 147.945179 75.487337 
L 148.23602 76.76459 
L 148.551415 77.226101 
L 148.86948 78.076907 
L 149.163598 78.333621 
L 149.452155 78.54009 
L 149.79613 78.623774 
L 150.188885 77.749614 
L 150.651641 77.31555 
L 151.150212 77.692252 
L 151.55757 82.230482 
L 151.61357 83.050059 
L 151.713181 83.319956 
L 151.797142 81.873808 
L 152.48623 80.273311 
L 153.323829 80.174465 
L 154.180958 80.044671 
L 155.048722 79.933863 
L 156.253166 79.751726 
L 157.528321 79.633944 
L 158.825684 79.513206 
L 160.156936 78.907276 
L 161.803154 75.88132 
L 163.396149 73.142231 
L 164.870355 71.580287 
L 166.27358 68.546296 
L 167.334923 66.223157 
L 168.322022 64.148045 
L 169.163923 61.016161 
L 169.835343 60.171131 
L 170.260945 60.137745 
L 170.651456 60.093911 
L 171.031086 60.038857 
" clip-path="url(#pcf76551991)" style="fill: none; stroke: #ff0000; stroke-width: 1.1; stroke-linecap: square"/>
   </g>
   <g id="Path3DCollection_1">
    <defs>
     <path id="mdbbb9143eb" d="M 0 -4.472136 
L -4.472136 4.472136 
L 4.472136 4.472136 
z
" style="stroke: #87ceeb"/>
    </defs>
    <g clip-path="url(#pcf76551991)">
     <use xlink:href="#mdbbb9143eb" x="138.092486" y="153.027325" style="fill: #87ceeb; stroke: #87ceeb"/>
    </g>
   </g>
   <g id="text_22">
    <!-- Timmins -->
    <g transform="translate(125.084429 170.59822) scale(0.09 -0.09)">
     <defs>
      <path id="DejaVuSerif-54" d="M 1222 0 
L 1222 331 
L 1819 331 
L 1819 4294 
L 447 4294 
L 447 3566 
L 63 3566 
L 63 4666 
L 4206 4666 
L 4206 3566 
L 3822 3566 
L 3822 4294 
L 2450 4294 
L 2450 331 
L 3047 331 
L 3047 0 
L 1222 0 
z
" transform="scale(0.015625)"/>
      <path id="DejaVuSerif-73" d="M 359 184 
L 359 959 
L 691 959 
Q 703 588 923 403 
Q 1144 219 1575 219 
Q 1963 219 2166 364 
Q 2369 509 2369 788 
Q 2369 1006 2220 1140 
Q 2072 1275 1594 1428 
L 1178 1569 
Q 750 1706 558 1912 
Q 366 2119 366 2438 
Q 366 2894 700 3153 
Q 1034 3413 1625 3413 
Q 1888 3413 2178 3344 
Q 2469 3275 2778 3144 
L 2778 2419 
L 2447 2419 
Q 2434 2741 2221 2922 
Q 2009 3103 1644 3103 
Q 1281 3103 1095 2975 
Q 909 2847 909 2591 
Q 909 2381 1050 2254 
Q 1191 2128 1613 1997 
L 2069 1856 
Q 2541 1709 2748 1489 
Q 2956 1269 2956 922 
Q 2956 450 2595 179 
Q 2234 -91 1600 -91 
Q 1278 -91 972 -22 
Q 666 47 359 184 
z
" transform="scale(0.015625)"/>
     </defs>
     <use xlink:href="#DejaVuSerif-54"/>
     <use xlink:href="#DejaVuSerif-69" transform="translate(66.699219 0)"/>
     <use xlink:href="#DejaVuSerif-6d" transform="translate(98.681641 0)"/>
     <use xlink:href="#DejaVuSerif-6d" transform="translate(193.505859 0)"/>
     <use xlink:href="#DejaVuSerif-69" transform="translate(288.330078 0)"/>
     <use xlink:href="#DejaVuSerif-6e" transform="translate(320.3125 0)"/>
     <use xlink:href="#DejaVuSerif-73" transform="translate(384.716797 0)"/>
    </g>
   </g>
   <g id="text_23">
    <!-- Iroquois Falls -->
    <g transform="translate(172.155895 175.691804) scale(0.09 -0.09)">
     <defs>
      <path id="DejaVuSerif-49" d="M 1581 331 
L 2175 331 
L 2175 0 
L 353 0 
L 353 331 
L 947 331 
L 947 4331 
L 353 4331 
L 353 4666 
L 2175 4666 
L 2175 4331 
L 1581 4331 
L 1581 331 
z
" transform="scale(0.015625)"/>
      <path id="DejaVuSerif-72" d="M 3059 3328 
L 3059 2497 
L 2728 2497 
Q 2713 2744 2591 2866 
Q 2469 2988 2234 2988 
Q 1809 2988 1582 2694 
Q 1356 2400 1356 1850 
L 1356 331 
L 2022 331 
L 2022 0 
L 263 0 
L 263 331 
L 781 331 
L 781 2994 
L 231 2994 
L 231 3322 
L 1356 3322 
L 1356 2731 
Q 1525 3078 1790 3245 
Q 2056 3413 2438 3413 
Q 2578 3413 2733 3391 
Q 2888 3369 3059 3328 
z
" transform="scale(0.015625)"/>
      <path id="DejaVuSerif-71" d="M 3359 2988 
L 3359 -997 
L 3909 -997 
L 3909 -1331 
L 2241 -1331 
L 2241 -997 
L 2784 -997 
L 2784 519 
Q 2616 206 2355 57 
Q 2094 -91 1709 -91 
Q 1097 -91 708 395 
Q 319 881 319 1663 
Q 319 2444 706 2928 
Q 1094 3413 1709 3413 
Q 2094 3413 2355 3264 
Q 2616 3116 2784 2803 
L 2784 3322 
L 3909 3322 
L 3909 2988 
L 3359 2988 
z
M 2784 1825 
Q 2784 2422 2554 2737 
Q 2325 3053 1888 3053 
Q 1444 3053 1217 2703 
Q 991 2353 991 1663 
Q 991 975 1217 622 
Q 1444 269 1888 269 
Q 2325 269 2554 583 
Q 2784 897 2784 1497 
L 2784 1825 
z
" transform="scale(0.015625)"/>
      <path id="DejaVuSerif-46" d="M 353 0 
L 353 331 
L 947 331 
L 947 4331 
L 353 4331 
L 353 4666 
L 4172 4666 
L 4172 3628 
L 3788 3628 
L 3788 4281 
L 1581 4281 
L 1581 2719 
L 3175 2719 
L 3175 3303 
L 3559 3303 
L 3559 1753 
L 3175 1753 
L 3175 2338 
L 1581 2338 
L 1581 331 
L 2328 331 
L 2328 0 
L 353 0 
z
" transform="scale(0.015625)"/>
     </defs>
     <use xlink:href="#DejaVuSerif-49"/>
     <use xlink:href="#DejaVuSerif-72" transform="translate(39.501953 0)"/>
     <use xlink:href="#DejaVuSerif-6f" transform="translate(87.304688 0)"/>
     <use xlink:href="#DejaVuSerif-71" transform="translate(147.509766 0)"/>
     <use xlink:href="#DejaVuSerif-75" transform="translate(211.523438 0)"/>
     <use xlink:href="#DejaVuSerif-6f" transform="translate(275.927734 0)"/>
     <use xlink:href="#DejaVuSerif-69" transform="translate(336.132812 0)"/>
     <use xlink:href="#DejaVuSerif-73" transform="translate(368.115234 0)"/>
     <use xlink:href="#DejaVuSerif-20" transform="translate(419.433594 0)"/>
     <use xlink:href="#DejaVuSerif-46" transform="translate(451.220703 0)"/>
     <use xlink:href="#DejaVuSerif-61" transform="translate(513.855469 0)"/>
     <use xlink:href="#DejaVuSerif-6c" transform="translate(573.474609 0)"/>
     <use xlink:href="#DejaVuSerif-6c" transform="translate(605.457031 0)"/>
     <use xlink:href="#DejaVuSerif-73" transform="translate(637.439453 0)"/>
    </g>
   </g>
   <g id="text_24">
    <!-- Kapuskasing -->
    <g transform="translate(140.05286 152.405404) scale(0.09 -0.09)">
     <defs>
      <path id="DejaVuSerif-4b" d="M 353 0 
L 353 331 
L 947 331 
L 947 4331 
L 353 4331 
L 353 4666 
L 2175 4666 
L 2175 4331 
L 1581 4331 
L 1581 2566 
L 3591 4331 
L 3084 4331 
L 3084 4666 
L 4634 4666 
L 4634 4331 
L 4109 4331 
L 2106 2572 
L 4347 331 
L 4878 331 
L 4878 0 
L 3794 0 
L 1581 2216 
L 1581 331 
L 2175 331 
L 2175 0 
L 353 0 
z
" transform="scale(0.015625)"/>
      <path id="DejaVuSerif-70" d="M 1313 1825 
L 1313 1497 
Q 1313 897 1542 583 
Q 1772 269 2209 269 
Q 2650 269 2876 622 
Q 3103 975 3103 1663 
Q 3103 2353 2876 2703 
Q 2650 3053 2209 3053 
Q 1772 3053 1542 2737 
Q 1313 2422 1313 1825 
z
M 738 2988 
L 184 2988 
L 184 3322 
L 1313 3322 
L 1313 2803 
Q 1481 3116 1742 3264 
Q 2003 3413 2388 3413 
Q 3000 3413 3387 2928 
Q 3775 2444 3775 1663 
Q 3775 881 3387 395 
Q 3000 -91 2388 -91 
Q 2003 -91 1742 57 
Q 1481 206 1313 519 
L 1313 -997 
L 1856 -997 
L 1856 -1331 
L 184 -1331 
L 184 -997 
L 738 -997 
L 738 2988 
z
" transform="scale(0.015625)"/>
     </defs>
     <use xlink:href="#DejaVuSerif-4b"/>
     <use xlink:href="#DejaVuSerif-61" transform="translate(74.707031 0)"/>
     <use xlink:href="#DejaVuSerif-70" transform="translate(134.326172 0)"/>
     <use xlink:href="#DejaVuSerif-75" transform="translate(198.339844 0)"/>
     <use xlink:href="#DejaVuSerif-73" transform="translate(262.744141 0)"/>
     <use xlink:href="#DejaVuSerif-6b" transform="translate(314.0625 0)"/>
     <use xlink:href="#DejaVuSerif-61" transform="translate(374.658203 0)"/>
     <use xlink:href="#DejaVuSerif-73" transform="translate(434.277344 0)"/>
     <use xlink:href="#DejaVuSerif-69" transform="translate(485.595703 0)"/>
     <use xlink:href="#DejaVuSerif-6e" transform="translate(517.578125 0)"/>
     <use xlink:href="#DejaVuSerif-67" transform="translate(581.982422 0)"/>
    </g>
   </g>
   <g id="text_25">
    <!-- Cochrane -->
    <g transform="translate(169.844544 167.979413) scale(0.09 -0.09)">
     <defs>
      <path id="DejaVuSerif-43" d="M 4513 1234 
Q 4306 581 3820 245 
Q 3334 -91 2591 -91 
Q 2134 -91 1743 65 
Q 1353 222 1050 525 
Q 700 875 529 1320 
Q 359 1766 359 2328 
Q 359 3416 987 4083 
Q 1616 4750 2644 4750 
Q 3025 4750 3456 4650 
Q 3888 4550 4384 4347 
L 4384 3272 
L 4031 3272 
Q 3916 3859 3567 4137 
Q 3219 4416 2591 4416 
Q 1844 4416 1459 3886 
Q 1075 3356 1075 2328 
Q 1075 1303 1459 773 
Q 1844 244 2591 244 
Q 3113 244 3450 492 
Q 3788 741 3938 1234 
L 4513 1234 
z
" transform="scale(0.015625)"/>
      <path id="DejaVuSerif-63" d="M 3291 997 
Q 3169 466 2822 187 
Q 2475 -91 1925 -91 
Q 1200 -91 759 389 
Q 319 869 319 1663 
Q 319 2459 759 2936 
Q 1200 3413 1925 3413 
Q 2241 3413 2553 3339 
Q 2866 3266 3181 3116 
L 3181 2266 
L 2847 2266 
Q 2781 2703 2561 2903 
Q 2341 3103 1931 3103 
Q 1466 3103 1228 2742 
Q 991 2381 991 1663 
Q 991 944 1227 581 
Q 1463 219 1931 219 
Q 2303 219 2525 412 
Q 2747 606 2828 997 
L 3291 997 
z
" transform="scale(0.015625)"/>
      <path id="DejaVuSerif-68" d="M 263 0 
L 263 331 
L 781 331 
L 781 4531 
L 231 4531 
L 231 4863 
L 1356 4863 
L 1356 2731 
Q 1516 3069 1770 3241 
Q 2025 3413 2363 3413 
Q 2913 3413 3172 3097 
Q 3431 2781 3431 2113 
L 3431 331 
L 3944 331 
L 3944 0 
L 2356 0 
L 2356 331 
L 2853 331 
L 2853 1931 
Q 2853 2541 2704 2764 
Q 2556 2988 2175 2988 
Q 1775 2988 1565 2697 
Q 1356 2406 1356 1850 
L 1356 331 
L 1856 331 
L 1856 0 
L 263 0 
z
" transform="scale(0.015625)"/>
     </defs>
     <use xlink:href="#DejaVuSerif-43"/>
     <use xlink:href="#DejaVuSerif-6f" transform="translate(76.513672 0)"/>
     <use xlink:href="#DejaVuSerif-63" transform="translate(136.71875 0)"/>
     <use xlink:href="#DejaVuSerif-68" transform="translate(192.724609 0)"/>
     <use xlink:href="#DejaVuSerif-72" transform="translate(257.128906 0)"/>
     <use xlink:href="#DejaVuSerif-61" transform="translate(304.931641 0)"/>
     <use xlink:href="#DejaVuSerif-6e" transform="translate(364.550781 0)"/>
     <use xlink:href="#DejaVuSerif-65" transform="translate(428.955078 0)"/>
    </g>
   </g>
   <g id="text_26">
    <!-- Kirkland Lake -->
    <g transform="translate(176.00309 191.781212) scale(0.09 -0.09)">
     <use xlink:href="#DejaVuSerif-4b"/>
     <use xlink:href="#DejaVuSerif-69" transform="translate(74.707031 0)"/>
     <use xlink:href="#DejaVuSerif-72" transform="translate(106.689453 0)"/>
     <use xlink:href="#DejaVuSerif-6b" transform="translate(154.492188 0)"/>
     <use xlink:href="#DejaVuSerif-6c" transform="translate(215.087891 0)"/>
     <use xlink:href="#DejaVuSerif-61" transform="translate(247.070312 0)"/>
     <use xlink:href="#DejaVuSerif-6e" transform="translate(306.689453 0)"/>
     <use xlink:href="#DejaVuSerif-64" transform="translate(371.09375 0)"/>
     <use xlink:href="#DejaVuSerif-20" transform="translate(435.107422 0)"/>
     <use xlink:href="#DejaVuSerif-4c" transform="translate(466.894531 0)"/>
     <use xlink:href="#DejaVuSerif-61" transform="translate(533.300781 0)"/>
     <use xlink:href="#DejaVuSerif-6b" transform="translate(592.919922 0)"/>
     <use xlink:href="#DejaVuSerif-65" transform="translate(653.515625 0)"/>
    </g>
   </g>
   <g id="text_27">
    <!-- NorthBay -->
    <g transform="translate(39.786868 203.11278) scale(0.09 -0.09)">
     <defs>
      <path id="DejaVuSerif-4e" d="M 313 0 
L 313 331 
L 941 331 
L 941 4331 
L 313 4331 
L 313 4666 
L 1509 4666 
L 4306 984 
L 4306 4331 
L 3681 4331 
L 3681 4666 
L 5319 4666 
L 5319 4331 
L 4691 4331 
L 4691 -91 
L 4313 -91 
L 1325 3841 
L 1325 331 
L 1953 331 
L 1953 0 
L 313 0 
z
" transform="scale(0.015625)"/>
      <path id="DejaVuSerif-42" d="M 1581 331 
L 2516 331 
Q 3078 331 3337 575 
Q 3597 819 3597 1350 
Q 3597 1878 3339 2120 
Q 3081 2363 2516 2363 
L 1581 2363 
L 1581 331 
z
M 1581 2694 
L 2375 2694 
Q 2888 2694 3123 2891 
Q 3359 3088 3359 3513 
Q 3359 3941 3123 4136 
Q 2888 4331 2375 4331 
L 1581 4331 
L 1581 2694 
z
M 353 0 
L 353 331 
L 947 331 
L 947 4331 
L 353 4331 
L 353 4666 
L 2656 4666 
Q 3363 4666 3720 4377 
Q 4078 4088 4078 3513 
Q 4078 3097 3829 2850 
Q 3581 2603 3103 2547 
Q 3697 2472 4005 2167 
Q 4313 1863 4313 1350 
Q 4313 656 3875 328 
Q 3438 0 2509 0 
L 353 0 
z
" transform="scale(0.015625)"/>
      <path id="DejaVuSerif-79" d="M 1381 -609 
L 1600 -56 
L 359 2988 
L -19 2988 
L -19 3322 
L 1509 3322 
L 1509 2988 
L 978 2988 
L 1913 703 
L 2847 2988 
L 2350 2988 
L 2350 3322 
L 3597 3322 
L 3597 2988 
L 3225 2988 
L 1703 -750 
Q 1547 -1138 1356 -1280 
Q 1166 -1422 819 -1422 
Q 672 -1422 517 -1397 
Q 363 -1372 206 -1325 
L 206 -691 
L 500 -691 
Q 519 -903 608 -995 
Q 697 -1088 884 -1088 
Q 1056 -1088 1161 -992 
Q 1266 -897 1381 -609 
z
" transform="scale(0.015625)"/>
     </defs>
     <use xlink:href="#DejaVuSerif-4e"/>
     <use xlink:href="#DejaVuSerif-6f" transform="translate(87.5 0)"/>
     <use xlink:href="#DejaVuSerif-72" transform="translate(147.705078 0)"/>
     <use xlink:href="#DejaVuSerif-74" transform="translate(195.507812 0)"/>
     <use xlink:href="#DejaVuSerif-68" transform="translate(235.693359 0)"/>
     <use xlink:href="#DejaVuSerif-42" transform="translate(300.097656 0)"/>
     <use xlink:href="#DejaVuSerif-61" transform="translate(373.583984 0)"/>
     <use xlink:href="#DejaVuSerif-79" transform="translate(433.203125 0)"/>
    </g>
   </g>
   <g id="text_28">
    <!-- 0 -->
    <g style="fill: #ff0000" transform="translate(89.827349 74.753784) scale(0.09 -0.09)">
     <defs>
      <path id="DejaVuSerif-Italic-30" d="M 1011 744 
Q 1147 219 1625 219 
Q 2103 219 2442 744 
Q 2781 1269 2988 2328 
Q 3194 3391 3058 3916 
Q 2922 4441 2444 4441 
Q 1966 4441 1627 3916 
Q 1288 3391 1081 2328 
Q 875 1269 1011 744 
z
M 1563 -91 
Q 803 -91 501 546 
Q 200 1184 422 2328 
Q 644 3475 1195 4112 
Q 1747 4750 2506 4750 
Q 3269 4750 3569 4112 
Q 3869 3475 3647 2328 
Q 3425 1184 2875 546 
Q 2325 -91 1563 -91 
z
" transform="scale(0.015625)"/>
     </defs>
     <use xlink:href="#DejaVuSerif-Italic-30"/>
    </g>
   </g>
   <g id="text_29">
    <!-- 1 -->
    <g style="fill: #ff0000" transform="translate(105.071461 82.103065) scale(0.09 -0.09)">
     <defs>
      <path id="DejaVuSerif-Italic-31" d="M 447 0 
L 513 331 
L 1325 331 
L 2078 4213 
L 1019 3603 
L 1100 4013 
L 2381 4750 
L 2813 4750 
L 1953 331 
L 2766 331 
L 2700 0 
L 447 0 
z
" transform="scale(0.015625)"/>
     </defs>
     <use xlink:href="#DejaVuSerif-Italic-31"/>
    </g>
   </g>
   <g id="text_30">
    <!-- 2 -->
    <g style="fill: #ff0000" transform="translate(105.918558 85.686341) scale(0.09 -0.09)">
     <defs>
      <path id="DejaVuSerif-Italic-32" d="M 1050 3553 
L 700 3553 
L 863 4384 
Q 1231 4563 1589 4656 
Q 1947 4750 2272 4750 
Q 3000 4750 3353 4397 
Q 3706 4044 3588 3438 
Q 3456 2753 2313 1800 
Q 2225 1728 2178 1691 
L 772 513 
L 2719 513 
L 2831 1088 
L 3197 1088 
L 2984 0 
L -25 0 
L 41 341 
L 1731 1753 
Q 2291 2222 2567 2614 
Q 2844 3006 2928 3438 
Q 3019 3909 2825 4175 
Q 2631 4441 2200 4441 
Q 1753 4441 1467 4219 
Q 1181 3997 1050 3553 
z
" transform="scale(0.015625)"/>
     </defs>
     <use xlink:href="#DejaVuSerif-Italic-32"/>
    </g>
   </g>
   <g id="text_31">
    <!-- 3 -->
    <g style="fill: #ff0000" transform="translate(107.147711 93.045035) scale(0.09 -0.09)">
     <defs>
      <path id="DejaVuSerif-Italic-33" d="M 1038 4469 
Q 1431 4606 1781 4678 
Q 2131 4750 2425 4750 
Q 3109 4750 3436 4454 
Q 3763 4159 3659 3634 
Q 3578 3213 3258 2930 
Q 2938 2647 2431 2547 
Q 2988 2466 3241 2130 
Q 3494 1794 3388 1259 
Q 3263 606 2755 257 
Q 2247 -91 1422 -91 
Q 1056 -91 723 -12 
Q 391 66 78 225 
L 253 1131 
L 603 1131 
Q 547 681 775 450 
Q 1003 219 1497 219 
Q 1975 219 2304 495 
Q 2634 772 2728 1253 
Q 2834 1803 2604 2086 
Q 2375 2369 1825 2369 
L 1528 2369 
L 1591 2688 
L 1747 2688 
Q 2294 2688 2611 2914 
Q 2928 3141 3019 3597 
Q 3097 4006 2914 4223 
Q 2731 4441 2309 4441 
Q 1888 4441 1616 4241 
Q 1344 4041 1228 3647 
L 878 3647 
L 1038 4469 
z
" transform="scale(0.015625)"/>
     </defs>
     <use xlink:href="#DejaVuSerif-Italic-33"/>
    </g>
   </g>
   <g id="text_32">
    <!-- 4 -->
    <g style="fill: #ff0000" transform="translate(92.957828 86.032597) scale(0.09 -0.09)">
     <defs>
      <path id="DejaVuSerif-Italic-34" d="M 2084 1581 
L 2566 4063 
L 491 1581 
L 2084 1581 
z
M 3150 0 
L 1025 0 
L 1091 331 
L 1841 331 
L 2019 1247 
L -19 1247 
L 47 1588 
L 2706 4750 
L 3325 4750 
L 2709 1581 
L 3600 1581 
L 3534 1247 
L 2644 1247 
L 2466 331 
L 3216 331 
L 3150 0 
z
" transform="scale(0.015625)"/>
     </defs>
     <use xlink:href="#DejaVuSerif-Italic-34"/>
    </g>
   </g>
   <g id="text_33">
    <!-- 5 -->
    <g style="fill: #ff0000" transform="translate(158.163136 70.031423) scale(0.09 -0.09)">
     <defs>
      <path id="DejaVuSerif-Italic-35" d="M 3681 4666 
L 3581 4153 
L 1444 4153 
L 1184 2816 
Q 1369 2928 1597 2984 
Q 1825 3041 2094 3041 
Q 2850 3041 3206 2622 
Q 3563 2203 3422 1478 
Q 3278 738 2754 323 
Q 2231 -91 1431 -91 
Q 1109 -91 787 -12 
Q 466 66 144 225 
L 319 1131 
L 672 1131 
Q 613 688 822 453 
Q 1031 219 1491 219 
Q 1984 219 2314 544 
Q 2644 869 2763 1478 
Q 2878 2084 2678 2407 
Q 2478 2731 1981 2731 
Q 1700 2731 1465 2631 
Q 1231 2531 1025 2322 
L 756 2322 
L 1213 4666 
L 3681 4666 
z
" transform="scale(0.015625)"/>
     </defs>
     <use xlink:href="#DejaVuSerif-Italic-35"/>
    </g>
   </g>
   <g id="text_34">
    <!-- 6 -->
    <g style="fill: #ff0000" transform="translate(156.402174 63.199468) scale(0.09 -0.09)">
     <defs>
      <path id="DejaVuSerif-Italic-36" d="M 1070 553 
Q 1244 219 1684 219 
Q 2125 219 2425 542 
Q 2725 866 2842 1472 
Q 2959 2078 2786 2401 
Q 2613 2725 2172 2725 
Q 1725 2725 1429 2412 
Q 1134 2100 1019 1509 
Q 897 888 1070 553 
z
M 1122 2569 
Q 1378 2803 1670 2918 
Q 1963 3034 2300 3034 
Q 2997 3034 3320 2615 
Q 3644 2197 3503 1472 
Q 3366 763 2845 336 
Q 2325 -91 1597 -91 
Q 806 -91 497 498 
Q 188 1088 400 2181 
Q 638 3406 1272 4078 
Q 1906 4750 2822 4750 
Q 3069 4750 3331 4703 
Q 3594 4656 3859 4563 
L 3709 3794 
L 3356 3794 
Q 3381 4109 3209 4275 
Q 3038 4441 2694 4441 
Q 2088 4441 1702 3981 
Q 1316 3522 1122 2569 
z
" transform="scale(0.015625)"/>
     </defs>
     <use xlink:href="#DejaVuSerif-Italic-36"/>
    </g>
   </g>
   <g id="text_35">
    <!-- 7 -->
    <g style="fill: #ff0000" transform="translate(143.938646 63.521071) scale(0.09 -0.09)">
     <defs>
      <path id="DejaVuSerif-Italic-37" d="M 4000 4347 
L 1331 0 
L 866 0 
L 3413 4153 
L 1256 4153 
L 1144 3578 
L 778 3578 
L 991 4666 
L 4063 4666 
L 4000 4347 
z
" transform="scale(0.015625)"/>
     </defs>
     <use xlink:href="#DejaVuSerif-Italic-37"/>
    </g>
   </g>
   <g id="text_36">
    <!-- 8 -->
    <g style="fill: #ff0000" transform="translate(174.10532 77.266575) scale(0.09 -0.09)">
     <defs>
      <path id="DejaVuSerif-Italic-38" d="M 2775 1275 
Q 2872 1775 2678 2051 
Q 2484 2328 2034 2328 
Q 1584 2328 1281 2051 
Q 978 1775 881 1275 
Q 784 772 979 495 
Q 1175 219 1625 219 
Q 2075 219 2376 495 
Q 2678 772 2775 1275 
z
M 3088 3541 
Q 3172 3966 3001 4203 
Q 2831 4441 2444 4441 
Q 2059 4441 1796 4203 
Q 1534 3966 1450 3541 
Q 1369 3113 1539 2875 
Q 1709 2638 2094 2638 
Q 2481 2638 2743 2875 
Q 3006 3113 3088 3541 
z
M 2547 2484 
Q 3063 2413 3297 2092 
Q 3531 1772 3434 1275 
Q 3309 619 2823 264 
Q 2338 -91 1563 -91 
Q 791 -91 444 264 
Q 97 619 222 1275 
Q 319 1772 678 2092 
Q 1038 2413 1588 2484 
Q 1131 2569 932 2842 
Q 734 3116 816 3541 
Q 925 4103 1376 4426 
Q 1828 4750 2506 4750 
Q 3184 4750 3507 4426 
Q 3831 4103 3722 3541 
Q 3641 3116 3336 2842 
Q 3031 2569 2547 2484 
z
" transform="scale(0.015625)"/>
     </defs>
     <use xlink:href="#DejaVuSerif-Italic-38"/>
    </g>
   </g>
   <g id="text_37">
    <!-- 9 -->
    <g style="fill: #ff0000" transform="translate(155.304526 59.870557) scale(0.09 -0.09)">
     <defs>
      <path id="DejaVuSerif-Italic-39" d="M 2947 2091 
Q 2694 1856 2398 1740 
Q 2103 1625 1763 1625 
Q 1069 1625 748 2044 
Q 428 2463 569 3188 
Q 706 3897 1226 4323 
Q 1747 4750 2475 4750 
Q 3266 4750 3573 4161 
Q 3881 3572 3669 2478 
Q 3431 1253 2797 581 
Q 2163 -91 1250 -91 
Q 1003 -91 740 -44 
Q 478 3 213 97 
L 363 872 
L 713 872 
Q 694 556 864 387 
Q 1034 219 1375 219 
Q 1981 219 2367 676 
Q 2753 1134 2947 2091 
z
M 2388 4441 
Q 1944 4441 1645 4117 
Q 1347 3794 1230 3187 
Q 1113 2581 1284 2256 
Q 1456 1931 1900 1931 
Q 2344 1931 2641 2245 
Q 2938 2559 3053 3150 
Q 3175 3772 3001 4106 
Q 2828 4441 2388 4441 
z
" transform="scale(0.015625)"/>
     </defs>
     <use xlink:href="#DejaVuSerif-Italic-39"/>
    </g>
   </g>
   <g id="Path3DCollection_2">
    <g clip-path="url(#pcf76551991)">
     <use xlink:href="#mdbbb9143eb" x="167.856253" y="168.624086" style="fill: #87ceeb; stroke: #87ceeb"/>
    </g>
   </g>
   <g id="Path3DCollection_3">
    <g clip-path="url(#pcf76551991)">
     <use xlink:href="#mdbbb9143eb" x="170.147067" y="176.347887" style="fill: #87ceeb; stroke: #87ceeb"/>
    </g>
   </g>
   <g id="legend_1">
    <g id="patch_6">
     <path d="M 14.2 44.55625 
L 68.870312 44.55625 
Q 70.870312 44.55625 70.870312 42.55625 
L 70.870312 14.2 
Q 70.870312 12.2 68.870312 12.2 
L 14.2 12.2 
Q 12.2 12.2 12.2 14.2 
L 12.2 42.55625 
Q 12.2 44.55625 14.2 44.55625 
z
" style="fill: #ffffff; opacity: 0.8; stroke: #cccccc; stroke-linejoin: miter"/>
    </g>
    <g id="line2d_32">
     <defs>
      <path id="m5e8a7d2488" d="M 0 3 
C 0.795609 3 1.55874 2.683901 2.12132 2.12132 
C 2.683901 1.55874 3 0.795609 3 0 
C 3 -0.795609 2.683901 -1.55874 2.12132 -2.12132 
C 1.55874 -2.683901 0.795609 -3 0 -3 
C -0.795609 -3 -1.55874 -2.683901 -2.12132 -2.12132 
C -2.683901 -1.55874 -3 -0.795609 -3 0 
C -3 0.795609 -2.683901 1.55874 -2.12132 2.12132 
C -1.55874 2.683901 -0.795609 3 0 3 
z
" style="stroke: #87ceeb"/>
     </defs>
     <g>
      <use xlink:href="#m5e8a7d2488" x="26.2" y="20.298437" style="fill: #87ceeb; stroke: #87ceeb"/>
     </g>
    </g>
    <g id="text_38">
     <!-- GS -->
     <g transform="translate(44.2 23.798437) scale(0.1 -0.1)">
      <defs>
       <path id="DejaVuSerif-47" d="M 4097 3272 
Q 3988 3856 3641 4136 
Q 3294 4416 2675 4416 
Q 1869 4416 1472 3897 
Q 1075 3378 1075 2328 
Q 1075 1300 1484 772 
Q 1894 244 2688 244 
Q 3041 244 3362 331 
Q 3684 419 3975 594 
L 3975 1797 
L 3097 1797 
L 3097 2131 
L 4609 2131 
L 4609 391 
Q 4194 150 3714 29 
Q 3234 -91 2688 -91 
Q 1631 -91 995 570 
Q 359 1231 359 2328 
Q 359 3434 996 4092 
Q 1634 4750 2713 4750 
Q 3113 4750 3539 4658 
Q 3966 4566 4447 4378 
L 4447 3272 
L 4097 3272 
z
" transform="scale(0.015625)"/>
       <path id="DejaVuSerif-53" d="M 594 225 
L 594 1288 
L 953 1284 
Q 969 753 1261 498 
Q 1553 244 2150 244 
Q 2706 244 2998 464 
Q 3291 684 3291 1106 
Q 3291 1444 3114 1625 
Q 2938 1806 2369 1978 
L 1753 2163 
Q 1084 2366 811 2669 
Q 538 2972 538 3500 
Q 538 4094 959 4422 
Q 1381 4750 2144 4750 
Q 2469 4750 2856 4679 
Q 3244 4609 3681 4475 
L 3681 3481 
L 3328 3481 
Q 3275 3975 2998 4195 
Q 2722 4416 2156 4416 
Q 1663 4416 1405 4214 
Q 1147 4013 1147 3628 
Q 1147 3294 1340 3103 
Q 1534 2913 2163 2725 
L 2741 2553 
Q 3375 2363 3645 2067 
Q 3916 1772 3916 1275 
Q 3916 597 3481 253 
Q 3047 -91 2188 -91 
Q 1803 -91 1404 -12 
Q 1006 66 594 225 
z
" transform="scale(0.015625)"/>
      </defs>
      <use xlink:href="#DejaVuSerif-47"/>
      <use xlink:href="#DejaVuSerif-53" transform="translate(79.882812 0)"/>
     </g>
    </g>
    <g id="line2d_33">
     <defs>
      <path id="m898f728c02" d="M 0 3 
C 0.795609 3 1.55874 2.683901 2.12132 2.12132 
C 2.683901 1.55874 3 0.795609 3 0 
C 3 -0.795609 2.683901 -1.55874 2.12132 -2.12132 
C 1.55874 -2.683901 0.795609 -3 0 -3 
C -0.795609 -3 -1.55874 -2.683901 -2.12132 -2.12132 
C -2.683901 -1.55874 -3 -0.795609 -3 0 
C -3 0.795609 -2.683901 1.55874 -2.12132 2.12132 
C -1.55874 2.683901 -0.795609 3 0 3 
z
" style="stroke: #ff0000"/>
     </defs>
     <g>
      <use xlink:href="#m898f728c02" x="26.2" y="34.976562" style="fill: #ff0000; stroke: #ff0000"/>
     </g>
    </g>
    <g id="text_39">
     <!-- HAP -->
     <g transform="translate(44.2 38.476562) scale(0.1 -0.1)">
      <defs>
       <path id="DejaVuSerif-48" d="M 353 0 
L 353 331 
L 947 331 
L 947 4331 
L 353 4331 
L 353 4666 
L 2175 4666 
L 2175 4331 
L 1581 4331 
L 1581 2719 
L 4000 2719 
L 4000 4331 
L 3406 4331 
L 3406 4666 
L 5228 4666 
L 5228 4331 
L 4634 4331 
L 4634 331 
L 5228 331 
L 5228 0 
L 3406 0 
L 3406 331 
L 4000 331 
L 4000 2338 
L 1581 2338 
L 1581 331 
L 2175 331 
L 2175 0 
L 353 0 
z
" transform="scale(0.015625)"/>
       <path id="DejaVuSerif-50" d="M 1581 2375 
L 2406 2375 
Q 2872 2375 3115 2626 
Q 3359 2878 3359 3353 
Q 3359 3831 3115 4081 
Q 2872 4331 2406 4331 
L 1581 4331 
L 1581 2375 
z
M 353 0 
L 353 331 
L 947 331 
L 947 4331 
L 353 4331 
L 353 4666 
L 2559 4666 
Q 3259 4666 3668 4311 
Q 4078 3956 4078 3353 
Q 4078 2753 3668 2397 
Q 3259 2041 2559 2041 
L 1581 2041 
L 1581 331 
L 2303 331 
L 2303 0 
L 353 0 
z
" transform="scale(0.015625)"/>
      </defs>
      <use xlink:href="#DejaVuSerif-48"/>
      <use xlink:href="#DejaVuSerif-41" transform="translate(87.207031 0)"/>
      <use xlink:href="#DejaVuSerif-50" transform="translate(159.423828 0)"/>
     </g>
    </g>
   </g>
   <g id="Path3DCollection_4">
    <g clip-path="url(#pcf76551991)">
     <use xlink:href="#mdbbb9143eb" x="145.702472" y="177.098458" style="fill: #87ceeb; stroke: #87ceeb"/>
    </g>
   </g>
   <g id="Path3DCollection_5">
    <defs>
     <path id="mad42cdefc3" d="M 0 1.118034 
C 0.296506 1.118034 0.580908 1.000231 0.790569 0.790569 
C 1.000231 0.580908 1.118034 0.296506 1.118034 0 
C 1.118034 -0.296506 1.000231 -0.580908 0.790569 -0.790569 
C 0.580908 -1.000231 0.296506 -1.118034 0 -1.118034 
C -0.296506 -1.118034 -0.580908 -1.000231 -0.790569 -0.790569 
C -1.000231 -0.580908 -1.118034 -0.296506 -1.118034 0 
C -1.118034 0.296506 -1.000231 0.580908 -0.790569 0.790569 
C -0.580908 1.000231 -0.296506 1.118034 0 1.118034 
z
" style="stroke: #ff0000"/>
    </defs>
    <g clip-path="url(#pcf76551991)">
     <use xlink:href="#mad42cdefc3" x="150.463211" y="54.386872" style="fill: #ff0000; stroke: #ff0000"/>
    </g>
   </g>
   <g id="Path3DCollection_6">
    <g clip-path="url(#pcf76551991)">
     <use xlink:href="#mad42cdefc3" x="151.531082" y="57.676853" style="fill: #ff0000; stroke: #ff0000"/>
    </g>
   </g>
   <g id="Path3DCollection_7">
    <g clip-path="url(#pcf76551991)">
     <use xlink:href="#mad42cdefc3" x="139.096044" y="57.99469" style="fill: #ff0000; stroke: #ff0000"/>
    </g>
   </g>
   <g id="Path3DCollection_8">
    <g clip-path="url(#pcf76551991)">
     <use xlink:href="#mdbbb9143eb" x="173.950946" y="192.461401" style="fill: #87ceeb; stroke: #87ceeb"/>
    </g>
   </g>
   <g id="Path3DCollection_9">
    <g clip-path="url(#pcf76551991)">
     <use xlink:href="#mad42cdefc3" x="153.232081" y="64.428626" style="fill: #ff0000; stroke: #ff0000"/>
    </g>
   </g>
   <g id="Path3DCollection_10">
    <g clip-path="url(#pcf76551991)">
     <use xlink:href="#mad42cdefc3" x="85.031616" y="69.095339" style="fill: #ff0000; stroke: #ff0000"/>
    </g>
   </g>
   <g id="Path3DCollection_11">
    <g clip-path="url(#pcf76551991)">
     <use xlink:href="#mdbbb9143eb" x="37.62327" y="203.810192" style="fill: #87ceeb; stroke: #87ceeb"/>
    </g>
   </g>
   <g id="Path3DCollection_12">
    <g clip-path="url(#pcf76551991)">
     <use xlink:href="#mad42cdefc3" x="169.074721" y="71.578444" style="fill: #ff0000; stroke: #ff0000"/>
    </g>
   </g>
   <g id="Path3DCollection_13">
    <g clip-path="url(#pcf76551991)">
     <use xlink:href="#mad42cdefc3" x="100.178822" y="76.357651" style="fill: #ff0000; stroke: #ff0000"/>
    </g>
   </g>
   <g id="Path3DCollection_14">
    <g clip-path="url(#pcf76551991)">
     <use xlink:href="#mad42cdefc3" x="100.995376" y="79.898361" style="fill: #ff0000; stroke: #ff0000"/>
    </g>
   </g>
   <g id="Path3DCollection_15">
    <g clip-path="url(#pcf76551991)">
     <use xlink:href="#mad42cdefc3" x="88.065464" y="80.240499" style="fill: #ff0000; stroke: #ff0000"/>
    </g>
   </g>
   <g id="Path3DCollection_16">
    <g clip-path="url(#pcf76551991)">
     <use xlink:href="#mad42cdefc3" x="102.163066" y="87.169311" style="fill: #ff0000; stroke: #ff0000"/>
    </g>
   </g>
  </g>
 </g>
 <defs>
  <clipPath id="pcf76551991">
   <rect x="7.2" y="7.2" width="266.4" height="266.4"/>
  </clipPath>
 </defs>
</svg>
