<?xml version="1.0" encoding="utf-8" standalone="no"?>
<!DOCTYPE svg PUBLIC "-//W3C//DTD SVG 1.1//EN"
  "http://www.w3.org/Graphics/SVG/1.1/DTD/svg11.dtd">
<svg xmlns:xlink="http://www.w3.org/1999/xlink" width="345.926875pt" height="272.507969pt" viewBox="0 0 345.926875 272.507969" xmlns="http://www.w3.org/2000/svg" version="1.1">
 <metadata>
  <rdf:RDF xmlns:dc="http://purl.org/dc/elements/1.1/" xmlns:cc="http://creativecommons.org/ns#" xmlns:rdf="http://www.w3.org/1999/02/22-rdf-syntax-ns#">
   <cc:Work>
    <dc:type rdf:resource="http://purl.org/dc/dcmitype/StillImage"/>
    <dc:date>2026-01-28T19:14:42.759998</dc:date>
    <dc:format>image/svg+xml</dc:format>
    <dc:creator>
     <cc:Agent>
      <dc:title>Matplotlib v3.10.8, https://matplotlib.org/</dc:title>
     </cc:Agent>
    </dc:creator>
   </cc:Work>
  </rdf:RDF>
 </metadata>
 <defs>
  <style type="text/css">*{stroke-linejoin: round; stroke-linecap: butt}</style>
 </defs>
 <g id="figure_1">
  <g id="patch_1">
   <path d="M 0 272.507969 
L 345.926875 272.507969 
L 345.926875 0 
L 0 0 
z
" style="fill: #ffffff"/>
  </g>
  <g id="axes_1">
   <g id="patch_2">
    <path d="M 59.726875 228.96 
L 338.726875 228.96 
L 338.726875 7.2 
L 59.726875 7.2 
z
" style="fill: #ffffff"/>
   </g>
   <g id="patch_3">
    <path d="M 82.437605 123.986666 
L 125.844819 123.986666 
L 125.844819 107.598553 
L 82.437605 107.598553 
L 82.437605 123.986666 
z
" clip-path="url(#p25db010e7d)" style="fill: none; stroke: #808080; stroke-linejoin: miter"/>
   </g>
   <g id="matplotlib.axis_1">
    <g id="xtick_1">
     <g id="line2d_1">
      <path d="M 87.440691 228.96 
L 87.440691 7.2 
" clip-path="url(#p25db010e7d)" style="fill: none; stroke: #b0b0b0; stroke-opacity: 0.3; stroke-width: 0.8; stroke-linecap: square"/>
     </g>
     <g id="line2d_2">
      <defs>
       <path id="m2c47e04b0a" d="M 0 0 
L 0 3.5 
" style="stroke: #000000; stroke-width: 0.8"/>
      </defs>
      <g>
       <use xlink:href="#m2c47e04b0a" x="87.440691" y="228.96" style="stroke: #000000; stroke-width: 0.8"/>
      </g>
     </g>
     <g id="text_1">
      <!-- 277 -->
      <g transform="translate(75.033816 245.837969) scale(0.13 -0.13)">
       <defs>
        <path id="DejaVuSerif-32" d="M 819 3553 
L 469 3553 
L 469 4384 
Q 803 4563 1142 4656 
Q 1481 4750 1806 4750 
Q 2534 4750 2956 4397 
Q 3378 4044 3378 3438 
Q 3378 2753 2422 1800 
Q 2347 1728 2309 1691 
L 1131 513 
L 3078 513 
L 3078 1088 
L 3444 1088 
L 3444 0 
L 434 0 
L 434 341 
L 1850 1753 
Q 2319 2222 2519 2614 
Q 2719 3006 2719 3438 
Q 2719 3909 2473 4175 
Q 2228 4441 1797 4441 
Q 1350 4441 1106 4219 
Q 863 3997 819 3553 
z
" transform="scale(0.015625)"/>
        <path id="DejaVuSerif-37" d="M 3609 4347 
L 1784 0 
L 1319 0 
L 3059 4153 
L 903 4153 
L 903 3578 
L 538 3578 
L 538 4666 
L 3609 4666 
L 3609 4347 
z
" transform="scale(0.015625)"/>
       </defs>
       <use xlink:href="#DejaVuSerif-32"/>
       <use xlink:href="#DejaVuSerif-37" transform="translate(63.623047 0)"/>
       <use xlink:href="#DejaVuSerif-37" transform="translate(127.246094 0)"/>
      </g>
     </g>
    </g>
    <g id="xtick_2">
     <g id="line2d_3">
      <path d="M 143.689557 228.96 
L 143.689557 7.2 
" clip-path="url(#p25db010e7d)" style="fill: none; stroke: #b0b0b0; stroke-opacity: 0.3; stroke-width: 0.8; stroke-linecap: square"/>
     </g>
     <g id="line2d_4">
      <g>
       <use xlink:href="#m2c47e04b0a" x="143.689557" y="228.96" style="stroke: #000000; stroke-width: 0.8"/>
      </g>
     </g>
     <g id="text_2">
      <!-- 278 -->
      <g transform="translate(131.282682 245.837969) scale(0.13 -0.13)">
       <defs>
        <path id="DejaVuSerif-38" d="M 2981 1275 
Q 2981 1775 2732 2051 
Q 2484 2328 2034 2328 
Q 1584 2328 1336 2051 
Q 1088 1775 1088 1275 
Q 1088 772 1336 495 
Q 1584 219 2034 219 
Q 2484 219 2732 495 
Q 2981 772 2981 1275 
z
M 2853 3541 
Q 2853 3966 2637 4203 
Q 2422 4441 2034 4441 
Q 1650 4441 1433 4203 
Q 1216 3966 1216 3541 
Q 1216 3113 1433 2875 
Q 1650 2638 2034 2638 
Q 2422 2638 2637 2875 
Q 2853 3113 2853 3541 
z
M 2516 2484 
Q 3047 2413 3344 2092 
Q 3641 1772 3641 1275 
Q 3641 619 3225 264 
Q 2809 -91 2034 -91 
Q 1263 -91 845 264 
Q 428 619 428 1275 
Q 428 1772 725 2092 
Q 1022 2413 1556 2484 
Q 1084 2569 832 2842 
Q 581 3116 581 3541 
Q 581 4103 968 4426 
Q 1356 4750 2034 4750 
Q 2713 4750 3100 4426 
Q 3488 4103 3488 3541 
Q 3488 3116 3236 2842 
Q 2984 2569 2516 2484 
z
" transform="scale(0.015625)"/>
       </defs>
       <use xlink:href="#DejaVuSerif-32"/>
       <use xlink:href="#DejaVuSerif-37" transform="translate(63.623047 0)"/>
       <use xlink:href="#DejaVuSerif-38" transform="translate(127.246094 0)"/>
      </g>
     </g>
    </g>
    <g id="xtick_3">
     <g id="line2d_5">
      <path d="M 199.938423 228.96 
L 199.938423 7.2 
" clip-path="url(#p25db010e7d)" style="fill: none; stroke: #b0b0b0; stroke-opacity: 0.3; stroke-width: 0.8; stroke-linecap: square"/>
     </g>
     <g id="line2d_6">
      <g>
       <use xlink:href="#m2c47e04b0a" x="199.938423" y="228.96" style="stroke: #000000; stroke-width: 0.8"/>
      </g>
     </g>
     <g id="text_3">
      <!-- 279 -->
      <g transform="translate(187.531548 245.837969) scale(0.13 -0.13)">
       <defs>
        <path id="DejaVuSerif-39" d="M 2994 2091 
Q 2784 1856 2512 1740 
Q 2241 1625 1900 1625 
Q 1206 1625 804 2044 
Q 403 2463 403 3188 
Q 403 3897 839 4323 
Q 1275 4750 2003 4750 
Q 2794 4750 3217 4161 
Q 3641 3572 3641 2478 
Q 3641 1253 3137 581 
Q 2634 -91 1722 -91 
Q 1475 -91 1203 -44 
Q 931 3 647 97 
L 647 872 
L 997 872 
Q 1038 556 1241 387 
Q 1444 219 1784 219 
Q 2391 219 2687 676 
Q 2984 1134 2994 2091 
z
M 1978 4441 
Q 1534 4441 1298 4117 
Q 1063 3794 1063 3188 
Q 1063 2581 1298 2256 
Q 1534 1931 1978 1931 
Q 2422 1931 2658 2245 
Q 2894 2559 2894 3150 
Q 2894 3772 2656 4106 
Q 2419 4441 1978 4441 
z
" transform="scale(0.015625)"/>
       </defs>
       <use xlink:href="#DejaVuSerif-32"/>
       <use xlink:href="#DejaVuSerif-37" transform="translate(63.623047 0)"/>
       <use xlink:href="#DejaVuSerif-39" transform="translate(127.246094 0)"/>
      </g>
     </g>
    </g>
    <g id="xtick_4">
     <g id="line2d_7">
      <path d="M 256.187289 228.96 
L 256.187289 7.2 
" clip-path="url(#p25db010e7d)" style="fill: none; stroke: #b0b0b0; stroke-opacity: 0.3; stroke-width: 0.8; stroke-linecap: square"/>
     </g>
     <g id="line2d_8">
      <g>
       <use xlink:href="#m2c47e04b0a" x="256.187289" y="228.96" style="stroke: #000000; stroke-width: 0.8"/>
      </g>
     </g>
     <g id="text_4">
      <!-- 280 -->
      <g transform="translate(243.780414 245.837969) scale(0.13 -0.13)">
       <defs>
        <path id="DejaVuSerif-30" d="M 2034 219 
Q 2513 219 2750 744 
Q 2988 1269 2988 2328 
Q 2988 3391 2750 3916 
Q 2513 4441 2034 4441 
Q 1556 4441 1318 3916 
Q 1081 3391 1081 2328 
Q 1081 1269 1318 744 
Q 1556 219 2034 219 
z
M 2034 -91 
Q 1275 -91 848 546 
Q 422 1184 422 2328 
Q 422 3475 848 4112 
Q 1275 4750 2034 4750 
Q 2797 4750 3222 4112 
Q 3647 3475 3647 2328 
Q 3647 1184 3222 546 
Q 2797 -91 2034 -91 
z
" transform="scale(0.015625)"/>
       </defs>
       <use xlink:href="#DejaVuSerif-32"/>
       <use xlink:href="#DejaVuSerif-38" transform="translate(63.623047 0)"/>
       <use xlink:href="#DejaVuSerif-30" transform="translate(127.246094 0)"/>
      </g>
     </g>
    </g>
    <g id="xtick_5">
     <g id="line2d_9">
      <path d="M 312.436155 228.96 
L 312.436155 7.2 
" clip-path="url(#p25db010e7d)" style="fill: none; stroke: #b0b0b0; stroke-opacity: 0.3; stroke-width: 0.8; stroke-linecap: square"/>
     </g>
     <g id="line2d_10">
      <g>
       <use xlink:href="#m2c47e04b0a" x="312.436155" y="228.96" style="stroke: #000000; stroke-width: 0.8"/>
      </g>
     </g>
     <g id="text_5">
      <!-- 281 -->
      <g transform="translate(300.02928 245.837969) scale(0.13 -0.13)">
       <defs>
        <path id="DejaVuSerif-31" d="M 909 0 
L 909 331 
L 1722 331 
L 1722 4213 
L 781 3603 
L 781 4013 
L 1919 4750 
L 2350 4750 
L 2350 331 
L 3163 331 
L 3163 0 
L 909 0 
z
" transform="scale(0.015625)"/>
       </defs>
       <use xlink:href="#DejaVuSerif-32"/>
       <use xlink:href="#DejaVuSerif-38" transform="translate(63.623047 0)"/>
       <use xlink:href="#DejaVuSerif-31" transform="translate(127.246094 0)"/>
      </g>
     </g>
    </g>
    <g id="text_6">
     <!-- Longitude -->
     <g transform="translate(165.764063 262.419531) scale(0.13 -0.13)">
      <defs>
       <path id="DejaVuSerif-4c" d="M 353 0 
L 353 331 
L 947 331 
L 947 4331 
L 353 4331 
L 353 4666 
L 2175 4666 
L 2175 4331 
L 1581 4331 
L 1581 384 
L 3713 384 
L 3713 1166 
L 4097 1166 
L 4097 0 
L 353 0 
z
" transform="scale(0.015625)"/>
       <path id="DejaVuSerif-6f" d="M 1925 219 
Q 2388 219 2623 584 
Q 2859 950 2859 1663 
Q 2859 2375 2623 2739 
Q 2388 3103 1925 3103 
Q 1463 3103 1227 2739 
Q 991 2375 991 1663 
Q 991 950 1228 584 
Q 1466 219 1925 219 
z
M 1925 -91 
Q 1200 -91 759 389 
Q 319 869 319 1663 
Q 319 2456 758 2934 
Q 1197 3413 1925 3413 
Q 2653 3413 3092 2934 
Q 3531 2456 3531 1663 
Q 3531 869 3092 389 
Q 2653 -91 1925 -91 
z
" transform="scale(0.015625)"/>
       <path id="DejaVuSerif-6e" d="M 263 0 
L 263 331 
L 781 331 
L 781 2988 
L 231 2988 
L 231 3322 
L 1356 3322 
L 1356 2731 
Q 1516 3069 1770 3241 
Q 2025 3413 2363 3413 
Q 2913 3413 3172 3097 
Q 3431 2781 3431 2113 
L 3431 331 
L 3944 331 
L 3944 0 
L 2356 0 
L 2356 331 
L 2853 331 
L 2853 1931 
Q 2853 2541 2703 2767 
Q 2553 2994 2175 2994 
Q 1775 2994 1565 2701 
Q 1356 2409 1356 1850 
L 1356 331 
L 1856 331 
L 1856 0 
L 263 0 
z
" transform="scale(0.015625)"/>
       <path id="DejaVuSerif-67" d="M 3359 2988 
L 3359 72 
Q 3359 -644 2965 -1033 
Q 2572 -1422 1844 -1422 
Q 1516 -1422 1216 -1362 
Q 916 -1303 641 -1184 
L 641 -488 
L 941 -488 
Q 997 -813 1206 -963 
Q 1416 -1113 1806 -1113 
Q 2313 -1113 2548 -827 
Q 2784 -541 2784 72 
L 2784 519 
Q 2616 206 2355 57 
Q 2094 -91 1709 -91 
Q 1097 -91 708 395 
Q 319 881 319 1663 
Q 319 2444 706 2928 
Q 1094 3413 1709 3413 
Q 2094 3413 2355 3264 
Q 2616 3116 2784 2803 
L 2784 3322 
L 3909 3322 
L 3909 2988 
L 3359 2988 
z
M 2784 1825 
Q 2784 2422 2554 2737 
Q 2325 3053 1888 3053 
Q 1444 3053 1217 2703 
Q 991 2353 991 1663 
Q 991 975 1217 622 
Q 1444 269 1888 269 
Q 2325 269 2554 583 
Q 2784 897 2784 1497 
L 2784 1825 
z
" transform="scale(0.015625)"/>
       <path id="DejaVuSerif-69" d="M 622 4353 
Q 622 4497 726 4603 
Q 831 4709 978 4709 
Q 1122 4709 1226 4603 
Q 1331 4497 1331 4353 
Q 1331 4206 1228 4103 
Q 1125 4000 978 4000 
Q 831 4000 726 4103 
Q 622 4206 622 4353 
z
M 1356 331 
L 1900 331 
L 1900 0 
L 231 0 
L 231 331 
L 781 331 
L 781 2988 
L 231 2988 
L 231 3322 
L 1356 3322 
L 1356 331 
z
" transform="scale(0.015625)"/>
       <path id="DejaVuSerif-74" d="M 691 2988 
L 184 2988 
L 184 3322 
L 691 3322 
L 691 4353 
L 1269 4353 
L 1269 3322 
L 2350 3322 
L 2350 2988 
L 1269 2988 
L 1269 878 
Q 1269 456 1350 337 
Q 1431 219 1650 219 
Q 1875 219 1978 351 
Q 2081 484 2088 781 
L 2522 781 
Q 2497 328 2275 118 
Q 2053 -91 1600 -91 
Q 1103 -91 897 129 
Q 691 350 691 878 
L 691 2988 
z
" transform="scale(0.015625)"/>
       <path id="DejaVuSerif-75" d="M 2266 3322 
L 3341 3322 
L 3341 331 
L 3884 331 
L 3884 0 
L 2766 0 
L 2766 588 
Q 2606 256 2353 82 
Q 2100 -91 1766 -91 
Q 1213 -91 952 223 
Q 691 538 691 1209 
L 691 2988 
L 172 2988 
L 172 3322 
L 1269 3322 
L 1269 1388 
Q 1269 781 1417 556 
Q 1566 331 1947 331 
Q 2347 331 2556 625 
Q 2766 919 2766 1478 
L 2766 2988 
L 2266 2988 
L 2266 3322 
z
" transform="scale(0.015625)"/>
       <path id="DejaVuSerif-64" d="M 3359 331 
L 3909 331 
L 3909 0 
L 2784 0 
L 2784 519 
Q 2616 206 2355 57 
Q 2094 -91 1709 -91 
Q 1097 -91 708 395 
Q 319 881 319 1663 
Q 319 2444 706 2928 
Q 1094 3413 1709 3413 
Q 2094 3413 2355 3264 
Q 2616 3116 2784 2803 
L 2784 4531 
L 2241 4531 
L 2241 4863 
L 3359 4863 
L 3359 331 
z
M 2784 1497 
L 2784 1825 
Q 2784 2422 2554 2737 
Q 2325 3053 1888 3053 
Q 1444 3053 1217 2703 
Q 991 2353 991 1663 
Q 991 975 1217 622 
Q 1444 269 1888 269 
Q 2325 269 2554 583 
Q 2784 897 2784 1497 
z
" transform="scale(0.015625)"/>
       <path id="DejaVuSerif-65" d="M 3469 1600 
L 991 1600 
L 991 1575 
Q 991 903 1244 561 
Q 1497 219 1991 219 
Q 2369 219 2611 417 
Q 2853 616 2950 1006 
L 3413 1006 
Q 3275 459 2904 184 
Q 2534 -91 1931 -91 
Q 1203 -91 761 389 
Q 319 869 319 1663 
Q 319 2450 753 2931 
Q 1188 3413 1894 3413 
Q 2647 3413 3050 2948 
Q 3453 2484 3469 1600 
z
M 2791 1931 
Q 2772 2513 2545 2808 
Q 2319 3103 1894 3103 
Q 1497 3103 1269 2806 
Q 1041 2509 991 1931 
L 2791 1931 
z
" transform="scale(0.015625)"/>
      </defs>
      <use xlink:href="#DejaVuSerif-4c"/>
      <use xlink:href="#DejaVuSerif-6f" transform="translate(66.40625 0)"/>
      <use xlink:href="#DejaVuSerif-6e" transform="translate(126.611328 0)"/>
      <use xlink:href="#DejaVuSerif-67" transform="translate(191.015625 0)"/>
      <use xlink:href="#DejaVuSerif-69" transform="translate(255.029297 0)"/>
      <use xlink:href="#DejaVuSerif-74" transform="translate(287.011719 0)"/>
      <use xlink:href="#DejaVuSerif-75" transform="translate(327.197266 0)"/>
      <use xlink:href="#DejaVuSerif-64" transform="translate(391.601562 0)"/>
      <use xlink:href="#DejaVuSerif-65" transform="translate(455.615234 0)"/>
     </g>
    </g>
   </g>
   <g id="matplotlib.axis_2">
    <g id="ytick_1">
     <g id="line2d_11">
      <path d="M 59.726875 204.247649 
L 338.726875 204.247649 
" clip-path="url(#p25db010e7d)" style="fill: none; stroke: #b0b0b0; stroke-opacity: 0.3; stroke-width: 0.8; stroke-linecap: square"/>
     </g>
     <g id="line2d_12">
      <defs>
       <path id="mc16393f84e" d="M 0 0 
L -3.5 0 
" style="stroke: #000000; stroke-width: 0.8"/>
      </defs>
      <g>
       <use xlink:href="#mc16393f84e" x="59.726875" y="204.247649" style="stroke: #000000; stroke-width: 0.8"/>
      </g>
     </g>
     <g id="text_7">
      <!-- 46.5 -->
      <g transform="translate(23.781562 209.186634) scale(0.13 -0.13)">
       <defs>
        <path id="DejaVuSerif-34" d="M 2234 1581 
L 2234 4063 
L 641 1581 
L 2234 1581 
z
M 3609 0 
L 1484 0 
L 1484 331 
L 2234 331 
L 2234 1247 
L 197 1247 
L 197 1588 
L 2241 4750 
L 2859 4750 
L 2859 1581 
L 3750 1581 
L 3750 1247 
L 2859 1247 
L 2859 331 
L 3609 331 
L 3609 0 
z
" transform="scale(0.015625)"/>
        <path id="DejaVuSerif-36" d="M 2094 219 
Q 2534 219 2771 542 
Q 3009 866 3009 1472 
Q 3009 2078 2771 2401 
Q 2534 2725 2094 2725 
Q 1647 2725 1412 2412 
Q 1178 2100 1178 1509 
Q 1178 888 1415 553 
Q 1653 219 2094 219 
z
M 1075 2569 
Q 1288 2803 1556 2918 
Q 1825 3034 2163 3034 
Q 2859 3034 3264 2615 
Q 3669 2197 3669 1472 
Q 3669 763 3233 336 
Q 2797 -91 2069 -91 
Q 1278 -91 853 498 
Q 428 1088 428 2181 
Q 428 3406 931 4078 
Q 1434 4750 2350 4750 
Q 2597 4750 2869 4703 
Q 3141 4656 3425 4563 
L 3425 3794 
L 3072 3794 
Q 3034 4109 2831 4275 
Q 2628 4441 2284 4441 
Q 1678 4441 1381 3981 
Q 1084 3522 1075 2569 
z
" transform="scale(0.015625)"/>
        <path id="DejaVuSerif-2e" d="M 603 325 
Q 603 500 722 622 
Q 841 744 1019 744 
Q 1191 744 1312 622 
Q 1434 500 1434 325 
Q 1434 153 1312 31 
Q 1191 -91 1019 -91 
Q 841 -91 722 29 
Q 603 150 603 325 
z
" transform="scale(0.015625)"/>
        <path id="DejaVuSerif-35" d="M 3219 4666 
L 3219 4153 
L 1081 4153 
L 1081 2816 
Q 1244 2928 1461 2984 
Q 1678 3041 1947 3041 
Q 2703 3041 3140 2622 
Q 3578 2203 3578 1478 
Q 3578 738 3136 323 
Q 2694 -91 1894 -91 
Q 1572 -91 1234 -12 
Q 897 66 544 225 
L 544 1131 
L 897 1131 
Q 925 688 1179 453 
Q 1434 219 1894 219 
Q 2388 219 2653 544 
Q 2919 869 2919 1478 
Q 2919 2084 2655 2407 
Q 2391 2731 1894 2731 
Q 1613 2731 1398 2631 
Q 1184 2531 1019 2322 
L 750 2322 
L 750 4666 
L 3219 4666 
z
" transform="scale(0.015625)"/>
       </defs>
       <use xlink:href="#DejaVuSerif-34"/>
       <use xlink:href="#DejaVuSerif-36" transform="translate(63.623047 0)"/>
       <use xlink:href="#DejaVuSerif-2e" transform="translate(127.246094 0)"/>
       <use xlink:href="#DejaVuSerif-35" transform="translate(159.033203 0)"/>
      </g>
     </g>
    </g>
    <g id="ytick_2">
     <g id="line2d_13">
      <path d="M 59.726875 172.638093 
L 338.726875 172.638093 
" clip-path="url(#p25db010e7d)" style="fill: none; stroke: #b0b0b0; stroke-opacity: 0.3; stroke-width: 0.8; stroke-linecap: square"/>
     </g>
     <g id="line2d_14">
      <g>
       <use xlink:href="#mc16393f84e" x="59.726875" y="172.638093" style="stroke: #000000; stroke-width: 0.8"/>
      </g>
     </g>
     <g id="text_8">
      <!-- 47.0 -->
      <g transform="translate(23.781562 177.577078) scale(0.13 -0.13)">
       <use xlink:href="#DejaVuSerif-34"/>
       <use xlink:href="#DejaVuSerif-37" transform="translate(63.623047 0)"/>
       <use xlink:href="#DejaVuSerif-2e" transform="translate(127.246094 0)"/>
       <use xlink:href="#DejaVuSerif-30" transform="translate(159.033203 0)"/>
      </g>
     </g>
    </g>
    <g id="ytick_3">
     <g id="line2d_15">
      <path d="M 59.726875 141.028538 
L 338.726875 141.028538 
" clip-path="url(#p25db010e7d)" style="fill: none; stroke: #b0b0b0; stroke-opacity: 0.3; stroke-width: 0.8; stroke-linecap: square"/>
     </g>
     <g id="line2d_16">
      <g>
       <use xlink:href="#mc16393f84e" x="59.726875" y="141.028538" style="stroke: #000000; stroke-width: 0.8"/>
      </g>
     </g>
     <g id="text_9">
      <!-- 47.5 -->
      <g transform="translate(23.781562 145.967522) scale(0.13 -0.13)">
       <use xlink:href="#DejaVuSerif-34"/>
       <use xlink:href="#DejaVuSerif-37" transform="translate(63.623047 0)"/>
       <use xlink:href="#DejaVuSerif-2e" transform="translate(127.246094 0)"/>
       <use xlink:href="#DejaVuSerif-35" transform="translate(159.033203 0)"/>
      </g>
     </g>
    </g>
    <g id="ytick_4">
     <g id="line2d_17">
      <path d="M 59.726875 109.418982 
L 338.726875 109.418982 
" clip-path="url(#p25db010e7d)" style="fill: none; stroke: #b0b0b0; stroke-opacity: 0.3; stroke-width: 0.8; stroke-linecap: square"/>
     </g>
     <g id="line2d_18">
      <g>
       <use xlink:href="#mc16393f84e" x="59.726875" y="109.418982" style="stroke: #000000; stroke-width: 0.8"/>
      </g>
     </g>
     <g id="text_10">
      <!-- 48.0 -->
      <g transform="translate(23.781562 114.357966) scale(0.13 -0.13)">
       <use xlink:href="#DejaVuSerif-34"/>
       <use xlink:href="#DejaVuSerif-38" transform="translate(63.623047 0)"/>
       <use xlink:href="#DejaVuSerif-2e" transform="translate(127.246094 0)"/>
       <use xlink:href="#DejaVuSerif-30" transform="translate(159.033203 0)"/>
      </g>
     </g>
    </g>
    <g id="ytick_5">
     <g id="line2d_19">
      <path d="M 59.726875 77.809426 
L 338.726875 77.809426 
" clip-path="url(#p25db010e7d)" style="fill: none; stroke: #b0b0b0; stroke-opacity: 0.3; stroke-width: 0.8; stroke-linecap: square"/>
     </g>
     <g id="line2d_20">
      <g>
       <use xlink:href="#mc16393f84e" x="59.726875" y="77.809426" style="stroke: #000000; stroke-width: 0.8"/>
      </g>
     </g>
     <g id="text_11">
      <!-- 48.5 -->
      <g transform="translate(23.781562 82.74841) scale(0.13 -0.13)">
       <use xlink:href="#DejaVuSerif-34"/>
       <use xlink:href="#DejaVuSerif-38" transform="translate(63.623047 0)"/>
       <use xlink:href="#DejaVuSerif-2e" transform="translate(127.246094 0)"/>
       <use xlink:href="#DejaVuSerif-35" transform="translate(159.033203 0)"/>
      </g>
     </g>
    </g>
    <g id="ytick_6">
     <g id="line2d_21">
      <path d="M 59.726875 46.19987 
L 338.726875 46.19987 
" clip-path="url(#p25db010e7d)" style="fill: none; stroke: #b0b0b0; stroke-opacity: 0.3; stroke-width: 0.8; stroke-linecap: square"/>
     </g>
     <g id="line2d_22">
      <g>
       <use xlink:href="#mc16393f84e" x="59.726875" y="46.19987" style="stroke: #000000; stroke-width: 0.8"/>
      </g>
     </g>
     <g id="text_12">
      <!-- 49.0 -->
      <g transform="translate(23.781562 51.138854) scale(0.13 -0.13)">
       <use xlink:href="#DejaVuSerif-34"/>
       <use xlink:href="#DejaVuSerif-39" transform="translate(63.623047 0)"/>
       <use xlink:href="#DejaVuSerif-2e" transform="translate(127.246094 0)"/>
       <use xlink:href="#DejaVuSerif-30" transform="translate(159.033203 0)"/>
      </g>
     </g>
    </g>
    <g id="ytick_7">
     <g id="line2d_23">
      <path d="M 59.726875 14.590314 
L 338.726875 14.590314 
" clip-path="url(#p25db010e7d)" style="fill: none; stroke: #b0b0b0; stroke-opacity: 0.3; stroke-width: 0.8; stroke-linecap: square"/>
     </g>
     <g id="line2d_24">
      <g>
       <use xlink:href="#mc16393f84e" x="59.726875" y="14.590314" style="stroke: #000000; stroke-width: 0.8"/>
      </g>
     </g>
     <g id="text_13">
      <!-- 49.5 -->
      <g transform="translate(23.781562 19.529299) scale(0.13 -0.13)">
       <use xlink:href="#DejaVuSerif-34"/>
       <use xlink:href="#DejaVuSerif-39" transform="translate(63.623047 0)"/>
       <use xlink:href="#DejaVuSerif-2e" transform="translate(127.246094 0)"/>
       <use xlink:href="#DejaVuSerif-35" transform="translate(159.033203 0)"/>
      </g>
     </g>
    </g>
    <g id="text_14">
     <!-- Latitude -->
     <g transform="translate(17.077969 145.77) rotate(-90) scale(0.13 -0.13)">
      <defs>
       <path id="DejaVuSerif-61" d="M 2547 1044 
L 2547 1747 
L 1806 1747 
Q 1378 1747 1168 1562 
Q 959 1378 959 997 
Q 959 650 1171 447 
Q 1384 244 1747 244 
Q 2106 244 2326 466 
Q 2547 688 2547 1044 
z
M 3122 2075 
L 3122 331 
L 3634 331 
L 3634 0 
L 2547 0 
L 2547 359 
Q 2356 128 2106 18 
Q 1856 -91 1522 -91 
Q 969 -91 644 203 
Q 319 497 319 997 
Q 319 1513 691 1797 
Q 1063 2081 1741 2081 
L 2547 2081 
L 2547 2309 
Q 2547 2688 2317 2895 
Q 2088 3103 1672 3103 
Q 1328 3103 1125 2947 
Q 922 2791 872 2484 
L 575 2484 
L 575 3156 
Q 875 3284 1158 3348 
Q 1441 3413 1709 3413 
Q 2400 3413 2761 3070 
Q 3122 2728 3122 2075 
z
" transform="scale(0.015625)"/>
      </defs>
      <use xlink:href="#DejaVuSerif-4c"/>
      <use xlink:href="#DejaVuSerif-61" transform="translate(66.40625 0)"/>
      <use xlink:href="#DejaVuSerif-74" transform="translate(126.025391 0)"/>
      <use xlink:href="#DejaVuSerif-69" transform="translate(166.210938 0)"/>
      <use xlink:href="#DejaVuSerif-74" transform="translate(198.193359 0)"/>
      <use xlink:href="#DejaVuSerif-75" transform="translate(238.378906 0)"/>
      <use xlink:href="#DejaVuSerif-64" transform="translate(302.783203 0)"/>
      <use xlink:href="#DejaVuSerif-65" transform="translate(366.796875 0)"/>
     </g>
    </g>
   </g>
   <g id="line2d_25">
    <path d="M 90.78452 119.055018 
L 90.236113 117.22864 
L 89.265668 116.407185 
L 88.192545 115.881562 
L 86.975223 115.642789 
L 84.125071 116.360321 
L 85.296394 117.965192 
L 88.028664 119.250498 
L 90.272669 120.300098 
L 91.071783 120.044724 
L 91.166608 119.494711 
L 92.036204 119.012778 
L 92.892935 118.479983 
L 94.004152 117.866723 
L 94.123314 117.442606 
L 94.258683 117.115424 
L 94.429039 116.82201 
L 94.956543 117.488778 
L 95.196247 118.109007 
L 95.110691 118.658862 
L 94.961818 119.213361 
L 94.414667 119.181814 
L 93.813915 119.058435 
L 93.656345 119.865966 
L 93.54548 120.411906 
L 93.699339 119.165634 
L 93.78244 118.917643 
L 91.969678 120.004301 
L 90.072312 122.015796 
L 87.922922 121.881684 
L 86.481384 122.090093 
L 86.812818 121.171985 
L 87.47906 120.512025 
L 88.854433 120.608668 
L 90.564856 121.263811 
L 92.003558 121.184874 
L 93.232634 120.257179 
L 94.3853 120.487001 
L 95.806115 121.822299 
L 97.649528 120.221327 
L 99.686011 118.34006 
L 102.797024 115.864779 
L 106.133687 113.290779 
L 111.326467 111.592081 
L 116.350364 110.638635 
L 120.200746 110.359202 
L 123.132397 110.296628 
L 124.157353 109.495126 
" clip-path="url(#p25db010e7d)" style="fill: none; stroke: #ff0000; stroke-width: 1.1; stroke-linecap: square"/>
   </g>
   <g id="line2d_26">
    <path d="M 130.639654 130.115201 
L 130.091247 128.288823 
L 129.120802 127.467369 
L 128.047679 126.941746 
L 126.830357 126.702973 
L 123.980205 127.420504 
L 125.151528 129.025375 
L 127.883798 130.310681 
L 130.127802 131.360282 
L 130.926917 131.104908 
L 131.021742 130.554894 
L 131.891338 130.072962 
L 132.748069 129.540166 
L 133.859286 128.926907 
L 133.978447 128.502789 
L 134.113817 128.175608 
L 134.284173 127.882193 
L 134.811677 128.548962 
L 135.051381 129.169191 
L 134.965825 129.719046 
L 134.816952 130.273545 
L 134.269801 130.241998 
L 133.669049 130.118618 
L 133.511479 130.92615 
L 133.400614 131.472089 
L 133.554473 130.225818 
L 133.637574 129.977826 
L 131.824812 131.064484 
L 129.927446 133.075979 
L 127.778056 132.941867 
L 126.336518 133.150276 
L 126.667952 132.232169 
L 127.334194 131.572208 
L 128.709567 131.668852 
L 130.41999 132.323994 
L 131.858692 132.245057 
L 133.087768 131.317363 
L 134.240434 131.547185 
L 135.661249 132.882483 
L 137.504662 131.281511 
L 139.541145 129.400243 
L 142.652158 126.924963 
L 145.988821 124.350963 
L 151.181601 122.652264 
L 156.205498 121.698819 
L 160.05588 121.419385 
L 162.987531 121.356812 
L 164.012487 120.55531 
" clip-path="url(#p25db010e7d)" style="fill: none; stroke: #ff0000; stroke-width: 1.1; stroke-linecap: square"/>
   </g>
   <g id="line2d_27">
    <path d="M 140.05009 139.601229 
L 139.501682 137.774851 
L 138.531238 136.953397 
L 137.458114 136.427773 
L 136.240792 136.189001 
L 133.39064 136.906532 
L 134.561963 138.511403 
L 137.294233 139.796709 
L 139.538238 140.84631 
L 140.337352 140.590936 
L 140.432177 140.040922 
L 141.301773 139.558989 
L 142.158504 139.026194 
L 143.269721 138.412935 
L 143.388883 137.988817 
L 143.524253 137.661636 
L 143.694608 137.368221 
L 144.222112 138.034989 
L 144.461817 138.655219 
L 144.37626 139.205074 
L 144.227387 139.759572 
L 143.680236 139.728026 
L 143.079485 139.604646 
L 142.921914 140.412177 
L 142.811049 140.958117 
L 142.964908 139.711846 
L 143.04801 139.463854 
L 141.235247 140.550512 
L 139.337881 142.562007 
L 137.188491 142.427895 
L 135.746953 142.636304 
L 136.078387 141.718196 
L 136.744629 141.058236 
L 138.120003 141.15488 
L 139.830425 141.810022 
L 141.269127 141.731085 
L 142.498203 140.803391 
L 143.650869 141.033212 
L 145.071684 142.36851 
L 146.915097 140.767539 
L 148.95158 138.886271 
L 152.062593 136.410991 
L 155.399257 133.83699 
L 160.592037 132.138292 
L 165.615934 131.184847 
L 169.466315 130.905413 
L 172.397966 130.84284 
L 173.422923 130.041337 
" clip-path="url(#p25db010e7d)" style="fill: none; stroke: #ff0000; stroke-width: 1.1; stroke-linecap: square"/>
   </g>
   <g id="line2d_28">
    <path d="M 158.297222 159.063233 
L 157.748815 157.236854 
L 156.77837 156.4154 
L 155.705246 155.889777 
L 154.487924 155.651004 
L 151.637772 156.368535 
L 152.809095 157.973407 
L 155.541365 159.258712 
L 157.78537 160.308313 
L 158.584484 160.052939 
L 158.679309 159.502925 
L 159.548905 159.020993 
L 160.405636 158.488197 
L 161.516854 157.874938 
L 161.636015 157.450821 
L 161.771385 157.123639 
L 161.94174 156.830224 
L 162.469244 157.496993 
L 162.708949 158.117222 
L 162.623392 158.667077 
L 162.474519 159.221576 
L 161.927369 159.190029 
L 161.326617 159.066649 
L 161.169047 159.874181 
L 161.058181 160.42012 
L 161.21204 159.173849 
L 161.295142 158.925858 
L 159.482379 160.012515 
L 157.585013 162.024011 
L 155.435623 161.889898 
L 153.994085 162.098308 
L 154.325519 161.1802 
L 154.991761 160.52024 
L 156.367135 160.616883 
L 158.077557 161.272025 
L 159.51626 161.193089 
L 160.745335 160.265394 
L 161.898001 160.495216 
L 163.318816 161.830514 
L 165.162229 160.229542 
L 167.198713 158.348274 
L 170.309725 155.872994 
L 173.646389 153.298994 
L 178.839169 151.600296 
L 183.863066 150.64685 
L 187.713447 150.367417 
L 190.645098 150.304843 
L 191.670055 149.503341 
" clip-path="url(#p25db010e7d)" style="fill: none; stroke: #ff0000; stroke-width: 1.1; stroke-linecap: square"/>
   </g>
   <g id="line2d_29">
    <path d="M 121.79452 148.802771 
L 121.246113 146.976393 
L 120.275668 146.154938 
L 119.202545 145.629315 
L 117.985223 145.390542 
L 115.13507 146.108074 
L 116.306394 147.712945 
L 119.038664 148.998251 
L 121.282668 150.047851 
L 122.081783 149.792477 
L 122.176607 149.242464 
L 123.046204 148.760531 
L 123.902934 148.227736 
L 125.014152 147.614476 
L 125.133313 147.190359 
L 125.268683 146.863177 
L 125.439039 146.569763 
L 125.966543 147.236531 
L 126.206247 147.85676 
L 126.12069 148.406615 
L 125.971818 148.961114 
L 125.424667 148.929567 
L 124.823915 148.806188 
L 124.666345 149.613719 
L 124.55548 150.159659 
L 124.709339 148.913387 
L 124.79244 148.665396 
L 122.979678 149.752054 
L 121.082312 151.763549 
L 118.932922 151.629437 
L 117.491384 151.837846 
L 117.822818 150.919738 
L 118.48906 150.259778 
L 119.864433 150.356421 
L 121.574856 151.011564 
L 123.013558 150.932627 
L 124.242633 150.004932 
L 125.3953 150.234754 
L 126.816114 151.570052 
L 128.659528 149.96908 
L 130.696011 148.087813 
L 133.807024 145.612532 
L 137.143687 143.038532 
L 142.336467 141.339834 
L 147.360364 140.386388 
L 151.210746 140.106955 
L 154.142396 140.044381 
L 155.167353 139.242879 
" clip-path="url(#p25db010e7d)" style="fill: none; stroke: #ff0000; stroke-width: 1.1; stroke-linecap: square"/>
   </g>
   <g id="line2d_30">
    <path d="M 182.472984 60.827055 
L 181.924577 59.000677 
L 180.954132 58.179222 
L 179.881009 57.653599 
L 178.663687 57.414826 
L 175.813535 58.132358 
L 176.984858 59.737229 
L 179.717128 61.022535 
L 181.961132 62.072136 
L 182.760247 61.816762 
L 182.855072 61.266748 
L 183.724668 60.784815 
L 184.581399 60.25202 
L 185.692616 59.638761 
L 185.811777 59.214643 
L 185.947147 58.887461 
L 186.117503 58.594047 
L 186.645007 59.260815 
L 186.884711 59.881044 
L 186.799155 60.430899 
L 186.650282 60.985398 
L 186.103131 60.953851 
L 185.502379 60.830472 
L 185.344809 61.638003 
L 185.233944 62.183943 
L 185.387803 60.937672 
L 185.470904 60.68968 
L 183.658142 61.776338 
L 181.760776 63.787833 
L 179.611386 63.653721 
L 178.169848 63.86213 
L 178.501282 62.944022 
L 179.167524 62.284062 
L 180.542897 62.380705 
L 182.25332 63.035848 
L 183.692022 62.956911 
L 184.921098 62.029217 
L 186.073764 62.259038 
L 187.494579 63.594336 
L 189.337992 61.993365 
L 191.374475 60.112097 
L 194.485488 57.636816 
L 197.822151 55.062816 
L 203.014931 53.364118 
L 208.038828 52.410673 
L 211.88921 52.131239 
L 214.820861 52.068666 
L 215.845817 51.267163 
" clip-path="url(#p25db010e7d)" style="fill: none; stroke: #ff0000; stroke-width: 1.1; stroke-linecap: square"/>
   </g>
   <g id="patch_4">
    <path d="M 59.726875 228.96 
L 59.726875 7.2 
" style="fill: none; stroke: #000000; stroke-width: 0.8; stroke-linejoin: miter; stroke-linecap: square"/>
   </g>
   <g id="patch_5">
    <path d="M 338.726875 228.96 
L 338.726875 7.2 
" style="fill: none; stroke: #000000; stroke-width: 0.8; stroke-linejoin: miter; stroke-linecap: square"/>
   </g>
   <g id="patch_6">
    <path d="M 59.726875 228.96 
L 338.726875 228.96 
" style="fill: none; stroke: #000000; stroke-width: 0.8; stroke-linejoin: miter; stroke-linecap: square"/>
   </g>
   <g id="patch_7">
    <path d="M 59.726875 7.2 
L 338.726875 7.2 
" style="fill: none; stroke: #000000; stroke-width: 0.8; stroke-linejoin: miter; stroke-linecap: square"/>
   </g>
   <g id="text_15">
    <!-- Timmins -->
    <g transform="translate(183.598128 76.810564) scale(0.09 -0.09)">
     <defs>
      <path id="DejaVuSerif-54" d="M 1222 0 
L 1222 331 
L 1819 331 
L 1819 4294 
L 447 4294 
L 447 3566 
L 63 3566 
L 63 4666 
L 4206 4666 
L 4206 3566 
L 3822 3566 
L 3822 4294 
L 2450 4294 
L 2450 331 
L 3047 331 
L 3047 0 
L 1222 0 
z
" transform="scale(0.015625)"/>
      <path id="DejaVuSerif-6d" d="M 3316 2675 
Q 3481 3041 3739 3227 
Q 3997 3413 4341 3413 
Q 4863 3413 5119 3089 
Q 5375 2766 5375 2113 
L 5375 331 
L 5894 331 
L 5894 0 
L 4300 0 
L 4300 331 
L 4800 331 
L 4800 2047 
Q 4800 2556 4650 2772 
Q 4500 2988 4153 2988 
Q 3769 2988 3567 2697 
Q 3366 2406 3366 1850 
L 3366 331 
L 3866 331 
L 3866 0 
L 2291 0 
L 2291 331 
L 2791 331 
L 2791 2069 
Q 2791 2566 2641 2777 
Q 2491 2988 2144 2988 
Q 1759 2988 1557 2697 
Q 1356 2406 1356 1850 
L 1356 331 
L 1856 331 
L 1856 0 
L 263 0 
L 263 331 
L 781 331 
L 781 2994 
L 231 2994 
L 231 3322 
L 1356 3322 
L 1356 2731 
Q 1516 3063 1762 3238 
Q 2009 3413 2322 3413 
Q 2709 3413 2968 3220 
Q 3228 3028 3316 2675 
z
" transform="scale(0.015625)"/>
      <path id="DejaVuSerif-73" d="M 359 184 
L 359 959 
L 691 959 
Q 703 588 923 403 
Q 1144 219 1575 219 
Q 1963 219 2166 364 
Q 2369 509 2369 788 
Q 2369 1006 2220 1140 
Q 2072 1275 1594 1428 
L 1178 1569 
Q 750 1706 558 1912 
Q 366 2119 366 2438 
Q 366 2894 700 3153 
Q 1034 3413 1625 3413 
Q 1888 3413 2178 3344 
Q 2469 3275 2778 3144 
L 2778 2419 
L 2447 2419 
Q 2434 2741 2221 2922 
Q 2009 3103 1644 3103 
Q 1281 3103 1095 2975 
Q 909 2847 909 2591 
Q 909 2381 1050 2254 
Q 1191 2128 1613 1997 
L 2069 1856 
Q 2541 1709 2748 1489 
Q 2956 1269 2956 922 
Q 2956 450 2595 179 
Q 2234 -91 1600 -91 
Q 1278 -91 972 -22 
Q 666 47 359 184 
z
" transform="scale(0.015625)"/>
     </defs>
     <use xlink:href="#DejaVuSerif-54"/>
     <use xlink:href="#DejaVuSerif-69" transform="translate(66.699219 0)"/>
     <use xlink:href="#DejaVuSerif-6d" transform="translate(98.681641 0)"/>
     <use xlink:href="#DejaVuSerif-6d" transform="translate(193.505859 0)"/>
     <use xlink:href="#DejaVuSerif-69" transform="translate(288.330078 0)"/>
     <use xlink:href="#DejaVuSerif-6e" transform="translate(320.3125 0)"/>
     <use xlink:href="#DejaVuSerif-73" transform="translate(384.716797 0)"/>
    </g>
   </g>
   <g id="text_16">
    <!-- Iroquois Falls -->
    <g transform="translate(220.109266 58.40748) scale(0.09 -0.09)">
     <defs>
      <path id="DejaVuSerif-49" d="M 1581 331 
L 2175 331 
L 2175 0 
L 353 0 
L 353 331 
L 947 331 
L 947 4331 
L 353 4331 
L 353 4666 
L 2175 4666 
L 2175 4331 
L 1581 4331 
L 1581 331 
z
" transform="scale(0.015625)"/>
      <path id="DejaVuSerif-72" d="M 3059 3328 
L 3059 2497 
L 2728 2497 
Q 2713 2744 2591 2866 
Q 2469 2988 2234 2988 
Q 1809 2988 1582 2694 
Q 1356 2400 1356 1850 
L 1356 331 
L 2022 331 
L 2022 0 
L 263 0 
L 263 331 
L 781 331 
L 781 2994 
L 231 2994 
L 231 3322 
L 1356 3322 
L 1356 2731 
Q 1525 3078 1790 3245 
Q 2056 3413 2438 3413 
Q 2578 3413 2733 3391 
Q 2888 3369 3059 3328 
z
" transform="scale(0.015625)"/>
      <path id="DejaVuSerif-71" d="M 3359 2988 
L 3359 -997 
L 3909 -997 
L 3909 -1331 
L 2241 -1331 
L 2241 -997 
L 2784 -997 
L 2784 519 
Q 2616 206 2355 57 
Q 2094 -91 1709 -91 
Q 1097 -91 708 395 
Q 319 881 319 1663 
Q 319 2444 706 2928 
Q 1094 3413 1709 3413 
Q 2094 3413 2355 3264 
Q 2616 3116 2784 2803 
L 2784 3322 
L 3909 3322 
L 3909 2988 
L 3359 2988 
z
M 2784 1825 
Q 2784 2422 2554 2737 
Q 2325 3053 1888 3053 
Q 1444 3053 1217 2703 
Q 991 2353 991 1663 
Q 991 975 1217 622 
Q 1444 269 1888 269 
Q 2325 269 2554 583 
Q 2784 897 2784 1497 
L 2784 1825 
z
" transform="scale(0.015625)"/>
      <path id="DejaVuSerif-20" transform="scale(0.015625)"/>
      <path id="DejaVuSerif-46" d="M 353 0 
L 353 331 
L 947 331 
L 947 4331 
L 353 4331 
L 353 4666 
L 4172 4666 
L 4172 3628 
L 3788 3628 
L 3788 4281 
L 1581 4281 
L 1581 2719 
L 3175 2719 
L 3175 3303 
L 3559 3303 
L 3559 1753 
L 3175 1753 
L 3175 2338 
L 1581 2338 
L 1581 331 
L 2328 331 
L 2328 0 
L 353 0 
z
" transform="scale(0.015625)"/>
      <path id="DejaVuSerif-6c" d="M 1313 331 
L 1856 331 
L 1856 0 
L 184 0 
L 184 331 
L 738 331 
L 738 4531 
L 184 4531 
L 184 4863 
L 1313 4863 
L 1313 331 
z
" transform="scale(0.015625)"/>
     </defs>
     <use xlink:href="#DejaVuSerif-49"/>
     <use xlink:href="#DejaVuSerif-72" transform="translate(39.501953 0)"/>
     <use xlink:href="#DejaVuSerif-6f" transform="translate(87.304688 0)"/>
     <use xlink:href="#DejaVuSerif-71" transform="translate(147.509766 0)"/>
     <use xlink:href="#DejaVuSerif-75" transform="translate(211.523438 0)"/>
     <use xlink:href="#DejaVuSerif-6f" transform="translate(275.927734 0)"/>
     <use xlink:href="#DejaVuSerif-69" transform="translate(336.132812 0)"/>
     <use xlink:href="#DejaVuSerif-73" transform="translate(368.115234 0)"/>
     <use xlink:href="#DejaVuSerif-20" transform="translate(419.433594 0)"/>
     <use xlink:href="#DejaVuSerif-46" transform="translate(451.220703 0)"/>
     <use xlink:href="#DejaVuSerif-61" transform="translate(513.855469 0)"/>
     <use xlink:href="#DejaVuSerif-6c" transform="translate(573.474609 0)"/>
     <use xlink:href="#DejaVuSerif-6c" transform="translate(605.457031 0)"/>
     <use xlink:href="#DejaVuSerif-73" transform="translate(637.439453 0)"/>
    </g>
   </g>
   <g id="text_17">
    <!-- Kapuskasing -->
    <g transform="translate(121.578128 17.315058) scale(0.09 -0.09)">
     <defs>
      <path id="DejaVuSerif-4b" d="M 353 0 
L 353 331 
L 947 331 
L 947 4331 
L 353 4331 
L 353 4666 
L 2175 4666 
L 2175 4331 
L 1581 4331 
L 1581 2566 
L 3591 4331 
L 3084 4331 
L 3084 4666 
L 4634 4666 
L 4634 4331 
L 4109 4331 
L 2106 2572 
L 4347 331 
L 4878 331 
L 4878 0 
L 3794 0 
L 1581 2216 
L 1581 331 
L 2175 331 
L 2175 0 
L 353 0 
z
" transform="scale(0.015625)"/>
      <path id="DejaVuSerif-70" d="M 1313 1825 
L 1313 1497 
Q 1313 897 1542 583 
Q 1772 269 2209 269 
Q 2650 269 2876 622 
Q 3103 975 3103 1663 
Q 3103 2353 2876 2703 
Q 2650 3053 2209 3053 
Q 1772 3053 1542 2737 
Q 1313 2422 1313 1825 
z
M 738 2988 
L 184 2988 
L 184 3322 
L 1313 3322 
L 1313 2803 
Q 1481 3116 1742 3264 
Q 2003 3413 2388 3413 
Q 3000 3413 3387 2928 
Q 3775 2444 3775 1663 
Q 3775 881 3387 395 
Q 3000 -91 2388 -91 
Q 2003 -91 1742 57 
Q 1481 206 1313 519 
L 1313 -997 
L 1856 -997 
L 1856 -1331 
L 184 -1331 
L 184 -997 
L 738 -997 
L 738 2988 
z
" transform="scale(0.015625)"/>
      <path id="DejaVuSerif-6b" d="M 1831 0 
L 219 0 
L 219 331 
L 738 331 
L 738 4531 
L 184 4531 
L 184 4863 
L 1313 4863 
L 1313 1697 
L 2713 2988 
L 2234 2988 
L 2234 3322 
L 3738 3322 
L 3738 2988 
L 3169 2988 
L 2181 2075 
L 3444 331 
L 3922 331 
L 3922 0 
L 2284 0 
L 2284 331 
L 2759 331 
L 1766 1697 
L 1313 1275 
L 1313 331 
L 1831 331 
L 1831 0 
z
" transform="scale(0.015625)"/>
     </defs>
     <use xlink:href="#DejaVuSerif-4b"/>
     <use xlink:href="#DejaVuSerif-61" transform="translate(74.707031 0)"/>
     <use xlink:href="#DejaVuSerif-70" transform="translate(134.326172 0)"/>
     <use xlink:href="#DejaVuSerif-75" transform="translate(198.339844 0)"/>
     <use xlink:href="#DejaVuSerif-73" transform="translate(262.744141 0)"/>
     <use xlink:href="#DejaVuSerif-6b" transform="translate(314.0625 0)"/>
     <use xlink:href="#DejaVuSerif-61" transform="translate(374.658203 0)"/>
     <use xlink:href="#DejaVuSerif-73" transform="translate(434.277344 0)"/>
     <use xlink:href="#DejaVuSerif-69" transform="translate(485.595703 0)"/>
     <use xlink:href="#DejaVuSerif-6e" transform="translate(517.578125 0)"/>
     <use xlink:href="#DejaVuSerif-67" transform="translate(581.982422 0)"/>
    </g>
   </g>
   <g id="text_18">
    <!-- Cochrane -->
    <g transform="translate(201.288396 39.435425) scale(0.09 -0.09)">
     <defs>
      <path id="DejaVuSerif-43" d="M 4513 1234 
Q 4306 581 3820 245 
Q 3334 -91 2591 -91 
Q 2134 -91 1743 65 
Q 1353 222 1050 525 
Q 700 875 529 1320 
Q 359 1766 359 2328 
Q 359 3416 987 4083 
Q 1616 4750 2644 4750 
Q 3025 4750 3456 4650 
Q 3888 4550 4384 4347 
L 4384 3272 
L 4031 3272 
Q 3916 3859 3567 4137 
Q 3219 4416 2591 4416 
Q 1844 4416 1459 3886 
Q 1075 3356 1075 2328 
Q 1075 1303 1459 773 
Q 1844 244 2591 244 
Q 3113 244 3450 492 
Q 3788 741 3938 1234 
L 4513 1234 
z
" transform="scale(0.015625)"/>
      <path id="DejaVuSerif-63" d="M 3291 997 
Q 3169 466 2822 187 
Q 2475 -91 1925 -91 
Q 1200 -91 759 389 
Q 319 869 319 1663 
Q 319 2459 759 2936 
Q 1200 3413 1925 3413 
Q 2241 3413 2553 3339 
Q 2866 3266 3181 3116 
L 3181 2266 
L 2847 2266 
Q 2781 2703 2561 2903 
Q 2341 3103 1931 3103 
Q 1466 3103 1228 2742 
Q 991 2381 991 1663 
Q 991 944 1227 581 
Q 1463 219 1931 219 
Q 2303 219 2525 412 
Q 2747 606 2828 997 
L 3291 997 
z
" transform="scale(0.015625)"/>
      <path id="DejaVuSerif-68" d="M 263 0 
L 263 331 
L 781 331 
L 781 4531 
L 231 4531 
L 231 4863 
L 1356 4863 
L 1356 2731 
Q 1516 3069 1770 3241 
Q 2025 3413 2363 3413 
Q 2913 3413 3172 3097 
Q 3431 2781 3431 2113 
L 3431 331 
L 3944 331 
L 3944 0 
L 2356 0 
L 2356 331 
L 2853 331 
L 2853 1931 
Q 2853 2541 2704 2764 
Q 2556 2988 2175 2988 
Q 1775 2988 1565 2697 
Q 1356 2406 1356 1850 
L 1356 331 
L 1856 331 
L 1856 0 
L 263 0 
z
" transform="scale(0.015625)"/>
     </defs>
     <use xlink:href="#DejaVuSerif-43"/>
     <use xlink:href="#DejaVuSerif-6f" transform="translate(76.513672 0)"/>
     <use xlink:href="#DejaVuSerif-63" transform="translate(136.71875 0)"/>
     <use xlink:href="#DejaVuSerif-68" transform="translate(192.724609 0)"/>
     <use xlink:href="#DejaVuSerif-72" transform="translate(257.128906 0)"/>
     <use xlink:href="#DejaVuSerif-61" transform="translate(304.931641 0)"/>
     <use xlink:href="#DejaVuSerif-6e" transform="translate(364.550781 0)"/>
     <use xlink:href="#DejaVuSerif-65" transform="translate(428.955078 0)"/>
    </g>
   </g>
   <g id="text_19">
    <!-- Kirkland Lake -->
    <g transform="translate(256.603531 97.331488) scale(0.09 -0.09)">
     <use xlink:href="#DejaVuSerif-4b"/>
     <use xlink:href="#DejaVuSerif-69" transform="translate(74.707031 0)"/>
     <use xlink:href="#DejaVuSerif-72" transform="translate(106.689453 0)"/>
     <use xlink:href="#DejaVuSerif-6b" transform="translate(154.492188 0)"/>
     <use xlink:href="#DejaVuSerif-6c" transform="translate(215.087891 0)"/>
     <use xlink:href="#DejaVuSerif-61" transform="translate(247.070312 0)"/>
     <use xlink:href="#DejaVuSerif-6e" transform="translate(306.689453 0)"/>
     <use xlink:href="#DejaVuSerif-64" transform="translate(371.09375 0)"/>
     <use xlink:href="#DejaVuSerif-20" transform="translate(435.107422 0)"/>
     <use xlink:href="#DejaVuSerif-4c" transform="translate(466.894531 0)"/>
     <use xlink:href="#DejaVuSerif-61" transform="translate(533.300781 0)"/>
     <use xlink:href="#DejaVuSerif-6b" transform="translate(592.919922 0)"/>
     <use xlink:href="#DejaVuSerif-65" transform="translate(653.515625 0)"/>
    </g>
   </g>
   <g id="text_20">
    <!-- NorthBay -->
    <g transform="translate(73.226603 213.787413) scale(0.09 -0.09)">
     <defs>
      <path id="DejaVuSerif-4e" d="M 313 0 
L 313 331 
L 941 331 
L 941 4331 
L 313 4331 
L 313 4666 
L 1509 4666 
L 4306 984 
L 4306 4331 
L 3681 4331 
L 3681 4666 
L 5319 4666 
L 5319 4331 
L 4691 4331 
L 4691 -91 
L 4313 -91 
L 1325 3841 
L 1325 331 
L 1953 331 
L 1953 0 
L 313 0 
z
" transform="scale(0.015625)"/>
      <path id="DejaVuSerif-42" d="M 1581 331 
L 2516 331 
Q 3078 331 3337 575 
Q 3597 819 3597 1350 
Q 3597 1878 3339 2120 
Q 3081 2363 2516 2363 
L 1581 2363 
L 1581 331 
z
M 1581 2694 
L 2375 2694 
Q 2888 2694 3123 2891 
Q 3359 3088 3359 3513 
Q 3359 3941 3123 4136 
Q 2888 4331 2375 4331 
L 1581 4331 
L 1581 2694 
z
M 353 0 
L 353 331 
L 947 331 
L 947 4331 
L 353 4331 
L 353 4666 
L 2656 4666 
Q 3363 4666 3720 4377 
Q 4078 4088 4078 3513 
Q 4078 3097 3829 2850 
Q 3581 2603 3103 2547 
Q 3697 2472 4005 2167 
Q 4313 1863 4313 1350 
Q 4313 656 3875 328 
Q 3438 0 2509 0 
L 353 0 
z
" transform="scale(0.015625)"/>
      <path id="DejaVuSerif-79" d="M 1381 -609 
L 1600 -56 
L 359 2988 
L -19 2988 
L -19 3322 
L 1509 3322 
L 1509 2988 
L 978 2988 
L 1913 703 
L 2847 2988 
L 2350 2988 
L 2350 3322 
L 3597 3322 
L 3597 2988 
L 3225 2988 
L 1703 -750 
Q 1547 -1138 1356 -1280 
Q 1166 -1422 819 -1422 
Q 672 -1422 517 -1397 
Q 363 -1372 206 -1325 
L 206 -691 
L 500 -691 
Q 519 -903 608 -995 
Q 697 -1088 884 -1088 
Q 1056 -1088 1161 -992 
Q 1266 -897 1381 -609 
z
" transform="scale(0.015625)"/>
     </defs>
     <use xlink:href="#DejaVuSerif-4e"/>
     <use xlink:href="#DejaVuSerif-6f" transform="translate(87.5 0)"/>
     <use xlink:href="#DejaVuSerif-72" transform="translate(147.705078 0)"/>
     <use xlink:href="#DejaVuSerif-74" transform="translate(195.507812 0)"/>
     <use xlink:href="#DejaVuSerif-68" transform="translate(235.693359 0)"/>
     <use xlink:href="#DejaVuSerif-42" transform="translate(300.097656 0)"/>
     <use xlink:href="#DejaVuSerif-61" transform="translate(373.583984 0)"/>
     <use xlink:href="#DejaVuSerif-79" transform="translate(433.203125 0)"/>
    </g>
   </g>
   <g id="text_21">
    <!-- 0:(277.06, 47.85) -->
    <g style="fill: #ff0000" transform="translate(101.657807 122.138948) scale(0.09 -0.09)">
     <defs>
      <path id="DejaVuSerif-Italic-30" d="M 1011 744 
Q 1147 219 1625 219 
Q 2103 219 2442 744 
Q 2781 1269 2988 2328 
Q 3194 3391 3058 3916 
Q 2922 4441 2444 4441 
Q 1966 4441 1627 3916 
Q 1288 3391 1081 2328 
Q 875 1269 1011 744 
z
M 1563 -91 
Q 803 -91 501 546 
Q 200 1184 422 2328 
Q 644 3475 1195 4112 
Q 1747 4750 2506 4750 
Q 3269 4750 3569 4112 
Q 3869 3475 3647 2328 
Q 3425 1184 2875 546 
Q 2325 -91 1563 -91 
z
" transform="scale(0.015625)"/>
      <path id="DejaVuSerif-Italic-3a" d="M 529 29 
Q 434 150 468 325 
Q 503 500 647 622 
Q 791 744 966 744 
Q 1141 744 1237 622 
Q 1334 500 1300 325 
Q 1266 150 1123 29 
Q 981 -91 803 -91 
Q 625 -91 529 29 
z
M 926 2067 
Q 828 2188 862 2363 
Q 897 2538 1040 2658 
Q 1184 2778 1359 2778 
Q 1538 2778 1633 2659 
Q 1728 2541 1693 2362 
Q 1659 2184 1518 2065 
Q 1378 1947 1200 1947 
Q 1025 1947 926 2067 
z
" transform="scale(0.015625)"/>
      <path id="DejaVuSerif-Italic-28" d="M 1472 -997 
Q 778 -656 534 83 
Q 291 822 506 1931 
Q 722 3044 1253 3783 
Q 1784 4522 2609 4863 
L 2550 4556 
Q 2006 4225 1679 3623 
Q 1353 3022 1141 1931 
Q 928 844 1020 242 
Q 1113 -359 1531 -691 
L 1472 -997 
z
" transform="scale(0.015625)"/>
      <path id="DejaVuSerif-Italic-32" d="M 1050 3553 
L 700 3553 
L 863 4384 
Q 1231 4563 1589 4656 
Q 1947 4750 2272 4750 
Q 3000 4750 3353 4397 
Q 3706 4044 3588 3438 
Q 3456 2753 2313 1800 
Q 2225 1728 2178 1691 
L 772 513 
L 2719 513 
L 2831 1088 
L 3197 1088 
L 2984 0 
L -25 0 
L 41 341 
L 1731 1753 
Q 2291 2222 2567 2614 
Q 2844 3006 2928 3438 
Q 3019 3909 2825 4175 
Q 2631 4441 2200 4441 
Q 1753 4441 1467 4219 
Q 1181 3997 1050 3553 
z
" transform="scale(0.015625)"/>
      <path id="DejaVuSerif-Italic-37" d="M 4000 4347 
L 1331 0 
L 866 0 
L 3413 4153 
L 1256 4153 
L 1144 3578 
L 778 3578 
L 991 4666 
L 4063 4666 
L 4000 4347 
z
" transform="scale(0.015625)"/>
      <path id="DejaVuSerif-Italic-2e" d="M 664 29 
Q 569 150 603 325 
Q 638 500 780 622 
Q 922 744 1100 744 
Q 1272 744 1370 622 
Q 1469 500 1434 325 
Q 1400 153 1254 31 
Q 1109 -91 938 -91 
Q 759 -91 664 29 
z
" transform="scale(0.015625)"/>
      <path id="DejaVuSerif-Italic-36" d="M 1070 553 
Q 1244 219 1684 219 
Q 2125 219 2425 542 
Q 2725 866 2842 1472 
Q 2959 2078 2786 2401 
Q 2613 2725 2172 2725 
Q 1725 2725 1429 2412 
Q 1134 2100 1019 1509 
Q 897 888 1070 553 
z
M 1122 2569 
Q 1378 2803 1670 2918 
Q 1963 3034 2300 3034 
Q 2997 3034 3320 2615 
Q 3644 2197 3503 1472 
Q 3366 763 2845 336 
Q 2325 -91 1597 -91 
Q 806 -91 497 498 
Q 188 1088 400 2181 
Q 638 3406 1272 4078 
Q 1906 4750 2822 4750 
Q 3069 4750 3331 4703 
Q 3594 4656 3859 4563 
L 3709 3794 
L 3356 3794 
Q 3381 4109 3209 4275 
Q 3038 4441 2694 4441 
Q 2088 4441 1702 3981 
Q 1316 3522 1122 2569 
z
" transform="scale(0.015625)"/>
      <path id="DejaVuSerif-Italic-2c" d="M 125 -622 
Q 463 -406 656 -114 
Q 850 178 931 594 
L 953 709 
L 1569 709 
Q 1441 175 1139 -208 
Q 838 -591 328 -872 
L 125 -622 
z
" transform="scale(0.015625)"/>
      <path id="DejaVuSerif-Italic-20" transform="scale(0.015625)"/>
      <path id="DejaVuSerif-Italic-34" d="M 2084 1581 
L 2566 4063 
L 491 1581 
L 2084 1581 
z
M 3150 0 
L 1025 0 
L 1091 331 
L 1841 331 
L 2019 1247 
L -19 1247 
L 47 1588 
L 2706 4750 
L 3325 4750 
L 2709 1581 
L 3600 1581 
L 3534 1247 
L 2644 1247 
L 2466 331 
L 3216 331 
L 3150 0 
z
" transform="scale(0.015625)"/>
      <path id="DejaVuSerif-Italic-38" d="M 2775 1275 
Q 2872 1775 2678 2051 
Q 2484 2328 2034 2328 
Q 1584 2328 1281 2051 
Q 978 1775 881 1275 
Q 784 772 979 495 
Q 1175 219 1625 219 
Q 2075 219 2376 495 
Q 2678 772 2775 1275 
z
M 3088 3541 
Q 3172 3966 3001 4203 
Q 2831 4441 2444 4441 
Q 2059 4441 1796 4203 
Q 1534 3966 1450 3541 
Q 1369 3113 1539 2875 
Q 1709 2638 2094 2638 
Q 2481 2638 2743 2875 
Q 3006 3113 3088 3541 
z
M 2547 2484 
Q 3063 2413 3297 2092 
Q 3531 1772 3434 1275 
Q 3309 619 2823 264 
Q 2338 -91 1563 -91 
Q 791 -91 444 264 
Q 97 619 222 1275 
Q 319 1772 678 2092 
Q 1038 2413 1588 2484 
Q 1131 2569 932 2842 
Q 734 3116 816 3541 
Q 925 4103 1376 4426 
Q 1828 4750 2506 4750 
Q 3184 4750 3507 4426 
Q 3831 4103 3722 3541 
Q 3641 3116 3336 2842 
Q 3031 2569 2547 2484 
z
" transform="scale(0.015625)"/>
      <path id="DejaVuSerif-Italic-35" d="M 3681 4666 
L 3581 4153 
L 1444 4153 
L 1184 2816 
Q 1369 2928 1597 2984 
Q 1825 3041 2094 3041 
Q 2850 3041 3206 2622 
Q 3563 2203 3422 1478 
Q 3278 738 2754 323 
Q 2231 -91 1431 -91 
Q 1109 -91 787 -12 
Q 466 66 144 225 
L 319 1131 
L 672 1131 
Q 613 688 822 453 
Q 1031 219 1491 219 
Q 1984 219 2314 544 
Q 2644 869 2763 1478 
Q 2878 2084 2678 2407 
Q 2478 2731 1981 2731 
Q 1700 2731 1465 2631 
Q 1231 2531 1025 2322 
L 756 2322 
L 1213 4666 
L 3681 4666 
z
" transform="scale(0.015625)"/>
      <path id="DejaVuSerif-Italic-29" d="M -113 -997 
L -53 -691 
Q 491 -359 819 242 
Q 1147 844 1359 1931 
Q 1572 3022 1478 3623 
Q 1384 4225 966 4556 
L 1025 4863 
Q 1722 4522 1965 3783 
Q 2209 3044 1994 1931 
Q 1778 822 1247 83 
Q 716 -656 -113 -997 
z
" transform="scale(0.015625)"/>
     </defs>
     <use xlink:href="#DejaVuSerif-Italic-30"/>
     <use xlink:href="#DejaVuSerif-Italic-3a" transform="translate(63.623047 0)"/>
     <use xlink:href="#DejaVuSerif-Italic-28" transform="translate(97.314453 0)"/>
     <use xlink:href="#DejaVuSerif-Italic-32" transform="translate(136.328125 0)"/>
     <use xlink:href="#DejaVuSerif-Italic-37" transform="translate(199.951172 0)"/>
     <use xlink:href="#DejaVuSerif-Italic-37" transform="translate(263.574219 0)"/>
     <use xlink:href="#DejaVuSerif-Italic-2e" transform="translate(327.197266 0)"/>
     <use xlink:href="#DejaVuSerif-Italic-30" transform="translate(358.984375 0)"/>
     <use xlink:href="#DejaVuSerif-Italic-36" transform="translate(422.607422 0)"/>
     <use xlink:href="#DejaVuSerif-Italic-2c" transform="translate(486.230469 0)"/>
     <use xlink:href="#DejaVuSerif-Italic-20" transform="translate(518.017578 0)"/>
     <use xlink:href="#DejaVuSerif-Italic-34" transform="translate(549.804688 0)"/>
     <use xlink:href="#DejaVuSerif-Italic-37" transform="translate(613.427734 0)"/>
     <use xlink:href="#DejaVuSerif-Italic-2e" transform="translate(677.050781 0)"/>
     <use xlink:href="#DejaVuSerif-Italic-38" transform="translate(708.837891 0)"/>
     <use xlink:href="#DejaVuSerif-Italic-35" transform="translate(772.460938 0)"/>
     <use xlink:href="#DejaVuSerif-Italic-29" transform="translate(836.083984 0)"/>
    </g>
   </g>
   <g id="text_22">
    <!-- 1:(277.77, 47.67) -->
    <g style="fill: #ff0000" transform="translate(141.512941 133.199132) scale(0.09 -0.09)">
     <defs>
      <path id="DejaVuSerif-Italic-31" d="M 447 0 
L 513 331 
L 1325 331 
L 2078 4213 
L 1019 3603 
L 1100 4013 
L 2381 4750 
L 2813 4750 
L 1953 331 
L 2766 331 
L 2700 0 
L 447 0 
z
" transform="scale(0.015625)"/>
     </defs>
     <use xlink:href="#DejaVuSerif-Italic-31"/>
     <use xlink:href="#DejaVuSerif-Italic-3a" transform="translate(63.623047 0)"/>
     <use xlink:href="#DejaVuSerif-Italic-28" transform="translate(97.314453 0)"/>
     <use xlink:href="#DejaVuSerif-Italic-32" transform="translate(136.328125 0)"/>
     <use xlink:href="#DejaVuSerif-Italic-37" transform="translate(199.951172 0)"/>
     <use xlink:href="#DejaVuSerif-Italic-37" transform="translate(263.574219 0)"/>
     <use xlink:href="#DejaVuSerif-Italic-2e" transform="translate(327.197266 0)"/>
     <use xlink:href="#DejaVuSerif-Italic-37" transform="translate(358.984375 0)"/>
     <use xlink:href="#DejaVuSerif-Italic-37" transform="translate(422.607422 0)"/>
     <use xlink:href="#DejaVuSerif-Italic-2c" transform="translate(486.230469 0)"/>
     <use xlink:href="#DejaVuSerif-Italic-20" transform="translate(518.017578 0)"/>
     <use xlink:href="#DejaVuSerif-Italic-34" transform="translate(549.804688 0)"/>
     <use xlink:href="#DejaVuSerif-Italic-37" transform="translate(613.427734 0)"/>
     <use xlink:href="#DejaVuSerif-Italic-2e" transform="translate(677.050781 0)"/>
     <use xlink:href="#DejaVuSerif-Italic-36" transform="translate(708.837891 0)"/>
     <use xlink:href="#DejaVuSerif-Italic-37" transform="translate(772.460938 0)"/>
     <use xlink:href="#DejaVuSerif-Italic-29" transform="translate(836.083984 0)"/>
    </g>
   </g>
   <g id="text_23">
    <!-- 2:(277.94, 47.52) -->
    <g style="fill: #ff0000" transform="translate(150.923376 142.68516) scale(0.09 -0.09)">
     <defs>
      <path id="DejaVuSerif-Italic-39" d="M 2947 2091 
Q 2694 1856 2398 1740 
Q 2103 1625 1763 1625 
Q 1069 1625 748 2044 
Q 428 2463 569 3188 
Q 706 3897 1226 4323 
Q 1747 4750 2475 4750 
Q 3266 4750 3573 4161 
Q 3881 3572 3669 2478 
Q 3431 1253 2797 581 
Q 2163 -91 1250 -91 
Q 1003 -91 740 -44 
Q 478 3 213 97 
L 363 872 
L 713 872 
Q 694 556 864 387 
Q 1034 219 1375 219 
Q 1981 219 2367 676 
Q 2753 1134 2947 2091 
z
M 2388 4441 
Q 1944 4441 1645 4117 
Q 1347 3794 1230 3187 
Q 1113 2581 1284 2256 
Q 1456 1931 1900 1931 
Q 2344 1931 2641 2245 
Q 2938 2559 3053 3150 
Q 3175 3772 3001 4106 
Q 2828 4441 2388 4441 
z
" transform="scale(0.015625)"/>
     </defs>
     <use xlink:href="#DejaVuSerif-Italic-32"/>
     <use xlink:href="#DejaVuSerif-Italic-3a" transform="translate(63.623047 0)"/>
     <use xlink:href="#DejaVuSerif-Italic-28" transform="translate(97.314453 0)"/>
     <use xlink:href="#DejaVuSerif-Italic-32" transform="translate(136.328125 0)"/>
     <use xlink:href="#DejaVuSerif-Italic-37" transform="translate(199.951172 0)"/>
     <use xlink:href="#DejaVuSerif-Italic-37" transform="translate(263.574219 0)"/>
     <use xlink:href="#DejaVuSerif-Italic-2e" transform="translate(327.197266 0)"/>
     <use xlink:href="#DejaVuSerif-Italic-39" transform="translate(358.984375 0)"/>
     <use xlink:href="#DejaVuSerif-Italic-34" transform="translate(422.607422 0)"/>
     <use xlink:href="#DejaVuSerif-Italic-2c" transform="translate(486.230469 0)"/>
     <use xlink:href="#DejaVuSerif-Italic-20" transform="translate(518.017578 0)"/>
     <use xlink:href="#DejaVuSerif-Italic-34" transform="translate(549.804688 0)"/>
     <use xlink:href="#DejaVuSerif-Italic-37" transform="translate(613.427734 0)"/>
     <use xlink:href="#DejaVuSerif-Italic-2e" transform="translate(677.050781 0)"/>
     <use xlink:href="#DejaVuSerif-Italic-35" transform="translate(708.837891 0)"/>
     <use xlink:href="#DejaVuSerif-Italic-32" transform="translate(772.460938 0)"/>
     <use xlink:href="#DejaVuSerif-Italic-29" transform="translate(836.083984 0)"/>
    </g>
   </g>
   <g id="text_24">
    <!-- 3:(278.26, 47.21) -->
    <g style="fill: #ff0000" transform="translate(169.170508 162.147163) scale(0.09 -0.09)">
     <defs>
      <path id="DejaVuSerif-Italic-33" d="M 1038 4469 
Q 1431 4606 1781 4678 
Q 2131 4750 2425 4750 
Q 3109 4750 3436 4454 
Q 3763 4159 3659 3634 
Q 3578 3213 3258 2930 
Q 2938 2647 2431 2547 
Q 2988 2466 3241 2130 
Q 3494 1794 3388 1259 
Q 3263 606 2755 257 
Q 2247 -91 1422 -91 
Q 1056 -91 723 -12 
Q 391 66 78 225 
L 253 1131 
L 603 1131 
Q 547 681 775 450 
Q 1003 219 1497 219 
Q 1975 219 2304 495 
Q 2634 772 2728 1253 
Q 2834 1803 2604 2086 
Q 2375 2369 1825 2369 
L 1528 2369 
L 1591 2688 
L 1747 2688 
Q 2294 2688 2611 2914 
Q 2928 3141 3019 3597 
Q 3097 4006 2914 4223 
Q 2731 4441 2309 4441 
Q 1888 4441 1616 4241 
Q 1344 4041 1228 3647 
L 878 3647 
L 1038 4469 
z
" transform="scale(0.015625)"/>
     </defs>
     <use xlink:href="#DejaVuSerif-Italic-33"/>
     <use xlink:href="#DejaVuSerif-Italic-3a" transform="translate(63.623047 0)"/>
     <use xlink:href="#DejaVuSerif-Italic-28" transform="translate(97.314453 0)"/>
     <use xlink:href="#DejaVuSerif-Italic-32" transform="translate(136.328125 0)"/>
     <use xlink:href="#DejaVuSerif-Italic-37" transform="translate(199.951172 0)"/>
     <use xlink:href="#DejaVuSerif-Italic-38" transform="translate(263.574219 0)"/>
     <use xlink:href="#DejaVuSerif-Italic-2e" transform="translate(327.197266 0)"/>
     <use xlink:href="#DejaVuSerif-Italic-32" transform="translate(358.984375 0)"/>
     <use xlink:href="#DejaVuSerif-Italic-36" transform="translate(422.607422 0)"/>
     <use xlink:href="#DejaVuSerif-Italic-2c" transform="translate(486.230469 0)"/>
     <use xlink:href="#DejaVuSerif-Italic-20" transform="translate(518.017578 0)"/>
     <use xlink:href="#DejaVuSerif-Italic-34" transform="translate(549.804688 0)"/>
     <use xlink:href="#DejaVuSerif-Italic-37" transform="translate(613.427734 0)"/>
     <use xlink:href="#DejaVuSerif-Italic-2e" transform="translate(677.050781 0)"/>
     <use xlink:href="#DejaVuSerif-Italic-32" transform="translate(708.837891 0)"/>
     <use xlink:href="#DejaVuSerif-Italic-31" transform="translate(772.460938 0)"/>
     <use xlink:href="#DejaVuSerif-Italic-29" transform="translate(836.083984 0)"/>
    </g>
   </g>
   <g id="text_25">
    <!-- 4:(277.61, 47.38) -->
    <g style="fill: #ff0000" transform="translate(132.667807 151.886701) scale(0.09 -0.09)">
     <use xlink:href="#DejaVuSerif-Italic-34"/>
     <use xlink:href="#DejaVuSerif-Italic-3a" transform="translate(63.623047 0)"/>
     <use xlink:href="#DejaVuSerif-Italic-28" transform="translate(97.314453 0)"/>
     <use xlink:href="#DejaVuSerif-Italic-32" transform="translate(136.328125 0)"/>
     <use xlink:href="#DejaVuSerif-Italic-37" transform="translate(199.951172 0)"/>
     <use xlink:href="#DejaVuSerif-Italic-37" transform="translate(263.574219 0)"/>
     <use xlink:href="#DejaVuSerif-Italic-2e" transform="translate(327.197266 0)"/>
     <use xlink:href="#DejaVuSerif-Italic-36" transform="translate(358.984375 0)"/>
     <use xlink:href="#DejaVuSerif-Italic-31" transform="translate(422.607422 0)"/>
     <use xlink:href="#DejaVuSerif-Italic-2c" transform="translate(486.230469 0)"/>
     <use xlink:href="#DejaVuSerif-Italic-20" transform="translate(518.017578 0)"/>
     <use xlink:href="#DejaVuSerif-Italic-34" transform="translate(549.804688 0)"/>
     <use xlink:href="#DejaVuSerif-Italic-37" transform="translate(613.427734 0)"/>
     <use xlink:href="#DejaVuSerif-Italic-2e" transform="translate(677.050781 0)"/>
     <use xlink:href="#DejaVuSerif-Italic-33" transform="translate(708.837891 0)"/>
     <use xlink:href="#DejaVuSerif-Italic-38" transform="translate(772.460938 0)"/>
     <use xlink:href="#DejaVuSerif-Italic-29" transform="translate(836.083984 0)"/>
    </g>
   </g>
   <g id="text_26">
    <!-- 5:(278.69, 48.77) -->
    <g style="fill: #ff0000" transform="translate(193.346271 63.910986) scale(0.09 -0.09)">
     <use xlink:href="#DejaVuSerif-Italic-35"/>
     <use xlink:href="#DejaVuSerif-Italic-3a" transform="translate(63.623047 0)"/>
     <use xlink:href="#DejaVuSerif-Italic-28" transform="translate(97.314453 0)"/>
     <use xlink:href="#DejaVuSerif-Italic-32" transform="translate(136.328125 0)"/>
     <use xlink:href="#DejaVuSerif-Italic-37" transform="translate(199.951172 0)"/>
     <use xlink:href="#DejaVuSerif-Italic-38" transform="translate(263.574219 0)"/>
     <use xlink:href="#DejaVuSerif-Italic-2e" transform="translate(327.197266 0)"/>
     <use xlink:href="#DejaVuSerif-Italic-36" transform="translate(358.984375 0)"/>
     <use xlink:href="#DejaVuSerif-Italic-39" transform="translate(422.607422 0)"/>
     <use xlink:href="#DejaVuSerif-Italic-2c" transform="translate(486.230469 0)"/>
     <use xlink:href="#DejaVuSerif-Italic-20" transform="translate(518.017578 0)"/>
     <use xlink:href="#DejaVuSerif-Italic-34" transform="translate(549.804688 0)"/>
     <use xlink:href="#DejaVuSerif-Italic-38" transform="translate(613.427734 0)"/>
     <use xlink:href="#DejaVuSerif-Italic-2e" transform="translate(677.050781 0)"/>
     <use xlink:href="#DejaVuSerif-Italic-37" transform="translate(708.837891 0)"/>
     <use xlink:href="#DejaVuSerif-Italic-37" transform="translate(772.460938 0)"/>
     <use xlink:href="#DejaVuSerif-Italic-29" transform="translate(836.083984 0)"/>
    </g>
   </g>
   <g id="PathCollection_1">
    <defs>
     <path id="maf2550e9ed" d="M 0 -4.472136 
L -4.472136 4.472136 
L 4.472136 4.472136 
z
" style="stroke: #87ceeb"/>
    </defs>
    <g clip-path="url(#p25db010e7d)">
     <use xlink:href="#maf2550e9ed" x="181.348173" y="79.339328" style="fill: #87ceeb; stroke: #87ceeb"/>
    </g>
   </g>
   <g id="PathCollection_2">
    <g clip-path="url(#p25db010e7d)">
     <use xlink:href="#maf2550e9ed" x="217.859312" y="60.936245" style="fill: #87ceeb; stroke: #87ceeb"/>
    </g>
   </g>
   <g id="PathCollection_3">
    <g clip-path="url(#p25db010e7d)">
     <use xlink:href="#maf2550e9ed" x="119.328173" y="19.843822" style="fill: #87ceeb; stroke: #87ceeb"/>
    </g>
   </g>
   <g id="PathCollection_4">
    <g clip-path="url(#p25db010e7d)">
     <use xlink:href="#maf2550e9ed" x="199.038441" y="41.96419" style="fill: #87ceeb; stroke: #87ceeb"/>
    </g>
   </g>
   <g id="PathCollection_5">
    <g clip-path="url(#p25db010e7d)">
     <use xlink:href="#maf2550e9ed" x="254.353576" y="99.860252" style="fill: #87ceeb; stroke: #87ceeb"/>
    </g>
   </g>
   <g id="PathCollection_6">
    <g clip-path="url(#p25db010e7d)">
     <use xlink:href="#maf2550e9ed" x="70.976648" y="216.316178" style="fill: #87ceeb; stroke: #87ceeb"/>
    </g>
   </g>
   <g id="legend_1">
    <g id="patch_8">
     <path d="M 270.889531 48.291875 
L 331.026875 48.291875 
Q 333.226875 48.291875 333.226875 46.091875 
L 333.226875 14.9 
Q 333.226875 12.7 331.026875 12.7 
L 270.889531 12.7 
Q 268.689531 12.7 268.689531 14.9 
L 268.689531 46.091875 
Q 268.689531 48.291875 270.889531 48.291875 
z
" style="fill: #ffffff; opacity: 0.8; stroke: #cccccc; stroke-linejoin: miter"/>
    </g>
    <g id="line2d_31">
     <defs>
      <path id="m03d8ceead1" d="M 0 -3 
L -3 3 
L 3 3 
z
" style="stroke: #87ceeb; stroke-linejoin: miter"/>
     </defs>
     <g>
      <use xlink:href="#m03d8ceead1" x="284.089531" y="21.608281" style="fill: #87ceeb; stroke: #87ceeb; stroke-linejoin: miter"/>
     </g>
    </g>
    <g id="text_27">
     <!-- GS -->
     <g transform="translate(303.889531 25.458281) scale(0.11 -0.11)">
      <defs>
       <path id="DejaVuSerif-47" d="M 4097 3272 
Q 3988 3856 3641 4136 
Q 3294 4416 2675 4416 
Q 1869 4416 1472 3897 
Q 1075 3378 1075 2328 
Q 1075 1300 1484 772 
Q 1894 244 2688 244 
Q 3041 244 3362 331 
Q 3684 419 3975 594 
L 3975 1797 
L 3097 1797 
L 3097 2131 
L 4609 2131 
L 4609 391 
Q 4194 150 3714 29 
Q 3234 -91 2688 -91 
Q 1631 -91 995 570 
Q 359 1231 359 2328 
Q 359 3434 996 4092 
Q 1634 4750 2713 4750 
Q 3113 4750 3539 4658 
Q 3966 4566 4447 4378 
L 4447 3272 
L 4097 3272 
z
" transform="scale(0.015625)"/>
       <path id="DejaVuSerif-53" d="M 594 225 
L 594 1288 
L 953 1284 
Q 969 753 1261 498 
Q 1553 244 2150 244 
Q 2706 244 2998 464 
Q 3291 684 3291 1106 
Q 3291 1444 3114 1625 
Q 2938 1806 2369 1978 
L 1753 2163 
Q 1084 2366 811 2669 
Q 538 2972 538 3500 
Q 538 4094 959 4422 
Q 1381 4750 2144 4750 
Q 2469 4750 2856 4679 
Q 3244 4609 3681 4475 
L 3681 3481 
L 3328 3481 
Q 3275 3975 2998 4195 
Q 2722 4416 2156 4416 
Q 1663 4416 1405 4214 
Q 1147 4013 1147 3628 
Q 1147 3294 1340 3103 
Q 1534 2913 2163 2725 
L 2741 2553 
Q 3375 2363 3645 2067 
Q 3916 1772 3916 1275 
Q 3916 597 3481 253 
Q 3047 -91 2188 -91 
Q 1803 -91 1404 -12 
Q 1006 66 594 225 
z
" transform="scale(0.015625)"/>
      </defs>
      <use xlink:href="#DejaVuSerif-47"/>
      <use xlink:href="#DejaVuSerif-53" transform="translate(79.882812 0)"/>
     </g>
    </g>
    <g id="line2d_32">
     <defs>
      <path id="m7063d39084" d="M 0 3 
C 0.795609 3 1.55874 2.683901 2.12132 2.12132 
C 2.683901 1.55874 3 0.795609 3 0 
C 3 -0.795609 2.683901 -1.55874 2.12132 -2.12132 
C 1.55874 -2.683901 0.795609 -3 0 -3 
C -0.795609 -3 -1.55874 -2.683901 -2.12132 -2.12132 
C -2.683901 -1.55874 -3 -0.795609 -3 0 
C -3 0.795609 -2.683901 1.55874 -2.12132 2.12132 
C -1.55874 2.683901 -0.795609 3 0 3 
z
" style="stroke: #ff0000"/>
     </defs>
     <g>
      <use xlink:href="#m7063d39084" x="284.089531" y="37.754219" style="fill: #ff0000; stroke: #ff0000"/>
     </g>
    </g>
    <g id="text_28">
     <!-- HAP -->
     <g transform="translate(303.889531 41.604219) scale(0.11 -0.11)">
      <defs>
       <path id="DejaVuSerif-48" d="M 353 0 
L 353 331 
L 947 331 
L 947 4331 
L 353 4331 
L 353 4666 
L 2175 4666 
L 2175 4331 
L 1581 4331 
L 1581 2719 
L 4000 2719 
L 4000 4331 
L 3406 4331 
L 3406 4666 
L 5228 4666 
L 5228 4331 
L 4634 4331 
L 4634 331 
L 5228 331 
L 5228 0 
L 3406 0 
L 3406 331 
L 4000 331 
L 4000 2338 
L 1581 2338 
L 1581 331 
L 2175 331 
L 2175 0 
L 353 0 
z
" transform="scale(0.015625)"/>
       <path id="DejaVuSerif-41" d="M 1281 1691 
L 2994 1691 
L 2138 3909 
L 1281 1691 
z
M -38 0 
L -38 331 
L 372 331 
L 2034 4666 
L 2559 4666 
L 4225 331 
L 4684 331 
L 4684 0 
L 2988 0 
L 2988 331 
L 3506 331 
L 3116 1356 
L 1153 1356 
L 763 331 
L 1275 331 
L 1275 0 
L -38 0 
z
" transform="scale(0.015625)"/>
       <path id="DejaVuSerif-50" d="M 1581 2375 
L 2406 2375 
Q 2872 2375 3115 2626 
Q 3359 2878 3359 3353 
Q 3359 3831 3115 4081 
Q 2872 4331 2406 4331 
L 1581 4331 
L 1581 2375 
z
M 353 0 
L 353 331 
L 947 331 
L 947 4331 
L 353 4331 
L 353 4666 
L 2559 4666 
Q 3259 4666 3668 4311 
Q 4078 3956 4078 3353 
Q 4078 2753 3668 2397 
Q 3259 2041 2559 2041 
L 1581 2041 
L 1581 331 
L 2303 331 
L 2303 0 
L 353 0 
z
" transform="scale(0.015625)"/>
      </defs>
      <use xlink:href="#DejaVuSerif-48"/>
      <use xlink:href="#DejaVuSerif-41" transform="translate(87.207031 0)"/>
      <use xlink:href="#DejaVuSerif-50" transform="translate(159.423828 0)"/>
     </g>
    </g>
   </g>
   <g id="PathCollection_7">
    <defs>
     <path id="mc17b25b5b4" d="M 0 1.118034 
C 0.296506 1.118034 0.580908 1.000231 0.790569 0.790569 
C 1.000231 0.580908 1.118034 0.296506 1.118034 0 
C 1.118034 -0.296506 1.000231 -0.580908 0.790569 -0.790569 
C 0.580908 -1.000231 0.296506 -1.118034 0 -1.118034 
C -0.296506 -1.118034 -0.580908 -1.000231 -0.790569 -0.790569 
C -1.000231 -0.580908 -1.118034 -0.296506 -1.118034 0 
C -1.118034 0.296506 -1.000231 0.580908 -0.790569 0.790569 
C -0.580908 1.000231 -0.296506 1.118034 0 1.118034 
z
" style="stroke: #ff0000"/>
    </defs>
    <g clip-path="url(#p25db010e7d)">
     <use xlink:href="#mc17b25b5b4" x="90.78452" y="119.055018" style="fill: #ff0000; stroke: #ff0000"/>
    </g>
   </g>
   <g id="PathCollection_8">
    <g clip-path="url(#p25db010e7d)">
     <use xlink:href="#mc17b25b5b4" x="130.639654" y="130.115201" style="fill: #ff0000; stroke: #ff0000"/>
    </g>
   </g>
   <g id="PathCollection_9">
    <g clip-path="url(#p25db010e7d)">
     <use xlink:href="#mc17b25b5b4" x="140.05009" y="139.601229" style="fill: #ff0000; stroke: #ff0000"/>
    </g>
   </g>
   <g id="PathCollection_10">
    <g clip-path="url(#p25db010e7d)">
     <use xlink:href="#mc17b25b5b4" x="158.297222" y="159.063233" style="fill: #ff0000; stroke: #ff0000"/>
    </g>
   </g>
   <g id="PathCollection_11">
    <g clip-path="url(#p25db010e7d)">
     <use xlink:href="#mc17b25b5b4" x="121.79452" y="148.802771" style="fill: #ff0000; stroke: #ff0000"/>
    </g>
   </g>
   <g id="PathCollection_12">
    <g clip-path="url(#p25db010e7d)">
     <use xlink:href="#mc17b25b5b4" x="182.472984" y="60.827055" style="fill: #ff0000; stroke: #ff0000"/>
    </g>
   </g>
  </g>
  <g id="axes_2">
   <g id="patch_9">
    <path d="M 256.976875 216.96 
L 326.726875 216.96 
L 326.726875 161.52 
L 256.976875 161.52 
z
" style="fill: #ffffff"/>
   </g>
   <g id="patch_10">
    <path d="M 256.976875 161.52 
L 82.437605 107.598553 
" style="fill: none; stroke: #808080; stroke-linejoin: miter"/>
   </g>
   <g id="patch_11">
    <path d="M 326.726875 216.96 
L 125.844819 123.986666 
" style="fill: none; stroke: #808080; stroke-linejoin: miter"/>
   </g>
   <g id="matplotlib.axis_3"/>
   <g id="matplotlib.axis_4"/>
   <g id="line2d_33">
    <path d="M 270.389331 200.276531 
L 269.508109 194.098004 
L 267.948725 191.319073 
L 266.224349 189.540922 
L 264.268264 188.733168 
L 259.688423 191.160533 
L 261.570594 196.589716 
L 265.961012 200.937827 
L 269.566849 204.488564 
L 270.850927 203.624649 
L 271.003298 201.763985 
L 272.400631 200.133636 
L 273.777291 198.331222 
L 275.56288 196.256602 
L 275.754357 194.821838 
L 275.971879 193.715003 
L 276.24562 192.722399 
L 277.093253 194.978036 
L 277.478428 197.076234 
L 277.340949 198.936361 
L 277.10173 200.812197 
L 276.222526 200.705476 
L 275.257193 200.28809 
L 275.003997 203.01992 
L 274.82585 204.8668 
L 275.073083 200.65074 
L 275.206616 199.8118 
L 272.293732 203.487898 
L 269.244901 210.292664 
L 265.791098 209.838971 
L 263.474726 210.544007 
L 264.007299 207.438104 
L 265.077868 205.205498 
L 267.287922 205.532437 
L 270.036358 207.748744 
L 272.348174 207.481706 
L 274.323145 204.343372 
L 276.175337 205.120844 
L 278.458409 209.638076 
L 281.420545 204.222086 
L 284.692921 197.85787 
L 289.691932 189.484146 
L 295.053535 180.776459 
L 303.397688 175.029865 
L 311.470466 171.804417 
L 317.657551 170.859109 
L 322.368349 170.647427 
L 324.015327 167.935993 
" clip-path="url(#pc8aef0343c)" style="fill: none; stroke: #ff0000; stroke-width: 1.1; stroke-linecap: square"/>
   </g>
   <g id="patch_12">
    <path d="M 256.976875 216.96 
L 256.976875 161.52 
" style="fill: none; stroke: #000000; stroke-width: 0.8; stroke-linejoin: miter; stroke-linecap: square"/>
   </g>
   <g id="patch_13">
    <path d="M 326.726875 216.96 
L 326.726875 161.52 
" style="fill: none; stroke: #000000; stroke-width: 0.8; stroke-linejoin: miter; stroke-linecap: square"/>
   </g>
   <g id="patch_14">
    <path d="M 256.976875 216.96 
L 326.726875 216.96 
" style="fill: none; stroke: #000000; stroke-width: 0.8; stroke-linejoin: miter; stroke-linecap: square"/>
   </g>
   <g id="patch_15">
    <path d="M 256.976875 161.52 
L 326.726875 161.52 
" style="fill: none; stroke: #000000; stroke-width: 0.8; stroke-linejoin: miter; stroke-linecap: square"/>
   </g>
   <g id="PathCollection_13">
    <defs>
     <path id="m03c83fb2dd" d="M 0 0.707107 
C 0.187527 0.707107 0.367398 0.632602 0.5 0.5 
C 0.632602 0.367398 0.707107 0.187527 0.707107 0 
C 0.707107 -0.187527 0.632602 -0.367398 0.5 -0.5 
C 0.367398 -0.632602 0.187527 -0.707107 0 -0.707107 
C -0.187527 -0.707107 -0.367398 -0.632602 -0.5 -0.5 
C -0.632602 -0.367398 -0.707107 -0.187527 -0.707107 0 
C -0.707107 0.187527 -0.632602 0.367398 -0.5 0.5 
C -0.367398 0.632602 -0.187527 0.707107 0 0.707107 
z
" style="stroke: #ff0000"/>
    </defs>
    <g clip-path="url(#pc8aef0343c)">
     <use xlink:href="#m03c83fb2dd" x="270.389331" y="200.276531" style="fill: #ff0000; stroke: #ff0000"/>
    </g>
   </g>
  </g>
 </g>
 <defs>
  <clipPath id="p25db010e7d">
   <rect x="59.726875" y="7.2" width="279" height="221.76"/>
  </clipPath>
  <clipPath id="pc8aef0343c">
   <rect x="256.976875" y="161.52" width="69.75" height="55.44"/>
  </clipPath>
 </defs>
</svg>
