<?xml version="1.0" encoding="utf-8" standalone="no"?>
<!DOCTYPE svg PUBLIC "-//W3C//DTD SVG 1.1//EN"
  "http://www.w3.org/Graphics/SVG/1.1/DTD/svg11.dtd">
<svg xmlns:xlink="http://www.w3.org/1999/xlink" width="444.907813pt" height="211.671024pt" viewBox="0 0 444.907813 211.671024" xmlns="http://www.w3.org/2000/svg" version="1.1">
 <metadata>
  <rdf:RDF xmlns:dc="http://purl.org/dc/elements/1.1/" xmlns:cc="http://creativecommons.org/ns#" xmlns:rdf="http://www.w3.org/1999/02/22-rdf-syntax-ns#">
   <cc:Work>
    <dc:type rdf:resource="http://purl.org/dc/dcmitype/StillImage"/>
    <dc:date>2026-01-22T00:04:29.678995</dc:date>
    <dc:format>image/svg+xml</dc:format>
    <dc:creator>
     <cc:Agent>
      <dc:title>Matplotlib v3.10.8, https://matplotlib.org/</dc:title>
     </cc:Agent>
    </dc:creator>
   </cc:Work>
  </rdf:RDF>
 </metadata>
 <defs>
  <style type="text/css">*{stroke-linejoin: round; stroke-linecap: butt}</style>
 </defs>
 <g id="figure_1">
  <g id="patch_1">
   <path d="M 0 211.671024 
L 444.907813 211.671024 
L 444.907813 0 
L 0 0 
z
" style="fill: #ffffff"/>
  </g>
  <g id="axes_1">
   <g id="patch_2">
    <path d="M 47.107813 174.114774 
L 437.707813 174.114774 
L 437.707813 7.794774 
L 47.107813 7.794774 
z
" style="fill: #ffffff"/>
   </g>
   <g id="matplotlib.axis_1">
    <g id="xtick_1">
     <g id="line2d_1">
      <path d="M 83.551353 174.114774 
L 83.551353 7.794774 
" clip-path="url(#p5512f7f41f)" style="fill: none; stroke-dasharray: 2.96,1.28; stroke-dashoffset: 0; stroke: #b0b0b0; stroke-opacity: 0.5; stroke-width: 0.8"/>
     </g>
     <g id="line2d_2">
      <defs>
       <path id="m9a80e47d8d" d="M 0 0 
L 0 3.5 
" style="stroke: #000000; stroke-width: 0.8"/>
      </defs>
      <g>
       <use xlink:href="#m9a80e47d8d" x="83.551353" y="174.114774" style="stroke: #000000; stroke-width: 0.8"/>
      </g>
     </g>
     <g id="text_1">
      <!-- 0.2 -->
      <g transform="translate(75.599791 188.713212) scale(0.1 -0.1)">
       <defs>
        <path id="DejaVuSerif-30" d="M 2034 219 
Q 2513 219 2750 744 
Q 2988 1269 2988 2328 
Q 2988 3391 2750 3916 
Q 2513 4441 2034 4441 
Q 1556 4441 1318 3916 
Q 1081 3391 1081 2328 
Q 1081 1269 1318 744 
Q 1556 219 2034 219 
z
M 2034 -91 
Q 1275 -91 848 546 
Q 422 1184 422 2328 
Q 422 3475 848 4112 
Q 1275 4750 2034 4750 
Q 2797 4750 3222 4112 
Q 3647 3475 3647 2328 
Q 3647 1184 3222 546 
Q 2797 -91 2034 -91 
z
" transform="scale(0.015625)"/>
        <path id="DejaVuSerif-2e" d="M 603 325 
Q 603 500 722 622 
Q 841 744 1019 744 
Q 1191 744 1312 622 
Q 1434 500 1434 325 
Q 1434 153 1312 31 
Q 1191 -91 1019 -91 
Q 841 -91 722 29 
Q 603 150 603 325 
z
" transform="scale(0.015625)"/>
        <path id="DejaVuSerif-32" d="M 819 3553 
L 469 3553 
L 469 4384 
Q 803 4563 1142 4656 
Q 1481 4750 1806 4750 
Q 2534 4750 2956 4397 
Q 3378 4044 3378 3438 
Q 3378 2753 2422 1800 
Q 2347 1728 2309 1691 
L 1131 513 
L 3078 513 
L 3078 1088 
L 3444 1088 
L 3444 0 
L 434 0 
L 434 341 
L 1850 1753 
Q 2319 2222 2519 2614 
Q 2719 3006 2719 3438 
Q 2719 3909 2473 4175 
Q 2228 4441 1797 4441 
Q 1350 4441 1106 4219 
Q 863 3997 819 3553 
z
" transform="scale(0.015625)"/>
       </defs>
       <use xlink:href="#DejaVuSerif-30"/>
       <use xlink:href="#DejaVuSerif-2e" transform="translate(63.623047 0)"/>
       <use xlink:href="#DejaVuSerif-32" transform="translate(95.410156 0)"/>
      </g>
     </g>
    </g>
    <g id="xtick_2">
     <g id="line2d_3">
      <path d="M 158.307334 174.114774 
L 158.307334 7.794774 
" clip-path="url(#p5512f7f41f)" style="fill: none; stroke-dasharray: 2.96,1.28; stroke-dashoffset: 0; stroke: #b0b0b0; stroke-opacity: 0.5; stroke-width: 0.8"/>
     </g>
     <g id="line2d_4">
      <g>
       <use xlink:href="#m9a80e47d8d" x="158.307334" y="174.114774" style="stroke: #000000; stroke-width: 0.8"/>
      </g>
     </g>
     <g id="text_2">
      <!-- 0.4 -->
      <g transform="translate(150.355772 188.713212) scale(0.1 -0.1)">
       <defs>
        <path id="DejaVuSerif-34" d="M 2234 1581 
L 2234 4063 
L 641 1581 
L 2234 1581 
z
M 3609 0 
L 1484 0 
L 1484 331 
L 2234 331 
L 2234 1247 
L 197 1247 
L 197 1588 
L 2241 4750 
L 2859 4750 
L 2859 1581 
L 3750 1581 
L 3750 1247 
L 2859 1247 
L 2859 331 
L 3609 331 
L 3609 0 
z
" transform="scale(0.015625)"/>
       </defs>
       <use xlink:href="#DejaVuSerif-30"/>
       <use xlink:href="#DejaVuSerif-2e" transform="translate(63.623047 0)"/>
       <use xlink:href="#DejaVuSerif-34" transform="translate(95.410156 0)"/>
      </g>
     </g>
    </g>
    <g id="xtick_3">
     <g id="line2d_5">
      <path d="M 233.063315 174.114774 
L 233.063315 7.794774 
" clip-path="url(#p5512f7f41f)" style="fill: none; stroke-dasharray: 2.96,1.28; stroke-dashoffset: 0; stroke: #b0b0b0; stroke-opacity: 0.5; stroke-width: 0.8"/>
     </g>
     <g id="line2d_6">
      <g>
       <use xlink:href="#m9a80e47d8d" x="233.063315" y="174.114774" style="stroke: #000000; stroke-width: 0.8"/>
      </g>
     </g>
     <g id="text_3">
      <!-- 0.6 -->
      <g transform="translate(225.111752 188.713212) scale(0.1 -0.1)">
       <defs>
        <path id="DejaVuSerif-36" d="M 2094 219 
Q 2534 219 2771 542 
Q 3009 866 3009 1472 
Q 3009 2078 2771 2401 
Q 2534 2725 2094 2725 
Q 1647 2725 1412 2412 
Q 1178 2100 1178 1509 
Q 1178 888 1415 553 
Q 1653 219 2094 219 
z
M 1075 2569 
Q 1288 2803 1556 2918 
Q 1825 3034 2163 3034 
Q 2859 3034 3264 2615 
Q 3669 2197 3669 1472 
Q 3669 763 3233 336 
Q 2797 -91 2069 -91 
Q 1278 -91 853 498 
Q 428 1088 428 2181 
Q 428 3406 931 4078 
Q 1434 4750 2350 4750 
Q 2597 4750 2869 4703 
Q 3141 4656 3425 4563 
L 3425 3794 
L 3072 3794 
Q 3034 4109 2831 4275 
Q 2628 4441 2284 4441 
Q 1678 4441 1381 3981 
Q 1084 3522 1075 2569 
z
" transform="scale(0.015625)"/>
       </defs>
       <use xlink:href="#DejaVuSerif-30"/>
       <use xlink:href="#DejaVuSerif-2e" transform="translate(63.623047 0)"/>
       <use xlink:href="#DejaVuSerif-36" transform="translate(95.410156 0)"/>
      </g>
     </g>
    </g>
    <g id="xtick_4">
     <g id="line2d_7">
      <path d="M 307.819296 174.114774 
L 307.819296 7.794774 
" clip-path="url(#p5512f7f41f)" style="fill: none; stroke-dasharray: 2.96,1.28; stroke-dashoffset: 0; stroke: #b0b0b0; stroke-opacity: 0.5; stroke-width: 0.8"/>
     </g>
     <g id="line2d_8">
      <g>
       <use xlink:href="#m9a80e47d8d" x="307.819296" y="174.114774" style="stroke: #000000; stroke-width: 0.8"/>
      </g>
     </g>
     <g id="text_4">
      <!-- 0.8 -->
      <g transform="translate(299.867733 188.713212) scale(0.1 -0.1)">
       <defs>
        <path id="DejaVuSerif-38" d="M 2981 1275 
Q 2981 1775 2732 2051 
Q 2484 2328 2034 2328 
Q 1584 2328 1336 2051 
Q 1088 1775 1088 1275 
Q 1088 772 1336 495 
Q 1584 219 2034 219 
Q 2484 219 2732 495 
Q 2981 772 2981 1275 
z
M 2853 3541 
Q 2853 3966 2637 4203 
Q 2422 4441 2034 4441 
Q 1650 4441 1433 4203 
Q 1216 3966 1216 3541 
Q 1216 3113 1433 2875 
Q 1650 2638 2034 2638 
Q 2422 2638 2637 2875 
Q 2853 3113 2853 3541 
z
M 2516 2484 
Q 3047 2413 3344 2092 
Q 3641 1772 3641 1275 
Q 3641 619 3225 264 
Q 2809 -91 2034 -91 
Q 1263 -91 845 264 
Q 428 619 428 1275 
Q 428 1772 725 2092 
Q 1022 2413 1556 2484 
Q 1084 2569 832 2842 
Q 581 3116 581 3541 
Q 581 4103 968 4426 
Q 1356 4750 2034 4750 
Q 2713 4750 3100 4426 
Q 3488 4103 3488 3541 
Q 3488 3116 3236 2842 
Q 2984 2569 2516 2484 
z
" transform="scale(0.015625)"/>
       </defs>
       <use xlink:href="#DejaVuSerif-30"/>
       <use xlink:href="#DejaVuSerif-2e" transform="translate(63.623047 0)"/>
       <use xlink:href="#DejaVuSerif-38" transform="translate(95.410156 0)"/>
      </g>
     </g>
    </g>
    <g id="xtick_5">
     <g id="line2d_9">
      <path d="M 382.575277 174.114774 
L 382.575277 7.794774 
" clip-path="url(#p5512f7f41f)" style="fill: none; stroke-dasharray: 2.96,1.28; stroke-dashoffset: 0; stroke: #b0b0b0; stroke-opacity: 0.5; stroke-width: 0.8"/>
     </g>
     <g id="line2d_10">
      <g>
       <use xlink:href="#m9a80e47d8d" x="382.575277" y="174.114774" style="stroke: #000000; stroke-width: 0.8"/>
      </g>
     </g>
     <g id="text_5">
      <!-- 1.0 -->
      <g transform="translate(374.623714 188.713212) scale(0.1 -0.1)">
       <defs>
        <path id="DejaVuSerif-31" d="M 909 0 
L 909 331 
L 1722 331 
L 1722 4213 
L 781 3603 
L 781 4013 
L 1919 4750 
L 2350 4750 
L 2350 331 
L 3163 331 
L 3163 0 
L 909 0 
z
" transform="scale(0.015625)"/>
       </defs>
       <use xlink:href="#DejaVuSerif-31"/>
       <use xlink:href="#DejaVuSerif-2e" transform="translate(63.623047 0)"/>
       <use xlink:href="#DejaVuSerif-30" transform="translate(95.410156 0)"/>
      </g>
     </g>
    </g>
    <g id="text_6">
     <!-- SKR demand -->
     <g transform="translate(209.589844 202.391337) scale(0.1 -0.1)">
      <defs>
       <path id="DejaVuSerif-53" d="M 594 225 
L 594 1288 
L 953 1284 
Q 969 753 1261 498 
Q 1553 244 2150 244 
Q 2706 244 2998 464 
Q 3291 684 3291 1106 
Q 3291 1444 3114 1625 
Q 2938 1806 2369 1978 
L 1753 2163 
Q 1084 2366 811 2669 
Q 538 2972 538 3500 
Q 538 4094 959 4422 
Q 1381 4750 2144 4750 
Q 2469 4750 2856 4679 
Q 3244 4609 3681 4475 
L 3681 3481 
L 3328 3481 
Q 3275 3975 2998 4195 
Q 2722 4416 2156 4416 
Q 1663 4416 1405 4214 
Q 1147 4013 1147 3628 
Q 1147 3294 1340 3103 
Q 1534 2913 2163 2725 
L 2741 2553 
Q 3375 2363 3645 2067 
Q 3916 1772 3916 1275 
Q 3916 597 3481 253 
Q 3047 -91 2188 -91 
Q 1803 -91 1404 -12 
Q 1006 66 594 225 
z
" transform="scale(0.015625)"/>
       <path id="DejaVuSerif-4b" d="M 353 0 
L 353 331 
L 947 331 
L 947 4331 
L 353 4331 
L 353 4666 
L 2175 4666 
L 2175 4331 
L 1581 4331 
L 1581 2566 
L 3591 4331 
L 3084 4331 
L 3084 4666 
L 4634 4666 
L 4634 4331 
L 4109 4331 
L 2106 2572 
L 4347 331 
L 4878 331 
L 4878 0 
L 3794 0 
L 1581 2216 
L 1581 331 
L 2175 331 
L 2175 0 
L 353 0 
z
" transform="scale(0.015625)"/>
       <path id="DejaVuSerif-52" d="M 3066 2316 
Q 3284 2256 3442 2114 
Q 3600 1972 3725 1716 
L 4403 331 
L 4972 331 
L 4972 0 
L 3872 0 
L 3144 1484 
Q 2934 1916 2759 2042 
Q 2584 2169 2278 2169 
L 1581 2169 
L 1581 331 
L 2241 331 
L 2241 0 
L 353 0 
L 353 331 
L 947 331 
L 947 4331 
L 353 4331 
L 353 4666 
L 2719 4666 
Q 3400 4666 3770 4341 
Q 4141 4016 4141 3419 
Q 4141 2938 3870 2661 
Q 3600 2384 3066 2316 
z
M 1581 2503 
L 2503 2503 
Q 2975 2503 3200 2726 
Q 3425 2950 3425 3419 
Q 3425 3888 3200 4109 
Q 2975 4331 2503 4331 
L 1581 4331 
L 1581 2503 
z
" transform="scale(0.015625)"/>
       <path id="DejaVuSerif-20" transform="scale(0.015625)"/>
       <path id="DejaVuSerif-64" d="M 3359 331 
L 3909 331 
L 3909 0 
L 2784 0 
L 2784 519 
Q 2616 206 2355 57 
Q 2094 -91 1709 -91 
Q 1097 -91 708 395 
Q 319 881 319 1663 
Q 319 2444 706 2928 
Q 1094 3413 1709 3413 
Q 2094 3413 2355 3264 
Q 2616 3116 2784 2803 
L 2784 4531 
L 2241 4531 
L 2241 4863 
L 3359 4863 
L 3359 331 
z
M 2784 1497 
L 2784 1825 
Q 2784 2422 2554 2737 
Q 2325 3053 1888 3053 
Q 1444 3053 1217 2703 
Q 991 2353 991 1663 
Q 991 975 1217 622 
Q 1444 269 1888 269 
Q 2325 269 2554 583 
Q 2784 897 2784 1497 
z
" transform="scale(0.015625)"/>
       <path id="DejaVuSerif-65" d="M 3469 1600 
L 991 1600 
L 991 1575 
Q 991 903 1244 561 
Q 1497 219 1991 219 
Q 2369 219 2611 417 
Q 2853 616 2950 1006 
L 3413 1006 
Q 3275 459 2904 184 
Q 2534 -91 1931 -91 
Q 1203 -91 761 389 
Q 319 869 319 1663 
Q 319 2450 753 2931 
Q 1188 3413 1894 3413 
Q 2647 3413 3050 2948 
Q 3453 2484 3469 1600 
z
M 2791 1931 
Q 2772 2513 2545 2808 
Q 2319 3103 1894 3103 
Q 1497 3103 1269 2806 
Q 1041 2509 991 1931 
L 2791 1931 
z
" transform="scale(0.015625)"/>
       <path id="DejaVuSerif-6d" d="M 3316 2675 
Q 3481 3041 3739 3227 
Q 3997 3413 4341 3413 
Q 4863 3413 5119 3089 
Q 5375 2766 5375 2113 
L 5375 331 
L 5894 331 
L 5894 0 
L 4300 0 
L 4300 331 
L 4800 331 
L 4800 2047 
Q 4800 2556 4650 2772 
Q 4500 2988 4153 2988 
Q 3769 2988 3567 2697 
Q 3366 2406 3366 1850 
L 3366 331 
L 3866 331 
L 3866 0 
L 2291 0 
L 2291 331 
L 2791 331 
L 2791 2069 
Q 2791 2566 2641 2777 
Q 2491 2988 2144 2988 
Q 1759 2988 1557 2697 
Q 1356 2406 1356 1850 
L 1356 331 
L 1856 331 
L 1856 0 
L 263 0 
L 263 331 
L 781 331 
L 781 2994 
L 231 2994 
L 231 3322 
L 1356 3322 
L 1356 2731 
Q 1516 3063 1762 3238 
Q 2009 3413 2322 3413 
Q 2709 3413 2968 3220 
Q 3228 3028 3316 2675 
z
" transform="scale(0.015625)"/>
       <path id="DejaVuSerif-61" d="M 2547 1044 
L 2547 1747 
L 1806 1747 
Q 1378 1747 1168 1562 
Q 959 1378 959 997 
Q 959 650 1171 447 
Q 1384 244 1747 244 
Q 2106 244 2326 466 
Q 2547 688 2547 1044 
z
M 3122 2075 
L 3122 331 
L 3634 331 
L 3634 0 
L 2547 0 
L 2547 359 
Q 2356 128 2106 18 
Q 1856 -91 1522 -91 
Q 969 -91 644 203 
Q 319 497 319 997 
Q 319 1513 691 1797 
Q 1063 2081 1741 2081 
L 2547 2081 
L 2547 2309 
Q 2547 2688 2317 2895 
Q 2088 3103 1672 3103 
Q 1328 3103 1125 2947 
Q 922 2791 872 2484 
L 575 2484 
L 575 3156 
Q 875 3284 1158 3348 
Q 1441 3413 1709 3413 
Q 2400 3413 2761 3070 
Q 3122 2728 3122 2075 
z
" transform="scale(0.015625)"/>
       <path id="DejaVuSerif-6e" d="M 263 0 
L 263 331 
L 781 331 
L 781 2988 
L 231 2988 
L 231 3322 
L 1356 3322 
L 1356 2731 
Q 1516 3069 1770 3241 
Q 2025 3413 2363 3413 
Q 2913 3413 3172 3097 
Q 3431 2781 3431 2113 
L 3431 331 
L 3944 331 
L 3944 0 
L 2356 0 
L 2356 331 
L 2853 331 
L 2853 1931 
Q 2853 2541 2703 2767 
Q 2553 2994 2175 2994 
Q 1775 2994 1565 2701 
Q 1356 2409 1356 1850 
L 1356 331 
L 1856 331 
L 1856 0 
L 263 0 
z
" transform="scale(0.015625)"/>
      </defs>
      <use xlink:href="#DejaVuSerif-53"/>
      <use xlink:href="#DejaVuSerif-4b" transform="translate(68.505859 0)"/>
      <use xlink:href="#DejaVuSerif-52" transform="translate(143.212891 0)"/>
      <use xlink:href="#DejaVuSerif-20" transform="translate(218.505859 0)"/>
      <use xlink:href="#DejaVuSerif-64" transform="translate(250.292969 0)"/>
      <use xlink:href="#DejaVuSerif-65" transform="translate(314.306641 0)"/>
      <use xlink:href="#DejaVuSerif-6d" transform="translate(373.486328 0)"/>
      <use xlink:href="#DejaVuSerif-61" transform="translate(468.310547 0)"/>
      <use xlink:href="#DejaVuSerif-6e" transform="translate(527.929688 0)"/>
      <use xlink:href="#DejaVuSerif-64" transform="translate(592.333984 0)"/>
     </g>
    </g>
   </g>
   <g id="matplotlib.axis_2">
    <g id="ytick_1">
     <g id="line2d_11">
      <path d="M 47.107813 166.554774 
L 437.707813 166.554774 
" clip-path="url(#p5512f7f41f)" style="fill: none; stroke-dasharray: 2.96,1.28; stroke-dashoffset: 0; stroke: #b0b0b0; stroke-opacity: 0.5; stroke-width: 0.8"/>
     </g>
     <g id="line2d_12">
      <defs>
       <path id="mcef777e2ea" d="M 0 0 
L -3.5 0 
" style="stroke: #000000; stroke-width: 0.8"/>
      </defs>
      <g>
       <use xlink:href="#mcef777e2ea" x="47.107813" y="166.554774" style="stroke: #000000; stroke-width: 0.8"/>
      </g>
     </g>
     <g id="text_7">
      <!-- 0 -->
      <g transform="translate(33.745313 170.353993) scale(0.1 -0.1)">
       <use xlink:href="#DejaVuSerif-30"/>
      </g>
     </g>
    </g>
    <g id="ytick_2">
     <g id="line2d_13">
      <path d="M 47.107813 127.665885 
L 437.707813 127.665885 
" clip-path="url(#p5512f7f41f)" style="fill: none; stroke-dasharray: 2.96,1.28; stroke-dashoffset: 0; stroke: #b0b0b0; stroke-opacity: 0.5; stroke-width: 0.8"/>
     </g>
     <g id="line2d_14">
      <g>
       <use xlink:href="#mcef777e2ea" x="47.107813" y="127.665885" style="stroke: #000000; stroke-width: 0.8"/>
      </g>
     </g>
     <g id="text_8">
      <!-- 200 -->
      <g transform="translate(21.020313 131.465104) scale(0.1 -0.1)">
       <use xlink:href="#DejaVuSerif-32"/>
       <use xlink:href="#DejaVuSerif-30" transform="translate(63.623047 0)"/>
       <use xlink:href="#DejaVuSerif-30" transform="translate(127.246094 0)"/>
      </g>
     </g>
    </g>
    <g id="ytick_3">
     <g id="line2d_15">
      <path d="M 47.107813 88.776997 
L 437.707813 88.776997 
" clip-path="url(#p5512f7f41f)" style="fill: none; stroke-dasharray: 2.96,1.28; stroke-dashoffset: 0; stroke: #b0b0b0; stroke-opacity: 0.5; stroke-width: 0.8"/>
     </g>
     <g id="line2d_16">
      <g>
       <use xlink:href="#mcef777e2ea" x="47.107813" y="88.776997" style="stroke: #000000; stroke-width: 0.8"/>
      </g>
     </g>
     <g id="text_9">
      <!-- 400 -->
      <g transform="translate(21.020313 92.576215) scale(0.1 -0.1)">
       <use xlink:href="#DejaVuSerif-34"/>
       <use xlink:href="#DejaVuSerif-30" transform="translate(63.623047 0)"/>
       <use xlink:href="#DejaVuSerif-30" transform="translate(127.246094 0)"/>
      </g>
     </g>
    </g>
    <g id="ytick_4">
     <g id="line2d_17">
      <path d="M 47.107813 49.888108 
L 437.707813 49.888108 
" clip-path="url(#p5512f7f41f)" style="fill: none; stroke-dasharray: 2.96,1.28; stroke-dashoffset: 0; stroke: #b0b0b0; stroke-opacity: 0.5; stroke-width: 0.8"/>
     </g>
     <g id="line2d_18">
      <g>
       <use xlink:href="#mcef777e2ea" x="47.107813" y="49.888108" style="stroke: #000000; stroke-width: 0.8"/>
      </g>
     </g>
     <g id="text_10">
      <!-- 600 -->
      <g transform="translate(21.020313 53.687326) scale(0.1 -0.1)">
       <use xlink:href="#DejaVuSerif-36"/>
       <use xlink:href="#DejaVuSerif-30" transform="translate(63.623047 0)"/>
       <use xlink:href="#DejaVuSerif-30" transform="translate(127.246094 0)"/>
      </g>
     </g>
    </g>
    <g id="ytick_5">
     <g id="line2d_19">
      <path d="M 47.107813 10.999219 
L 437.707813 10.999219 
" clip-path="url(#p5512f7f41f)" style="fill: none; stroke-dasharray: 2.96,1.28; stroke-dashoffset: 0; stroke: #b0b0b0; stroke-opacity: 0.5; stroke-width: 0.8"/>
     </g>
     <g id="line2d_20">
      <g>
       <use xlink:href="#mcef777e2ea" x="47.107813" y="10.999219" style="stroke: #000000; stroke-width: 0.8"/>
      </g>
     </g>
     <g id="text_11">
      <!-- 800 -->
      <g transform="translate(21.020313 14.798437) scale(0.1 -0.1)">
       <use xlink:href="#DejaVuSerif-38"/>
       <use xlink:href="#DejaVuSerif-30" transform="translate(63.623047 0)"/>
       <use xlink:href="#DejaVuSerif-30" transform="translate(127.246094 0)"/>
      </g>
     </g>
    </g>
    <g id="text_12">
     <!-- Total Served Keys (Kbits) -->
     <g transform="translate(14.798438 154.994618) rotate(-90) scale(0.1 -0.1)">
      <defs>
       <path id="DejaVuSerif-54" d="M 1222 0 
L 1222 331 
L 1819 331 
L 1819 4294 
L 447 4294 
L 447 3566 
L 63 3566 
L 63 4666 
L 4206 4666 
L 4206 3566 
L 3822 3566 
L 3822 4294 
L 2450 4294 
L 2450 331 
L 3047 331 
L 3047 0 
L 1222 0 
z
" transform="scale(0.015625)"/>
       <path id="DejaVuSerif-6f" d="M 1925 219 
Q 2388 219 2623 584 
Q 2859 950 2859 1663 
Q 2859 2375 2623 2739 
Q 2388 3103 1925 3103 
Q 1463 3103 1227 2739 
Q 991 2375 991 1663 
Q 991 950 1228 584 
Q 1466 219 1925 219 
z
M 1925 -91 
Q 1200 -91 759 389 
Q 319 869 319 1663 
Q 319 2456 758 2934 
Q 1197 3413 1925 3413 
Q 2653 3413 3092 2934 
Q 3531 2456 3531 1663 
Q 3531 869 3092 389 
Q 2653 -91 1925 -91 
z
" transform="scale(0.015625)"/>
       <path id="DejaVuSerif-74" d="M 691 2988 
L 184 2988 
L 184 3322 
L 691 3322 
L 691 4353 
L 1269 4353 
L 1269 3322 
L 2350 3322 
L 2350 2988 
L 1269 2988 
L 1269 878 
Q 1269 456 1350 337 
Q 1431 219 1650 219 
Q 1875 219 1978 351 
Q 2081 484 2088 781 
L 2522 781 
Q 2497 328 2275 118 
Q 2053 -91 1600 -91 
Q 1103 -91 897 129 
Q 691 350 691 878 
L 691 2988 
z
" transform="scale(0.015625)"/>
       <path id="DejaVuSerif-6c" d="M 1313 331 
L 1856 331 
L 1856 0 
L 184 0 
L 184 331 
L 738 331 
L 738 4531 
L 184 4531 
L 184 4863 
L 1313 4863 
L 1313 331 
z
" transform="scale(0.015625)"/>
       <path id="DejaVuSerif-72" d="M 3059 3328 
L 3059 2497 
L 2728 2497 
Q 2713 2744 2591 2866 
Q 2469 2988 2234 2988 
Q 1809 2988 1582 2694 
Q 1356 2400 1356 1850 
L 1356 331 
L 2022 331 
L 2022 0 
L 263 0 
L 263 331 
L 781 331 
L 781 2994 
L 231 2994 
L 231 3322 
L 1356 3322 
L 1356 2731 
Q 1525 3078 1790 3245 
Q 2056 3413 2438 3413 
Q 2578 3413 2733 3391 
Q 2888 3369 3059 3328 
z
" transform="scale(0.015625)"/>
       <path id="DejaVuSerif-76" d="M 1581 0 
L 359 2988 
L -19 2988 
L -19 3322 
L 1509 3322 
L 1509 2988 
L 978 2988 
L 1913 703 
L 2847 2988 
L 2350 2988 
L 2350 3322 
L 3597 3322 
L 3597 2988 
L 3225 2988 
L 2003 0 
L 1581 0 
z
" transform="scale(0.015625)"/>
       <path id="DejaVuSerif-79" d="M 1381 -609 
L 1600 -56 
L 359 2988 
L -19 2988 
L -19 3322 
L 1509 3322 
L 1509 2988 
L 978 2988 
L 1913 703 
L 2847 2988 
L 2350 2988 
L 2350 3322 
L 3597 3322 
L 3597 2988 
L 3225 2988 
L 1703 -750 
Q 1547 -1138 1356 -1280 
Q 1166 -1422 819 -1422 
Q 672 -1422 517 -1397 
Q 363 -1372 206 -1325 
L 206 -691 
L 500 -691 
Q 519 -903 608 -995 
Q 697 -1088 884 -1088 
Q 1056 -1088 1161 -992 
Q 1266 -897 1381 -609 
z
" transform="scale(0.015625)"/>
       <path id="DejaVuSerif-73" d="M 359 184 
L 359 959 
L 691 959 
Q 703 588 923 403 
Q 1144 219 1575 219 
Q 1963 219 2166 364 
Q 2369 509 2369 788 
Q 2369 1006 2220 1140 
Q 2072 1275 1594 1428 
L 1178 1569 
Q 750 1706 558 1912 
Q 366 2119 366 2438 
Q 366 2894 700 3153 
Q 1034 3413 1625 3413 
Q 1888 3413 2178 3344 
Q 2469 3275 2778 3144 
L 2778 2419 
L 2447 2419 
Q 2434 2741 2221 2922 
Q 2009 3103 1644 3103 
Q 1281 3103 1095 2975 
Q 909 2847 909 2591 
Q 909 2381 1050 2254 
Q 1191 2128 1613 1997 
L 2069 1856 
Q 2541 1709 2748 1489 
Q 2956 1269 2956 922 
Q 2956 450 2595 179 
Q 2234 -91 1600 -91 
Q 1278 -91 972 -22 
Q 666 47 359 184 
z
" transform="scale(0.015625)"/>
       <path id="DejaVuSerif-28" d="M 2041 -997 
Q 1281 -656 893 83 
Q 506 822 506 1931 
Q 506 3044 893 3783 
Q 1281 4522 2041 4863 
L 2041 4556 
Q 1559 4225 1350 3623 
Q 1141 3022 1141 1931 
Q 1141 844 1350 242 
Q 1559 -359 2041 -691 
L 2041 -997 
z
" transform="scale(0.015625)"/>
       <path id="DejaVuSerif-62" d="M 738 331 
L 738 4531 
L 184 4531 
L 184 4863 
L 1313 4863 
L 1313 2803 
Q 1481 3116 1742 3264 
Q 2003 3413 2388 3413 
Q 3000 3413 3387 2928 
Q 3775 2444 3775 1663 
Q 3775 881 3387 395 
Q 3000 -91 2388 -91 
Q 2003 -91 1742 57 
Q 1481 206 1313 519 
L 1313 0 
L 184 0 
L 184 331 
L 738 331 
z
M 1313 1497 
Q 1313 897 1542 583 
Q 1772 269 2209 269 
Q 2650 269 2876 622 
Q 3103 975 3103 1663 
Q 3103 2353 2876 2703 
Q 2650 3053 2209 3053 
Q 1772 3053 1542 2737 
Q 1313 2422 1313 1825 
L 1313 1497 
z
" transform="scale(0.015625)"/>
       <path id="DejaVuSerif-69" d="M 622 4353 
Q 622 4497 726 4603 
Q 831 4709 978 4709 
Q 1122 4709 1226 4603 
Q 1331 4497 1331 4353 
Q 1331 4206 1228 4103 
Q 1125 4000 978 4000 
Q 831 4000 726 4103 
Q 622 4206 622 4353 
z
M 1356 331 
L 1900 331 
L 1900 0 
L 231 0 
L 231 331 
L 781 331 
L 781 2988 
L 231 2988 
L 231 3322 
L 1356 3322 
L 1356 331 
z
" transform="scale(0.015625)"/>
       <path id="DejaVuSerif-29" d="M 453 -997 
L 453 -691 
Q 934 -359 1145 242 
Q 1356 844 1356 1931 
Q 1356 3022 1145 3623 
Q 934 4225 453 4556 
L 453 4863 
Q 1216 4522 1603 3783 
Q 1991 3044 1991 1931 
Q 1991 822 1603 83 
Q 1216 -656 453 -997 
z
" transform="scale(0.015625)"/>
      </defs>
      <use xlink:href="#DejaVuSerif-54"/>
      <use xlink:href="#DejaVuSerif-6f" transform="translate(58.949219 0)"/>
      <use xlink:href="#DejaVuSerif-74" transform="translate(119.154297 0)"/>
      <use xlink:href="#DejaVuSerif-61" transform="translate(159.339844 0)"/>
      <use xlink:href="#DejaVuSerif-6c" transform="translate(218.958984 0)"/>
      <use xlink:href="#DejaVuSerif-20" transform="translate(250.941406 0)"/>
      <use xlink:href="#DejaVuSerif-53" transform="translate(282.728516 0)"/>
      <use xlink:href="#DejaVuSerif-65" transform="translate(351.234375 0)"/>
      <use xlink:href="#DejaVuSerif-72" transform="translate(410.414062 0)"/>
      <use xlink:href="#DejaVuSerif-76" transform="translate(458.216797 0)"/>
      <use xlink:href="#DejaVuSerif-65" transform="translate(514.710938 0)"/>
      <use xlink:href="#DejaVuSerif-64" transform="translate(573.890625 0)"/>
      <use xlink:href="#DejaVuSerif-20" transform="translate(637.904297 0)"/>
      <use xlink:href="#DejaVuSerif-4b" transform="translate(669.691406 0)"/>
      <use xlink:href="#DejaVuSerif-65" transform="translate(741.773438 0)"/>
      <use xlink:href="#DejaVuSerif-79" transform="translate(800.953125 0)"/>
      <use xlink:href="#DejaVuSerif-73" transform="translate(857.447266 0)"/>
      <use xlink:href="#DejaVuSerif-20" transform="translate(908.765625 0)"/>
      <use xlink:href="#DejaVuSerif-28" transform="translate(940.552734 0)"/>
      <use xlink:href="#DejaVuSerif-4b" transform="translate(979.566406 0)"/>
      <use xlink:href="#DejaVuSerif-62" transform="translate(1054.273438 0)"/>
      <use xlink:href="#DejaVuSerif-69" transform="translate(1118.287109 0)"/>
      <use xlink:href="#DejaVuSerif-74" transform="translate(1150.269531 0)"/>
      <use xlink:href="#DejaVuSerif-73" transform="translate(1190.455078 0)"/>
      <use xlink:href="#DejaVuSerif-29" transform="translate(1241.773438 0)"/>
     </g>
    </g>
   </g>
   <g id="line2d_21">
    <path d="M 64.862358 155.148274 
L 83.551353 151.749774 
L 102.240348 148.389774 
L 120.929344 145.059874 
L 139.618339 141.790174 
L 158.307334 138.677274 
L 176.996329 135.942374 
L 195.685324 133.280974 
L 214.37432 130.670674 
L 233.063315 128.080674 
L 251.75231 166.554774 
L 270.441305 166.554774 
L 289.130301 166.554774 
L 307.819296 166.554774 
L 326.508291 166.554774 
L 345.197286 166.554774 
L 363.886281 166.554774 
L 382.575277 166.554774 
L 401.264272 166.554774 
L 419.953267 166.554774 
" clip-path="url(#p5512f7f41f)" style="fill: none; stroke: #1f77b4; stroke-width: 1.5; stroke-linecap: square"/>
    <defs>
     <path id="ma42c5a4fb6" d="M 0 3 
C 0.795609 3 1.55874 2.683901 2.12132 2.12132 
C 2.683901 1.55874 3 0.795609 3 0 
C 3 -0.795609 2.683901 -1.55874 2.12132 -2.12132 
C 1.55874 -2.683901 0.795609 -3 0 -3 
C -0.795609 -3 -1.55874 -2.683901 -2.12132 -2.12132 
C -2.683901 -1.55874 -3 -0.795609 -3 0 
C -3 0.795609 -2.683901 1.55874 -2.12132 2.12132 
C -1.55874 2.683901 -0.795609 3 0 3 
z
" style="stroke: #1f77b4"/>
    </defs>
    <g clip-path="url(#p5512f7f41f)">
     <use xlink:href="#ma42c5a4fb6" x="64.862358" y="155.148274" style="fill: #1f77b4; stroke: #1f77b4"/>
     <use xlink:href="#ma42c5a4fb6" x="102.240348" y="148.389774" style="fill: #1f77b4; stroke: #1f77b4"/>
     <use xlink:href="#ma42c5a4fb6" x="139.618339" y="141.790174" style="fill: #1f77b4; stroke: #1f77b4"/>
     <use xlink:href="#ma42c5a4fb6" x="176.996329" y="135.942374" style="fill: #1f77b4; stroke: #1f77b4"/>
     <use xlink:href="#ma42c5a4fb6" x="214.37432" y="130.670674" style="fill: #1f77b4; stroke: #1f77b4"/>
     <use xlink:href="#ma42c5a4fb6" x="251.75231" y="166.554774" style="fill: #1f77b4; stroke: #1f77b4"/>
     <use xlink:href="#ma42c5a4fb6" x="289.130301" y="166.554774" style="fill: #1f77b4; stroke: #1f77b4"/>
     <use xlink:href="#ma42c5a4fb6" x="326.508291" y="166.554774" style="fill: #1f77b4; stroke: #1f77b4"/>
     <use xlink:href="#ma42c5a4fb6" x="363.886281" y="166.554774" style="fill: #1f77b4; stroke: #1f77b4"/>
     <use xlink:href="#ma42c5a4fb6" x="401.264272" y="166.554774" style="fill: #1f77b4; stroke: #1f77b4"/>
    </g>
   </g>
   <g id="line2d_22">
    <path d="M 64.862358 158.308424 
L 83.551353 156.476174 
L 102.240348 153.544924 
L 120.929344 151.979724 
L 139.618339 149.123724 
L 158.307334 146.605824 
L 176.996329 145.871874 
L 195.685324 145.553024 
L 214.37432 142.266874 
L 233.063315 166.554774 
L 251.75231 166.554774 
L 270.441305 166.554774 
L 289.130301 166.554774 
L 307.819296 166.554774 
L 326.508291 166.554774 
L 345.197286 166.554774 
L 363.886281 166.554774 
L 382.575277 166.554774 
L 401.264272 166.554774 
L 419.953267 166.554774 
" clip-path="url(#p5512f7f41f)" style="fill: none; stroke: #ff7f0e; stroke-width: 1.5; stroke-linecap: square"/>
    <defs>
     <path id="m9bccc3eb08" d="M 0 -3 
L -3 3 
L 3 3 
z
" style="stroke: #ff7f0e; stroke-linejoin: miter"/>
    </defs>
    <g clip-path="url(#p5512f7f41f)">
     <use xlink:href="#m9bccc3eb08" x="64.862358" y="158.308424" style="fill: #ff7f0e; stroke: #ff7f0e; stroke-linejoin: miter"/>
     <use xlink:href="#m9bccc3eb08" x="102.240348" y="153.544924" style="fill: #ff7f0e; stroke: #ff7f0e; stroke-linejoin: miter"/>
     <use xlink:href="#m9bccc3eb08" x="139.618339" y="149.123724" style="fill: #ff7f0e; stroke: #ff7f0e; stroke-linejoin: miter"/>
     <use xlink:href="#m9bccc3eb08" x="176.996329" y="145.871874" style="fill: #ff7f0e; stroke: #ff7f0e; stroke-linejoin: miter"/>
     <use xlink:href="#m9bccc3eb08" x="214.37432" y="142.266874" style="fill: #ff7f0e; stroke: #ff7f0e; stroke-linejoin: miter"/>
     <use xlink:href="#m9bccc3eb08" x="251.75231" y="166.554774" style="fill: #ff7f0e; stroke: #ff7f0e; stroke-linejoin: miter"/>
     <use xlink:href="#m9bccc3eb08" x="289.130301" y="166.554774" style="fill: #ff7f0e; stroke: #ff7f0e; stroke-linejoin: miter"/>
     <use xlink:href="#m9bccc3eb08" x="326.508291" y="166.554774" style="fill: #ff7f0e; stroke: #ff7f0e; stroke-linejoin: miter"/>
     <use xlink:href="#m9bccc3eb08" x="363.886281" y="166.554774" style="fill: #ff7f0e; stroke: #ff7f0e; stroke-linejoin: miter"/>
     <use xlink:href="#m9bccc3eb08" x="401.264272" y="166.554774" style="fill: #ff7f0e; stroke: #ff7f0e; stroke-linejoin: miter"/>
    </g>
   </g>
   <g id="line2d_23">
    <path d="M 64.862358 166.554774 
L 83.551353 166.554774 
L 102.240348 166.554774 
L 120.929344 166.554774 
L 139.618339 166.554774 
L 158.307334 166.554774 
L 176.996329 166.554774 
L 195.685324 166.554774 
L 214.37432 166.554774 
L 233.063315 166.554774 
L 251.75231 166.554774 
L 270.441305 166.554774 
L 289.130301 166.554774 
L 307.819296 166.554774 
L 326.508291 166.554774 
L 345.197286 166.554774 
L 363.886281 166.554774 
L 382.575277 166.554774 
L 401.264272 166.554774 
L 419.953267 166.554774 
" clip-path="url(#p5512f7f41f)" style="fill: none; stroke: #2ca02c; stroke-width: 1.5; stroke-linecap: square"/>
    <defs>
     <path id="mf8b48a6275" d="M -3 3 
L 3 -3 
M -3 -3 
L 3 3 
" style="stroke: #2ca02c"/>
    </defs>
    <g clip-path="url(#p5512f7f41f)">
     <use xlink:href="#mf8b48a6275" x="64.862358" y="166.554774" style="fill: #2ca02c; stroke: #2ca02c"/>
     <use xlink:href="#mf8b48a6275" x="102.240348" y="166.554774" style="fill: #2ca02c; stroke: #2ca02c"/>
     <use xlink:href="#mf8b48a6275" x="139.618339" y="166.554774" style="fill: #2ca02c; stroke: #2ca02c"/>
     <use xlink:href="#mf8b48a6275" x="176.996329" y="166.554774" style="fill: #2ca02c; stroke: #2ca02c"/>
     <use xlink:href="#mf8b48a6275" x="214.37432" y="166.554774" style="fill: #2ca02c; stroke: #2ca02c"/>
     <use xlink:href="#mf8b48a6275" x="251.75231" y="166.554774" style="fill: #2ca02c; stroke: #2ca02c"/>
     <use xlink:href="#mf8b48a6275" x="289.130301" y="166.554774" style="fill: #2ca02c; stroke: #2ca02c"/>
     <use xlink:href="#mf8b48a6275" x="326.508291" y="166.554774" style="fill: #2ca02c; stroke: #2ca02c"/>
     <use xlink:href="#mf8b48a6275" x="363.886281" y="166.554774" style="fill: #2ca02c; stroke: #2ca02c"/>
     <use xlink:href="#mf8b48a6275" x="401.264272" y="166.554774" style="fill: #2ca02c; stroke: #2ca02c"/>
    </g>
   </g>
   <g id="line2d_24">
    <path d="M 64.862358 148.033124 
L 83.551353 144.202374 
L 102.240348 140.551874 
L 120.929344 136.911874 
L 139.618339 133.277474 
L 158.307334 129.794974 
L 176.996329 126.312474 
L 195.685324 122.856924 
L 214.37432 119.409424 
L 233.063315 115.961574 
L 251.75231 166.554774 
L 270.441305 166.554774 
L 289.130301 166.554774 
L 307.819296 166.554774 
L 326.508291 166.554774 
L 345.197286 166.554774 
L 363.886281 166.554774 
L 382.575277 166.554774 
L 401.264272 166.554774 
L 419.953267 166.554774 
" clip-path="url(#p5512f7f41f)" style="fill: none; stroke: #d62728; stroke-width: 1.5; stroke-linecap: square"/>
    <defs>
     <path id="maf141490d1" d="M 0 -3 
L -2.598076 -1.5 
L -2.598076 1.5 
L -0 3 
L 2.598076 1.5 
L 2.598076 -1.5 
z
" style="stroke: #d62728; stroke-linejoin: miter"/>
    </defs>
    <g clip-path="url(#p5512f7f41f)">
     <use xlink:href="#maf141490d1" x="64.862358" y="148.033124" style="fill: #d62728; stroke: #d62728; stroke-linejoin: miter"/>
     <use xlink:href="#maf141490d1" x="102.240348" y="140.551874" style="fill: #d62728; stroke: #d62728; stroke-linejoin: miter"/>
     <use xlink:href="#maf141490d1" x="139.618339" y="133.277474" style="fill: #d62728; stroke: #d62728; stroke-linejoin: miter"/>
     <use xlink:href="#maf141490d1" x="176.996329" y="126.312474" style="fill: #d62728; stroke: #d62728; stroke-linejoin: miter"/>
     <use xlink:href="#maf141490d1" x="214.37432" y="119.409424" style="fill: #d62728; stroke: #d62728; stroke-linejoin: miter"/>
     <use xlink:href="#maf141490d1" x="251.75231" y="166.554774" style="fill: #d62728; stroke: #d62728; stroke-linejoin: miter"/>
     <use xlink:href="#maf141490d1" x="289.130301" y="166.554774" style="fill: #d62728; stroke: #d62728; stroke-linejoin: miter"/>
     <use xlink:href="#maf141490d1" x="326.508291" y="166.554774" style="fill: #d62728; stroke: #d62728; stroke-linejoin: miter"/>
     <use xlink:href="#maf141490d1" x="363.886281" y="166.554774" style="fill: #d62728; stroke: #d62728; stroke-linejoin: miter"/>
     <use xlink:href="#maf141490d1" x="401.264272" y="166.554774" style="fill: #d62728; stroke: #d62728; stroke-linejoin: miter"/>
    </g>
   </g>
   <g id="line2d_25">
    <path d="M 64.862358 136.371824 
L 83.551353 128.393574 
L 102.240348 121.321824 
L 120.929344 111.438174 
L 139.618339 104.411574 
L 158.307334 98.257874 
L 176.996329 88.845674 
L 195.685324 82.197774 
L 214.37432 70.722324 
L 233.063315 166.554774 
L 251.75231 166.554774 
L 270.441305 166.554774 
L 289.130301 166.554774 
L 307.819296 166.554774 
L 326.508291 166.554774 
L 345.197286 166.554774 
L 363.886281 166.554774 
L 382.575277 166.554774 
L 401.264272 166.554774 
L 419.953267 166.554774 
" clip-path="url(#p5512f7f41f)" style="fill: none; stroke: #9467bd; stroke-width: 1.5; stroke-linecap: square"/>
    <defs>
     <path id="m205f8705fa" d="M 0 -3 
L -0.673542 -0.927051 
L -2.85317 -0.927051 
L -1.089814 0.354102 
L -1.763356 2.427051 
L -0 1.145898 
L 1.763356 2.427051 
L 1.089814 0.354102 
L 2.85317 -0.927051 
L 0.673542 -0.927051 
z
" style="stroke: #9467bd; stroke-linejoin: bevel"/>
    </defs>
    <g clip-path="url(#p5512f7f41f)">
     <use xlink:href="#m205f8705fa" x="64.862358" y="136.371824" style="fill: #9467bd; stroke: #9467bd; stroke-linejoin: bevel"/>
     <use xlink:href="#m205f8705fa" x="102.240348" y="121.321824" style="fill: #9467bd; stroke: #9467bd; stroke-linejoin: bevel"/>
     <use xlink:href="#m205f8705fa" x="139.618339" y="104.411574" style="fill: #9467bd; stroke: #9467bd; stroke-linejoin: bevel"/>
     <use xlink:href="#m205f8705fa" x="176.996329" y="88.845674" style="fill: #9467bd; stroke: #9467bd; stroke-linejoin: bevel"/>
     <use xlink:href="#m205f8705fa" x="214.37432" y="70.722324" style="fill: #9467bd; stroke: #9467bd; stroke-linejoin: bevel"/>
     <use xlink:href="#m205f8705fa" x="251.75231" y="166.554774" style="fill: #9467bd; stroke: #9467bd; stroke-linejoin: bevel"/>
     <use xlink:href="#m205f8705fa" x="289.130301" y="166.554774" style="fill: #9467bd; stroke: #9467bd; stroke-linejoin: bevel"/>
     <use xlink:href="#m205f8705fa" x="326.508291" y="166.554774" style="fill: #9467bd; stroke: #9467bd; stroke-linejoin: bevel"/>
     <use xlink:href="#m205f8705fa" x="363.886281" y="166.554774" style="fill: #9467bd; stroke: #9467bd; stroke-linejoin: bevel"/>
     <use xlink:href="#m205f8705fa" x="401.264272" y="166.554774" style="fill: #9467bd; stroke: #9467bd; stroke-linejoin: bevel"/>
    </g>
   </g>
   <g id="line2d_26">
    <path d="M 64.862358 166.554774 
L 83.551353 166.554774 
L 102.240348 166.554774 
L 120.929344 166.554774 
L 139.618339 166.554774 
L 158.307334 166.554774 
L 176.996329 166.554774 
L 195.685324 166.554774 
L 214.37432 166.554774 
L 233.063315 166.554774 
L 251.75231 166.554774 
L 270.441305 166.554774 
L 289.130301 166.554774 
L 307.819296 166.554774 
L 326.508291 166.554774 
L 345.197286 166.554774 
L 363.886281 166.554774 
L 382.575277 166.554774 
L 401.264272 166.554774 
L 419.953267 166.554774 
" clip-path="url(#p5512f7f41f)" style="fill: none; stroke: #8c564b; stroke-width: 1.5; stroke-linecap: square"/>
    <defs>
     <path id="m391a76a370" d="M -3 3 
L 3 3 
L 3 -3 
L -3 -3 
z
" style="stroke: #8c564b; stroke-linejoin: miter"/>
    </defs>
    <g clip-path="url(#p5512f7f41f)">
     <use xlink:href="#m391a76a370" x="64.862358" y="166.554774" style="fill: #8c564b; stroke: #8c564b; stroke-linejoin: miter"/>
     <use xlink:href="#m391a76a370" x="102.240348" y="166.554774" style="fill: #8c564b; stroke: #8c564b; stroke-linejoin: miter"/>
     <use xlink:href="#m391a76a370" x="139.618339" y="166.554774" style="fill: #8c564b; stroke: #8c564b; stroke-linejoin: miter"/>
     <use xlink:href="#m391a76a370" x="176.996329" y="166.554774" style="fill: #8c564b; stroke: #8c564b; stroke-linejoin: miter"/>
     <use xlink:href="#m391a76a370" x="214.37432" y="166.554774" style="fill: #8c564b; stroke: #8c564b; stroke-linejoin: miter"/>
     <use xlink:href="#m391a76a370" x="251.75231" y="166.554774" style="fill: #8c564b; stroke: #8c564b; stroke-linejoin: miter"/>
     <use xlink:href="#m391a76a370" x="289.130301" y="166.554774" style="fill: #8c564b; stroke: #8c564b; stroke-linejoin: miter"/>
     <use xlink:href="#m391a76a370" x="326.508291" y="166.554774" style="fill: #8c564b; stroke: #8c564b; stroke-linejoin: miter"/>
     <use xlink:href="#m391a76a370" x="363.886281" y="166.554774" style="fill: #8c564b; stroke: #8c564b; stroke-linejoin: miter"/>
     <use xlink:href="#m391a76a370" x="401.264272" y="166.554774" style="fill: #8c564b; stroke: #8c564b; stroke-linejoin: miter"/>
    </g>
   </g>
   <g id="line2d_27">
    <path d="M 64.862358 128.754774 
L 83.551353 116.154774 
L 102.240348 103.554774 
L 120.929344 90.954774 
L 139.618339 78.354774 
L 158.307334 65.754774 
L 176.996329 53.154774 
L 195.685324 40.554774 
L 214.37432 27.954774 
L 233.063315 15.354774 
L 251.75231 166.554774 
L 270.441305 166.554774 
L 289.130301 166.554774 
L 307.819296 166.554774 
L 326.508291 166.554774 
L 345.197286 166.554774 
L 363.886281 166.554774 
L 382.575277 166.554774 
L 401.264272 166.554774 
L 419.953267 166.554774 
" clip-path="url(#p5512f7f41f)" style="fill: none; stroke-dasharray: 5.55,2.4; stroke-dashoffset: 0; stroke: #e377c2; stroke-width: 1.5"/>
   </g>
   <g id="patch_3">
    <path d="M 47.107813 174.114774 
L 47.107813 7.794774 
" style="fill: none; stroke: #000000; stroke-width: 0.8; stroke-linejoin: miter; stroke-linecap: square"/>
   </g>
   <g id="patch_4">
    <path d="M 437.707813 174.114774 
L 437.707813 7.794774 
" style="fill: none; stroke: #000000; stroke-width: 0.8; stroke-linejoin: miter; stroke-linecap: square"/>
   </g>
   <g id="patch_5">
    <path d="M 47.107813 174.114774 
L 437.707813 174.114774 
" style="fill: none; stroke: #000000; stroke-width: 0.8; stroke-linejoin: miter; stroke-linecap: square"/>
   </g>
   <g id="patch_6">
    <path d="M 47.107813 7.794774 
L 437.707813 7.794774 
" style="fill: none; stroke: #000000; stroke-width: 0.8; stroke-linejoin: miter; stroke-linecap: square"/>
   </g>
   <g id="legend_1">
    <g id="patch_7">
     <path d="M 296.328125 118.968212 
L 430.707813 118.968212 
Q 432.707813 118.968212 432.707813 116.968212 
L 432.707813 14.794774 
Q 432.707813 12.794774 430.707813 12.794774 
L 296.328125 12.794774 
Q 294.328125 12.794774 294.328125 14.794774 
L 294.328125 116.968212 
Q 294.328125 118.968212 296.328125 118.968212 
z
" style="fill: #ffffff; opacity: 0.8; stroke: #cccccc; stroke-linejoin: miter"/>
    </g>
    <g id="line2d_28">
     <path d="M 298.328125 20.893212 
L 308.328125 20.893212 
L 318.328125 20.893212 
" style="fill: none; stroke: #1f77b4; stroke-width: 1.5; stroke-linecap: square"/>
     <g>
      <use xlink:href="#ma42c5a4fb6" x="308.328125" y="20.893212" style="fill: #1f77b4; stroke: #1f77b4"/>
     </g>
    </g>
    <g id="text_13">
     <!-- Greedy -->
     <g transform="translate(326.328125 24.393212) scale(0.1 -0.1)">
      <defs>
       <path id="DejaVuSerif-47" d="M 4097 3272 
Q 3988 3856 3641 4136 
Q 3294 4416 2675 4416 
Q 1869 4416 1472 3897 
Q 1075 3378 1075 2328 
Q 1075 1300 1484 772 
Q 1894 244 2688 244 
Q 3041 244 3362 331 
Q 3684 419 3975 594 
L 3975 1797 
L 3097 1797 
L 3097 2131 
L 4609 2131 
L 4609 391 
Q 4194 150 3714 29 
Q 3234 -91 2688 -91 
Q 1631 -91 995 570 
Q 359 1231 359 2328 
Q 359 3434 996 4092 
Q 1634 4750 2713 4750 
Q 3113 4750 3539 4658 
Q 3966 4566 4447 4378 
L 4447 3272 
L 4097 3272 
z
" transform="scale(0.015625)"/>
      </defs>
      <use xlink:href="#DejaVuSerif-47"/>
      <use xlink:href="#DejaVuSerif-72" transform="translate(79.882812 0)"/>
      <use xlink:href="#DejaVuSerif-65" transform="translate(127.685547 0)"/>
      <use xlink:href="#DejaVuSerif-65" transform="translate(186.865234 0)"/>
      <use xlink:href="#DejaVuSerif-64" transform="translate(246.044922 0)"/>
      <use xlink:href="#DejaVuSerif-79" transform="translate(310.058594 0)"/>
     </g>
    </g>
    <g id="line2d_29">
     <path d="M 298.328125 35.713524 
L 308.328125 35.713524 
L 318.328125 35.713524 
" style="fill: none; stroke: #ff7f0e; stroke-width: 1.5; stroke-linecap: square"/>
     <g>
      <use xlink:href="#m9bccc3eb08" x="308.328125" y="35.713524" style="fill: #ff7f0e; stroke: #ff7f0e; stroke-linejoin: miter"/>
     </g>
    </g>
    <g id="text_14">
     <!-- Random -->
     <g transform="translate(326.328125 39.213524) scale(0.1 -0.1)">
      <use xlink:href="#DejaVuSerif-52"/>
      <use xlink:href="#DejaVuSerif-61" transform="translate(77.542969 0)"/>
      <use xlink:href="#DejaVuSerif-6e" transform="translate(137.162109 0)"/>
      <use xlink:href="#DejaVuSerif-64" transform="translate(201.566406 0)"/>
      <use xlink:href="#DejaVuSerif-6f" transform="translate(265.580078 0)"/>
      <use xlink:href="#DejaVuSerif-6d" transform="translate(325.785156 0)"/>
     </g>
    </g>
    <g id="line2d_30">
     <path d="M 298.328125 50.391649 
L 308.328125 50.391649 
L 318.328125 50.391649 
" style="fill: none; stroke: #2ca02c; stroke-width: 1.5; stroke-linecap: square"/>
     <g>
      <use xlink:href="#mf8b48a6275" x="308.328125" y="50.391649" style="fill: #2ca02c; stroke: #2ca02c"/>
     </g>
    </g>
    <g id="text_15">
     <!-- Relaxed -->
     <g transform="translate(326.328125 53.891649) scale(0.1 -0.1)">
      <defs>
       <path id="DejaVuSerif-78" d="M 1863 2028 
L 2559 2988 
L 2113 2988 
L 2113 3322 
L 3391 3322 
L 3391 2988 
L 2950 2988 
L 2059 1759 
L 3097 331 
L 3531 331 
L 3531 0 
L 1997 0 
L 1997 331 
L 2419 331 
L 1697 1325 
L 972 331 
L 1403 331 
L 1403 0 
L 141 0 
L 141 331 
L 581 331 
L 1497 1594 
L 488 2988 
L 78 2988 
L 78 3322 
L 1563 3322 
L 1563 2988 
L 1166 2988 
L 1863 2028 
z
" transform="scale(0.015625)"/>
      </defs>
      <use xlink:href="#DejaVuSerif-52"/>
      <use xlink:href="#DejaVuSerif-65" transform="translate(75.292969 0)"/>
      <use xlink:href="#DejaVuSerif-6c" transform="translate(134.472656 0)"/>
      <use xlink:href="#DejaVuSerif-61" transform="translate(166.455078 0)"/>
      <use xlink:href="#DejaVuSerif-78" transform="translate(226.074219 0)"/>
      <use xlink:href="#DejaVuSerif-65" transform="translate(282.470703 0)"/>
      <use xlink:href="#DejaVuSerif-64" transform="translate(341.650391 0)"/>
     </g>
    </g>
    <g id="line2d_31">
     <path d="M 298.328125 65.069774 
L 308.328125 65.069774 
L 318.328125 65.069774 
" style="fill: none; stroke: #d62728; stroke-width: 1.5; stroke-linecap: square"/>
     <g>
      <use xlink:href="#maf141490d1" x="308.328125" y="65.069774" style="fill: #d62728; stroke: #d62728; stroke-linejoin: miter"/>
     </g>
    </g>
    <g id="text_16">
     <!-- Greedy (With QKP) -->
     <g transform="translate(326.328125 68.569774) scale(0.1 -0.1)">
      <defs>
       <path id="DejaVuSerif-57" d="M 4878 0 
L 4366 0 
L 3297 3794 
L 2228 0 
L 1716 0 
L 494 4331 
L 31 4331 
L 31 4666 
L 1734 4666 
L 1734 4331 
L 1153 4331 
L 2125 884 
L 3188 4666 
L 3694 4666 
L 4775 844 
L 5753 4331 
L 5216 4331 
L 5216 4666 
L 6559 4666 
L 6559 4331 
L 6100 4331 
L 4878 0 
z
" transform="scale(0.015625)"/>
       <path id="DejaVuSerif-68" d="M 263 0 
L 263 331 
L 781 331 
L 781 4531 
L 231 4531 
L 231 4863 
L 1356 4863 
L 1356 2731 
Q 1516 3069 1770 3241 
Q 2025 3413 2363 3413 
Q 2913 3413 3172 3097 
Q 3431 2781 3431 2113 
L 3431 331 
L 3944 331 
L 3944 0 
L 2356 0 
L 2356 331 
L 2853 331 
L 2853 1931 
Q 2853 2541 2704 2764 
Q 2556 2988 2175 2988 
Q 1775 2988 1565 2697 
Q 1356 2406 1356 1850 
L 1356 331 
L 1856 331 
L 1856 0 
L 263 0 
z
" transform="scale(0.015625)"/>
       <path id="DejaVuSerif-51" d="M 2700 -91 
Q 1628 -91 993 567 
Q 359 1225 359 2328 
Q 359 2894 529 3339 
Q 700 3784 1050 4134 
Q 1356 4441 1750 4595 
Q 2144 4750 2625 4750 
Q 3641 4750 4266 4084 
Q 4891 3419 4891 2328 
Q 4891 1403 4422 773 
Q 3953 144 3128 -38 
Q 3297 -247 3539 -347 
Q 3781 -447 4122 -447 
L 4219 -447 
L 4219 -1025 
Q 3691 -1000 3314 -767 
Q 2938 -534 2700 -91 
z
M 2625 244 
Q 3391 244 3781 770 
Q 4172 1297 4172 2328 
Q 4172 3363 3781 3889 
Q 3391 4416 2625 4416 
Q 1856 4416 1465 3889 
Q 1075 3363 1075 2328 
Q 1075 1297 1465 770 
Q 1856 244 2625 244 
z
" transform="scale(0.015625)"/>
       <path id="DejaVuSerif-50" d="M 1581 2375 
L 2406 2375 
Q 2872 2375 3115 2626 
Q 3359 2878 3359 3353 
Q 3359 3831 3115 4081 
Q 2872 4331 2406 4331 
L 1581 4331 
L 1581 2375 
z
M 353 0 
L 353 331 
L 947 331 
L 947 4331 
L 353 4331 
L 353 4666 
L 2559 4666 
Q 3259 4666 3668 4311 
Q 4078 3956 4078 3353 
Q 4078 2753 3668 2397 
Q 3259 2041 2559 2041 
L 1581 2041 
L 1581 331 
L 2303 331 
L 2303 0 
L 353 0 
z
" transform="scale(0.015625)"/>
      </defs>
      <use xlink:href="#DejaVuSerif-47"/>
      <use xlink:href="#DejaVuSerif-72" transform="translate(79.882812 0)"/>
      <use xlink:href="#DejaVuSerif-65" transform="translate(127.685547 0)"/>
      <use xlink:href="#DejaVuSerif-65" transform="translate(186.865234 0)"/>
      <use xlink:href="#DejaVuSerif-64" transform="translate(246.044922 0)"/>
      <use xlink:href="#DejaVuSerif-79" transform="translate(310.058594 0)"/>
      <use xlink:href="#DejaVuSerif-20" transform="translate(366.552734 0)"/>
      <use xlink:href="#DejaVuSerif-28" transform="translate(398.339844 0)"/>
      <use xlink:href="#DejaVuSerif-57" transform="translate(437.353516 0)"/>
      <use xlink:href="#DejaVuSerif-69" transform="translate(538.386719 0)"/>
      <use xlink:href="#DejaVuSerif-74" transform="translate(570.369141 0)"/>
      <use xlink:href="#DejaVuSerif-68" transform="translate(610.554688 0)"/>
      <use xlink:href="#DejaVuSerif-20" transform="translate(674.958984 0)"/>
      <use xlink:href="#DejaVuSerif-51" transform="translate(706.746094 0)"/>
      <use xlink:href="#DejaVuSerif-4b" transform="translate(788.728516 0)"/>
      <use xlink:href="#DejaVuSerif-50" transform="translate(863.435547 0)"/>
      <use xlink:href="#DejaVuSerif-29" transform="translate(930.720703 0)"/>
     </g>
    </g>
    <g id="line2d_32">
     <path d="M 298.328125 79.890087 
L 308.328125 79.890087 
L 318.328125 79.890087 
" style="fill: none; stroke: #9467bd; stroke-width: 1.5; stroke-linecap: square"/>
     <g>
      <use xlink:href="#m205f8705fa" x="308.328125" y="79.890087" style="fill: #9467bd; stroke: #9467bd; stroke-linejoin: bevel"/>
     </g>
    </g>
    <g id="text_17">
     <!-- Random (With QKP) -->
     <g transform="translate(326.328125 83.390087) scale(0.1 -0.1)">
      <use xlink:href="#DejaVuSerif-52"/>
      <use xlink:href="#DejaVuSerif-61" transform="translate(77.542969 0)"/>
      <use xlink:href="#DejaVuSerif-6e" transform="translate(137.162109 0)"/>
      <use xlink:href="#DejaVuSerif-64" transform="translate(201.566406 0)"/>
      <use xlink:href="#DejaVuSerif-6f" transform="translate(265.580078 0)"/>
      <use xlink:href="#DejaVuSerif-6d" transform="translate(325.785156 0)"/>
      <use xlink:href="#DejaVuSerif-20" transform="translate(420.609375 0)"/>
      <use xlink:href="#DejaVuSerif-28" transform="translate(452.396484 0)"/>
      <use xlink:href="#DejaVuSerif-57" transform="translate(491.410156 0)"/>
      <use xlink:href="#DejaVuSerif-69" transform="translate(592.443359 0)"/>
      <use xlink:href="#DejaVuSerif-74" transform="translate(624.425781 0)"/>
      <use xlink:href="#DejaVuSerif-68" transform="translate(664.611328 0)"/>
      <use xlink:href="#DejaVuSerif-20" transform="translate(729.015625 0)"/>
      <use xlink:href="#DejaVuSerif-51" transform="translate(760.802734 0)"/>
      <use xlink:href="#DejaVuSerif-4b" transform="translate(842.785156 0)"/>
      <use xlink:href="#DejaVuSerif-50" transform="translate(917.492188 0)"/>
      <use xlink:href="#DejaVuSerif-29" transform="translate(984.777344 0)"/>
     </g>
    </g>
    <g id="line2d_33">
     <path d="M 298.328125 94.568212 
L 308.328125 94.568212 
L 318.328125 94.568212 
" style="fill: none; stroke: #8c564b; stroke-width: 1.5; stroke-linecap: square"/>
     <g>
      <use xlink:href="#m391a76a370" x="308.328125" y="94.568212" style="fill: #8c564b; stroke: #8c564b; stroke-linejoin: miter"/>
     </g>
    </g>
    <g id="text_18">
     <!-- Relaxed (With QKP) -->
     <g transform="translate(326.328125 98.068212) scale(0.1 -0.1)">
      <use xlink:href="#DejaVuSerif-52"/>
      <use xlink:href="#DejaVuSerif-65" transform="translate(75.292969 0)"/>
      <use xlink:href="#DejaVuSerif-6c" transform="translate(134.472656 0)"/>
      <use xlink:href="#DejaVuSerif-61" transform="translate(166.455078 0)"/>
      <use xlink:href="#DejaVuSerif-78" transform="translate(226.074219 0)"/>
      <use xlink:href="#DejaVuSerif-65" transform="translate(282.470703 0)"/>
      <use xlink:href="#DejaVuSerif-64" transform="translate(341.650391 0)"/>
      <use xlink:href="#DejaVuSerif-20" transform="translate(405.664062 0)"/>
      <use xlink:href="#DejaVuSerif-28" transform="translate(437.451172 0)"/>
      <use xlink:href="#DejaVuSerif-57" transform="translate(476.464844 0)"/>
      <use xlink:href="#DejaVuSerif-69" transform="translate(577.498047 0)"/>
      <use xlink:href="#DejaVuSerif-74" transform="translate(609.480469 0)"/>
      <use xlink:href="#DejaVuSerif-68" transform="translate(649.666016 0)"/>
      <use xlink:href="#DejaVuSerif-20" transform="translate(714.070312 0)"/>
      <use xlink:href="#DejaVuSerif-51" transform="translate(745.857422 0)"/>
      <use xlink:href="#DejaVuSerif-4b" transform="translate(827.839844 0)"/>
      <use xlink:href="#DejaVuSerif-50" transform="translate(902.546875 0)"/>
      <use xlink:href="#DejaVuSerif-29" transform="translate(969.832031 0)"/>
     </g>
    </g>
    <g id="line2d_34">
     <path d="M 298.328125 109.246337 
L 308.328125 109.246337 
L 318.328125 109.246337 
" style="fill: none; stroke-dasharray: 5.55,2.4; stroke-dashoffset: 0; stroke: #e377c2; stroke-width: 1.5"/>
    </g>
    <g id="text_19">
     <!-- Requested Key Bits -->
     <g transform="translate(326.328125 112.746337) scale(0.1 -0.1)">
      <defs>
       <path id="DejaVuSerif-71" d="M 3359 2988 
L 3359 -997 
L 3909 -997 
L 3909 -1331 
L 2241 -1331 
L 2241 -997 
L 2784 -997 
L 2784 519 
Q 2616 206 2355 57 
Q 2094 -91 1709 -91 
Q 1097 -91 708 395 
Q 319 881 319 1663 
Q 319 2444 706 2928 
Q 1094 3413 1709 3413 
Q 2094 3413 2355 3264 
Q 2616 3116 2784 2803 
L 2784 3322 
L 3909 3322 
L 3909 2988 
L 3359 2988 
z
M 2784 1825 
Q 2784 2422 2554 2737 
Q 2325 3053 1888 3053 
Q 1444 3053 1217 2703 
Q 991 2353 991 1663 
Q 991 975 1217 622 
Q 1444 269 1888 269 
Q 2325 269 2554 583 
Q 2784 897 2784 1497 
L 2784 1825 
z
" transform="scale(0.015625)"/>
       <path id="DejaVuSerif-75" d="M 2266 3322 
L 3341 3322 
L 3341 331 
L 3884 331 
L 3884 0 
L 2766 0 
L 2766 588 
Q 2606 256 2353 82 
Q 2100 -91 1766 -91 
Q 1213 -91 952 223 
Q 691 538 691 1209 
L 691 2988 
L 172 2988 
L 172 3322 
L 1269 3322 
L 1269 1388 
Q 1269 781 1417 556 
Q 1566 331 1947 331 
Q 2347 331 2556 625 
Q 2766 919 2766 1478 
L 2766 2988 
L 2266 2988 
L 2266 3322 
z
" transform="scale(0.015625)"/>
       <path id="DejaVuSerif-42" d="M 1581 331 
L 2516 331 
Q 3078 331 3337 575 
Q 3597 819 3597 1350 
Q 3597 1878 3339 2120 
Q 3081 2363 2516 2363 
L 1581 2363 
L 1581 331 
z
M 1581 2694 
L 2375 2694 
Q 2888 2694 3123 2891 
Q 3359 3088 3359 3513 
Q 3359 3941 3123 4136 
Q 2888 4331 2375 4331 
L 1581 4331 
L 1581 2694 
z
M 353 0 
L 353 331 
L 947 331 
L 947 4331 
L 353 4331 
L 353 4666 
L 2656 4666 
Q 3363 4666 3720 4377 
Q 4078 4088 4078 3513 
Q 4078 3097 3829 2850 
Q 3581 2603 3103 2547 
Q 3697 2472 4005 2167 
Q 4313 1863 4313 1350 
Q 4313 656 3875 328 
Q 3438 0 2509 0 
L 353 0 
z
" transform="scale(0.015625)"/>
      </defs>
      <use xlink:href="#DejaVuSerif-52"/>
      <use xlink:href="#DejaVuSerif-65" transform="translate(75.292969 0)"/>
      <use xlink:href="#DejaVuSerif-71" transform="translate(134.472656 0)"/>
      <use xlink:href="#DejaVuSerif-75" transform="translate(198.486328 0)"/>
      <use xlink:href="#DejaVuSerif-65" transform="translate(262.890625 0)"/>
      <use xlink:href="#DejaVuSerif-73" transform="translate(322.070312 0)"/>
      <use xlink:href="#DejaVuSerif-74" transform="translate(373.388672 0)"/>
      <use xlink:href="#DejaVuSerif-65" transform="translate(413.574219 0)"/>
      <use xlink:href="#DejaVuSerif-64" transform="translate(472.753906 0)"/>
      <use xlink:href="#DejaVuSerif-20" transform="translate(536.767578 0)"/>
      <use xlink:href="#DejaVuSerif-4b" transform="translate(568.554688 0)"/>
      <use xlink:href="#DejaVuSerif-65" transform="translate(640.636719 0)"/>
      <use xlink:href="#DejaVuSerif-79" transform="translate(699.816406 0)"/>
      <use xlink:href="#DejaVuSerif-20" transform="translate(756.310547 0)"/>
      <use xlink:href="#DejaVuSerif-42" transform="translate(788.097656 0)"/>
      <use xlink:href="#DejaVuSerif-69" transform="translate(861.583984 0)"/>
      <use xlink:href="#DejaVuSerif-74" transform="translate(893.566406 0)"/>
      <use xlink:href="#DejaVuSerif-73" transform="translate(933.751953 0)"/>
     </g>
    </g>
   </g>
  </g>
 </g>
 <defs>
  <clipPath id="p5512f7f41f">
   <rect x="47.107813" y="7.794774" width="390.6" height="166.32"/>
  </clipPath>
 </defs>
</svg>
