<?xml version="1.0" encoding="utf-8" standalone="no"?>
<!DOCTYPE svg PUBLIC "-//W3C//DTD SVG 1.1//EN"
  "http://www.w3.org/Graphics/SVG/1.1/DTD/svg11.dtd">
<svg xmlns:xlink="http://www.w3.org/1999/xlink" width="723.765625pt" height="377.39625pt" viewBox="0 0 723.765625 377.39625" xmlns="http://www.w3.org/2000/svg" version="1.1">
 <metadata>
  <rdf:RDF xmlns:dc="http://purl.org/dc/elements/1.1/" xmlns:cc="http://creativecommons.org/ns#" xmlns:rdf="http://www.w3.org/1999/02/22-rdf-syntax-ns#">
   <cc:Work>
    <dc:type rdf:resource="http://purl.org/dc/dcmitype/StillImage"/>
    <dc:date>2025-10-10T16:13:05.076948</dc:date>
    <dc:format>image/svg+xml</dc:format>
    <dc:creator>
     <cc:Agent>
      <dc:title>Matplotlib v3.8.4, https://matplotlib.org/</dc:title>
     </cc:Agent>
    </dc:creator>
   </cc:Work>
  </rdf:RDF>
 </metadata>
 <defs>
  <style type="text/css">*{stroke-linejoin: round; stroke-linecap: butt}</style>
 </defs>
 <g id="figure_1">
  <g id="patch_1">
   <path d="M 0 377.39625 
L 723.765625 377.39625 
L 723.765625 0 
L 0 0 
z
" style="fill: #ffffff"/>
  </g>
  <g id="axes_1">
   <g id="patch_2">
    <path d="M 46.965625 339.84 
L 716.565625 339.84 
L 716.565625 7.2 
L 46.965625 7.2 
z
" style="fill: #ffffff"/>
   </g>
   <g id="matplotlib.axis_1">
    <g id="xtick_1">
     <g id="line2d_1">
      <path d="M 77.401989 339.84 
L 77.401989 7.2 
" clip-path="url(#pecdc2f4834)" style="fill: none; stroke: #b0b0b0; stroke-width: 0.8; stroke-linecap: square"/>
     </g>
     <g id="line2d_2">
      <defs>
       <path id="m07e888b074" d="M 0 0 
L 0 3.5 
" style="stroke: #000000; stroke-width: 0.8"/>
      </defs>
      <g>
       <use xlink:href="#m07e888b074" x="77.401989" y="339.84" style="stroke: #000000; stroke-width: 0.8"/>
      </g>
     </g>
     <g id="text_1">
      <!-- 0 -->
      <g transform="translate(74.220739 354.438438) scale(0.1 -0.1)">
       <defs>
        <path id="DejaVuSerif-30" d="M 2034 219 
Q 2513 219 2750 744 
Q 2988 1269 2988 2328 
Q 2988 3391 2750 3916 
Q 2513 4441 2034 4441 
Q 1556 4441 1318 3916 
Q 1081 3391 1081 2328 
Q 1081 1269 1318 744 
Q 1556 219 2034 219 
z
M 2034 -91 
Q 1275 -91 848 546 
Q 422 1184 422 2328 
Q 422 3475 848 4112 
Q 1275 4750 2034 4750 
Q 2797 4750 3222 4112 
Q 3647 3475 3647 2328 
Q 3647 1184 3222 546 
Q 2797 -91 2034 -91 
z
" transform="scale(0.015625)"/>
       </defs>
       <use xlink:href="#DejaVuSerif-30"/>
      </g>
     </g>
    </g>
    <g id="xtick_2">
     <g id="line2d_3">
      <path d="M 179.195847 339.84 
L 179.195847 7.2 
" clip-path="url(#pecdc2f4834)" style="fill: none; stroke: #b0b0b0; stroke-width: 0.8; stroke-linecap: square"/>
     </g>
     <g id="line2d_4">
      <g>
       <use xlink:href="#m07e888b074" x="179.195847" y="339.84" style="stroke: #000000; stroke-width: 0.8"/>
      </g>
     </g>
     <g id="text_2">
      <!-- 50 -->
      <g transform="translate(172.833347 354.438438) scale(0.1 -0.1)">
       <defs>
        <path id="DejaVuSerif-35" d="M 3219 4666 
L 3219 4153 
L 1081 4153 
L 1081 2816 
Q 1244 2928 1461 2984 
Q 1678 3041 1947 3041 
Q 2703 3041 3140 2622 
Q 3578 2203 3578 1478 
Q 3578 738 3136 323 
Q 2694 -91 1894 -91 
Q 1572 -91 1234 -12 
Q 897 66 544 225 
L 544 1131 
L 897 1131 
Q 925 688 1179 453 
Q 1434 219 1894 219 
Q 2388 219 2653 544 
Q 2919 869 2919 1478 
Q 2919 2084 2655 2407 
Q 2391 2731 1894 2731 
Q 1613 2731 1398 2631 
Q 1184 2531 1019 2322 
L 750 2322 
L 750 4666 
L 3219 4666 
z
" transform="scale(0.015625)"/>
       </defs>
       <use xlink:href="#DejaVuSerif-35"/>
       <use xlink:href="#DejaVuSerif-30" x="63.623047"/>
      </g>
     </g>
    </g>
    <g id="xtick_3">
     <g id="line2d_5">
      <path d="M 280.989705 339.84 
L 280.989705 7.2 
" clip-path="url(#pecdc2f4834)" style="fill: none; stroke: #b0b0b0; stroke-width: 0.8; stroke-linecap: square"/>
     </g>
     <g id="line2d_6">
      <g>
       <use xlink:href="#m07e888b074" x="280.989705" y="339.84" style="stroke: #000000; stroke-width: 0.8"/>
      </g>
     </g>
     <g id="text_3">
      <!-- 100 -->
      <g transform="translate(271.445955 354.438438) scale(0.1 -0.1)">
       <defs>
        <path id="DejaVuSerif-31" d="M 909 0 
L 909 331 
L 1722 331 
L 1722 4213 
L 781 3603 
L 781 4013 
L 1919 4750 
L 2350 4750 
L 2350 331 
L 3163 331 
L 3163 0 
L 909 0 
z
" transform="scale(0.015625)"/>
       </defs>
       <use xlink:href="#DejaVuSerif-31"/>
       <use xlink:href="#DejaVuSerif-30" x="63.623047"/>
       <use xlink:href="#DejaVuSerif-30" x="127.246094"/>
      </g>
     </g>
    </g>
    <g id="xtick_4">
     <g id="line2d_7">
      <path d="M 382.783564 339.84 
L 382.783564 7.2 
" clip-path="url(#pecdc2f4834)" style="fill: none; stroke: #b0b0b0; stroke-width: 0.8; stroke-linecap: square"/>
     </g>
     <g id="line2d_8">
      <g>
       <use xlink:href="#m07e888b074" x="382.783564" y="339.84" style="stroke: #000000; stroke-width: 0.8"/>
      </g>
     </g>
     <g id="text_4">
      <!-- 150 -->
      <g transform="translate(373.239814 354.438438) scale(0.1 -0.1)">
       <use xlink:href="#DejaVuSerif-31"/>
       <use xlink:href="#DejaVuSerif-35" x="63.623047"/>
       <use xlink:href="#DejaVuSerif-30" x="127.246094"/>
      </g>
     </g>
    </g>
    <g id="xtick_5">
     <g id="line2d_9">
      <path d="M 484.577422 339.84 
L 484.577422 7.2 
" clip-path="url(#pecdc2f4834)" style="fill: none; stroke: #b0b0b0; stroke-width: 0.8; stroke-linecap: square"/>
     </g>
     <g id="line2d_10">
      <g>
       <use xlink:href="#m07e888b074" x="484.577422" y="339.84" style="stroke: #000000; stroke-width: 0.8"/>
      </g>
     </g>
     <g id="text_5">
      <!-- 200 -->
      <g transform="translate(475.033672 354.438438) scale(0.1 -0.1)">
       <defs>
        <path id="DejaVuSerif-32" d="M 819 3553 
L 469 3553 
L 469 4384 
Q 803 4563 1142 4656 
Q 1481 4750 1806 4750 
Q 2534 4750 2956 4397 
Q 3378 4044 3378 3438 
Q 3378 2753 2422 1800 
Q 2347 1728 2309 1691 
L 1131 513 
L 3078 513 
L 3078 1088 
L 3444 1088 
L 3444 0 
L 434 0 
L 434 341 
L 1850 1753 
Q 2319 2222 2519 2614 
Q 2719 3006 2719 3438 
Q 2719 3909 2473 4175 
Q 2228 4441 1797 4441 
Q 1350 4441 1106 4219 
Q 863 3997 819 3553 
z
" transform="scale(0.015625)"/>
       </defs>
       <use xlink:href="#DejaVuSerif-32"/>
       <use xlink:href="#DejaVuSerif-30" x="63.623047"/>
       <use xlink:href="#DejaVuSerif-30" x="127.246094"/>
      </g>
     </g>
    </g>
    <g id="xtick_6">
     <g id="line2d_11">
      <path d="M 586.37128 339.84 
L 586.37128 7.2 
" clip-path="url(#pecdc2f4834)" style="fill: none; stroke: #b0b0b0; stroke-width: 0.8; stroke-linecap: square"/>
     </g>
     <g id="line2d_12">
      <g>
       <use xlink:href="#m07e888b074" x="586.37128" y="339.84" style="stroke: #000000; stroke-width: 0.8"/>
      </g>
     </g>
     <g id="text_6">
      <!-- 250 -->
      <g transform="translate(576.82753 354.438438) scale(0.1 -0.1)">
       <use xlink:href="#DejaVuSerif-32"/>
       <use xlink:href="#DejaVuSerif-35" x="63.623047"/>
       <use xlink:href="#DejaVuSerif-30" x="127.246094"/>
      </g>
     </g>
    </g>
    <g id="xtick_7">
     <g id="line2d_13">
      <path d="M 688.165139 339.84 
L 688.165139 7.2 
" clip-path="url(#pecdc2f4834)" style="fill: none; stroke: #b0b0b0; stroke-width: 0.8; stroke-linecap: square"/>
     </g>
     <g id="line2d_14">
      <g>
       <use xlink:href="#m07e888b074" x="688.165139" y="339.84" style="stroke: #000000; stroke-width: 0.8"/>
      </g>
     </g>
     <g id="text_7">
      <!-- 300 -->
      <g transform="translate(678.621389 354.438438) scale(0.1 -0.1)">
       <defs>
        <path id="DejaVuSerif-33" d="M 622 4469 
Q 988 4606 1323 4678 
Q 1659 4750 1953 4750 
Q 2638 4750 3022 4454 
Q 3406 4159 3406 3634 
Q 3406 3213 3140 2930 
Q 2875 2647 2388 2547 
Q 2963 2466 3280 2130 
Q 3597 1794 3597 1259 
Q 3597 606 3158 257 
Q 2719 -91 1894 -91 
Q 1528 -91 1179 -12 
Q 831 66 488 225 
L 488 1131 
L 838 1131 
Q 869 681 1141 450 
Q 1413 219 1906 219 
Q 2384 219 2661 495 
Q 2938 772 2938 1253 
Q 2938 1803 2653 2086 
Q 2369 2369 1819 2369 
L 1522 2369 
L 1522 2688 
L 1678 2688 
Q 2225 2688 2498 2914 
Q 2772 3141 2772 3597 
Q 2772 4006 2547 4223 
Q 2322 4441 1900 4441 
Q 1478 4441 1245 4241 
Q 1013 4041 972 3647 
L 622 3647 
L 622 4469 
z
" transform="scale(0.015625)"/>
       </defs>
       <use xlink:href="#DejaVuSerif-33"/>
       <use xlink:href="#DejaVuSerif-30" x="63.623047"/>
       <use xlink:href="#DejaVuSerif-30" x="127.246094"/>
      </g>
     </g>
    </g>
    <g id="text_8">
     <!-- Time (s) -->
     <g transform="translate(361.074219 368.116562) scale(0.1 -0.1)">
      <defs>
       <path id="DejaVuSerif-54" d="M 1222 0 
L 1222 331 
L 1819 331 
L 1819 4294 
L 447 4294 
L 447 3566 
L 63 3566 
L 63 4666 
L 4206 4666 
L 4206 3566 
L 3822 3566 
L 3822 4294 
L 2450 4294 
L 2450 331 
L 3047 331 
L 3047 0 
L 1222 0 
z
" transform="scale(0.015625)"/>
       <path id="DejaVuSerif-69" d="M 622 4353 
Q 622 4497 726 4603 
Q 831 4709 978 4709 
Q 1122 4709 1226 4603 
Q 1331 4497 1331 4353 
Q 1331 4206 1228 4103 
Q 1125 4000 978 4000 
Q 831 4000 726 4103 
Q 622 4206 622 4353 
z
M 1356 331 
L 1900 331 
L 1900 0 
L 231 0 
L 231 331 
L 781 331 
L 781 2988 
L 231 2988 
L 231 3322 
L 1356 3322 
L 1356 331 
z
" transform="scale(0.015625)"/>
       <path id="DejaVuSerif-6d" d="M 3316 2675 
Q 3481 3041 3739 3227 
Q 3997 3413 4341 3413 
Q 4863 3413 5119 3089 
Q 5375 2766 5375 2113 
L 5375 331 
L 5894 331 
L 5894 0 
L 4300 0 
L 4300 331 
L 4800 331 
L 4800 2047 
Q 4800 2556 4650 2772 
Q 4500 2988 4153 2988 
Q 3769 2988 3567 2697 
Q 3366 2406 3366 1850 
L 3366 331 
L 3866 331 
L 3866 0 
L 2291 0 
L 2291 331 
L 2791 331 
L 2791 2069 
Q 2791 2566 2641 2777 
Q 2491 2988 2144 2988 
Q 1759 2988 1557 2697 
Q 1356 2406 1356 1850 
L 1356 331 
L 1856 331 
L 1856 0 
L 263 0 
L 263 331 
L 781 331 
L 781 2994 
L 231 2994 
L 231 3322 
L 1356 3322 
L 1356 2731 
Q 1516 3063 1762 3238 
Q 2009 3413 2322 3413 
Q 2709 3413 2968 3220 
Q 3228 3028 3316 2675 
z
" transform="scale(0.015625)"/>
       <path id="DejaVuSerif-65" d="M 3469 1600 
L 991 1600 
L 991 1575 
Q 991 903 1244 561 
Q 1497 219 1991 219 
Q 2369 219 2611 417 
Q 2853 616 2950 1006 
L 3413 1006 
Q 3275 459 2904 184 
Q 2534 -91 1931 -91 
Q 1203 -91 761 389 
Q 319 869 319 1663 
Q 319 2450 753 2931 
Q 1188 3413 1894 3413 
Q 2647 3413 3050 2948 
Q 3453 2484 3469 1600 
z
M 2791 1931 
Q 2772 2513 2545 2808 
Q 2319 3103 1894 3103 
Q 1497 3103 1269 2806 
Q 1041 2509 991 1931 
L 2791 1931 
z
" transform="scale(0.015625)"/>
       <path id="DejaVuSerif-20" transform="scale(0.015625)"/>
       <path id="DejaVuSerif-28" d="M 2041 -997 
Q 1281 -656 893 83 
Q 506 822 506 1931 
Q 506 3044 893 3783 
Q 1281 4522 2041 4863 
L 2041 4556 
Q 1559 4225 1350 3623 
Q 1141 3022 1141 1931 
Q 1141 844 1350 242 
Q 1559 -359 2041 -691 
L 2041 -997 
z
" transform="scale(0.015625)"/>
       <path id="DejaVuSerif-73" d="M 359 184 
L 359 959 
L 691 959 
Q 703 588 923 403 
Q 1144 219 1575 219 
Q 1963 219 2166 364 
Q 2369 509 2369 788 
Q 2369 1006 2220 1140 
Q 2072 1275 1594 1428 
L 1178 1569 
Q 750 1706 558 1912 
Q 366 2119 366 2438 
Q 366 2894 700 3153 
Q 1034 3413 1625 3413 
Q 1888 3413 2178 3344 
Q 2469 3275 2778 3144 
L 2778 2419 
L 2447 2419 
Q 2434 2741 2221 2922 
Q 2009 3103 1644 3103 
Q 1281 3103 1095 2975 
Q 909 2847 909 2591 
Q 909 2381 1050 2254 
Q 1191 2128 1613 1997 
L 2069 1856 
Q 2541 1709 2748 1489 
Q 2956 1269 2956 922 
Q 2956 450 2595 179 
Q 2234 -91 1600 -91 
Q 1278 -91 972 -22 
Q 666 47 359 184 
z
" transform="scale(0.015625)"/>
       <path id="DejaVuSerif-29" d="M 453 -997 
L 453 -691 
Q 934 -359 1145 242 
Q 1356 844 1356 1931 
Q 1356 3022 1145 3623 
Q 934 4225 453 4556 
L 453 4863 
Q 1216 4522 1603 3783 
Q 1991 3044 1991 1931 
Q 1991 822 1603 83 
Q 1216 -656 453 -997 
z
" transform="scale(0.015625)"/>
      </defs>
      <use xlink:href="#DejaVuSerif-54"/>
      <use xlink:href="#DejaVuSerif-69" x="66.699219"/>
      <use xlink:href="#DejaVuSerif-6d" x="98.681641"/>
      <use xlink:href="#DejaVuSerif-65" x="193.505859"/>
      <use xlink:href="#DejaVuSerif-20" x="252.685547"/>
      <use xlink:href="#DejaVuSerif-28" x="284.472656"/>
      <use xlink:href="#DejaVuSerif-73" x="323.486328"/>
      <use xlink:href="#DejaVuSerif-29" x="374.804688"/>
     </g>
    </g>
   </g>
   <g id="matplotlib.axis_2">
    <g id="ytick_1">
     <g id="line2d_15">
      <path d="M 46.965625 302.459929 
L 716.565625 302.459929 
" clip-path="url(#pecdc2f4834)" style="fill: none; stroke: #b0b0b0; stroke-width: 0.8; stroke-linecap: square"/>
     </g>
     <g id="line2d_16">
      <defs>
       <path id="m46f4b3c391" d="M 0 0 
L -3.5 0 
" style="stroke: #000000; stroke-width: 0.8"/>
      </defs>
      <g>
       <use xlink:href="#m46f4b3c391" x="46.965625" y="302.459929" style="stroke: #000000; stroke-width: 0.8"/>
      </g>
     </g>
     <g id="text_9">
      <!-- 100 -->
      <g transform="translate(20.878125 306.259147) scale(0.1 -0.1)">
       <use xlink:href="#DejaVuSerif-31"/>
       <use xlink:href="#DejaVuSerif-30" x="63.623047"/>
       <use xlink:href="#DejaVuSerif-30" x="127.246094"/>
      </g>
     </g>
    </g>
    <g id="ytick_2">
     <g id="line2d_17">
      <path d="M 46.965625 236.947384 
L 716.565625 236.947384 
" clip-path="url(#pecdc2f4834)" style="fill: none; stroke: #b0b0b0; stroke-width: 0.8; stroke-linecap: square"/>
     </g>
     <g id="line2d_18">
      <g>
       <use xlink:href="#m46f4b3c391" x="46.965625" y="236.947384" style="stroke: #000000; stroke-width: 0.8"/>
      </g>
     </g>
     <g id="text_10">
      <!-- 150 -->
      <g transform="translate(20.878125 240.746603) scale(0.1 -0.1)">
       <use xlink:href="#DejaVuSerif-31"/>
       <use xlink:href="#DejaVuSerif-35" x="63.623047"/>
       <use xlink:href="#DejaVuSerif-30" x="127.246094"/>
      </g>
     </g>
    </g>
    <g id="ytick_3">
     <g id="line2d_19">
      <path d="M 46.965625 171.434839 
L 716.565625 171.434839 
" clip-path="url(#pecdc2f4834)" style="fill: none; stroke: #b0b0b0; stroke-width: 0.8; stroke-linecap: square"/>
     </g>
     <g id="line2d_20">
      <g>
       <use xlink:href="#m46f4b3c391" x="46.965625" y="171.434839" style="stroke: #000000; stroke-width: 0.8"/>
      </g>
     </g>
     <g id="text_11">
      <!-- 200 -->
      <g transform="translate(20.878125 175.234058) scale(0.1 -0.1)">
       <use xlink:href="#DejaVuSerif-32"/>
       <use xlink:href="#DejaVuSerif-30" x="63.623047"/>
       <use xlink:href="#DejaVuSerif-30" x="127.246094"/>
      </g>
     </g>
    </g>
    <g id="ytick_4">
     <g id="line2d_21">
      <path d="M 46.965625 105.922295 
L 716.565625 105.922295 
" clip-path="url(#pecdc2f4834)" style="fill: none; stroke: #b0b0b0; stroke-width: 0.8; stroke-linecap: square"/>
     </g>
     <g id="line2d_22">
      <g>
       <use xlink:href="#m46f4b3c391" x="46.965625" y="105.922295" style="stroke: #000000; stroke-width: 0.8"/>
      </g>
     </g>
     <g id="text_12">
      <!-- 250 -->
      <g transform="translate(20.878125 109.721514) scale(0.1 -0.1)">
       <use xlink:href="#DejaVuSerif-32"/>
       <use xlink:href="#DejaVuSerif-35" x="63.623047"/>
       <use xlink:href="#DejaVuSerif-30" x="127.246094"/>
      </g>
     </g>
    </g>
    <g id="ytick_5">
     <g id="line2d_23">
      <path d="M 46.965625 40.40975 
L 716.565625 40.40975 
" clip-path="url(#pecdc2f4834)" style="fill: none; stroke: #b0b0b0; stroke-width: 0.8; stroke-linecap: square"/>
     </g>
     <g id="line2d_24">
      <g>
       <use xlink:href="#m46f4b3c391" x="46.965625" y="40.40975" style="stroke: #000000; stroke-width: 0.8"/>
      </g>
     </g>
     <g id="text_13">
      <!-- 300 -->
      <g transform="translate(20.878125 44.208969) scale(0.1 -0.1)">
       <use xlink:href="#DejaVuSerif-33"/>
       <use xlink:href="#DejaVuSerif-30" x="63.623047"/>
       <use xlink:href="#DejaVuSerif-30" x="127.246094"/>
      </g>
     </g>
    </g>
    <g id="text_14">
     <!-- SKR (kbps) -->
     <g transform="translate(14.798438 201.9325) rotate(-90) scale(0.1 -0.1)">
      <defs>
       <path id="DejaVuSerif-53" d="M 594 225 
L 594 1288 
L 953 1284 
Q 969 753 1261 498 
Q 1553 244 2150 244 
Q 2706 244 2998 464 
Q 3291 684 3291 1106 
Q 3291 1444 3114 1625 
Q 2938 1806 2369 1978 
L 1753 2163 
Q 1084 2366 811 2669 
Q 538 2972 538 3500 
Q 538 4094 959 4422 
Q 1381 4750 2144 4750 
Q 2469 4750 2856 4679 
Q 3244 4609 3681 4475 
L 3681 3481 
L 3328 3481 
Q 3275 3975 2998 4195 
Q 2722 4416 2156 4416 
Q 1663 4416 1405 4214 
Q 1147 4013 1147 3628 
Q 1147 3294 1340 3103 
Q 1534 2913 2163 2725 
L 2741 2553 
Q 3375 2363 3645 2067 
Q 3916 1772 3916 1275 
Q 3916 597 3481 253 
Q 3047 -91 2188 -91 
Q 1803 -91 1404 -12 
Q 1006 66 594 225 
z
" transform="scale(0.015625)"/>
       <path id="DejaVuSerif-4b" d="M 353 0 
L 353 331 
L 947 331 
L 947 4331 
L 353 4331 
L 353 4666 
L 2175 4666 
L 2175 4331 
L 1581 4331 
L 1581 2566 
L 3591 4331 
L 3084 4331 
L 3084 4666 
L 4634 4666 
L 4634 4331 
L 4109 4331 
L 2106 2572 
L 4347 331 
L 4878 331 
L 4878 0 
L 3794 0 
L 1581 2216 
L 1581 331 
L 2175 331 
L 2175 0 
L 353 0 
z
" transform="scale(0.015625)"/>
       <path id="DejaVuSerif-52" d="M 3066 2316 
Q 3284 2256 3442 2114 
Q 3600 1972 3725 1716 
L 4403 331 
L 4972 331 
L 4972 0 
L 3872 0 
L 3144 1484 
Q 2934 1916 2759 2042 
Q 2584 2169 2278 2169 
L 1581 2169 
L 1581 331 
L 2241 331 
L 2241 0 
L 353 0 
L 353 331 
L 947 331 
L 947 4331 
L 353 4331 
L 353 4666 
L 2719 4666 
Q 3400 4666 3770 4341 
Q 4141 4016 4141 3419 
Q 4141 2938 3870 2661 
Q 3600 2384 3066 2316 
z
M 1581 2503 
L 2503 2503 
Q 2975 2503 3200 2726 
Q 3425 2950 3425 3419 
Q 3425 3888 3200 4109 
Q 2975 4331 2503 4331 
L 1581 4331 
L 1581 2503 
z
" transform="scale(0.015625)"/>
       <path id="DejaVuSerif-6b" d="M 1831 0 
L 219 0 
L 219 331 
L 738 331 
L 738 4531 
L 184 4531 
L 184 4863 
L 1313 4863 
L 1313 1697 
L 2713 2988 
L 2234 2988 
L 2234 3322 
L 3738 3322 
L 3738 2988 
L 3169 2988 
L 2181 2075 
L 3444 331 
L 3922 331 
L 3922 0 
L 2284 0 
L 2284 331 
L 2759 331 
L 1766 1697 
L 1313 1275 
L 1313 331 
L 1831 331 
L 1831 0 
z
" transform="scale(0.015625)"/>
       <path id="DejaVuSerif-62" d="M 738 331 
L 738 4531 
L 184 4531 
L 184 4863 
L 1313 4863 
L 1313 2803 
Q 1481 3116 1742 3264 
Q 2003 3413 2388 3413 
Q 3000 3413 3387 2928 
Q 3775 2444 3775 1663 
Q 3775 881 3387 395 
Q 3000 -91 2388 -91 
Q 2003 -91 1742 57 
Q 1481 206 1313 519 
L 1313 0 
L 184 0 
L 184 331 
L 738 331 
z
M 1313 1497 
Q 1313 897 1542 583 
Q 1772 269 2209 269 
Q 2650 269 2876 622 
Q 3103 975 3103 1663 
Q 3103 2353 2876 2703 
Q 2650 3053 2209 3053 
Q 1772 3053 1542 2737 
Q 1313 2422 1313 1825 
L 1313 1497 
z
" transform="scale(0.015625)"/>
       <path id="DejaVuSerif-70" d="M 1313 1825 
L 1313 1497 
Q 1313 897 1542 583 
Q 1772 269 2209 269 
Q 2650 269 2876 622 
Q 3103 975 3103 1663 
Q 3103 2353 2876 2703 
Q 2650 3053 2209 3053 
Q 1772 3053 1542 2737 
Q 1313 2422 1313 1825 
z
M 738 2988 
L 184 2988 
L 184 3322 
L 1313 3322 
L 1313 2803 
Q 1481 3116 1742 3264 
Q 2003 3413 2388 3413 
Q 3000 3413 3387 2928 
Q 3775 2444 3775 1663 
Q 3775 881 3387 395 
Q 3000 -91 2388 -91 
Q 2003 -91 1742 57 
Q 1481 206 1313 519 
L 1313 -997 
L 1856 -997 
L 1856 -1331 
L 184 -1331 
L 184 -997 
L 738 -997 
L 738 2988 
z
" transform="scale(0.015625)"/>
      </defs>
      <use xlink:href="#DejaVuSerif-53"/>
      <use xlink:href="#DejaVuSerif-4b" x="68.505859"/>
      <use xlink:href="#DejaVuSerif-52" x="143.212891"/>
      <use xlink:href="#DejaVuSerif-20" x="218.505859"/>
      <use xlink:href="#DejaVuSerif-28" x="250.292969"/>
      <use xlink:href="#DejaVuSerif-6b" x="289.306641"/>
      <use xlink:href="#DejaVuSerif-62" x="349.902344"/>
      <use xlink:href="#DejaVuSerif-70" x="413.916016"/>
      <use xlink:href="#DejaVuSerif-73" x="477.929688"/>
      <use xlink:href="#DejaVuSerif-29" x="529.248047"/>
     </g>
    </g>
   </g>
   <g id="line2d_25">
    <path d="M 77.401989 314.766208 
L 87.581374 314.744881 
L 346.137775 314.652622 
L 370.568301 314.640921 
L 417.393475 314.619737 
L 431.644616 314.618571 
L 456.075142 314.591392 
L 466.254527 314.591792 
L 686.129261 314.450999 
L 686.129261 314.450999 
" clip-path="url(#pecdc2f4834)" style="fill: none; stroke: #008000; stroke-width: 1.5; stroke-linecap: square"/>
   </g>
   <g id="line2d_26">
    <path d="M 77.401989 312.238768 
L 79.437866 315.804835 
L 81.473743 316.399179 
L 83.50962 313.427457 
L 85.545497 316.399179 
L 87.581374 312.833113 
L 89.617252 312.833113 
L 91.653129 312.951982 
L 93.689006 314.853884 
L 95.724883 309.742522 
L 97.76076 319.370901 
L 99.796637 317.587868 
L 101.832515 317.944474 
L 103.868392 316.161441 
L 105.904269 316.993523 
L 107.940146 315.923703 
L 109.976023 315.567097 
L 112.0119 314.972753 
L 114.047778 315.923703 
L 116.083655 318.657688 
L 118.119532 316.161441 
L 120.155409 317.231261 
L 122.191286 316.042572 
L 124.227163 317.35013 
L 126.263041 316.042572 
L 128.298918 315.091621 
L 130.334795 312.238768 
L 132.370672 313.308588 
L 134.406549 313.427457 
L 136.442426 311.406686 
L 138.478304 309.98026 
L 140.514181 312.833113 
L 142.550058 313.189719 
L 144.585935 309.148178 
L 146.621812 310.336867 
L 148.657689 309.623653 
L 150.693567 309.98026 
L 152.729444 308.672702 
L 154.765321 307.721751 
L 156.801198 312.714244 
L 158.837075 308.672702 
L 160.872952 310.336867 
L 162.90883 307.008538 
L 164.944707 309.385916 
L 166.980584 306.533063 
L 169.016461 306.414194 
L 171.052338 309.504784 
L 175.124093 311.287817 
L 177.15997 310.099129 
L 179.195847 310.931211 
L 181.231724 309.267047 
L 183.267601 310.455735 
L 185.303478 309.504784 
L 187.339356 323.412442 
L 189.375233 317.706737 
L 191.41111 313.427457 
L 193.446987 313.902933 
L 195.482864 317.112392 
L 197.518741 321.867147 
L 201.590496 313.665195 
L 203.626373 318.895425 
L 205.66225 313.784064 
L 207.698127 315.567097 
L 209.734004 313.308588 
L 211.769882 312.001031 
L 213.805759 318.063343 
L 215.841636 315.329359 
L 217.877513 311.168949 
L 219.91339 317.112392 
L 221.949267 312.951982 
L 223.985145 311.644424 
L 228.056899 313.665195 
L 230.092776 317.825605 
L 232.128653 313.665195 
L 234.16453 318.301081 
L 236.200408 310.217998 
L 238.236285 305.938718 
L 240.272162 311.168949 
L 242.308039 312.595375 
L 244.343916 308.197227 
L 246.379793 315.329359 
L 248.415671 307.008538 
L 252.487425 313.902933 
L 254.523302 310.693473 
L 256.559179 309.98026 
L 258.595056 311.644424 
L 260.630934 305.225505 
L 262.666811 310.099129 
L 264.702688 312.951982 
L 266.738565 306.651931 
L 268.774442 308.672702 
L 270.810319 309.148178 
L 272.846197 306.176456 
L 274.882074 304.868898 
L 276.917951 309.029309 
L 278.953828 308.91044 
L 280.989705 307.008538 
L 283.025582 309.98026 
L 285.06146 319.014294 
L 287.097337 313.665195 
L 289.133214 312.595375 
L 291.169091 312.714244 
L 293.204968 309.385916 
L 295.240845 309.861391 
L 297.276723 312.1199 
L 299.3126 311.763293 
L 301.348477 314.735015 
L 303.384354 315.329359 
L 305.420231 307.484014 
L 307.456108 312.238768 
L 309.491986 313.308588 
L 311.527863 312.833113 
L 313.56374 316.518048 
L 315.599617 313.902933 
L 317.635494 316.399179 
L 319.671371 314.853884 
L 321.707249 314.735015 
L 323.743126 312.714244 
L 325.779003 312.714244 
L 327.81488 316.042572 
L 329.850757 307.721751 
L 331.886634 314.259539 
L 333.922512 318.776556 
L 335.958389 313.427457 
L 337.994266 318.182212 
L 340.030143 312.951982 
L 342.06602 311.763293 
L 344.101897 317.468999 
L 346.137775 310.455735 
L 348.173652 321.035065 
L 350.209529 311.644424 
L 352.245406 314.735015 
L 354.281283 316.993523 
L 356.31716 312.001031 
L 358.353038 317.587868 
L 360.388915 315.567097 
L 362.424792 313.784064 
L 364.460669 321.748278 
L 366.496546 316.636917 
L 368.532423 316.755786 
L 370.568301 318.776556 
L 372.604178 312.001031 
L 374.640055 313.189719 
L 376.675932 313.070851 
L 378.711809 314.972753 
L 380.747686 318.776556 
L 382.783564 312.001031 
L 384.819441 313.784064 
L 386.855318 312.833113 
L 388.891195 312.595375 
L 390.927072 321.748278 
L 392.962949 312.476506 
L 394.998827 317.825605 
L 397.034704 312.001031 
L 399.070581 311.406686 
L 401.106458 307.484014 
L 403.142335 313.665195 
L 405.178212 316.161441 
L 407.21409 313.665195 
L 409.249967 315.329359 
L 411.285844 314.14067 
L 413.321721 313.189719 
L 415.357598 317.944474 
L 417.393475 313.308588 
L 419.429353 314.735015 
L 421.46523 320.321852 
L 423.501107 308.672702 
L 425.536984 314.853884 
L 427.572861 311.882162 
L 429.608738 312.238768 
L 431.644616 324.72 
L 433.680493 312.595375 
L 435.71637 316.518048 
L 437.752247 322.461491 
L 439.788124 307.84062 
L 441.824001 316.636917 
L 443.859879 309.385916 
L 445.895756 313.784064 
L 447.931633 315.685966 
L 449.96751 321.153934 
L 452.003387 316.874654 
L 454.039264 319.014294 
L 456.075142 319.014294 
L 458.111019 314.259539 
L 460.146896 320.084114 
L 462.182773 311.644424 
L 464.21865 317.231261 
L 466.254527 313.902933 
L 468.290405 312.357637 
L 470.326282 314.972753 
L 472.362159 312.476506 
L 474.398036 319.727507 
L 476.433913 317.112392 
L 478.46979 313.784064 
L 480.505668 317.231261 
L 482.541545 318.776556 
L 484.577422 319.014294 
L 486.613299 319.48977 
L 488.649176 316.518048 
L 490.685053 317.825605 
L 492.720931 314.497277 
L 494.756808 314.972753 
L 496.792685 314.853884 
L 498.828562 320.440721 
L 500.864439 316.993523 
L 502.900316 320.084114 
L 504.936194 315.804835 
L 506.972071 318.657688 
L 509.007948 316.755786 
L 511.043825 310.336867 
L 513.079702 317.825605 
L 515.115579 318.063343 
L 517.151457 319.608639 
L 519.187334 317.944474 
L 521.223211 319.370901 
L 525.294965 323.293574 
L 527.330842 318.182212 
L 529.36672 312.357637 
L 531.402597 315.329359 
L 533.438474 313.427457 
L 535.474351 310.574604 
L 537.510228 315.685966 
L 539.546105 316.399179 
L 541.581983 314.735015 
L 543.61786 315.448228 
L 545.653737 309.98026 
L 547.689614 311.525555 
L 549.725491 316.399179 
L 551.761368 320.084114 
L 553.797246 311.406686 
L 555.833123 309.742522 
L 557.869 316.28031 
L 559.904877 316.874654 
L 561.940754 318.657688 
L 563.976631 313.784064 
L 566.012509 314.14067 
L 568.048386 309.029309 
L 570.084263 310.812342 
L 574.156017 318.301081 
L 576.191894 314.14067 
L 578.227772 312.357637 
L 580.263649 314.259539 
L 582.299526 313.784064 
L 584.335403 314.616146 
L 586.37128 311.287817 
L 588.407157 314.497277 
L 590.443035 319.133163 
L 594.514789 310.336867 
L 596.550666 314.735015 
L 598.586543 313.070851 
L 600.62242 310.099129 
L 602.658298 313.546326 
L 604.694175 318.063343 
L 606.730052 309.623653 
L 608.765929 312.238768 
L 610.801806 317.825605 
L 612.837683 313.902933 
L 614.873561 316.993523 
L 616.909438 316.874654 
L 618.945315 315.329359 
L 620.981192 315.685966 
L 623.017069 319.370901 
L 625.052946 312.476506 
L 627.088824 313.784064 
L 631.160578 314.972753 
L 633.196455 316.042572 
L 635.232332 313.665195 
L 639.304087 311.525555 
L 641.339964 312.476506 
L 643.375841 310.812342 
L 645.411718 311.05008 
L 647.447595 312.476506 
L 649.483472 306.7708 
L 651.51935 306.533063 
L 653.555227 310.099129 
L 655.591104 310.099129 
L 657.626981 315.804835 
L 659.662858 310.217998 
L 661.698735 312.238768 
L 663.734613 315.448228 
L 665.77049 313.427457 
L 667.806367 311.05008 
L 669.842244 312.595375 
L 671.878121 313.189719 
L 673.913998 317.587868 
L 675.949876 310.693473 
L 677.985753 315.329359 
L 680.02163 312.238768 
L 682.057507 310.574604 
L 684.093384 311.168949 
L 686.129261 308.791571 
L 686.129261 308.791571 
" clip-path="url(#pecdc2f4834)" style="fill: none; stroke-dasharray: 5.55,2.4; stroke-dashoffset: 0; stroke: #ffa500; stroke-width: 1.5"/>
   </g>
   <g id="line2d_27">
    <path d="M 77.401989 58.24908 
L 79.437866 58.169677 
L 81.473743 58.251654 
L 87.581374 58.172571 
L 185.303478 58.088823 
L 197.518741 58.070244 
L 248.415671 57.992977 
L 252.487425 57.984029 
L 256.559179 58.042514 
L 260.630934 57.957598 
L 266.738565 58.001399 
L 274.882074 57.95981 
L 276.917951 58.003465 
L 278.953828 57.93446 
L 283.025582 57.953139 
L 323.743126 57.888919 
L 327.81488 57.880192 
L 342.06602 57.861034 
L 411.285844 57.718212 
L 417.393475 57.72354 
L 421.46523 57.670874 
L 425.536984 57.703886 
L 429.608738 57.681508 
L 433.680493 57.682572 
L 631.160578 57.237722 
L 637.268209 57.207195 
L 645.411718 57.184019 
L 651.51935 57.226354 
L 657.626981 57.162132 
L 669.842244 57.105796 
L 673.913998 57.142499 
L 677.985753 57.133486 
L 686.129261 57.117876 
L 686.129261 57.117876 
" clip-path="url(#pecdc2f4834)" style="fill: none; stroke-dasharray: 9.6,2.4,1.5,2.4; stroke-dashoffset: 0; stroke: #0000ff; stroke-width: 1.5"/>
   </g>
   <g id="line2d_28">
    <path d="M 77.401989 49.15485 
L 79.437866 61.970469 
L 81.473743 64.095886 
L 83.50962 53.438802 
L 85.545497 64.095886 
L 87.581374 51.298343 
L 89.617252 51.298343 
L 91.653129 51.726677 
L 93.689006 58.563576 
L 95.724883 40.118854 
L 97.76076 74.678392 
L 99.796637 68.337779 
L 101.832515 69.608031 
L 103.868392 63.246078 
L 105.904269 66.21832 
L 107.940146 62.395791 
L 109.976023 61.119465 
L 112.0119 58.989858 
L 114.047778 62.395791 
L 116.083655 72.145336 
L 118.119532 63.246078 
L 120.155409 67.06646 
L 122.191286 62.820994 
L 124.227163 67.490352 
L 126.263041 62.820994 
L 128.298918 59.416019 
L 130.334795 49.15485 
L 132.370672 53.010952 
L 134.406549 53.438802 
L 136.442426 46.148847 
L 138.478304 40.981755 
L 140.514181 51.298343 
L 142.550058 52.582982 
L 144.585935 37.959445 
L 146.621812 42.275184 
L 148.657689 39.687219 
L 150.693567 40.981755 
L 152.729444 36.229695 
L 154.765321 32.764247 
L 156.801198 50.869887 
L 158.837075 36.229695 
L 160.872952 42.275184 
L 162.90883 30.15994 
L 164.944707 38.823579 
L 166.980584 28.42124 
L 169.016461 27.986253 
L 171.052338 39.255461 
L 173.088215 42.706081 
L 175.124093 45.718929 
L 177.15997 41.413021 
L 179.195847 44.428444 
L 181.231724 38.391574 
L 183.267601 42.706081 
L 185.303478 39.255461 
L 187.339356 88.952778 
L 189.375233 68.761315 
L 191.41111 53.438802 
L 193.446987 55.14899 
L 195.482864 66.64245 
L 197.518741 83.510823 
L 201.590496 54.294138 
L 203.626373 72.99016 
L 205.66225 54.721625 
L 207.698127 61.119465 
L 209.734004 53.010952 
L 211.769882 48.296602 
L 213.805759 70.031211 
L 215.841636 60.267982 
L 217.877513 45.28889 
L 219.91339 66.64245 
L 221.949267 51.726677 
L 223.985145 47.008315 
L 226.021022 50.869887 
L 228.056899 54.294138 
L 230.092776 69.184732 
L 232.128653 54.294138 
L 234.16453 70.877216 
L 236.200408 41.844164 
L 238.236285 26.245051 
L 240.272162 45.28889 
L 242.308039 50.44131 
L 244.343916 34.497964 
L 246.379793 60.267982 
L 248.415671 30.15994 
L 252.487425 55.14899 
L 254.523302 43.567508 
L 256.559179 40.981755 
L 258.595056 47.008315 
L 260.630934 23.629483 
L 262.666811 41.413021 
L 264.702688 51.726677 
L 266.738565 28.856103 
L 268.774442 36.229695 
L 270.810319 37.959445 
L 272.846197 27.115902 
L 274.882074 22.32 
L 276.917951 37.527193 
L 278.953828 37.094817 
L 280.989705 30.15994 
L 283.025582 40.981755 
L 285.06146 73.412395 
L 287.097337 54.294138 
L 289.133214 50.44131 
L 291.169091 50.869887 
L 293.204968 38.823579 
L 295.240845 40.550366 
L 297.276723 48.725787 
L 299.3126 47.437866 
L 301.348477 58.137174 
L 303.384354 60.267982 
L 305.420231 31.896643 
L 307.456108 49.15485 
L 309.491986 53.010952 
L 311.527863 51.298343 
L 313.56374 64.520611 
L 315.599617 55.14899 
L 317.635494 64.095886 
L 319.671371 58.563576 
L 321.707249 58.137174 
L 323.743126 50.869887 
L 325.779003 50.869887 
L 327.81488 62.820994 
L 329.850757 32.764247 
L 331.886634 56.430364 
L 333.922512 72.567807 
L 335.958389 53.438802 
L 337.994266 70.454272 
L 340.030143 51.726677 
L 342.06602 47.437866 
L 344.101897 67.914125 
L 346.137775 42.706081 
L 348.173652 80.572407 
L 350.209529 47.008315 
L 352.245406 58.137174 
L 354.281283 66.21832 
L 356.31716 48.296602 
L 358.353038 68.337779 
L 360.388915 61.119465 
L 362.424792 54.721625 
L 364.460669 83.091398 
L 366.496546 64.945217 
L 368.532423 65.369704 
L 370.568301 72.567807 
L 372.604178 48.296602 
L 374.640055 52.582982 
L 376.675932 52.15489 
L 378.711809 58.989858 
L 380.747686 72.567807 
L 382.783564 48.296602 
L 384.819441 54.721625 
L 386.855318 51.298343 
L 388.891195 50.44131 
L 390.927072 83.091398 
L 392.962949 50.012612 
L 394.998827 69.184732 
L 397.034704 48.296602 
L 399.070581 46.148847 
L 401.106458 31.896643 
L 403.142335 54.294138 
L 405.178212 63.246078 
L 407.21409 54.294138 
L 409.249967 60.267982 
L 411.285844 56.00336 
L 413.321721 52.582982 
L 415.357598 69.608031 
L 417.393475 53.010952 
L 419.429353 58.137174 
L 421.46523 78.049213 
L 423.501107 36.229695 
L 425.536984 58.563576 
L 427.572861 47.867295 
L 429.608738 49.15485 
L 431.644616 93.542262 
L 433.680493 50.44131 
L 435.71637 64.520611 
L 437.752247 85.606201 
L 439.788124 33.197863 
L 441.824001 64.945217 
L 443.859879 38.823579 
L 445.895756 54.721625 
L 447.931633 61.545027 
L 449.96751 80.992531 
L 452.003387 65.794071 
L 454.039264 73.412395 
L 456.075142 73.412395 
L 458.111019 56.430364 
L 460.146896 77.207212 
L 462.182773 47.008315 
L 464.21865 67.06646 
L 466.254527 55.14899 
L 468.290405 49.583792 
L 470.326282 58.989858 
L 472.362159 50.012612 
L 474.398036 75.943331 
L 476.433913 66.64245 
L 478.46979 54.721625 
L 480.505668 67.06646 
L 482.541545 72.567807 
L 484.577422 73.412395 
L 486.613299 75.100156 
L 488.649176 64.520611 
L 490.685053 69.184732 
L 492.720931 57.28401 
L 494.756808 58.989858 
L 496.792685 58.563576 
L 498.828562 78.470038 
L 500.864439 66.21832 
L 502.900316 77.207212 
L 504.936194 61.970469 
L 506.972071 72.145336 
L 509.007948 65.369704 
L 511.043825 42.275184 
L 513.079702 69.184732 
L 515.115579 70.031211 
L 517.151457 75.521802 
L 519.187334 69.608031 
L 521.223211 74.678392 
L 523.259088 81.832427 
L 525.294965 88.53486 
L 527.330842 70.454272 
L 529.36672 49.583792 
L 531.402597 60.267982 
L 533.438474 53.438802 
L 535.474351 43.136856 
L 537.510228 61.545027 
L 539.546105 64.095886 
L 541.581983 58.137174 
L 543.61786 60.693783 
L 545.653737 40.981755 
L 547.689614 46.578642 
L 549.725491 64.095886 
L 551.761368 77.207212 
L 553.797246 46.148847 
L 555.833123 40.118854 
L 557.869 63.671042 
L 559.904877 65.794071 
L 561.940754 72.145336 
L 563.976631 54.721625 
L 566.012509 56.00336 
L 568.048386 37.527193 
L 570.084263 43.998037 
L 574.156017 70.877216 
L 576.191894 56.00336 
L 578.227772 49.583792 
L 580.263649 56.430364 
L 582.299526 54.721625 
L 584.335403 57.710652 
L 586.37128 45.718929 
L 588.407157 57.28401 
L 590.443035 73.834512 
L 594.514789 42.275184 
L 596.550666 58.137174 
L 598.586543 52.15489 
L 600.62242 41.413021 
L 602.658298 53.86653 
L 604.694175 70.031211 
L 606.730052 39.687219 
L 608.765929 49.15485 
L 610.801806 69.184732 
L 612.837683 55.14899 
L 614.873561 66.21832 
L 616.909438 65.794071 
L 618.945315 60.267982 
L 620.981192 61.545027 
L 623.017069 74.678392 
L 625.052946 50.012612 
L 627.088824 54.721625 
L 631.160578 58.989858 
L 633.196455 62.820994 
L 635.232332 54.294138 
L 639.304087 46.578642 
L 641.339964 50.012612 
L 643.375841 43.998037 
L 645.411718 44.858728 
L 647.447595 50.012612 
L 649.483472 29.29084 
L 651.51935 28.42124 
L 653.555227 41.413021 
L 655.591104 41.413021 
L 657.626981 61.970469 
L 659.662858 41.844164 
L 661.698735 49.15485 
L 663.734613 60.693783 
L 665.77049 53.438802 
L 667.806367 44.858728 
L 669.842244 50.44131 
L 671.878121 52.582982 
L 673.913998 68.337779 
L 675.949876 43.567508 
L 677.985753 60.267982 
L 680.02163 49.15485 
L 682.057507 43.136856 
L 684.093384 45.28889 
L 686.129261 36.662318 
L 686.129261 36.662318 
" clip-path="url(#pecdc2f4834)" style="fill: none; stroke-dasharray: 1.5,2.475; stroke-dashoffset: 0; stroke: #ff0000; stroke-width: 1.5"/>
   </g>
   <g id="patch_3">
    <path d="M 46.965625 339.84 
L 46.965625 7.2 
" style="fill: none; stroke: #000000; stroke-width: 0.8; stroke-linejoin: miter; stroke-linecap: square"/>
   </g>
   <g id="patch_4">
    <path d="M 716.565625 339.84 
L 716.565625 7.2 
" style="fill: none; stroke: #000000; stroke-width: 0.8; stroke-linejoin: miter; stroke-linecap: square"/>
   </g>
   <g id="patch_5">
    <path d="M 46.965625 339.84 
L 716.565625 339.84 
" style="fill: none; stroke: #000000; stroke-width: 0.8; stroke-linejoin: miter; stroke-linecap: square"/>
   </g>
   <g id="patch_6">
    <path d="M 46.965625 7.2 
L 716.565625 7.2 
" style="fill: none; stroke: #000000; stroke-width: 0.8; stroke-linejoin: miter; stroke-linecap: square"/>
   </g>
   <g id="legend_1">
    <g id="patch_7">
     <path d="M 519.084375 204.37625 
L 709.565625 204.37625 
Q 711.565625 204.37625 711.565625 202.37625 
L 711.565625 144.66375 
Q 711.565625 142.66375 709.565625 142.66375 
L 519.084375 142.66375 
Q 517.084375 142.66375 517.084375 144.66375 
L 517.084375 202.37625 
Q 517.084375 204.37625 519.084375 204.37625 
z
" style="fill: #ffffff; opacity: 0.8; stroke: #cccccc; stroke-linejoin: miter"/>
    </g>
    <g id="line2d_29">
     <path d="M 521.084375 150.762187 
L 531.084375 150.762187 
L 541.084375 150.762187 
" style="fill: none; stroke: #008000; stroke-width: 1.5; stroke-linecap: square"/>
    </g>
    <g id="text_15">
     <!-- SKR DW Bound (Theoretical) -->
     <g transform="translate(549.084375 154.262187) scale(0.1 -0.1)">
      <defs>
       <path id="DejaVuSerif-44" d="M 1581 331 
L 2163 331 
Q 3072 331 3558 850 
Q 4044 1369 4044 2338 
Q 4044 3306 3559 3818 
Q 3075 4331 2163 4331 
L 1581 4331 
L 1581 331 
z
M 353 0 
L 353 331 
L 947 331 
L 947 4331 
L 353 4331 
L 353 4666 
L 2209 4666 
Q 3416 4666 4089 4050 
Q 4763 3434 4763 2338 
Q 4763 1238 4088 619 
Q 3413 0 2209 0 
L 353 0 
z
" transform="scale(0.015625)"/>
       <path id="DejaVuSerif-57" d="M 4878 0 
L 4366 0 
L 3297 3794 
L 2228 0 
L 1716 0 
L 494 4331 
L 31 4331 
L 31 4666 
L 1734 4666 
L 1734 4331 
L 1153 4331 
L 2125 884 
L 3188 4666 
L 3694 4666 
L 4775 844 
L 5753 4331 
L 5216 4331 
L 5216 4666 
L 6559 4666 
L 6559 4331 
L 6100 4331 
L 4878 0 
z
" transform="scale(0.015625)"/>
       <path id="DejaVuSerif-42" d="M 1581 331 
L 2516 331 
Q 3078 331 3337 575 
Q 3597 819 3597 1350 
Q 3597 1878 3339 2120 
Q 3081 2363 2516 2363 
L 1581 2363 
L 1581 331 
z
M 1581 2694 
L 2375 2694 
Q 2888 2694 3123 2891 
Q 3359 3088 3359 3513 
Q 3359 3941 3123 4136 
Q 2888 4331 2375 4331 
L 1581 4331 
L 1581 2694 
z
M 353 0 
L 353 331 
L 947 331 
L 947 4331 
L 353 4331 
L 353 4666 
L 2656 4666 
Q 3363 4666 3720 4377 
Q 4078 4088 4078 3513 
Q 4078 3097 3829 2850 
Q 3581 2603 3103 2547 
Q 3697 2472 4005 2167 
Q 4313 1863 4313 1350 
Q 4313 656 3875 328 
Q 3438 0 2509 0 
L 353 0 
z
" transform="scale(0.015625)"/>
       <path id="DejaVuSerif-6f" d="M 1925 219 
Q 2388 219 2623 584 
Q 2859 950 2859 1663 
Q 2859 2375 2623 2739 
Q 2388 3103 1925 3103 
Q 1463 3103 1227 2739 
Q 991 2375 991 1663 
Q 991 950 1228 584 
Q 1466 219 1925 219 
z
M 1925 -91 
Q 1200 -91 759 389 
Q 319 869 319 1663 
Q 319 2456 758 2934 
Q 1197 3413 1925 3413 
Q 2653 3413 3092 2934 
Q 3531 2456 3531 1663 
Q 3531 869 3092 389 
Q 2653 -91 1925 -91 
z
" transform="scale(0.015625)"/>
       <path id="DejaVuSerif-75" d="M 2266 3322 
L 3341 3322 
L 3341 331 
L 3884 331 
L 3884 0 
L 2766 0 
L 2766 588 
Q 2606 256 2353 82 
Q 2100 -91 1766 -91 
Q 1213 -91 952 223 
Q 691 538 691 1209 
L 691 2988 
L 172 2988 
L 172 3322 
L 1269 3322 
L 1269 1388 
Q 1269 781 1417 556 
Q 1566 331 1947 331 
Q 2347 331 2556 625 
Q 2766 919 2766 1478 
L 2766 2988 
L 2266 2988 
L 2266 3322 
z
" transform="scale(0.015625)"/>
       <path id="DejaVuSerif-6e" d="M 263 0 
L 263 331 
L 781 331 
L 781 2988 
L 231 2988 
L 231 3322 
L 1356 3322 
L 1356 2731 
Q 1516 3069 1770 3241 
Q 2025 3413 2363 3413 
Q 2913 3413 3172 3097 
Q 3431 2781 3431 2113 
L 3431 331 
L 3944 331 
L 3944 0 
L 2356 0 
L 2356 331 
L 2853 331 
L 2853 1931 
Q 2853 2541 2703 2767 
Q 2553 2994 2175 2994 
Q 1775 2994 1565 2701 
Q 1356 2409 1356 1850 
L 1356 331 
L 1856 331 
L 1856 0 
L 263 0 
z
" transform="scale(0.015625)"/>
       <path id="DejaVuSerif-64" d="M 3359 331 
L 3909 331 
L 3909 0 
L 2784 0 
L 2784 519 
Q 2616 206 2355 57 
Q 2094 -91 1709 -91 
Q 1097 -91 708 395 
Q 319 881 319 1663 
Q 319 2444 706 2928 
Q 1094 3413 1709 3413 
Q 2094 3413 2355 3264 
Q 2616 3116 2784 2803 
L 2784 4531 
L 2241 4531 
L 2241 4863 
L 3359 4863 
L 3359 331 
z
M 2784 1497 
L 2784 1825 
Q 2784 2422 2554 2737 
Q 2325 3053 1888 3053 
Q 1444 3053 1217 2703 
Q 991 2353 991 1663 
Q 991 975 1217 622 
Q 1444 269 1888 269 
Q 2325 269 2554 583 
Q 2784 897 2784 1497 
z
" transform="scale(0.015625)"/>
       <path id="DejaVuSerif-68" d="M 263 0 
L 263 331 
L 781 331 
L 781 4531 
L 231 4531 
L 231 4863 
L 1356 4863 
L 1356 2731 
Q 1516 3069 1770 3241 
Q 2025 3413 2363 3413 
Q 2913 3413 3172 3097 
Q 3431 2781 3431 2113 
L 3431 331 
L 3944 331 
L 3944 0 
L 2356 0 
L 2356 331 
L 2853 331 
L 2853 1931 
Q 2853 2541 2704 2764 
Q 2556 2988 2175 2988 
Q 1775 2988 1565 2697 
Q 1356 2406 1356 1850 
L 1356 331 
L 1856 331 
L 1856 0 
L 263 0 
z
" transform="scale(0.015625)"/>
       <path id="DejaVuSerif-72" d="M 3059 3328 
L 3059 2497 
L 2728 2497 
Q 2713 2744 2591 2866 
Q 2469 2988 2234 2988 
Q 1809 2988 1582 2694 
Q 1356 2400 1356 1850 
L 1356 331 
L 2022 331 
L 2022 0 
L 263 0 
L 263 331 
L 781 331 
L 781 2994 
L 231 2994 
L 231 3322 
L 1356 3322 
L 1356 2731 
Q 1525 3078 1790 3245 
Q 2056 3413 2438 3413 
Q 2578 3413 2733 3391 
Q 2888 3369 3059 3328 
z
" transform="scale(0.015625)"/>
       <path id="DejaVuSerif-74" d="M 691 2988 
L 184 2988 
L 184 3322 
L 691 3322 
L 691 4353 
L 1269 4353 
L 1269 3322 
L 2350 3322 
L 2350 2988 
L 1269 2988 
L 1269 878 
Q 1269 456 1350 337 
Q 1431 219 1650 219 
Q 1875 219 1978 351 
Q 2081 484 2088 781 
L 2522 781 
Q 2497 328 2275 118 
Q 2053 -91 1600 -91 
Q 1103 -91 897 129 
Q 691 350 691 878 
L 691 2988 
z
" transform="scale(0.015625)"/>
       <path id="DejaVuSerif-63" d="M 3291 997 
Q 3169 466 2822 187 
Q 2475 -91 1925 -91 
Q 1200 -91 759 389 
Q 319 869 319 1663 
Q 319 2459 759 2936 
Q 1200 3413 1925 3413 
Q 2241 3413 2553 3339 
Q 2866 3266 3181 3116 
L 3181 2266 
L 2847 2266 
Q 2781 2703 2561 2903 
Q 2341 3103 1931 3103 
Q 1466 3103 1228 2742 
Q 991 2381 991 1663 
Q 991 944 1227 581 
Q 1463 219 1931 219 
Q 2303 219 2525 412 
Q 2747 606 2828 997 
L 3291 997 
z
" transform="scale(0.015625)"/>
       <path id="DejaVuSerif-61" d="M 2547 1044 
L 2547 1747 
L 1806 1747 
Q 1378 1747 1168 1562 
Q 959 1378 959 997 
Q 959 650 1171 447 
Q 1384 244 1747 244 
Q 2106 244 2326 466 
Q 2547 688 2547 1044 
z
M 3122 2075 
L 3122 331 
L 3634 331 
L 3634 0 
L 2547 0 
L 2547 359 
Q 2356 128 2106 18 
Q 1856 -91 1522 -91 
Q 969 -91 644 203 
Q 319 497 319 997 
Q 319 1513 691 1797 
Q 1063 2081 1741 2081 
L 2547 2081 
L 2547 2309 
Q 2547 2688 2317 2895 
Q 2088 3103 1672 3103 
Q 1328 3103 1125 2947 
Q 922 2791 872 2484 
L 575 2484 
L 575 3156 
Q 875 3284 1158 3348 
Q 1441 3413 1709 3413 
Q 2400 3413 2761 3070 
Q 3122 2728 3122 2075 
z
" transform="scale(0.015625)"/>
       <path id="DejaVuSerif-6c" d="M 1313 331 
L 1856 331 
L 1856 0 
L 184 0 
L 184 331 
L 738 331 
L 738 4531 
L 184 4531 
L 184 4863 
L 1313 4863 
L 1313 331 
z
" transform="scale(0.015625)"/>
      </defs>
      <use xlink:href="#DejaVuSerif-53"/>
      <use xlink:href="#DejaVuSerif-4b" x="68.505859"/>
      <use xlink:href="#DejaVuSerif-52" x="143.212891"/>
      <use xlink:href="#DejaVuSerif-20" x="218.505859"/>
      <use xlink:href="#DejaVuSerif-44" x="250.292969"/>
      <use xlink:href="#DejaVuSerif-57" x="330.46875"/>
      <use xlink:href="#DejaVuSerif-20" x="433.251953"/>
      <use xlink:href="#DejaVuSerif-42" x="465.039062"/>
      <use xlink:href="#DejaVuSerif-6f" x="538.525391"/>
      <use xlink:href="#DejaVuSerif-75" x="598.730469"/>
      <use xlink:href="#DejaVuSerif-6e" x="663.134766"/>
      <use xlink:href="#DejaVuSerif-64" x="727.539062"/>
      <use xlink:href="#DejaVuSerif-20" x="791.552734"/>
      <use xlink:href="#DejaVuSerif-28" x="823.339844"/>
      <use xlink:href="#DejaVuSerif-54" x="862.353516"/>
      <use xlink:href="#DejaVuSerif-68" x="929.052734"/>
      <use xlink:href="#DejaVuSerif-65" x="993.457031"/>
      <use xlink:href="#DejaVuSerif-6f" x="1052.636719"/>
      <use xlink:href="#DejaVuSerif-72" x="1112.841797"/>
      <use xlink:href="#DejaVuSerif-65" x="1160.644531"/>
      <use xlink:href="#DejaVuSerif-74" x="1219.824219"/>
      <use xlink:href="#DejaVuSerif-69" x="1260.009766"/>
      <use xlink:href="#DejaVuSerif-63" x="1291.992188"/>
      <use xlink:href="#DejaVuSerif-61" x="1347.998047"/>
      <use xlink:href="#DejaVuSerif-6c" x="1407.617188"/>
      <use xlink:href="#DejaVuSerif-29" x="1439.599609"/>
     </g>
    </g>
    <g id="line2d_30">
     <path d="M 521.084375 165.440312 
L 531.084375 165.440312 
L 541.084375 165.440312 
" style="fill: none; stroke-dasharray: 5.55,2.4; stroke-dashoffset: 0; stroke: #ffa500; stroke-width: 1.5"/>
    </g>
    <g id="text_16">
     <!-- SKR DW Bound (Simulation) -->
     <g transform="translate(549.084375 168.940312) scale(0.1 -0.1)">
      <use xlink:href="#DejaVuSerif-53"/>
      <use xlink:href="#DejaVuSerif-4b" x="68.505859"/>
      <use xlink:href="#DejaVuSerif-52" x="143.212891"/>
      <use xlink:href="#DejaVuSerif-20" x="218.505859"/>
      <use xlink:href="#DejaVuSerif-44" x="250.292969"/>
      <use xlink:href="#DejaVuSerif-57" x="330.46875"/>
      <use xlink:href="#DejaVuSerif-20" x="433.251953"/>
      <use xlink:href="#DejaVuSerif-42" x="465.039062"/>
      <use xlink:href="#DejaVuSerif-6f" x="538.525391"/>
      <use xlink:href="#DejaVuSerif-75" x="598.730469"/>
      <use xlink:href="#DejaVuSerif-6e" x="663.134766"/>
      <use xlink:href="#DejaVuSerif-64" x="727.539062"/>
      <use xlink:href="#DejaVuSerif-20" x="791.552734"/>
      <use xlink:href="#DejaVuSerif-28" x="823.339844"/>
      <use xlink:href="#DejaVuSerif-53" x="862.353516"/>
      <use xlink:href="#DejaVuSerif-69" x="930.859375"/>
      <use xlink:href="#DejaVuSerif-6d" x="962.841797"/>
      <use xlink:href="#DejaVuSerif-75" x="1057.666016"/>
      <use xlink:href="#DejaVuSerif-6c" x="1122.070312"/>
      <use xlink:href="#DejaVuSerif-61" x="1154.052734"/>
      <use xlink:href="#DejaVuSerif-74" x="1213.671875"/>
      <use xlink:href="#DejaVuSerif-69" x="1253.857422"/>
      <use xlink:href="#DejaVuSerif-6f" x="1285.839844"/>
      <use xlink:href="#DejaVuSerif-6e" x="1346.044922"/>
      <use xlink:href="#DejaVuSerif-29" x="1410.449219"/>
     </g>
    </g>
    <g id="line2d_31">
     <path d="M 521.084375 180.118437 
L 531.084375 180.118437 
L 541.084375 180.118437 
" style="fill: none; stroke-dasharray: 9.6,2.4,1.5,2.4; stroke-dashoffset: 0; stroke: #0000ff; stroke-width: 1.5"/>
    </g>
    <g id="text_17">
     <!-- SKR PLOB Bound (Theoretical) -->
     <g transform="translate(549.084375 183.618437) scale(0.1 -0.1)">
      <defs>
       <path id="DejaVuSerif-50" d="M 1581 2375 
L 2406 2375 
Q 2872 2375 3115 2626 
Q 3359 2878 3359 3353 
Q 3359 3831 3115 4081 
Q 2872 4331 2406 4331 
L 1581 4331 
L 1581 2375 
z
M 353 0 
L 353 331 
L 947 331 
L 947 4331 
L 353 4331 
L 353 4666 
L 2559 4666 
Q 3259 4666 3668 4311 
Q 4078 3956 4078 3353 
Q 4078 2753 3668 2397 
Q 3259 2041 2559 2041 
L 1581 2041 
L 1581 331 
L 2303 331 
L 2303 0 
L 353 0 
z
" transform="scale(0.015625)"/>
       <path id="DejaVuSerif-4c" d="M 353 0 
L 353 331 
L 947 331 
L 947 4331 
L 353 4331 
L 353 4666 
L 2175 4666 
L 2175 4331 
L 1581 4331 
L 1581 384 
L 3713 384 
L 3713 1166 
L 4097 1166 
L 4097 0 
L 353 0 
z
" transform="scale(0.015625)"/>
       <path id="DejaVuSerif-4f" d="M 2625 244 
Q 3391 244 3781 770 
Q 4172 1297 4172 2328 
Q 4172 3363 3781 3889 
Q 3391 4416 2625 4416 
Q 1856 4416 1465 3889 
Q 1075 3363 1075 2328 
Q 1075 1297 1465 770 
Q 1856 244 2625 244 
z
M 2625 -91 
Q 2150 -91 1751 65 
Q 1353 222 1050 525 
Q 700 875 529 1319 
Q 359 1763 359 2328 
Q 359 2894 529 3339 
Q 700 3784 1050 4134 
Q 1356 4441 1750 4595 
Q 2144 4750 2625 4750 
Q 3641 4750 4266 4084 
Q 4891 3419 4891 2328 
Q 4891 1769 4719 1320 
Q 4547 872 4197 525 
Q 3891 219 3497 64 
Q 3103 -91 2625 -91 
z
" transform="scale(0.015625)"/>
      </defs>
      <use xlink:href="#DejaVuSerif-53"/>
      <use xlink:href="#DejaVuSerif-4b" x="68.505859"/>
      <use xlink:href="#DejaVuSerif-52" x="143.212891"/>
      <use xlink:href="#DejaVuSerif-20" x="218.505859"/>
      <use xlink:href="#DejaVuSerif-50" x="250.292969"/>
      <use xlink:href="#DejaVuSerif-4c" x="317.578125"/>
      <use xlink:href="#DejaVuSerif-4f" x="383.984375"/>
      <use xlink:href="#DejaVuSerif-42" x="465.966797"/>
      <use xlink:href="#DejaVuSerif-20" x="539.453125"/>
      <use xlink:href="#DejaVuSerif-42" x="571.240234"/>
      <use xlink:href="#DejaVuSerif-6f" x="644.726562"/>
      <use xlink:href="#DejaVuSerif-75" x="704.931641"/>
      <use xlink:href="#DejaVuSerif-6e" x="769.335938"/>
      <use xlink:href="#DejaVuSerif-64" x="833.740234"/>
      <use xlink:href="#DejaVuSerif-20" x="897.753906"/>
      <use xlink:href="#DejaVuSerif-28" x="929.541016"/>
      <use xlink:href="#DejaVuSerif-54" x="968.554688"/>
      <use xlink:href="#DejaVuSerif-68" x="1035.253906"/>
      <use xlink:href="#DejaVuSerif-65" x="1099.658203"/>
      <use xlink:href="#DejaVuSerif-6f" x="1158.837891"/>
      <use xlink:href="#DejaVuSerif-72" x="1219.042969"/>
      <use xlink:href="#DejaVuSerif-65" x="1266.845703"/>
      <use xlink:href="#DejaVuSerif-74" x="1326.025391"/>
      <use xlink:href="#DejaVuSerif-69" x="1366.210938"/>
      <use xlink:href="#DejaVuSerif-63" x="1398.193359"/>
      <use xlink:href="#DejaVuSerif-61" x="1454.199219"/>
      <use xlink:href="#DejaVuSerif-6c" x="1513.818359"/>
      <use xlink:href="#DejaVuSerif-29" x="1545.800781"/>
     </g>
    </g>
    <g id="line2d_32">
     <path d="M 521.084375 194.796562 
L 531.084375 194.796562 
L 541.084375 194.796562 
" style="fill: none; stroke-dasharray: 1.5,2.475; stroke-dashoffset: 0; stroke: #ff0000; stroke-width: 1.5"/>
    </g>
    <g id="text_18">
     <!-- SKR PLOB Bound (Simulation) -->
     <g transform="translate(549.084375 198.296562) scale(0.1 -0.1)">
      <use xlink:href="#DejaVuSerif-53"/>
      <use xlink:href="#DejaVuSerif-4b" x="68.505859"/>
      <use xlink:href="#DejaVuSerif-52" x="143.212891"/>
      <use xlink:href="#DejaVuSerif-20" x="218.505859"/>
      <use xlink:href="#DejaVuSerif-50" x="250.292969"/>
      <use xlink:href="#DejaVuSerif-4c" x="317.578125"/>
      <use xlink:href="#DejaVuSerif-4f" x="383.984375"/>
      <use xlink:href="#DejaVuSerif-42" x="465.966797"/>
      <use xlink:href="#DejaVuSerif-20" x="539.453125"/>
      <use xlink:href="#DejaVuSerif-42" x="571.240234"/>
      <use xlink:href="#DejaVuSerif-6f" x="644.726562"/>
      <use xlink:href="#DejaVuSerif-75" x="704.931641"/>
      <use xlink:href="#DejaVuSerif-6e" x="769.335938"/>
      <use xlink:href="#DejaVuSerif-64" x="833.740234"/>
      <use xlink:href="#DejaVuSerif-20" x="897.753906"/>
      <use xlink:href="#DejaVuSerif-28" x="929.541016"/>
      <use xlink:href="#DejaVuSerif-53" x="968.554688"/>
      <use xlink:href="#DejaVuSerif-69" x="1037.060547"/>
      <use xlink:href="#DejaVuSerif-6d" x="1069.042969"/>
      <use xlink:href="#DejaVuSerif-75" x="1163.867188"/>
      <use xlink:href="#DejaVuSerif-6c" x="1228.271484"/>
      <use xlink:href="#DejaVuSerif-61" x="1260.253906"/>
      <use xlink:href="#DejaVuSerif-74" x="1319.873047"/>
      <use xlink:href="#DejaVuSerif-69" x="1360.058594"/>
      <use xlink:href="#DejaVuSerif-6f" x="1392.041016"/>
      <use xlink:href="#DejaVuSerif-6e" x="1452.246094"/>
      <use xlink:href="#DejaVuSerif-29" x="1516.650391"/>
     </g>
    </g>
   </g>
  </g>
 </g>
 <defs>
  <clipPath id="pecdc2f4834">
   <rect x="46.965625" y="7.2" width="669.6" height="332.64"/>
  </clipPath>
 </defs>
</svg>
