<?xml version="1.0" encoding="utf-8" standalone="no"?>
<!DOCTYPE svg PUBLIC "-//W3C//DTD SVG 1.1//EN"
  "http://www.w3.org/Graphics/SVG/1.1/DTD/svg11.dtd">
<svg xmlns:xlink="http://www.w3.org/1999/xlink" width="450.104659pt" height="213.011875pt" viewBox="0 0 450.104659 213.011875" xmlns="http://www.w3.org/2000/svg" version="1.1">
 <metadata>
  <rdf:RDF xmlns:dc="http://purl.org/dc/elements/1.1/" xmlns:cc="http://creativecommons.org/ns#" xmlns:rdf="http://www.w3.org/1999/02/22-rdf-syntax-ns#">
   <cc:Work>
    <dc:type rdf:resource="http://purl.org/dc/dcmitype/StillImage"/>
    <dc:date>2026-01-28T23:56:49.417523</dc:date>
    <dc:format>image/svg+xml</dc:format>
    <dc:creator>
     <cc:Agent>
      <dc:title>Matplotlib v3.10.8, https://matplotlib.org/</dc:title>
     </cc:Agent>
    </dc:creator>
   </cc:Work>
  </rdf:RDF>
 </metadata>
 <defs>
  <style type="text/css">*{stroke-linejoin: round; stroke-linecap: butt}</style>
 </defs>
 <g id="figure_1">
  <g id="patch_1">
   <path d="M 0 213.011875 
L 450.104659 213.011875 
L 450.104659 0 
L 0 0 
z
" style="fill: #ffffff"/>
  </g>
  <g id="axes_1">
   <g id="patch_2">
    <path d="M 48.90125 173.52 
L 439.50125 173.52 
L 439.50125 7.2 
L 48.90125 7.2 
z
" style="fill: #ffffff"/>
   </g>
   <g id="matplotlib.axis_1">
    <g id="xtick_1">
     <g id="line2d_1">
      <path d="M 66.655795 173.52 
L 66.655795 7.2 
" clip-path="url(#p84bae8a2ba)" style="fill: none; stroke: #b0b0b0; stroke-width: 0.8; stroke-linecap: square"/>
     </g>
     <g id="line2d_2">
      <defs>
       <path id="m2a228b7356" d="M 0 0 
L 0 3.5 
" style="stroke: #000000; stroke-width: 0.8"/>
      </defs>
      <g>
       <use xlink:href="#m2a228b7356" x="66.655795" y="173.52" style="stroke: #000000; stroke-width: 0.8"/>
      </g>
     </g>
     <g id="text_1">
      <!-- 0 -->
      <g transform="translate(63.474545 188.118437) scale(0.1 -0.1)">
       <defs>
        <path id="DejaVuSerif-30" d="M 2034 219 
Q 2513 219 2750 744 
Q 2988 1269 2988 2328 
Q 2988 3391 2750 3916 
Q 2513 4441 2034 4441 
Q 1556 4441 1318 3916 
Q 1081 3391 1081 2328 
Q 1081 1269 1318 744 
Q 1556 219 2034 219 
z
M 2034 -91 
Q 1275 -91 848 546 
Q 422 1184 422 2328 
Q 422 3475 848 4112 
Q 1275 4750 2034 4750 
Q 2797 4750 3222 4112 
Q 3647 3475 3647 2328 
Q 3647 1184 3222 546 
Q 2797 -91 2034 -91 
z
" transform="scale(0.015625)"/>
       </defs>
       <use xlink:href="#DejaVuSerif-30"/>
      </g>
     </g>
    </g>
    <g id="xtick_2">
     <g id="line2d_3">
      <path d="M 140.633068 173.52 
L 140.633068 7.2 
" clip-path="url(#p84bae8a2ba)" style="fill: none; stroke: #b0b0b0; stroke-width: 0.8; stroke-linecap: square"/>
     </g>
     <g id="line2d_4">
      <g>
       <use xlink:href="#m2a228b7356" x="140.633068" y="173.52" style="stroke: #000000; stroke-width: 0.8"/>
      </g>
     </g>
     <g id="text_2">
      <!-- 5 -->
      <g transform="translate(137.451818 188.118437) scale(0.1 -0.1)">
       <defs>
        <path id="DejaVuSerif-35" d="M 3219 4666 
L 3219 4153 
L 1081 4153 
L 1081 2816 
Q 1244 2928 1461 2984 
Q 1678 3041 1947 3041 
Q 2703 3041 3140 2622 
Q 3578 2203 3578 1478 
Q 3578 738 3136 323 
Q 2694 -91 1894 -91 
Q 1572 -91 1234 -12 
Q 897 66 544 225 
L 544 1131 
L 897 1131 
Q 925 688 1179 453 
Q 1434 219 1894 219 
Q 2388 219 2653 544 
Q 2919 869 2919 1478 
Q 2919 2084 2655 2407 
Q 2391 2731 1894 2731 
Q 1613 2731 1398 2631 
Q 1184 2531 1019 2322 
L 750 2322 
L 750 4666 
L 3219 4666 
z
" transform="scale(0.015625)"/>
       </defs>
       <use xlink:href="#DejaVuSerif-35"/>
      </g>
     </g>
    </g>
    <g id="xtick_3">
     <g id="line2d_5">
      <path d="M 214.610341 173.52 
L 214.610341 7.2 
" clip-path="url(#p84bae8a2ba)" style="fill: none; stroke: #b0b0b0; stroke-width: 0.8; stroke-linecap: square"/>
     </g>
     <g id="line2d_6">
      <g>
       <use xlink:href="#m2a228b7356" x="214.610341" y="173.52" style="stroke: #000000; stroke-width: 0.8"/>
      </g>
     </g>
     <g id="text_3">
      <!-- 10 -->
      <g transform="translate(208.247841 188.118437) scale(0.1 -0.1)">
       <defs>
        <path id="DejaVuSerif-31" d="M 909 0 
L 909 331 
L 1722 331 
L 1722 4213 
L 781 3603 
L 781 4013 
L 1919 4750 
L 2350 4750 
L 2350 331 
L 3163 331 
L 3163 0 
L 909 0 
z
" transform="scale(0.015625)"/>
       </defs>
       <use xlink:href="#DejaVuSerif-31"/>
       <use xlink:href="#DejaVuSerif-30" transform="translate(63.623047 0)"/>
      </g>
     </g>
    </g>
    <g id="xtick_4">
     <g id="line2d_7">
      <path d="M 288.587614 173.52 
L 288.587614 7.2 
" clip-path="url(#p84bae8a2ba)" style="fill: none; stroke: #b0b0b0; stroke-width: 0.8; stroke-linecap: square"/>
     </g>
     <g id="line2d_8">
      <g>
       <use xlink:href="#m2a228b7356" x="288.587614" y="173.52" style="stroke: #000000; stroke-width: 0.8"/>
      </g>
     </g>
     <g id="text_4">
      <!-- 15 -->
      <g transform="translate(282.225114 188.118437) scale(0.1 -0.1)">
       <use xlink:href="#DejaVuSerif-31"/>
       <use xlink:href="#DejaVuSerif-35" transform="translate(63.623047 0)"/>
      </g>
     </g>
    </g>
    <g id="xtick_5">
     <g id="line2d_9">
      <path d="M 362.564886 173.52 
L 362.564886 7.2 
" clip-path="url(#p84bae8a2ba)" style="fill: none; stroke: #b0b0b0; stroke-width: 0.8; stroke-linecap: square"/>
     </g>
     <g id="line2d_10">
      <g>
       <use xlink:href="#m2a228b7356" x="362.564886" y="173.52" style="stroke: #000000; stroke-width: 0.8"/>
      </g>
     </g>
     <g id="text_5">
      <!-- 20 -->
      <g transform="translate(356.202386 188.118437) scale(0.1 -0.1)">
       <defs>
        <path id="DejaVuSerif-32" d="M 819 3553 
L 469 3553 
L 469 4384 
Q 803 4563 1142 4656 
Q 1481 4750 1806 4750 
Q 2534 4750 2956 4397 
Q 3378 4044 3378 3438 
Q 3378 2753 2422 1800 
Q 2347 1728 2309 1691 
L 1131 513 
L 3078 513 
L 3078 1088 
L 3444 1088 
L 3444 0 
L 434 0 
L 434 341 
L 1850 1753 
Q 2319 2222 2519 2614 
Q 2719 3006 2719 3438 
Q 2719 3909 2473 4175 
Q 2228 4441 1797 4441 
Q 1350 4441 1106 4219 
Q 863 3997 819 3553 
z
" transform="scale(0.015625)"/>
       </defs>
       <use xlink:href="#DejaVuSerif-32"/>
       <use xlink:href="#DejaVuSerif-30" transform="translate(63.623047 0)"/>
      </g>
     </g>
    </g>
    <g id="xtick_6">
     <g id="line2d_11">
      <path d="M 436.542159 173.52 
L 436.542159 7.2 
" clip-path="url(#p84bae8a2ba)" style="fill: none; stroke: #b0b0b0; stroke-width: 0.8; stroke-linecap: square"/>
     </g>
     <g id="line2d_12">
      <g>
       <use xlink:href="#m2a228b7356" x="436.542159" y="173.52" style="stroke: #000000; stroke-width: 0.8"/>
      </g>
     </g>
     <g id="text_6">
      <!-- 25 -->
      <g transform="translate(430.179659 188.118437) scale(0.1 -0.1)">
       <use xlink:href="#DejaVuSerif-32"/>
       <use xlink:href="#DejaVuSerif-35" transform="translate(63.623047 0)"/>
      </g>
     </g>
    </g>
    <g id="text_7">
     <!-- Time (s) -->
     <g transform="translate(219.371563 203.31625) scale(0.12 -0.12)">
      <defs>
       <path id="DejaVuSerif-54" d="M 1222 0 
L 1222 331 
L 1819 331 
L 1819 4294 
L 447 4294 
L 447 3566 
L 63 3566 
L 63 4666 
L 4206 4666 
L 4206 3566 
L 3822 3566 
L 3822 4294 
L 2450 4294 
L 2450 331 
L 3047 331 
L 3047 0 
L 1222 0 
z
" transform="scale(0.015625)"/>
       <path id="DejaVuSerif-69" d="M 622 4353 
Q 622 4497 726 4603 
Q 831 4709 978 4709 
Q 1122 4709 1226 4603 
Q 1331 4497 1331 4353 
Q 1331 4206 1228 4103 
Q 1125 4000 978 4000 
Q 831 4000 726 4103 
Q 622 4206 622 4353 
z
M 1356 331 
L 1900 331 
L 1900 0 
L 231 0 
L 231 331 
L 781 331 
L 781 2988 
L 231 2988 
L 231 3322 
L 1356 3322 
L 1356 331 
z
" transform="scale(0.015625)"/>
       <path id="DejaVuSerif-6d" d="M 3316 2675 
Q 3481 3041 3739 3227 
Q 3997 3413 4341 3413 
Q 4863 3413 5119 3089 
Q 5375 2766 5375 2113 
L 5375 331 
L 5894 331 
L 5894 0 
L 4300 0 
L 4300 331 
L 4800 331 
L 4800 2047 
Q 4800 2556 4650 2772 
Q 4500 2988 4153 2988 
Q 3769 2988 3567 2697 
Q 3366 2406 3366 1850 
L 3366 331 
L 3866 331 
L 3866 0 
L 2291 0 
L 2291 331 
L 2791 331 
L 2791 2069 
Q 2791 2566 2641 2777 
Q 2491 2988 2144 2988 
Q 1759 2988 1557 2697 
Q 1356 2406 1356 1850 
L 1356 331 
L 1856 331 
L 1856 0 
L 263 0 
L 263 331 
L 781 331 
L 781 2994 
L 231 2994 
L 231 3322 
L 1356 3322 
L 1356 2731 
Q 1516 3063 1762 3238 
Q 2009 3413 2322 3413 
Q 2709 3413 2968 3220 
Q 3228 3028 3316 2675 
z
" transform="scale(0.015625)"/>
       <path id="DejaVuSerif-65" d="M 3469 1600 
L 991 1600 
L 991 1575 
Q 991 903 1244 561 
Q 1497 219 1991 219 
Q 2369 219 2611 417 
Q 2853 616 2950 1006 
L 3413 1006 
Q 3275 459 2904 184 
Q 2534 -91 1931 -91 
Q 1203 -91 761 389 
Q 319 869 319 1663 
Q 319 2450 753 2931 
Q 1188 3413 1894 3413 
Q 2647 3413 3050 2948 
Q 3453 2484 3469 1600 
z
M 2791 1931 
Q 2772 2513 2545 2808 
Q 2319 3103 1894 3103 
Q 1497 3103 1269 2806 
Q 1041 2509 991 1931 
L 2791 1931 
z
" transform="scale(0.015625)"/>
       <path id="DejaVuSerif-20" transform="scale(0.015625)"/>
       <path id="DejaVuSerif-28" d="M 2041 -997 
Q 1281 -656 893 83 
Q 506 822 506 1931 
Q 506 3044 893 3783 
Q 1281 4522 2041 4863 
L 2041 4556 
Q 1559 4225 1350 3623 
Q 1141 3022 1141 1931 
Q 1141 844 1350 242 
Q 1559 -359 2041 -691 
L 2041 -997 
z
" transform="scale(0.015625)"/>
       <path id="DejaVuSerif-73" d="M 359 184 
L 359 959 
L 691 959 
Q 703 588 923 403 
Q 1144 219 1575 219 
Q 1963 219 2166 364 
Q 2369 509 2369 788 
Q 2369 1006 2220 1140 
Q 2072 1275 1594 1428 
L 1178 1569 
Q 750 1706 558 1912 
Q 366 2119 366 2438 
Q 366 2894 700 3153 
Q 1034 3413 1625 3413 
Q 1888 3413 2178 3344 
Q 2469 3275 2778 3144 
L 2778 2419 
L 2447 2419 
Q 2434 2741 2221 2922 
Q 2009 3103 1644 3103 
Q 1281 3103 1095 2975 
Q 909 2847 909 2591 
Q 909 2381 1050 2254 
Q 1191 2128 1613 1997 
L 2069 1856 
Q 2541 1709 2748 1489 
Q 2956 1269 2956 922 
Q 2956 450 2595 179 
Q 2234 -91 1600 -91 
Q 1278 -91 972 -22 
Q 666 47 359 184 
z
" transform="scale(0.015625)"/>
       <path id="DejaVuSerif-29" d="M 453 -997 
L 453 -691 
Q 934 -359 1145 242 
Q 1356 844 1356 1931 
Q 1356 3022 1145 3623 
Q 934 4225 453 4556 
L 453 4863 
Q 1216 4522 1603 3783 
Q 1991 3044 1991 1931 
Q 1991 822 1603 83 
Q 1216 -656 453 -997 
z
" transform="scale(0.015625)"/>
      </defs>
      <use xlink:href="#DejaVuSerif-54"/>
      <use xlink:href="#DejaVuSerif-69" transform="translate(66.699219 0)"/>
      <use xlink:href="#DejaVuSerif-6d" transform="translate(98.681641 0)"/>
      <use xlink:href="#DejaVuSerif-65" transform="translate(193.505859 0)"/>
      <use xlink:href="#DejaVuSerif-20" transform="translate(252.685547 0)"/>
      <use xlink:href="#DejaVuSerif-28" transform="translate(284.472656 0)"/>
      <use xlink:href="#DejaVuSerif-73" transform="translate(323.486328 0)"/>
      <use xlink:href="#DejaVuSerif-29" transform="translate(374.804688 0)"/>
     </g>
    </g>
   </g>
   <g id="matplotlib.axis_2">
    <g id="ytick_1">
     <g id="line2d_13">
      <path d="M 48.90125 153.545805 
L 439.50125 153.545805 
" clip-path="url(#p84bae8a2ba)" style="fill: none; stroke: #b0b0b0; stroke-width: 0.8; stroke-linecap: square"/>
     </g>
     <g id="line2d_14">
      <defs>
       <path id="m5fcc16265c" d="M 0 0 
L -3.5 0 
" style="stroke: #000000; stroke-width: 0.8"/>
      </defs>
      <g>
       <use xlink:href="#m5fcc16265c" x="48.90125" y="153.545805" style="stroke: #000000; stroke-width: 0.8"/>
      </g>
     </g>
     <g id="text_8">
      <!-- 50 -->
      <g transform="translate(29.17625 157.345024) scale(0.1 -0.1)">
       <use xlink:href="#DejaVuSerif-35"/>
       <use xlink:href="#DejaVuSerif-30" transform="translate(63.623047 0)"/>
      </g>
     </g>
    </g>
    <g id="ytick_2">
     <g id="line2d_15">
      <path d="M 48.90125 127.040578 
L 439.50125 127.040578 
" clip-path="url(#p84bae8a2ba)" style="fill: none; stroke: #b0b0b0; stroke-width: 0.8; stroke-linecap: square"/>
     </g>
     <g id="line2d_16">
      <g>
       <use xlink:href="#m5fcc16265c" x="48.90125" y="127.040578" style="stroke: #000000; stroke-width: 0.8"/>
      </g>
     </g>
     <g id="text_9">
      <!-- 100 -->
      <g transform="translate(22.81375 130.839796) scale(0.1 -0.1)">
       <use xlink:href="#DejaVuSerif-31"/>
       <use xlink:href="#DejaVuSerif-30" transform="translate(63.623047 0)"/>
       <use xlink:href="#DejaVuSerif-30" transform="translate(127.246094 0)"/>
      </g>
     </g>
    </g>
    <g id="ytick_3">
     <g id="line2d_17">
      <path d="M 48.90125 100.53535 
L 439.50125 100.53535 
" clip-path="url(#p84bae8a2ba)" style="fill: none; stroke: #b0b0b0; stroke-width: 0.8; stroke-linecap: square"/>
     </g>
     <g id="line2d_18">
      <g>
       <use xlink:href="#m5fcc16265c" x="48.90125" y="100.53535" style="stroke: #000000; stroke-width: 0.8"/>
      </g>
     </g>
     <g id="text_10">
      <!-- 150 -->
      <g transform="translate(22.81375 104.334569) scale(0.1 -0.1)">
       <use xlink:href="#DejaVuSerif-31"/>
       <use xlink:href="#DejaVuSerif-35" transform="translate(63.623047 0)"/>
       <use xlink:href="#DejaVuSerif-30" transform="translate(127.246094 0)"/>
      </g>
     </g>
    </g>
    <g id="ytick_4">
     <g id="line2d_19">
      <path d="M 48.90125 74.030122 
L 439.50125 74.030122 
" clip-path="url(#p84bae8a2ba)" style="fill: none; stroke: #b0b0b0; stroke-width: 0.8; stroke-linecap: square"/>
     </g>
     <g id="line2d_20">
      <g>
       <use xlink:href="#m5fcc16265c" x="48.90125" y="74.030122" style="stroke: #000000; stroke-width: 0.8"/>
      </g>
     </g>
     <g id="text_11">
      <!-- 200 -->
      <g transform="translate(22.81375 77.829341) scale(0.1 -0.1)">
       <use xlink:href="#DejaVuSerif-32"/>
       <use xlink:href="#DejaVuSerif-30" transform="translate(63.623047 0)"/>
       <use xlink:href="#DejaVuSerif-30" transform="translate(127.246094 0)"/>
      </g>
     </g>
    </g>
    <g id="ytick_5">
     <g id="line2d_21">
      <path d="M 48.90125 47.524895 
L 439.50125 47.524895 
" clip-path="url(#p84bae8a2ba)" style="fill: none; stroke: #b0b0b0; stroke-width: 0.8; stroke-linecap: square"/>
     </g>
     <g id="line2d_22">
      <g>
       <use xlink:href="#m5fcc16265c" x="48.90125" y="47.524895" style="stroke: #000000; stroke-width: 0.8"/>
      </g>
     </g>
     <g id="text_12">
      <!-- 250 -->
      <g transform="translate(22.81375 51.324113) scale(0.1 -0.1)">
       <use xlink:href="#DejaVuSerif-32"/>
       <use xlink:href="#DejaVuSerif-35" transform="translate(63.623047 0)"/>
       <use xlink:href="#DejaVuSerif-30" transform="translate(127.246094 0)"/>
      </g>
     </g>
    </g>
    <g id="ytick_6">
     <g id="line2d_23">
      <path d="M 48.90125 21.019667 
L 439.50125 21.019667 
" clip-path="url(#p84bae8a2ba)" style="fill: none; stroke: #b0b0b0; stroke-width: 0.8; stroke-linecap: square"/>
     </g>
     <g id="line2d_24">
      <g>
       <use xlink:href="#m5fcc16265c" x="48.90125" y="21.019667" style="stroke: #000000; stroke-width: 0.8"/>
      </g>
     </g>
     <g id="text_13">
      <!-- 300 -->
      <g transform="translate(22.81375 24.818886) scale(0.1 -0.1)">
       <defs>
        <path id="DejaVuSerif-33" d="M 622 4469 
Q 988 4606 1323 4678 
Q 1659 4750 1953 4750 
Q 2638 4750 3022 4454 
Q 3406 4159 3406 3634 
Q 3406 3213 3140 2930 
Q 2875 2647 2388 2547 
Q 2963 2466 3280 2130 
Q 3597 1794 3597 1259 
Q 3597 606 3158 257 
Q 2719 -91 1894 -91 
Q 1528 -91 1179 -12 
Q 831 66 488 225 
L 488 1131 
L 838 1131 
Q 869 681 1141 450 
Q 1413 219 1906 219 
Q 2384 219 2661 495 
Q 2938 772 2938 1253 
Q 2938 1803 2653 2086 
Q 2369 2369 1819 2369 
L 1522 2369 
L 1522 2688 
L 1678 2688 
Q 2225 2688 2498 2914 
Q 2772 3141 2772 3597 
Q 2772 4006 2547 4223 
Q 2322 4441 1900 4441 
Q 1478 4441 1245 4241 
Q 1013 4041 972 3647 
L 622 3647 
L 622 4469 
z
" transform="scale(0.015625)"/>
       </defs>
       <use xlink:href="#DejaVuSerif-33"/>
       <use xlink:href="#DejaVuSerif-30" transform="translate(63.623047 0)"/>
       <use xlink:href="#DejaVuSerif-30" transform="translate(127.246094 0)"/>
      </g>
     </g>
    </g>
    <g id="text_14">
     <!-- Maximum SKR (Kbps) -->
     <g transform="translate(16.318125 157.475625) rotate(-90) scale(0.12 -0.12)">
      <defs>
       <path id="DejaVuSerif-4d" d="M 353 0 
L 353 331 
L 947 331 
L 947 4331 
L 319 4331 
L 319 4666 
L 1678 4666 
L 3316 1344 
L 4953 4666 
L 6228 4666 
L 6228 4331 
L 5606 4331 
L 5606 331 
L 6203 331 
L 6203 0 
L 4378 0 
L 4378 331 
L 4972 331 
L 4972 3938 
L 3372 684 
L 2931 684 
L 1331 3938 
L 1331 331 
L 1925 331 
L 1925 0 
L 353 0 
z
" transform="scale(0.015625)"/>
       <path id="DejaVuSerif-61" d="M 2547 1044 
L 2547 1747 
L 1806 1747 
Q 1378 1747 1168 1562 
Q 959 1378 959 997 
Q 959 650 1171 447 
Q 1384 244 1747 244 
Q 2106 244 2326 466 
Q 2547 688 2547 1044 
z
M 3122 2075 
L 3122 331 
L 3634 331 
L 3634 0 
L 2547 0 
L 2547 359 
Q 2356 128 2106 18 
Q 1856 -91 1522 -91 
Q 969 -91 644 203 
Q 319 497 319 997 
Q 319 1513 691 1797 
Q 1063 2081 1741 2081 
L 2547 2081 
L 2547 2309 
Q 2547 2688 2317 2895 
Q 2088 3103 1672 3103 
Q 1328 3103 1125 2947 
Q 922 2791 872 2484 
L 575 2484 
L 575 3156 
Q 875 3284 1158 3348 
Q 1441 3413 1709 3413 
Q 2400 3413 2761 3070 
Q 3122 2728 3122 2075 
z
" transform="scale(0.015625)"/>
       <path id="DejaVuSerif-78" d="M 1863 2028 
L 2559 2988 
L 2113 2988 
L 2113 3322 
L 3391 3322 
L 3391 2988 
L 2950 2988 
L 2059 1759 
L 3097 331 
L 3531 331 
L 3531 0 
L 1997 0 
L 1997 331 
L 2419 331 
L 1697 1325 
L 972 331 
L 1403 331 
L 1403 0 
L 141 0 
L 141 331 
L 581 331 
L 1497 1594 
L 488 2988 
L 78 2988 
L 78 3322 
L 1563 3322 
L 1563 2988 
L 1166 2988 
L 1863 2028 
z
" transform="scale(0.015625)"/>
       <path id="DejaVuSerif-75" d="M 2266 3322 
L 3341 3322 
L 3341 331 
L 3884 331 
L 3884 0 
L 2766 0 
L 2766 588 
Q 2606 256 2353 82 
Q 2100 -91 1766 -91 
Q 1213 -91 952 223 
Q 691 538 691 1209 
L 691 2988 
L 172 2988 
L 172 3322 
L 1269 3322 
L 1269 1388 
Q 1269 781 1417 556 
Q 1566 331 1947 331 
Q 2347 331 2556 625 
Q 2766 919 2766 1478 
L 2766 2988 
L 2266 2988 
L 2266 3322 
z
" transform="scale(0.015625)"/>
       <path id="DejaVuSerif-53" d="M 594 225 
L 594 1288 
L 953 1284 
Q 969 753 1261 498 
Q 1553 244 2150 244 
Q 2706 244 2998 464 
Q 3291 684 3291 1106 
Q 3291 1444 3114 1625 
Q 2938 1806 2369 1978 
L 1753 2163 
Q 1084 2366 811 2669 
Q 538 2972 538 3500 
Q 538 4094 959 4422 
Q 1381 4750 2144 4750 
Q 2469 4750 2856 4679 
Q 3244 4609 3681 4475 
L 3681 3481 
L 3328 3481 
Q 3275 3975 2998 4195 
Q 2722 4416 2156 4416 
Q 1663 4416 1405 4214 
Q 1147 4013 1147 3628 
Q 1147 3294 1340 3103 
Q 1534 2913 2163 2725 
L 2741 2553 
Q 3375 2363 3645 2067 
Q 3916 1772 3916 1275 
Q 3916 597 3481 253 
Q 3047 -91 2188 -91 
Q 1803 -91 1404 -12 
Q 1006 66 594 225 
z
" transform="scale(0.015625)"/>
       <path id="DejaVuSerif-4b" d="M 353 0 
L 353 331 
L 947 331 
L 947 4331 
L 353 4331 
L 353 4666 
L 2175 4666 
L 2175 4331 
L 1581 4331 
L 1581 2566 
L 3591 4331 
L 3084 4331 
L 3084 4666 
L 4634 4666 
L 4634 4331 
L 4109 4331 
L 2106 2572 
L 4347 331 
L 4878 331 
L 4878 0 
L 3794 0 
L 1581 2216 
L 1581 331 
L 2175 331 
L 2175 0 
L 353 0 
z
" transform="scale(0.015625)"/>
       <path id="DejaVuSerif-52" d="M 3066 2316 
Q 3284 2256 3442 2114 
Q 3600 1972 3725 1716 
L 4403 331 
L 4972 331 
L 4972 0 
L 3872 0 
L 3144 1484 
Q 2934 1916 2759 2042 
Q 2584 2169 2278 2169 
L 1581 2169 
L 1581 331 
L 2241 331 
L 2241 0 
L 353 0 
L 353 331 
L 947 331 
L 947 4331 
L 353 4331 
L 353 4666 
L 2719 4666 
Q 3400 4666 3770 4341 
Q 4141 4016 4141 3419 
Q 4141 2938 3870 2661 
Q 3600 2384 3066 2316 
z
M 1581 2503 
L 2503 2503 
Q 2975 2503 3200 2726 
Q 3425 2950 3425 3419 
Q 3425 3888 3200 4109 
Q 2975 4331 2503 4331 
L 1581 4331 
L 1581 2503 
z
" transform="scale(0.015625)"/>
       <path id="DejaVuSerif-62" d="M 738 331 
L 738 4531 
L 184 4531 
L 184 4863 
L 1313 4863 
L 1313 2803 
Q 1481 3116 1742 3264 
Q 2003 3413 2388 3413 
Q 3000 3413 3387 2928 
Q 3775 2444 3775 1663 
Q 3775 881 3387 395 
Q 3000 -91 2388 -91 
Q 2003 -91 1742 57 
Q 1481 206 1313 519 
L 1313 0 
L 184 0 
L 184 331 
L 738 331 
z
M 1313 1497 
Q 1313 897 1542 583 
Q 1772 269 2209 269 
Q 2650 269 2876 622 
Q 3103 975 3103 1663 
Q 3103 2353 2876 2703 
Q 2650 3053 2209 3053 
Q 1772 3053 1542 2737 
Q 1313 2422 1313 1825 
L 1313 1497 
z
" transform="scale(0.015625)"/>
       <path id="DejaVuSerif-70" d="M 1313 1825 
L 1313 1497 
Q 1313 897 1542 583 
Q 1772 269 2209 269 
Q 2650 269 2876 622 
Q 3103 975 3103 1663 
Q 3103 2353 2876 2703 
Q 2650 3053 2209 3053 
Q 1772 3053 1542 2737 
Q 1313 2422 1313 1825 
z
M 738 2988 
L 184 2988 
L 184 3322 
L 1313 3322 
L 1313 2803 
Q 1481 3116 1742 3264 
Q 2003 3413 2388 3413 
Q 3000 3413 3387 2928 
Q 3775 2444 3775 1663 
Q 3775 881 3387 395 
Q 3000 -91 2388 -91 
Q 2003 -91 1742 57 
Q 1481 206 1313 519 
L 1313 -997 
L 1856 -997 
L 1856 -1331 
L 184 -1331 
L 184 -997 
L 738 -997 
L 738 2988 
z
" transform="scale(0.015625)"/>
      </defs>
      <use xlink:href="#DejaVuSerif-4d"/>
      <use xlink:href="#DejaVuSerif-61" transform="translate(102.392578 0)"/>
      <use xlink:href="#DejaVuSerif-78" transform="translate(162.011719 0)"/>
      <use xlink:href="#DejaVuSerif-69" transform="translate(218.408203 0)"/>
      <use xlink:href="#DejaVuSerif-6d" transform="translate(250.390625 0)"/>
      <use xlink:href="#DejaVuSerif-75" transform="translate(345.214844 0)"/>
      <use xlink:href="#DejaVuSerif-6d" transform="translate(409.619141 0)"/>
      <use xlink:href="#DejaVuSerif-20" transform="translate(504.443359 0)"/>
      <use xlink:href="#DejaVuSerif-53" transform="translate(536.230469 0)"/>
      <use xlink:href="#DejaVuSerif-4b" transform="translate(604.736328 0)"/>
      <use xlink:href="#DejaVuSerif-52" transform="translate(679.443359 0)"/>
      <use xlink:href="#DejaVuSerif-20" transform="translate(754.736328 0)"/>
      <use xlink:href="#DejaVuSerif-28" transform="translate(786.523438 0)"/>
      <use xlink:href="#DejaVuSerif-4b" transform="translate(825.537109 0)"/>
      <use xlink:href="#DejaVuSerif-62" transform="translate(900.244141 0)"/>
      <use xlink:href="#DejaVuSerif-70" transform="translate(964.257812 0)"/>
      <use xlink:href="#DejaVuSerif-73" transform="translate(1028.271484 0)"/>
      <use xlink:href="#DejaVuSerif-29" transform="translate(1079.589844 0)"/>
     </g>
    </g>
   </g>
   <g id="line2d_25">
    <path d="M 66.655795 130.835395 
L 70.354659 130.858175 
L 74.053523 130.990493 
L 77.752386 131.164352 
L 81.45125 131.386735 
L 85.150114 131.640671 
L 88.848977 131.898932 
L 92.547841 132.194602 
L 96.246705 132.563423 
L 99.945568 133.751894 
L 103.644432 134.784811 
L 107.343295 134.634464 
L 111.042159 133.483589 
L 114.741023 132.145853 
L 118.439886 131.17962 
L 122.13875 130.672713 
L 125.837614 130.646354 
L 129.536477 130.662305 
L 133.235341 130.645317 
L 136.934205 130.610393 
L 140.633068 130.584223 
L 144.331932 130.639493 
L 148.030795 130.71567 
L 151.729659 130.827962 
L 155.428523 130.98754 
L 159.127386 131.354753 
L 162.82625 131.568293 
L 166.525114 131.643085 
L 170.223977 131.717456 
L 173.922841 131.791589 
L 177.621705 131.873311 
L 181.320568 131.961386 
L 185.019432 132.048286 
L 188.718295 132.093259 
L 192.417159 132.157341 
L 196.116023 132.183946 
L 199.814886 132.178809 
L 203.51375 132.124536 
L 207.212614 132.065187 
L 210.911477 132.006772 
L 214.610341 131.955089 
L 218.309205 131.816442 
L 222.008068 131.659364 
L 225.706932 131.506317 
L 229.405795 131.364143 
L 233.104659 131.327555 
L 236.803523 131.3432 
L 240.502386 131.375659 
L 244.20125 131.385409 
L 247.900114 131.321182 
L 251.598977 131.31595 
L 255.297841 131.348451 
L 258.996705 131.347701 
L 262.695568 130.969695 
L 266.394432 130.729348 
L 270.093295 130.872562 
L 273.792159 131.355605 
L 277.491023 131.591305 
L 281.189886 131.963896 
L 284.88875 132.563647 
L 288.587614 133.024723 
L 292.286477 132.754864 
L 295.985341 132.391123 
L 299.684205 132.036577 
L 303.383068 131.723069 
L 307.081932 131.347196 
L 310.780795 131.035605 
L 314.479659 130.880773 
L 318.178523 130.90958 
L 321.877386 130.953534 
L 325.57625 131.021486 
L 329.275114 131.050469 
L 332.973977 131.15513 
L 336.672841 131.377134 
L 340.371705 131.972526 
L 344.070568 132.831867 
L 347.769432 133.705025 
L 351.468295 134.177762 
L 355.167159 135.048965 
L 358.866023 136.232169 
L 362.564886 137.676084 
L 366.26375 140.079539 
L 369.962614 142.907594 
L 373.661477 145.903583 
L 377.360341 148.873793 
L 381.059205 151.960153 
L 384.758068 154.774438 
L 388.456932 157.452023 
L 392.155795 159.341024 
L 395.854659 160.711762 
L 399.553523 161.922766 
L 403.252386 162.587635 
L 406.95125 163.501348 
L 410.650114 164.053428 
L 414.348977 164.520093 
L 418.047841 164.962749 
L 421.746705 165.042544 
" clip-path="url(#p84bae8a2ba)" style="fill: none; stroke: #0000ff; stroke-width: 1.5; stroke-linecap: square"/>
    <defs>
     <path id="m2ee6c2e6ea" d="M 0 3 
C 0.795609 3 1.55874 2.683901 2.12132 2.12132 
C 2.683901 1.55874 3 0.795609 3 0 
C 3 -0.795609 2.683901 -1.55874 2.12132 -2.12132 
C 1.55874 -2.683901 0.795609 -3 0 -3 
C -0.795609 -3 -1.55874 -2.683901 -2.12132 -2.12132 
C -2.683901 -1.55874 -3 -0.795609 -3 0 
C -3 0.795609 -2.683901 1.55874 -2.12132 2.12132 
C -1.55874 2.683901 -0.795609 3 0 3 
z
" style="stroke: #0000ff"/>
    </defs>
    <g clip-path="url(#p84bae8a2ba)">
     <use xlink:href="#m2ee6c2e6ea" x="66.655795" y="130.835395" style="fill: #0000ff; stroke: #0000ff"/>
     <use xlink:href="#m2ee6c2e6ea" x="140.633068" y="130.584223" style="fill: #0000ff; stroke: #0000ff"/>
     <use xlink:href="#m2ee6c2e6ea" x="214.610341" y="131.955089" style="fill: #0000ff; stroke: #0000ff"/>
     <use xlink:href="#m2ee6c2e6ea" x="288.587614" y="133.024723" style="fill: #0000ff; stroke: #0000ff"/>
     <use xlink:href="#m2ee6c2e6ea" x="362.564886" y="137.676084" style="fill: #0000ff; stroke: #0000ff"/>
    </g>
   </g>
   <g id="line2d_26">
    <path d="M 66.655795 132.199232 
L 70.354659 131.141202 
L 74.053523 129.265603 
L 77.752386 132.632062 
L 81.45125 131.237386 
L 85.150114 133.161077 
L 88.848977 129.746526 
L 92.547841 131.910678 
L 96.246705 132.343508 
L 99.945568 134.555752 
L 103.644432 136.287074 
L 107.343295 132.968708 
L 111.042159 135.373321 
L 114.741023 130.708371 
L 118.439886 134.700029 
L 122.13875 130.083172 
L 125.837614 129.794618 
L 129.536477 131.670217 
L 133.235341 131.95877 
L 136.934205 128.97705 
L 140.633068 130.419818 
L 144.331932 130.179356 
L 148.030795 130.996925 
L 151.729659 129.313696 
L 155.428523 132.968708 
L 159.127386 130.371726 
L 162.82625 132.006862 
L 166.525114 129.650342 
L 170.223977 133.978645 
L 173.922841 131.52594 
L 177.621705 133.0168 
L 181.320568 134.363383 
L 185.019432 130.323633 
L 188.718295 133.257261 
L 192.417159 132.824431 
L 196.116023 131.910678 
L 199.814886 133.209169 
L 203.51375 132.247324 
L 207.212614 132.680154 
L 210.911477 134.363383 
L 214.610341 128.832773 
L 218.309205 130.131264 
L 222.008068 131.862586 
L 225.706932 132.199232 
L 229.405795 130.419818 
L 233.104659 130.996925 
L 236.803523 132.776339 
L 240.502386 131.95877 
L 244.20125 132.632062 
L 247.900114 131.477848 
L 251.598977 128.303758 
L 255.297841 132.295416 
L 258.996705 129.40988 
L 262.695568 130.516002 
L 266.394432 130.275541 
L 270.093295 128.928958 
L 273.792159 132.103047 
L 277.491023 130.516002 
L 281.189886 131.477848 
L 284.88875 131.477848 
L 288.587614 134.171014 
L 292.286477 133.930553 
L 295.985341 131.95877 
L 299.684205 131.814493 
L 303.383068 132.728246 
L 307.081932 130.564095 
L 310.780795 128.97705 
L 314.479659 131.574032 
L 318.178523 130.564095 
L 321.877386 131.093109 
L 325.57625 129.794618 
L 329.275114 130.708371 
L 332.973977 131.718309 
L 336.672841 129.602249 
L 340.371705 130.852648 
L 344.070568 133.497723 
L 347.769432 132.295416 
L 351.468295 135.13286 
L 355.167159 132.728246 
L 358.866023 137.537473 
L 362.564886 138.258857 
L 366.26375 140.855839 
L 369.962614 142.106238 
L 373.661477 147.011648 
L 377.360341 150.714753 
L 381.059205 152.446074 
L 384.758068 153.504104 
L 388.456932 156.870562 
L 392.155795 159.37136 
L 395.854659 160.140836 
L 399.553523 162.256896 
L 403.252386 162.689726 
L 406.95125 162.256896 
L 410.650114 165.046247 
L 414.348977 163.795848 
L 418.047841 165.96 
L 421.746705 165.671446 
" clip-path="url(#p84bae8a2ba)" style="fill: none; stroke: #ffa500; stroke-width: 1.5; stroke-linecap: square"/>
    <defs>
     <path id="mbd208d055b" d="M 0 -3 
L -3 3 
L 3 3 
z
" style="stroke: #ffa500; stroke-linejoin: miter"/>
    </defs>
    <g clip-path="url(#p84bae8a2ba)">
     <use xlink:href="#mbd208d055b" x="66.655795" y="132.199232" style="fill: #ffa500; stroke: #ffa500; stroke-linejoin: miter"/>
     <use xlink:href="#mbd208d055b" x="140.633068" y="130.419818" style="fill: #ffa500; stroke: #ffa500; stroke-linejoin: miter"/>
     <use xlink:href="#mbd208d055b" x="214.610341" y="128.832773" style="fill: #ffa500; stroke: #ffa500; stroke-linejoin: miter"/>
     <use xlink:href="#mbd208d055b" x="288.587614" y="134.171014" style="fill: #ffa500; stroke: #ffa500; stroke-linejoin: miter"/>
     <use xlink:href="#mbd208d055b" x="362.564886" y="138.258857" style="fill: #ffa500; stroke: #ffa500; stroke-linejoin: miter"/>
    </g>
   </g>
   <g id="line2d_27">
    <path d="M 66.655795 23.974534 
L 70.354659 24.056823 
L 74.053523 24.534569 
L 77.752386 25.161735 
L 81.45125 25.963006 
L 85.150114 26.876687 
L 88.848977 27.804532 
L 92.547841 28.865049 
L 96.246705 30.185376 
L 99.945568 34.420649 
L 103.644432 38.077923 
L 107.343295 37.546945 
L 111.042159 33.467069 
L 114.741023 28.69032 
L 118.439886 25.216781 
L 122.13875 23.386567 
L 125.837614 23.291247 
L 129.536477 23.348933 
L 133.235341 23.287497 
L 136.934205 23.161177 
L 140.633068 23.066507 
L 144.331932 23.266433 
L 148.030795 23.541878 
L 151.729659 23.947682 
L 155.428523 24.523908 
L 159.127386 25.847836 
L 162.82625 26.616406 
L 166.525114 26.885366 
L 170.223977 27.152696 
L 173.922841 27.419056 
L 177.621705 27.712547 
L 181.320568 28.028697 
L 185.019432 28.340469 
L 188.718295 28.501755 
L 192.417159 28.731501 
L 196.116023 28.826859 
L 199.814886 28.808447 
L 203.51375 28.613898 
L 207.212614 28.401084 
L 210.911477 28.191546 
L 214.610341 28.006096 
L 218.309205 27.508324 
L 222.008068 26.943892 
L 225.706932 26.393443 
L 229.405795 25.881652 
L 233.104659 25.749877 
L 236.803523 25.806228 
L 240.502386 25.923124 
L 244.20125 25.958232 
L 247.900114 25.726919 
L 251.598977 25.708075 
L 255.297841 25.82514 
L 258.996705 25.822438 
L 262.695568 24.459498 
L 266.394432 23.591322 
L 270.093295 24.108784 
L 273.792159 25.850906 
L 277.491023 26.699171 
L 281.189886 28.037705 
L 284.88875 30.186175 
L 288.587614 31.832763 
L 292.286477 30.869586 
L 295.985341 29.568919 
L 299.684205 28.298469 
L 303.383068 27.172866 
L 307.081932 25.820619 
L 310.780795 24.697363 
L 314.479659 24.138442 
L 318.178523 24.242469 
L 321.877386 24.401163 
L 325.57625 24.646418 
L 329.275114 24.750993 
L 332.973977 25.128482 
L 336.672841 25.928434 
L 340.371705 28.068673 
L 344.070568 31.144576 
L 347.769432 34.254181 
L 351.468295 35.931181 
L 355.167159 39.009721 
L 358.866023 43.166113 
L 362.564886 48.200386 
L 366.26375 56.489347 
L 369.962614 66.100987 
L 373.661477 76.121312 
L 377.360341 85.896011 
L 381.059205 95.890173 
L 384.758068 104.863154 
L 388.456932 113.279833 
L 392.155795 119.148792 
L 395.854659 123.372579 
L 399.553523 127.080056 
L 403.252386 129.106032 
L 406.95125 131.879385 
L 410.650114 133.549014 
L 414.348977 134.956782 
L 418.047841 136.289136 
L 421.746705 136.529003 
" clip-path="url(#p84bae8a2ba)" style="fill: none; stroke: #008000; stroke-width: 1.5; stroke-linecap: square"/>
    <defs>
     <path id="m630ee7ddda" d="M 0 -3 
L -2.598076 -1.5 
L -2.598076 1.5 
L -0 3 
L 2.598076 1.5 
L 2.598076 -1.5 
z
" style="stroke: #008000; stroke-linejoin: miter"/>
    </defs>
    <g clip-path="url(#p84bae8a2ba)">
     <use xlink:href="#m630ee7ddda" x="66.655795" y="23.974534" style="fill: #008000; stroke: #008000; stroke-linejoin: miter"/>
     <use xlink:href="#m630ee7ddda" x="140.633068" y="23.066507" style="fill: #008000; stroke: #008000; stroke-linejoin: miter"/>
     <use xlink:href="#m630ee7ddda" x="214.610341" y="28.006096" style="fill: #008000; stroke: #008000; stroke-linejoin: miter"/>
     <use xlink:href="#m630ee7ddda" x="288.587614" y="31.832763" style="fill: #008000; stroke: #008000; stroke-linejoin: miter"/>
     <use xlink:href="#m630ee7ddda" x="362.564886" y="48.200386" style="fill: #008000; stroke: #008000; stroke-linejoin: miter"/>
    </g>
   </g>
   <g id="line2d_28">
    <path d="M 66.655795 28.881639 
L 70.354659 25.07826 
L 74.053523 18.277247 
L 77.752386 30.430778 
L 81.45125 25.425001 
L 85.150114 32.318858 
L 88.848977 20.028316 
L 92.547841 27.846697 
L 96.246705 29.398455 
L 99.945568 37.268774 
L 103.644432 43.358302 
L 107.343295 31.632958 
L 111.042159 40.151939 
L 114.741023 23.515492 
L 118.439886 37.778556 
L 122.13875 21.25109 
L 125.837614 20.203148 
L 129.536477 26.982905 
L 133.235341 28.019309 
L 136.934205 17.224194 
L 140.633068 22.471425 
L 144.331932 21.600006 
L 148.030795 24.557781 
L 151.729659 18.452579 
L 155.428523 31.632958 
L 159.127386 22.29724 
L 162.82625 28.191872 
L 166.525114 19.678503 
L 170.223977 35.225388 
L 173.922841 26.464044 
L 177.621705 31.804505 
L 181.320568 36.588404 
L 185.019432 22.123006 
L 188.718295 32.66152 
L 192.417159 31.118027 
L 196.116023 27.846697 
L 199.814886 32.490213 
L 203.51375 29.05396 
L 207.212614 30.602663 
L 210.911477 36.588404 
L 214.610341 16.696987 
L 218.309205 21.425573 
L 222.008068 27.674036 
L 225.706932 28.881639 
L 229.405795 22.471425 
L 233.104659 24.557781 
L 236.803523 30.946287 
L 240.502386 28.019309 
L 244.20125 30.430778 
L 247.900114 26.290993 
L 251.598977 14.76 
L 255.297841 29.226231 
L 258.996705 18.803094 
L 262.695568 22.819645 
L 266.394432 21.948722 
L 270.093295 17.048509 
L 273.792159 28.536853 
L 277.491023 22.819645 
L 281.189886 26.290993 
L 284.88875 26.290993 
L 288.587614 35.907275 
L 292.286477 35.054797 
L 295.985341 28.019309 
L 299.684205 27.501326 
L 303.383068 30.774499 
L 307.081932 22.993681 
L 310.780795 17.224194 
L 314.479659 26.637047 
L 318.178523 22.993681 
L 321.877386 24.904817 
L 325.57625 20.203148 
L 329.275114 23.515492 
L 332.973977 27.155761 
L 336.672841 19.503522 
L 340.371705 24.036859 
L 344.070568 33.517337 
L 347.769432 29.226231 
L 351.468295 39.305359 
L 355.167159 30.774499 
L 358.866023 47.718904 
L 362.564886 50.220571 
L 366.26375 59.142809 
L 369.962614 63.392734 
L 373.661477 79.786146 
L 377.360341 91.876979 
L 381.059205 97.448897 
L 384.758068 100.829146 
L 388.456932 111.461895 
L 392.155795 119.242585 
L 395.854659 121.616873 
L 399.553523 128.099049 
L 403.252386 129.416531 
L 406.95125 128.099049 
L 410.650114 136.540134 
L 414.348977 132.770594 
L 418.047841 139.280184 
L 421.746705 138.41623 
" clip-path="url(#p84bae8a2ba)" style="fill: none; stroke: #ff0000; stroke-width: 1.5; stroke-linecap: square"/>
    <defs>
     <path id="md08218b8ee" d="M 0 -3 
L -0.673542 -0.927051 
L -2.85317 -0.927051 
L -1.089814 0.354102 
L -1.763356 2.427051 
L -0 1.145898 
L 1.763356 2.427051 
L 1.089814 0.354102 
L 2.85317 -0.927051 
L 0.673542 -0.927051 
z
" style="stroke: #ff0000; stroke-linejoin: bevel"/>
    </defs>
    <g clip-path="url(#p84bae8a2ba)">
     <use xlink:href="#md08218b8ee" x="66.655795" y="28.881639" style="fill: #ff0000; stroke: #ff0000; stroke-linejoin: bevel"/>
     <use xlink:href="#md08218b8ee" x="140.633068" y="22.471425" style="fill: #ff0000; stroke: #ff0000; stroke-linejoin: bevel"/>
     <use xlink:href="#md08218b8ee" x="214.610341" y="16.696987" style="fill: #ff0000; stroke: #ff0000; stroke-linejoin: bevel"/>
     <use xlink:href="#md08218b8ee" x="288.587614" y="35.907275" style="fill: #ff0000; stroke: #ff0000; stroke-linejoin: bevel"/>
     <use xlink:href="#md08218b8ee" x="362.564886" y="50.220571" style="fill: #ff0000; stroke: #ff0000; stroke-linejoin: bevel"/>
    </g>
   </g>
   <g id="patch_3">
    <path d="M 48.90125 173.52 
L 48.90125 7.2 
" style="fill: none; stroke: #000000; stroke-width: 0.8; stroke-linejoin: miter; stroke-linecap: square"/>
   </g>
   <g id="patch_4">
    <path d="M 439.50125 173.52 
L 439.50125 7.2 
" style="fill: none; stroke: #000000; stroke-width: 0.8; stroke-linejoin: miter; stroke-linecap: square"/>
   </g>
   <g id="patch_5">
    <path d="M 48.90125 173.52 
L 439.50125 173.52 
" style="fill: none; stroke: #000000; stroke-width: 0.8; stroke-linejoin: miter; stroke-linecap: square"/>
   </g>
   <g id="patch_6">
    <path d="M 48.90125 7.2 
L 439.50125 7.2 
" style="fill: none; stroke: #000000; stroke-width: 0.8; stroke-linejoin: miter; stroke-linecap: square"/>
   </g>
   <g id="legend_1">
    <g id="patch_7">
     <path d="M 57.30125 127.558125 
L 209.350625 127.558125 
Q 211.750625 127.558125 211.750625 125.158125 
L 211.750625 55.561875 
Q 211.750625 53.161875 209.350625 53.161875 
L 57.30125 53.161875 
Q 54.90125 53.161875 54.90125 55.561875 
L 54.90125 125.158125 
Q 54.90125 127.558125 57.30125 127.558125 
z
" style="fill: #ffffff; opacity: 0.8; stroke: #cccccc; stroke-linejoin: miter"/>
    </g>
    <g id="line2d_29">
     <path d="M 59.70125 62.88 
L 71.70125 62.88 
L 83.70125 62.88 
" style="fill: none; stroke: #0000ff; stroke-width: 1.5; stroke-linecap: square"/>
     <g>
      <use xlink:href="#m2ee6c2e6ea" x="71.70125" y="62.88" style="fill: #0000ff; stroke: #0000ff"/>
     </g>
    </g>
    <g id="text_15">
     <!-- Theory (DW) -->
     <g transform="translate(93.30125 67.08) scale(0.12 -0.12)">
      <defs>
       <path id="DejaVuSerif-68" d="M 263 0 
L 263 331 
L 781 331 
L 781 4531 
L 231 4531 
L 231 4863 
L 1356 4863 
L 1356 2731 
Q 1516 3069 1770 3241 
Q 2025 3413 2363 3413 
Q 2913 3413 3172 3097 
Q 3431 2781 3431 2113 
L 3431 331 
L 3944 331 
L 3944 0 
L 2356 0 
L 2356 331 
L 2853 331 
L 2853 1931 
Q 2853 2541 2704 2764 
Q 2556 2988 2175 2988 
Q 1775 2988 1565 2697 
Q 1356 2406 1356 1850 
L 1356 331 
L 1856 331 
L 1856 0 
L 263 0 
z
" transform="scale(0.015625)"/>
       <path id="DejaVuSerif-6f" d="M 1925 219 
Q 2388 219 2623 584 
Q 2859 950 2859 1663 
Q 2859 2375 2623 2739 
Q 2388 3103 1925 3103 
Q 1463 3103 1227 2739 
Q 991 2375 991 1663 
Q 991 950 1228 584 
Q 1466 219 1925 219 
z
M 1925 -91 
Q 1200 -91 759 389 
Q 319 869 319 1663 
Q 319 2456 758 2934 
Q 1197 3413 1925 3413 
Q 2653 3413 3092 2934 
Q 3531 2456 3531 1663 
Q 3531 869 3092 389 
Q 2653 -91 1925 -91 
z
" transform="scale(0.015625)"/>
       <path id="DejaVuSerif-72" d="M 3059 3328 
L 3059 2497 
L 2728 2497 
Q 2713 2744 2591 2866 
Q 2469 2988 2234 2988 
Q 1809 2988 1582 2694 
Q 1356 2400 1356 1850 
L 1356 331 
L 2022 331 
L 2022 0 
L 263 0 
L 263 331 
L 781 331 
L 781 2994 
L 231 2994 
L 231 3322 
L 1356 3322 
L 1356 2731 
Q 1525 3078 1790 3245 
Q 2056 3413 2438 3413 
Q 2578 3413 2733 3391 
Q 2888 3369 3059 3328 
z
" transform="scale(0.015625)"/>
       <path id="DejaVuSerif-79" d="M 1381 -609 
L 1600 -56 
L 359 2988 
L -19 2988 
L -19 3322 
L 1509 3322 
L 1509 2988 
L 978 2988 
L 1913 703 
L 2847 2988 
L 2350 2988 
L 2350 3322 
L 3597 3322 
L 3597 2988 
L 3225 2988 
L 1703 -750 
Q 1547 -1138 1356 -1280 
Q 1166 -1422 819 -1422 
Q 672 -1422 517 -1397 
Q 363 -1372 206 -1325 
L 206 -691 
L 500 -691 
Q 519 -903 608 -995 
Q 697 -1088 884 -1088 
Q 1056 -1088 1161 -992 
Q 1266 -897 1381 -609 
z
" transform="scale(0.015625)"/>
       <path id="DejaVuSerif-44" d="M 1581 331 
L 2163 331 
Q 3072 331 3558 850 
Q 4044 1369 4044 2338 
Q 4044 3306 3559 3818 
Q 3075 4331 2163 4331 
L 1581 4331 
L 1581 331 
z
M 353 0 
L 353 331 
L 947 331 
L 947 4331 
L 353 4331 
L 353 4666 
L 2209 4666 
Q 3416 4666 4089 4050 
Q 4763 3434 4763 2338 
Q 4763 1238 4088 619 
Q 3413 0 2209 0 
L 353 0 
z
" transform="scale(0.015625)"/>
       <path id="DejaVuSerif-57" d="M 4878 0 
L 4366 0 
L 3297 3794 
L 2228 0 
L 1716 0 
L 494 4331 
L 31 4331 
L 31 4666 
L 1734 4666 
L 1734 4331 
L 1153 4331 
L 2125 884 
L 3188 4666 
L 3694 4666 
L 4775 844 
L 5753 4331 
L 5216 4331 
L 5216 4666 
L 6559 4666 
L 6559 4331 
L 6100 4331 
L 4878 0 
z
" transform="scale(0.015625)"/>
      </defs>
      <use xlink:href="#DejaVuSerif-54"/>
      <use xlink:href="#DejaVuSerif-68" transform="translate(66.699219 0)"/>
      <use xlink:href="#DejaVuSerif-65" transform="translate(131.103516 0)"/>
      <use xlink:href="#DejaVuSerif-6f" transform="translate(190.283203 0)"/>
      <use xlink:href="#DejaVuSerif-72" transform="translate(250.488281 0)"/>
      <use xlink:href="#DejaVuSerif-79" transform="translate(298.291016 0)"/>
      <use xlink:href="#DejaVuSerif-20" transform="translate(354.785156 0)"/>
      <use xlink:href="#DejaVuSerif-28" transform="translate(386.572266 0)"/>
      <use xlink:href="#DejaVuSerif-44" transform="translate(425.585938 0)"/>
      <use xlink:href="#DejaVuSerif-57" transform="translate(505.761719 0)"/>
      <use xlink:href="#DejaVuSerif-29" transform="translate(608.544922 0)"/>
     </g>
    </g>
    <g id="line2d_30">
     <path d="M 59.70125 80.664375 
L 71.70125 80.664375 
L 83.70125 80.664375 
" style="fill: none; stroke: #ffa500; stroke-width: 1.5; stroke-linecap: square"/>
     <g>
      <use xlink:href="#mbd208d055b" x="71.70125" y="80.664375" style="fill: #ffa500; stroke: #ffa500; stroke-linejoin: miter"/>
     </g>
    </g>
    <g id="text_16">
     <!-- Simulation (DW) -->
     <g transform="translate(93.30125 84.864375) scale(0.12 -0.12)">
      <defs>
       <path id="DejaVuSerif-6c" d="M 1313 331 
L 1856 331 
L 1856 0 
L 184 0 
L 184 331 
L 738 331 
L 738 4531 
L 184 4531 
L 184 4863 
L 1313 4863 
L 1313 331 
z
" transform="scale(0.015625)"/>
       <path id="DejaVuSerif-74" d="M 691 2988 
L 184 2988 
L 184 3322 
L 691 3322 
L 691 4353 
L 1269 4353 
L 1269 3322 
L 2350 3322 
L 2350 2988 
L 1269 2988 
L 1269 878 
Q 1269 456 1350 337 
Q 1431 219 1650 219 
Q 1875 219 1978 351 
Q 2081 484 2088 781 
L 2522 781 
Q 2497 328 2275 118 
Q 2053 -91 1600 -91 
Q 1103 -91 897 129 
Q 691 350 691 878 
L 691 2988 
z
" transform="scale(0.015625)"/>
       <path id="DejaVuSerif-6e" d="M 263 0 
L 263 331 
L 781 331 
L 781 2988 
L 231 2988 
L 231 3322 
L 1356 3322 
L 1356 2731 
Q 1516 3069 1770 3241 
Q 2025 3413 2363 3413 
Q 2913 3413 3172 3097 
Q 3431 2781 3431 2113 
L 3431 331 
L 3944 331 
L 3944 0 
L 2356 0 
L 2356 331 
L 2853 331 
L 2853 1931 
Q 2853 2541 2703 2767 
Q 2553 2994 2175 2994 
Q 1775 2994 1565 2701 
Q 1356 2409 1356 1850 
L 1356 331 
L 1856 331 
L 1856 0 
L 263 0 
z
" transform="scale(0.015625)"/>
      </defs>
      <use xlink:href="#DejaVuSerif-53"/>
      <use xlink:href="#DejaVuSerif-69" transform="translate(68.505859 0)"/>
      <use xlink:href="#DejaVuSerif-6d" transform="translate(100.488281 0)"/>
      <use xlink:href="#DejaVuSerif-75" transform="translate(195.3125 0)"/>
      <use xlink:href="#DejaVuSerif-6c" transform="translate(259.716797 0)"/>
      <use xlink:href="#DejaVuSerif-61" transform="translate(291.699219 0)"/>
      <use xlink:href="#DejaVuSerif-74" transform="translate(351.318359 0)"/>
      <use xlink:href="#DejaVuSerif-69" transform="translate(391.503906 0)"/>
      <use xlink:href="#DejaVuSerif-6f" transform="translate(423.486328 0)"/>
      <use xlink:href="#DejaVuSerif-6e" transform="translate(483.691406 0)"/>
      <use xlink:href="#DejaVuSerif-20" transform="translate(548.095703 0)"/>
      <use xlink:href="#DejaVuSerif-28" transform="translate(579.882812 0)"/>
      <use xlink:href="#DejaVuSerif-44" transform="translate(618.896484 0)"/>
      <use xlink:href="#DejaVuSerif-57" transform="translate(699.072266 0)"/>
      <use xlink:href="#DejaVuSerif-29" transform="translate(801.855469 0)"/>
     </g>
    </g>
    <g id="line2d_31">
     <path d="M 59.70125 98.278125 
L 71.70125 98.278125 
L 83.70125 98.278125 
" style="fill: none; stroke: #008000; stroke-width: 1.5; stroke-linecap: square"/>
     <g>
      <use xlink:href="#m630ee7ddda" x="71.70125" y="98.278125" style="fill: #008000; stroke: #008000; stroke-linejoin: miter"/>
     </g>
    </g>
    <g id="text_17">
     <!-- Theory (PLOB) -->
     <g transform="translate(93.30125 102.478125) scale(0.12 -0.12)">
      <defs>
       <path id="DejaVuSerif-50" d="M 1581 2375 
L 2406 2375 
Q 2872 2375 3115 2626 
Q 3359 2878 3359 3353 
Q 3359 3831 3115 4081 
Q 2872 4331 2406 4331 
L 1581 4331 
L 1581 2375 
z
M 353 0 
L 353 331 
L 947 331 
L 947 4331 
L 353 4331 
L 353 4666 
L 2559 4666 
Q 3259 4666 3668 4311 
Q 4078 3956 4078 3353 
Q 4078 2753 3668 2397 
Q 3259 2041 2559 2041 
L 1581 2041 
L 1581 331 
L 2303 331 
L 2303 0 
L 353 0 
z
" transform="scale(0.015625)"/>
       <path id="DejaVuSerif-4c" d="M 353 0 
L 353 331 
L 947 331 
L 947 4331 
L 353 4331 
L 353 4666 
L 2175 4666 
L 2175 4331 
L 1581 4331 
L 1581 384 
L 3713 384 
L 3713 1166 
L 4097 1166 
L 4097 0 
L 353 0 
z
" transform="scale(0.015625)"/>
       <path id="DejaVuSerif-4f" d="M 2625 244 
Q 3391 244 3781 770 
Q 4172 1297 4172 2328 
Q 4172 3363 3781 3889 
Q 3391 4416 2625 4416 
Q 1856 4416 1465 3889 
Q 1075 3363 1075 2328 
Q 1075 1297 1465 770 
Q 1856 244 2625 244 
z
M 2625 -91 
Q 2150 -91 1751 65 
Q 1353 222 1050 525 
Q 700 875 529 1319 
Q 359 1763 359 2328 
Q 359 2894 529 3339 
Q 700 3784 1050 4134 
Q 1356 4441 1750 4595 
Q 2144 4750 2625 4750 
Q 3641 4750 4266 4084 
Q 4891 3419 4891 2328 
Q 4891 1769 4719 1320 
Q 4547 872 4197 525 
Q 3891 219 3497 64 
Q 3103 -91 2625 -91 
z
" transform="scale(0.015625)"/>
       <path id="DejaVuSerif-42" d="M 1581 331 
L 2516 331 
Q 3078 331 3337 575 
Q 3597 819 3597 1350 
Q 3597 1878 3339 2120 
Q 3081 2363 2516 2363 
L 1581 2363 
L 1581 331 
z
M 1581 2694 
L 2375 2694 
Q 2888 2694 3123 2891 
Q 3359 3088 3359 3513 
Q 3359 3941 3123 4136 
Q 2888 4331 2375 4331 
L 1581 4331 
L 1581 2694 
z
M 353 0 
L 353 331 
L 947 331 
L 947 4331 
L 353 4331 
L 353 4666 
L 2656 4666 
Q 3363 4666 3720 4377 
Q 4078 4088 4078 3513 
Q 4078 3097 3829 2850 
Q 3581 2603 3103 2547 
Q 3697 2472 4005 2167 
Q 4313 1863 4313 1350 
Q 4313 656 3875 328 
Q 3438 0 2509 0 
L 353 0 
z
" transform="scale(0.015625)"/>
      </defs>
      <use xlink:href="#DejaVuSerif-54"/>
      <use xlink:href="#DejaVuSerif-68" transform="translate(66.699219 0)"/>
      <use xlink:href="#DejaVuSerif-65" transform="translate(131.103516 0)"/>
      <use xlink:href="#DejaVuSerif-6f" transform="translate(190.283203 0)"/>
      <use xlink:href="#DejaVuSerif-72" transform="translate(250.488281 0)"/>
      <use xlink:href="#DejaVuSerif-79" transform="translate(298.291016 0)"/>
      <use xlink:href="#DejaVuSerif-20" transform="translate(354.785156 0)"/>
      <use xlink:href="#DejaVuSerif-28" transform="translate(386.572266 0)"/>
      <use xlink:href="#DejaVuSerif-50" transform="translate(425.585938 0)"/>
      <use xlink:href="#DejaVuSerif-4c" transform="translate(492.871094 0)"/>
      <use xlink:href="#DejaVuSerif-4f" transform="translate(559.277344 0)"/>
      <use xlink:href="#DejaVuSerif-42" transform="translate(641.259766 0)"/>
      <use xlink:href="#DejaVuSerif-29" transform="translate(714.746094 0)"/>
     </g>
    </g>
    <g id="line2d_32">
     <path d="M 59.70125 116.0625 
L 71.70125 116.0625 
L 83.70125 116.0625 
" style="fill: none; stroke: #ff0000; stroke-width: 1.5; stroke-linecap: square"/>
     <g>
      <use xlink:href="#md08218b8ee" x="71.70125" y="116.0625" style="fill: #ff0000; stroke: #ff0000; stroke-linejoin: bevel"/>
     </g>
    </g>
    <g id="text_18">
     <!-- Simulation (PLOB) -->
     <g transform="translate(93.30125 120.2625) scale(0.12 -0.12)">
      <use xlink:href="#DejaVuSerif-53"/>
      <use xlink:href="#DejaVuSerif-69" transform="translate(68.505859 0)"/>
      <use xlink:href="#DejaVuSerif-6d" transform="translate(100.488281 0)"/>
      <use xlink:href="#DejaVuSerif-75" transform="translate(195.3125 0)"/>
      <use xlink:href="#DejaVuSerif-6c" transform="translate(259.716797 0)"/>
      <use xlink:href="#DejaVuSerif-61" transform="translate(291.699219 0)"/>
      <use xlink:href="#DejaVuSerif-74" transform="translate(351.318359 0)"/>
      <use xlink:href="#DejaVuSerif-69" transform="translate(391.503906 0)"/>
      <use xlink:href="#DejaVuSerif-6f" transform="translate(423.486328 0)"/>
      <use xlink:href="#DejaVuSerif-6e" transform="translate(483.691406 0)"/>
      <use xlink:href="#DejaVuSerif-20" transform="translate(548.095703 0)"/>
      <use xlink:href="#DejaVuSerif-28" transform="translate(579.882812 0)"/>
      <use xlink:href="#DejaVuSerif-50" transform="translate(618.896484 0)"/>
      <use xlink:href="#DejaVuSerif-4c" transform="translate(686.181641 0)"/>
      <use xlink:href="#DejaVuSerif-4f" transform="translate(752.587891 0)"/>
      <use xlink:href="#DejaVuSerif-42" transform="translate(834.570312 0)"/>
      <use xlink:href="#DejaVuSerif-29" transform="translate(908.056641 0)"/>
     </g>
    </g>
   </g>
  </g>
 </g>
 <defs>
  <clipPath id="p84bae8a2ba">
   <rect x="48.90125" y="7.2" width="390.6" height="166.32"/>
  </clipPath>
 </defs>
</svg>
